<svg width="60" height="60" viewBox="0 0 60 60" fill="none" xmlns="http://www.w3.org/2000/svg">
<path d="M27.7109 17.0612H40.7901C42.797 17.0612 43.8004 17.0612 44.5669 17.4518C45.2412 17.7953 45.7893 18.3435 46.1329 19.0177C46.5234 19.7842 46.5234 20.7877 46.5234 22.7945V25.1237C46.5234 26.7933 46.5234 27.6281 46.2507 28.2866C45.887 29.1647 45.1894 29.8622 44.3114 30.2259C43.6529 30.4987 42.8181 30.4987 41.1484 30.4987M31.2943 43.9362H18.2151C16.2082 43.9362 15.2048 43.9362 14.4383 43.5456C13.7641 43.2021 13.2159 42.6539 12.8723 41.9797C12.4818 41.2131 12.4818 40.2097 12.4818 38.2029V35.8737C12.4818 34.2041 12.4818 33.3693 12.7545 32.7108C13.1182 31.8327 13.8158 31.1352 14.6938 30.7715C15.3523 30.4987 16.1871 30.4987 17.8568 30.4987M26.4568 34.9779H32.5484C33.0502 34.9779 33.301 34.9779 33.4926 34.8802C33.6612 34.7943 33.7982 34.6573 33.8841 34.4887C33.9818 34.2971 33.9818 34.0462 33.9818 33.5445V27.4529C33.9818 26.9512 33.9818 26.7003 33.8841 26.5087C33.7982 26.3401 33.6612 26.2031 33.4926 26.1172C33.301 26.0195 33.0502 26.0195 32.5484 26.0195H26.4568C25.9551 26.0195 25.7042 26.0195 25.5126 26.1172C25.344 26.2031 25.207 26.3401 25.1211 26.5087C25.0234 26.7003 25.0234 26.9512 25.0234 27.4529V33.5445C25.0234 34.0462 25.0234 34.2971 25.1211 34.4887C25.207 34.6573 25.344 34.7943 25.5126 34.8802C25.7042 34.9779 25.9551 34.9779 26.4568 34.9779ZM39.8943 48.4154H45.9859C46.4877 48.4154 46.7385 48.4154 46.9301 48.3177C47.0987 48.2318 47.2357 48.0948 47.3216 47.9262C47.4193 47.7346 47.4193 47.4837 47.4193 46.982V40.8904C47.4193 40.3887 47.4193 40.1378 47.3216 39.9462C47.2357 39.7776 47.0987 39.6406 46.9301 39.5547C46.7385 39.457 46.4877 39.457 45.9859 39.457H39.8943C39.3926 39.457 39.1417 39.457 38.9501 39.5547C38.7815 39.6406 38.6445 39.7776 38.5586 39.9462C38.4609 40.1378 38.4609 40.3887 38.4609 40.8904V46.982C38.4609 47.4837 38.4609 47.7346 38.5586 47.9262C38.6445 48.0948 38.7815 48.2318 38.9501 48.3177C39.1417 48.4154 39.3926 48.4154 39.8943 48.4154ZM13.0193 21.5404H19.1109C19.6127 21.5404 19.8635 21.5404 20.0551 21.4427C20.2237 21.3568 20.3607 21.2198 20.4466 21.0512C20.5443 20.8596 20.5443 20.6087 20.5443 20.107V14.0154C20.5443 13.5137 20.5443 13.2628 20.4466 13.0712C20.3607 12.9026 20.2237 12.7656 20.0551 12.6797C19.8635 12.582 19.6127 12.582 19.1109 12.582H13.0193C12.5176 12.582 12.2667 12.582 12.0751 12.6797C11.9065 12.7656 11.7695 12.9026 11.6836 13.0712C11.5859 13.2628 11.5859 13.5137 11.5859 14.0154V20.107C11.5859 20.6087 11.5859 20.8596 11.6836 21.0512C11.7695 21.2198 11.9065 21.3568 12.0751 21.4427C12.2667 21.5404 12.5176 21.5404 13.0193 21.5404Z" stroke="white" stroke-width="2" stroke-linecap="round" stroke-linejoin="round"/>
</svg>
