<svg width="60" height="60" viewBox="0 0 60 60" fill="none" xmlns="http://www.w3.org/2000/svg">
<path fill-rule="evenodd" clip-rule="evenodd" d="M36.2609 21.8374L40.1681 18.3987C39.9854 18.0106 39.8833 17.5777 39.8833 17.1211C39.8833 15.4491 41.2523 14.0936 42.9411 14.0936C44.6299 14.0936 45.999 15.4491 45.999 17.1211C45.999 18.7932 44.6299 20.1487 42.9411 20.1487C42.3742 20.1487 41.8432 19.9959 41.388 19.7297L37.2606 23.3622C37.3326 23.6198 37.3711 23.8912 37.3711 24.1715C37.3711 25.8436 36.002 27.1991 34.3133 27.1991C32.6245 27.1991 31.2554 25.8436 31.2554 24.1715C31.2554 24.0402 31.2639 23.9109 31.2802 23.7841L27.9226 22.213C27.3644 22.806 26.5686 23.1768 25.6854 23.1768C24.7046 23.1768 23.8316 22.7196 23.272 22.0087L20.0349 23.8258C19.8915 23.219 19.5638 22.6825 19.1133 22.2772L22.6314 20.3024C22.6288 20.2516 22.6275 20.2006 22.6275 20.1492C22.6275 18.4771 23.9966 17.1217 25.6854 17.1217C27.3742 17.1217 28.7432 18.4771 28.7432 20.1492C28.7432 20.3003 28.732 20.4487 28.7104 20.5939L32.0366 22.1502C32.5965 21.5325 33.409 21.144 34.3133 21.144C35.0533 21.144 35.732 21.4042 36.2609 21.8374ZM26.928 20.1492C26.928 20.8287 26.3717 21.3796 25.6854 21.3796C24.9991 21.3796 24.4427 20.8287 24.4427 20.1492C24.4427 19.4697 24.9991 18.9188 25.6854 18.9188C26.3717 18.9188 26.928 19.4697 26.928 20.1492ZM34.3133 25.4019C34.9996 25.4019 35.5559 24.851 35.5559 24.1715C35.5559 23.492 34.9996 22.9411 34.3133 22.9411C33.6269 22.9411 33.0706 23.492 33.0706 24.1715C33.0706 24.851 33.6269 25.4019 34.3133 25.4019ZM44.1838 17.1211C44.1838 17.8007 43.6274 18.3515 42.9411 18.3515C42.2548 18.3515 41.6985 17.8007 41.6985 17.1211C41.6985 16.4416 42.2548 15.8908 42.9411 15.8908C43.6274 15.8908 44.1838 16.4416 44.1838 17.1211Z" fill="white"/>
<path fill-rule="evenodd" clip-rule="evenodd" d="M17.0575 27.546C18.7463 27.546 20.1153 26.1905 20.1153 24.5184C20.1153 22.8464 18.7463 21.4909 17.0575 21.4909C15.3687 21.4909 13.9996 22.8464 13.9996 24.5184C13.9996 26.1905 15.3687 27.546 17.0575 27.546ZM17.0575 25.7488C17.7438 25.7488 18.3001 25.1979 18.3001 24.5184C18.3001 23.8389 17.7438 23.2881 17.0575 23.2881C16.3712 23.2881 15.8148 23.8389 15.8148 24.5184C15.8148 25.1979 16.3712 25.7488 17.0575 25.7488Z" fill="white"/>
<path d="M17.0431 30.2803C17.5444 30.2803 17.9507 30.6826 17.9507 31.1788V34.8776C17.9507 35.3739 17.5444 35.7762 17.0431 35.7762C16.5419 35.7762 16.1356 35.3739 16.1356 34.8776V31.1788C16.1356 30.6826 16.5419 30.2803 17.0431 30.2803Z" fill="white"/>
<path d="M35.2265 31.1788C35.2265 30.6826 34.8202 30.2803 34.319 30.2803C33.8177 30.2803 33.4114 30.6826 33.4114 31.1788V34.8776C33.4114 35.3739 33.8177 35.7762 34.319 35.7762C34.8202 35.7762 35.2265 35.3739 35.2265 34.8776V31.1788Z" fill="white"/>
<path d="M42.9559 22.8966C43.4571 22.8966 43.8634 23.2989 43.8634 23.7951V34.8776C43.8634 35.3739 43.4571 35.7762 42.9559 35.7762C42.4546 35.7762 42.0483 35.3739 42.0483 34.8776V23.7951C42.0483 23.2989 42.4546 22.8966 42.9559 22.8966Z" fill="white"/>
<path d="M26.5888 27.546C26.5888 27.0497 26.1825 26.6474 25.6813 26.6474C25.18 26.6474 24.7737 27.0497 24.7737 27.546V34.8778C24.7737 35.3741 25.18 35.7764 25.6813 35.7764C26.1825 35.7764 26.5888 35.3741 26.5888 34.8778V27.546Z" fill="white"/>
<path fill-rule="evenodd" clip-rule="evenodd" d="M9 13.3962C9 12.0728 10.0836 11 11.4202 11H48.5798C49.9164 11 51 12.0728 51 13.3962V38.4676C51 39.791 49.9164 40.8638 48.5798 40.8638H30.9074V47.2028H38.2898C38.791 47.2028 39.1974 47.6051 39.1974 48.1014C39.1974 48.5977 38.791 49 38.2898 49H30.0057L29.9998 49L29.994 49H21.7093C21.2081 49 20.8017 48.5977 20.8017 48.1014C20.8017 47.6051 21.2081 47.2028 21.7093 47.2028H29.0922V40.8638L11.4202 40.8638C10.0836 40.8638 9 39.791 9 38.4676V13.3962ZM11.4202 12.7972H48.5798C48.914 12.7972 49.1848 13.0654 49.1848 13.3962V38.4676C49.1848 38.7984 48.914 39.0666 48.5798 39.0666H11.4202C11.086 39.0666 10.8152 38.7984 10.8152 38.4676V13.3962C10.8152 13.0654 11.086 12.7972 11.4202 12.7972Z" fill="white"/>
</svg>
