<svg width="60" height="60" viewBox="0 0 60 60" fill="none" xmlns="http://www.w3.org/2000/svg">
<path d="M32.9341 23.0064C31.837 23.7886 30.4944 24.2487 29.0443 24.2487C25.3394 24.2487 22.3359 21.2453 22.3359 17.5404C22.3359 13.8355 25.3394 10.832 29.0443 10.832C31.4458 10.832 33.5526 12.094 34.7377 13.991M18.5026 45.4991H23.5057C24.158 45.4991 24.8063 45.5767 25.4387 45.7319L30.725 47.0165C31.872 47.296 33.0669 47.3232 34.2259 47.0981L40.0708 45.9609C41.6148 45.6601 43.0351 44.9208 44.1483 43.838L48.2836 39.8153C49.4645 38.6685 49.4645 36.8075 48.2836 35.6587C47.2203 34.6244 45.5367 34.508 44.3338 35.3851L39.5142 38.9013C38.824 39.4059 37.9842 39.6775 37.1204 39.6775H32.4665L35.4288 39.6774C37.0985 39.6774 38.451 38.3617 38.451 36.7375V36.1496C38.451 34.8009 37.5074 33.625 36.1629 33.2989L31.5907 32.187C30.8467 32.0066 30.0846 31.9154 29.3186 31.9154C27.4694 31.9154 24.1221 33.4464 24.1221 33.4464L18.5026 35.7964M45.3359 19.457C45.3359 23.1619 42.3325 26.1654 38.6276 26.1654C34.9227 26.1654 31.9193 23.1619 31.9193 19.457C31.9193 15.7521 34.9227 12.7487 38.6276 12.7487C42.3325 12.7487 45.3359 15.7521 45.3359 19.457ZM10.8359 34.982L10.8359 46.0987C10.8359 47.1721 10.8359 47.7088 11.0448 48.1188C11.2286 48.4795 11.5218 48.7727 11.8825 48.9565C12.2925 49.1654 12.8292 49.1654 13.9026 49.1654H15.4359C16.5094 49.1654 17.0461 49.1654 17.4561 48.9565C17.8167 48.7727 18.1099 48.4795 18.2937 48.1188C18.5026 47.7088 18.5026 47.1721 18.5026 46.0987V34.982C18.5026 33.9086 18.5026 33.3719 18.2937 32.9619C18.1099 32.6012 17.8167 32.308 17.4561 32.1243C17.0461 31.9154 16.5094 31.9154 15.4359 31.9154L13.9026 31.9154C12.8292 31.9154 12.2925 31.9154 11.8825 32.1243C11.5218 32.308 11.2286 32.6012 11.0448 32.9619C10.8359 33.3719 10.8359 33.9086 10.8359 34.982Z" stroke="white" stroke-width="2.5" stroke-linecap="round" stroke-linejoin="round"/>
</svg>
