<svg width="60" height="60" viewBox="0 0 60 60" fill="none" xmlns="http://www.w3.org/2000/svg">
<path d="M38.7046 13.6152H15.2661C14.7999 13.6152 14.4219 13.981 14.4219 14.4321V41.001C14.4219 41.4522 14.7999 41.8179 15.2661 41.8179H38.7046C39.1709 41.8179 39.5489 41.4522 39.5489 41.001V14.4321C39.5489 13.981 39.1709 13.6152 38.7046 13.6152Z" fill="white"/>
<path d="M52.6832 40.8173H41.6172V21.957H46.689L52.6832 28.9794V40.8173Z" stroke="white" stroke-width="2"/>
<path d="M41.6172 31.3848H52.6731" stroke="white" stroke-width="2" stroke-linecap="square" stroke-linejoin="round"/>
<path d="M23.4738 46.9997C25.8756 46.9997 27.8226 45.1158 27.8226 42.7919C27.8226 40.4679 25.8756 38.584 23.4738 38.584C21.072 38.584 19.125 40.4679 19.125 42.7919C19.125 45.1158 21.072 46.9997 23.4738 46.9997Z" fill="white" stroke="#19284E" stroke-width="2" stroke-linecap="square" stroke-linejoin="round"/>
<path d="M47.1404 46.6475C49.3407 46.6475 51.1245 44.9216 51.1245 42.7925C51.1245 40.6634 49.3407 38.9375 47.1404 38.9375C44.94 38.9375 43.1562 40.6634 43.1562 42.7925C43.1562 44.9216 44.94 46.6475 47.1404 46.6475Z" fill="white" stroke="#19284E" stroke-width="2" stroke-linecap="square" stroke-linejoin="round"/>
<path d="M39.8828 13V41.8179" stroke="#19284E" stroke-width="2" stroke-miterlimit="10"/>
<path d="M7 20.2461H15.4873" stroke="white" stroke-width="2"/>
<path d="M10.1797 25.418H18.667" stroke="white" stroke-width="2"/>
</svg>
