<svg width="60" height="60" viewBox="0 0 60 60" fill="none" xmlns="http://www.w3.org/2000/svg">
<path fill-rule="evenodd" clip-rule="evenodd" d="M21.7444 25.3343V21.5997C21.7444 18.4957 24.2816 15.9794 27.4115 15.9794H28.4205C31.5504 15.9794 34.0877 18.4957 34.0877 21.5997V25.3343H35.1724C36.1815 25.3343 36.9995 26.1456 36.9995 27.1464V27.5249C37.0008 27.5442 37.0014 27.5637 37.0014 27.5834V29.0661C37.0014 29.555 36.6018 29.9514 36.1088 29.9514C35.6158 29.9514 35.2161 29.555 35.2161 29.0661V29.0273H35.2142V27.1464C35.2142 27.1374 35.2127 27.1333 35.2116 27.1308C35.2101 27.1271 35.207 27.1221 35.2019 27.117C35.1969 27.112 35.1918 27.109 35.1881 27.1074C35.1856 27.1064 35.1814 27.1049 35.1724 27.1049H20.6974C20.6883 27.1049 20.6842 27.1064 20.6817 27.1074C20.678 27.109 20.6729 27.112 20.6678 27.117C20.6627 27.1221 20.6597 27.1271 20.6581 27.1308C20.6571 27.1333 20.6556 27.1374 20.6556 27.1464V37.555C20.6556 37.564 20.6571 37.5681 20.6581 37.5706C20.6597 37.5743 20.6627 37.5793 20.6678 37.5844C20.6729 37.5894 20.678 37.5924 20.6817 37.594C20.6842 37.595 20.6883 37.5965 20.6974 37.5965H24.6062C24.6338 37.594 24.6618 37.5927 24.69 37.5927H26.1851C26.6781 37.5927 27.0777 37.989 27.0777 38.4779C27.0777 38.9669 26.6781 39.3632 26.1851 39.3632H25.7668V39.3671H20.6974C19.6883 39.3671 18.8703 38.5558 18.8703 37.555V27.1464C18.8703 26.1456 19.6883 25.3343 20.6974 25.3343H21.7444ZM27.4115 17.7499H28.4205C30.5644 17.7499 32.3024 19.4735 32.3024 21.5997V25.3343H23.5297V21.5997C23.5297 19.4735 25.2676 17.7499 27.4115 17.7499Z" fill="white"/>
<path d="M27.9348 28.3958C28.4278 28.3958 28.8275 28.7921 28.8275 29.2811V33.447C28.8275 33.936 28.4278 34.3323 27.9348 34.3323C27.4418 34.3323 27.0422 33.936 27.0422 33.447V29.2811C27.0422 28.7921 27.4418 28.3958 27.9348 28.3958Z" fill="white"/>
<path d="M37.2081 32.6081C37.6753 32.764 37.9267 33.266 37.7695 33.7294L35.6872 39.8687C35.53 40.3321 35.0238 40.5815 34.5566 40.4256C34.0893 40.2697 33.8379 39.7677 33.9951 39.3042L36.0774 33.1649C36.2346 32.7015 36.7408 32.4522 37.2081 32.6081Z" fill="white"/>
<path d="M33.1614 33.3356C33.5084 33.6829 33.5059 34.2434 33.1557 34.5876L31.1927 36.5168L33.1557 38.4461C33.5059 38.7902 33.5084 39.3507 33.1614 39.698C32.8144 40.0453 32.2492 40.0479 31.899 39.7037L29.2962 37.1457C29.127 36.9794 29.0318 36.753 29.0318 36.5168C29.0318 36.2806 29.127 36.0543 29.2962 35.888L31.899 33.33C32.2492 32.9858 32.8144 32.9883 33.1614 33.3356Z" fill="white"/>
<path d="M38.4762 33.3356C38.8232 32.9883 39.3884 32.9858 39.7386 33.33L42.3415 35.888C42.5107 36.0543 42.6058 36.2806 42.6058 36.5168C42.6058 36.753 42.5107 36.9794 42.3415 37.1457L39.7386 39.7037C39.3884 40.0479 38.8232 40.0453 38.4762 39.698C38.1292 39.3507 38.1318 38.7902 38.482 38.4461L40.445 36.5168L38.482 34.5876C38.1318 34.2434 38.1292 33.6829 38.4762 33.3356Z" fill="white"/>
<path fill-rule="evenodd" clip-rule="evenodd" d="M46.9696 33.3494C46.1613 43.7188 29.5 52 29.5 52C29.5 52 12.8387 43.7188 12.0304 33.3494H12V14.8035L29.5 9L47 14.8035V33.3494H46.9696ZM13.5929 33.2296L13.5672 32.8995V15.9226L29.5 10.6388L45.4328 15.9226V32.8995L45.4071 33.2296C45.2356 35.4299 44.2125 37.6156 42.6415 39.7106C41.0743 41.8004 39.0266 43.7131 36.956 45.347C34.8911 46.9763 32.8434 48.2973 31.3088 49.2118C30.561 49.6574 29.9386 50.0045 29.5 50.2417C29.0614 50.0045 28.439 49.6574 27.6912 49.2118C26.1566 48.2973 24.1089 46.9763 22.044 45.347C19.9734 43.7131 17.9257 41.8004 16.3585 39.7106C14.7875 37.6156 13.7644 35.4299 13.5929 33.2296Z" fill="white"/>
<path fill-rule="evenodd" clip-rule="evenodd" d="M21.7444 25.3343V21.5997C21.7444 18.4957 24.2816 15.9794 27.4115 15.9794H28.4205C31.5504 15.9794 34.0877 18.4957 34.0877 21.5997V25.3343H35.1724C36.1815 25.3343 36.9995 26.1456 36.9995 27.1464V27.5249C37.0008 27.5442 37.0014 27.5637 37.0014 27.5834V29.0661C37.0014 29.555 36.6018 29.9514 36.1088 29.9514C35.6158 29.9514 35.2161 29.555 35.2161 29.0661V29.0273H35.2142V27.1464C35.2142 27.1374 35.2127 27.1333 35.2116 27.1308C35.2101 27.1271 35.207 27.1221 35.2019 27.117C35.1969 27.112 35.1918 27.109 35.1881 27.1074C35.1856 27.1064 35.1814 27.1049 35.1724 27.1049H20.6974C20.6883 27.1049 20.6842 27.1064 20.6817 27.1074C20.678 27.109 20.6729 27.112 20.6678 27.117C20.6627 27.1221 20.6597 27.1271 20.6581 27.1308C20.6571 27.1333 20.6556 27.1374 20.6556 27.1464V37.555C20.6556 37.564 20.6571 37.5681 20.6581 37.5706C20.6597 37.5743 20.6627 37.5793 20.6678 37.5844C20.6729 37.5894 20.678 37.5924 20.6817 37.594C20.6842 37.595 20.6883 37.5965 20.6974 37.5965H24.6062C24.6338 37.594 24.6618 37.5927 24.69 37.5927H26.1851C26.6781 37.5927 27.0777 37.989 27.0777 38.4779C27.0777 38.9669 26.6781 39.3632 26.1851 39.3632H25.7668V39.3671H20.6974C19.6883 39.3671 18.8703 38.5558 18.8703 37.555V27.1464C18.8703 26.1456 19.6883 25.3343 20.6974 25.3343H21.7444ZM27.4115 17.7499H28.4205C30.5644 17.7499 32.3024 19.4735 32.3024 21.5997V25.3343H23.5297V21.5997C23.5297 19.4735 25.2676 17.7499 27.4115 17.7499Z" stroke="white" stroke-width="0.2"/>
<path d="M27.9348 28.3958C28.4278 28.3958 28.8275 28.7921 28.8275 29.2811V33.447C28.8275 33.936 28.4278 34.3323 27.9348 34.3323C27.4418 34.3323 27.0422 33.936 27.0422 33.447V29.2811C27.0422 28.7921 27.4418 28.3958 27.9348 28.3958Z" stroke="white" stroke-width="0.2"/>
<path d="M37.2081 32.6081C37.6753 32.764 37.9267 33.266 37.7695 33.7294L35.6872 39.8687C35.53 40.3321 35.0238 40.5815 34.5566 40.4256C34.0893 40.2697 33.8379 39.7677 33.9951 39.3042L36.0774 33.1649C36.2346 32.7015 36.7408 32.4522 37.2081 32.6081Z" stroke="white" stroke-width="0.2"/>
<path d="M33.1614 33.3356C33.5084 33.6829 33.5059 34.2434 33.1557 34.5876L31.1927 36.5168L33.1557 38.4461C33.5059 38.7902 33.5084 39.3507 33.1614 39.698C32.8144 40.0453 32.2492 40.0479 31.899 39.7037L29.2962 37.1457C29.127 36.9794 29.0318 36.753 29.0318 36.5168C29.0318 36.2806 29.127 36.0543 29.2962 35.888L31.899 33.33C32.2492 32.9858 32.8144 32.9883 33.1614 33.3356Z" stroke="white" stroke-width="0.2"/>
<path d="M38.4762 33.3356C38.8232 32.9883 39.3884 32.9858 39.7386 33.33L42.3415 35.888C42.5107 36.0543 42.6058 36.2806 42.6058 36.5168C42.6058 36.753 42.5107 36.9794 42.3415 37.1457L39.7386 39.7037C39.3884 40.0479 38.8232 40.0453 38.4762 39.698C38.1292 39.3507 38.1318 38.7902 38.482 38.4461L40.445 36.5168L38.482 34.5876C38.1318 34.2434 38.1292 33.6829 38.4762 33.3356Z" stroke="white" stroke-width="0.2"/>
<path fill-rule="evenodd" clip-rule="evenodd" d="M46.9696 33.3494C46.1613 43.7188 29.5 52 29.5 52C29.5 52 12.8387 43.7188 12.0304 33.3494H12V14.8035L29.5 9L47 14.8035V33.3494H46.9696ZM13.5929 33.2296L13.5672 32.8995V15.9226L29.5 10.6388L45.4328 15.9226V32.8995L45.4071 33.2296C45.2356 35.4299 44.2125 37.6156 42.6415 39.7106C41.0743 41.8004 39.0266 43.7131 36.956 45.347C34.8911 46.9763 32.8434 48.2973 31.3088 49.2118C30.561 49.6574 29.9386 50.0045 29.5 50.2417C29.0614 50.0045 28.439 49.6574 27.6912 49.2118C26.1566 48.2973 24.1089 46.9763 22.044 45.347C19.9734 43.7131 17.9257 41.8004 16.3585 39.7106C14.7875 37.6156 13.7644 35.4299 13.5929 33.2296Z" stroke="white" stroke-width="0.2"/>
</svg>
