<svg width="60" height="60" viewBox="0 0 60 60" fill="none" xmlns="http://www.w3.org/2000/svg">
<path fill-rule="evenodd" clip-rule="evenodd" d="M28.0664 24.9439C26.3417 24.9439 24.9436 26.342 24.9436 28.0667V31.9331C24.9436 33.6577 26.3417 35.0558 28.0664 35.0558H31.9328C33.6574 35.0558 35.0555 33.6577 35.0555 31.9331V28.0667C35.0555 26.342 33.6574 24.9439 31.9328 24.9439H28.0664ZM26.6469 28.0667C26.6469 27.2827 27.2824 26.6472 28.0664 26.6472H31.9328C32.7167 26.6472 33.3522 27.2827 33.3522 28.0667V31.9331C33.3522 32.717 32.7167 33.3525 31.9328 33.3525H28.0664C27.2824 33.3525 26.6469 32.717 26.6469 31.9331V28.0667Z" fill="white"/>
<path fill-rule="evenodd" clip-rule="evenodd" d="M21.0065 15.8725C20.0393 15.5237 19.3479 14.5978 19.3479 13.5103C19.3479 12.1239 20.4718 11 21.8582 11C23.2446 11 24.3685 12.1239 24.3685 13.5103C24.3685 14.5978 23.6771 15.5237 22.7099 15.8725V18.8849L26.782 21.5527H29.1483L29.1484 15.8484C28.2148 15.4824 27.5538 14.5736 27.5538 13.5103C27.5538 12.1239 28.6777 11 30.0641 11C31.4505 11 32.5744 12.1239 32.5744 13.5103C32.5744 14.6216 31.8523 15.5643 30.8517 15.8946L30.8517 21.5527H33.2181L37.2902 18.8849V15.8725C36.323 15.5237 35.6315 14.5978 35.6315 13.5103C35.6315 12.1239 36.7554 11 38.1418 11C39.5282 11 40.6522 12.1239 40.6522 13.5103C40.6522 14.5978 39.9607 15.5237 38.9935 15.8725V19.345C38.9935 19.6322 38.8488 19.9001 38.6086 20.0574L36.1557 21.6645C37.2123 21.9554 38.0446 22.7877 38.3357 23.8443L39.9426 21.3916C40.0999 21.1514 40.3678 21.0066 40.6549 21.0066H44.1275C44.4763 20.0394 45.4022 19.348 46.4897 19.348C47.8761 19.348 49 20.4719 49 21.8583C49 23.2447 47.8761 24.3686 46.4897 24.3686C45.4022 24.3686 44.4763 23.6772 44.1275 22.71H41.1151L38.4475 26.7818V29.1485H44.1054C44.4357 28.1478 45.3784 27.4257 46.4897 27.4257C47.8761 27.4257 49 28.5496 49 29.936C49 31.3224 47.8761 32.4463 46.4897 32.4463C45.4264 32.4463 44.5176 31.7853 44.1516 30.8518H38.4475V33.2185L41.1151 37.2903H44.1275C44.4763 36.3231 45.4022 35.6316 46.4897 35.6316C47.8761 35.6316 49 36.7555 49 38.1419C49 39.5284 47.8761 40.6523 46.4897 40.6523C45.4022 40.6523 44.4763 39.9608 44.1275 38.9936H40.655C40.3678 38.9936 40.0999 38.8489 39.9426 38.6087L38.3357 36.156C38.0446 37.2125 37.2124 38.0447 36.1559 38.3357L38.6086 39.9426C38.8488 40.0999 38.9935 40.3678 38.9935 40.655V44.1275C39.9607 44.4763 40.6522 45.4022 40.6522 46.4897C40.6522 47.8761 39.5282 49 38.1418 49C36.7554 49 35.6315 47.8761 35.6315 46.4897C35.6315 45.4022 36.323 44.4763 37.2902 44.1275V41.1151L33.2184 38.4475H30.8517V44.1054C31.8523 44.4357 32.5744 45.3784 32.5744 46.4897C32.5744 47.8761 31.4505 49 30.0641 49C28.6777 49 27.5538 47.8761 27.5538 46.4897C27.5538 45.4264 28.2148 44.5176 29.1484 44.1516V38.4475H26.7817L22.7099 41.1151V44.1275C23.6771 44.4763 24.3685 45.4022 24.3685 46.4897C24.3685 47.8761 23.2446 49 21.8582 49C20.4718 49 19.3479 47.8761 19.3479 46.4897C19.3479 45.4022 20.0393 44.4763 21.0065 44.1275V40.655C21.0065 40.3678 21.1513 40.0999 21.3915 39.9426L23.8442 38.3356C22.7877 38.0446 21.9554 37.2123 21.6645 36.1557L20.0574 38.6087C19.9001 38.8489 19.6322 38.9936 19.345 38.9936H15.8725C15.5237 39.9608 14.5978 40.6523 13.5103 40.6523C12.1239 40.6523 11 39.5284 11 38.1419C11 36.7555 12.1239 35.6316 13.5103 35.6316C14.5978 35.6316 15.5237 36.3231 15.8725 37.2903H18.8849L21.5527 33.2182V30.8518H15.8484C15.4824 31.7853 14.5736 32.4463 13.5103 32.4463C12.1239 32.4463 11 31.3224 11 29.936C11 28.5496 12.1239 27.4257 13.5103 27.4257C14.6216 27.4257 15.5643 28.1478 15.8946 29.1485H21.5527V26.7821L18.8849 22.71H15.8725C15.5237 23.6772 14.5978 24.3686 13.5103 24.3686C12.1239 24.3686 11 23.2447 11 21.8583C11 20.4719 12.1239 19.348 13.5103 19.348C14.5978 19.348 15.5237 20.0394 15.8725 21.0066H19.345C19.6322 21.0066 19.9001 21.1514 20.0574 21.3916L21.6645 23.8445C21.9555 22.7878 22.7878 21.9555 23.8444 21.6645L21.3915 20.0574C21.1513 19.9001 21.0065 19.6322 21.0065 19.345V15.8725ZM21.6494 14.3822C21.7162 14.3654 21.7861 14.3564 21.8582 14.3564C21.9303 14.3564 22.0002 14.3654 22.0671 14.3822C22.4614 14.2881 22.7546 13.9335 22.7546 13.5103C22.7546 13.0153 22.3532 12.614 21.8582 12.614C21.3632 12.614 20.9618 13.0153 20.9618 13.5103C20.9618 13.9335 21.255 14.2881 21.6494 14.3822ZM30.9605 13.5103C30.9605 14.0054 30.5592 14.4067 30.0641 14.4067C29.5691 14.4067 29.1678 14.0054 29.1678 13.5103C29.1678 13.0153 29.5691 12.614 30.0641 12.614C30.5592 12.614 30.9605 13.0153 30.9605 13.5103ZM39.0382 13.5103C39.0382 13.9335 38.745 14.2881 38.3507 14.3822C38.2839 14.3654 38.2139 14.3564 38.1418 14.3564C38.0698 14.3564 37.9998 14.3654 37.933 14.3822C37.5387 14.2881 37.2455 13.9335 37.2455 13.5103C37.2455 13.0153 37.6468 12.614 38.1418 12.614C38.6369 12.614 39.0382 13.0153 39.0382 13.5103ZM30.0641 45.5933C30.5592 45.5933 30.9605 45.9946 30.9605 46.4897C30.9605 46.9847 30.5592 47.386 30.0641 47.386C29.5691 47.386 29.1678 46.9847 29.1678 46.4897C29.1678 45.9946 29.5691 45.5933 30.0641 45.5933ZM21.6494 45.6178C21.7162 45.6346 21.7861 45.6436 21.8582 45.6436C21.9303 45.6436 22.0002 45.6346 22.067 45.6178C22.4614 45.7119 22.7546 46.0665 22.7546 46.4897C22.7546 46.9847 22.3532 47.386 21.8582 47.386C21.3632 47.386 20.9618 46.9847 20.9618 46.4897C20.9618 46.0665 21.255 45.7119 21.6494 45.6178ZM37.2455 46.4897C37.2455 46.0665 37.5387 45.7119 37.933 45.6178C37.9998 45.6346 38.0698 45.6436 38.1418 45.6436C38.2139 45.6436 38.2839 45.6346 38.3507 45.6178C38.745 45.7119 39.0382 46.0665 39.0382 46.4897C39.0382 46.9847 38.6369 47.386 38.1418 47.386C37.6468 47.386 37.2455 46.9847 37.2455 46.4897ZM14.3564 21.8583C14.3564 21.9304 14.3654 22.0003 14.3822 22.0672C14.2881 22.4615 13.9335 22.7547 13.5103 22.7547C13.0153 22.7547 12.614 22.3534 12.614 21.8583C12.614 21.3633 13.0153 20.962 13.5103 20.962C13.9335 20.962 14.2881 21.2551 14.3822 21.6495C14.3654 21.7163 14.3564 21.7863 14.3564 21.8583ZM14.3822 37.9331C14.3654 37.9999 14.3564 38.0699 14.3564 38.1419C14.3564 38.214 14.3654 38.284 14.3822 38.3508C14.2881 38.7451 13.9335 39.0383 13.5103 39.0383C13.0153 39.0383 12.614 38.637 12.614 38.1419C12.614 37.6469 13.0153 37.2456 13.5103 37.2456C13.9335 37.2456 14.2881 37.5388 14.3822 37.9331ZM13.5103 29.0397C14.0054 29.0397 14.4067 29.441 14.4067 29.936C14.4067 30.4311 14.0054 30.8324 13.5103 30.8324C13.0153 30.8324 12.614 30.4311 12.614 29.936C12.614 29.441 13.0153 29.0397 13.5103 29.0397ZM45.5933 29.936C45.5933 29.441 45.9946 29.0397 46.4897 29.0397C46.9847 29.0397 47.386 29.441 47.386 29.936C47.386 30.4311 46.9847 30.8324 46.4897 30.8324C45.9946 30.8324 45.5933 30.4311 45.5933 29.936ZM45.6178 38.3508C45.6346 38.284 45.6436 38.214 45.6436 38.1419C45.6436 38.0699 45.6346 37.9999 45.6178 37.9331C45.7119 37.5388 46.0665 37.2456 46.4897 37.2456C46.9847 37.2456 47.386 37.6469 47.386 38.1419C47.386 38.637 46.9847 39.0383 46.4897 39.0383C46.0665 39.0383 45.7119 38.7451 45.6178 38.3508ZM46.4897 22.7547C46.0665 22.7547 45.7119 22.4615 45.6178 22.0672C45.6346 22.0003 45.6436 21.9304 45.6436 21.8583C45.6436 21.7863 45.6346 21.7163 45.6178 21.6495C45.7119 21.2551 46.0665 20.962 46.4897 20.962C46.9847 20.962 47.386 21.3633 47.386 21.8583C47.386 22.3534 46.9847 22.7547 46.4897 22.7547ZM24.6755 23.256C23.8915 23.256 23.256 23.8915 23.256 24.6755V35.3247C23.256 36.1087 23.8915 36.7442 24.6755 36.7442H35.3247C36.1087 36.7442 36.7442 36.1087 36.7442 35.3247V24.6755C36.7442 23.8915 36.1087 23.256 35.3247 23.256H24.6755Z" fill="white"/>
</svg>
