<svg width="60" height="60" viewBox="0 0 60 60" fill="none" xmlns="http://www.w3.org/2000/svg">
<path fill-rule="evenodd" clip-rule="evenodd" d="M23.8336 10.6288C18.7385 11.974 14.5024 15.4152 12.1165 19.9672H20.047C20.4613 17.8832 21.0243 15.9868 21.708 14.3539C22.3124 12.9102 23.0237 11.6426 23.8336 10.6288ZM32.8589 10.4931C33.5859 11.3727 34.2336 12.4529 34.7971 13.6759C35.6171 15.4554 36.2834 17.5905 36.7559 19.9672H45.1245C42.6535 15.2529 38.1976 11.7301 32.8589 10.4931ZM37.1036 21.9994H46.037C46.3533 22.8368 46.6102 23.7031 46.8026 24.5933C46.92 25.1361 47.4579 25.4816 48.004 25.365C48.5502 25.2483 48.8978 24.7137 48.7804 24.1708C46.7824 14.9285 38.5166 8 28.6203 8C17.232 8 8 17.1765 8 28.4963C8 39.8161 17.232 48.9926 28.6203 48.9926C31.0753 48.9926 33.4323 48.5658 35.6187 47.7817C36.1441 47.5933 36.4164 47.0171 36.2269 46.4948C36.0373 45.9725 35.4577 45.7019 34.9322 45.8903C34.2577 46.1322 33.5649 46.3364 32.8565 46.5004C33.4731 45.7544 34.024 44.8765 34.5058 43.9212C34.6586 43.6181 34.8064 43.3038 34.9489 42.9793C35.1723 42.4704 34.9384 41.8778 34.4264 41.6557C33.9144 41.4336 33.3183 41.6661 33.0948 42.175C32.9659 42.4687 32.8332 42.7506 32.6973 43.0202C31.3206 45.7503 29.7636 46.945 28.4014 46.945C27.6296 46.945 26.8024 46.5756 25.9519 45.7164C25.0979 44.8537 24.2822 43.5537 23.5756 41.8661C22.9471 40.3651 22.4207 38.5953 22.0301 36.6282H32.4537C33.0124 36.6282 33.4652 36.1781 33.4652 35.6228C33.4652 35.0676 33.0124 34.6174 32.4537 34.6174H21.6887C21.4166 32.7044 21.2675 30.6457 21.2675 28.4963C21.2675 26.2054 21.4368 24.0176 21.744 21.9994H35.0588C35.2775 23.4357 35.4264 24.9588 35.494 26.5451C35.5213 27.1864 35.5353 27.8373 35.5353 28.4963C35.5353 29.0515 35.9882 29.5017 36.5468 29.5017C37.1054 29.5017 37.5583 29.0515 37.5583 28.4963C37.5583 27.809 37.5436 27.1297 37.5151 26.46C37.4494 24.9189 37.3098 23.425 37.1036 21.9994ZM34.6915 19.9672C34.2527 17.8852 33.6606 16.0381 32.9579 14.5132C32.2682 13.0164 31.4927 11.875 30.6921 11.1211C29.8967 10.3721 29.126 10.0476 28.4014 10.0476C27.6296 10.0476 26.8024 10.4169 25.9519 11.2761C25.0979 12.1388 24.2822 13.4389 23.5756 15.1265C22.9897 16.5257 22.4925 18.1586 22.1114 19.9672H34.6915ZM19.6993 21.9994H11.204C10.4405 24.0206 10.0229 26.21 10.0229 28.4963C10.0229 30.6417 10.3906 32.7017 11.0667 34.6174H19.6467C19.3848 32.682 19.2446 30.6248 19.2446 28.4963C19.2446 26.2295 19.4037 24.0434 19.6993 21.9994ZM19.9703 36.6282H11.9144C14.2584 41.3769 18.5913 44.9798 23.8337 46.3638C23.0237 45.35 22.3125 44.0825 21.708 42.6387C20.9811 40.9026 20.3907 38.8687 19.9703 36.6282ZM46.001 27.1149L46.4258 27.3104L55.4134 31.4449L56 31.7148V32.3573V38.5591C56 44.6883 51.9138 50.5055 46.2502 51.937L46.001 52L45.7517 51.937C40.0881 50.5055 36.0019 44.6883 36.0019 38.5591V32.3573V31.7148L36.5886 31.4449L45.5761 27.3104L46.001 27.1149ZM38.0249 32.9998V38.5591C38.0249 43.8071 41.4804 48.6383 46.001 49.9214C50.5215 48.6383 53.9771 43.8071 53.9771 38.5591V32.9998L46.001 29.3306L38.0249 32.9998ZM50.3584 35.6263L44.4027 41.4328L41.9703 39.0614L40.5538 40.4969L43.6944 43.5589L44.4027 44.2494L45.111 43.5589L51.775 37.0618L50.3584 35.6263Z" fill="white"/>
</svg>
