<svg width="49" height="48" viewBox="0 0 49 48" fill="none" xmlns="http://www.w3.org/2000/svg">
<g clip-path="url(#clip0_18_14897)">
<path d="M42.8217 9.65234H20.4023C19.2978 9.65234 18.4023 10.5478 18.4023 11.6523V32.435C18.4023 33.5395 19.2978 34.435 20.4023 34.435H42.8217C43.9263 34.435 44.8217 33.5395 44.8217 32.4349V11.6523C44.8217 10.5478 43.9263 9.65234 42.8217 9.65234Z" fill="black" stroke="white" stroke-width="2" stroke-miterlimit="10"/>
<path d="M18.4016 32.4347C18.4016 33.5393 17.5062 34.4347 16.4016 34.4347H6.17578C5.07121 34.4347 4.17578 33.5393 4.17578 32.4347V22.788C4.17578 21.949 4.69943 21.1992 5.48713 20.9103L15.7129 17.1599C17.0182 16.6812 18.4016 17.6473 18.4016 19.0376V32.4347Z" fill="black" stroke="white" stroke-width="2" stroke-miterlimit="10"/>
<path d="M11.2899 38.3474C13.7218 38.3474 15.6932 36.4495 15.6932 34.1083C15.6932 31.7671 13.7218 29.8691 11.2899 29.8691C8.85811 29.8691 6.88672 31.7671 6.88672 34.1083C6.88672 36.4495 8.85811 38.3474 11.2899 38.3474Z" fill="black" stroke="white" stroke-width="2" stroke-miterlimit="10"/>
<path d="M32.2899 38.3474C34.7218 38.3474 36.6932 36.4495 36.6932 34.1083C36.6932 31.7671 34.7218 29.8691 32.2899 29.8691C29.8581 29.8691 27.8867 31.7671 27.8867 34.1083C27.8867 36.4495 29.8581 38.3474 32.2899 38.3474Z" fill="black" stroke="white" stroke-width="2" stroke-miterlimit="10"/>
<path d="M8.24219 24.2846V26.608H14.339V22.3281L8.24219 24.2846Z" fill="white"/>
</g>
<defs>
<clipPath id="clip0_18_14897">
<rect width="42" height="30" fill="white" transform="translate(3.5 9)"/>
</clipPath>
</defs>
</svg>
