<svg width="60" height="60" viewBox="0 0 60 60" fill="none" xmlns="http://www.w3.org/2000/svg">
<path fill-rule="evenodd" clip-rule="evenodd" d="M27.3851 9.5H34.62C34.8313 9.5 35.0026 9.67129 35.0026 9.88259V15.1174C35.0026 15.3287 34.8313 15.5 34.62 15.5H27.3851C27.1739 15.5 27.0026 15.3287 27.0026 15.1174V9.88259C27.0026 9.67129 27.1739 9.5 27.3851 9.5ZM25.5026 9.88259C25.5026 8.84286 26.3454 8 27.3851 8H34.62C35.6597 8 36.5026 8.84286 36.5026 9.88259V15.1174C36.5026 16.1571 35.6597 17 34.62 17H27.3851C26.3454 17 25.5026 16.1571 25.5026 15.1174V9.88259ZM28.4971 20.194C28.0829 20.194 27.7471 20.5298 27.7471 20.944V22.6828C27.1426 22.8854 26.5728 23.1658 26.0489 23.5122L24.4543 22.4392C24.2858 22.3258 24.0784 22.2856 23.8797 22.3278C23.681 22.37 23.508 22.491 23.4001 22.6632L21.7304 25.3272C21.5155 25.6701 21.6114 26.1218 21.9472 26.3477L23.1475 27.1554C22.9338 27.7173 22.7829 28.3113 22.7034 28.9281L21.1264 29.1872C20.7208 29.2538 20.4445 29.6344 20.5066 30.0407L20.9866 33.178C21.0169 33.376 21.1252 33.5537 21.2873 33.6714C21.4494 33.7892 21.6519 33.8371 21.8496 33.8047L23.505 33.5327C23.6335 33.7813 23.7749 34.0217 23.9283 34.253L22.8348 35.4452C22.5618 35.7428 22.5735 36.2032 22.8613 36.4865L25.0835 38.6748C25.2285 38.8176 25.4253 38.8954 25.6288 38.8902C25.8322 38.885 26.0248 38.7974 26.1624 38.6474L27.5491 37.1355C27.6147 37.1596 27.6807 37.1828 27.7471 37.2051V38.9438C27.7471 39.358 28.0829 39.6938 28.4971 39.6938H31.5627C31.9769 39.6938 32.3127 39.358 32.3127 38.9438V37.2056C32.441 37.1626 32.5677 37.1162 32.6928 37.0663L34.143 38.6474C34.2806 38.7974 34.4732 38.885 34.6767 38.8902C34.8801 38.8954 35.0769 38.8176 35.222 38.6748L37.4441 36.4865C37.7319 36.2032 37.7436 35.7428 37.4706 35.4452L36.2339 34.0969C36.3337 33.9382 36.4279 33.7755 36.5164 33.609L38.8011 33.8862C38.9997 33.9103 39.1996 33.8541 39.3565 33.7301C39.5134 33.6061 39.6143 33.4246 39.6367 33.2259L39.9932 30.0709C40.0395 29.6617 39.7471 29.2918 39.3383 29.2422L37.3672 29.0031C37.2941 28.3894 37.1504 27.7978 36.9445 27.2374L38.2664 26.3478C38.6022 26.1219 38.6982 25.6702 38.4832 25.3273L36.8135 22.6632C36.7057 22.4911 36.5326 22.3701 36.3339 22.3279C36.1352 22.2857 35.9279 22.3259 35.7593 22.4393L34.0888 23.5634C33.5436 23.1931 32.9473 22.8948 32.3127 22.6823V20.944C32.3127 20.5298 31.977 20.194 31.5627 20.194H28.4971ZM29.2471 23.2459V21.694H30.8127V23.2455C30.8127 23.5911 31.0489 23.8919 31.3845 23.974C32.2012 24.1738 32.9543 24.5512 33.6033 25.0671C33.8593 25.2705 34.2175 25.2848 34.4887 25.1022L35.954 24.1163L36.8266 25.5087L35.598 26.3354C35.2918 26.5414 35.1811 26.9396 35.3368 27.2741C35.6801 28.0117 35.886 28.8325 35.9184 29.7016C35.9321 30.07 36.2116 30.3738 36.5776 30.4182L38.4192 30.6417L38.2311 32.3061L36.1661 32.0555C35.8381 32.0157 35.5227 32.1953 35.3895 32.4976C35.1975 32.933 34.958 33.341 34.678 33.7142C34.4614 34.003 34.4812 34.4051 34.7253 34.6712L35.8759 35.9257L34.7232 37.0608L33.4339 35.6552C33.2087 35.4096 32.8484 35.3421 32.5495 35.4895C32.1803 35.6715 31.7904 35.8146 31.3845 35.9139C31.0488 35.996 30.8127 36.2968 30.8127 36.6424V38.1938H29.2471V36.642C29.2471 36.2965 29.011 35.9957 28.6755 35.9136C28.3248 35.8277 27.986 35.7091 27.6622 35.5609C27.3665 35.4256 27.0172 35.4963 26.7974 35.736L25.5823 37.0608L24.4295 35.9257L25.4476 34.8158C25.6967 34.5442 25.7115 34.1318 25.4826 33.843C25.1401 33.4108 24.8532 32.9289 24.6336 32.4089C24.4988 32.0898 24.163 31.9045 23.8212 31.9607L22.3547 32.2016L22.1016 30.5471L23.5194 30.3142C23.8676 30.257 24.1289 29.9648 24.1469 29.6124C24.191 28.7492 24.4064 27.935 24.7574 27.2047C24.9188 26.8689 24.8092 26.4656 24.5001 26.2576L23.387 25.5086L24.2596 24.1162L25.643 25.0471C25.9112 25.2275 26.2648 25.2158 26.5205 25.0181C27.1549 24.5275 27.8854 24.1679 28.6755 23.9744C29.0111 23.8922 29.2471 23.5914 29.2471 23.2459ZM27.498 29.944C27.498 28.4252 28.7292 27.194 30.248 27.194C31.7668 27.194 32.998 28.4252 32.998 29.944C32.998 31.4628 31.7668 32.694 30.248 32.694C28.7292 32.694 27.498 31.4628 27.498 29.944ZM30.248 25.694C27.9008 25.694 25.998 27.5968 25.998 29.944C25.998 32.2912 27.9008 34.194 30.248 34.194C32.5952 34.194 34.498 32.2912 34.498 29.944C34.498 27.5968 32.5952 25.694 30.248 25.694ZM18.6353 45.5875C20.5683 45.5875 22.1353 44.0205 22.1353 42.0875C22.1353 40.1545 20.5683 38.5875 18.6353 38.5875C16.7023 38.5875 15.1353 40.1545 15.1353 42.0875C15.1353 44.0205 16.7023 45.5875 18.6353 45.5875ZM18.6353 47.0875C21.3967 47.0875 23.6353 44.8489 23.6353 42.0875C23.6353 39.3261 21.3967 37.0875 18.6353 37.0875C15.8739 37.0875 13.6353 39.3261 13.6353 42.0875C13.6353 44.8489 15.8739 47.0875 18.6353 47.0875ZM43.6477 35.4838L46.6477 33.8171L49.6477 35.4838V38.7186L46.6477 40.3853L43.6477 38.7186V35.4838ZM46.1906 32.3552C46.4749 32.1972 46.8205 32.1972 47.1048 32.3552L50.6635 34.3322C50.9624 34.4982 51.1477 34.8132 51.1477 35.1551V39.0473C51.1477 39.3892 50.9624 39.7042 50.6635 39.8702L47.1048 41.8472C46.8205 42.0052 46.4749 42.0052 46.1906 41.8472L42.6319 39.8702C42.333 39.7042 42.1477 39.3892 42.1477 39.0473V35.1551C42.1477 34.8132 42.333 34.4982 42.6319 34.3322L46.1906 32.3552ZM22.0858 16.5691C21.6841 16.4681 21.4403 16.0606 21.5413 15.6589L21.6412 15.2618C21.6204 15.2745 21.5997 15.2871 21.579 15.2999C16.7306 18.2794 13.5 23.6302 13.5 29.7349C13.5 31.7244 13.8429 33.6323 14.4721 35.4035C14.6108 35.7939 14.4068 36.2227 14.0164 36.3613C13.6261 36.5 13.1973 36.296 13.0586 35.9057C12.3729 33.9754 12 31.8979 12 29.7349C12 23.0875 15.5197 17.2629 20.7936 14.0219C20.8222 14.0043 20.8509 13.9868 20.8796 13.9694L20.4689 13.8661C20.0672 13.7651 19.8234 13.3576 19.9244 12.9559C20.0254 12.5542 20.4329 12.3104 20.8346 12.4114L22.9947 12.9544C23.1876 13.0029 23.3534 13.1261 23.4555 13.2968C23.5576 13.4675 23.5877 13.6718 23.5392 13.8647L22.9961 16.0247C22.895 16.4264 22.4875 16.6702 22.0858 16.5691ZM46.82 28.1941C46.4977 27.9339 46.0255 27.9842 45.7653 28.3065C45.5051 28.6287 45.5554 29.1009 45.8777 29.3611L47.6105 30.7603C47.7653 30.8853 47.9634 30.9437 48.1612 30.9226C48.359 30.9015 48.5403 30.8027 48.6652 30.6479L50.0644 28.9149C50.3246 28.5926 50.2743 28.1204 49.952 27.8602C49.6297 27.6 49.1575 27.6504 48.8973 27.9726L48.7891 28.1066C48.2671 22.1436 44.905 16.9954 40.0665 14.0219C39.7756 13.8432 39.4794 13.6723 39.1782 13.5095C38.8138 13.3126 38.3587 13.4485 38.1618 13.8129C37.9649 14.1773 38.1008 14.6323 38.4652 14.8292C38.7419 14.9787 39.0139 15.1357 39.2811 15.2999C43.8266 18.0932 46.9501 22.9709 47.3227 28.6L46.82 28.1941ZM27.1655 44.6347C27.4122 44.9674 27.3425 45.4372 27.0098 45.6839L26.3748 46.1548C26.4413 46.1785 26.5046 46.2008 26.5643 46.2217C27.8052 46.5115 29.0992 46.6649 30.43 46.6649C33.6759 46.6649 36.7062 45.7522 39.2811 44.1699C40.2414 43.5798 41.1385 42.8964 41.9597 42.1323C42.2629 41.8502 42.7375 41.8673 43.0197 42.1705C43.3018 42.4738 43.2847 42.9483 42.9815 43.2305C42.088 44.0618 41.1118 44.8055 40.0665 45.4479C37.2621 47.1712 33.961 48.1649 30.43 48.1649C29.1646 48.1649 27.9282 48.0373 26.7334 47.7939C26.9436 48.123 26.8661 48.5634 26.5477 48.7996C26.215 49.0463 25.7453 48.9766 25.4985 48.6439L24.1717 46.8549C24.0532 46.6951 24.003 46.4948 24.0322 46.2981C24.0614 46.1013 24.1676 45.9242 24.3274 45.8057L26.1163 44.479C26.449 44.2323 26.9188 44.302 27.1655 44.6347Z" fill="white"/>
</svg>
