<svg width="1240" height="867" viewBox="0 0 1240 867" fill="none" xmlns="http://www.w3.org/2000/svg">
<circle cx="170.205" cy="487.006" r="84.002" stroke="#DADDE6" stroke-width="6"/>
<rect x="51.0312" y="411" width="84" height="84" rx="42" fill="#6E62FD"/>
<rect x="78.5" y="428.574" width="27.25" height="42.75" rx="3" stroke="white" stroke-width="2"/>
<mask id="path-4-inside-1_127_1572" fill="white">
<rect x="82.625" y="435.699" width="19.375" height="27.793" rx="1"/>
</mask>
<rect x="82.625" y="435.699" width="19.375" height="27.793" rx="1" stroke="white" stroke-width="4" mask="url(#path-4-inside-1_127_1572)"/>
<path d="M92.6585 467.729L89.3093 463.745C89.3093 463.745 87.7743 461.931 85.8206 463.466C83.8669 465.001 86.3062 468.836 86.3062 468.836L92.3794 478.054C92.3794 478.054 95.4494 483.699 102.287 483.839C109.125 483.978 112.195 479.931 112.893 477.001C113.591 474.07 114.637 465.349 113.242 463.395C111.846 461.441 109.113 461.2 109.113 461.2C109.113 461.2 107.939 458.371 103.892 458.929C103.892 458.929 102.357 456.112 98.9381 457.311V448.382C98.9381 448.382 99.1475 445.141 96.1472 445.141C93.1469 445.141 93.2864 449.023 93.2864 449.023L92.6585 467.729Z" fill="white" stroke="#6E62FD" stroke-width="2" stroke-linecap="round" stroke-linejoin="round"/>
<path d="M98.9453 457.312V464.488" stroke="#6E62FD" stroke-width="2" stroke-linecap="round" stroke-linejoin="round"/>
<path d="M103.961 459V464.488" stroke="#6E62FD" stroke-width="2" stroke-linecap="round" stroke-linejoin="round"/>
<path d="M109.125 461.234V465.606" stroke="#6E62FD" stroke-width="2" stroke-linecap="round" stroke-linejoin="round"/>
<rect x="89.3125" y="431.824" width="6" height="2" rx="1" fill="white"/>
<path d="M15.9711 430.023V447.836H13.4516V430.023H15.9711ZM6.32265 431.273C8.99844 431.273 10.9906 433.734 10.9906 437.602C10.9906 441.508 8.99844 443.949 6.32265 443.949C3.58828 443.949 1.59609 441.508 1.61562 437.602C1.59609 433.734 3.58828 431.273 6.32265 431.273ZM6.32265 433.52C4.93594 433.52 4.01797 434.965 4.01797 437.602C4.01797 440.258 4.93594 441.684 6.32265 441.684C7.67031 441.684 8.58828 440.258 8.58828 437.602C8.58828 434.965 7.67031 433.52 6.32265 433.52ZM34.0234 438.422V440.375H17.7734V438.422H24.6875V436.898H19.7461V430.805H32.0703V432.738H22.2266V434.945H32.168V436.898H27.1289V438.422H34.0234ZM25.8594 441.273C29.707 441.273 32.0312 442.445 32.0508 444.555C32.0312 446.625 29.707 447.816 25.8594 447.816C21.9727 447.816 19.6289 446.625 19.6289 444.555C19.6289 442.445 21.9727 441.273 25.8594 441.273ZM25.8594 443.168C23.3984 443.168 22.1484 443.637 22.168 444.555C22.1484 445.492 23.3984 445.922 25.8594 445.922C28.2617 445.922 29.5312 445.492 29.5508 444.555C29.5312 443.637 28.2617 443.168 25.8594 443.168ZM7.98281 462.867C7.98281 465.738 9.44765 468.805 12.4359 470.055L11.0883 472.008C8.98867 471.119 7.54336 469.352 6.75234 467.184C5.9418 469.537 4.46719 471.49 2.37734 472.457L0.951561 470.484C3.90078 469.176 5.42422 465.875 5.42422 462.867V461.773H1.65469V459.742H11.6937V461.773H7.98281V462.867ZM15.9711 458.023V475.797H13.4516V458.023H15.9711ZM24.6875 462.047C24.6875 465.309 26.1719 468.59 29.1797 469.859L27.7148 471.852C25.6836 470.934 24.2773 469.166 23.4766 466.969C22.666 469.361 21.2109 471.295 19.043 472.281L17.5391 470.211C20.6445 468.902 22.1484 465.504 22.168 462.047V459.391H24.6875V462.047ZM32.6562 458.023V475.836H30.1367V458.023H32.6562Z" fill="black"/>
<circle cx="528.393" cy="683.514" r="84.002" stroke="#DADDE6" stroke-width="6"/>
<rect x="444.102" y="711.516" width="84" height="84" rx="42" fill="#6E62FD"/>
<path d="M500.144 738.148C500.866 738.148 501.487 738.752 501.487 739.542V773.106C501.487 773.896 500.866 774.5 500.144 774.5H471.843C471.122 774.5 470.5 773.896 470.5 773.106V739.542C470.5 738.752 471.122 738.148 471.843 738.148H477.212H494.355H500.144Z" fill="white" stroke="white" stroke-width="2"/>
<path d="M479.156 756.353L484.237 761.556L493.418 751.676" stroke="#6E62FD" stroke-width="3" stroke-linecap="round" stroke-linejoin="round"/>
<path d="M493.956 732.5H478.031V740.635H493.956V732.5Z" fill="#6E62FD" stroke="white" stroke-width="2" stroke-linecap="square" stroke-linejoin="round"/>
<path d="M475.191 820.445C475.191 823.141 476.167 825.836 478.687 827.203L477.32 829.02C475.718 828.199 474.654 826.754 474.038 825.016C473.413 826.91 472.349 828.512 470.737 829.449L469.312 827.574C471.87 826.09 472.827 823.199 472.847 820.445V820.035H469.976V818.043H472.847V815.641H475.171V818.043H477.984V820.035H475.191V820.445ZM485.015 815.035V832.809H482.652V815.035H485.015ZM481.382 815.328V831.988H479.038V823.805H476.948V821.773H479.038V815.328H481.382ZM500.548 815.035V822.262H502.872V824.332H500.548V832.809H498.028V815.035H500.548ZM486.114 827.789C487.413 827.789 488.927 827.789 490.509 827.75V826.227C488.614 825.855 487.384 824.654 487.403 823.004C487.384 821.012 489.18 819.664 491.778 819.664C494.317 819.664 496.134 821.012 496.153 823.004C496.134 824.654 494.884 825.865 493.009 826.227V827.652C494.415 827.584 495.831 827.467 497.149 827.281L497.305 829.098C493.516 829.801 489.454 829.82 486.446 829.82L486.114 827.789ZM497.012 817.008V818.961H486.466V817.008H490.509V815.133H493.009V817.008H497.012ZM491.778 821.559C490.567 821.559 489.747 822.086 489.766 823.004C489.747 823.941 490.567 824.449 491.778 824.449C492.95 824.449 493.751 823.941 493.751 823.004C493.751 822.086 492.95 821.559 491.778 821.559ZM468.466 843.035V860.809H466.084V851.902H464.58V859.988H462.216V854.891L460.81 856.766C459.16 855.896 458.095 854.422 457.47 852.586C456.875 854.695 455.82 856.404 454.13 857.41L452.588 855.496C455.283 853.973 456.201 850.828 456.201 847.43V846.863H453.193V844.871H461.338V846.863H458.623V847.43C458.623 850.525 459.541 853.475 462.216 854.852V843.289H464.58V849.871H466.084V843.035H468.466ZM484.292 844.578V846.258C484.292 848.484 484.292 850.984 483.57 854.754L481.07 854.5C481.743 851.141 481.773 848.641 481.792 846.551H471.323V844.578H484.292ZM485.855 856.609V858.641H469.644V856.609H475.445V850.496H477.925V856.609H485.855ZM500.548 843.055V848.133H502.813V850.184H500.548V855.125H498.048V843.055H500.548ZM486.134 852.84C487.432 852.84 488.917 852.84 490.45 852.801V851.805C488.516 851.531 487.305 850.594 487.325 849.227C487.305 847.586 489.044 846.57 491.68 846.57C494.298 846.57 496.016 847.586 496.036 849.227C496.016 850.594 494.835 851.521 492.93 851.785V852.703C494.395 852.645 495.85 852.527 497.227 852.352L497.403 854.07C493.653 854.734 489.532 854.773 486.388 854.773L486.134 852.84ZM500.548 855.848V860.809H498.048V857.762H488.399V855.848H500.548ZM496.778 844.344V846.16H486.602V844.344H490.45V842.898H492.93V844.344H496.778ZM491.68 848.23C490.411 848.23 489.688 848.543 489.708 849.227C489.688 849.871 490.411 850.242 491.68 850.242C492.93 850.242 493.634 849.871 493.653 849.227C493.634 848.543 492.93 848.23 491.68 848.23ZM517.897 843.055V855.828H515.397V843.055H517.897ZM518.366 858.504V860.496H505.983V854.539H508.502V858.504H518.366ZM508.151 844.188C510.885 844.188 513.014 846.062 513.014 848.66C513.014 851.316 510.885 853.172 508.151 853.172C505.416 853.172 503.288 851.316 503.288 848.66C503.288 846.062 505.416 844.188 508.151 844.188ZM508.151 846.355C506.764 846.336 505.709 847.215 505.729 848.66C505.709 850.145 506.764 851.004 508.151 851.004C509.498 851.004 510.553 850.145 510.553 848.66C510.553 847.215 509.498 846.336 508.151 846.355Z" fill="black"/>
<rect x="562.969" y="641.516" width="84" height="84" rx="42" fill="#6E62FD"/>
<g clip-path="url(#clip0_127_1572)">
<path d="M595.969 683.337C595.969 686.097 593.729 688.337 590.969 688.337C588.209 688.337 585.969 686.097 585.969 683.337C585.969 680.577 588.209 678.337 590.969 678.337V663.438L623.969 689.337V703.597" stroke="white" stroke-width="2" stroke-linecap="round" stroke-linejoin="round"/>
<path d="M614.969 690.336H601.969V703.336H614.969V690.336Z" fill="white" stroke="white" stroke-width="2" stroke-linecap="round" stroke-linejoin="round"/>
<path d="M595.969 694.336H586.969V703.336H595.969V694.336Z" fill="white" stroke="white" stroke-width="2" stroke-linecap="round" stroke-linejoin="round"/>
</g>
<path d="M669.543 665.949C669.543 668.645 670.52 671.34 673.039 672.707L671.672 674.523C670.07 673.703 669.006 672.258 668.391 670.52C667.766 672.414 666.701 674.016 665.09 674.953L663.664 673.078C666.223 671.594 667.18 668.703 667.199 665.949V665.539H664.328V663.547H667.199V661.145H669.523V663.547H672.336V665.539H669.543V665.949ZM679.367 660.539V678.312H677.004V660.539H679.367ZM675.734 660.832V677.492H673.391V669.309H671.301V667.277H673.391V660.832H675.734ZM694.9 660.539V667.766H697.224V669.836H694.9V678.312H692.38V660.539H694.9ZM680.466 673.293C681.765 673.293 683.279 673.293 684.861 673.254V671.73C682.966 671.359 681.736 670.158 681.755 668.508C681.736 666.516 683.533 665.168 686.13 665.168C688.67 665.168 690.486 666.516 690.505 668.508C690.486 670.158 689.236 671.369 687.361 671.73V673.156C688.767 673.088 690.183 672.971 691.502 672.785L691.658 674.602C687.869 675.305 683.806 675.324 680.798 675.324L680.466 673.293ZM691.365 662.512V664.465H680.818V662.512H684.861V660.637H687.361V662.512H691.365ZM686.13 667.062C684.92 667.062 684.099 667.59 684.119 668.508C684.099 669.445 684.92 669.953 686.13 669.953C687.302 669.953 688.103 669.445 688.103 668.508C688.103 667.59 687.302 667.062 686.13 667.062ZM679.406 688.539V706.312H677.023V688.539H679.406ZM675.773 688.793V705.492H673.43V699.984H671.34C670.676 701.713 669.514 702.699 668.02 702.699C665.676 702.699 664.152 700.238 664.152 696.234C664.152 692.25 665.676 689.809 668.02 689.809C669.504 689.809 670.666 690.775 671.34 692.484H673.43V688.793H675.773ZM668.02 692.152C666.984 692.152 666.398 693.52 666.418 696.234C666.398 698.969 666.984 700.316 668.02 700.297C669.055 700.316 669.68 698.969 669.68 696.234C669.68 693.52 669.035 692.152 668.02 692.152ZM671.828 694.477C671.906 695.023 671.945 695.609 671.945 696.234C671.945 696.85 671.906 697.436 671.828 697.973H673.43V694.477H671.828ZM695.662 688.539V699.086H693.181V694.887H690.408V692.875H693.181V688.539H695.662ZM689.587 699.477C693.377 699.496 695.701 700.746 695.72 702.914C695.701 705.062 693.377 706.332 689.587 706.332C685.798 706.332 683.474 705.062 683.474 702.914C683.474 700.746 685.798 699.496 689.587 699.477ZM689.587 701.391C687.224 701.391 685.955 701.879 685.955 702.914C685.955 703.93 687.224 704.438 689.587 704.438C691.951 704.438 693.24 703.93 693.24 702.914C693.24 701.879 691.951 701.391 689.587 701.391ZM690.935 689.613V691.605H687.4C687.459 693.676 688.709 695.766 691.482 696.684L690.252 698.637C688.289 698.002 686.941 696.713 686.17 695.102C685.379 696.918 683.962 698.383 681.853 699.105L680.564 697.133C683.484 696.156 684.793 693.832 684.861 691.605H681.287V689.613H690.935ZM712.737 688.539V706.312H710.374V688.539H712.737ZM709.105 688.832V705.492H706.761V696.645H704.417V694.633H706.761V688.832H709.105ZM702.991 693.305C702.991 696.254 703.909 699.242 706.507 700.727L705.042 702.562C703.46 701.625 702.415 700.033 701.82 698.129C701.204 700.199 700.13 701.957 698.499 702.953L696.995 701.117C699.612 699.516 700.589 696.312 700.589 693.305V692.348H697.679V690.355H705.687V692.348H702.991V693.305ZM728.7 690.082V691.762C728.7 693.988 728.7 696.488 727.977 700.258L725.477 700.004C726.151 696.645 726.18 694.145 726.2 692.055H715.731V690.082H728.7ZM730.263 702.113V704.145H714.052V702.113H719.852V696H722.333V702.113H730.263Z" fill="black"/>
<path d="M422.391 175.434H271.674C198.064 175.434 138.391 235.107 138.391 308.717V308.717C138.391 382.327 198.064 442 271.674 442H472.107C518.656 442 556.391 479.735 556.391 526.283V526.283C556.391 572.832 518.656 610.566 472.107 610.566H462.391" stroke="#DADDE6" stroke-width="6"/>
<rect x="400.102" y="555.012" width="120" height="119.008" rx="59.5041" fill="url(#paint0_linear_127_1572)"/>
<path d="M444.235 609.666C444.235 613.709 445.7 617.752 449.479 619.803L447.429 622.527C445.026 621.297 443.429 619.129 442.507 616.521C441.569 619.363 439.972 621.766 437.555 623.172L435.417 620.359C439.255 618.133 440.69 613.797 440.72 609.666V609.051H436.413V606.062H440.72V602.459H444.206V606.062H448.425V609.051H444.235V609.666ZM458.971 601.551V628.211H455.427V601.551H458.971ZM453.522 601.99V626.98H450.007V614.705H446.872V611.658H450.007V601.99H453.522ZM482.271 601.551V612.391H485.757V615.496H482.271V628.211H478.491V601.551H482.271ZM460.62 620.682C462.569 620.682 464.839 620.682 467.212 620.623V618.338C464.37 617.781 462.525 615.979 462.554 613.504C462.525 610.516 465.22 608.494 469.116 608.494C472.925 608.494 475.65 610.516 475.679 613.504C475.65 615.979 473.775 617.796 470.962 618.338V620.477C473.071 620.374 475.196 620.198 477.173 619.92L477.407 622.645C471.724 623.699 465.63 623.729 461.118 623.729L460.62 620.682ZM476.968 604.51V607.439H461.148V604.51H467.212V601.697H470.962V604.51H476.968ZM469.116 611.336C467.3 611.336 466.07 612.127 466.099 613.504C466.07 614.91 467.3 615.672 469.116 615.672C470.874 615.672 472.075 614.91 472.075 613.504C472.075 612.127 470.874 611.336 469.116 611.336Z" fill="white"/>
<rect x="167.203" y="372" width="120" height="119.008" rx="59.5041" fill="url(#paint1_linear_127_1572)"/>
<path d="M227.421 421.164V424.24H203.016V421.164H213.3V417.15H205.829V408.186H220.917V405.256H205.8V402.268H224.608V411.115H209.579V414.104H225.223V417.15H217.02V421.164H227.421ZM239.909 403.527C239.895 406.032 239.69 408.405 239.118 410.617H241.989V401.125H245.476V426.027H241.989V413.635H238.064C236.599 416.799 234.109 419.582 230.036 421.896L227.956 419.348C231.34 417.385 233.449 415.173 234.724 412.58L228.513 413.225L228.103 410.061L235.779 409.65C236.013 408.654 236.159 407.614 236.247 406.516H229.421V403.527H239.909ZM251.159 400.539V427.199H247.644V400.539H251.159ZM225.341 436.539V463.258H221.561V436.539H225.341ZM210.868 438.414C214.882 438.414 217.87 442.105 217.87 447.906C217.87 453.766 214.882 457.428 210.868 457.428C206.766 457.428 203.778 453.766 203.807 447.906C203.778 442.105 206.766 438.414 210.868 438.414ZM210.868 441.783C208.788 441.783 207.411 443.951 207.411 447.906C207.411 451.891 208.788 454.029 210.868 454.029C212.889 454.029 214.266 451.891 214.266 447.906C214.266 443.951 212.889 441.783 210.868 441.783ZM238.034 441.139C238.034 444.83 239.851 448.492 244.07 450.045L241.989 452.945C239.192 451.847 237.273 449.752 236.189 447.115C235.017 449.928 232.951 452.125 229.919 453.268L227.927 450.338C232.292 448.785 234.255 445.035 234.255 441.139V438.062H238.034V441.139ZM250.515 436.568V456.344H246.794V448.199H242.224V445.182H246.794V443.043H242.224V440.025H246.794V436.568H250.515ZM251.071 459.742V462.73H232.761V454.439H236.54V459.742H251.071Z" fill="white"/>
<circle cx="598.391" cy="175" r="154" stroke="#DADDE6" stroke-width="6"/>
<rect x="478.391" width="84" height="84" rx="42" fill="#5CD2BD"/>
<mask id="path-29-inside-2_127_1572" fill="white">
<rect x="503.992" y="21.9414" width="34.0078" height="41.5454" rx="2"/>
</mask>
<rect x="503.992" y="21.9414" width="34.0078" height="41.5454" rx="2" fill="white" stroke="white" stroke-width="6" mask="url(#path-29-inside-2_127_1572)"/>
<path d="M510.602 33.1515L513.016 35.2508L517.214 31.3672" stroke="#5CD2BD" stroke-width="3"/>
<path d="M510.602 43.0305L513.016 45.1297L517.214 41.2461" stroke="#5CD2BD" stroke-width="3"/>
<path d="M510.602 53.0109L513.016 55.1102L517.214 51.2266" stroke="#5CD2BD" stroke-width="3"/>
<path d="M522.258 31.2617H531.075" stroke="#5CD2BD" stroke-width="3"/>
<path d="M522.258 41.1406H531.075" stroke="#5CD2BD" stroke-width="3"/>
<path d="M522.258 51.1211H531.075" stroke="#5CD2BD" stroke-width="3"/>
<rect x="478.391" y="263.504" width="84" height="84" rx="42" fill="#5CD2BD"/>
<g clip-path="url(#clip1_127_1572)">
<path d="M537.016 298.504H503.766V322.129H537.016V298.504Z" fill="white" stroke="white" stroke-width="2" stroke-linecap="round" stroke-linejoin="round"/>
<path d="M520.391 288.879H507.379L503.766 298.504" stroke="white" stroke-width="2" stroke-linecap="round" stroke-linejoin="round"/>
<path d="M520.391 288.879H533.402L537.016 298.504" stroke="white" stroke-width="2" stroke-linecap="round" stroke-linejoin="round"/>
<path d="M525.641 311.629L520.391 316.879L515.141 311.629" stroke="#5CD2BD" stroke-width="3" stroke-linecap="round" stroke-linejoin="round"/>
<path d="M520.391 303.754V316.004" stroke="#5CD2BD" stroke-width="3" stroke-linecap="round" stroke-linejoin="round"/>
</g>
<rect x="630.969" width="84" height="84" rx="42" fill="#5CD2BD"/>
<g clip-path="url(#clip2_127_1572)">
<path d="M681.988 36.0126L673.291 21.1406L664.352 36.4232" stroke="white" stroke-width="3" stroke-linecap="round" stroke-linejoin="round"/>
<path d="M683.931 38.3168L684.22 32.8995C684.243 32.4205 683.7 32.1239 683.307 32.3977L677.798 36.1385C677.405 36.4122 677.486 37.0166 677.948 37.1649L683.169 38.8414C683.538 38.9555 683.908 38.7046 683.931 38.3282V38.3168Z" fill="white"/>
<path d="M678.422 60.3153L695.816 60.4408L686.992 45.0898" stroke="white" stroke-width="3" stroke-linecap="round" stroke-linejoin="round"/>
<path d="M675.381 60.5775L679.747 63.8849C680.128 64.1701 680.683 63.9077 680.683 63.4287V56.8253C680.683 56.3463 680.128 56.0726 679.747 56.3691L675.381 59.6765C675.081 59.9046 675.081 60.3608 675.381 60.5889V60.5775Z" fill="white"/>
<path d="M667.519 59.8935L650.125 60.0189L658.949 44.668" stroke="white" stroke-width="3" stroke-linecap="round" stroke-linejoin="round"/>
<path d="M661.665 41.1113L662.381 46.4944C662.439 46.9734 661.931 47.3041 661.515 47.0646L655.729 43.7572C655.313 43.5177 655.348 42.9133 655.798 42.7308L660.88 40.6551C661.238 40.5068 661.631 40.7349 661.677 41.1113H661.665Z" fill="white"/>
<path d="M673.627 39.1484L668.672 47.3485H675.521L669.827 54.1915" stroke="white" stroke-width="3" stroke-linecap="round" stroke-linejoin="round"/>
</g>
<rect x="630.969" y="263.504" width="84" height="84" rx="42" fill="#5CD2BD"/>
<g clip-path="url(#clip3_127_1572)">
<path d="M676.469 305.504H652.469V319.504H676.469V305.504Z" stroke="white" stroke-width="2" stroke-linecap="round" stroke-linejoin="round"/>
<path d="M681.469 300.504V318.824H693.469" stroke="white" stroke-width="2" stroke-linecap="round" stroke-linejoin="round"/>
<path d="M692.449 305.504H685.489C684.925 305.504 684.469 305.961 684.469 306.524V313.484C684.469 314.047 684.925 314.504 685.489 314.504H692.449C693.012 314.504 693.469 314.047 693.469 313.484V306.524C693.469 305.961 693.012 305.504 692.449 305.504Z" fill="white"/>
<path d="M657.016 305.504V285.504H660.356C666.496 285.504 671.466 290.484 671.466 296.614V305.504" stroke="white" stroke-width="2" stroke-linecap="round" stroke-linejoin="round"/>
<path d="M676.469 315.926H680.469" stroke="white" stroke-width="2" stroke-linecap="round" stroke-linejoin="round"/>
<path d="M663.969 325.504C667.006 325.504 669.469 323.041 669.469 320.004C669.469 316.966 667.006 314.504 663.969 314.504C660.931 314.504 658.469 316.966 658.469 320.004C658.469 323.041 660.931 325.504 663.969 325.504Z" fill="#5CD2BD" stroke="white" stroke-width="2" stroke-linecap="round" stroke-linejoin="round"/>
</g>
<rect x="706.969" y="133" width="84" height="84" rx="42" fill="#5CD2BD"/>
<path d="M729.148 198.974V166.199" stroke="white" stroke-width="2" stroke-miterlimit="10"/>
<path d="M768.828 198.974V166.199" stroke="white" stroke-width="2" stroke-miterlimit="10"/>
<path d="M725 169.235L749.421 151.027L773 169.235" stroke="white" stroke-width="2" stroke-miterlimit="10"/>
<path d="M755.78 173H742.219V184.407H755.78V173Z" fill="white" stroke="#5CD2BD" stroke-width="2" stroke-miterlimit="10"/>
<path d="M748.979 184.406H736.461V195.814H748.979V184.406Z" fill="white" stroke="#5CD2BD" stroke-width="2" stroke-miterlimit="10"/>
<path d="M761.495 184.406H748.977V195.814H761.495V184.406Z" fill="white" stroke="#5CD2BD" stroke-width="2" stroke-miterlimit="10"/>
<circle cx="748.966" cy="157.099" r="11.0986" fill="white"/>
<path d="M753.25 152.848L744.75 161.348" stroke="#5CD2BD" stroke-width="2" stroke-miterlimit="10" stroke-linecap="round"/>
<path d="M744.75 152.848L753.25 161.348" stroke="#5CD2BD" stroke-width="2" stroke-miterlimit="10" stroke-linecap="round"/>
<rect x="391.391" y="115.496" width="120" height="119.008" rx="59.5041" fill="url(#paint2_linear_127_1572)"/>
<path d="M450.466 162.035V188.695H446.891V175.336H444.636V187.465H441.091V179.818L438.981 182.631C436.506 181.327 434.909 179.115 433.971 176.361C433.078 179.525 431.496 182.089 428.962 183.598L426.647 180.727C430.69 178.441 432.067 173.725 432.067 168.627V167.777H427.555V164.789H439.772V167.777H435.7V168.627C435.7 173.271 437.077 177.694 441.091 179.76V162.416H444.636V172.289H446.891V162.035H450.466ZM474.204 164.35V166.869C474.204 170.209 474.204 173.959 473.12 179.613L469.37 179.232C470.381 174.193 470.425 170.443 470.454 167.309H454.751V164.35H474.204ZM476.548 182.396V185.443H452.232V182.396H460.933V173.227H464.654V182.396H476.548Z" fill="white"/>
<path d="M443.955 19.0234V36.7969H441.573V27.8906H440.069V35.9766H437.705V30.8789L436.299 32.7539C434.649 31.8848 433.584 30.4102 432.959 28.5742C432.364 30.6836 431.309 32.3926 429.62 33.3984L428.077 31.4844C430.772 29.9609 431.69 26.8164 431.69 23.418V22.8516H428.682V20.8594H436.827V22.8516H434.112V23.418C434.112 26.5137 435.03 29.4629 437.705 30.8398V19.2773H440.069V25.8594H441.573V19.0234H443.955ZM459.781 20.5664V22.2461C459.781 24.4727 459.781 26.9727 459.059 30.7422L456.559 30.4883C457.232 27.1289 457.262 24.6289 457.281 22.5391H446.812V20.5664H459.781ZM461.344 32.5977V34.6289H445.133V32.5977H450.934V26.4844H453.414V32.5977H461.344ZM409.96 47.0234V64.8359H407.441V47.0234H409.96ZM400.312 48.2734C402.988 48.2734 404.98 50.7344 404.98 54.6016C404.98 58.5078 402.988 60.9492 400.312 60.9492C397.577 60.9492 395.585 58.5078 395.605 54.6016C395.585 50.7344 397.577 48.2734 400.312 48.2734ZM400.312 50.5195C398.925 50.5195 398.007 51.9648 398.007 54.6016C398.007 57.2578 398.925 58.6836 400.312 58.6836C401.659 58.6836 402.577 57.2578 402.577 54.6016C402.577 51.9648 401.659 50.5195 400.312 50.5195ZM420.298 48.0586V53.6055H414.927V55.5C417.573 55.5 419.136 55.4121 420.942 55.0703L421.177 57.0625C419.106 57.4336 417.231 57.4922 413.794 57.4922H412.466V51.75H417.798V50.0117H412.427V48.0586H420.298ZM426.743 47.043V57.9805H424.263V55.2461H421.313V53.2734H424.263V51.4766H421.313V49.5039H424.263V47.043H426.743ZM426.743 58.7812V64.7969H424.263V60.7734H414.497V58.7812H426.743ZM442.666 47.043V52.1211H444.932V54.1719H442.666V59.1133H440.166V47.043H442.666ZM428.252 56.8281C429.551 56.8281 431.036 56.8281 432.569 56.7891V55.793C430.635 55.5195 429.424 54.582 429.444 53.2148C429.424 51.5742 431.163 50.5586 433.799 50.5586C436.416 50.5586 438.135 51.5742 438.155 53.2148C438.135 54.582 436.954 55.5098 435.049 55.7734V56.6914C436.514 56.6328 437.969 56.5156 439.346 56.3398L439.522 58.0586C435.772 58.7227 431.651 58.7617 428.506 58.7617L428.252 56.8281ZM442.666 59.8359V64.7969H440.166V61.75H430.518V59.8359H442.666ZM438.897 48.332V50.1484H428.721V48.332H432.569V46.8867H435.049V48.332H438.897ZM433.799 52.2188C432.53 52.2188 431.807 52.5312 431.827 53.2148C431.807 53.8594 432.53 54.2305 433.799 54.2305C435.049 54.2305 435.752 53.8594 435.772 53.2148C435.752 52.5312 435.049 52.2188 433.799 52.2188ZM460.016 47.043V59.8164H457.516V47.043H460.016ZM460.484 62.4922V64.4844H448.102V58.5273H450.621V62.4922H460.484ZM450.27 48.1758C453.004 48.1758 455.133 50.0508 455.133 52.6484C455.133 55.3047 453.004 57.1602 450.27 57.1602C447.535 57.1602 445.406 55.3047 445.406 52.6484C445.406 50.0508 447.535 48.1758 450.27 48.1758ZM450.27 50.3438C448.883 50.3242 447.828 51.2031 447.848 52.6484C447.828 54.1328 448.883 54.9922 450.27 54.9922C451.617 54.9922 452.672 54.1328 452.672 52.6484C452.672 51.2031 451.617 50.3242 450.27 50.3438Z" fill="black"/>
<path d="M747.504 19.0234V36.7969H745.121V27.8906H743.617V35.9766H741.254V30.8789L739.848 32.7539C738.197 31.8848 737.133 30.4102 736.508 28.5742C735.912 30.6836 734.857 32.3926 733.168 33.3984L731.625 31.4844C734.32 29.9609 735.238 26.8164 735.238 23.418V22.8516H732.23V20.8594H740.375V22.8516H737.66V23.418C737.66 26.5137 738.578 29.4629 741.254 30.8398V19.2773H743.617V25.8594H745.121V19.0234H747.504ZM763.33 20.5664V22.2461C763.33 24.4727 763.33 26.9727 762.607 30.7422L760.107 30.4883C760.781 27.1289 760.81 24.6289 760.83 22.5391H750.361V20.5664H763.33ZM764.892 32.5977V34.6289H748.681V32.5977H754.482V26.4844H756.962V32.5977H764.892ZM748.207 55.6758V57.668H731.996V55.6758H738.852V53.3125H741.312V55.6758H748.207ZM741.352 47.9023C741.352 49.9727 743.344 51.9453 747.348 52.4336L746.391 54.3672C743.393 53.918 741.186 52.6582 740.062 50.8711C738.92 52.6582 736.713 53.9277 733.715 54.3672L732.836 52.4336C736.762 51.9453 738.812 49.9141 738.812 47.9023V47.3164H741.352V47.9023ZM746.234 58.918V64.7969H743.754V60.8516H733.793V58.918H746.234ZM755.4 49.4453C755.38 51.8281 756.611 54.0156 759.462 54.8945L758.154 56.8477C756.24 56.1836 754.941 54.9531 754.209 53.3516C753.408 55.207 751.972 56.6719 749.834 57.3945L748.525 55.4023C751.572 54.4258 752.861 52.043 752.88 49.5625V47.9414H755.4V49.4453ZM763.662 47.0234V57.4336H761.181V52.3164H757.841V50.2852H761.181V47.0234H763.662ZM757.587 57.9023C761.377 57.9023 763.701 59.1719 763.72 61.3594C763.701 63.5469 761.377 64.7969 757.587 64.7969C753.798 64.7969 751.474 63.5469 751.474 61.3594C751.474 59.1719 753.798 57.9023 757.587 57.9023ZM757.587 59.8359C755.224 59.8359 753.955 60.3438 753.955 61.3594C753.955 62.3359 755.224 62.8633 757.587 62.8633C759.951 62.8633 761.24 62.3359 761.24 61.3594C761.24 60.3438 759.951 59.8359 757.587 59.8359ZM780.347 47.043V60.0117H777.866V53.6445H774.956V51.6328H777.866V47.043H780.347ZM780.777 62.4922V64.4844H768.55V58.8789H771.05V62.4922H780.777ZM772.085 50.5195C772.085 52.5703 773.335 54.7773 776.167 55.6953L774.937 57.668C772.964 57.0332 771.616 55.7344 770.835 54.1133C770.054 55.9102 768.638 57.3359 766.538 58.0391L765.269 56.0078C768.198 55.0898 769.527 52.7656 769.546 50.5V50.2266H765.972V48.2344H775.62V50.2266H772.085V50.5195ZM796.27 47.0234V52.8633H798.536V54.9141H796.27V60.8906H793.77V47.0234H796.27ZM796.876 62.4922V64.4844H784.356V59.9727H786.856V62.4922H796.876ZM781.856 57.2383C783.136 57.2383 784.62 57.2285 786.173 57.1797V56.1445C784.239 55.8809 783.028 54.9141 783.048 53.5273C783.028 51.7695 784.766 50.7344 787.403 50.7539C790.02 50.7344 791.739 51.7695 791.759 53.5273C791.739 54.9043 790.557 55.8711 788.653 56.1445V57.0625C790.118 56.9746 791.583 56.8379 792.95 56.6328L793.126 58.3516C789.376 59.0742 785.177 59.1133 782.11 59.1523L781.856 57.2383ZM792.501 48.4688V50.2461H782.325V48.4688H786.173V46.9648H788.653V48.4688H792.501ZM787.403 52.4141C786.134 52.4141 785.411 52.7656 785.43 53.5273C785.411 54.1914 786.134 54.5625 787.403 54.5625C788.653 54.5625 789.356 54.1914 789.376 53.5273C789.356 52.7656 788.653 52.4141 787.403 52.4141Z" fill="black"/>
<path d="M823.504 167.023V184.797H821.121V175.891H819.617V183.977H817.254V178.879L815.848 180.754C814.197 179.885 813.133 178.41 812.508 176.574C811.912 178.684 810.857 180.393 809.168 181.398L807.625 179.484C810.32 177.961 811.238 174.816 811.238 171.418V170.852H808.23V168.859H816.375V170.852H813.66V171.418C813.66 174.514 814.578 177.463 817.254 178.84V167.277H819.617V173.859H821.121V167.023H823.504ZM839.33 168.566V170.246C839.33 172.473 839.33 174.973 838.607 178.742L836.107 178.488C836.781 175.129 836.81 172.629 836.83 170.539H826.361V168.566H839.33ZM840.892 180.598V182.629H824.681V180.598H830.482V174.484H832.962V180.598H840.892ZM857.636 180.695V182.727H841.366V180.695H848.222V177.414H843.085V168.156H845.585V170.91H853.339V168.156H855.82V177.414H850.702V180.695H857.636ZM845.585 175.422H853.339V172.902H845.585V175.422ZM874.302 177.453V179.406H870.552V184.797H868.032V179.406H864.321V184.797H861.841V179.406H858.032V177.453H874.302ZM872.427 167.551V172.727H862.485V174.172H872.837V176.164H859.966V170.91H869.868V169.582H859.907V167.551H872.427ZM881.455 168.195L876.885 185.129H874.405L878.955 168.195H881.455ZM890.133 169.738V171.711H881.539V169.738H884.625V167.512H887.086V169.738H890.133ZM885.875 172.512C888.141 172.512 889.762 174.27 889.781 176.73C889.762 179.211 888.141 180.969 885.875 180.969C883.609 180.969 881.949 179.211 881.949 176.73C881.949 174.27 883.609 172.512 885.875 172.512ZM885.875 174.582C884.84 174.582 884.137 175.383 884.137 176.73C884.137 178.078 884.84 178.859 885.875 178.859C886.871 178.859 887.574 178.078 887.594 176.73C887.574 175.383 886.871 174.582 885.875 174.582ZM896.93 167.023V184.797H894.566V176.242H893.121V184.035H890.797V167.375H893.121V174.25H894.566V167.023H896.93ZM913.615 167.023V184.797H911.252V167.023H913.615ZM909.982 167.316V183.977H907.638V175.129H905.295V173.117H907.638V167.316H909.982ZM903.869 171.789C903.869 174.738 904.787 177.727 907.384 179.211L905.92 181.047C904.338 180.109 903.293 178.518 902.697 176.613C902.082 178.684 901.007 180.441 899.377 181.438L897.873 179.602C900.49 178 901.466 174.797 901.466 171.789V170.832H898.556V168.84H906.564V170.832H903.869V171.789Z" fill="black"/>
<path d="M655.334 367.023V384.797H652.951V375.891H651.447V383.977H649.084V378.879L647.677 380.754C646.027 379.885 644.963 378.41 644.338 376.574C643.742 378.684 642.687 380.393 640.998 381.398L639.455 379.484C642.15 377.961 643.068 374.816 643.068 371.418V370.852H640.06V368.859H648.205V370.852H645.49V371.418C645.49 374.514 646.408 377.463 649.084 378.84V367.277H651.447V373.859H652.951V367.023H655.334ZM671.159 368.566V370.246C671.159 372.473 671.159 374.973 670.437 378.742L667.937 378.488C668.611 375.129 668.64 372.629 668.659 370.539H658.191V368.566H671.159ZM672.722 380.598V382.629H656.511V380.598H662.312V374.484H664.792V380.598H672.722ZM689.466 380.695V382.727H673.196V380.695H680.052V377.414H674.915V368.156H677.415V370.91H685.169V368.156H687.649V377.414H682.532V380.695H689.466ZM677.415 375.422H685.169V372.902H677.415V375.422ZM706.092 375.578V377.531H699.217V378.801C702.342 379.006 704.139 380.031 704.159 381.77C704.139 383.742 701.854 384.797 697.967 384.797C694.061 384.797 691.737 383.742 691.737 381.77C691.737 380.031 693.582 379.006 696.737 378.801V377.531H689.881V375.578H706.092ZM699.198 367.082V368.605H704.53V370.578H699.432C699.813 371.799 701.639 372.873 705.37 373.117L704.627 375.012C701.346 374.777 699.08 373.82 697.967 372.375C696.844 373.82 694.579 374.777 691.327 375.012L690.565 373.117C694.295 372.873 696.102 371.799 696.502 370.578H691.444V368.605H696.737V367.082H699.198ZM697.967 380.598C695.487 380.598 694.256 380.969 694.276 381.77C694.256 382.59 695.487 382.961 697.967 382.961C700.389 382.961 701.639 382.59 701.659 381.77C701.639 380.969 700.389 380.598 697.967 380.598ZM649.923 396.059V398.051H646.388C646.408 400.131 647.638 402.26 650.529 403.188L649.259 405.121C647.287 404.486 645.929 403.217 645.158 401.625C644.367 403.363 642.951 404.74 640.88 405.414L639.552 403.5C642.492 402.553 643.83 400.277 643.869 398.051H640.236V396.059H649.923ZM653.927 395.023V399.34H656.33V401.41H653.927V405.746H651.427V395.023H653.927ZM653.927 406.508V412.797H651.427V408.48H641.955V406.508H653.927ZM661.472 395.785C663.747 395.766 665.554 397.064 666.042 398.969H669.011V395.023H671.491V404.574H669.011V400.961H666.062C665.593 402.914 663.767 404.242 661.472 404.242C658.738 404.242 656.726 402.465 656.745 399.984C656.726 397.543 658.738 395.766 661.472 395.785ZM661.472 397.855C660.085 397.836 659.089 398.656 659.109 399.984C659.089 401.312 660.085 402.152 661.472 402.152C662.82 402.152 663.796 401.312 663.796 399.984C663.796 398.656 662.82 397.836 661.472 397.855ZM662.097 405.355V407.074H669.011V405.355H671.491V412.602H659.636V405.355H662.097ZM662.097 410.59H669.011V408.988H662.097V410.59ZM678.88 398.188C678.88 400.102 679.876 402.016 682.239 402.914L680.911 404.809C679.397 404.232 678.352 403.178 677.708 401.859C677.063 403.402 675.95 404.691 674.29 405.375L672.942 403.461C675.442 402.367 676.458 400.18 676.458 398.188V396.098H678.88V398.188ZM688.47 395.043V405.902H686.106V401.391H684.622V405.355H682.298V395.355H684.622V399.379H686.106V395.043H688.47ZM682.395 406.156C686.145 406.156 688.548 407.406 688.567 409.477C688.548 411.547 686.145 412.797 682.395 412.797C678.626 412.797 676.243 411.547 676.243 409.477C676.243 407.406 678.626 406.156 682.395 406.156ZM682.395 408.012C680.071 408.012 678.723 408.52 678.743 409.477C678.723 410.434 680.071 410.922 682.395 410.922C684.7 410.922 686.048 410.434 686.048 409.477C686.048 408.52 684.7 408.012 682.395 408.012ZM696.6 397.445C696.58 399.828 697.811 402.016 700.663 402.895L699.354 404.848C697.44 404.184 696.141 402.953 695.409 401.352C694.608 403.207 693.172 404.672 691.034 405.395L689.725 403.402C692.772 402.426 694.061 400.043 694.08 397.562V395.941H696.6V397.445ZM704.862 395.023V405.434H702.381V400.316H699.041V398.285H702.381V395.023H704.862ZM698.788 405.902C702.577 405.902 704.901 407.172 704.92 409.359C704.901 411.547 702.577 412.797 698.788 412.797C694.998 412.797 692.674 411.547 692.674 409.359C692.674 407.172 694.998 405.902 698.788 405.902ZM698.788 407.836C696.424 407.836 695.155 408.344 695.155 409.359C695.155 410.336 696.424 410.863 698.788 410.863C701.151 410.863 702.44 410.336 702.44 409.359C702.44 408.344 701.151 407.836 698.788 407.836Z" fill="black"/>
<path d="M502.755 367.023V384.797H500.373V375.891H498.869V383.977H496.505V378.879L495.099 380.754C493.449 379.885 492.384 378.41 491.759 376.574C491.164 378.684 490.109 380.393 488.42 381.398L486.877 379.484C489.572 377.961 490.49 374.816 490.49 371.418V370.852H487.482V368.859H495.627V370.852H492.912V371.418C492.912 374.514 493.83 377.463 496.505 378.84V367.277H498.869V373.859H500.373V367.023H502.755ZM518.581 368.566V370.246C518.581 372.473 518.581 374.973 517.859 378.742L515.359 378.488C516.032 375.129 516.062 372.629 516.081 370.539H505.613V368.566H518.581ZM520.144 380.598V382.629H503.933V380.598H509.734V374.484H512.214V380.598H520.144ZM536.888 380.695V382.727H520.618V380.695H527.473V377.414H522.337V368.156H524.837V370.91H532.591V368.156H535.071V377.414H529.954V380.695H536.888ZM524.837 375.422H532.591V372.902H524.837V375.422ZM553.514 375.578V377.531H546.639V378.801C549.764 379.006 551.561 380.031 551.58 381.77C551.561 383.742 549.276 384.797 545.389 384.797C541.483 384.797 539.159 383.742 539.159 381.77C539.159 380.031 541.004 379.006 544.159 378.801V377.531H537.303V375.578H553.514ZM546.62 367.082V368.605H551.952V370.578H546.854C547.235 371.799 549.061 372.873 552.791 373.117L552.049 375.012C548.768 374.777 546.502 373.82 545.389 372.375C544.266 373.82 542 374.777 538.748 375.012L537.987 373.117C541.717 372.873 543.524 371.799 543.924 370.578H538.866V368.605H544.159V367.082H546.62ZM545.389 380.598C542.909 380.598 541.678 380.969 541.698 381.77C541.678 382.59 542.909 382.961 545.389 382.961C547.811 382.961 549.061 382.59 549.08 381.77C549.061 380.969 547.811 380.598 545.389 380.598Z" fill="black"/>
<circle cx="962.391" cy="485.504" r="154" stroke="#DADDE6" stroke-width="6"/>
<rect x="842.391" y="310.504" width="84" height="84" rx="42" fill="#3CA6F8"/>
<circle cx="884" cy="352.996" r="18.375" fill="white"/>
<path d="M874.5 353.246H894" stroke="#3CA6F8" stroke-width="3" stroke-miterlimit="10"/>
<path d="M884.25 362.996V343.496" stroke="#3CA6F8" stroke-width="3" stroke-miterlimit="10"/>
<rect x="842.391" y="574.008" width="84" height="84" rx="42" fill="#3CA6F8"/>
<rect x="863.547" y="595.145" width="17.2207" height="17.2207" rx="1" fill="white" stroke="white" stroke-width="2"/>
<rect x="888.016" y="619.645" width="17.2207" height="17.2207" rx="1" fill="white" stroke="white" stroke-width="2"/>
<path d="M899.023 597.722L904.978 603.756L899.023 609.789" stroke="white" stroke-width="2" stroke-linecap="round" stroke-linejoin="round"/>
<path d="M904.98 603.758H887.016" stroke="white" stroke-width="2" stroke-linecap="round" stroke-linejoin="round"/>
<path d="M868.5 622.222L862.546 628.256L868.5 634.289" stroke="white" stroke-width="2" stroke-linecap="round" stroke-linejoin="round"/>
<path d="M862.543 628.258H880.508" stroke="white" stroke-width="2" stroke-linecap="round" stroke-linejoin="round"/>
<rect x="994.969" y="310.504" width="84" height="84" rx="42" fill="#3CA6F8"/>
<g clip-path="url(#clip4_127_1572)">
<path d="M1053.06 346.234H1022.2V368.156H1053.06V346.234Z" fill="white" stroke="white" stroke-width="2" stroke-linecap="round" stroke-linejoin="round"/>
<path d="M1037.63 337.305H1025.56L1022.2 346.236" stroke="white" stroke-width="2" stroke-linecap="round" stroke-linejoin="round"/>
<path d="M1037.63 337.305H1049.71L1053.06 346.236" stroke="white" stroke-width="2" stroke-linecap="round" stroke-linejoin="round"/>
</g>
<circle cx="1048.86" cy="363.69" r="7.81506" fill="#3CA6F8" stroke="white" stroke-width="2"/>
<path d="M1060 374.879L1054.32 369.195" stroke="white" stroke-width="2"/>
<rect x="994.969" y="574.008" width="84" height="84" rx="42" fill="#3CA6F8"/>
<rect x="1015.62" y="594.152" width="17.2207" height="17.2207" rx="1" stroke="white" stroke-width="2"/>
<rect x="1041.09" y="594.152" width="17.2207" height="17.2207" rx="1" stroke="white" stroke-width="2"/>
<rect x="1015.62" y="619.652" width="17.2207" height="17.2207" rx="1" stroke="white" stroke-width="2"/>
<rect x="1041.09" y="619.652" width="17.2207" height="17.2207" rx="1" stroke="white" stroke-width="2"/>
<circle cx="1037" cy="616.996" r="13" fill="white"/>
<path d="M1030.27 617.172H1044.07" stroke="#3CA6F8" stroke-width="3" stroke-miterlimit="10"/>
<path d="M1037.17 624.069V610.273" stroke="#3CA6F8" stroke-width="3" stroke-miterlimit="10"/>
<rect x="1070.97" y="443.504" width="84" height="84" rx="42" fill="#3CA6F8"/>
<g clip-path="url(#clip5_127_1572)">
<path d="M1094.53 463.145V501.367H1122.73V472.976L1112.57 463.145H1094.53Z" stroke="white" stroke-width="2" stroke-miterlimit="10"/>
<path d="M1112.58 463.145V473.367H1122.73" stroke="white" stroke-width="2" stroke-miterlimit="10"/>
<path d="M1100.4 481.363H1108.07" stroke="white" stroke-width="2" stroke-miterlimit="10"/>
<path d="M1100.4 489.363H1116.21" stroke="white" stroke-width="2" stroke-miterlimit="10"/>
</g>
<circle cx="1121.3" cy="497.762" r="13" fill="white"/>
<path d="M1114.58 497.938H1128.37" stroke="#3CA6F8" stroke-width="3" stroke-miterlimit="10"/>
<path d="M1121.48 504.835V491.039" stroke="#3CA6F8" stroke-width="3" stroke-miterlimit="10"/>
<rect x="755.391" y="426" width="120" height="119.008" rx="59.5041" fill="url(#paint3_linear_127_1572)"/>
<path d="M814.466 454.539V481.199H810.891V467.84H808.636V479.969H805.091V472.322L802.981 475.135C800.506 473.831 798.909 471.619 797.971 468.865C797.078 472.029 795.496 474.593 792.962 476.102L790.647 473.23C794.69 470.945 796.067 466.229 796.067 461.131V460.281H791.555V457.293H803.772V460.281H799.7V461.131C799.7 465.774 801.077 470.198 805.091 472.264V454.92H808.636V464.793H810.891V454.539H814.466ZM838.204 456.854V459.373C838.204 462.713 838.204 466.463 837.12 472.117L833.37 471.736C834.381 466.697 834.425 462.947 834.454 459.812H818.751V456.854H838.204ZM840.548 474.9V477.947H816.232V474.9H824.933V465.73H828.654V474.9H840.548ZM813.499 490.539V504.045H809.778V490.539H813.499ZM813.528 505.188V512.424H799.348V514.064H814.261V517.023H795.686V509.641H809.807V508.088H795.628V505.188H813.528ZM801.429 493.176C801.399 496.398 803.333 499.504 807.698 500.764L805.882 503.635C802.82 502.741 800.711 500.896 799.524 498.537C798.294 501.115 796.111 503.166 792.932 504.104L791.087 501.174C795.54 499.855 797.532 496.486 797.532 493.176V491.125H801.429V493.176ZM826.046 496.574C826.017 501.35 828.068 506.184 832.345 508.234L830.089 511.223C827.233 509.816 825.314 507.18 824.2 503.957C823.043 507.414 820.978 510.241 817.96 511.721L815.646 508.703C820.157 506.623 822.296 501.525 822.296 496.574V492.59H826.046V496.574ZM837.267 490.539V500.822H841.193V503.986H837.267V517.199H833.517V490.539H837.267Z" fill="white"/>
<path d="M774.585 329.527V347.301H772.202V338.395H770.698V346.48H768.335V341.383L766.929 343.258C765.279 342.389 764.214 340.914 763.589 339.078C762.993 341.188 761.939 342.896 760.249 343.902L758.706 341.988C761.402 340.465 762.32 337.32 762.32 333.922V333.355H759.312V331.363H767.456V333.355H764.741V333.922C764.741 337.018 765.659 339.967 768.335 341.344V329.781H770.698V336.363H772.202V329.527H774.585ZM790.411 331.07V332.75C790.411 334.977 790.411 337.477 789.688 341.246L787.188 340.992C787.862 337.633 787.891 335.133 787.911 333.043H777.442V331.07H790.411ZM791.973 343.102V345.133H775.763V343.102H781.563V336.988H784.044V343.102H791.973ZM808.717 343.219V345.23H792.448V343.219H799.323V339.254H801.823V343.219H808.717ZM807.291 330.875V332.887H801.881C802.086 335.23 804.293 337.408 808.112 337.965L807.135 339.938C804.02 339.391 801.715 337.867 800.573 335.758C799.44 337.906 797.155 339.469 794.088 340.035L793.112 338.062C796.803 337.467 799.02 335.24 799.225 332.887H793.795V330.875H807.291ZM815.676 333.551C815.656 336.734 817.023 339.957 819.875 341.324L818.371 343.316C816.467 342.379 815.188 340.621 814.445 338.473C813.674 340.777 812.297 342.662 810.285 343.648L808.742 341.637C811.75 340.25 813.176 336.852 813.176 333.551V330.895H815.676V333.551ZM823.156 329.527V336.383H825.773V338.492H823.156V347.301H820.656V329.527H823.156ZM769.175 358.562V360.555H765.64C765.659 362.635 766.89 364.764 769.78 365.691L768.511 367.625C766.538 366.99 765.181 365.721 764.409 364.129C763.618 365.867 762.202 367.244 760.132 367.918L758.804 366.004C761.743 365.057 763.081 362.781 763.12 360.555H759.488V358.562H769.175ZM773.179 357.527V361.844H775.581V363.914H773.179V368.25H770.679V357.527H773.179ZM773.179 369.012V375.301H770.679V370.984H761.206V369.012H773.179ZM780.723 358.289C782.999 358.27 784.805 359.568 785.294 361.473H788.263V357.527H790.743V367.078H788.263V363.465H785.313C784.845 365.418 783.018 366.746 780.723 366.746C777.989 366.746 775.977 364.969 775.997 362.488C775.977 360.047 777.989 358.27 780.723 358.289ZM780.723 360.359C779.337 360.34 778.341 361.16 778.36 362.488C778.341 363.816 779.337 364.656 780.723 364.656C782.071 364.656 783.048 363.816 783.048 362.488C783.048 361.16 782.071 360.34 780.723 360.359ZM781.348 367.859V369.578H788.263V367.859H790.743V375.105H778.888V367.859H781.348ZM781.348 373.094H788.263V371.492H781.348V373.094ZM798.131 360.691C798.131 362.605 799.127 364.52 801.491 365.418L800.163 367.312C798.649 366.736 797.604 365.682 796.959 364.363C796.315 365.906 795.202 367.195 793.541 367.879L792.194 365.965C794.694 364.871 795.709 362.684 795.709 360.691V358.602H798.131V360.691ZM807.721 357.547V368.406H805.358V363.895H803.873V367.859H801.549V357.859H803.873V361.883H805.358V357.547H807.721ZM801.647 368.66C805.397 368.66 807.799 369.91 807.819 371.98C807.799 374.051 805.397 375.301 801.647 375.301C797.877 375.301 795.495 374.051 795.495 371.98C795.495 369.91 797.877 368.66 801.647 368.66ZM801.647 370.516C799.323 370.516 797.975 371.023 797.995 371.98C797.975 372.938 799.323 373.426 801.647 373.426C803.952 373.426 805.299 372.938 805.299 371.98C805.299 371.023 803.952 370.516 801.647 370.516ZM815.852 359.949C815.832 362.332 817.063 364.52 819.914 365.398L818.605 367.352C816.691 366.688 815.393 365.457 814.66 363.855C813.859 365.711 812.424 367.176 810.285 367.898L808.977 365.906C812.023 364.93 813.313 362.547 813.332 360.066V358.445H815.852V359.949ZM824.113 357.527V367.938H821.633V362.82H818.293V360.789H821.633V357.527H824.113ZM818.039 368.406C821.828 368.406 824.152 369.676 824.172 371.863C824.152 374.051 821.828 375.301 818.039 375.301C814.25 375.301 811.926 374.051 811.926 371.863C811.926 369.676 814.25 368.406 818.039 368.406ZM818.039 370.34C815.676 370.34 814.406 370.848 814.406 371.863C814.406 372.84 815.676 373.367 818.039 373.367C820.402 373.367 821.691 372.84 821.691 371.863C821.691 370.848 820.402 370.34 818.039 370.34Z" fill="black"/>
<path d="M1111.5 343.527V361.301H1109.12V352.395H1107.62V360.48H1105.25V355.383L1103.85 357.258C1102.2 356.389 1101.13 354.914 1100.51 353.078C1099.91 355.188 1098.86 356.896 1097.17 357.902L1095.62 355.988C1098.32 354.465 1099.24 351.32 1099.24 347.922V347.355H1096.23V345.363H1104.38V347.355H1101.66V347.922C1101.66 351.018 1102.58 353.967 1105.25 355.344V343.781H1107.62V350.363H1109.12V343.527H1111.5ZM1127.33 345.07V346.75C1127.33 348.977 1127.33 351.477 1126.61 355.246L1124.11 354.992C1124.78 351.633 1124.81 349.133 1124.83 347.043H1114.36V345.07H1127.33ZM1128.89 357.102V359.133H1112.68V357.102H1118.48V350.988H1120.96V357.102H1128.89ZM1145.64 357.219V359.23H1129.37V357.219H1136.24V353.254H1138.74V357.219H1145.64ZM1144.21 344.875V346.887H1138.8C1139.01 349.23 1141.21 351.408 1145.03 351.965L1144.05 353.938C1140.94 353.391 1138.63 351.867 1137.49 349.758C1136.36 351.906 1134.07 353.469 1131.01 354.035L1130.03 352.062C1133.72 351.467 1135.94 349.24 1136.14 346.887H1130.71V344.875H1144.21ZM1152.59 347.551C1152.58 350.734 1153.94 353.957 1156.79 355.324L1155.29 357.316C1153.39 356.379 1152.11 354.621 1151.36 352.473C1150.59 354.777 1149.22 356.662 1147.2 357.648L1145.66 355.637C1148.67 354.25 1150.09 350.852 1150.09 347.551V344.895H1152.59V347.551ZM1160.08 343.527V350.383H1162.69V352.492H1160.08V361.301H1157.58V343.527H1160.08Z" fill="black"/>
<path d="M1187.5 462.527V480.301H1185.12V471.395H1183.62V479.48H1181.25V474.383L1179.85 476.258C1178.2 475.389 1177.13 473.914 1176.51 472.078C1175.91 474.188 1174.86 475.896 1173.17 476.902L1171.62 474.988C1174.32 473.465 1175.24 470.32 1175.24 466.922V466.355H1172.23V464.363H1180.38V466.355H1177.66V466.922C1177.66 470.018 1178.58 472.967 1181.25 474.344V462.781H1183.62V469.363H1185.12V462.527H1187.5ZM1203.33 464.07V465.75C1203.33 467.977 1203.33 470.477 1202.61 474.246L1200.11 473.992C1200.78 470.633 1200.81 468.133 1200.83 466.043H1190.36V464.07H1203.33ZM1204.89 476.102V478.133H1188.68V476.102H1194.48V469.988H1196.96V476.102H1204.89ZM1208.63 463.602V466.004H1212.12V463.602H1214.59V465.145H1217.87V462.527H1220.35V473.152H1217.87V470.77H1214.59V472.117H1206.13V463.602H1208.63ZM1208.63 470.184H1212.12V467.918H1208.63V470.184ZM1214.27 473.445C1218.06 473.465 1220.39 474.715 1220.41 476.902C1220.39 479.051 1218.06 480.301 1214.27 480.301C1210.48 480.301 1208.16 479.051 1208.16 476.902C1208.16 474.715 1210.48 473.465 1214.27 473.445ZM1214.27 475.359C1211.91 475.359 1210.64 475.848 1210.64 476.902C1210.64 477.898 1211.91 478.406 1214.27 478.406C1216.64 478.406 1217.92 477.898 1217.92 476.902C1217.92 475.848 1216.64 475.359 1214.27 475.359ZM1214.59 468.777H1217.87V467.117H1214.59V468.777ZM1236.15 462.527V466.805H1238.56V468.875H1236.15V472.938H1233.65V462.527H1236.15ZM1226.99 473.621V474.969H1233.65V473.621H1236.15V480.105H1224.51V473.621H1226.99ZM1226.99 478.152H1233.65V476.883H1226.99V478.152ZM1232.6 464.09V466.043H1222.05V464.09H1226.09V462.41H1228.58V464.09H1232.6ZM1227.33 466.551C1229.9 466.551 1231.7 467.801 1231.7 469.695C1231.7 471.59 1229.9 472.84 1227.33 472.84C1224.71 472.84 1222.91 471.59 1222.91 469.695C1222.91 467.801 1224.71 466.551 1227.33 466.551ZM1227.33 468.387C1226.13 468.367 1225.33 468.855 1225.35 469.695C1225.33 470.555 1226.13 471.023 1227.33 471.023C1228.52 471.023 1229.34 470.555 1229.34 469.695C1229.34 468.855 1228.52 468.367 1227.33 468.387ZM1182.09 491.562V493.555H1178.56C1178.58 495.635 1179.81 497.764 1182.7 498.691L1181.43 500.625C1179.46 499.99 1178.1 498.721 1177.33 497.129C1176.54 498.867 1175.12 500.244 1173.05 500.918L1171.72 499.004C1174.66 498.057 1176 495.781 1176.04 493.555H1172.41V491.562H1182.09ZM1186.1 490.527V494.844H1188.5V496.914H1186.1V501.25H1183.6V490.527H1186.1ZM1186.1 502.012V508.301H1183.6V503.984H1174.12V502.012H1186.1ZM1193.64 491.289C1195.92 491.27 1197.72 492.568 1198.21 494.473H1201.18V490.527H1203.66V500.078H1201.18V496.465H1198.23C1197.76 498.418 1195.94 499.746 1193.64 499.746C1190.91 499.746 1188.9 497.969 1188.92 495.488C1188.9 493.047 1190.91 491.27 1193.64 491.289ZM1193.64 493.359C1192.26 493.34 1191.26 494.16 1191.28 495.488C1191.26 496.816 1192.26 497.656 1193.64 497.656C1194.99 497.656 1195.97 496.816 1195.97 495.488C1195.97 494.16 1194.99 493.34 1193.64 493.359ZM1194.27 500.859V502.578H1201.18V500.859H1203.66V508.105H1191.81V500.859H1194.27ZM1194.27 506.094H1201.18V504.492H1194.27V506.094ZM1211.05 493.691C1211.05 495.605 1212.05 497.52 1214.41 498.418L1213.08 500.312C1211.57 499.736 1210.52 498.682 1209.88 497.363C1209.23 498.906 1208.12 500.195 1206.46 500.879L1205.11 498.965C1207.61 497.871 1208.63 495.684 1208.63 493.691V491.602H1211.05V493.691ZM1220.64 490.547V501.406H1218.28V496.895H1216.79V500.859H1214.47V490.859H1216.79V494.883H1218.28V490.547H1220.64ZM1214.57 501.66C1218.32 501.66 1220.72 502.91 1220.74 504.98C1220.72 507.051 1218.32 508.301 1214.57 508.301C1210.8 508.301 1208.41 507.051 1208.41 504.98C1208.41 502.91 1210.8 501.66 1214.57 501.66ZM1214.57 503.516C1212.24 503.516 1210.89 504.023 1210.91 504.98C1210.89 505.938 1212.24 506.426 1214.57 506.426C1216.87 506.426 1218.22 505.938 1218.22 504.98C1218.22 504.023 1216.87 503.516 1214.57 503.516ZM1228.77 492.949C1228.75 495.332 1229.98 497.52 1232.83 498.398L1231.52 500.352C1229.61 499.688 1228.31 498.457 1227.58 496.855C1226.78 498.711 1225.34 500.176 1223.2 500.898L1221.9 498.906C1224.94 497.93 1226.23 495.547 1226.25 493.066V491.445H1228.77V492.949ZM1237.03 490.527V500.938H1234.55V495.82H1231.21V493.789H1234.55V490.527H1237.03ZM1230.96 501.406C1234.75 501.406 1237.07 502.676 1237.09 504.863C1237.07 507.051 1234.75 508.301 1230.96 508.301C1227.17 508.301 1224.84 507.051 1224.84 504.863C1224.84 502.676 1227.17 501.406 1230.96 501.406ZM1230.96 503.34C1228.59 503.34 1227.33 503.848 1227.33 504.863C1227.33 505.84 1228.59 506.367 1230.96 506.367C1233.32 506.367 1234.61 505.84 1234.61 504.863C1234.61 503.848 1233.32 503.34 1230.96 503.34Z" fill="black"/>
<path d="M1020.04 677.527V695.301H1017.66V686.395H1016.16V694.48H1013.79V689.383L1012.39 691.258C1010.74 690.389 1009.67 688.914 1009.05 687.078C1008.45 689.188 1007.4 690.896 1005.71 691.902L1004.17 689.988C1006.86 688.465 1007.78 685.32 1007.78 681.922V681.355H1004.77V679.363H1012.92V681.355H1010.2V681.922C1010.2 685.018 1011.12 687.967 1013.79 689.344V677.781H1016.16V684.363H1017.66V677.527H1020.04ZM1035.87 679.07V680.75C1035.87 682.977 1035.87 685.477 1035.15 689.246L1032.65 688.992C1033.32 685.633 1033.35 683.133 1033.37 681.043H1022.9V679.07H1035.87ZM1037.43 691.102V693.133H1021.22V691.102H1027.02V684.988H1029.5V691.102H1037.43ZM1041.17 678.602V681.004H1044.66V678.602H1047.13V680.145H1050.41V677.527H1052.89V688.152H1050.41V685.77H1047.13V687.117H1038.67V678.602H1041.17ZM1041.17 685.184H1044.66V682.918H1041.17V685.184ZM1046.81 688.445C1050.6 688.465 1052.93 689.715 1052.95 691.902C1052.93 694.051 1050.6 695.301 1046.81 695.301C1043.02 695.301 1040.7 694.051 1040.7 691.902C1040.7 689.715 1043.02 688.465 1046.81 688.445ZM1046.81 690.359C1044.45 690.359 1043.18 690.848 1043.18 691.902C1043.18 692.898 1044.45 693.406 1046.81 693.406C1049.18 693.406 1050.47 692.898 1050.47 691.902C1050.47 690.848 1049.18 690.359 1046.81 690.359ZM1047.13 683.777H1050.41V682.117H1047.13V683.777ZM1068.69 677.527V681.805H1071.1V683.875H1068.69V687.938H1066.19V677.527H1068.69ZM1059.53 688.621V689.969H1066.19V688.621H1068.69V695.105H1057.05V688.621H1059.53ZM1059.53 693.152H1066.19V691.883H1059.53V693.152ZM1065.14 679.09V681.043H1054.59V679.09H1058.64V677.41H1061.12V679.09H1065.14ZM1059.87 681.551C1062.44 681.551 1064.24 682.801 1064.24 684.695C1064.24 686.59 1062.44 687.84 1059.87 687.84C1057.25 687.84 1055.45 686.59 1055.45 684.695C1055.45 682.801 1057.25 681.551 1059.87 681.551ZM1059.87 683.387C1058.67 683.367 1057.87 683.855 1057.89 684.695C1057.87 685.555 1058.67 686.023 1059.87 686.023C1061.06 686.023 1061.88 685.555 1061.88 684.695C1061.88 683.855 1061.06 683.367 1059.87 683.387Z" fill="black"/>
<path d="M863.271 677.527V695.301H860.888V686.395H859.384V694.48H857.021V689.383L855.615 691.258C853.964 690.389 852.9 688.914 852.275 687.078C851.679 689.188 850.625 690.896 848.935 691.902L847.392 689.988C850.088 688.465 851.005 685.32 851.005 681.922V681.355H847.998V679.363H856.142V681.355H853.427V681.922C853.427 685.018 854.345 687.967 857.021 689.344V677.781H859.384V684.363H860.888V677.527H863.271ZM879.097 679.07V680.75C879.097 682.977 879.097 685.477 878.374 689.246L875.874 688.992C876.548 685.633 876.577 683.133 876.597 681.043H866.128V679.07H879.097ZM880.659 691.102V693.133H864.448V691.102H870.249V684.988H872.73V691.102H880.659ZM897.403 691.219V693.23H881.134V691.219H888.009V687.254H890.509V691.219H897.403ZM895.977 678.875V680.887H890.567C890.772 683.23 892.979 685.408 896.798 685.965L895.821 687.938C892.706 687.391 890.401 685.867 889.259 683.758C888.126 685.906 885.841 687.469 882.774 688.035L881.798 686.062C885.489 685.467 887.706 683.24 887.911 680.887H882.481V678.875H895.977ZM912.799 677.527V688.074H910.319V683.875H907.545V681.863H910.319V677.527H912.799ZM906.725 688.465C910.514 688.484 912.838 689.734 912.858 691.902C912.838 694.051 910.514 695.32 906.725 695.32C902.936 695.32 900.612 694.051 900.612 691.902C900.612 689.734 902.936 688.484 906.725 688.465ZM906.725 690.379C904.362 690.379 903.092 690.867 903.092 691.902C903.092 692.918 904.362 693.426 906.725 693.426C909.088 693.426 910.377 692.918 910.377 691.902C910.377 690.867 909.088 690.379 906.725 690.379ZM908.073 678.602V680.594H904.538C904.596 682.664 905.846 684.754 908.62 685.672L907.389 687.625C905.426 686.99 904.079 685.701 903.307 684.09C902.516 685.906 901.1 687.371 898.991 688.094L897.702 686.121C900.621 685.145 901.93 682.82 901.998 680.594H898.424V678.602H908.073Z" fill="black"/>
<rect x="138.391" y="521.504" width="84" height="84" rx="42" fill="#6E62FD"/>
<path d="M184.888 549.996H162.796C162.356 549.996 162 550.341 162 550.766V575.809C162 576.235 162.356 576.579 162.796 576.579H184.888C185.328 576.579 185.684 576.235 185.684 575.809V550.766C185.684 550.341 185.328 549.996 184.888 549.996Z" fill="white"/>
<path d="M197.995 575.58H187.68V557.918H192.376L197.995 564.501V575.58Z" stroke="white" stroke-width="2"/>
<path d="M187.633 566.746H198.054" stroke="white" stroke-width="2" stroke-linecap="square" stroke-linejoin="round"/>
<path d="M170.529 581.464C172.793 581.464 174.628 579.688 174.628 577.498C174.628 575.307 172.793 573.531 170.529 573.531C168.265 573.531 166.43 575.307 166.43 577.498C166.43 579.688 168.265 581.464 170.529 581.464Z" fill="white" stroke="#6E62FD" stroke-width="2" stroke-linecap="square" stroke-linejoin="round"/>
<path d="M192.841 581.131C194.915 581.131 196.597 579.504 196.597 577.497C196.597 575.49 194.915 573.863 192.841 573.863C190.767 573.863 189.086 575.49 189.086 577.497C189.086 579.504 190.767 581.131 192.841 581.131Z" fill="white" stroke="#6E62FD" stroke-width="2" stroke-linecap="square" stroke-linejoin="round"/>
<path d="M185.992 549.418V576.581" stroke="#6E62FD" stroke-width="2" stroke-miterlimit="10"/>
<path d="M155 556.246H163" stroke="white" stroke-width="2"/>
<path d="M158 561.121H166" stroke="white" stroke-width="2"/>
<path d="M162.13 625.027V642.84H159.611V625.027H162.13ZM152.482 626.277C155.158 626.277 157.15 628.738 157.15 632.605C157.15 636.512 155.158 638.953 152.482 638.953C149.748 638.953 147.755 636.512 147.775 632.605C147.755 628.738 149.748 626.277 152.482 626.277ZM152.482 628.523C151.095 628.523 150.177 629.969 150.177 632.605C150.177 635.262 151.095 636.688 152.482 636.688C153.83 636.688 154.748 635.262 154.748 632.605C154.748 629.969 153.83 628.523 152.482 628.523ZM180.183 633.426V635.379H163.933V633.426H170.847V631.902H165.905V625.809H178.23V627.742H168.386V629.949H178.327V631.902H173.288V633.426H180.183ZM172.019 636.277C175.866 636.277 178.191 637.449 178.21 639.559C178.191 641.629 175.866 642.82 172.019 642.82C168.132 642.82 165.788 641.629 165.788 639.559C165.788 637.449 168.132 636.277 172.019 636.277ZM172.019 638.172C169.558 638.172 168.308 638.641 168.327 639.559C168.308 640.496 169.558 640.926 172.019 640.926C174.421 640.926 175.691 640.496 175.71 639.559C175.691 638.641 174.421 638.172 172.019 638.172ZM190.716 626.062V628.055H187.18C187.2 630.135 188.43 632.264 191.321 633.191L190.052 635.125C188.079 634.49 186.721 633.221 185.95 631.629C185.159 633.367 183.743 634.744 181.673 635.418L180.345 633.504C183.284 632.557 184.622 630.281 184.661 628.055H181.028V626.062H190.716ZM194.72 625.027V629.344H197.122V631.414H194.72V635.75H192.22V625.027H194.72ZM194.72 636.512V642.801H192.22V638.484H182.747V636.512H194.72ZM202.264 625.789C204.539 625.77 206.346 627.068 206.834 628.973H209.803V625.027H212.284V634.578H209.803V630.965H206.854C206.385 632.918 204.559 634.246 202.264 634.246C199.53 634.246 197.518 632.469 197.538 629.988C197.518 627.547 199.53 625.77 202.264 625.789ZM202.264 627.859C200.877 627.84 199.881 628.66 199.901 629.988C199.881 631.316 200.877 632.156 202.264 632.156C203.612 632.156 204.588 631.316 204.588 629.988C204.588 628.66 203.612 627.84 202.264 627.859ZM202.889 635.359V637.078H209.803V635.359H212.284V642.605H200.428V635.359H202.889ZM202.889 640.594H209.803V638.992H202.889V640.594Z" fill="black"/>
<defs>
<linearGradient id="paint0_linear_127_1572" x1="501.427" y1="638.017" x2="426.318" y2="637.333" gradientUnits="userSpaceOnUse">
<stop stop-color="#4769E9"/>
<stop offset="1" stop-color="#3BA6F7"/>
</linearGradient>
<linearGradient id="paint1_linear_127_1572" x1="268.528" y1="455.006" x2="193.42" y2="454.322" gradientUnits="userSpaceOnUse">
<stop stop-color="#4769E9"/>
<stop offset="1" stop-color="#3BA6F7"/>
</linearGradient>
<linearGradient id="paint2_linear_127_1572" x1="492.716" y1="198.502" x2="417.607" y2="197.818" gradientUnits="userSpaceOnUse">
<stop stop-color="#4769E9"/>
<stop offset="1" stop-color="#3BA6F7"/>
</linearGradient>
<linearGradient id="paint3_linear_127_1572" x1="856.716" y1="509.006" x2="781.607" y2="508.322" gradientUnits="userSpaceOnUse">
<stop stop-color="#4769E9"/>
<stop offset="1" stop-color="#3BA6F7"/>
</linearGradient>
<clipPath id="clip0_127_1572">
<rect width="40" height="42.16" fill="white" transform="translate(584.969 662.438)"/>
</clipPath>
<clipPath id="clip1_127_1572">
<rect width="35" height="35" fill="white" transform="translate(502.891 288.004)"/>
</clipPath>
<clipPath id="clip2_127_1572">
<rect width="48" height="44" fill="white" transform="translate(648.969 20)"/>
</clipPath>
<clipPath id="clip3_127_1572">
<rect width="43" height="42" fill="white" transform="translate(651.469 284.504)"/>
</clipPath>
<clipPath id="clip4_127_1572">
<rect width="32.4765" height="32.4765" fill="white" transform="translate(1021.39 336.492)"/>
</clipPath>
<clipPath id="clip5_127_1572">
<rect width="30" height="40" fill="white" transform="translate(1093.63 462.254)"/>
</clipPath>
</defs>
</svg>
