<svg width="922" height="696" viewBox="0 0 922 696" fill="none" xmlns="http://www.w3.org/2000/svg">
<path d="M427.784 78.4297V143.805C427.784 187.988 391.967 223.805 347.784 223.805H246.323C209.88 223.805 180.337 253.348 180.337 289.791V289.791C180.337 326.234 209.88 355.777 246.323 355.777H668.014C704.457 355.777 734 385.32 734 421.763V421.763C734 458.206 704.457 487.748 668.014 487.748H66.9238C31.6197 487.748 3 516.368 3 551.672V551.672C3 586.976 31.6197 615.596 66.9238 615.596H420.567" stroke="#DADDE6" stroke-width="6"/>
<rect x="365" width="120" height="120" rx="60" fill="#CDCFD6"/>
<path d="M413.127 60.3945C413.127 67.3086 408.82 71.293 403.224 71.293C397.57 71.293 393.293 67.2793 393.293 60.3945C393.293 53.4805 397.57 49.4961 403.224 49.4961C408.82 49.4961 413.127 53.4805 413.127 60.3945ZM408.644 60.3945C408.644 55.8535 406.505 53.3926 403.224 53.3926C399.943 53.3926 397.775 55.8535 397.775 60.3945C397.775 64.9355 399.943 67.3965 403.224 67.3965C406.505 67.3965 408.644 64.9355 408.644 60.3945ZM415.391 49.7891H420.84L426.729 64.1738H426.963L432.852 49.7891H438.301V71H434.023V57.1133H433.848L428.311 70.9121H425.381L419.844 57.0547H419.668V71H415.391V49.7891ZM452.489 55.8535C452.313 54.1836 450.965 53.1875 448.827 53.1875C446.6 53.1875 445.37 54.2129 445.34 55.6191C445.311 57.1426 446.922 57.8457 448.739 58.2559L450.643 58.7246C454.276 59.5449 457 61.3906 457 64.9355C457 68.832 453.954 71.293 448.797 71.293C443.67 71.293 440.389 68.9199 440.272 64.3789H444.549C444.696 66.5176 446.395 67.6016 448.739 67.6016C451.053 67.6016 452.547 66.5176 452.547 64.9355C452.547 63.5 451.229 62.8262 448.914 62.2402L446.6 61.6836C443.026 60.8047 440.829 59.0176 440.829 55.9121C440.829 52.0449 444.227 49.4961 448.856 49.4961C453.543 49.4961 456.649 52.1035 456.707 55.8535H452.489Z" fill="white"/>
<rect x="365" y="138" width="120" height="119.008" rx="59.5041" fill="url(#paint0_linear_127_750)"/>
<path d="M394.757 208.504L388.693 187.293H393.498L397.072 202.117H397.248L401.144 187.293H405.275L409.171 202.146H409.347L412.921 187.293H417.726L411.662 208.504H407.355L403.312 194.5H403.136L399.064 208.504H394.757ZM419.082 187.293H424.531L430.42 201.678H430.654L436.543 187.293H441.992V208.504H437.715V194.617H437.539L432.002 208.416H429.072L423.535 194.559H423.359V208.504H419.082V187.293ZM456.18 193.357C456.004 191.688 454.657 190.691 452.518 190.691C450.291 190.691 449.061 191.717 449.032 193.123C449.002 194.646 450.614 195.35 452.43 195.76L454.334 196.229C457.967 197.049 460.692 198.895 460.692 202.439C460.692 206.336 457.645 208.797 452.489 208.797C447.362 208.797 444.08 206.424 443.963 201.883H448.241C448.387 204.021 450.086 205.105 452.43 205.105C454.745 205.105 456.239 204.021 456.239 202.439C456.239 201.004 454.92 200.33 452.606 199.744L450.291 199.188C446.717 198.309 444.52 196.521 444.52 193.416C444.52 189.549 447.918 187 452.547 187C457.235 187 460.34 189.607 460.399 193.357H456.18Z" fill="white"/>
<rect x="144" y="249" width="84" height="84" rx="42" fill="#336DFF"/>
<path d="M166.148 314.97V282.195" stroke="white" stroke-width="2" stroke-miterlimit="10"/>
<path d="M205.828 314.97V282.195" stroke="white" stroke-width="2" stroke-miterlimit="10"/>
<path d="M162 285.235L186.421 267.027L210 285.235" stroke="white" stroke-width="2" stroke-miterlimit="10"/>
<path d="M192.78 289H179.219V300.407H192.78V289Z" fill="white" stroke="#336DFF" stroke-width="2" stroke-miterlimit="10"/>
<path d="M185.979 300.406H173.461V311.814H185.979V300.406Z" fill="white" stroke="#336DFF" stroke-width="2" stroke-miterlimit="10"/>
<path d="M198.495 300.406H185.977V311.814H198.495V300.406Z" fill="white" stroke="#336DFF" stroke-width="2" stroke-miterlimit="10"/>
<path d="M94.2508 299H91.0867L95.9891 284.859H99.7586L104.641 299H101.497L100.442 295.738H95.325L94.2508 299ZM96.0672 293.453H99.7L97.9227 288.043H97.825L96.0672 293.453ZM112.987 288.902C112.87 287.789 111.971 287.125 110.545 287.125C109.061 287.125 108.241 287.809 108.221 288.746C108.202 289.762 109.276 290.23 110.487 290.504L111.756 290.816C114.178 291.363 115.995 292.594 115.995 294.957C115.995 297.555 113.963 299.195 110.526 299.195C107.108 299.195 104.92 297.613 104.842 294.586H107.694C107.791 296.012 108.924 296.734 110.487 296.734C112.03 296.734 113.026 296.012 113.026 294.957C113.026 294 112.147 293.551 110.604 293.16L109.061 292.789C106.678 292.203 105.213 291.012 105.213 288.941C105.213 286.363 107.479 284.664 110.565 284.664C113.69 284.664 115.76 286.402 115.799 288.902H112.987ZM129.105 284.859V299H126.566L120.355 290.016H120.238V299H117.309V284.859H119.887L126.059 293.844H126.195V284.859H129.105Z" fill="black"/>
<path d="M334.645 427V412.859H340.192C343.415 412.859 345.251 414.676 345.251 417.469C345.251 419.402 344.362 420.809 342.751 421.492L345.759 427H342.516L339.821 421.98H337.575V427H334.645ZM337.575 419.598H339.645C341.384 419.598 342.223 418.875 342.223 417.469C342.223 416.043 341.384 415.262 339.645 415.262H337.575V419.598ZM351.252 427.215C348.01 427.215 346.018 425.105 346.018 421.746C346.018 418.465 348.03 416.258 351.135 416.258C353.928 416.258 356.116 418.016 356.116 421.629V422.449H348.87C348.87 424.051 349.827 425.047 351.311 425.047C352.287 425.047 352.991 424.617 353.284 423.973H356.037C355.627 425.926 353.87 427.215 351.252 427.215ZM348.87 420.633H353.381C353.381 419.344 352.483 418.426 351.194 418.426C349.866 418.426 348.918 419.412 348.87 420.633ZM362.098 427.215C358.855 427.215 356.902 424.969 356.902 421.727C356.902 418.484 358.875 416.258 362.098 416.258C364.832 416.258 366.687 417.859 366.805 420.281H364.09C363.914 419.227 363.23 418.504 362.137 418.504C360.75 418.504 359.832 419.676 359.832 421.688C359.832 423.738 360.73 424.91 362.137 424.91C363.152 424.91 363.914 424.285 364.09 423.152H366.805C366.668 425.555 364.91 427.215 362.098 427.215ZM372.806 427.215C369.564 427.215 367.572 425.105 367.572 421.746C367.572 418.465 369.584 416.258 372.689 416.258C375.482 416.258 377.67 418.016 377.67 421.629V422.449H370.423C370.423 424.051 371.38 425.047 372.865 425.047C373.841 425.047 374.545 424.617 374.837 423.973H377.591C377.181 425.926 375.423 427.215 372.806 427.215ZM370.423 420.633H374.935C374.935 419.344 374.037 418.426 372.748 418.426C371.42 418.426 370.472 419.412 370.423 420.633ZM378.886 427V416.395H381.777V427H378.886ZM380.331 415.008C379.452 415.008 378.749 414.344 378.749 413.543C378.749 412.723 379.452 412.059 380.331 412.059C381.191 412.059 381.894 412.723 381.894 413.543C381.894 414.344 381.191 415.008 380.331 415.008ZM393.266 416.395L389.536 427H386.294L382.583 416.395H385.63L387.856 424.012H387.973L390.2 416.395H393.266ZM394.073 427V416.395H396.963V427H394.073ZM395.518 415.008C394.639 415.008 393.936 414.344 393.936 413.543C393.936 412.723 394.639 412.059 395.518 412.059C396.377 412.059 397.08 412.723 397.08 413.543C397.08 414.344 396.377 415.008 395.518 415.008ZM401.5 420.867V427H398.609V416.395H401.363V418.25H401.48C401.969 417.02 403.102 416.258 404.664 416.258C406.871 416.258 408.336 417.762 408.316 420.242V427H405.445V420.75C405.445 419.441 404.723 418.66 403.531 418.66C402.32 418.66 401.5 419.461 401.5 420.867ZM414.728 431.199C411.798 431.199 410.002 429.891 409.826 427.879H412.677C412.834 428.719 413.634 429.109 414.787 429.109C416.134 429.109 417.033 428.543 417.033 427.059V425.125H416.896C416.505 425.984 415.568 426.844 413.869 426.844C411.466 426.844 409.552 425.164 409.552 421.629C409.552 418.035 411.525 416.258 413.869 416.258C415.646 416.258 416.505 417.312 416.896 418.172H417.013V416.395H419.884V427.117C419.884 429.812 417.736 431.199 414.728 431.199ZM414.767 424.676C416.212 424.676 417.033 423.543 417.033 421.668C417.033 419.773 416.212 418.562 414.767 418.562C413.302 418.562 412.521 419.832 412.521 421.668C412.521 423.504 413.302 424.676 414.767 424.676ZM428.528 412.859V427H425.598V412.859H428.528ZM433.143 420.867V427H430.252V416.395H433.006V418.25H433.123C433.612 417.02 434.745 416.258 436.307 416.258C438.514 416.258 439.979 417.762 439.959 420.242V427H437.088V420.75C437.088 419.441 436.366 418.66 435.174 418.66C433.963 418.66 433.143 419.461 433.143 420.867ZM447.66 419.539C447.543 418.797 446.879 418.309 445.922 418.309C444.984 418.309 444.262 418.758 444.281 419.402C444.262 419.871 444.652 420.242 445.648 420.457L447.543 420.848C449.594 421.277 450.59 422.195 450.609 423.719C450.59 425.809 448.715 427.215 445.902 427.215C443.031 427.215 441.352 425.926 441.117 423.855H444.027C444.164 424.695 444.848 425.125 445.902 425.125C446.957 425.125 447.66 424.695 447.66 424.012C447.66 423.465 447.211 423.133 446.215 422.918L444.457 422.566C442.445 422.176 441.391 421.121 441.41 419.559C441.391 417.527 443.148 416.258 445.883 416.258C448.559 416.258 450.219 417.527 450.375 419.539H447.66ZM451.787 430.984V416.395H454.638V418.172H454.755C455.146 417.312 456.005 416.258 457.783 416.258C460.127 416.258 462.08 418.074 462.08 421.707C462.08 425.242 460.205 427.176 457.783 427.176C456.045 427.176 455.166 426.18 454.755 425.301H454.677V430.984H451.787ZM454.619 421.688C454.619 423.602 455.439 424.871 456.865 424.871C458.349 424.871 459.13 423.562 459.13 421.688C459.13 419.832 458.349 418.562 456.865 418.562C455.42 418.562 454.619 419.773 454.619 421.688ZM468.159 427.215C464.917 427.215 462.925 425.105 462.925 421.746C462.925 418.465 464.937 416.258 468.042 416.258C470.835 416.258 473.023 418.016 473.023 421.629V422.449H465.777C465.777 424.051 466.734 425.047 468.218 425.047C469.195 425.047 469.898 424.617 470.191 423.973H472.945C472.534 425.926 470.777 427.215 468.159 427.215ZM465.777 420.633H470.288C470.288 419.344 469.39 418.426 468.101 418.426C466.773 418.426 465.825 419.412 465.777 420.633ZM479.005 427.215C475.762 427.215 473.809 424.969 473.809 421.727C473.809 418.484 475.782 416.258 479.005 416.258C481.739 416.258 483.595 417.859 483.712 420.281H480.997C480.821 419.227 480.137 418.504 479.044 418.504C477.657 418.504 476.739 419.676 476.739 421.688C476.739 423.738 477.637 424.91 479.044 424.91C480.059 424.91 480.821 424.285 480.997 423.152H483.712C483.575 425.555 481.817 427.215 479.005 427.215ZM490.495 416.395V418.562H488.502V423.738C488.502 424.578 488.912 424.793 489.498 424.812C489.791 424.812 490.299 424.793 490.651 424.754V427.039C490.338 427.098 489.83 427.137 489.108 427.137C487.018 427.137 485.592 426.199 485.612 424.148V418.562H484.147V416.395H485.612V413.855H488.502V416.395H490.495ZM491.711 427V416.395H494.602V427H491.711ZM493.156 415.008C492.277 415.008 491.574 414.344 491.574 413.543C491.574 412.723 492.277 412.059 493.156 412.059C494.016 412.059 494.719 412.723 494.719 413.543C494.719 414.344 494.016 415.008 493.156 415.008ZM501.013 427.215C497.81 427.215 495.818 425.008 495.818 421.727C495.818 418.445 497.81 416.258 501.013 416.258C504.216 416.258 506.228 418.445 506.228 421.727C506.228 425.008 504.216 427.215 501.013 427.215ZM501.033 424.969C502.517 424.969 503.279 423.582 503.279 421.727C503.279 419.852 502.517 418.465 501.033 418.465C499.529 418.465 498.748 419.852 498.748 421.727C498.748 423.582 499.529 424.969 501.033 424.969ZM510.335 420.867V427H507.445V416.395H510.198V418.25H510.316C510.804 417.02 511.937 416.258 513.499 416.258C515.706 416.258 517.171 417.762 517.152 420.242V427H514.28V420.75C514.28 419.441 513.558 418.66 512.366 418.66C511.155 418.66 510.335 419.461 510.335 420.867Z" fill="black"/>
<path d="M209.086 559.988V545.848H212.015V557.566H218.109V559.988H209.086ZM224.111 560.203C220.907 560.203 218.915 557.996 218.915 554.715C218.915 551.434 220.907 549.246 224.111 549.246C227.314 549.246 229.325 551.434 229.325 554.715C229.325 557.996 227.314 560.203 224.111 560.203ZM224.13 557.957C225.614 557.957 226.376 556.57 226.376 554.715C226.376 552.84 225.614 551.453 224.13 551.453C222.626 551.453 221.845 552.84 221.845 554.715C221.845 556.57 222.626 557.957 224.13 557.957ZM235.307 560.203C232.065 560.203 230.112 557.957 230.112 554.715C230.112 551.473 232.085 549.246 235.307 549.246C238.042 549.246 239.897 550.848 240.014 553.27H237.3C237.124 552.215 236.44 551.492 235.346 551.492C233.96 551.492 233.042 552.664 233.042 554.676C233.042 556.727 233.94 557.898 235.346 557.898C236.362 557.898 237.124 557.273 237.3 556.141H240.014C239.878 558.543 238.12 560.203 235.307 560.203ZM240.704 557.02C240.704 554.656 242.618 553.875 244.649 553.758C245.411 553.709 246.836 553.641 247.286 553.621V552.762C247.266 551.883 246.661 551.355 245.586 551.355C244.61 551.355 243.985 551.805 243.829 552.527H241.075C241.25 550.691 242.852 549.246 245.664 549.246C247.969 549.246 250.157 550.281 250.157 552.84V559.988H247.422V558.523H247.344C246.817 559.5 245.821 560.184 244.239 560.184C242.207 560.184 240.704 559.129 240.704 557.02ZM243.477 556.941C243.477 557.762 244.141 558.191 245.059 558.191C246.368 558.191 247.305 557.312 247.286 556.199V555.418C246.846 555.438 245.616 555.506 245.118 555.555C244.121 555.652 243.477 556.121 243.477 556.941ZM257.35 549.383V551.551H255.357V556.727C255.357 557.566 255.768 557.781 256.354 557.801C256.646 557.801 257.154 557.781 257.506 557.742V560.027C257.193 560.086 256.686 560.125 255.963 560.125C253.873 560.125 252.447 559.188 252.467 557.137V551.551H251.002V549.383H252.467V546.844H255.357V549.383H257.35ZM258.566 559.988V549.383H261.457V559.988H258.566ZM260.011 547.996C259.132 547.996 258.429 547.332 258.429 546.531C258.429 545.711 259.132 545.047 260.011 545.047C260.871 545.047 261.574 545.711 261.574 546.531C261.574 547.332 260.871 547.996 260.011 547.996ZM267.868 560.203C264.665 560.203 262.673 557.996 262.673 554.715C262.673 551.434 264.665 549.246 267.868 549.246C271.071 549.246 273.083 551.434 273.083 554.715C273.083 557.996 271.071 560.203 267.868 560.203ZM267.888 557.957C269.372 557.957 270.134 556.57 270.134 554.715C270.134 552.84 269.372 551.453 267.888 551.453C266.384 551.453 265.603 552.84 265.603 554.715C265.603 556.57 266.384 557.957 267.888 557.957ZM277.19 553.855V559.988H274.3V549.383H277.054V551.238H277.171C277.659 550.008 278.792 549.246 280.354 549.246C282.561 549.246 284.026 550.75 284.007 553.23V559.988H281.136V553.738C281.136 552.43 280.413 551.648 279.221 551.648C278.011 551.648 277.19 552.449 277.19 553.855ZM289.721 559.988V545.848H295.268C298.49 545.848 300.326 547.664 300.326 550.457C300.326 552.391 299.438 553.797 297.826 554.48L300.834 559.988H297.592L294.896 554.969H292.65V559.988H289.721ZM292.65 552.586H294.721C296.459 552.586 297.299 551.863 297.299 550.457C297.299 549.031 296.459 548.25 294.721 548.25H292.65V552.586ZM306.328 560.203C303.086 560.203 301.093 558.094 301.093 554.734C301.093 551.453 303.105 549.246 306.211 549.246C309.004 549.246 311.191 551.004 311.191 554.617V555.438H303.945C303.945 557.039 304.902 558.035 306.386 558.035C307.363 558.035 308.066 557.605 308.359 556.961H311.113C310.703 558.914 308.945 560.203 306.328 560.203ZM303.945 553.621H308.457C308.457 552.332 307.558 551.414 306.269 551.414C304.941 551.414 303.994 552.4 303.945 553.621ZM317.173 560.203C313.931 560.203 311.978 557.957 311.978 554.715C311.978 551.473 313.95 549.246 317.173 549.246C319.907 549.246 321.763 550.848 321.88 553.27H319.165C318.989 552.215 318.306 551.492 317.212 551.492C315.825 551.492 314.907 552.664 314.907 554.676C314.907 556.727 315.806 557.898 317.212 557.898C318.228 557.898 318.989 557.273 319.165 556.141H321.88C321.743 558.543 319.986 560.203 317.173 560.203ZM324.776 560.164C323.858 560.164 323.116 559.422 323.136 558.523C323.116 557.625 323.858 556.902 324.776 556.902C325.636 556.902 326.397 557.625 326.397 558.523C326.397 559.422 325.636 560.164 324.776 560.164Z" fill="black"/>
<path d="M367.803 689V674.859H373.35C376.573 674.859 378.409 676.832 378.409 679.625C378.409 682.457 376.534 684.391 373.272 684.391H370.733V689H367.803ZM370.733 682.027H372.803C374.541 682.027 375.381 681.051 375.381 679.625C375.381 678.219 374.541 677.262 372.803 677.262H370.733V682.027ZM386.402 684.488V678.395H389.293V689H386.52V687.086H386.402C385.914 688.316 384.781 689.137 383.18 689.137C381.051 689.137 379.605 687.633 379.605 685.152V678.395H382.496V684.645C382.496 685.895 383.219 686.695 384.352 686.695C385.406 686.695 386.402 685.934 386.402 684.488ZM396.525 678.395V680.562H394.533V685.738C394.533 686.578 394.943 686.793 395.529 686.812C395.822 686.812 396.33 686.793 396.681 686.754V689.039C396.369 689.098 395.861 689.137 395.138 689.137C393.048 689.137 391.623 688.199 391.642 686.148V680.562H390.177V678.395H391.642V675.855H394.533V678.395H396.525ZM397.234 686.031C397.234 683.668 399.148 682.887 401.179 682.77C401.941 682.721 403.366 682.652 403.816 682.633V681.773C403.796 680.895 403.191 680.367 402.116 680.367C401.14 680.367 400.515 680.816 400.359 681.539H397.605C397.78 679.703 399.382 678.258 402.195 678.258C404.499 678.258 406.687 679.293 406.687 681.852V689H403.952V687.535H403.874C403.347 688.512 402.351 689.195 400.769 689.195C398.737 689.195 397.234 688.141 397.234 686.031ZM400.007 685.953C400.007 686.773 400.671 687.203 401.589 687.203C402.898 687.203 403.835 686.324 403.816 685.211V684.43C403.376 684.449 402.146 684.518 401.648 684.566C400.652 684.664 400.007 685.133 400.007 685.953ZM410.384 689L407.493 678.395H410.423L412.083 685.562H412.18L413.919 678.395H416.79L418.548 685.523H418.645L420.286 678.395H423.216L420.305 689H417.259L415.423 682.262H415.286L413.45 689H410.384ZM423.573 686.031C423.573 683.668 425.487 682.887 427.518 682.77C428.28 682.721 429.705 682.652 430.155 682.633V681.773C430.135 680.895 429.53 680.367 428.455 680.367C427.479 680.367 426.854 680.816 426.698 681.539H423.944C424.12 679.703 425.721 678.258 428.534 678.258C430.838 678.258 433.026 679.293 433.026 681.852V689H430.291V687.535H430.213C429.686 688.512 428.69 689.195 427.108 689.195C425.077 689.195 423.573 688.141 423.573 686.031ZM426.346 685.953C426.346 686.773 427.01 687.203 427.928 687.203C429.237 687.203 430.174 686.324 430.155 685.211V684.43C429.715 684.449 428.485 684.518 427.987 684.566C426.991 684.664 426.346 685.133 426.346 685.953ZM435.941 692.984C435.375 692.984 434.848 692.965 434.477 692.926V690.68C434.848 690.699 435.277 690.719 435.648 690.719C436.215 690.719 436.684 690.66 437.035 689.742L437.211 689.293L433.402 678.395H436.43L438.656 686.207H438.773L441.02 678.395H444.086L439.945 690.172C439.34 691.871 438.188 692.984 435.941 692.984ZM458.413 679.781C458.179 678.219 456.968 677.262 455.327 677.262C453.12 677.262 451.675 678.961 451.675 681.93C451.675 684.977 453.14 686.598 455.308 686.598C456.929 686.598 458.12 685.699 458.413 684.176L461.382 684.195C461.05 686.812 458.862 689.195 455.269 689.195C451.48 689.195 448.687 686.539 448.687 681.93C448.687 677.32 451.538 674.664 455.269 674.664C458.53 674.664 460.991 676.539 461.382 679.781H458.413ZM467.54 689.215C464.337 689.215 462.345 687.008 462.345 683.727C462.345 680.445 464.337 678.258 467.54 678.258C470.743 678.258 472.755 680.445 472.755 683.727C472.755 687.008 470.743 689.215 467.54 689.215ZM467.559 686.969C469.044 686.969 469.805 685.582 469.805 683.727C469.805 681.852 469.044 680.465 467.559 680.465C466.055 680.465 465.274 681.852 465.274 683.727C465.274 685.582 466.055 686.969 467.559 686.969ZM476.862 682.867V689H473.971V678.395H476.725V680.25H476.842C477.33 679.02 478.463 678.258 480.026 678.258C482.233 678.258 483.698 679.762 483.678 682.242V689H480.807V682.75C480.807 681.441 480.084 680.66 478.893 680.66C477.682 680.66 476.862 681.461 476.862 682.867ZM490.969 678.395V680.562H488.859V689H485.969V680.562H484.465V678.395H485.969V677.594C485.969 675.367 487.316 674.195 489.445 674.195C490.109 674.195 490.656 674.254 491.164 674.371V676.559C490.754 676.52 490.441 676.5 490.285 676.5C489.348 676.5 488.859 676.871 488.859 677.75V678.395H490.969ZM492.654 689.176C491.736 689.176 490.994 688.434 491.013 687.535C490.994 686.637 491.736 685.914 492.654 685.914C493.513 685.914 494.275 686.637 494.275 687.535C494.275 688.434 493.513 689.176 492.654 689.176Z" fill="black"/>
<path d="M47.6098 689V674.859H50.5395V686.578H56.6332V689H47.6098ZM62.6348 689.215C59.4316 689.215 57.4395 687.008 57.4395 683.727C57.4395 680.445 59.4316 678.258 62.6348 678.258C65.8379 678.258 67.8496 680.445 67.8496 683.727C67.8496 687.008 65.8379 689.215 62.6348 689.215ZM62.6543 686.969C64.1387 686.969 64.9004 685.582 64.9004 683.727C64.9004 681.852 64.1387 680.465 62.6543 680.465C61.1504 680.465 60.3691 681.852 60.3691 683.727C60.3691 685.582 61.1504 686.969 62.6543 686.969ZM73.8316 689.215C70.5895 689.215 68.6363 686.969 68.6363 683.727C68.6363 680.484 70.609 678.258 73.8316 678.258C76.566 678.258 78.4215 679.859 78.5387 682.281H75.8238C75.648 681.227 74.9645 680.504 73.8707 680.504C72.484 680.504 71.566 681.676 71.566 683.688C71.566 685.738 72.4645 686.91 73.8707 686.91C74.8863 686.91 75.648 686.285 75.8238 685.152H78.5387C78.402 687.555 76.6441 689.215 73.8316 689.215ZM79.2277 686.031C79.2277 683.668 81.1418 682.887 83.173 682.77C83.9348 682.721 85.3605 682.652 85.8098 682.633V681.773C85.7902 680.895 85.1848 680.367 84.1105 680.367C83.134 680.367 82.509 680.816 82.3527 681.539H79.5988C79.7746 679.703 81.3762 678.258 84.1887 678.258C86.4934 678.258 88.6809 679.293 88.6809 681.852V689H85.9465V687.535H85.8684C85.341 688.512 84.3449 689.195 82.7629 689.195C80.7316 689.195 79.2277 688.141 79.2277 686.031ZM82.0012 685.953C82.0012 686.773 82.6652 687.203 83.5832 687.203C84.8918 687.203 85.8293 686.324 85.8098 685.211V684.43C85.3703 684.449 84.1398 684.518 83.6418 684.566C82.6457 684.664 82.0012 685.133 82.0012 685.953ZM95.8738 678.395V680.562H93.8816V685.738C93.8816 686.578 94.2918 686.793 94.8777 686.812C95.1707 686.812 95.6785 686.793 96.0301 686.754V689.039C95.7176 689.098 95.2098 689.137 94.4871 689.137C92.3973 689.137 90.9715 688.199 90.991 686.148V680.562H89.5262V678.395H90.991V675.855H93.8816V678.395H95.8738ZM97.0902 689V678.395H99.9809V689H97.0902ZM98.5355 677.008C97.6566 677.008 96.9535 676.344 96.9535 675.543C96.9535 674.723 97.6566 674.059 98.5355 674.059C99.3949 674.059 100.098 674.723 100.098 675.543C100.098 676.344 99.3949 677.008 98.5355 677.008ZM106.393 689.215C103.189 689.215 101.197 687.008 101.197 683.727C101.197 680.445 103.189 678.258 106.393 678.258C109.596 678.258 111.607 680.445 111.607 683.727C111.607 687.008 109.596 689.215 106.393 689.215ZM106.412 686.969C107.896 686.969 108.658 685.582 108.658 683.727C108.658 681.852 107.896 680.465 106.412 680.465C104.908 680.465 104.127 681.852 104.127 683.727C104.127 685.582 104.908 686.969 106.412 686.969ZM115.714 682.867V689H112.824V678.395H115.578V680.25H115.695C116.183 679.02 117.316 678.258 118.879 678.258C121.086 678.258 122.55 679.762 122.531 682.242V689H119.66V682.75C119.66 681.441 118.937 680.66 117.746 680.66C116.535 680.66 115.714 681.461 115.714 682.867ZM128.245 674.859H131.878L135.804 684.449H135.96L139.886 674.859H143.518V689H140.667V679.742H140.55L136.858 688.941H134.905L131.214 679.703H131.096V689H128.245V674.859ZM150.008 689.215C146.805 689.215 144.813 687.008 144.813 683.727C144.813 680.445 146.805 678.258 150.008 678.258C153.211 678.258 155.223 680.445 155.223 683.727C155.223 687.008 153.211 689.215 150.008 689.215ZM150.028 686.969C151.512 686.969 152.274 685.582 152.274 683.727C152.274 681.852 151.512 680.465 150.028 680.465C148.524 680.465 147.743 681.852 147.743 683.727C147.743 685.582 148.524 686.969 150.028 686.969ZM165.932 678.395L162.201 689H158.959L155.248 678.395H158.295L160.521 686.012H160.639L162.865 678.395H165.932ZM171.191 689.215C167.949 689.215 165.957 687.105 165.957 683.746C165.957 680.465 167.968 678.258 171.074 678.258C173.867 678.258 176.054 680.016 176.054 683.629V684.449H168.808C168.808 686.051 169.765 687.047 171.25 687.047C172.226 687.047 172.929 686.617 173.222 685.973H175.976C175.566 687.926 173.808 689.215 171.191 689.215ZM168.808 682.633H173.32C173.32 681.344 172.421 680.426 171.132 680.426C169.804 680.426 168.857 681.412 168.808 682.633Z" fill="black"/>
<path d="M582.895 299V284.859H592.387V287.281H585.824V290.719H591.898V293.141H585.824V296.578H592.406V299H582.895ZM596.416 288.395L598.388 292.125L600.4 288.395H603.388L600.283 293.688L603.466 299H600.498L598.388 295.309L596.318 299H593.31L596.474 293.688L593.427 288.395H596.416ZM608.804 299.215C605.562 299.215 603.609 296.969 603.609 293.727C603.609 290.484 605.581 288.258 608.804 288.258C611.538 288.258 613.394 289.859 613.511 292.281H610.796C610.62 291.227 609.937 290.504 608.843 290.504C607.456 290.504 606.538 291.676 606.538 293.688C606.538 295.738 607.437 296.91 608.843 296.91C609.859 296.91 610.62 296.285 610.796 295.152H613.511C613.374 297.555 611.616 299.215 608.804 299.215ZM619.513 299.215C616.27 299.215 614.278 297.105 614.278 293.746C614.278 290.465 616.29 288.258 619.395 288.258C622.188 288.258 624.376 290.016 624.376 293.629V294.449H617.13C617.13 296.051 618.087 297.047 619.571 297.047C620.548 297.047 621.251 296.617 621.544 295.973H624.298C623.888 297.926 622.13 299.215 619.513 299.215ZM617.13 292.633H621.641C621.641 291.344 620.743 290.426 619.454 290.426C618.126 290.426 617.179 291.412 617.13 292.633ZM625.592 302.984V288.395H628.444V290.172H628.561C628.952 289.312 629.811 288.258 631.588 288.258C633.932 288.258 635.885 290.074 635.885 293.707C635.885 297.242 634.01 299.176 631.588 299.176C629.85 299.176 628.971 298.18 628.561 297.301H628.483V302.984H625.592ZM628.424 293.688C628.424 295.602 629.245 296.871 630.67 296.871C632.155 296.871 632.936 295.562 632.936 293.688C632.936 291.832 632.155 290.562 630.67 290.562C629.225 290.562 628.424 291.773 628.424 293.688ZM642.746 288.395V290.562H640.754V295.738C640.754 296.578 641.164 296.793 641.75 296.812C642.043 296.812 642.551 296.793 642.902 296.754V299.039C642.59 299.098 642.082 299.137 641.359 299.137C639.27 299.137 637.844 298.199 637.863 296.148V290.562H636.398V288.395H637.863V285.855H640.754V288.395H642.746ZM643.963 299V288.395H646.853V299H643.963ZM645.408 287.008C644.529 287.008 643.826 286.344 643.826 285.543C643.826 284.723 644.529 284.059 645.408 284.059C646.267 284.059 646.97 284.723 646.97 285.543C646.97 286.344 646.267 287.008 645.408 287.008ZM653.265 299.215C650.062 299.215 648.07 297.008 648.07 293.727C648.07 290.445 650.062 288.258 653.265 288.258C656.468 288.258 658.48 290.445 658.48 293.727C658.48 297.008 656.468 299.215 653.265 299.215ZM653.284 296.969C654.769 296.969 655.53 295.582 655.53 293.727C655.53 291.852 654.769 290.465 653.284 290.465C651.78 290.465 650.999 291.852 650.999 293.727C650.999 295.582 651.78 296.969 653.284 296.969ZM662.587 292.867V299H659.696V288.395H662.45V290.25H662.567C663.055 289.02 664.188 288.258 665.751 288.258C667.958 288.258 669.423 289.762 669.403 292.242V299H666.532V292.75C666.532 291.441 665.809 290.66 664.618 290.66C663.407 290.66 662.587 291.461 662.587 292.867ZM675.117 299V284.859H678.047V290.719H684.18V284.859H687.129V299H684.18V293.141H678.047V299H675.117ZM688.345 296.031C688.345 293.668 690.259 292.887 692.291 292.77C693.052 292.721 694.478 292.652 694.927 292.633V291.773C694.908 290.895 694.302 290.367 693.228 290.367C692.252 290.367 691.627 290.816 691.47 291.539H688.716C688.892 289.703 690.494 288.258 693.306 288.258C695.611 288.258 697.798 289.293 697.798 291.852V299H695.064V297.535H694.986C694.459 298.512 693.463 299.195 691.88 299.195C689.849 299.195 688.345 298.141 688.345 296.031ZM691.119 295.953C691.119 296.773 691.783 297.203 692.701 297.203C694.009 297.203 694.947 296.324 694.927 295.211V294.43C694.488 294.449 693.257 294.518 692.759 294.566C691.763 294.664 691.119 295.133 691.119 295.953ZM702.296 292.867V299H699.405V288.395H702.159V290.25H702.277C702.765 289.02 703.898 288.258 705.46 288.258C707.667 288.258 709.132 289.762 709.113 292.242V299H706.241V292.75C706.241 291.441 705.519 290.66 704.327 290.66C703.116 290.66 702.296 291.461 702.296 292.867ZM714.665 299.176C712.243 299.176 710.348 297.242 710.348 293.707C710.348 290.074 712.321 288.258 714.665 288.258C716.442 288.258 717.282 289.312 717.673 290.172H717.77V284.859H720.661V299H717.809V297.301H717.673C717.262 298.18 716.384 299.176 714.665 299.176ZM715.563 296.871C717.009 296.871 717.829 295.602 717.829 293.688C717.829 291.773 717.009 290.562 715.563 290.562C714.098 290.562 713.317 291.832 713.317 293.688C713.317 295.562 714.098 296.871 715.563 296.871ZM725.276 284.859V299H722.385V284.859H725.276ZM726.922 299V288.395H729.812V299H726.922ZM728.367 287.008C727.488 287.008 726.785 286.344 726.785 285.543C726.785 284.723 727.488 284.059 728.367 284.059C729.227 284.059 729.93 284.723 729.93 285.543C729.93 286.344 729.227 287.008 728.367 287.008ZM734.349 292.867V299H731.459V288.395H734.212V290.25H734.33C734.818 289.02 735.951 288.258 737.513 288.258C739.72 288.258 741.185 289.762 741.166 292.242V299H738.295V292.75C738.295 291.441 737.572 290.66 736.38 290.66C735.17 290.66 734.349 291.461 734.349 292.867ZM747.577 303.199C744.648 303.199 742.851 301.891 742.675 299.879H745.527C745.683 300.719 746.484 301.109 747.636 301.109C748.984 301.109 749.882 300.543 749.882 299.059V297.125H749.745C749.355 297.984 748.417 298.844 746.718 298.844C744.316 298.844 742.402 297.164 742.402 293.629C742.402 290.035 744.374 288.258 746.718 288.258C748.495 288.258 749.355 289.312 749.745 290.172H749.863V288.395H752.734V299.117C752.734 301.812 750.585 303.199 747.577 303.199ZM747.616 296.676C749.062 296.676 749.882 295.543 749.882 293.668C749.882 291.773 749.062 290.562 747.616 290.562C746.152 290.562 745.37 291.832 745.37 293.668C745.37 295.504 746.152 296.676 747.616 296.676Z" fill="black"/>
<path d="M500.191 67V52.8594H505.738C508.961 52.8594 510.797 54.6758 510.797 57.4688C510.797 59.4023 509.908 60.8086 508.297 61.4922L511.305 67H508.062L505.367 61.9805H503.121V67H500.191ZM503.121 59.5977H505.191C506.93 59.5977 507.77 58.875 507.77 57.4688C507.77 56.043 506.93 55.2617 505.191 55.2617H503.121V59.5977ZM516.798 67.2148C513.556 67.2148 511.564 65.1055 511.564 61.7461C511.564 58.4648 513.576 56.2578 516.681 56.2578C519.474 56.2578 521.662 58.0156 521.662 61.6289V62.4492H514.416C514.416 64.0508 515.373 65.0469 516.857 65.0469C517.834 65.0469 518.537 64.6172 518.83 63.9727H521.584C521.173 65.9258 519.416 67.2148 516.798 67.2148ZM514.416 60.6328H518.927C518.927 59.3438 518.029 58.4258 516.74 58.4258C515.412 58.4258 514.464 59.4121 514.416 60.6328ZM527.644 67.2148C524.402 67.2148 522.448 64.9688 522.448 61.7266C522.448 58.4844 524.421 56.2578 527.644 56.2578C530.378 56.2578 532.234 57.8594 532.351 60.2812H529.636C529.46 59.2266 528.777 58.5039 527.683 58.5039C526.296 58.5039 525.378 59.6758 525.378 61.6875C525.378 63.7383 526.277 64.9102 527.683 64.9102C528.698 64.9102 529.46 64.2852 529.636 63.1523H532.351C532.214 65.5547 530.456 67.2148 527.644 67.2148ZM538.352 67.2148C535.11 67.2148 533.118 65.1055 533.118 61.7461C533.118 58.4648 535.13 56.2578 538.235 56.2578C541.028 56.2578 543.216 58.0156 543.216 61.6289V62.4492H535.97C535.97 64.0508 536.927 65.0469 538.411 65.0469C539.388 65.0469 540.091 64.6172 540.384 63.9727H543.138C542.727 65.9258 540.97 67.2148 538.352 67.2148ZM535.97 60.6328H540.481C540.481 59.3438 539.583 58.4258 538.294 58.4258C536.966 58.4258 536.018 59.4121 535.97 60.6328ZM544.432 67V56.3945H547.323V67H544.432ZM545.877 55.0078C544.998 55.0078 544.295 54.3438 544.295 53.543C544.295 52.7227 544.998 52.0586 545.877 52.0586C546.737 52.0586 547.44 52.7227 547.44 53.543C547.44 54.3438 546.737 55.0078 545.877 55.0078ZM558.812 56.3945L555.082 67H551.84L548.129 56.3945H551.176L553.402 64.0117H553.52L555.746 56.3945H558.812ZM559.619 67V56.3945H562.509V67H559.619ZM561.064 55.0078C560.185 55.0078 559.482 54.3438 559.482 53.543C559.482 52.7227 560.185 52.0586 561.064 52.0586C561.923 52.0586 562.627 52.7227 562.627 53.543C562.627 54.3438 561.923 55.0078 561.064 55.0078ZM567.046 60.8672V67H564.155V56.3945H566.909V58.25H567.027C567.515 57.0195 568.648 56.2578 570.21 56.2578C572.417 56.2578 573.882 57.7617 573.863 60.2422V67H570.991V60.75C570.991 59.4414 570.269 58.6602 569.077 58.6602C567.866 58.6602 567.046 59.4609 567.046 60.8672ZM580.274 71.1992C577.345 71.1992 575.548 69.8906 575.372 67.8789H578.223C578.38 68.7188 579.18 69.1094 580.333 69.1094C581.68 69.1094 582.579 68.543 582.579 67.0586V65.125H582.442C582.052 65.9844 581.114 66.8438 579.415 66.8438C577.012 66.8438 575.098 65.1641 575.098 61.6289C575.098 58.0352 577.071 56.2578 579.415 56.2578C581.192 56.2578 582.052 57.3125 582.442 58.1719H582.559V56.3945H585.43V67.1172C585.43 69.8125 583.282 71.1992 580.274 71.1992ZM580.313 64.6758C581.759 64.6758 582.579 63.543 582.579 61.668C582.579 59.7734 581.759 58.5625 580.313 58.5625C578.848 58.5625 578.067 59.832 578.067 61.668C578.067 63.5039 578.848 64.6758 580.313 64.6758ZM604.094 59.9297C604.094 64.5391 601.223 67.1953 597.492 67.1953C593.723 67.1953 590.871 64.5195 590.871 59.9297C590.871 55.3203 593.723 52.6641 597.492 52.6641C601.223 52.6641 604.094 55.3203 604.094 59.9297ZM601.105 59.9297C601.105 56.9023 599.68 55.2617 597.492 55.2617C595.305 55.2617 593.859 56.9023 593.859 59.9297C593.859 62.957 595.305 64.5977 597.492 64.5977C599.68 64.5977 601.105 62.957 601.105 59.9297ZM605.545 67V56.3945H608.338V58.2305H608.455C608.845 56.9219 609.822 56.2383 611.013 56.2383C611.306 56.2383 611.677 56.2773 611.931 56.3359V58.9141C611.658 58.8359 611.111 58.7578 610.701 58.7578C609.392 58.7578 608.435 59.6758 608.435 60.9648V67H605.545ZM616.312 67.1758C613.89 67.1758 611.995 65.2422 611.995 61.707C611.995 58.0742 613.968 56.2578 616.312 56.2578C618.089 56.2578 618.929 57.3125 619.32 58.1719H619.417V52.8594H622.308V67H619.456V65.3008H619.32C618.909 66.1797 618.03 67.1758 616.312 67.1758ZM617.21 64.8711C618.655 64.8711 619.476 63.6016 619.476 61.6875C619.476 59.7734 618.655 58.5625 617.21 58.5625C615.745 58.5625 614.964 59.832 614.964 61.6875C614.964 63.5625 615.745 64.8711 617.21 64.8711ZM628.837 67.2148C625.595 67.2148 623.602 65.1055 623.602 61.7461C623.602 58.4648 625.614 56.2578 628.72 56.2578C631.512 56.2578 633.7 58.0156 633.7 61.6289V62.4492H626.454C626.454 64.0508 627.411 65.0469 628.895 65.0469C629.872 65.0469 630.575 64.6172 630.868 63.9727H633.622C633.212 65.9258 631.454 67.2148 628.837 67.2148ZM626.454 60.6328H630.966C630.966 59.3438 630.067 58.4258 628.778 58.4258C627.45 58.4258 626.503 59.4121 626.454 60.6328ZM634.916 67V56.3945H637.709V58.2305H637.827C638.217 56.9219 639.194 56.2383 640.385 56.2383C640.678 56.2383 641.049 56.2773 641.303 56.3359V58.9141C641.03 58.8359 640.483 58.7578 640.073 58.7578C638.764 58.7578 637.807 59.6758 637.807 60.9648V67H634.916Z" fill="black"/>
<path d="M426.359 335V335C426.359 312.909 444.268 295 466.359 295H494.359" stroke="#DADDE6" stroke-width="6" stroke-dasharray="8 8"/>
<rect x="383" y="312" width="84" height="84" rx="42" fill="#336DFF"/>
<mask id="path-22-inside-1_127_750" fill="white">
<rect x="407.992" y="333.941" width="34.0078" height="41.5454" rx="2"/>
</mask>
<rect x="407.992" y="333.941" width="34.0078" height="41.5454" rx="2" fill="white" stroke="white" stroke-width="6" mask="url(#path-22-inside-1_127_750)"/>
<path d="M414.602 345.152L417.016 347.251L421.214 343.367" stroke="#336DFF" stroke-width="3"/>
<path d="M414.602 355.027L417.016 357.126L421.214 353.242" stroke="#336DFF" stroke-width="3"/>
<path d="M414.602 365.011L417.016 367.11L421.214 363.227" stroke="#336DFF" stroke-width="3"/>
<path d="M426.258 343.266H435.075" stroke="#336DFF" stroke-width="3"/>
<path d="M426.258 353.141H435.075" stroke="#336DFF" stroke-width="3"/>
<path d="M426.258 363.121H435.075" stroke="#336DFF" stroke-width="3"/>
<rect x="227.18" y="444.988" width="84" height="84" rx="42" fill="#336DFF"/>
<path d="M258.567 485.551H252.102C251.494 485.551 251 486.038 251 486.639V509.572C251 510.173 251.494 510.661 252.102 510.661H258.567C259.176 510.661 259.669 510.173 259.669 509.572V486.639C259.669 486.038 259.176 485.551 258.567 485.551Z" fill="white"/>
<path d="M259.668 508.266C259.668 508.266 262.196 511.301 265.375 511.301H282.698C282.698 511.301 285.681 510.794 285.681 508.266C285.681 505.738 283.726 504.881 283.726 504.881C283.726 504.881 286.761 504.738 286.761 501.885C286.761 499.031 284.449 498.603 284.449 498.603C284.449 498.603 287.916 498.603 287.916 495.75C287.916 492.897 285.171 492.326 285.171 492.326C285.171 492.326 288.928 492.611 288.928 489.187C288.928 485.763 283.582 486.048 283.582 486.048L273.179 486.027V476.063C272.675 473.087 269.832 472.516 268.148 472.446C267.463 472.418 266.892 472.96 266.892 473.638V480.7L263.159 487.263H259.234" stroke="white" stroke-width="2" stroke-linecap="round" stroke-linejoin="round"/>
<path d="M279.25 492.328H285.174" stroke="white" stroke-width="2" stroke-linecap="round" stroke-linejoin="round"/>
<path d="M279.32 498.602H284.666" stroke="white" stroke-width="2" stroke-linecap="round" stroke-linejoin="round"/>
<path d="M279.32 504.883H283.944" stroke="white" stroke-width="2" stroke-linecap="round" stroke-linejoin="round"/>
<path d="M268.883 458.385C269.276 457.683 270.294 457.707 270.652 458.427L271.769 460.673C271.907 460.951 272.166 461.149 272.47 461.209L274.931 461.696C275.72 461.852 276.011 462.828 275.437 463.391L273.646 465.147C273.425 465.364 273.317 465.672 273.353 465.98L273.651 468.47C273.746 469.269 272.908 469.847 272.195 469.475L269.971 468.315C269.696 468.171 269.371 468.164 269.089 468.294L266.812 469.346C266.082 469.684 265.273 469.065 265.406 468.273L265.823 465.799C265.874 465.493 265.781 465.181 265.57 464.953L263.866 463.113C263.319 462.523 263.657 461.562 264.453 461.444L266.934 461.076C267.241 461.031 267.509 460.845 267.66 460.575L268.883 458.385Z" fill="white"/>
<path d="M253.579 466.631C253.971 465.929 254.989 465.953 255.347 466.673L256.464 468.919C256.602 469.197 256.861 469.395 257.165 469.455L259.626 469.942C260.415 470.098 260.706 471.074 260.132 471.637L258.341 473.393C258.12 473.61 258.012 473.918 258.049 474.226L258.346 476.716C258.441 477.515 257.603 478.094 256.89 477.722L254.667 476.561C254.392 476.418 254.066 476.41 253.784 476.54L251.507 477.592C250.778 477.93 249.968 477.312 250.102 476.519L250.518 474.045C250.57 473.739 250.476 473.427 250.266 473.199L248.561 471.359C248.015 470.769 248.353 469.808 249.148 469.69L251.629 469.322C251.936 469.277 252.204 469.091 252.355 468.821L253.579 466.631Z" fill="white"/>
<path d="M286.157 466.631C286.549 465.929 287.567 465.953 287.925 466.673L289.042 468.919C289.18 469.197 289.439 469.395 289.744 469.455L292.204 469.942C292.993 470.098 293.285 471.074 292.711 471.637L290.92 473.393C290.698 473.61 290.59 473.918 290.627 474.226L290.924 476.716C291.02 477.515 290.181 478.094 289.469 477.722L287.245 476.561C286.97 476.418 286.644 476.41 286.362 476.54L284.086 477.592C283.356 477.93 282.546 477.312 282.68 476.519L283.096 474.045C283.148 473.739 283.055 473.427 282.844 473.199L281.139 471.359C280.593 470.769 280.931 469.808 281.726 469.69L284.207 469.322C284.514 469.277 284.782 469.091 284.933 468.821L286.157 466.631Z" fill="white"/>
<rect x="388.18" y="574" width="84" height="84" rx="42" fill="#336DFF"/>
<path d="M430.177 594.938C420.475 594.938 412.609 602.747 412.609 612.382C412.609 622.54 425.13 633.137 429.031 636.192C429.708 636.722 430.646 636.722 431.323 636.192C435.224 633.137 447.745 622.54 447.745 612.382C447.745 602.747 439.879 594.938 430.177 594.938ZM430.177 618.572C426.482 618.572 423.488 615.6 423.488 611.931C423.488 608.262 426.482 605.289 430.177 605.289C433.872 605.289 436.865 608.262 436.865 611.931C436.865 615.6 433.872 618.572 430.177 618.572Z" fill="white"/>
<rect x="68.7188" y="574" width="84" height="84" rx="42" fill="#336DFF"/>
<path d="M97.0652 593.719C91.7781 593.719 87.4922 597.975 87.4922 603.225C87.4922 609.782 97.0652 616.674 97.0652 616.674C97.0652 616.674 106.638 609.782 106.638 603.225C106.638 597.975 102.352 593.719 97.0652 593.719ZM97.0652 606.598C95.0516 606.598 93.4205 604.978 93.4205 602.979C93.4205 600.979 95.0516 599.36 97.0652 599.36C99.0788 599.36 100.71 600.979 100.71 602.979C100.71 604.978 99.0788 606.598 97.0652 606.598Z" fill="white"/>
<path d="M124.378 615.32C119.091 615.32 114.805 619.576 114.805 624.826C114.805 631.383 124.378 638.275 124.378 638.275C124.378 638.275 133.951 631.383 133.951 624.826C133.951 619.576 129.665 615.32 124.378 615.32ZM124.378 628.2C122.364 628.2 120.733 626.58 120.733 624.58C120.733 622.581 122.364 620.961 124.378 620.961C126.391 620.961 128.022 622.581 128.022 624.58C128.022 626.58 126.391 628.2 124.378 628.2Z" fill="white"/>
<path d="M103.379 611.195C108.046 611.779 116.979 614.395 115.379 620.195C113.379 627.445 99.4202 617.161 92.6294 626.445C85.1323 636.695 105.126 638.695 124.376 636.445" stroke="white" stroke-width="2" stroke-dasharray="2 2"/>
<rect x="484" y="249" width="84" height="84" rx="42" fill="#6E62FD"/>
<rect x="506.328" y="269.145" width="29.923" height="36.9985" rx="1" fill="white" stroke="white" stroke-width="2"/>
<path d="M511.539 278.667L513.805 280.638L517.746 276.992" stroke="#6E62FD" stroke-width="3"/>
<path d="M511.539 287.941L513.805 289.911L517.746 286.266" stroke="#6E62FD" stroke-width="3"/>
<path d="M522.469 276.895H530.745" stroke="#6E62FD" stroke-width="3"/>
<path d="M522.469 286.164H530.745" stroke="#6E62FD" stroke-width="3"/>
<circle cx="534.857" cy="302.04" r="12.6458" fill="#6E62FD" stroke="white" stroke-width="3"/>
<path d="M525.383 310.936L543.831 292.488" stroke="white" stroke-width="3"/>
<path d="M568.109 516.755C568.109 574.879 615.228 621.998 673.353 621.998C731.477 621.998 778.596 574.879 778.596 516.755C778.596 482.852 762.565 452.693 737.67 433.445" stroke="#DADDE6" stroke-width="6" stroke-dasharray="8 8"/>
<path d="M783.895 429V414.859H789.441C792.664 414.859 794.5 416.676 794.5 419.469C794.5 421.402 793.611 422.809 792 423.492L795.008 429H791.766L789.07 423.98H786.824V429H783.895ZM786.824 421.598H788.895C790.633 421.598 791.473 420.875 791.473 419.469C791.473 418.043 790.633 417.262 788.895 417.262H786.824V421.598ZM800.502 429.215C797.259 429.215 795.267 427.105 795.267 423.746C795.267 420.465 797.279 418.258 800.384 418.258C803.177 418.258 805.365 420.016 805.365 423.629V424.449H798.119C798.119 426.051 799.076 427.047 800.56 427.047C801.537 427.047 802.24 426.617 802.533 425.973H805.287C804.877 427.926 803.119 429.215 800.502 429.215ZM798.119 422.633H802.63C802.63 421.344 801.732 420.426 800.443 420.426C799.115 420.426 798.168 421.412 798.119 422.633ZM811.347 429.215C808.105 429.215 806.152 426.969 806.152 423.727C806.152 420.484 808.124 418.258 811.347 418.258C814.081 418.258 815.937 419.859 816.054 422.281H813.339C813.163 421.227 812.48 420.504 811.386 420.504C809.999 420.504 809.081 421.676 809.081 423.688C809.081 425.738 809.98 426.91 811.386 426.91C812.402 426.91 813.163 426.285 813.339 425.152H816.054C815.917 427.555 814.159 429.215 811.347 429.215ZM822.055 429.215C818.813 429.215 816.821 427.105 816.821 423.746C816.821 420.465 818.833 418.258 821.938 418.258C824.731 418.258 826.919 420.016 826.919 423.629V424.449H819.673C819.673 426.051 820.63 427.047 822.114 427.047C823.091 427.047 823.794 426.617 824.087 425.973H826.841C826.43 427.926 824.673 429.215 822.055 429.215ZM819.673 422.633H824.184C824.184 421.344 823.286 420.426 821.997 420.426C820.669 420.426 819.721 421.412 819.673 422.633ZM828.135 429V418.395H831.026V429H828.135ZM829.58 417.008C828.702 417.008 827.998 416.344 827.998 415.543C827.998 414.723 828.702 414.059 829.58 414.059C830.44 414.059 831.143 414.723 831.143 415.543C831.143 416.344 830.44 417.008 829.58 417.008ZM842.516 418.395L838.785 429H835.543L831.832 418.395H834.879L837.105 426.012H837.223L839.449 418.395H842.516ZM843.322 429V418.395H846.213V429H843.322ZM844.767 417.008C843.888 417.008 843.185 416.344 843.185 415.543C843.185 414.723 843.888 414.059 844.767 414.059C845.627 414.059 846.33 414.723 846.33 415.543C846.33 416.344 845.627 417.008 844.767 417.008ZM850.749 422.867V429H847.859V418.395H850.613V420.25H850.73C851.218 419.02 852.351 418.258 853.913 418.258C856.12 418.258 857.585 419.762 857.566 422.242V429H854.695V422.75C854.695 421.441 853.972 420.66 852.78 420.66C851.57 420.66 850.749 421.461 850.749 422.867ZM863.977 433.199C861.048 433.199 859.251 431.891 859.075 429.879H861.927C862.083 430.719 862.884 431.109 864.036 431.109C865.384 431.109 866.282 430.543 866.282 429.059V427.125H866.145C865.755 427.984 864.817 428.844 863.118 428.844C860.716 428.844 858.802 427.164 858.802 423.629C858.802 420.035 860.774 418.258 863.118 418.258C864.895 418.258 865.755 419.312 866.145 420.172H866.262V418.395H869.134V429.117C869.134 431.812 866.985 433.199 863.977 433.199ZM864.016 426.676C865.462 426.676 866.282 425.543 866.282 423.668C866.282 421.773 865.462 420.562 864.016 420.562C862.552 420.562 861.77 421.832 861.77 423.668C861.77 425.504 862.552 426.676 864.016 426.676ZM884.301 419.781C884.066 418.219 882.855 417.262 881.215 417.262C879.008 417.262 877.562 418.961 877.562 421.93C877.562 424.977 879.027 426.598 881.195 426.598C882.816 426.598 884.008 425.699 884.301 424.176L887.27 424.195C886.938 426.812 884.75 429.195 881.156 429.195C877.367 429.195 874.574 426.539 874.574 421.93C874.574 417.32 877.426 414.664 881.156 414.664C884.418 414.664 886.879 416.539 887.27 419.781H884.301ZM893.427 429.215C890.224 429.215 888.232 427.008 888.232 423.727C888.232 420.445 890.224 418.258 893.427 418.258C896.63 418.258 898.642 420.445 898.642 423.727C898.642 427.008 896.63 429.215 893.427 429.215ZM893.447 426.969C894.931 426.969 895.693 425.582 895.693 423.727C895.693 421.852 894.931 420.465 893.447 420.465C891.943 420.465 891.162 421.852 891.162 423.727C891.162 425.582 891.943 426.969 893.447 426.969ZM902.749 422.867V429H899.859V418.395H902.613V420.25H902.73C903.218 419.02 904.351 418.258 905.913 418.258C908.12 418.258 909.585 419.762 909.566 422.242V429H906.695V422.75C906.695 421.441 905.972 420.66 904.78 420.66C903.57 420.66 902.749 421.461 902.749 422.867ZM916.856 418.395V420.562H914.747V429H911.856V420.562H910.352V418.395H911.856V417.594C911.856 415.367 913.204 414.195 915.333 414.195C915.997 414.195 916.544 414.254 917.052 414.371V416.559C916.641 416.52 916.329 416.5 916.173 416.5C915.235 416.5 914.747 416.871 914.747 417.75V418.395H916.856ZM918.541 429.176C917.623 429.176 916.881 428.434 916.901 427.535C916.881 426.637 917.623 425.914 918.541 425.914C919.401 425.914 920.163 426.637 920.163 427.535C920.163 428.434 919.401 429.176 918.541 429.176Z" fill="black"/>
<path d="M769.191 623.594V609.453H772.121V621.172H778.215V623.594H769.191ZM778.943 620.625C778.943 618.262 780.857 617.48 782.888 617.363C783.65 617.314 785.076 617.246 785.525 617.227V616.367C785.505 615.488 784.9 614.961 783.826 614.961C782.849 614.961 782.224 615.41 782.068 616.133H779.314C779.49 614.297 781.091 612.852 783.904 612.852C786.209 612.852 788.396 613.887 788.396 616.445V623.594H785.662V622.129H785.584C785.056 623.105 784.06 623.789 782.478 623.789C780.447 623.789 778.943 622.734 778.943 620.625ZM781.716 620.547C781.716 621.367 782.38 621.797 783.298 621.797C784.607 621.797 785.545 620.918 785.525 619.805V619.023C785.086 619.043 783.855 619.111 783.357 619.16C782.361 619.258 781.716 619.727 781.716 620.547ZM790.062 623.594V609.453H792.952V614.766H793.03C793.441 613.906 794.28 612.852 796.058 612.852C798.402 612.852 800.374 614.668 800.374 618.301C800.374 621.836 798.48 623.77 796.058 623.77C794.32 623.77 793.441 622.773 793.03 621.895H792.913V623.594H790.062ZM792.894 618.281C792.894 620.195 793.714 621.465 795.14 621.465C796.624 621.465 797.405 620.156 797.405 618.281C797.405 616.426 796.624 615.156 795.14 615.156C793.695 615.156 792.894 616.367 792.894 618.281ZM806.434 623.809C803.192 623.809 801.2 621.699 801.2 618.34C801.2 615.059 803.212 612.852 806.317 612.852C809.11 612.852 811.298 614.609 811.298 618.223V619.043H804.052C804.052 620.645 805.009 621.641 806.493 621.641C807.47 621.641 808.173 621.211 808.466 620.566H811.22C810.809 622.52 809.052 623.809 806.434 623.809ZM804.052 617.227H808.563C808.563 615.938 807.665 615.02 806.376 615.02C805.048 615.02 804.1 616.006 804.052 617.227ZM815.405 609.453V623.594H812.514V609.453H815.405ZM817.051 623.594V612.988H819.941V623.594H817.051ZM818.496 611.602C817.617 611.602 816.914 610.938 816.914 610.137C816.914 609.316 817.617 608.652 818.496 608.652C819.355 608.652 820.059 609.316 820.059 610.137C820.059 610.938 819.355 611.602 818.496 611.602ZM824.478 617.461V623.594H821.588V612.988H824.341V614.844H824.459C824.947 613.613 826.08 612.852 827.642 612.852C829.849 612.852 831.314 614.355 831.295 616.836V623.594H828.423V617.344C828.423 616.035 827.701 615.254 826.509 615.254C825.298 615.254 824.478 616.055 824.478 617.461ZM837.706 627.793C834.777 627.793 832.98 626.484 832.804 624.473H835.655C835.812 625.312 836.612 625.703 837.765 625.703C839.112 625.703 840.011 625.137 840.011 623.652V621.719H839.874C839.484 622.578 838.546 623.438 836.847 623.438C834.445 623.438 832.53 621.758 832.53 618.223C832.53 614.629 834.503 612.852 836.847 612.852C838.624 612.852 839.484 613.906 839.874 614.766H839.991V612.988H842.862V623.711C842.862 626.406 840.714 627.793 837.706 627.793ZM837.745 621.27C839.191 621.27 840.011 620.137 840.011 618.262C840.011 616.367 839.191 615.156 837.745 615.156C836.28 615.156 835.499 616.426 835.499 618.262C835.499 620.098 836.28 621.27 837.745 621.27Z" fill="black"/>
<path d="M429.059 528.988V514.848H434.605C437.828 514.848 439.664 516.82 439.664 519.613C439.664 522.445 437.789 524.379 434.527 524.379H431.988V528.988H429.059ZM431.988 522.016H434.059C435.797 522.016 436.637 521.039 436.637 519.613C436.637 518.207 435.797 517.25 434.059 517.25H431.988V522.016ZM440.08 526.02C440.08 523.656 441.994 522.875 444.025 522.758C444.787 522.709 446.212 522.641 446.662 522.621V521.762C446.642 520.883 446.037 520.355 444.962 520.355C443.986 520.355 443.361 520.805 443.205 521.527H440.451C440.627 519.691 442.228 518.246 445.041 518.246C447.345 518.246 449.533 519.281 449.533 521.84V528.988H446.798V527.523H446.72C446.193 528.5 445.197 529.184 443.615 529.184C441.584 529.184 440.08 528.129 440.08 526.02ZM442.853 525.941C442.853 526.762 443.517 527.191 444.435 527.191C445.744 527.191 446.681 526.312 446.662 525.199V524.418C446.222 524.438 444.992 524.506 444.494 524.555C443.498 524.652 442.853 525.121 442.853 525.941ZM454.03 514.848V528.988H451.14V514.848H454.03ZM458.567 514.848V528.988H455.677V514.848H458.567ZM465.018 529.203C461.776 529.203 459.784 527.094 459.784 523.734C459.784 520.453 461.795 518.246 464.901 518.246C467.694 518.246 469.881 520.004 469.881 523.617V524.438H462.635C462.635 526.039 463.592 527.035 465.077 527.035C466.053 527.035 466.756 526.605 467.049 525.961H469.803C469.393 527.914 467.635 529.203 465.018 529.203ZM462.635 522.621H467.147C467.147 521.332 466.248 520.414 464.959 520.414C463.631 520.414 462.684 521.4 462.635 522.621ZM476.684 518.383V520.551H474.691V525.727C474.691 526.566 475.102 526.781 475.688 526.801C475.98 526.801 476.488 526.781 476.84 526.742V529.027C476.527 529.086 476.02 529.125 475.297 529.125C473.207 529.125 471.781 528.188 471.801 526.137V520.551H470.336V518.383H471.801V515.844H474.691V518.383H476.684ZM481.968 528.988V514.848H484.898V526.566H490.991V528.988H481.968ZM496.993 529.203C493.79 529.203 491.798 526.996 491.798 523.715C491.798 520.434 493.79 518.246 496.993 518.246C500.196 518.246 502.208 520.434 502.208 523.715C502.208 526.996 500.196 529.203 496.993 529.203ZM497.013 526.957C498.497 526.957 499.259 525.57 499.259 523.715C499.259 521.84 498.497 520.453 497.013 520.453C495.509 520.453 494.727 521.84 494.727 523.715C494.727 525.57 495.509 526.957 497.013 526.957ZM502.916 526.02C502.916 523.656 504.83 522.875 506.862 522.758C507.623 522.709 509.049 522.641 509.498 522.621V521.762C509.479 520.883 508.873 520.355 507.799 520.355C506.823 520.355 506.198 520.805 506.041 521.527H503.287C503.463 519.691 505.065 518.246 507.877 518.246C510.182 518.246 512.37 519.281 512.37 521.84V528.988H509.635V527.523H509.557C509.03 528.5 508.034 529.184 506.452 529.184C504.42 529.184 502.916 528.129 502.916 526.02ZM505.69 525.941C505.69 526.762 506.354 527.191 507.272 527.191C508.58 527.191 509.518 526.312 509.498 525.199V524.418C509.059 524.438 507.829 524.506 507.33 524.555C506.334 524.652 505.69 525.121 505.69 525.941ZM517.883 529.164C515.461 529.164 513.566 527.23 513.566 523.695C513.566 520.062 515.539 518.246 517.883 518.246C519.66 518.246 520.5 519.301 520.891 520.16H520.988V514.848H523.879V528.988H521.027V527.289H520.891C520.48 528.168 519.602 529.164 517.883 529.164ZM518.781 526.859C520.227 526.859 521.047 525.59 521.047 523.676C521.047 521.762 520.227 520.551 518.781 520.551C517.316 520.551 516.535 521.82 516.535 523.676C516.535 525.551 517.316 526.859 518.781 526.859Z" fill="black"/>
<rect x="685" y="379" width="84" height="84" rx="42" fill="#6E62FD"/>
<path d="M741.973 404.172C742.77 404.172 743.452 404.838 743.452 405.705V441.22C743.452 442.087 742.77 442.753 741.973 442.753H712.026C711.229 442.753 710.547 442.087 710.547 441.22V405.705C710.547 404.838 711.229 404.172 712.026 404.172H717.708H735.847H741.973Z" fill="white" stroke="white" stroke-width="2"/>
<path d="M719.766 423.488L725.141 428.994L734.856 418.539" stroke="#6E62FD" stroke-width="3" stroke-linecap="round" stroke-linejoin="round"/>
<path d="M735.429 398.25H718.578V406.858H735.429V398.25Z" fill="#6E62FD" stroke="white" stroke-width="2" stroke-linecap="square" stroke-linejoin="round"/>
<rect x="670" y="574" width="84" height="84" rx="42" fill="#6E62FD"/>
<rect x="700.227" y="597.219" width="30.3839" height="30.3839" rx="2" fill="white"/>
<rect x="694.383" y="605.398" width="28.3839" height="28.3839" rx="1" stroke="white" stroke-width="2"/>
<path d="M709.172 612.41H721.672" stroke="#6E62FD" stroke-width="3" stroke-miterlimit="10"/>
<path d="M715.422 618.66V606.16" stroke="#6E62FD" stroke-width="3" stroke-miterlimit="10"/>
<rect x="527" y="451" width="84" height="84" rx="42" fill="#336DFF"/>
<rect x="552" y="467.25" width="27.25" height="42.75" rx="3" stroke="white" stroke-width="2"/>
<mask id="path-67-inside-2_127_750" fill="white">
<rect x="556.125" y="474.375" width="19.375" height="27.793" rx="1"/>
</mask>
<rect x="556.125" y="474.375" width="19.375" height="27.793" rx="1" stroke="white" stroke-width="4" mask="url(#path-67-inside-2_127_750)"/>
<path d="M566.158 506.405L562.809 502.421C562.809 502.421 561.274 500.607 559.321 502.142C557.367 503.677 559.806 507.512 559.806 507.512L565.879 516.73C565.879 516.73 568.949 522.375 575.787 522.515C582.625 522.654 585.695 518.607 586.393 515.677C587.091 512.746 588.137 504.024 586.742 502.071C585.346 500.117 582.613 499.876 582.613 499.876C582.613 499.876 581.439 497.047 577.392 497.605C577.392 497.605 575.857 494.788 572.438 495.986V487.058C572.438 487.058 572.647 483.816 569.647 483.816C566.647 483.816 566.786 487.699 566.786 487.699L566.158 506.405Z" fill="white" stroke="#336DFF" stroke-width="2" stroke-linecap="round" stroke-linejoin="round"/>
<path d="M572.445 495.988V503.164" stroke="#336DFF" stroke-width="2" stroke-linecap="round" stroke-linejoin="round"/>
<path d="M577.461 497.676V503.164" stroke="#336DFF" stroke-width="2" stroke-linecap="round" stroke-linejoin="round"/>
<path d="M582.625 499.91V504.282" stroke="#336DFF" stroke-width="2" stroke-linecap="round" stroke-linejoin="round"/>
<rect x="562.812" y="470.5" width="6" height="2" rx="1" fill="white"/>
<defs>
<linearGradient id="paint0_linear_127_750" x1="466.325" y1="221.006" x2="391.216" y2="220.322" gradientUnits="userSpaceOnUse">
<stop stop-color="#4769E9"/>
<stop offset="1" stop-color="#3BA6F7"/>
</linearGradient>
</defs>
</svg>
