<svg width="207" height="82" viewBox="0 0 207 82" fill="none" xmlns="http://www.w3.org/2000/svg">
<rect y="0.015625" width="207" height="81.1495" rx="11.0033" fill="#C3E7FB"/>
<path opacity="0.2" d="M21.9921 20.5197C21.9196 19.8307 21.3635 19.4197 20.4811 19.4197C19.5623 19.4197 19.0546 19.8428 19.0425 20.423C19.0304 21.0516 19.6953 21.3417 20.4448 21.511L21.2306 21.7044C22.7295 22.0429 23.8538 22.8045 23.8538 24.2672C23.8538 25.875 22.5966 26.8904 20.469 26.8904C18.3535 26.8904 16.9995 25.9112 16.9512 24.0375H18.7161C18.7766 24.92 19.4777 25.3673 20.4448 25.3673C21.3998 25.3673 22.0163 24.92 22.0163 24.2672C22.0163 23.6748 21.4723 23.3968 20.5173 23.155L19.5623 22.9254C18.0875 22.5627 17.1809 21.8253 17.1809 20.5439C17.1809 18.9482 18.5831 17.8965 20.4931 17.8965C22.4273 17.8965 23.7087 18.9724 23.7329 20.5197H21.9921ZM28.0882 20.2054V21.5473H26.8551V24.7507C26.8551 25.2705 27.109 25.4035 27.4717 25.4156C27.653 25.4156 27.9673 25.4035 28.1849 25.3793V26.7937C27.9915 26.83 27.6772 26.8542 27.2299 26.8542C25.9364 26.8542 25.0539 26.2739 25.066 25.0046V21.5473H24.1594V20.2054H25.066V18.6339H26.8551V20.2054H28.0882ZM31.7181 26.9025C29.7356 26.9025 28.5026 25.5365 28.5026 23.5056C28.5026 21.4747 29.7356 20.1208 31.7181 20.1208C33.7007 20.1208 34.9458 21.4747 34.9458 23.5056C34.9458 25.5365 33.7007 26.9025 31.7181 26.9025ZM31.7302 25.5123C32.649 25.5123 33.1204 24.654 33.1204 23.5056C33.1204 22.3451 32.649 21.4868 31.7302 21.4868C30.7994 21.4868 30.3159 22.3451 30.3159 23.5056C30.3159 24.654 30.7994 25.5123 31.7302 25.5123ZM38.6483 26.9025C36.6416 26.9025 35.4327 25.5123 35.4327 23.5056C35.4327 21.4989 36.6537 20.1208 38.6483 20.1208C40.3407 20.1208 41.4891 21.1121 41.5617 22.611H39.8813C39.7725 21.9583 39.3494 21.511 38.6725 21.511C37.8142 21.511 37.246 22.2363 37.246 23.4814C37.246 24.7507 37.8021 25.476 38.6725 25.476C39.3011 25.476 39.7725 25.0892 39.8813 24.3881H41.5617C41.477 25.875 40.3891 26.9025 38.6483 26.9025ZM42.3025 26.7695V18.0174H44.0916V22.7198H44.1883L46.3159 20.2054H48.3709L45.929 23.0462L48.5039 26.7695H46.4005L44.5993 24.0979L44.0916 24.6661V26.7695H42.3025ZM48.87 26.7695V18.0174H54.6362V19.5164H50.6832V21.644H54.2615V23.1429H50.6832V26.7695H48.87ZM57.2145 18.0174V26.7695H55.4254V18.0174H57.2145ZM61.1829 26.9025C59.2004 26.9025 57.9674 25.5365 57.9674 23.5056C57.9674 21.4747 59.2004 20.1208 61.1829 20.1208C63.1655 20.1208 64.4106 21.4747 64.4106 23.5056C64.4106 25.5365 63.1655 26.9025 61.1829 26.9025ZM61.195 25.5123C62.1138 25.5123 62.5852 24.654 62.5852 23.5056C62.5852 22.3451 62.1138 21.4868 61.195 21.4868C60.2642 21.4868 59.7807 22.3451 59.7807 23.5056C59.7807 24.654 60.2642 25.5123 61.195 25.5123ZM66.2877 26.7695L64.4986 20.2054H66.3119L67.3394 24.6419H67.3999L68.4757 20.2054H70.2528L71.3407 24.6178H71.4012L72.4166 20.2054H74.2299L72.4287 26.7695H70.5429L69.4066 22.599H69.3219L68.1856 26.7695H66.2877ZM80.9217 19.3713C80.9096 21.3417 81.7558 23.3364 83.5207 24.1826L82.5899 25.4156C81.4113 24.8354 80.6195 23.7474 80.1601 22.4176C79.6826 23.8441 78.8304 25.0106 77.5852 25.6211L76.6302 24.376C78.4919 23.5177 79.3744 21.4143 79.3744 19.3713V17.7273H80.9217V19.3713ZM85.5516 16.881V21.1242H87.1715V22.4297H85.5516V27.8817H84.0043V16.881H85.5516ZM97.2326 22.0912V23.3243H87.1991V22.0912H89.4596V20.7736C88.6558 20.417 88.2024 19.873 88.2024 19.1658C88.2024 17.836 89.7619 17.0382 92.2158 17.0382C94.6457 17.0382 96.2051 17.836 96.2172 19.1658C96.2111 19.879 95.7397 20.4351 94.9237 20.7857V22.0912H97.2326ZM92.2038 23.9045C94.5852 23.9045 96.0238 24.6057 96.0358 25.875C96.0238 27.1685 94.5852 27.8696 92.2038 27.8696C89.786 27.8696 88.3475 27.1685 88.3475 25.875C88.3475 24.6057 89.786 23.9045 92.2038 23.9045ZM92.2038 25.065C90.6806 25.065 89.9069 25.331 89.919 25.875C89.9069 26.4431 90.6806 26.7212 92.2038 26.7212C93.6907 26.7212 94.4764 26.4431 94.4885 25.875C94.4764 25.331 93.6907 25.065 92.2038 25.065ZM92.2158 18.2229C90.6564 18.2229 89.7981 18.5493 89.8102 19.1658C89.7981 19.7702 90.6564 20.0724 92.2158 20.0724C93.7511 20.0724 94.6215 19.7702 94.6215 19.1658C94.6215 18.5493 93.7511 18.2229 92.2158 18.2229ZM91.0191 22.0912H93.3884V21.1725C93.0258 21.2148 92.6329 21.2329 92.2158 21.2329C91.7867 21.2329 91.3878 21.2148 91.0191 21.1604V22.0912ZM102.543 17.4371C104.864 17.4492 106.677 18.6943 106.689 20.6043C106.677 22.5264 104.864 23.7836 102.543 23.7716C100.21 23.7836 98.4086 22.5264 98.4086 20.6043C98.4086 18.6943 100.21 17.4492 102.543 17.4371ZM102.543 18.6943C101.02 18.6823 99.9076 19.4197 99.9076 20.6043C99.9076 21.8011 101.02 22.5143 102.543 22.5143C104.066 22.5143 105.154 21.8011 105.166 20.6043C105.154 19.4197 104.066 18.6823 102.543 18.6943ZM107.596 25.2947V26.5398H97.5261V25.2947H107.596ZM117.923 25.3914V26.6607H107.853V25.3914H112.096V23.7353H109.014V20.0362H115.239V18.8273H109.002V17.5943H116.762V21.245H110.561V22.4781H117.016V23.7353H113.632V25.3914H117.923ZM130.695 21.245V22.466H126.44V23.1671H129.474V25.9838H123.345V26.6486H129.765V27.8092H121.834V24.8958H127.951V24.3276H121.822V23.1671H124.893V22.466H120.662V21.245H130.695ZM129.426 17.1954V20.6648H121.907V17.1954H129.426ZM123.418 18.3921V19.4801H127.891V18.3921H123.418ZM141.047 23.3364V24.5452H138.726V27.8817H137.166V24.5452H134.869V27.8817H133.334V24.5452H130.977V23.3364H141.047ZM139.886 17.2074V20.4109H133.733V21.3055H140.14V22.5385H132.174V19.2867H138.302V18.4647H132.137V17.2074H139.886ZM153.855 22.9979V24.243H151.498V27.8817H149.926V24.243H147.678V27.8817H146.094V24.243H143.785V22.9979H153.855ZM148.79 17.2437C151.147 17.2437 152.803 18.2229 152.803 19.734C152.803 21.2209 151.147 22.1517 148.79 22.1517C146.433 22.1517 144.789 21.2209 144.801 19.734C144.789 18.2229 146.433 17.2437 148.79 17.2437ZM148.79 18.4767C147.315 18.4767 146.372 18.924 146.384 19.734C146.372 20.5076 147.315 20.9428 148.79 20.9428C150.277 20.9428 151.208 20.5076 151.208 19.734C151.208 18.924 150.277 18.4767 148.79 18.4767ZM164.158 22.5506V23.7595H154.1V22.5506H158.356V21.8736H155.358V17.147H162.985V18.3317H156.905V18.9482H162.732V20.0604H156.905V20.689H163.082V21.8736H159.903V22.5506H164.158ZM159.129 24.2672C161.559 24.2551 162.949 24.9079 162.961 26.0684C162.949 27.2531 161.559 27.8817 159.129 27.8817C156.663 27.8817 155.273 27.2531 155.273 26.0684C155.273 24.9079 156.663 24.2551 159.129 24.2672ZM159.129 25.4035C157.546 25.4035 156.808 25.609 156.82 26.0684C156.808 26.5398 157.546 26.7454 159.129 26.7454C160.677 26.7454 161.402 26.5398 161.414 26.0684C161.402 25.609 160.677 25.4035 159.129 25.4035ZM173.663 16.881V27.9059H172.104V16.881H173.663ZM167.691 17.6547C169.347 17.6547 170.581 19.1779 170.581 21.5714C170.581 23.9892 169.347 25.5002 167.691 25.5002C165.999 25.5002 164.766 23.9892 164.778 21.5714C164.766 19.1779 165.999 17.6547 167.691 17.6547ZM167.691 19.0449C166.833 19.0449 166.265 19.9395 166.265 21.5714C166.265 23.2155 166.833 24.0979 167.691 24.0979C168.525 24.0979 169.094 23.2155 169.094 21.5714C169.094 19.9395 168.525 19.0449 167.691 19.0449ZM26.1506 34.8931V43.198H24.6033V42.3276H22.4999V41.2759H24.6033V34.8931H26.1506ZM26.3924 44.4552V45.6883H18.1963V42.4002H19.7316V40.9374C18.7463 40.9798 17.8095 40.9858 16.9754 40.9858L16.794 39.7648C18.8128 39.7528 21.5328 39.7286 23.8538 39.4385L23.9384 40.5385C23.068 40.6836 22.1674 40.7863 21.2789 40.8528V42.9442H19.7316V44.4552H26.3924ZM20.3723 35.2679C21.968 35.2558 23.1164 36.0657 23.1164 37.2383C23.1164 38.4109 21.968 39.1725 20.3723 39.1725C18.7403 39.1725 17.604 38.4109 17.604 37.2383C17.604 36.0657 18.7282 35.2558 20.3723 35.2679ZM20.3723 36.3921C19.5865 36.3921 19.0546 36.6943 19.0667 37.2383C19.0546 37.7702 19.5865 38.0604 20.3723 38.0604C21.1097 38.0604 21.6416 37.7702 21.6537 37.2383C21.6416 36.6943 21.1097 36.3921 20.3723 36.3921ZM35.9579 34.881V37.4801H37.3601V38.7615H35.9579V41.3605H34.4105V34.881H35.9579ZM35.9579 41.7474V44.2135H30.0586V44.7816H36.3205V45.8092H28.5113V43.2826H34.4105V42.7749H28.4992V41.7474H35.9579ZM27.0365 40.1759C27.8404 40.1819 28.7531 40.1819 29.7081 40.1517V39.6681C28.5052 39.5291 27.7618 39.0274 27.7739 38.2417C27.7618 37.3471 28.8256 36.8273 30.4696 36.8273C32.1016 36.8273 33.1533 37.3471 33.1654 38.2417C33.1533 39.0274 32.428 39.5231 31.2433 39.6681V40.1033C32.1439 40.061 33.0506 39.9885 33.9028 39.8736L34.0116 40.8286C31.6664 41.2276 29.1157 41.2397 27.1936 41.2397L27.0365 40.1759ZM33.6248 35.5701V36.5976H27.3266V35.5701H29.7081V34.7843H31.2433V35.5701H33.6248ZM30.4696 37.7823C29.6839 37.7823 29.2366 37.9274 29.2487 38.2417C29.2366 38.5681 29.6839 38.7373 30.4696 38.7494C31.2433 38.7373 31.6785 38.5681 31.6906 38.2417C31.6785 37.9274 31.2433 37.7823 30.4696 37.7823ZM42.7913 36.5614V37.7823H37.4723V36.5614H39.3823V35.1833H40.9055V36.5614H42.7913ZM40.156 38.2779C41.5583 38.2779 42.5616 39.3659 42.5737 40.8891C42.5616 42.4243 41.5583 43.5123 40.156 43.5123C38.7537 43.5123 37.7262 42.4243 37.7262 40.8891C37.7262 39.3659 38.7537 38.2779 40.156 38.2779ZM40.156 39.5593C39.5153 39.5593 39.0801 40.055 39.0801 40.8891C39.0801 41.7232 39.5153 42.2067 40.156 42.2067C40.7725 42.2067 41.2077 41.7232 41.2198 40.8891C41.2077 40.055 40.7725 39.5593 40.156 39.5593ZM46.9982 34.881V45.8817H45.5354V40.5869H44.6409V45.4102H43.2023V35.0986H44.6409V39.3538H45.5354V34.881H46.9982ZM57.0834 34.881V41.2397H55.5482V39.9704H54.3031L54.5086 40.0429L53.747 41.2276C52.5321 40.8407 51.698 40.061 51.2205 39.0758C50.7309 40.1638 49.8544 41.0221 48.561 41.4452L47.7631 40.2242C49.5885 39.644 50.4105 38.2538 50.4105 36.8515V36.7669H48.2346V35.5217H54.1338V36.7669H51.9941V36.8394C51.982 38.006 52.5804 39.1665 53.9162 39.8011V38.7373H55.5482V38.0362H53.9162V36.791H55.5482V34.881H57.0834ZM51.9579 41.9045C51.9458 42.8051 52.3205 43.7299 53.2272 44.3464C54.1278 43.6936 54.4965 42.7266 54.5086 41.9045V41.5902H56.0196V41.9045C56.0196 43.0529 56.6241 44.1409 58.1231 44.6003L57.3373 45.7366C56.2916 45.374 55.6086 44.697 55.2339 43.8266C54.8652 44.6849 54.2184 45.4344 53.2272 45.8333C52.2117 45.4586 51.571 44.7454 51.2084 43.8871C50.8155 44.703 50.1385 45.374 49.1412 45.7366L48.3917 44.6003C49.8424 44.1167 50.4468 43.0046 50.4589 41.9045V41.5902H51.9579V41.9045ZM61.1728 35.6547C62.6597 35.6547 63.7658 36.8817 63.9894 38.8582H65.8994V34.881H67.4226V45.9059H65.8994V40.0912H64.0015C63.8383 42.2067 62.708 43.5002 61.1728 43.5002C59.5045 43.5002 58.3078 41.9892 58.3199 39.5714C58.3078 37.1779 59.5045 35.6547 61.1728 35.6547ZM61.1728 37.0449C60.3507 37.0449 59.7826 37.9395 59.7947 39.5714C59.7826 41.2155 60.3507 42.0979 61.1728 42.0979C62.0069 42.0979 62.5509 41.2155 62.5509 39.5714C62.5509 37.9395 62.0069 37.0449 61.1728 37.0449ZM78.5354 43.331V44.6003H68.4656V43.331H70.7141V40.6352C69.8618 40.1275 69.3481 39.3478 69.3481 38.3747C69.3481 36.5976 71.0888 35.4129 73.4824 35.4129C75.8638 35.4129 77.6167 36.5976 77.6288 38.3747C77.6227 39.3236 77.121 40.0973 76.299 40.611V43.331H78.5354ZM73.4824 36.6339C71.9108 36.6339 70.8712 37.2625 70.8712 38.3747C70.8712 39.4505 71.9108 40.1154 73.4824 40.1154C75.0418 40.1154 76.0935 39.4505 76.1056 38.3747C76.0935 37.2625 75.0418 36.6339 73.4824 36.6339ZM72.2372 43.331H74.7396V41.1913C74.3467 41.2699 73.9236 41.3122 73.4824 41.3122C73.0411 41.3122 72.6241 41.2759 72.2372 41.1913V43.331ZM80.2191 44.8783C79.6509 44.8783 79.1916 44.419 79.2037 43.8629C79.1916 43.3068 79.6509 42.8595 80.2191 42.8595C80.751 42.8595 81.2225 43.3068 81.2225 43.8629C81.2225 44.419 80.751 44.8783 80.2191 44.8783Z" fill="black"/>
<path d="M19.475 63.7503C17.8954 63.7503 16.974 62.481 16.974 60.2526C16.974 58.0431 17.9142 56.755 19.475 56.755C21.0358 56.755 21.976 58.0431 21.976 60.2526C21.976 62.481 21.0452 63.7503 19.475 63.7503ZM19.475 62.8571C20.3964 62.8571 20.9418 61.9544 20.9418 60.2526C20.9418 58.5602 20.387 57.6294 19.475 57.6294C18.563 57.6294 18.0083 58.5602 18.0083 60.2526C18.0083 61.9544 18.5536 62.8571 19.475 62.8571ZM25.1284 63.7503C23.5488 63.7503 22.6274 62.481 22.6274 60.2526C22.6274 58.0431 23.5676 56.755 25.1284 56.755C26.6892 56.755 27.6294 58.0431 27.6294 60.2526C27.6294 62.481 26.6986 63.7503 25.1284 63.7503ZM25.1284 62.8571C26.0498 62.8571 26.5952 61.9544 26.5952 60.2526C26.5952 58.5602 26.0404 57.6294 25.1284 57.6294C24.2164 57.6294 23.6617 58.5602 23.6617 60.2526C23.6617 61.9544 24.207 62.8571 25.1284 62.8571ZM34.9376 56.8396V57.667C34.9376 58.7107 34.9376 59.8765 34.6179 61.5972L33.7153 61.5031C34.0444 59.8765 34.0444 58.6825 34.0444 57.667V57.5636H28.9295V56.8396H34.9376ZM35.8026 62.575V63.3178H28.121V62.575H31.0451V59.6039H31.9289V62.575H35.8026ZM43.3364 56.0404V60.9954H42.4902V58.8329H41.4748V60.9484H40.6286V56.1909H41.4748V58.0901H42.4902V56.0404H43.3364ZM43.3364 61.3621V64.4554H42.4526V62.0861H37.5823V61.3621H43.3364ZM39.8388 56.6422C39.8388 58.6919 38.7387 60.1774 36.5856 61.0706L36.1531 60.4031C37.8549 59.7355 38.7763 58.6872 38.9362 57.3661H36.5198V56.6422H39.8388ZM47.1094 58.1747C47.1 59.6697 47.965 61.1929 49.2249 61.804L48.6701 62.5186C47.7534 62.0438 47.0436 61.0988 46.6769 59.9706C46.2961 61.1741 45.558 62.1801 44.599 62.6784L44.0442 61.9544C45.3417 61.3339 46.2162 59.7167 46.2162 58.1747V56.7362H47.1094V58.1747ZM50.748 56.031V59.3876H52.102V60.1492H50.748V64.4554H49.8548V56.031H50.748Z" fill="#6B6C75"/>
</svg>
