<svg width="312" height="423" viewBox="0 0 312 423" fill="none" xmlns="http://www.w3.org/2000/svg">
<g clip-path="url(#clip0_166_978)">
<g filter="url(#filter0_d_166_978)">
<circle cx="153.297" cy="247.09" r="58.75" fill="white"/>
</g>
<g clip-path="url(#clip1_166_978)">
<mask id="mask0_166_978" style="mask-type:luminance" maskUnits="userSpaceOnUse" x="103" y="237" width="100" height="19">
<path d="M203 237.992H103V255.992H203V237.992Z" fill="white"/>
</mask>
<g mask="url(#mask0_166_978)">
<path d="M130.299 246.621C130.042 246.349 129.694 246.095 129.286 245.883C128.861 245.689 128.346 245.592 127.758 245.574C127.334 245.574 126.909 245.574 126.505 245.555C126.08 245.555 125.655 245.537 125.252 245.537C124.81 245.537 124.479 245.458 124.256 245.301C123.999 245.163 123.831 245.011 123.724 244.817C123.613 244.641 123.54 244.466 123.522 244.309C123.484 244.152 123.484 244.074 123.484 244.074V243.123C123.484 242.832 123.522 242.578 123.63 242.384C123.72 242.191 123.849 242.034 123.999 241.918C124.128 241.821 124.273 241.743 124.441 241.683C124.587 241.646 124.737 241.623 124.883 241.623H129.205C129.295 241.623 129.351 241.586 129.351 241.466L130.681 240.377C130.681 240.298 130.625 240.238 130.535 240.238H124.879C124.51 240.238 124.14 240.298 123.81 240.414C123.458 240.552 123.149 240.723 122.887 240.958C122.591 241.212 122.372 241.503 122.226 241.854C122.042 242.223 121.969 242.652 121.969 243.118V244.069C121.969 244.304 122.025 244.595 122.136 244.904C122.226 245.237 122.411 245.546 122.668 245.837C122.926 246.146 123.256 246.423 123.681 246.617C124.089 246.829 124.621 246.926 125.248 246.926L127.754 246.968C128.179 246.968 128.51 247.046 128.767 247.18C128.986 247.337 129.175 247.512 129.282 247.688C129.394 247.881 129.449 248.038 129.484 248.195C129.501 248.352 129.522 248.431 129.522 248.431V249.968C129.522 250.277 129.467 250.512 129.376 250.688C129.265 250.881 129.158 251.038 129.025 251.154C128.879 251.269 128.711 251.348 128.565 251.389C128.381 251.449 128.235 251.468 128.123 251.468H123.273C123.183 251.468 123.145 251.528 123.145 251.624L122.158 252.695C122.158 252.792 122.196 252.852 122.286 252.852H128.128C128.497 252.852 128.866 252.792 129.231 252.677C129.582 252.538 129.891 252.368 130.17 252.132C130.428 251.897 130.63 251.588 130.797 251.218C130.943 250.868 131.037 250.438 131.037 249.972V248.435C131.037 248.163 130.982 247.872 130.87 247.54C130.741 247.231 130.557 246.917 130.299 246.626V246.621Z" fill="#00384E"/>
<path d="M170.196 242.555C170.269 242.361 170.397 242.186 170.565 242.029C170.711 241.914 170.878 241.817 171.08 241.738C171.264 241.678 171.449 241.641 171.633 241.641H175.217C175.307 241.641 175.363 241.604 175.363 241.484L176.625 240.377C176.625 240.298 176.569 240.238 176.479 240.238H171.633C170.659 240.238 169.9 240.511 169.367 241.018C168.814 241.563 168.539 242.32 168.539 243.312V252.691C168.539 252.788 168.573 252.848 168.685 252.848L169.921 251.546C169.994 251.546 170.05 251.486 170.05 251.389V247.148H174.415C174.488 247.148 174.543 247.106 174.543 246.991L175.432 245.901C175.432 245.804 175.376 245.744 175.303 245.744H170.054V243.312C170.054 243.04 170.088 242.786 170.2 242.555H170.196Z" fill="#00384E"/>
<path d="M178.468 240.164L177.232 241.53C177.12 241.53 177.086 241.59 177.086 241.687V252.695C177.086 252.792 177.125 252.852 177.232 252.852L178.468 251.472C178.541 251.472 178.597 251.412 178.597 251.315V240.321C178.597 240.224 178.541 240.164 178.468 240.164Z" fill="#00384E"/>
<path d="M202.852 243.083L201.637 244.407C201.525 244.407 201.491 244.467 201.491 244.564V249.78C201.491 249.992 201.453 250.186 201.418 250.384C201.345 250.597 201.251 250.772 201.139 250.929C201.01 251.086 200.843 251.22 200.659 251.298C200.44 251.414 200.199 251.455 199.903 251.455H199.002C198.431 251.455 198.028 251.298 197.787 250.947C197.53 250.638 197.418 250.246 197.418 249.78V245.284C197.418 245.284 197.418 245.275 197.418 245.27C197.41 244.837 197.075 244.49 196.663 244.49C196.251 244.49 195.95 244.809 195.916 245.215C195.912 245.234 195.907 245.257 195.907 245.28V249.766C195.907 250.232 195.779 250.62 195.556 250.934C195.298 251.284 194.895 251.441 194.319 251.441H193.435C193.139 251.441 192.882 251.404 192.697 251.284C192.478 251.206 192.311 251.072 192.199 250.915C192.071 250.758 191.98 250.583 191.942 250.37C191.869 250.177 191.852 249.983 191.852 249.766V243.235C191.852 243.138 191.796 243.078 191.706 243.078H187.938C188.435 243.461 188.856 243.932 189.204 244.477H190.345V249.766C190.345 250.68 190.603 251.418 191.118 251.981C191.616 252.544 192.388 252.835 193.44 252.835H194.324C194.822 252.835 195.264 252.738 195.667 252.581C196.036 252.406 196.367 252.194 196.663 251.94C196.942 252.194 197.272 252.406 197.676 252.581C198.045 252.738 198.487 252.835 199.002 252.835H199.903C200.933 252.835 201.71 252.544 202.225 251.981C202.74 251.418 202.998 250.68 202.998 249.766V243.235C202.998 243.138 202.942 243.078 202.852 243.078V243.083Z" fill="#00384E"/>
<path d="M145.762 243.701C145.054 243.286 144.26 243.078 143.38 243.078C142.5 243.078 141.706 243.286 140.998 243.701C140.29 244.117 139.736 244.698 139.328 245.446C138.92 246.194 138.719 247.038 138.719 247.98C138.719 248.921 138.92 249.766 139.328 250.514C139.736 251.261 140.29 251.843 140.998 252.267C141.706 252.687 142.5 252.9 143.38 252.9C144.26 252.9 145.054 252.687 145.762 252.267C146.47 251.847 147.019 251.261 147.423 250.514C147.822 249.766 148.023 248.921 148.023 247.98C148.023 247.038 147.826 246.194 147.423 245.446C147.023 244.698 146.47 244.117 145.762 243.701ZM146.118 249.798C145.852 250.334 145.474 250.744 144.998 251.03C144.521 251.321 143.981 251.464 143.38 251.464C142.779 251.464 142.238 251.321 141.762 251.03C141.285 250.74 140.908 250.329 140.633 249.798C140.358 249.263 140.221 248.658 140.221 247.98C140.221 247.301 140.358 246.692 140.633 246.161C140.908 245.626 141.281 245.215 141.762 244.929C142.238 244.638 142.779 244.495 143.38 244.495C143.981 244.495 144.521 244.638 144.998 244.929C145.474 245.22 145.848 245.63 146.118 246.161C146.388 246.697 146.521 247.301 146.521 247.98C146.521 248.658 146.388 249.267 146.118 249.798Z" fill="#00384E"/>
<path d="M138.192 244.477C138.544 243.932 138.96 243.462 139.458 243.078H134.089V240.005C134.089 239.908 134.033 239.848 133.96 239.848L132.724 241.131C132.612 241.131 132.578 241.191 132.578 241.288V249.868C132.578 250.177 132.634 250.491 132.746 250.818C132.857 251.169 133.02 251.502 133.278 251.792C133.518 252.083 133.831 252.337 134.235 252.549C134.604 252.743 135.085 252.84 135.655 252.84H137.183C137.273 252.84 137.329 252.78 137.329 252.683V251.594C137.329 251.497 137.273 251.437 137.183 251.437H135.655C135.248 251.437 134.956 251.358 134.754 251.183C134.535 251.026 134.385 250.851 134.295 250.657C134.183 250.463 134.127 250.288 134.127 250.112C134.089 249.955 134.089 249.858 134.089 249.858V244.482H138.188L138.192 244.477Z" fill="#00384E"/>
<path d="M186.754 243.701C186.046 243.286 185.252 243.078 184.372 243.078C183.492 243.078 182.698 243.286 181.99 243.701C181.282 244.117 180.728 244.698 180.32 245.446C179.917 246.194 179.711 247.038 179.711 247.98C179.711 248.921 179.913 249.766 180.32 250.514C180.728 251.261 181.282 251.843 181.99 252.267C182.698 252.687 183.488 252.9 184.372 252.9C185.256 252.9 186.046 252.687 186.754 252.267C187.462 251.847 188.011 251.261 188.415 250.514C188.814 249.766 189.016 248.921 189.016 247.98C189.016 247.038 188.814 246.194 188.415 245.446C188.016 244.698 187.462 244.117 186.754 243.701ZM187.11 249.798C186.844 250.334 186.466 250.744 185.99 251.03C185.514 251.321 184.973 251.464 184.372 251.464C183.771 251.464 183.23 251.321 182.754 251.03C182.277 250.74 181.9 250.329 181.625 249.798C181.35 249.263 181.213 248.658 181.213 247.98C181.213 247.301 181.35 246.692 181.625 246.161C181.9 245.626 182.273 245.215 182.754 244.929C183.23 244.638 183.771 244.495 184.372 244.495C184.973 244.495 185.514 244.638 185.99 244.929C186.466 245.22 186.84 245.63 187.11 246.161C187.376 246.697 187.514 247.301 187.514 247.98C187.514 248.658 187.38 249.267 187.11 249.798Z" fill="#00384E"/>
<path d="M166.716 243.434H164.446L160.094 247.569L165.304 252.715H167.574L162.283 247.569L166.716 243.434Z" fill="#00384E"/>
<path d="M158.375 241.237V252.711L160.087 251.465V239.848L158.375 241.237Z" fill="#00384E"/>
<path d="M155.035 250.833C154.585 251.105 154.087 251.239 153.537 251.239C152.988 251.239 152.507 251.105 152.052 250.833C151.598 250.56 151.241 250.173 150.975 249.67C150.709 249.162 150.576 248.622 150.576 248.04C150.576 247.14 150.868 246.374 151.452 245.737C152.035 245.1 152.731 244.787 153.542 244.787C154.353 244.787 155.048 245.105 155.632 245.737L156.761 244.81C155.907 243.822 154.834 243.328 153.542 243.328C152.25 243.328 151.177 243.827 150.323 244.819C149.55 245.724 149.164 246.794 149.164 248.022C149.164 249.25 149.572 250.339 150.387 251.262C151.203 252.19 152.254 252.651 153.542 252.651C154.829 252.651 155.877 252.19 156.692 251.262C156.967 250.953 157.194 250.625 157.374 250.284L156.108 249.665C155.846 250.173 155.486 250.56 155.035 250.828V250.833Z" fill="#00384E"/>
<path d="M105.734 248.188L108.657 249.969C108.657 249.969 113.567 246.821 113.575 246.817L114.013 246.544L116.7 244.874L114.013 243.166L108.506 246.475L105.751 244.768V244.744L111.159 241.371L114.013 243.111L116.7 241.371L111.159 237.992L103 243.064V252.244L105.725 250.551L105.734 248.188Z" fill="#3777BC"/>
<path d="M114.013 247.288V249.102L108.507 252.522L106.116 251.049L103.391 252.743L108.657 255.988L116.695 250.897V245.617L114.009 247.288H114.013Z" fill="#3777BC"/>
</g>
</g>
<circle cx="58.1786" cy="195.339" r="36.9286" fill="url(#paint0_linear_166_978)"/>
<circle cx="58.1786" cy="299.272" r="36.9286" fill="url(#paint1_linear_166_978)"/>
<circle cx="248.975" cy="195.339" r="36.9286" fill="url(#paint2_linear_166_978)"/>
<circle cx="248.975" cy="298.929" r="36.9286" fill="url(#paint3_linear_166_978)"/>
<circle cx="153.296" cy="138.929" r="36.9286" fill="url(#paint4_linear_166_978)"/>
<circle cx="153.296" cy="354.929" r="36.9286" fill="url(#paint5_linear_166_978)"/>
<path d="M37.7038 202.874C37.651 202.373 37.2467 202.074 36.6051 202.074C35.9371 202.074 35.568 202.382 35.5592 202.804C35.5504 203.261 36.0338 203.472 36.5788 203.595L37.15 203.735C38.2399 203.981 39.0573 204.535 39.0573 205.599C39.0573 206.768 38.1432 207.506 36.5963 207.506C35.0582 207.506 34.0739 206.794 34.0387 205.432H35.3219C35.3659 206.073 35.8756 206.398 36.5788 206.398C37.2731 206.398 37.7213 206.073 37.7213 205.599C37.7213 205.168 37.3258 204.966 36.6315 204.79L35.9371 204.623C34.8649 204.359 34.2057 203.823 34.2057 202.892C34.2057 201.731 35.2252 200.967 36.6139 200.967C38.0202 200.967 38.9518 201.749 38.9694 202.874H37.7038ZM41.7843 207.515C40.3254 207.515 39.4289 206.565 39.4289 205.054C39.4289 203.577 40.3341 202.584 41.7316 202.584C42.9884 202.584 43.9728 203.375 43.9728 205.001V205.37H40.7121C40.7121 206.091 41.1427 206.539 41.8107 206.539C42.2502 206.539 42.5666 206.346 42.6984 206.056H43.9377C43.7531 206.935 42.9621 207.515 41.7843 207.515ZM40.7121 204.553H42.7423C42.7423 203.973 42.338 203.56 41.758 203.56C41.1603 203.56 40.734 204.003 40.7121 204.553ZM47.0339 202.646V203.621H46.1374V205.95C46.1374 206.328 46.322 206.425 46.5856 206.434C46.7175 206.434 46.946 206.425 47.1042 206.407V207.436C46.9636 207.462 46.735 207.479 46.4098 207.479C45.4694 207.479 44.8278 207.058 44.8366 206.135V203.621H44.1774V202.646H44.8366V201.503H46.1374V202.646H47.0339ZM49.3855 209.211V202.646H50.6687V203.445H50.7214C50.8972 203.059 51.2839 202.584 52.0837 202.584C53.1384 202.584 54.0173 203.401 54.0173 205.036C54.0173 206.627 53.1736 207.497 52.0837 207.497C51.3015 207.497 50.906 207.049 50.7214 206.653H50.6863V209.211H49.3855ZM50.6599 205.027C50.6599 205.889 51.029 206.46 51.6706 206.46C52.3386 206.46 52.6902 205.871 52.6902 205.027C52.6902 204.192 52.3386 203.621 51.6706 203.621C51.0202 203.621 50.6599 204.166 50.6599 205.027ZM54.5911 207.418V202.646H55.8479V203.472H55.9006C56.0764 202.883 56.5159 202.575 57.052 202.575C57.1838 202.575 57.3508 202.593 57.4651 202.619V203.779C57.342 203.744 57.0959 203.709 56.9114 203.709C56.3225 203.709 55.8918 204.122 55.8918 204.702V207.418H54.5911ZM59.823 207.515C58.3816 207.515 57.4851 206.521 57.4851 205.045C57.4851 203.568 58.3816 202.584 59.823 202.584C61.2644 202.584 62.1697 203.568 62.1697 205.045C62.1697 206.521 61.2644 207.515 59.823 207.515ZM59.8318 206.504C60.4998 206.504 60.8425 205.88 60.8425 205.045C60.8425 204.201 60.4998 203.577 59.8318 203.577C59.155 203.577 58.8035 204.201 58.8035 205.045C58.8035 205.88 59.155 206.504 59.8318 206.504ZM64.4749 207.497C63.385 207.497 62.5325 206.627 62.5325 205.036C62.5325 203.401 63.4202 202.584 64.4749 202.584C65.2747 202.584 65.6526 203.059 65.8284 203.445H65.8723V201.055H67.1731V207.418H65.8899V206.653H65.8284C65.6438 207.049 65.2483 207.497 64.4749 207.497ZM64.8792 206.46C65.5296 206.46 65.8987 205.889 65.8987 205.027C65.8987 204.166 65.5296 203.621 64.8792 203.621C64.22 203.621 63.8684 204.192 63.8684 205.027C63.8684 205.871 64.22 206.46 64.8792 206.46ZM71.0076 205.388V202.646H72.3084V207.418H71.0604V206.557H71.0076C70.7879 207.11 70.2781 207.479 69.5574 207.479C68.5994 207.479 67.949 206.803 67.949 205.687V202.646H69.2498V205.458C69.2498 206.021 69.575 206.381 70.0848 206.381C70.5594 206.381 71.0076 206.038 71.0076 205.388ZM75.1937 207.515C73.7347 207.515 72.8558 206.504 72.8558 205.045C72.8558 203.586 73.7435 202.584 75.1937 202.584C76.4241 202.584 77.2591 203.305 77.3118 204.395H76.0902C76.0111 203.92 75.7034 203.595 75.2113 203.595C74.5872 203.595 74.1741 204.122 74.1741 205.027C74.1741 205.95 74.5784 206.478 75.2113 206.478C75.6683 206.478 76.0111 206.196 76.0902 205.687H77.3118C77.2503 206.768 76.4593 207.515 75.1937 207.515ZM80.3641 202.646V203.621H79.4676V205.95C79.4676 206.328 79.6522 206.425 79.9159 206.434C80.0477 206.434 80.2762 206.425 80.4344 206.407V207.436C80.2938 207.462 80.0653 207.479 79.7401 207.479C78.7996 207.479 78.158 207.058 78.1668 206.135V203.621H77.5077V202.646H78.1668V201.503H79.4676V202.646H80.3641ZM32.6312 219.418H31.2074L33.4135 213.055H35.1097L37.307 219.418H35.892L35.4174 217.95H33.1146L32.6312 219.418ZM33.4486 216.922H35.0834L34.2836 214.487H34.2396L33.4486 216.922ZM40.3505 216.061C40.2978 215.727 39.9989 215.507 39.5683 215.507C39.1464 215.507 38.8212 215.709 38.83 215.999C38.8212 216.21 38.997 216.377 39.4452 216.474L40.2978 216.649C41.2206 216.843 41.6688 217.256 41.6776 217.941C41.6688 218.882 40.8251 219.515 39.5595 219.515C38.2675 219.515 37.5116 218.935 37.4062 218.003H38.7157C38.7772 218.381 39.0849 218.574 39.5595 218.574C40.0341 218.574 40.3505 218.381 40.3505 218.073C40.3505 217.827 40.1483 217.678 39.7001 217.581L38.9091 217.423C38.0038 217.247 37.5292 216.772 37.538 216.069C37.5292 215.155 38.3202 214.584 39.5507 214.584C40.7548 214.584 41.5019 215.155 41.5722 216.061H40.3505ZM44.9321 216.061C44.8793 215.727 44.5805 215.507 44.1498 215.507C43.728 215.507 43.4028 215.709 43.4115 215.999C43.4028 216.21 43.5785 216.377 44.0268 216.474L44.8793 216.649C45.8022 216.843 46.2504 217.256 46.2592 217.941C46.2504 218.882 45.4067 219.515 44.141 219.515C42.849 219.515 42.0932 218.935 41.9877 218.003H43.2973C43.3588 218.381 43.6664 218.574 44.141 218.574C44.6156 218.574 44.9321 218.381 44.9321 218.073C44.9321 217.827 44.7299 217.678 44.2817 217.581L43.4906 217.423C42.5854 217.247 42.1108 216.772 42.1196 216.069C42.1108 215.155 42.9018 214.584 44.1322 214.584C45.3363 214.584 46.0834 215.155 46.1537 216.061H44.9321ZM46.789 219.418V214.646H48.0283V215.48H48.081C48.2831 214.927 48.7665 214.584 49.4081 214.584C50.0673 214.584 50.5507 214.927 50.7089 215.48H50.7529C50.955 214.936 51.4912 214.584 52.1943 214.584C53.082 214.584 53.6972 215.173 53.6972 216.21V219.418H52.3964V216.465C52.3964 215.92 52.08 215.656 51.6494 215.656C51.1572 215.656 50.8759 215.999 50.8759 216.5V219.418H49.6103V216.43C49.6103 215.955 49.3115 215.656 48.872 215.656C48.4326 215.656 48.0898 216.008 48.0898 216.553V219.418H46.789ZM55.1938 219.497C54.7807 219.497 54.4467 219.163 54.4555 218.759C54.4467 218.354 54.7807 218.029 55.1938 218.029C55.5805 218.029 55.9233 218.354 55.9233 218.759C55.9233 219.163 55.5805 219.497 55.1938 219.497ZM60.9644 212.756L58.9077 220.376H57.7915L59.8394 212.756H60.9644ZM65.355 219.418H63.1138V213.055H65.3814C67.2974 213.055 68.4663 214.25 68.4663 216.228C68.4663 218.223 67.2974 219.418 65.355 219.418ZM64.4322 218.284H65.3023C66.5152 218.284 67.148 217.651 67.148 216.228C67.148 214.812 66.5152 214.188 65.3111 214.188H64.4322V218.284ZM69.128 219.418V214.646H70.4288V219.418H69.128ZM69.7784 214.021C69.3829 214.021 69.0665 213.723 69.0665 213.362C69.0665 212.993 69.3829 212.694 69.7784 212.694C70.1651 212.694 70.4815 212.993 70.4815 213.362C70.4815 213.723 70.1651 214.021 69.7784 214.021ZM73.8941 216.061C73.8414 215.727 73.5426 215.507 73.1119 215.507C72.69 215.507 72.3648 215.709 72.3736 215.999C72.3648 216.21 72.5406 216.377 72.9888 216.474L73.8414 216.649C74.7642 216.843 75.2125 217.256 75.2213 217.941C75.2125 218.882 74.3687 219.515 73.1031 219.515C71.8111 219.515 71.0553 218.935 70.9498 218.003H72.2594C72.3209 218.381 72.6285 218.574 73.1031 218.574C73.5777 218.574 73.8941 218.381 73.8941 218.073C73.8941 217.827 73.692 217.678 73.2437 217.581L72.4527 217.423C71.5474 217.247 71.0728 216.772 71.0816 216.069C71.0728 215.155 71.8638 214.584 73.0943 214.584C74.2984 214.584 75.0455 215.155 75.1158 216.061H73.8941ZM75.7511 219.418V214.646H76.9903V215.48H77.0431C77.2452 214.927 77.7286 214.584 78.3702 214.584C79.0294 214.584 79.5128 214.927 79.671 215.48H79.7149C79.9171 214.936 80.4532 214.584 81.1563 214.584C82.044 214.584 82.6593 215.173 82.6593 216.21V219.418H81.3585V216.465C81.3585 215.92 81.0421 215.656 80.6114 215.656C80.1192 215.656 79.838 215.999 79.838 216.5V219.418H78.5724V216.43C78.5724 215.955 78.2735 215.656 77.8341 215.656C77.3946 215.656 77.0519 216.008 77.0519 216.553V219.418H75.7511ZM84.1559 219.497C83.7428 219.497 83.4088 219.163 83.4176 218.759C83.4088 218.354 83.7428 218.029 84.1559 218.029C84.5426 218.029 84.8854 218.354 84.8854 218.759C84.8854 219.163 84.5426 219.497 84.1559 219.497Z" fill="white"/>
<path d="M37.4845 306.074V304.984H42.6964V306.074H40.7453V311.348H39.4357V306.074H37.4845ZM42.7165 311.348V306.575H43.9733V307.401H44.0261C44.2018 306.812 44.6413 306.505 45.1774 306.505C45.3093 306.505 45.4763 306.522 45.5905 306.549V307.709C45.4675 307.674 45.2214 307.639 45.0368 307.639C44.4479 307.639 44.0173 308.052 44.0173 308.632V311.348H42.7165ZM45.593 310.012C45.593 308.948 46.4543 308.597 47.3684 308.544C47.7111 308.522 48.3527 308.491 48.5549 308.482V308.096C48.5461 307.7 48.2736 307.463 47.7902 307.463C47.3508 307.463 47.0695 307.665 46.9992 307.99H45.76C45.8391 307.164 46.5598 306.514 47.8254 306.514C48.8625 306.514 49.8469 306.979 49.8469 308.131V311.348H48.6164V310.688H48.5813C48.3439 311.128 47.8957 311.436 47.1838 311.436C46.2697 311.436 45.593 310.961 45.593 310.012ZM46.841 309.977C46.841 310.346 47.1398 310.539 47.5529 310.539C48.1418 310.539 48.5637 310.144 48.5549 309.643V309.291C48.3571 309.3 47.8034 309.331 47.5793 309.353C47.1311 309.396 46.841 309.607 46.841 309.977ZM51.8708 308.588V311.348H50.57V306.575H51.8093V307.41H51.862C52.0818 306.856 52.5915 306.514 53.2946 306.514C54.2878 306.514 54.947 307.19 54.9382 308.307V311.348H53.6462V308.535C53.6462 307.946 53.321 307.595 52.7849 307.595C52.24 307.595 51.8708 307.955 51.8708 308.588ZM58.4036 307.99C58.3508 307.656 58.052 307.437 57.6213 307.437C57.1995 307.437 56.8743 307.639 56.883 307.929C56.8743 308.14 57.05 308.307 57.4983 308.403L58.3508 308.579C59.2737 308.772 59.7219 309.186 59.7307 309.871C59.7219 310.812 58.8782 311.444 57.6125 311.444C56.3205 311.444 55.5647 310.864 55.4592 309.933H56.7688C56.8303 310.311 57.1379 310.504 57.6125 310.504C58.0871 310.504 58.4036 310.311 58.4036 310.003C58.4036 309.757 58.2014 309.607 57.7532 309.511L56.9621 309.353C56.0569 309.177 55.5823 308.702 55.5911 307.999C55.5823 307.085 56.3733 306.514 57.6038 306.514C58.8079 306.514 59.5549 307.085 59.6252 307.99H58.4036ZM60.2605 313.141V306.575H61.5437V307.375H61.5964C61.7722 306.988 62.1589 306.514 62.9587 306.514C64.0134 306.514 64.8923 307.331 64.8923 308.966C64.8923 310.557 64.0486 311.427 62.9587 311.427C62.1765 311.427 61.781 310.979 61.5964 310.583H61.5613V313.141H60.2605ZM61.5349 308.957C61.5349 309.818 61.9041 310.39 62.5457 310.39C63.2136 310.39 63.5652 309.801 63.5652 308.957C63.5652 308.122 63.2136 307.551 62.5457 307.551C61.8953 307.551 61.5349 308.096 61.5349 308.957ZM67.6106 311.444C66.1692 311.444 65.2727 310.451 65.2727 308.975C65.2727 307.498 66.1692 306.514 67.6106 306.514C69.052 306.514 69.9573 307.498 69.9573 308.975C69.9573 310.451 69.052 311.444 67.6106 311.444ZM67.6194 310.434C68.2874 310.434 68.6302 309.81 68.6302 308.975C68.6302 308.131 68.2874 307.507 67.6194 307.507C66.9427 307.507 66.5911 308.131 66.5911 308.975C66.5911 309.81 66.9427 310.434 67.6194 310.434ZM70.5047 311.348V306.575H71.7615V307.401H71.8143C71.99 306.812 72.4295 306.505 72.9656 306.505C73.0975 306.505 73.2645 306.522 73.3787 306.549V307.709C73.2557 307.674 73.0096 307.639 72.825 307.639C72.2361 307.639 71.8055 308.052 71.8055 308.632V311.348H70.5047ZM76.4925 306.575V307.551H75.596V309.88C75.596 310.258 75.7806 310.354 76.0443 310.363C76.1761 310.363 76.4046 310.354 76.5628 310.337V311.365C76.4222 311.392 76.1937 311.409 75.8685 311.409C74.928 311.409 74.2864 310.987 74.2952 310.064V307.551H73.6361V306.575H74.2952V305.433H75.596V306.575H76.4925ZM50.226 316.984V323.348H48.9253V316.984H50.226ZM50.7383 322.012C50.7383 320.948 51.5996 320.597 52.5137 320.544C52.8564 320.522 53.498 320.491 53.7002 320.482V320.096C53.6914 319.7 53.4189 319.463 52.9355 319.463C52.4961 319.463 52.2148 319.665 52.1445 319.99H50.9053C50.9844 319.164 51.7051 318.514 52.9707 318.514C54.0078 318.514 54.9922 318.979 54.9922 320.131V323.348H53.7617V322.688H53.7265C53.4892 323.128 53.041 323.436 52.3291 323.436C51.415 323.436 50.7383 322.961 50.7383 322.012ZM51.9863 321.977C51.9863 322.346 52.2851 322.539 52.6982 322.539C53.2871 322.539 53.709 322.144 53.7002 321.643V321.291C53.5024 321.3 52.9487 321.331 52.7246 321.353C52.2763 321.396 51.9863 321.607 51.9863 321.977ZM55.7417 323.348V316.984H57.0425V319.375H57.0776C57.2622 318.988 57.6401 318.514 58.4399 318.514C59.4946 318.514 60.3823 319.331 60.3823 320.966C60.3823 322.557 59.5298 323.427 58.4399 323.427C57.6577 323.427 57.2622 322.979 57.0776 322.583H57.0249V323.348H55.7417ZM57.0161 320.957C57.0161 321.818 57.3853 322.39 58.0269 322.39C58.6948 322.39 59.0464 321.801 59.0464 320.957C59.0464 320.122 58.6948 319.551 58.0269 319.551C57.3765 319.551 57.0161 320.096 57.0161 320.957ZM63.1094 323.444C61.6504 323.444 60.7539 322.495 60.7539 320.983C60.7539 319.507 61.6592 318.514 63.0567 318.514C64.3135 318.514 65.2979 319.305 65.2979 320.931V321.3H62.0371C62.0371 322.021 62.4678 322.469 63.1358 322.469C63.5752 322.469 63.8916 322.275 64.0235 321.985H65.2627C65.0781 322.864 64.2871 323.444 63.1094 323.444ZM62.0371 320.482H64.0674C64.0674 319.902 63.6631 319.489 63.083 319.489C62.4854 319.489 62.0591 319.933 62.0371 320.482ZM67.146 316.984V323.348H65.8453V316.984H67.146Z" fill="white"/>
<path d="M234.366 204.236C234.366 206.311 233.074 207.506 231.395 207.506C229.699 207.506 228.416 206.302 228.416 204.236C228.416 202.162 229.699 200.967 231.395 200.967C233.074 200.967 234.366 202.162 234.366 204.236ZM233.021 204.236C233.021 202.874 232.38 202.136 231.395 202.136C230.411 202.136 229.761 202.874 229.761 204.236C229.761 205.599 230.411 206.337 231.395 206.337C232.38 206.337 233.021 205.599 233.021 204.236ZM238.078 205.388V202.646H239.378V207.418H238.13V206.557H238.078C237.858 207.11 237.348 207.479 236.627 207.479C235.669 207.479 235.019 206.803 235.019 205.687V202.646H236.32V205.458C236.32 206.021 236.645 206.381 237.155 206.381C237.629 206.381 238.078 206.038 238.078 205.388ZM242.633 202.646V203.621H241.736V205.95C241.736 206.328 241.921 206.425 242.185 206.434C242.316 206.434 242.545 206.425 242.703 206.407V207.436C242.562 207.462 242.334 207.479 242.009 207.479C241.068 207.479 240.427 207.058 240.436 206.135V203.621H239.776V202.646H240.436V201.503H241.736V202.646H242.633ZM243.312 207.418V201.055H244.613V203.445H244.648C244.832 203.059 245.21 202.584 246.01 202.584C247.065 202.584 247.953 203.401 247.953 205.036C247.953 206.627 247.1 207.497 246.01 207.497C245.228 207.497 244.832 207.049 244.648 206.653H244.595V207.418H243.312ZM244.586 205.027C244.586 205.889 244.956 206.46 245.597 206.46C246.265 206.46 246.617 205.871 246.617 205.027C246.617 204.192 246.265 203.621 245.597 203.621C244.947 203.621 244.586 204.166 244.586 205.027ZM250.662 207.515C249.221 207.515 248.324 206.521 248.324 205.045C248.324 203.568 249.221 202.584 250.662 202.584C252.104 202.584 253.009 203.568 253.009 205.045C253.009 206.521 252.104 207.515 250.662 207.515ZM250.671 206.504C251.339 206.504 251.682 205.88 251.682 205.045C251.682 204.201 251.339 203.577 250.671 203.577C249.994 203.577 249.643 204.201 249.643 205.045C249.643 205.88 249.994 206.504 250.671 206.504ZM256.615 205.388V202.646H257.916V207.418H256.667V206.557H256.615C256.395 207.11 255.885 207.479 255.165 207.479C254.207 207.479 253.556 206.803 253.556 205.687V202.646H254.857V205.458C254.857 206.021 255.182 206.381 255.692 206.381C256.167 206.381 256.615 206.038 256.615 205.388ZM259.957 204.658V207.418H258.656V202.646H259.896V203.48H259.948C260.168 202.927 260.678 202.584 261.381 202.584C262.374 202.584 263.033 203.261 263.024 204.377V207.418H261.732V204.605C261.732 204.017 261.407 203.665 260.871 203.665C260.326 203.665 259.957 204.025 259.957 204.658ZM265.523 207.497C264.433 207.497 263.581 206.627 263.581 205.036C263.581 203.401 264.468 202.584 265.523 202.584C266.323 202.584 266.701 203.059 266.877 203.445H266.92V201.055H268.221V207.418H266.938V206.653H266.877C266.692 207.049 266.296 207.497 265.523 207.497ZM265.927 206.46C266.578 206.46 266.947 205.889 266.947 205.027C266.947 204.166 266.578 203.621 265.927 203.621C265.268 203.621 264.917 204.192 264.917 205.027C264.917 205.871 265.268 206.46 265.927 206.46ZM241.187 219.515C239.746 219.515 238.849 218.521 238.849 217.045C238.849 215.568 239.746 214.584 241.187 214.584C242.628 214.584 243.534 215.568 243.534 217.045C243.534 218.521 242.628 219.515 241.187 219.515ZM241.196 218.504C241.864 218.504 242.207 217.88 242.207 217.045C242.207 216.201 241.864 215.577 241.196 215.577C240.519 215.577 240.167 216.201 240.167 217.045C240.167 217.88 240.519 218.504 241.196 218.504ZM244.081 219.418V214.646H245.338V215.472H245.391C245.566 214.883 246.006 214.575 246.542 214.575C246.674 214.575 246.841 214.593 246.955 214.619V215.779C246.832 215.744 246.586 215.709 246.401 215.709C245.812 215.709 245.382 216.122 245.382 216.702V219.418H244.081ZM248.926 219.497C247.836 219.497 246.984 218.627 246.984 217.036C246.984 215.401 247.872 214.584 248.926 214.584C249.726 214.584 250.104 215.059 250.28 215.445H250.324V213.055H251.625V219.418H250.341V218.653H250.28C250.095 219.049 249.7 219.497 248.926 219.497ZM249.331 218.46C249.981 218.46 250.35 217.889 250.35 217.027C250.35 216.166 249.981 215.621 249.331 215.621C248.671 215.621 248.32 216.192 248.32 217.027C248.32 217.871 248.671 218.46 249.331 218.46ZM254.563 219.515C253.104 219.515 252.207 218.565 252.207 217.054C252.207 215.577 253.112 214.584 254.51 214.584C255.767 214.584 256.751 215.375 256.751 217.001V217.37H253.49C253.49 218.091 253.921 218.539 254.589 218.539C255.028 218.539 255.345 218.346 255.477 218.056H256.716C256.531 218.935 255.74 219.515 254.563 219.515ZM253.49 216.553H255.521C255.521 215.973 255.116 215.56 254.536 215.56C253.938 215.56 253.512 216.003 253.49 216.553ZM257.298 219.418V214.646H258.555V215.472H258.608C258.784 214.883 259.223 214.575 259.759 214.575C259.891 214.575 260.058 214.593 260.172 214.619V215.779C260.049 215.744 259.803 215.709 259.619 215.709C259.03 215.709 258.599 216.122 258.599 216.702V219.418H257.298Z" fill="white"/>
<rect x="54.125" y="173.652" width="12.7292" height="12.7292" rx="1.11905" fill="white"/>
<rect x="51.8095" y="177.22" width="11.6101" height="11.6101" rx="0.559524" stroke="white" stroke-width="1.11905"/>
<path d="M51.7448 179.18H50.4159C49.7979 179.18 49.2969 179.681 49.2969 180.299V190.79C49.2969 191.408 49.7979 191.909 50.4159 191.909H60.907C61.525 191.909 62.026 191.408 62.026 190.79V188.762" stroke="white" stroke-width="1.11905"/>
<path d="M60.6309 278.017C60.4255 277.833 60.159 277.73 59.8829 277.73H52.0253C51.4073 277.73 50.9062 278.231 50.9062 278.85V295.076C50.9062 295.694 51.4073 296.195 52.0253 296.195H64.3348C64.9529 296.195 65.4539 295.694 65.4539 295.076V282.851C65.4539 282.533 65.319 282.231 65.0829 282.019L60.6309 278.017Z" fill="white"/>
<path d="M59.5781 279.406V283.043H63.6291" stroke="#3CA7F8" stroke-width="1.11905" stroke-miterlimit="10" stroke-linecap="round" stroke-linejoin="round"/>
<path d="M53.6641 286.68H59.2929" stroke="#3CA7F8" stroke-width="1.11905" stroke-miterlimit="10" stroke-linecap="round" stroke-linejoin="round"/>
<path d="M53.6641 290.598H62.65" stroke="#3CA7F8" stroke-width="1.11905" stroke-miterlimit="10" stroke-linecap="round" stroke-linejoin="round"/>
<path d="M253.483 172.75H243.971C243.353 172.75 242.852 173.251 242.852 173.869V180.721C242.852 181.339 243.353 181.84 243.971 181.84H253.483C254.101 181.84 254.603 181.339 254.603 180.721V173.869C254.603 173.251 254.101 172.75 253.483 172.75Z" fill="white"/>
<path d="M255.824 185.125H242.115C240.222 185.125 238.688 186.708 238.688 188.66C238.688 190.612 240.222 192.195 242.115 192.195H255.824C257.717 192.195 259.252 190.612 259.252 188.66C259.252 186.708 257.717 185.125 255.824 185.125Z" stroke="white" stroke-width="1.11905" stroke-miterlimit="10"/>
<path d="M243.589 189.668C244.129 189.668 244.568 189.216 244.568 188.658C244.568 188.101 244.129 187.648 243.589 187.648C243.048 187.648 242.609 188.101 242.609 188.658C242.609 189.216 243.048 189.668 243.589 189.668Z" fill="white" stroke="white" stroke-width="0.559524" stroke-miterlimit="10"/>
<path d="M253.87 189.668C254.411 189.668 254.849 189.216 254.849 188.658C254.849 188.101 254.411 187.648 253.87 187.648C253.329 187.648 252.891 188.101 252.891 188.658C252.891 189.216 253.329 189.668 253.87 189.668Z" fill="white" stroke="white" stroke-width="0.559524" stroke-miterlimit="10"/>
<path d="M246.25 177.426H250.441" stroke="#3CA7F8" stroke-width="1.11905" stroke-miterlimit="10" stroke-linecap="round" stroke-linejoin="round"/>
<path d="M248.484 175.398L250.443 177.418L248.484 179.439" stroke="#3CA7F8" stroke-width="1.11905" stroke-miterlimit="10" stroke-linecap="round" stroke-linejoin="round"/>
<path d="M231.836 309.773V316.137H230.517V309.773H231.836ZM233.913 313.377V316.137H232.612V311.364H233.851V312.199H233.904C234.123 311.646 234.633 311.303 235.336 311.303C236.33 311.303 236.989 311.979 236.98 313.096V316.137H235.688V313.324C235.688 312.735 235.363 312.384 234.827 312.384C234.282 312.384 233.913 312.744 233.913 313.377ZM241.975 311.364L240.296 316.137H238.837L237.167 311.364H238.538L239.54 314.792H239.593L240.595 311.364H241.975ZM244.341 316.233C242.882 316.233 241.986 315.284 241.986 313.772C241.986 312.296 242.891 311.303 244.289 311.303C245.545 311.303 246.53 312.094 246.53 313.72V314.089H243.269C243.269 314.81 243.7 315.258 244.368 315.258C244.807 315.258 245.124 315.064 245.255 314.774H246.495C246.31 315.653 245.519 316.233 244.341 316.233ZM243.269 313.271H245.299C245.299 312.691 244.895 312.278 244.315 312.278C243.717 312.278 243.291 312.722 243.269 313.271ZM248.378 313.377V316.137H247.077V311.364H248.316V312.199H248.369C248.589 311.646 249.099 311.303 249.802 311.303C250.795 311.303 251.454 311.979 251.445 313.096V316.137H250.153V313.324C250.153 312.735 249.828 312.384 249.292 312.384C248.747 312.384 248.378 312.744 248.378 313.377ZM254.7 311.364V312.34H253.803V314.669C253.803 315.047 253.988 315.144 254.251 315.152C254.383 315.152 254.612 315.144 254.77 315.126V316.154C254.629 316.181 254.401 316.198 254.076 316.198C253.135 316.198 252.494 315.776 252.502 314.854V312.34H251.843V311.364H252.502V310.222H253.803V311.364H254.7ZM257.339 316.233C255.897 316.233 255.001 315.24 255.001 313.764C255.001 312.287 255.897 311.303 257.339 311.303C258.78 311.303 259.686 312.287 259.686 313.764C259.686 315.24 258.78 316.233 257.339 316.233ZM257.348 315.223C258.016 315.223 258.358 314.599 258.358 313.764C258.358 312.92 258.016 312.296 257.348 312.296C256.671 312.296 256.319 312.92 256.319 313.764C256.319 314.599 256.671 315.223 257.348 315.223ZM262.747 311.364V312.34H261.85V314.669C261.85 315.047 262.035 315.144 262.298 315.152C262.43 315.152 262.659 315.144 262.817 315.126V316.154C262.676 316.181 262.448 316.198 262.123 316.198C261.182 316.198 260.541 315.776 260.549 314.854V312.34H259.89V311.364H260.549V310.222H261.85V311.364H262.747ZM264.059 317.93C263.804 317.93 263.566 317.921 263.399 317.903V316.893C263.566 316.901 263.76 316.91 263.927 316.91C264.182 316.91 264.393 316.884 264.551 316.471L264.63 316.269L262.916 311.364H264.278L265.28 314.88H265.333L266.344 311.364H267.724L265.86 316.664C265.588 317.429 265.069 317.93 264.059 317.93Z" fill="white"/>
<path d="M255.685 282.66H242.816C241.58 282.66 240.578 283.662 240.578 284.898V297.767C240.578 299.003 241.58 300.005 242.816 300.005H255.685C256.921 300.005 257.923 299.003 257.923 297.767V284.898C257.923 283.662 256.921 282.66 255.685 282.66Z" fill="white"/>
<path d="M246.453 283.117V288.138L249.479 286.851L252.506 288.138V283.117" stroke="#3CA7F8" stroke-width="1.11905" stroke-linecap="square" stroke-linejoin="round"/>
<path d="M246.281 293.386L248.564 295.668L252.681 291.332" stroke="#3CA7F8" stroke-width="1.11905" stroke-linecap="round" stroke-linejoin="round"/>
<path d="M148.264 151.955C148.264 154.029 146.972 155.225 145.293 155.225C143.597 155.225 142.313 154.021 142.313 151.955C142.313 149.881 143.597 148.686 145.293 148.686C146.972 148.686 148.264 149.881 148.264 151.955ZM146.919 151.955C146.919 150.593 146.277 149.854 145.293 149.854C144.309 149.854 143.658 150.593 143.658 151.955C143.658 153.317 144.309 154.056 145.293 154.056C146.277 154.056 146.919 153.317 146.919 151.955ZM148.916 155.137V150.364H150.173V151.19H150.226C150.402 150.602 150.841 150.294 151.377 150.294C151.509 150.294 151.676 150.312 151.791 150.338V151.498C151.667 151.463 151.421 151.428 151.237 151.428C150.648 151.428 150.217 151.841 150.217 152.421V155.137H148.916ZM153.762 155.216C152.672 155.216 151.819 154.346 151.819 152.755C151.819 151.12 152.707 150.303 153.762 150.303C154.562 150.303 154.939 150.777 155.115 151.164H155.159V148.773H156.46V155.137H155.177V154.372H155.115C154.931 154.768 154.535 155.216 153.762 155.216ZM154.166 154.179C154.816 154.179 155.186 153.607 155.186 152.746C155.186 151.885 154.816 151.34 154.166 151.34C153.507 151.34 153.155 151.911 153.155 152.746C153.155 153.59 153.507 154.179 154.166 154.179ZM159.398 155.233C157.939 155.233 157.042 154.284 157.042 152.772C157.042 151.296 157.948 150.303 159.345 150.303C160.602 150.303 161.586 151.094 161.586 152.72V153.089H158.326C158.326 153.81 158.756 154.258 159.424 154.258C159.864 154.258 160.18 154.064 160.312 153.774H161.551C161.367 154.653 160.576 155.233 159.398 155.233ZM158.326 152.271H160.356C160.356 151.691 159.952 151.278 159.372 151.278C158.774 151.278 158.348 151.722 158.326 152.271ZM162.134 155.137V150.364H163.391V151.19H163.443C163.619 150.602 164.059 150.294 164.595 150.294C164.727 150.294 164.894 150.312 165.008 150.338V151.498C164.885 151.463 164.639 151.428 164.454 151.428C163.865 151.428 163.435 151.841 163.435 152.421V155.137H162.134Z" fill="white"/>
<g clip-path="url(#clip2_166_978)">
<path d="M160.057 123.398H147.097C146.504 123.398 146.023 123.889 146.023 124.495V139.866C146.023 140.471 146.504 140.962 147.097 140.962H160.057C160.65 140.962 161.131 140.471 161.131 139.866V124.495C161.131 123.889 160.65 123.398 160.057 123.398Z" fill="white"/>
<path d="M150.453 132.193L152.78 134.576L156.984 130.051" fill="white"/>
<path d="M150.453 132.193L152.78 134.576L156.984 130.051" stroke="#3CA7F8" stroke-width="1.11905" stroke-linecap="round" stroke-linejoin="round"/>
<path d="M157.231 121.27H149.938V124.995H157.231V121.27Z" fill="white" stroke="#3CA7F8" stroke-width="1.11905" stroke-linecap="square" stroke-linejoin="round"/>
</g>
<path d="M139.704 367.589C139.651 367.088 139.247 366.789 138.605 366.789C137.937 366.789 137.568 367.097 137.559 367.519C137.55 367.976 138.034 368.187 138.579 368.31L139.15 368.45C140.24 368.696 141.057 369.25 141.057 370.313C141.057 371.482 140.143 372.221 138.596 372.221C137.058 372.221 136.074 371.509 136.039 370.146H137.322C137.366 370.788 137.876 371.113 138.579 371.113C139.273 371.113 139.721 370.788 139.721 370.313C139.721 369.883 139.326 369.681 138.632 369.505L137.937 369.338C136.865 369.074 136.206 368.538 136.206 367.606C136.206 366.446 137.225 365.682 138.614 365.682C140.02 365.682 140.952 366.464 140.969 367.589H139.704ZM142.923 369.373V372.133H141.622V365.77H142.888V368.195H142.941C143.16 367.642 143.644 367.299 144.364 367.299C145.358 367.299 146.017 367.967 146.017 369.092V372.133H144.716V369.32C144.716 368.731 144.4 368.38 143.855 368.38C143.31 368.38 142.923 368.74 142.923 369.373ZM146.749 372.133V367.36H148.05V372.133H146.749ZM147.399 366.736C147.004 366.736 146.687 366.438 146.687 366.077C146.687 365.708 147.004 365.409 147.399 365.409C147.786 365.409 148.102 365.708 148.102 366.077C148.102 366.438 147.786 366.736 147.399 366.736ZM148.79 373.926V367.36H150.073V368.16H150.126C150.302 367.773 150.689 367.299 151.489 367.299C152.543 367.299 153.422 368.116 153.422 369.751C153.422 371.342 152.578 372.212 151.489 372.212C150.706 372.212 150.311 371.764 150.126 371.368H150.091V373.926H148.79ZM150.065 369.742C150.065 370.604 150.434 371.175 151.075 371.175C151.743 371.175 152.095 370.586 152.095 369.742C152.095 368.907 151.743 368.336 151.075 368.336C150.425 368.336 150.065 368.881 150.065 369.742ZM153.996 373.926V367.36H155.279V368.16H155.332C155.508 367.773 155.894 367.299 156.694 367.299C157.749 367.299 158.628 368.116 158.628 369.751C158.628 371.342 157.784 372.212 156.694 372.212C155.912 372.212 155.516 371.764 155.332 371.368H155.297V373.926H153.996ZM155.27 369.742C155.27 370.604 155.639 371.175 156.281 371.175C156.949 371.175 157.301 370.586 157.301 369.742C157.301 368.907 156.949 368.336 156.281 368.336C155.631 368.336 155.27 368.881 155.27 369.742ZM159.201 372.133V367.36H160.502V372.133H159.201ZM159.852 366.736C159.456 366.736 159.14 366.438 159.14 366.077C159.14 365.708 159.456 365.409 159.852 365.409C160.239 365.409 160.555 365.708 160.555 366.077C160.555 366.438 160.239 366.736 159.852 366.736ZM162.544 369.373V372.133H161.243V367.36H162.482V368.195H162.535C162.755 367.642 163.264 367.299 163.968 367.299C164.961 367.299 165.62 367.976 165.611 369.092V372.133H164.319V369.32C164.319 368.731 163.994 368.38 163.458 368.38C162.913 368.38 162.544 368.74 162.544 369.373ZM168.496 374.022C167.178 374.022 166.369 373.434 166.29 372.528H167.574C167.644 372.906 168.004 373.082 168.523 373.082C169.129 373.082 169.534 372.827 169.534 372.159V371.289H169.472C169.296 371.676 168.874 372.062 168.11 372.062C167.029 372.062 166.167 371.307 166.167 369.716C166.167 368.099 167.055 367.299 168.11 367.299C168.909 367.299 169.296 367.773 169.472 368.16H169.525V367.36H170.817V372.186C170.817 373.398 169.85 374.022 168.496 374.022ZM168.514 371.087C169.164 371.087 169.534 370.577 169.534 369.733C169.534 368.881 169.164 368.336 168.514 368.336C167.855 368.336 167.503 368.907 167.503 369.733C167.503 370.56 167.855 371.087 168.514 371.087Z" fill="white"/>
<g clip-path="url(#clip3_166_978)">
<path d="M155.876 338.102H144.202C143.97 338.102 143.781 338.289 143.781 338.519V352.107C143.781 352.338 143.97 352.525 144.202 352.525H155.876C156.109 352.525 156.297 352.338 156.297 352.107V338.519C156.297 338.289 156.109 338.102 155.876 338.102Z" fill="white"/>
<path d="M156.297 341.855V352.524H162.805V345.77L159.551 341.855H156.297Z" fill="white"/>
<path d="M156.797 347.184H162.304" stroke="#3CA7F8" stroke-width="1.11905" stroke-linecap="square" stroke-linejoin="round"/>
<path d="M148.284 355.509C149.667 355.509 150.788 354.395 150.788 353.022C150.788 351.649 149.667 350.535 148.284 350.535C146.902 350.535 145.781 351.649 145.781 353.022C145.781 354.395 146.902 355.509 148.284 355.509Z" fill="white" stroke="#3CA7F8" stroke-width="1.11905" stroke-linecap="square" stroke-linejoin="round"/>
<path d="M159.3 355.509C160.682 355.509 161.803 354.395 161.803 353.022C161.803 351.649 160.682 350.535 159.3 350.535C157.918 350.535 156.797 351.649 156.797 353.022C156.797 354.395 157.918 355.509 159.3 355.509Z" fill="white" stroke="#3CA7F8" stroke-width="1.11905" stroke-linecap="square" stroke-linejoin="round"/>
<path d="M156.461 337.785V352.523" stroke="#3CA7F8" stroke-width="1.11905" stroke-miterlimit="10"/>
</g>
<circle cx="153.295" cy="73.361" r="3.35714" fill="#DADDE6"/>
<circle cx="3.36496" cy="161.068" r="3.35714" fill="#DADDE6"/>
<circle cx="304.904" cy="161.068" r="3.35714" fill="#DADDE6"/>
<circle cx="3.36496" cy="333.396" r="3.35714" fill="#DADDE6"/>
<circle cx="303.787" cy="333.396" r="3.35714" fill="#DADDE6"/>
<circle cx="153.295" cy="419.424" r="3.35714" fill="#DADDE6"/>
<circle cx="17.5925" cy="152.596" r="1.11905" transform="rotate(-30.1927 17.5925 152.596)" fill="#DADDE6"/>
<circle cx="31.1316" cy="144.717" r="1.11905" transform="rotate(-30.1927 31.1316 144.717)" fill="#DADDE6"/>
<circle cx="44.6785" cy="136.838" r="1.11905" transform="rotate(-30.1927 44.6785 136.838)" fill="#DADDE6"/>
<circle cx="58.2175" cy="128.959" r="1.11905" transform="rotate(-30.1927 58.2175 128.959)" fill="#DADDE6"/>
<circle cx="71.7566" cy="121.08" r="1.11905" transform="rotate(-30.1927 71.7566 121.08)" fill="#DADDE6"/>
<circle cx="85.2956" cy="113.201" r="1.11905" transform="rotate(-30.1927 85.2956 113.201)" fill="#DADDE6"/>
<circle cx="98.8425" cy="105.322" r="1.11905" transform="rotate(-30.1927 98.8425 105.322)" fill="#DADDE6"/>
<circle cx="112.382" cy="97.4435" r="1.11905" transform="rotate(-30.1927 112.382 97.4435)" fill="#DADDE6"/>
<circle cx="125.921" cy="89.5646" r="1.11905" transform="rotate(-30.1927 125.921 89.5646)" fill="#DADDE6"/>
<circle cx="139.468" cy="81.6857" r="1.11905" transform="rotate(-30.1927 139.468 81.6857)" fill="#DADDE6"/>
<circle cx="3.36905" cy="317.662" r="1.11905" transform="rotate(-90 3.36905 317.662)" fill="#DADDE6"/>
<circle cx="3.36905" cy="301.994" r="1.11905" transform="rotate(-90 3.36905 301.994)" fill="#DADDE6"/>
<circle cx="3.36905" cy="286.33" r="1.11905" transform="rotate(-90 3.36905 286.33)" fill="#DADDE6"/>
<circle cx="3.36905" cy="270.662" r="1.11905" transform="rotate(-90 3.36905 270.662)" fill="#DADDE6"/>
<circle cx="3.36905" cy="254.994" r="1.11905" transform="rotate(-90 3.36905 254.994)" fill="#DADDE6"/>
<circle cx="3.36905" cy="239.33" r="1.11905" transform="rotate(-90 3.36905 239.33)" fill="#DADDE6"/>
<circle cx="3.36905" cy="223.662" r="1.11905" transform="rotate(-90 3.36905 223.662)" fill="#DADDE6"/>
<circle cx="3.36905" cy="207.994" r="1.11905" transform="rotate(-90 3.36905 207.994)" fill="#DADDE6"/>
<circle cx="3.36905" cy="192.33" r="1.11905" transform="rotate(-90 3.36905 192.33)" fill="#DADDE6"/>
<circle cx="3.36905" cy="176.662" r="1.11905" transform="rotate(-90 3.36905 176.662)" fill="#DADDE6"/>
<circle cx="303.783" cy="317.662" r="1.11905" transform="rotate(-90 303.783 317.662)" fill="#DADDE6"/>
<circle cx="303.783" cy="301.994" r="1.11905" transform="rotate(-90 303.783 301.994)" fill="#DADDE6"/>
<circle cx="303.783" cy="286.33" r="1.11905" transform="rotate(-90 303.783 286.33)" fill="#DADDE6"/>
<circle cx="303.783" cy="270.662" r="1.11905" transform="rotate(-90 303.783 270.662)" fill="#DADDE6"/>
<circle cx="303.783" cy="254.994" r="1.11905" transform="rotate(-90 303.783 254.994)" fill="#DADDE6"/>
<circle cx="303.783" cy="239.33" r="1.11905" transform="rotate(-90 303.783 239.33)" fill="#DADDE6"/>
<circle cx="303.783" cy="223.662" r="1.11905" transform="rotate(-90 303.783 223.662)" fill="#DADDE6"/>
<circle cx="303.783" cy="207.994" r="1.11905" transform="rotate(-90 303.783 207.994)" fill="#DADDE6"/>
<circle cx="303.783" cy="192.33" r="1.11905" transform="rotate(-90 303.783 192.33)" fill="#DADDE6"/>
<circle cx="303.783" cy="176.662" r="1.11905" transform="rotate(-90 303.783 176.662)" fill="#DADDE6"/>
<circle cx="1.11905" cy="1.11905" r="1.11905" transform="matrix(0.864339 0.502909 0.502909 -0.864339 16.0625 341.641)" fill="#DADDE6"/>
<circle cx="1.11905" cy="1.11905" r="1.11905" transform="matrix(0.864339 0.502909 0.502909 -0.864339 29.6016 349.52)" fill="#DADDE6"/>
<circle cx="1.11905" cy="1.11905" r="1.11905" transform="matrix(0.864339 0.502909 0.502909 -0.864339 43.1484 357.398)" fill="#DADDE6"/>
<circle cx="1.11905" cy="1.11905" r="1.11905" transform="matrix(0.864339 0.502909 0.502909 -0.864339 56.6875 365.277)" fill="#DADDE6"/>
<circle cx="1.11905" cy="1.11905" r="1.11905" transform="matrix(0.864339 0.502909 0.502909 -0.864339 70.2266 373.156)" fill="#DADDE6"/>
<circle cx="1.11905" cy="1.11905" r="1.11905" transform="matrix(0.864339 0.502909 0.502909 -0.864339 83.7656 381.035)" fill="#DADDE6"/>
<circle cx="1.11905" cy="1.11905" r="1.11905" transform="matrix(0.864339 0.502909 0.502909 -0.864339 97.3125 388.914)" fill="#DADDE6"/>
<circle cx="1.11905" cy="1.11905" r="1.11905" transform="matrix(0.864339 0.502909 0.502909 -0.864339 110.852 396.793)" fill="#DADDE6"/>
<circle cx="1.11905" cy="1.11905" r="1.11905" transform="matrix(0.864339 0.502909 0.502909 -0.864339 124.391 404.672)" fill="#DADDE6"/>
<circle cx="1.11905" cy="1.11905" r="1.11905" transform="matrix(0.864339 0.502909 0.502909 -0.864339 137.938 412.551)" fill="#DADDE6"/>
<circle cx="1.11905" cy="1.11905" r="1.11905" transform="matrix(-0.864339 -0.502909 -0.502909 0.864339 290.375 152.191)" fill="#DADDE6"/>
<circle cx="1.11905" cy="1.11905" r="1.11905" transform="matrix(-0.864339 -0.502909 -0.502909 0.864339 276.836 144.312)" fill="#DADDE6"/>
<circle cx="1.11905" cy="1.11905" r="1.11905" transform="matrix(-0.864339 -0.502909 -0.502909 0.864339 263.289 136.434)" fill="#DADDE6"/>
<circle cx="1.11905" cy="1.11905" r="1.11905" transform="matrix(-0.864339 -0.502909 -0.502909 0.864339 249.75 128.555)" fill="#DADDE6"/>
<circle cx="1.11905" cy="1.11905" r="1.11905" transform="matrix(-0.864339 -0.502909 -0.502909 0.864339 236.211 120.676)" fill="#DADDE6"/>
<circle cx="1.11905" cy="1.11905" r="1.11905" transform="matrix(-0.864339 -0.502909 -0.502909 0.864339 222.672 112.797)" fill="#DADDE6"/>
<circle cx="1.11905" cy="1.11905" r="1.11905" transform="matrix(-0.864339 -0.502909 -0.502909 0.864339 209.125 104.918)" fill="#DADDE6"/>
<circle cx="1.11905" cy="1.11905" r="1.11905" transform="matrix(-0.864339 -0.502909 -0.502909 0.864339 195.586 97.0391)" fill="#DADDE6"/>
<circle cx="1.11905" cy="1.11905" r="1.11905" transform="matrix(-0.864339 -0.502909 -0.502909 0.864339 182.047 89.1602)" fill="#DADDE6"/>
<circle cx="1.11905" cy="1.11905" r="1.11905" transform="matrix(-0.864339 -0.502909 -0.502909 0.864339 168.5 81.2812)" fill="#DADDE6"/>
<circle cx="288.845" cy="341.236" r="1.11905" transform="rotate(149.807 288.845 341.236)" fill="#DADDE6"/>
<circle cx="275.306" cy="349.115" r="1.11905" transform="rotate(149.807 275.306 349.115)" fill="#DADDE6"/>
<circle cx="261.759" cy="356.994" r="1.11905" transform="rotate(149.807 261.759 356.994)" fill="#DADDE6"/>
<circle cx="248.22" cy="364.873" r="1.11905" transform="rotate(149.807 248.22 364.873)" fill="#DADDE6"/>
<circle cx="234.681" cy="372.752" r="1.11905" transform="rotate(149.807 234.681 372.752)" fill="#DADDE6"/>
<circle cx="221.142" cy="380.631" r="1.11905" transform="rotate(149.807 221.142 380.631)" fill="#DADDE6"/>
<circle cx="207.595" cy="388.51" r="1.11905" transform="rotate(149.807 207.595 388.51)" fill="#DADDE6"/>
<circle cx="194.056" cy="396.389" r="1.11905" transform="rotate(149.807 194.056 396.389)" fill="#DADDE6"/>
<circle cx="180.517" cy="404.267" r="1.11905" transform="rotate(149.807 180.517 404.267)" fill="#DADDE6"/>
<circle cx="166.97" cy="412.146" r="1.11905" transform="rotate(149.807 166.97 412.146)" fill="#DADDE6"/>
<circle cx="227.265" cy="117.425" r="7.45238" fill="white" stroke="#486AEA" stroke-width="3"/>
<circle cx="303.249" cy="247.425" r="7.45238" fill="white" stroke="#6E62FD" stroke-width="3"/>
<circle cx="234.577" cy="373.679" r="7.45238" fill="white" stroke="#5CD2BD" stroke-width="3"/>
<circle cx="72.093" cy="373.679" r="7.45238" fill="white" stroke="#CDCFD6" stroke-width="3"/>
<circle cx="78.5149" cy="116.585" r="7.45238" fill="white" stroke="#3CA6F8" stroke-width="3"/>
<path d="M99.3497 79.2656V69.3672H103.287C105.475 69.3672 106.568 70.4199 106.568 71.9102C106.568 73.0723 105.816 73.7969 104.791 74.0293V74.125C105.912 74.1797 106.965 75.0684 106.965 76.5312C106.965 78.1035 105.789 79.2656 103.547 79.2656H99.3497ZM103.137 77.5703C104.326 77.5703 104.832 77.0781 104.832 76.3398C104.832 75.5059 104.203 74.918 103.191 74.918H101.4V77.5703H103.137ZM102.986 73.5098C103.848 73.5098 104.49 73.0312 104.49 72.2383C104.49 71.5273 103.971 71.0352 103.027 71.0352H101.4V73.5098H102.986ZM107.789 79.2656L107.775 77.7754L111.33 74.5078C112.26 73.6191 112.752 73.0723 112.752 72.293C112.752 71.418 112.082 70.8711 111.18 70.8711C110.25 70.8711 109.648 71.459 109.648 72.4023H107.693C107.68 70.4609 109.115 69.2305 111.207 69.2305C113.326 69.2305 114.734 70.4336 114.734 72.1562C114.734 73.2773 114.188 74.207 112.15 76.0527L110.646 77.5156V77.5703H114.871V79.2656H107.789ZM122.586 72.8125C122.422 71.7188 121.574 71.0488 120.426 71.0488C118.881 71.0488 117.869 72.2383 117.869 74.3164C117.869 76.4492 118.894 77.584 120.412 77.584C121.547 77.584 122.381 76.9551 122.586 75.8887L124.664 75.9023C124.432 77.7344 122.9 79.4023 120.385 79.4023C117.732 79.4023 115.777 77.543 115.777 74.3164C115.777 71.0898 117.773 69.2305 120.385 69.2305C122.668 69.2305 124.391 70.543 124.664 72.8125H122.586Z" fill="black"/>
<path d="M182.614 79.2656V69.3672H186.552C188.739 69.3672 189.833 70.4199 189.833 71.9102C189.833 73.0723 189.081 73.7969 188.056 74.0293V74.125C189.177 74.1797 190.23 75.0684 190.23 76.5312C190.23 78.1035 189.054 79.2656 186.812 79.2656H182.614ZM186.401 77.5703C187.591 77.5703 188.097 77.0781 188.097 76.3398C188.097 75.5059 187.468 74.918 186.456 74.918H184.665V77.5703H186.401ZM186.251 73.5098C187.112 73.5098 187.755 73.0312 187.755 72.2383C187.755 71.5273 187.235 71.0352 186.292 71.0352H184.665V73.5098H186.251ZM191.054 79.2656L191.04 77.7754L194.595 74.5078C195.524 73.6191 196.017 73.0723 196.017 72.293C196.017 71.418 195.347 70.8711 194.444 70.8711C193.515 70.8711 192.913 71.459 192.913 72.4023H190.958C190.944 70.4609 192.38 69.2305 194.472 69.2305C196.591 69.2305 197.999 70.4336 197.999 72.1562C197.999 73.2773 197.452 74.207 195.415 76.0527L193.911 77.5156V77.5703H198.136V79.2656H191.054ZM199.233 79.2656V69.3672H203.171C205.358 69.3672 206.452 70.4199 206.452 71.9102C206.452 73.0723 205.7 73.7969 204.675 74.0293V74.125C205.796 74.1797 206.849 75.0684 206.849 76.5312C206.849 78.1035 205.673 79.2656 203.431 79.2656H199.233ZM203.02 77.5703C204.21 77.5703 204.716 77.0781 204.716 76.3398C204.716 75.5059 204.087 74.918 203.075 74.918H201.284V77.5703H203.02ZM202.87 73.5098C203.731 73.5098 204.374 73.0312 204.374 72.2383C204.374 71.5273 203.854 71.0352 202.911 71.0352H201.284V73.5098H202.87Z" fill="black"/>
<rect x="88.3906" y="11.5195" width="47" height="47" rx="23.5" fill="#19284E"/>
<circle cx="111.887" cy="30.1057" r="4.37128" fill="white"/>
<path d="M104.453 42.2878C104.453 38.9381 107.169 36.2227 110.518 36.2227H113.25C116.6 36.2227 119.315 38.9381 119.315 42.2878V42.2878C119.315 43.4044 118.41 44.3095 117.294 44.3095H106.475C105.358 44.3095 104.453 43.4044 104.453 42.2878V42.2878Z" fill="white"/>
<rect x="171.047" y="11.5195" width="47" height="47" rx="23.5" fill="#19284E"/>
<rect x="186.578" y="24.0586" width="15.9464" height="20.1429" rx="0.559524" fill="white"/>
<rect x="188.953" y="21.2617" width="11.1905" height="1.95833" fill="white"/>
<rect x="190.391" y="19.3047" width="8.32292" height="1.11905" fill="white"/>
<rect x="184.477" y="45.3203" width="20.1429" height="2.2381" fill="white"/>
<rect x="192.312" y="38.5391" width="4.47619" height="5.66518" fill="#19284E"/>
<rect x="188.953" y="26.7148" width="2.2381" height="2.2381" fill="#19284E"/>
<rect x="193.43" y="26.7148" width="2.2381" height="2.2381" fill="#19284E"/>
<rect x="197.906" y="26.7148" width="2.2381" height="2.2381" fill="#19284E"/>
<rect x="188.953" y="30.7734" width="2.2381" height="2.2381" fill="#19284E"/>
<rect x="193.43" y="30.7734" width="2.2381" height="2.2381" fill="#19284E"/>
<rect x="197.906" y="30.7734" width="2.2381" height="2.2381" fill="#19284E"/>
<rect x="188.953" y="34.832" width="2.2381" height="2.2381" fill="#19284E"/>
<rect x="193.43" y="34.832" width="2.2381" height="2.2381" fill="#19284E"/>
<rect x="197.906" y="34.832" width="2.2381" height="2.2381" fill="#19284E"/>
<circle cx="153.302" cy="19.583" r="0.559524" fill="#19284E"/>
<circle cx="153.302" cy="25.1806" r="0.559524" fill="#19284E"/>
<circle cx="153.302" cy="30.7744" r="0.559524" fill="#19284E"/>
<circle cx="153.302" cy="36.3681" r="0.559524" fill="#19284E"/>
<circle cx="153.302" cy="41.9619" r="0.559524" fill="#19284E"/>
<circle cx="153.302" cy="47.5595" r="0.559524" fill="#19284E"/>
<circle cx="153.302" cy="53.1533" r="0.559524" fill="#19284E"/>
<circle cx="153.302" cy="58.7509" r="0.559524" fill="#19284E"/>
<circle cx="153.302" cy="64.3486" r="0.559524" fill="#19284E"/>
<path d="M152.769 65.8038C152.993 66.1162 153.457 66.1162 153.68 65.8037L155.44 63.3395C155.704 62.9691 155.439 62.4548 154.984 62.4548H151.465C151.01 62.4548 150.745 62.9691 151.01 63.3395L152.769 65.8038Z" fill="#19284E"/>
</g>
<defs>
<filter id="filter0_d_166_978" x="74.404" y="170.435" width="157.786" height="157.786" filterUnits="userSpaceOnUse" color-interpolation-filters="sRGB">
<feFlood flood-opacity="0" result="BackgroundImageFix"/>
<feColorMatrix in="SourceAlpha" type="matrix" values="0 0 0 0 0 0 0 0 0 0 0 0 0 0 0 0 0 0 127 0" result="hardAlpha"/>
<feOffset dy="2.2381"/>
<feGaussianBlur stdDeviation="10.0714"/>
<feComposite in2="hardAlpha" operator="out"/>
<feColorMatrix type="matrix" values="0 0 0 0 0.318368 0 0 0 0 0.352892 0 0 0 0 0.441667 0 0 0 0.12 0"/>
<feBlend mode="normal" in2="BackgroundImageFix" result="effect1_dropShadow_166_978"/>
<feBlend mode="normal" in="SourceGraphic" in2="effect1_dropShadow_166_978" result="shape"/>
</filter>
<linearGradient id="paint0_linear_166_978" x1="95.1072" y1="222.867" x2="43.567" y2="190.947" gradientUnits="userSpaceOnUse">
<stop stop-color="#4769E9"/>
<stop offset="1" stop-color="#3BA6F7"/>
</linearGradient>
<linearGradient id="paint1_linear_166_978" x1="95.1072" y1="326.801" x2="43.567" y2="294.881" gradientUnits="userSpaceOnUse">
<stop stop-color="#4769E9"/>
<stop offset="1" stop-color="#3BA6F7"/>
</linearGradient>
<linearGradient id="paint2_linear_166_978" x1="285.904" y1="222.867" x2="234.364" y2="190.947" gradientUnits="userSpaceOnUse">
<stop stop-color="#4769E9"/>
<stop offset="1" stop-color="#3BA6F7"/>
</linearGradient>
<linearGradient id="paint3_linear_166_978" x1="285.904" y1="326.457" x2="234.364" y2="294.537" gradientUnits="userSpaceOnUse">
<stop stop-color="#4769E9"/>
<stop offset="1" stop-color="#3BA6F7"/>
</linearGradient>
<linearGradient id="paint4_linear_166_978" x1="190.224" y1="166.457" x2="138.684" y2="134.537" gradientUnits="userSpaceOnUse">
<stop stop-color="#4769E9"/>
<stop offset="1" stop-color="#3BA6F7"/>
</linearGradient>
<linearGradient id="paint5_linear_166_978" x1="190.224" y1="382.457" x2="138.684" y2="350.537" gradientUnits="userSpaceOnUse">
<stop stop-color="#4769E9"/>
<stop offset="1" stop-color="#3BA6F7"/>
</linearGradient>
<clipPath id="clip0_166_978">
<rect width="312" height="422.71" fill="white"/>
</clipPath>
<clipPath id="clip1_166_978">
<rect width="100" height="18" fill="white" transform="translate(103 238)"/>
</clipPath>
<clipPath id="clip2_166_978">
<rect width="15.1071" height="21.8214" fill="white" transform="translate(146.023 119.141)"/>
</clipPath>
<clipPath id="clip3_166_978">
<rect width="19.0238" height="17.9048" fill="white" transform="translate(143.781 338.102)"/>
</clipPath>
</defs>
</svg>
