<svg width="312" height="423" viewBox="0 0 312 423" fill="none" xmlns="http://www.w3.org/2000/svg">
<g clip-path="url(#clip0_93_7981)">
<g filter="url(#filter0_d_93_7981)">
<circle cx="153.293" cy="247.09" r="58.75" fill="white"/>
</g>
<g clip-path="url(#clip1_93_7981)">
<mask id="mask0_93_7981" style="mask-type:luminance" maskUnits="userSpaceOnUse" x="103" y="237" width="101" height="19">
<path d="M203.004 237.992H103.004V255.992H203.004V237.992Z" fill="white"/>
</mask>
<g mask="url(#mask0_93_7981)">
<path d="M130.307 246.621C130.05 246.349 129.702 246.095 129.294 245.883C128.869 245.689 128.354 245.592 127.766 245.574C127.341 245.574 126.916 245.574 126.513 245.555C126.088 245.555 125.663 245.537 125.26 245.537C124.818 245.537 124.487 245.458 124.264 245.301C124.007 245.163 123.839 245.011 123.732 244.817C123.62 244.641 123.547 244.466 123.53 244.309C123.492 244.152 123.492 244.074 123.492 244.074V243.123C123.492 242.832 123.53 242.578 123.638 242.384C123.728 242.191 123.856 242.034 124.007 241.918C124.135 241.821 124.281 241.743 124.449 241.683C124.595 241.646 124.745 241.623 124.891 241.623H129.213C129.303 241.623 129.359 241.586 129.359 241.466L130.689 240.377C130.689 240.298 130.633 240.238 130.543 240.238H124.886C124.517 240.238 124.148 240.298 123.818 240.414C123.466 240.552 123.157 240.723 122.895 240.958C122.599 241.212 122.38 241.503 122.234 241.854C122.05 242.223 121.977 242.652 121.977 243.118V244.069C121.977 244.304 122.032 244.595 122.144 244.904C122.234 245.237 122.419 245.546 122.676 245.837C122.934 246.146 123.264 246.423 123.689 246.617C124.097 246.829 124.629 246.926 125.256 246.926L127.762 246.968C128.187 246.968 128.517 247.046 128.775 247.18C128.994 247.337 129.183 247.512 129.29 247.688C129.401 247.881 129.457 248.038 129.492 248.195C129.509 248.352 129.53 248.431 129.53 248.431V249.968C129.53 250.277 129.474 250.512 129.384 250.688C129.273 250.881 129.165 251.038 129.032 251.154C128.886 251.269 128.719 251.348 128.573 251.389C128.389 251.449 128.243 251.468 128.131 251.468H123.281C123.191 251.468 123.153 251.528 123.153 251.624L122.165 252.695C122.165 252.792 122.204 252.852 122.294 252.852H128.135C128.504 252.852 128.874 252.792 129.238 252.677C129.59 252.538 129.899 252.368 130.178 252.132C130.436 251.897 130.638 251.588 130.805 251.218C130.951 250.868 131.045 250.438 131.045 249.972V248.435C131.045 248.163 130.989 247.872 130.878 247.54C130.749 247.231 130.565 246.917 130.307 246.626V246.621Z" fill="#00384E"/>
<path d="M170.204 242.555C170.276 242.361 170.405 242.186 170.573 242.029C170.719 241.914 170.886 241.817 171.088 241.738C171.272 241.678 171.457 241.641 171.641 241.641H175.225C175.315 241.641 175.371 241.604 175.371 241.484L176.633 240.377C176.633 240.298 176.577 240.238 176.487 240.238H171.641C170.667 240.238 169.907 240.511 169.375 241.018C168.822 241.563 168.547 242.32 168.547 243.312V252.691C168.547 252.788 168.581 252.848 168.693 252.848L169.929 251.546C170.002 251.546 170.058 251.486 170.058 251.389V247.148H174.422C174.495 247.148 174.551 247.106 174.551 246.991L175.44 245.901C175.44 245.804 175.384 245.744 175.311 245.744H170.062V243.312C170.062 243.04 170.096 242.786 170.208 242.555H170.204Z" fill="#00384E"/>
<path d="M178.476 240.164L177.24 241.53C177.128 241.53 177.094 241.59 177.094 241.687V252.695C177.094 252.792 177.132 252.852 177.24 252.852L178.476 251.472C178.549 251.472 178.604 251.412 178.604 251.315V240.321C178.604 240.224 178.549 240.164 178.476 240.164Z" fill="#00384E"/>
<path d="M202.863 243.083L201.649 244.407C201.537 244.407 201.503 244.467 201.503 244.564V249.78C201.503 249.992 201.464 250.186 201.43 250.384C201.357 250.597 201.263 250.772 201.151 250.929C201.022 251.086 200.855 251.22 200.67 251.298C200.451 251.414 200.211 251.455 199.915 251.455H199.014C198.443 251.455 198.039 251.298 197.799 250.947C197.541 250.638 197.43 250.246 197.43 249.78V245.284C197.43 245.284 197.43 245.275 197.43 245.27C197.421 244.837 197.087 244.49 196.675 244.49C196.263 244.49 195.962 244.809 195.928 245.215C195.923 245.234 195.919 245.257 195.919 245.28V249.766C195.919 250.232 195.79 250.62 195.567 250.934C195.31 251.284 194.906 251.441 194.331 251.441H193.447C193.151 251.441 192.893 251.404 192.709 251.284C192.49 251.206 192.323 251.072 192.211 250.915C192.082 250.758 191.992 250.583 191.954 250.37C191.881 250.177 191.863 249.983 191.863 249.766V243.235C191.863 243.138 191.808 243.078 191.717 243.078H187.949C188.447 243.461 188.868 243.932 189.215 244.477H190.357V249.766C190.357 250.68 190.614 251.418 191.129 251.981C191.627 252.544 192.4 252.835 193.451 252.835H194.335C194.833 252.835 195.275 252.738 195.679 252.581C196.048 252.406 196.378 252.194 196.675 251.94C196.954 252.194 197.284 252.406 197.687 252.581C198.057 252.738 198.499 252.835 199.014 252.835H199.915C200.945 252.835 201.722 252.544 202.237 251.981C202.752 251.418 203.009 250.68 203.009 249.766V243.235C203.009 243.138 202.954 243.078 202.863 243.078V243.083Z" fill="#00384E"/>
<path d="M145.769 243.701C145.061 243.286 144.267 243.078 143.388 243.078C142.508 243.078 141.714 243.286 141.006 243.701C140.297 244.117 139.744 244.698 139.336 245.446C138.928 246.194 138.727 247.038 138.727 247.98C138.727 248.921 138.928 249.766 139.336 250.514C139.744 251.261 140.297 251.843 141.006 252.267C141.714 252.687 142.508 252.9 143.388 252.9C144.267 252.9 145.061 252.687 145.769 252.267C146.478 251.847 147.027 251.261 147.43 250.514C147.83 249.766 148.031 248.921 148.031 247.98C148.031 247.038 147.834 246.194 147.43 245.446C147.031 244.698 146.478 244.117 145.769 243.701ZM146.126 249.798C145.86 250.334 145.482 250.744 145.006 251.03C144.529 251.321 143.988 251.464 143.388 251.464C142.787 251.464 142.246 251.321 141.769 251.03C141.293 250.74 140.915 250.329 140.641 249.798C140.366 249.263 140.229 248.658 140.229 247.98C140.229 247.301 140.366 246.692 140.641 246.161C140.915 245.626 141.289 245.215 141.769 244.929C142.246 244.638 142.787 244.495 143.388 244.495C143.988 244.495 144.529 244.638 145.006 244.929C145.482 245.22 145.855 245.63 146.126 246.161C146.396 246.697 146.529 247.301 146.529 247.98C146.529 248.658 146.396 249.267 146.126 249.798Z" fill="#00384E"/>
<path d="M138.204 244.477C138.556 243.932 138.972 243.462 139.47 243.078H134.101V240.005C134.101 239.908 134.045 239.848 133.972 239.848L132.736 241.131C132.624 241.131 132.59 241.191 132.59 241.288V249.868C132.59 250.177 132.646 250.491 132.757 250.818C132.869 251.169 133.032 251.502 133.289 251.792C133.53 252.083 133.843 252.337 134.246 252.549C134.616 252.743 135.096 252.84 135.667 252.84H137.195C137.285 252.84 137.341 252.78 137.341 252.683V251.594C137.341 251.497 137.285 251.437 137.195 251.437H135.667C135.259 251.437 134.968 251.358 134.766 251.183C134.547 251.026 134.397 250.851 134.307 250.657C134.195 250.463 134.139 250.288 134.139 250.112C134.101 249.955 134.101 249.858 134.101 249.858V244.482H138.199L138.204 244.477Z" fill="#00384E"/>
<path d="M186.762 243.701C186.054 243.286 185.26 243.078 184.38 243.078C183.5 243.078 182.706 243.286 181.998 243.701C181.29 244.117 180.736 244.698 180.328 245.446C179.925 246.194 179.719 247.038 179.719 247.98C179.719 248.921 179.92 249.766 180.328 250.514C180.736 251.261 181.29 251.843 181.998 252.267C182.706 252.687 183.496 252.9 184.38 252.9C185.264 252.9 186.054 252.687 186.762 252.267C187.47 251.847 188.019 251.261 188.423 250.514C188.822 249.766 189.023 248.921 189.023 247.98C189.023 247.038 188.822 246.194 188.423 245.446C188.023 244.698 187.47 244.117 186.762 243.701ZM187.118 249.798C186.852 250.334 186.474 250.744 185.998 251.03C185.521 251.321 184.981 251.464 184.38 251.464C183.779 251.464 183.238 251.321 182.762 251.03C182.285 250.74 181.908 250.329 181.633 249.798C181.358 249.263 181.221 248.658 181.221 247.98C181.221 247.301 181.358 246.692 181.633 246.161C181.908 245.626 182.281 245.215 182.762 244.929C183.238 244.638 183.779 244.495 184.38 244.495C184.981 244.495 185.521 244.638 185.998 244.929C186.474 245.22 186.848 245.63 187.118 246.161C187.384 246.697 187.521 247.301 187.521 247.98C187.521 248.658 187.388 249.267 187.118 249.798Z" fill="#00384E"/>
<path d="M166.72 243.434H164.45L160.098 247.569L165.308 252.715H167.578L162.286 247.569L166.72 243.434Z" fill="#00384E"/>
<path d="M158.387 241.237V252.711L160.099 251.465V239.848L158.387 241.237Z" fill="#00384E"/>
<path d="M155.043 250.833C154.592 251.105 154.095 251.239 153.545 251.239C152.996 251.239 152.515 251.105 152.06 250.833C151.605 250.56 151.249 250.173 150.983 249.67C150.717 249.162 150.584 248.622 150.584 248.04C150.584 247.14 150.876 246.374 151.459 245.737C152.043 245.1 152.738 244.787 153.55 244.787C154.361 244.787 155.056 245.105 155.64 245.737L156.768 244.81C155.914 243.822 154.841 243.328 153.55 243.328C152.258 243.328 151.185 243.827 150.331 244.819C149.558 245.724 149.172 246.794 149.172 248.022C149.172 249.25 149.58 250.339 150.395 251.262C151.211 252.19 152.262 252.651 153.55 252.651C154.837 252.651 155.884 252.19 156.7 251.262C156.974 250.953 157.202 250.625 157.382 250.284L156.116 249.665C155.854 250.173 155.494 250.56 155.043 250.828V250.833Z" fill="#00384E"/>
<path d="M105.742 248.188L108.664 249.969C108.664 249.969 113.574 246.821 113.583 246.817L114.021 246.544L116.707 244.874L114.021 243.166L108.514 246.475L105.759 244.768V244.744L111.167 241.371L114.021 243.111L116.707 241.371L111.167 237.992L103.008 243.064V252.244L105.733 250.551L105.742 248.188Z" fill="#3777BC"/>
<path d="M114.021 247.288V249.102L108.514 252.522L106.124 251.049L103.398 252.743L108.665 255.988L116.703 250.897V245.617L114.016 247.288H114.021Z" fill="#3777BC"/>
</g>
</g>
<circle cx="58.1786" cy="195.339" r="36.9286" fill="url(#paint0_linear_93_7981)"/>
<circle cx="58.1786" cy="299.272" r="36.9286" fill="url(#paint1_linear_93_7981)"/>
<circle cx="248.975" cy="195.339" r="36.9286" fill="url(#paint2_linear_93_7981)"/>
<circle cx="248.975" cy="299.272" r="36.9286" fill="url(#paint3_linear_93_7981)"/>
<circle cx="153.296" cy="138.968" r="36.9286" fill="url(#paint4_linear_93_7981)"/>
<circle cx="153.296" cy="355.218" r="36.9286" fill="url(#paint5_linear_93_7981)"/>
<path d="M36.9682 202.241C36.9682 203.533 37.3286 204.869 38.4184 205.572L37.812 206.442C37.122 206.025 36.6826 205.339 36.4321 204.518C36.142 205.423 35.663 206.179 34.9379 206.618L34.2524 205.792C35.4389 205.054 35.8784 203.647 35.8784 202.294V200.914H36.9682V202.241ZM41.3364 200.229V208.227H40.2641V200.229H41.3364ZM39.6577 200.343V207.857H38.6118V203.841H37.5746V202.927H38.6118V200.343H39.6577ZM48.4316 204.359V205.247H42.7714V200.817H48.3701V201.723H43.914V202.566H48.1855V203.445H43.914V204.359H48.4316ZM49.2314 206.381V207.295H41.9101V206.381H49.2314ZM52.3364 201.485C52.3364 202.452 52.8989 203.384 54.1645 203.779L53.5669 204.649C52.7187 204.368 52.1255 203.823 51.7827 203.12C51.4355 203.929 50.8159 204.562 49.9018 204.869L49.2954 203.99C50.6313 203.542 51.2026 202.479 51.2114 201.38V200.65H52.3364V201.485ZM55.7641 200.229V202.101H56.8452V203.032H55.7641V204.975H54.6391V200.229H55.7641ZM53.145 205.133C54.7973 205.133 55.8432 205.704 55.8432 206.68C55.8432 207.664 54.7973 208.227 53.145 208.227C51.4575 208.227 50.4028 207.664 50.4028 206.68C50.4028 205.704 51.4575 205.133 53.145 205.133ZM53.145 206.012C52.0903 206.012 51.519 206.24 51.5278 206.68C51.519 207.137 52.0903 207.348 53.145 207.348C54.1821 207.348 54.7358 207.137 54.7358 206.68C54.7358 206.24 54.1821 206.012 53.145 206.012ZM64.2217 203.973V204.86H61.1279V205.546H63.3516V208.139H57.7705V205.546H60.0117V204.86H56.9268V203.973H64.2217ZM63.5713 200.448V201.345H62.5254V202.566H63.5186V203.463H57.6211V202.566H58.6055V201.345H57.5684V200.448H63.5713ZM58.8779 206.416V207.242H62.2529V206.416H58.8779ZM59.7305 202.566H61.4004V201.345H59.7305V202.566ZM70.0977 201.45V202.338H66.2305V201.45H67.6192V200.448H68.7266V201.45H70.0977ZM68.1817 202.698C69.2012 202.698 69.9307 203.489 69.9395 204.597C69.9307 205.713 69.2012 206.504 68.1817 206.504C67.1621 206.504 66.4151 205.713 66.4151 204.597C66.4151 203.489 67.1621 202.698 68.1817 202.698ZM68.1817 203.63C67.7159 203.63 67.3995 203.99 67.3995 204.597C67.3995 205.203 67.7159 205.555 68.1817 205.555C68.6299 205.555 68.9463 205.203 68.9551 204.597C68.9463 203.99 68.6299 203.63 68.1817 203.63ZM73.1563 200.229V208.227H72.0928V204.377H71.4424V207.884H70.3965V200.387H71.4424V203.48H72.0928V200.229H73.1563ZM76.2437 202.663C76.2437 203.876 76.6832 205.089 77.817 205.704L77.2017 206.521C76.481 206.152 76.002 205.502 75.7252 204.72C75.4439 205.572 74.9649 206.293 74.2398 206.715L73.5982 205.871C74.7496 205.203 75.1802 203.902 75.189 202.663V202.479H73.897V201.582H75.189V200.501H76.2349V201.582H77.5005V202.479H76.2437V202.663ZM80.6646 200.229V208.227H79.6011V200.229H80.6646ZM79.0298 200.36V207.857H77.9752V204.175H77.0347V203.261H77.9752V200.36H79.0298ZM50.1335 218.39V219.295H42.8122V218.39H45.906V216.605H47.031V218.39H50.1335ZM49.4919 212.835V213.74H47.0573C47.1496 214.795 48.1428 215.775 49.8611 216.025L49.4216 216.913C48.0197 216.667 46.9826 215.981 46.4685 215.032C45.9587 215.999 44.9304 216.702 43.5505 216.957L43.1111 216.069C44.7722 215.801 45.7697 214.799 45.862 213.74H43.4187V212.835H49.4919ZM56.6663 212.229V214.153H57.7473V215.085H56.6663V216.913H55.5413V212.229H56.6663ZM52.5442 217.221V217.827H55.5413V217.221H56.6663V220.139H51.428V217.221H52.5442ZM52.5442 219.26H55.5413V218.688H52.5442V219.26ZM55.0666 212.932V213.811H50.3205V212.932H52.1399V212.176H53.2561V212.932H55.0666ZM52.6936 214.039C53.8538 214.039 54.6623 214.602 54.6623 215.454C54.6623 216.307 53.8538 216.869 52.6936 216.869C51.5159 216.869 50.7073 216.307 50.7073 215.454C50.7073 214.602 51.5159 214.039 52.6936 214.039ZM52.6936 214.865C52.1575 214.856 51.7971 215.076 51.8059 215.454C51.7971 215.841 52.1575 216.052 52.6936 216.052C53.2297 216.052 53.5989 215.841 53.5989 215.454C53.5989 215.076 53.2297 214.856 52.6936 214.865ZM60.9314 214.408C60.9314 215.7 61.5906 217.08 62.9353 217.643L62.3289 218.521C61.384 218.122 60.7337 217.326 60.3777 216.351C60.0129 217.41 59.3494 218.289 58.4089 218.724L57.7673 217.836C59.0945 217.247 59.78 215.762 59.78 214.408V213.916H58.0837V213.002H62.6013V213.916H60.9314V214.408ZM64.5261 212.229V220.227H63.3923V212.229H64.5261ZM68.4485 214.039C68.4485 215.507 69.1165 216.983 70.47 217.555L69.8108 218.451C68.8968 218.038 68.2639 217.243 67.9036 216.254C67.5388 217.331 66.8841 218.201 65.9085 218.645L65.2317 217.713C66.6292 217.124 67.3059 215.595 67.3147 214.039V212.844H68.4485V214.039ZM72.0345 212.229V220.244H70.9007V212.229H72.0345Z" fill="white"/>
<path d="M54.6875 308.052V308.948H51.6553V310.337H50.5215V308.948H47.3662V308.052H54.6875ZM53.8789 311.11V312.016H48.2363V309.625H49.3701V311.11H53.8789ZM51.0224 304.308C52.7539 304.316 53.9053 304.958 53.914 305.969C53.9053 306.988 52.7539 307.621 51.0224 307.621C49.2822 307.621 48.1221 306.988 48.1221 305.969C48.1221 304.958 49.2822 304.316 51.0224 304.308ZM51.0224 305.195C49.9853 305.195 49.3262 305.459 49.3349 305.969C49.3262 306.461 49.9853 306.725 51.0224 306.725C52.0508 306.725 52.7099 306.461 52.7099 305.969C52.7099 305.459 52.0508 305.195 51.0224 305.195ZM59.0757 306.988V307.973H62.1782V308.869H54.8833V307.973H57.9683V306.988H59.0757ZM59.0933 304.554C59.0933 305.485 59.9897 306.373 61.7915 306.593L61.3608 307.463C60.0117 307.261 59.0186 306.694 58.5132 305.89C57.999 306.694 57.0059 307.265 55.6567 307.463L55.2612 306.593C57.0278 306.373 57.9507 305.459 57.9507 304.554V304.29H59.0933V304.554ZM58.522 309.309C60.2622 309.309 61.2993 309.827 61.3081 310.741C61.2993 311.655 60.2622 312.156 58.522 312.156C56.7642 312.156 55.7183 311.655 55.7183 310.741C55.7183 309.827 56.7642 309.309 58.522 309.309ZM58.522 310.161C57.4058 310.161 56.8521 310.346 56.8608 310.741C56.8521 311.137 57.4058 311.321 58.522 311.321C59.6118 311.321 60.1743 311.137 60.1831 310.741C60.1743 310.346 59.6118 310.161 58.522 310.161ZM66.9356 304.694V305.591H65.3447C65.3535 306.522 65.9116 307.423 67.1904 307.797L66.6543 308.676C65.771 308.408 65.1602 307.872 64.8086 307.182C64.4527 307.99 63.8023 308.632 62.8399 308.948L62.2686 308.061C63.5957 307.643 64.1934 306.606 64.211 305.591H62.5762V304.694H66.9356ZM68.7373 304.158V306.013H69.8184V306.927H68.7373V308.904H67.6123V304.158H68.7373ZM66.1182 309.062C67.7793 309.054 68.8164 309.625 68.8164 310.601C68.8164 311.576 67.7793 312.156 66.1182 312.156C64.4219 312.156 63.376 311.576 63.376 310.601C63.376 309.625 64.4219 309.054 66.1182 309.062ZM66.1182 309.933C65.0635 309.933 64.4922 310.152 64.501 310.601C64.4922 311.058 65.0635 311.286 66.1182 311.286C67.1553 311.286 67.709 311.058 67.709 310.601C67.709 310.152 67.1553 309.933 66.1182 309.933ZM58.4065 319.568V320.386H55.3303V320.887H57.5364V322.838H53.0803V323.277H57.7473V324.104H51.9817V322.082H56.4289V321.687H51.9729V320.887H54.2141V320.386H51.1467V319.568H58.4065ZM55.3215 316.149V316.782H57.7209V317.608H55.4621C55.6819 318.074 56.4993 318.457 58.1164 318.522L57.7913 319.349C56.3059 319.278 55.2776 318.9 54.7678 318.294C54.2624 318.9 53.2297 319.278 51.7356 319.349L51.428 318.522C53.032 318.457 53.845 318.074 54.0735 317.608H51.8323V316.782H54.2141V316.149H55.3215ZM62.4783 316.624V319.12H60.0613V319.973C61.2522 319.973 61.9553 319.933 62.7683 319.779L62.8738 320.676C61.9421 320.843 61.0984 320.869 59.5515 320.869H58.9539V318.285H61.3533V317.503H58.9363V316.624H62.4783ZM65.3787 316.167V321.089H64.2625V319.858H62.9353V318.971H64.2625V318.162H62.9353V317.274H64.2625V316.167H65.3787ZM65.3787 321.449V324.156H64.2625V322.346H59.8679V321.449H65.3787Z" fill="white"/>
<path d="M249.285 203.639V204.456H246.209V204.957H248.415V206.908H243.959V207.348H248.626V208.174H242.861V206.152H247.308V205.757H242.852V204.957H245.093V204.456H242.026V203.639H249.285ZM246.2 200.22V200.853H248.6V201.679H246.341C246.561 202.145 247.378 202.527 248.995 202.593L248.67 203.419C247.185 203.349 246.156 202.971 245.647 202.364C245.141 202.971 244.109 203.349 242.614 203.419L242.307 202.593C243.911 202.527 244.724 202.145 244.952 201.679H242.711V200.853H245.093V200.22H246.2ZM256.108 200.923V201.679C256.108 202.681 256.108 203.806 255.783 205.502L254.658 205.388C254.961 203.876 254.974 202.751 254.983 201.811H250.272V200.923H256.108ZM256.811 206.337V207.251H249.516V206.337H252.127V203.586H253.243V206.337H256.811ZM241.821 218.372V219.295H234.5V218.372H236.134V216.412C235.515 216.043 235.141 215.476 235.141 214.769C235.141 213.477 236.407 212.615 238.147 212.615C239.879 212.615 241.153 213.477 241.162 214.769C241.157 215.458 240.793 216.021 240.195 216.395V218.372H241.821ZM238.147 213.503C237.005 213.503 236.249 213.96 236.249 214.769C236.249 215.551 237.005 216.034 238.147 216.034C239.281 216.034 240.046 215.551 240.054 214.769C240.046 213.96 239.281 213.503 238.147 213.503ZM237.242 218.372H239.061V216.816C238.776 216.874 238.468 216.904 238.147 216.904C237.826 216.904 237.523 216.878 237.242 216.816V218.372ZM246.57 213.063V213.942H244.952C244.961 214.764 245.568 215.599 246.851 215.929L246.332 216.79C245.423 216.562 244.781 216.056 244.416 215.401C244.069 216.148 243.427 216.733 242.483 217.001L241.955 216.131C243.239 215.766 243.827 214.852 243.836 213.942H242.228V213.063H243.836V212.193H244.97V213.063H246.57ZM248.749 212.229V217.062H247.633V215.27H246.332V214.373H247.633V212.229H248.749ZM246.016 217.194C247.721 217.203 248.767 217.739 248.776 218.697C248.767 219.664 247.721 220.227 246.016 220.227C244.32 220.227 243.265 219.664 243.265 218.697C243.265 217.739 244.32 217.203 246.016 217.194ZM246.016 218.056C244.952 218.056 244.381 218.267 244.381 218.697C244.381 219.137 244.952 219.374 246.016 219.374C247.097 219.374 247.659 219.137 247.659 218.697C247.659 218.267 247.097 218.056 246.016 218.056ZM256.258 212.229V216.605H255.141V214.936H253.876V214.021H255.141V212.229H256.258ZM252.03 216.913V217.669H255.141V216.913H256.258V220.139H250.923V216.913H252.03ZM252.03 219.242H255.141V218.53H252.03V219.242ZM254.131 212.589V213.503H252.549C252.593 214.395 253.164 215.322 254.377 215.718L253.823 216.579C252.935 216.285 252.324 215.713 251.977 214.988C251.626 215.792 250.989 216.438 250.044 216.746L249.472 215.867C250.729 215.45 251.331 214.479 251.397 213.503H249.789V212.589H254.131ZM261.27 212.853C261.27 213.793 262.228 214.839 264.065 215.067L263.625 215.973C262.228 215.771 261.204 215.125 260.681 214.259C260.154 215.125 259.138 215.771 257.754 215.973L257.306 215.067C259.125 214.839 260.092 213.793 260.092 212.853V212.466H261.27V212.853ZM264.32 216.579V217.493H261.208V220.227H260.101V217.493H257.025V216.579H264.32Z" fill="white"/>
<path d="M248.987 304.158V312.156H247.914V308.148H247.238V311.787H246.174V309.493L245.541 310.337C244.799 309.946 244.32 309.282 244.038 308.456C243.77 309.405 243.296 310.174 242.535 310.627L241.841 309.766C243.054 309.08 243.467 307.665 243.467 306.136V305.881H242.114V304.984H245.779V305.881H244.557V306.136C244.557 307.529 244.97 308.856 246.174 309.476V304.272H247.238V307.234H247.914V304.158H248.987ZM256.108 304.853V305.608C256.108 306.61 256.108 307.735 255.783 309.432L254.658 309.317C254.961 307.806 254.974 306.681 254.983 305.74H250.272V304.853H256.108ZM256.811 310.267V311.181H249.516V310.267H252.127V307.516H253.243V310.267H256.811ZM241.821 322.311V323.225H234.5V322.311H237.585V320.834H235.273V316.668H236.398V317.907H239.887V316.668H241.004V320.834H238.701V322.311H241.821ZM236.398 319.938H239.887V318.804H236.398V319.938ZM249.303 320.008V320.887H246.209V321.458C247.615 321.55 248.424 322.012 248.433 322.794C248.424 323.682 247.396 324.156 245.647 324.156C243.889 324.156 242.843 323.682 242.843 322.794C242.843 322.012 243.674 321.55 245.093 321.458V320.887H242.008V320.008H249.303ZM246.2 316.185V316.87H248.6V317.758H246.306C246.477 318.307 247.299 318.791 248.978 318.9L248.644 319.753C247.167 319.647 246.148 319.217 245.647 318.566C245.141 319.217 244.122 319.647 242.658 319.753L242.316 318.9C243.994 318.791 244.807 318.307 244.988 317.758H242.711V316.87H245.093V316.185H246.2ZM245.647 322.267C244.531 322.267 243.977 322.434 243.986 322.794C243.977 323.163 244.531 323.33 245.647 323.33C246.737 323.33 247.299 323.163 247.308 322.794C247.299 322.434 246.737 322.267 245.647 322.267ZM252.619 318.338C252.619 319.63 253.278 321.01 254.623 321.572L254.016 322.451C253.072 322.051 252.421 321.256 252.065 320.28C251.7 321.339 251.037 322.218 250.096 322.653L249.455 321.766C250.782 321.177 251.468 319.691 251.468 318.338V317.846H249.771V316.932H254.289V317.846H252.619V318.338ZM256.214 316.158V324.156H255.08V316.158H256.214ZM260.136 317.969C260.136 319.437 260.804 320.913 262.158 321.484L261.498 322.381C260.584 321.968 259.951 321.172 259.591 320.184C259.226 321.26 258.572 322.13 257.596 322.574L256.919 321.643C258.317 321.054 258.993 319.524 259.002 317.969V316.773H260.136V317.969ZM263.722 316.158V324.174H262.588V316.158H263.722Z" fill="white"/>
<path d="M153.401 148.266V149.162H150.289V151.852H149.182V149.162H146.106V148.266H153.401ZM152.75 144.275V145.154H150.421C150.531 145.937 151.414 146.723 153.058 146.921L152.654 147.8C151.247 147.611 150.241 147.009 149.762 146.183C149.27 147.009 148.272 147.611 146.879 147.8L146.466 146.921C148.083 146.723 148.975 145.937 149.103 145.154H146.765V144.275H152.75ZM160.927 147.809V148.696H157.912V150.076H156.804V148.696H153.605V147.809H160.927ZM159.986 144.205V147.149H154.519V144.205H159.986ZM155.618 145.075V146.279H158.887V145.075H155.618ZM160.118 150.814V151.711H154.467V149.382H155.583V150.814H160.118ZM153.418 159.51V160.424H146.106V159.51H153.418ZM152.583 158.06V158.947H146.993V156.064H152.539V156.97H148.11V158.06H152.583ZM149.744 160.907C151.476 160.907 152.522 161.435 152.531 162.375C152.522 163.324 151.476 163.852 149.744 163.852C147.995 163.852 146.941 163.324 146.941 162.375C146.941 161.435 147.995 160.907 149.744 160.907ZM149.744 161.76C148.637 161.76 148.074 161.971 148.083 162.375C148.074 162.797 148.637 162.999 149.744 162.999C150.825 162.999 151.397 162.797 151.406 162.375C151.397 161.971 150.825 161.76 149.744 161.76ZM160.927 160.143V161.039H153.605V160.143H156.708V159.562H154.519V157.365H158.914V156.873H154.502V156.003H160.039V158.174H155.636V158.701H160.188V159.562H157.824V160.143H160.927ZM160.083 161.496V163.816H158.949V162.375H154.423V161.496H160.083Z" fill="white"/>
<path d="M147.389 360.815V362.617H148.479V360.815H149.516V366.203H146.334V360.815H147.389ZM147.389 365.307H148.479V363.496H147.389V365.307ZM153.04 360.104V368.102H151.968V364.067H151.247V367.732H150.184V360.218H151.247V363.153H151.968V360.104H153.04ZM157.806 362.934V363.918H160.909V364.814H153.614V363.918H156.699V362.934H157.806ZM157.824 360.499C157.824 361.431 158.72 362.318 160.522 362.538L160.092 363.408C158.742 363.206 157.749 362.639 157.244 361.835C156.73 362.639 155.737 363.21 154.387 363.408L153.992 362.538C155.759 362.318 156.681 361.404 156.681 360.499V360.235H157.824V360.499ZM157.253 365.254C158.993 365.254 160.03 365.772 160.039 366.687C160.03 367.601 158.993 368.102 157.253 368.102C155.495 368.102 154.449 367.601 154.449 366.687C154.449 365.772 155.495 365.254 157.253 365.254ZM157.253 366.106C156.136 366.106 155.583 366.291 155.592 366.687C155.583 367.082 156.136 367.267 157.253 367.267C158.343 367.267 158.905 367.082 158.914 366.687C158.905 366.291 158.343 366.106 157.253 366.106ZM149.208 374.283C149.208 375.575 149.867 376.955 151.212 377.518L150.606 378.396C149.661 377.997 149.01 377.201 148.655 376.226C148.29 377.285 147.626 378.164 146.686 378.599L146.044 377.711C147.371 377.122 148.057 375.637 148.057 374.283V373.791H146.361V372.877H150.878V373.791H149.208V374.283ZM152.803 372.104V380.102H151.669V372.104H152.803ZM156.725 373.914C156.725 375.382 157.393 376.858 158.747 377.43L158.088 378.326C157.174 377.913 156.541 377.118 156.18 376.129C155.816 377.206 155.161 378.076 154.185 378.52L153.509 377.588C154.906 376.999 155.583 375.47 155.592 373.914V372.719H156.725V373.914ZM160.311 372.104V380.119H159.178V372.104H160.311Z" fill="white"/>
<rect x="54.125" y="173.652" width="12.7292" height="12.7292" rx="1.11905" fill="white"/>
<rect x="51.8134" y="177.22" width="11.6101" height="11.6101" rx="0.559524" stroke="white" stroke-width="1.11905"/>
<path d="M51.7448 179.18H50.4159C49.7979 179.18 49.2969 179.681 49.2969 180.299V190.79C49.2969 191.408 49.7979 191.909 50.4159 191.909H60.907C61.525 191.909 62.026 191.408 62.026 190.79V188.762" stroke="white" stroke-width="1.11905"/>
<path d="M60.6309 278.017C60.4255 277.833 60.159 277.73 59.8829 277.73H52.0253C51.4073 277.73 50.9062 278.231 50.9062 278.85V295.076C50.9062 295.694 51.4073 296.195 52.0253 296.195H64.3348C64.9529 296.195 65.4539 295.694 65.4539 295.076V282.851C65.4539 282.533 65.319 282.231 65.0829 282.019L60.6309 278.017Z" fill="white"/>
<path d="M59.5781 279.406V283.043H63.6291" stroke="#3CA7F8" stroke-width="1.11905" stroke-miterlimit="10" stroke-linecap="round" stroke-linejoin="round"/>
<path d="M53.668 286.68H59.2968" stroke="#3CA7F8" stroke-width="1.11905" stroke-miterlimit="10" stroke-linecap="round" stroke-linejoin="round"/>
<path d="M53.668 290.598H62.6539" stroke="#3CA7F8" stroke-width="1.11905" stroke-miterlimit="10" stroke-linecap="round" stroke-linejoin="round"/>
<path d="M253.483 172.75H243.971C243.353 172.75 242.852 173.251 242.852 173.869V180.721C242.852 181.339 243.353 181.84 243.971 181.84H253.483C254.101 181.84 254.603 181.339 254.603 180.721V173.869C254.603 173.251 254.101 172.75 253.483 172.75Z" fill="white"/>
<path d="M255.824 185.125H242.115C240.222 185.125 238.688 186.708 238.688 188.66C238.688 190.612 240.222 192.195 242.115 192.195H255.824C257.717 192.195 259.252 190.612 259.252 188.66C259.252 186.708 257.717 185.125 255.824 185.125Z" stroke="white" stroke-width="1.11905" stroke-miterlimit="10"/>
<path d="M243.585 189.668C244.126 189.668 244.564 189.216 244.564 188.658C244.564 188.101 244.126 187.648 243.585 187.648C243.044 187.648 242.605 188.101 242.605 188.658C242.605 189.216 243.044 189.668 243.585 189.668Z" fill="white" stroke="white" stroke-width="0.559524" stroke-miterlimit="10"/>
<path d="M253.866 189.668C254.407 189.668 254.845 189.216 254.845 188.658C254.845 188.101 254.407 187.648 253.866 187.648C253.325 187.648 252.887 188.101 252.887 188.658C252.887 189.216 253.325 189.668 253.866 189.668Z" fill="white" stroke="white" stroke-width="0.559524" stroke-miterlimit="10"/>
<path d="M246.25 177.426H250.441" stroke="#3CA7F8" stroke-width="1.11905" stroke-miterlimit="10" stroke-linecap="round" stroke-linejoin="round"/>
<path d="M248.48 175.398L250.439 177.418L248.48 179.439" stroke="#3CA7F8" stroke-width="1.11905" stroke-miterlimit="10" stroke-linecap="round" stroke-linejoin="round"/>
<path d="M255.685 277.871H242.816C241.58 277.871 240.578 278.873 240.578 280.109V292.978C240.578 294.214 241.58 295.216 242.816 295.216H255.685C256.921 295.216 257.923 294.214 257.923 292.978V280.109C257.923 278.873 256.921 277.871 255.685 277.871Z" fill="white"/>
<path d="M246.453 278.328V283.349L249.479 282.062L252.506 283.349V278.328" stroke="#3CA7F8" stroke-width="1.11905" stroke-linecap="square" stroke-linejoin="round"/>
<path d="M246.285 288.597L248.567 290.879L252.685 286.543" stroke="#3CA7F8" stroke-width="1.11905" stroke-linecap="round" stroke-linejoin="round"/>
<g clip-path="url(#clip2_93_7981)">
<path d="M160.054 119.305H147.093C146.5 119.305 146.02 119.796 146.02 120.401V135.772C146.02 136.377 146.5 136.868 147.093 136.868H160.054C160.646 136.868 161.127 136.377 161.127 135.772V120.401C161.127 119.796 160.646 119.305 160.054 119.305Z" fill="white"/>
<path d="M150.445 128.099L152.772 130.482L156.977 125.957" fill="white"/>
<path d="M150.445 128.099L152.772 130.482L156.977 125.957" stroke="#3CA7F8" stroke-width="1.11905" stroke-linecap="round" stroke-linejoin="round"/>
<path d="M157.223 117.176H149.93V120.901H157.223V117.176Z" fill="white" stroke="#3CA7F8" stroke-width="1.11905" stroke-linecap="square" stroke-linejoin="round"/>
</g>
<g clip-path="url(#clip3_93_7981)">
<path d="M155.876 333.262H144.202C143.97 333.262 143.781 333.449 143.781 333.679V347.267C143.781 347.498 143.97 347.685 144.202 347.685H155.876C156.109 347.685 156.297 347.498 156.297 347.267V333.679C156.297 333.449 156.109 333.262 155.876 333.262Z" fill="white"/>
<path d="M156.297 337.016V347.684H162.805V340.93L159.551 337.016H156.297Z" fill="white"/>
<path d="M156.801 342.344H162.308" stroke="#3CA7F8" stroke-width="1.11905" stroke-linecap="square" stroke-linejoin="round"/>
<path d="M148.288 350.669C149.671 350.669 150.791 349.555 150.791 348.182C150.791 346.809 149.671 345.695 148.288 345.695C146.906 345.695 145.785 346.809 145.785 348.182C145.785 349.555 146.906 350.669 148.288 350.669Z" fill="white" stroke="#3CA7F8" stroke-width="1.11905" stroke-linecap="square" stroke-linejoin="round"/>
<path d="M159.304 350.669C160.686 350.669 161.807 349.555 161.807 348.182C161.807 346.809 160.686 345.695 159.304 345.695C157.921 345.695 156.801 346.809 156.801 348.182C156.801 349.555 157.921 350.669 159.304 350.669Z" fill="white" stroke="#3CA7F8" stroke-width="1.11905" stroke-linecap="square" stroke-linejoin="round"/>
<path d="M156.461 332.945V347.683" stroke="#3CA7F8" stroke-width="1.11905" stroke-miterlimit="10"/>
</g>
<circle cx="153.295" cy="73.361" r="3.35714" fill="#DADDE6"/>
<circle cx="3.36496" cy="161.068" r="3.35714" fill="#DADDE6"/>
<circle cx="304.904" cy="161.068" r="3.35714" fill="#DADDE6"/>
<circle cx="3.36496" cy="333.396" r="3.35714" fill="#DADDE6"/>
<circle cx="303.787" cy="333.396" r="3.35714" fill="#DADDE6"/>
<circle cx="153.295" cy="419.424" r="3.35714" fill="#DADDE6"/>
<circle cx="17.5886" cy="152.596" r="1.11905" transform="rotate(-30.1927 17.5886 152.596)" fill="#DADDE6"/>
<circle cx="31.1316" cy="144.717" r="1.11905" transform="rotate(-30.1927 31.1316 144.717)" fill="#DADDE6"/>
<circle cx="44.6706" cy="136.838" r="1.11905" transform="rotate(-30.1927 44.6706 136.838)" fill="#DADDE6"/>
<circle cx="58.2136" cy="128.959" r="1.11905" transform="rotate(-30.1927 58.2136 128.959)" fill="#DADDE6"/>
<circle cx="71.7527" cy="121.08" r="1.11905" transform="rotate(-30.1927 71.7527 121.08)" fill="#DADDE6"/>
<circle cx="85.2956" cy="113.201" r="1.11905" transform="rotate(-30.1927 85.2956 113.201)" fill="#DADDE6"/>
<circle cx="98.8347" cy="105.322" r="1.11905" transform="rotate(-30.1927 98.8347 105.322)" fill="#DADDE6"/>
<circle cx="112.378" cy="97.4435" r="1.11905" transform="rotate(-30.1927 112.378 97.4435)" fill="#DADDE6"/>
<circle cx="125.921" cy="89.5646" r="1.11905" transform="rotate(-30.1927 125.921 89.5646)" fill="#DADDE6"/>
<circle cx="139.46" cy="81.6857" r="1.11905" transform="rotate(-30.1927 139.46 81.6857)" fill="#DADDE6"/>
<circle cx="3.36514" cy="317.662" r="1.11905" transform="rotate(-90 3.36514 317.662)" fill="#DADDE6"/>
<circle cx="3.36514" cy="301.994" r="1.11905" transform="rotate(-90 3.36514 301.994)" fill="#DADDE6"/>
<circle cx="3.36514" cy="286.33" r="1.11905" transform="rotate(-90 3.36514 286.33)" fill="#DADDE6"/>
<circle cx="3.36514" cy="270.662" r="1.11905" transform="rotate(-90 3.36514 270.662)" fill="#DADDE6"/>
<circle cx="3.36514" cy="254.994" r="1.11905" transform="rotate(-90 3.36514 254.994)" fill="#DADDE6"/>
<circle cx="3.36514" cy="239.33" r="1.11905" transform="rotate(-90 3.36514 239.33)" fill="#DADDE6"/>
<circle cx="3.36514" cy="223.662" r="1.11905" transform="rotate(-90 3.36514 223.662)" fill="#DADDE6"/>
<circle cx="3.36514" cy="207.994" r="1.11905" transform="rotate(-90 3.36514 207.994)" fill="#DADDE6"/>
<circle cx="3.36514" cy="192.33" r="1.11905" transform="rotate(-90 3.36514 192.33)" fill="#DADDE6"/>
<circle cx="3.36514" cy="176.662" r="1.11905" transform="rotate(-90 3.36514 176.662)" fill="#DADDE6"/>
<circle cx="303.783" cy="317.662" r="1.11905" transform="rotate(-90 303.783 317.662)" fill="#DADDE6"/>
<circle cx="303.783" cy="301.994" r="1.11905" transform="rotate(-90 303.783 301.994)" fill="#DADDE6"/>
<circle cx="303.783" cy="286.33" r="1.11905" transform="rotate(-90 303.783 286.33)" fill="#DADDE6"/>
<circle cx="303.783" cy="270.662" r="1.11905" transform="rotate(-90 303.783 270.662)" fill="#DADDE6"/>
<circle cx="303.783" cy="254.994" r="1.11905" transform="rotate(-90 303.783 254.994)" fill="#DADDE6"/>
<circle cx="303.783" cy="239.33" r="1.11905" transform="rotate(-90 303.783 239.33)" fill="#DADDE6"/>
<circle cx="303.783" cy="223.662" r="1.11905" transform="rotate(-90 303.783 223.662)" fill="#DADDE6"/>
<circle cx="303.783" cy="207.994" r="1.11905" transform="rotate(-90 303.783 207.994)" fill="#DADDE6"/>
<circle cx="303.783" cy="192.33" r="1.11905" transform="rotate(-90 303.783 192.33)" fill="#DADDE6"/>
<circle cx="303.783" cy="176.662" r="1.11905" transform="rotate(-90 303.783 176.662)" fill="#DADDE6"/>
<circle cx="1.11905" cy="1.11905" r="1.11905" transform="matrix(0.864339 0.502909 0.502909 -0.864339 16.0586 341.641)" fill="#DADDE6"/>
<circle cx="1.11905" cy="1.11905" r="1.11905" transform="matrix(0.864339 0.502909 0.502909 -0.864339 29.6016 349.52)" fill="#DADDE6"/>
<circle cx="1.11905" cy="1.11905" r="1.11905" transform="matrix(0.864339 0.502909 0.502909 -0.864339 43.1406 357.398)" fill="#DADDE6"/>
<circle cx="1.11905" cy="1.11905" r="1.11905" transform="matrix(0.864339 0.502909 0.502909 -0.864339 56.6836 365.277)" fill="#DADDE6"/>
<circle cx="1.11905" cy="1.11905" r="1.11905" transform="matrix(0.864339 0.502909 0.502909 -0.864339 70.2227 373.156)" fill="#DADDE6"/>
<circle cx="1.11905" cy="1.11905" r="1.11905" transform="matrix(0.864339 0.502909 0.502909 -0.864339 83.7656 381.035)" fill="#DADDE6"/>
<circle cx="1.11905" cy="1.11905" r="1.11905" transform="matrix(0.864339 0.502909 0.502909 -0.864339 97.3047 388.914)" fill="#DADDE6"/>
<circle cx="1.11905" cy="1.11905" r="1.11905" transform="matrix(0.864339 0.502909 0.502909 -0.864339 110.848 396.793)" fill="#DADDE6"/>
<circle cx="1.11905" cy="1.11905" r="1.11905" transform="matrix(0.864339 0.502909 0.502909 -0.864339 124.391 404.672)" fill="#DADDE6"/>
<circle cx="1.11905" cy="1.11905" r="1.11905" transform="matrix(0.864339 0.502909 0.502909 -0.864339 137.93 412.551)" fill="#DADDE6"/>
<circle cx="1.11905" cy="1.11905" r="1.11905" transform="matrix(-0.864339 -0.502909 -0.502909 0.864339 290.379 152.191)" fill="#DADDE6"/>
<circle cx="1.11905" cy="1.11905" r="1.11905" transform="matrix(-0.864339 -0.502909 -0.502909 0.864339 276.836 144.312)" fill="#DADDE6"/>
<circle cx="1.11905" cy="1.11905" r="1.11905" transform="matrix(-0.864339 -0.502909 -0.502909 0.864339 263.297 136.434)" fill="#DADDE6"/>
<circle cx="1.11905" cy="1.11905" r="1.11905" transform="matrix(-0.864339 -0.502909 -0.502909 0.864339 249.754 128.555)" fill="#DADDE6"/>
<circle cx="1.11905" cy="1.11905" r="1.11905" transform="matrix(-0.864339 -0.502909 -0.502909 0.864339 236.215 120.676)" fill="#DADDE6"/>
<circle cx="1.11905" cy="1.11905" r="1.11905" transform="matrix(-0.864339 -0.502909 -0.502909 0.864339 222.672 112.797)" fill="#DADDE6"/>
<circle cx="1.11905" cy="1.11905" r="1.11905" transform="matrix(-0.864339 -0.502909 -0.502909 0.864339 209.133 104.918)" fill="#DADDE6"/>
<circle cx="1.11905" cy="1.11905" r="1.11905" transform="matrix(-0.864339 -0.502909 -0.502909 0.864339 195.59 97.0391)" fill="#DADDE6"/>
<circle cx="1.11905" cy="1.11905" r="1.11905" transform="matrix(-0.864339 -0.502909 -0.502909 0.864339 182.047 89.1602)" fill="#DADDE6"/>
<circle cx="1.11905" cy="1.11905" r="1.11905" transform="matrix(-0.864339 -0.502909 -0.502909 0.864339 168.508 81.2812)" fill="#DADDE6"/>
<circle cx="288.849" cy="341.236" r="1.11905" transform="rotate(149.807 288.849 341.236)" fill="#DADDE6"/>
<circle cx="275.306" cy="349.115" r="1.11905" transform="rotate(149.807 275.306 349.115)" fill="#DADDE6"/>
<circle cx="261.767" cy="356.994" r="1.11905" transform="rotate(149.807 261.767 356.994)" fill="#DADDE6"/>
<circle cx="248.224" cy="364.873" r="1.11905" transform="rotate(149.807 248.224 364.873)" fill="#DADDE6"/>
<circle cx="234.685" cy="372.752" r="1.11905" transform="rotate(149.807 234.685 372.752)" fill="#DADDE6"/>
<circle cx="221.142" cy="380.631" r="1.11905" transform="rotate(149.807 221.142 380.631)" fill="#DADDE6"/>
<circle cx="207.603" cy="388.51" r="1.11905" transform="rotate(149.807 207.603 388.51)" fill="#DADDE6"/>
<circle cx="194.06" cy="396.389" r="1.11905" transform="rotate(149.807 194.06 396.389)" fill="#DADDE6"/>
<circle cx="180.517" cy="404.267" r="1.11905" transform="rotate(149.807 180.517 404.267)" fill="#DADDE6"/>
<circle cx="166.978" cy="412.146" r="1.11905" transform="rotate(149.807 166.978 412.146)" fill="#DADDE6"/>
<circle cx="227.265" cy="117.425" r="7.45238" fill="white" stroke="#486AEA" stroke-width="3"/>
<circle cx="303.249" cy="247.425" r="7.45238" fill="white" stroke="#6E62FD" stroke-width="3"/>
<circle cx="234.573" cy="373.679" r="7.45238" fill="white" stroke="#5CD2BD" stroke-width="3"/>
<circle cx="72.0969" cy="373.679" r="7.45238" fill="white" stroke="#CDCFD6" stroke-width="3"/>
<circle cx="78.5149" cy="116.585" r="7.45238" fill="white" stroke="#3CA6F8" stroke-width="3"/>
<path d="M99.3497 79.2656V69.3672H103.287C105.475 69.3672 106.568 70.4199 106.568 71.9102C106.568 73.0723 105.816 73.7969 104.791 74.0293V74.125C105.912 74.1797 106.965 75.0684 106.965 76.5312C106.965 78.1035 105.789 79.2656 103.547 79.2656H99.3497ZM103.137 77.5703C104.326 77.5703 104.832 77.0781 104.832 76.3398C104.832 75.5059 104.203 74.918 103.191 74.918H101.4V77.5703H103.137ZM102.986 73.5098C103.848 73.5098 104.49 73.0312 104.49 72.2383C104.49 71.5273 103.971 71.0352 103.027 71.0352H101.4V73.5098H102.986ZM107.789 79.2656L107.775 77.7754L111.33 74.5078C112.26 73.6191 112.752 73.0723 112.752 72.293C112.752 71.418 112.082 70.8711 111.18 70.8711C110.25 70.8711 109.648 71.459 109.648 72.4023H107.693C107.68 70.4609 109.115 69.2305 111.207 69.2305C113.326 69.2305 114.734 70.4336 114.734 72.1562C114.734 73.2773 114.188 74.207 112.15 76.0527L110.646 77.5156V77.5703H114.871V79.2656H107.789ZM122.586 72.8125C122.422 71.7188 121.574 71.0488 120.426 71.0488C118.881 71.0488 117.869 72.2383 117.869 74.3164C117.869 76.4492 118.894 77.584 120.412 77.584C121.547 77.584 122.381 76.9551 122.586 75.8887L124.664 75.9023C124.432 77.7344 122.9 79.4023 120.385 79.4023C117.732 79.4023 115.777 77.543 115.777 74.3164C115.777 71.0898 117.773 69.2305 120.385 69.2305C122.668 69.2305 124.391 70.543 124.664 72.8125H122.586Z" fill="black"/>
<path d="M182.61 79.2656V69.3672H186.548C188.735 69.3672 189.829 70.4199 189.829 71.9102C189.829 73.0723 189.077 73.7969 188.052 74.0293V74.125C189.173 74.1797 190.226 75.0684 190.226 76.5312C190.226 78.1035 189.05 79.2656 186.808 79.2656H182.61ZM186.398 77.5703C187.587 77.5703 188.093 77.0781 188.093 76.3398C188.093 75.5059 187.464 74.918 186.452 74.918H184.661V77.5703H186.398ZM186.247 73.5098C187.108 73.5098 187.751 73.0312 187.751 72.2383C187.751 71.5273 187.232 71.0352 186.288 71.0352H184.661V73.5098H186.247ZM191.05 79.2656L191.036 77.7754L194.591 74.5078C195.521 73.6191 196.013 73.0723 196.013 72.293C196.013 71.418 195.343 70.8711 194.44 70.8711C193.511 70.8711 192.909 71.459 192.909 72.4023H190.954C190.94 70.4609 192.376 69.2305 194.468 69.2305C196.587 69.2305 197.995 70.4336 197.995 72.1562C197.995 73.2773 197.448 74.207 195.411 76.0527L193.907 77.5156V77.5703H198.132V79.2656H191.05ZM199.229 79.2656V69.3672H203.167C205.354 69.3672 206.448 70.4199 206.448 71.9102C206.448 73.0723 205.696 73.7969 204.671 74.0293V74.125C205.792 74.1797 206.845 75.0684 206.845 76.5312C206.845 78.1035 205.669 79.2656 203.427 79.2656H199.229ZM203.017 77.5703C204.206 77.5703 204.712 77.0781 204.712 76.3398C204.712 75.5059 204.083 74.918 203.071 74.918H201.28V77.5703H203.017ZM202.866 73.5098C203.727 73.5098 204.37 73.0312 204.37 72.2383C204.37 71.5273 203.851 71.0352 202.907 71.0352H201.28V73.5098H202.866Z" fill="black"/>
<rect x="88.3906" y="11.5195" width="47" height="47" rx="23.5" fill="#19284E"/>
<circle cx="111.887" cy="30.1057" r="4.37128" fill="white"/>
<path d="M104.457 42.2878C104.457 38.9381 107.172 36.2227 110.522 36.2227H113.254C116.604 36.2227 119.319 38.9381 119.319 42.2878C119.319 43.4044 118.414 44.3095 117.298 44.3095H106.479C105.362 44.3095 104.457 43.4044 104.457 42.2878Z" fill="white"/>
<rect x="171.043" y="11.5195" width="47" height="47" rx="23.5" fill="#19284E"/>
<rect x="186.57" y="24.0586" width="15.9464" height="20.1429" rx="0.559524" fill="white"/>
<rect x="188.945" y="21.2617" width="11.1905" height="1.95833" fill="white"/>
<rect x="190.383" y="19.3047" width="8.32292" height="1.11905" fill="white"/>
<rect x="184.473" y="45.3203" width="20.1429" height="2.2381" fill="white"/>
<rect x="192.305" y="38.5391" width="4.47619" height="5.66518" fill="#19284E"/>
<rect x="188.945" y="26.7148" width="2.2381" height="2.2381" fill="#19284E"/>
<rect x="193.422" y="26.7148" width="2.2381" height="2.2381" fill="#19284E"/>
<rect x="197.898" y="26.7148" width="2.2381" height="2.2381" fill="#19284E"/>
<rect x="188.945" y="30.7734" width="2.2381" height="2.2381" fill="#19284E"/>
<rect x="193.422" y="30.7734" width="2.2381" height="2.2381" fill="#19284E"/>
<rect x="197.898" y="30.7734" width="2.2381" height="2.2381" fill="#19284E"/>
<rect x="188.945" y="34.832" width="2.2381" height="2.2381" fill="#19284E"/>
<rect x="193.422" y="34.832" width="2.2381" height="2.2381" fill="#19284E"/>
<rect x="197.898" y="34.832" width="2.2381" height="2.2381" fill="#19284E"/>
<circle cx="153.298" cy="19.583" r="0.559524" fill="#19284E"/>
<circle cx="153.298" cy="25.1806" r="0.559524" fill="#19284E"/>
<circle cx="153.298" cy="30.7744" r="0.559524" fill="#19284E"/>
<circle cx="153.298" cy="36.3681" r="0.559524" fill="#19284E"/>
<circle cx="153.298" cy="41.9619" r="0.559524" fill="#19284E"/>
<circle cx="153.298" cy="47.5595" r="0.559524" fill="#19284E"/>
<circle cx="153.298" cy="53.1533" r="0.559524" fill="#19284E"/>
<circle cx="153.298" cy="58.7509" r="0.559524" fill="#19284E"/>
<circle cx="153.298" cy="64.3486" r="0.559524" fill="#19284E"/>
<path d="M152.769 65.8038C152.993 66.1162 153.457 66.1162 153.68 65.8037L155.44 63.3395C155.704 62.9691 155.439 62.4548 154.984 62.4548H151.465C151.01 62.4548 150.745 62.9691 151.01 63.3395L152.769 65.8038Z" fill="#19284E"/>
</g>
<defs>
<filter id="filter0_d_93_7981" x="74.4001" y="170.435" width="157.786" height="157.786" filterUnits="userSpaceOnUse" color-interpolation-filters="sRGB">
<feFlood flood-opacity="0" result="BackgroundImageFix"/>
<feColorMatrix in="SourceAlpha" type="matrix" values="0 0 0 0 0 0 0 0 0 0 0 0 0 0 0 0 0 0 127 0" result="hardAlpha"/>
<feOffset dy="2.2381"/>
<feGaussianBlur stdDeviation="10.0714"/>
<feComposite in2="hardAlpha" operator="out"/>
<feColorMatrix type="matrix" values="0 0 0 0 0.318368 0 0 0 0 0.352892 0 0 0 0 0.441667 0 0 0 0.12 0"/>
<feBlend mode="normal" in2="BackgroundImageFix" result="effect1_dropShadow_93_7981"/>
<feBlend mode="normal" in="SourceGraphic" in2="effect1_dropShadow_93_7981" result="shape"/>
</filter>
<linearGradient id="paint0_linear_93_7981" x1="95.1072" y1="222.867" x2="43.567" y2="190.947" gradientUnits="userSpaceOnUse">
<stop stop-color="#4769E9"/>
<stop offset="1" stop-color="#3BA6F7"/>
</linearGradient>
<linearGradient id="paint1_linear_93_7981" x1="95.1072" y1="326.801" x2="43.567" y2="294.881" gradientUnits="userSpaceOnUse">
<stop stop-color="#4769E9"/>
<stop offset="1" stop-color="#3BA6F7"/>
</linearGradient>
<linearGradient id="paint2_linear_93_7981" x1="285.904" y1="222.867" x2="234.364" y2="190.947" gradientUnits="userSpaceOnUse">
<stop stop-color="#4769E9"/>
<stop offset="1" stop-color="#3BA6F7"/>
</linearGradient>
<linearGradient id="paint3_linear_93_7981" x1="285.904" y1="326.801" x2="234.364" y2="294.881" gradientUnits="userSpaceOnUse">
<stop stop-color="#4769E9"/>
<stop offset="1" stop-color="#3BA6F7"/>
</linearGradient>
<linearGradient id="paint4_linear_93_7981" x1="190.224" y1="166.496" x2="138.684" y2="134.576" gradientUnits="userSpaceOnUse">
<stop stop-color="#4769E9"/>
<stop offset="1" stop-color="#3BA6F7"/>
</linearGradient>
<linearGradient id="paint5_linear_93_7981" x1="190.224" y1="382.746" x2="138.684" y2="350.826" gradientUnits="userSpaceOnUse">
<stop stop-color="#4769E9"/>
<stop offset="1" stop-color="#3BA6F7"/>
</linearGradient>
<clipPath id="clip0_93_7981">
<rect width="312" height="422.71" fill="white"/>
</clipPath>
<clipPath id="clip1_93_7981">
<rect width="100" height="18" fill="white" transform="translate(103 238)"/>
</clipPath>
<clipPath id="clip2_93_7981">
<rect width="15.1071" height="21.8214" fill="white" transform="translate(146.02 115.047)"/>
</clipPath>
<clipPath id="clip3_93_7981">
<rect width="19.0238" height="17.9048" fill="white" transform="translate(143.781 333.262)"/>
</clipPath>
</defs>
</svg>
