<svg width="880" height="696" viewBox="0 0 880 696" fill="none" xmlns="http://www.w3.org/2000/svg">
<path d="M427.784 78.4277V143.803C427.784 187.986 391.967 223.803 347.784 223.803H246.323C209.88 223.803 180.337 253.346 180.337 289.789V289.789C180.337 326.232 209.88 355.775 246.323 355.775H668.014C704.457 355.775 734 385.318 734 421.761V421.761C734 458.204 704.457 487.746 668.014 487.746H66.9238C31.6197 487.746 3 516.366 3 551.67V551.67C3 586.974 31.6197 615.594 66.9238 615.594H420.567" stroke="#DADDE6" stroke-width="6"/>
<rect x="365" width="120" height="120" rx="60" fill="#CDCFD6"/>
<path d="M413.127 60.3945C413.127 67.3086 408.82 71.293 403.224 71.293C397.57 71.293 393.293 67.2793 393.293 60.3945C393.293 53.4805 397.57 49.4961 403.224 49.4961C408.82 49.4961 413.127 53.4805 413.127 60.3945ZM408.644 60.3945C408.644 55.8535 406.505 53.3926 403.224 53.3926C399.943 53.3926 397.775 55.8535 397.775 60.3945C397.775 64.9355 399.943 67.3965 403.224 67.3965C406.505 67.3965 408.644 64.9355 408.644 60.3945ZM415.391 49.7891H420.84L426.729 64.1738H426.963L432.852 49.7891H438.301V71H434.023V57.1133H433.848L428.311 70.9121H425.381L419.844 57.0547H419.668V71H415.391V49.7891ZM452.489 55.8535C452.313 54.1836 450.965 53.1875 448.827 53.1875C446.6 53.1875 445.37 54.2129 445.34 55.6191C445.311 57.1426 446.922 57.8457 448.739 58.2559L450.643 58.7246C454.276 59.5449 457 61.3906 457 64.9355C457 68.832 453.954 71.293 448.797 71.293C443.67 71.293 440.389 68.9199 440.272 64.3789H444.549C444.696 66.5176 446.395 67.6016 448.739 67.6016C451.053 67.6016 452.547 66.5176 452.547 64.9355C452.547 63.5 451.229 62.8262 448.914 62.2402L446.6 61.6836C443.026 60.8047 440.829 59.0176 440.829 55.9121C440.829 52.0449 444.227 49.4961 448.856 49.4961C453.543 49.4961 456.649 52.1035 456.707 55.8535H452.489Z" fill="white"/>
<rect x="365" y="138" width="120" height="119.008" rx="59.5041" fill="url(#paint0_linear_127_749)"/>
<path d="M394.757 208.504L388.693 187.293H393.498L397.072 202.117H397.248L401.144 187.293H405.275L409.171 202.146H409.347L412.921 187.293H417.726L411.662 208.504H407.355L403.312 194.5H403.136L399.064 208.504H394.757ZM419.082 187.293H424.531L430.42 201.678H430.654L436.543 187.293H441.992V208.504H437.715V194.617H437.539L432.002 208.416H429.072L423.535 194.559H423.359V208.504H419.082V187.293ZM456.18 193.357C456.004 191.688 454.657 190.691 452.518 190.691C450.291 190.691 449.061 191.717 449.032 193.123C449.002 194.646 450.614 195.35 452.43 195.76L454.334 196.229C457.967 197.049 460.692 198.895 460.692 202.439C460.692 206.336 457.645 208.797 452.489 208.797C447.362 208.797 444.08 206.424 443.963 201.883H448.241C448.387 204.021 450.086 205.105 452.43 205.105C454.745 205.105 456.239 204.021 456.239 202.439C456.239 201.004 454.92 200.33 452.606 199.744L450.291 199.188C446.717 198.309 444.52 196.521 444.52 193.416C444.52 189.549 447.918 187 452.547 187C457.235 187 460.34 189.607 460.399 193.357H456.18Z" fill="white"/>
<rect x="144" y="249" width="84" height="84" rx="42" fill="#336DFF"/>
<path d="M166.148 314.972V282.197" stroke="white" stroke-width="2" stroke-miterlimit="10"/>
<path d="M205.828 314.972V282.197" stroke="white" stroke-width="2" stroke-miterlimit="10"/>
<path d="M162 285.235L186.421 267.027L210 285.235" stroke="white" stroke-width="2" stroke-miterlimit="10"/>
<path d="M192.78 289H179.219V300.407H192.78V289Z" fill="white" stroke="#336DFF" stroke-width="2" stroke-miterlimit="10"/>
<path d="M185.979 300.406H173.461V311.814H185.979V300.406Z" fill="white" stroke="#336DFF" stroke-width="2" stroke-miterlimit="10"/>
<path d="M198.495 300.406H185.977V311.814H198.495V300.406Z" fill="white" stroke="#336DFF" stroke-width="2" stroke-miterlimit="10"/>
<path d="M36.9773 283.023V292.574H34.4773V283.023H36.9773ZM27.5437 293.355V295.016H34.4969V293.355H36.9773V300.602H25.0828V293.355H27.5437ZM27.5437 298.59H34.4969V296.949H27.5437V298.59ZM27.2312 283.766C30.0047 283.746 32.0945 285.484 32.0945 287.984C32.0945 290.406 30.0047 292.145 27.2312 292.145C24.4578 292.145 22.368 290.406 22.368 287.984C22.368 285.484 24.4578 283.746 27.2312 283.766ZM27.2312 285.836C25.8055 285.836 24.7898 286.637 24.8094 287.984C24.7898 289.312 25.8055 290.094 27.2312 290.094C28.618 290.094 29.6336 289.312 29.6336 287.984C29.6336 286.637 28.618 285.836 27.2312 285.836ZM53.4281 284.566V286.246C53.4281 288.473 53.4281 290.973 52.7055 294.742L50.2055 294.488C50.8793 291.129 50.9086 288.629 50.9281 286.539H40.4594V284.566H53.4281ZM54.9906 296.598V298.629H38.7797V296.598H44.5805V290.484H47.0609V296.598H54.9906ZM74.8844 283.023V300.797H72.5016V283.023H74.8844ZM71.2516 283.277V299.977H68.9078V294.469H66.818C66.1539 296.197 64.9918 297.184 63.4977 297.184C61.1539 297.184 59.6305 294.723 59.6305 290.719C59.6305 286.734 61.1539 284.293 63.4977 284.293C64.982 284.293 66.1441 285.26 66.818 286.969H68.9078V283.277H71.2516ZM63.4977 286.637C62.4625 286.637 61.8766 288.004 61.8961 290.719C61.8766 293.453 62.4625 294.801 63.4977 294.781C64.5328 294.801 65.1578 293.453 65.1578 290.719C65.1578 288.004 64.5133 286.637 63.4977 286.637ZM67.3062 288.961C67.3844 289.508 67.4234 290.094 67.4234 290.719C67.4234 291.334 67.3844 291.92 67.3062 292.457H68.9078V288.961H67.3062ZM91.1398 283.023V293.57H88.6594V289.371H85.8859V287.359H88.6594V283.023H91.1398ZM85.0656 293.961C88.8547 293.98 91.1789 295.23 91.1984 297.398C91.1789 299.547 88.8547 300.816 85.0656 300.816C81.2766 300.816 78.9523 299.547 78.9523 297.398C78.9523 295.23 81.2766 293.98 85.0656 293.961ZM85.0656 295.875C82.7023 295.875 81.4328 296.363 81.4328 297.398C81.4328 298.414 82.7023 298.922 85.0656 298.922C87.4289 298.922 88.718 298.414 88.718 297.398C88.718 296.363 87.4289 295.875 85.0656 295.875ZM86.4133 284.098V286.09H82.8781C82.9367 288.16 84.1867 290.25 86.9602 291.168L85.7297 293.121C83.7668 292.486 82.4191 291.197 81.6477 289.586C80.8566 291.402 79.4406 292.867 77.3312 293.59L76.0422 291.617C78.9621 290.641 80.2707 288.316 80.3391 286.09H76.7648V284.098H86.4133ZM111.834 283.023V293.57H109.354V289.371H106.58V287.359H109.354V283.023H111.834ZM105.76 293.961C109.549 293.98 111.873 295.23 111.893 297.398C111.873 299.547 109.549 300.816 105.76 300.816C101.971 300.816 99.6469 299.547 99.6469 297.398C99.6469 295.23 101.971 293.98 105.76 293.961ZM105.76 295.875C103.397 295.875 102.127 296.363 102.127 297.398C102.127 298.414 103.397 298.922 105.76 298.922C108.123 298.922 109.412 298.414 109.412 297.398C109.412 296.363 108.123 295.875 105.76 295.875ZM107.108 284.098V286.09H103.573C103.631 288.16 104.881 290.25 107.655 291.168L106.424 293.121C104.461 292.486 103.114 291.197 102.342 289.586C101.551 291.402 100.135 292.867 98.0258 293.59L96.7367 291.617C99.6566 290.641 100.965 288.316 101.034 286.09H97.4594V284.098H107.108ZM129.809 296.695V298.727H113.539V296.695H120.395V293.414H115.258V284.156H117.758V286.91H125.512V284.156H127.992V293.414H122.875V296.695H129.809ZM117.758 291.422H125.512V288.902H117.758V291.422Z" fill="black"/>
<path d="M405.095 411.023V420.574H402.595V411.023H405.095ZM395.661 421.355V423.016H402.614V421.355H405.095V428.602H393.2V421.355H395.661ZM395.661 426.59H402.614V424.949H395.661V426.59ZM395.348 411.766C398.122 411.746 400.212 413.484 400.212 415.984C400.212 418.406 398.122 420.145 395.348 420.145C392.575 420.145 390.485 418.406 390.485 415.984C390.485 413.484 392.575 411.746 395.348 411.766ZM395.348 413.836C393.923 413.836 392.907 414.637 392.927 415.984C392.907 417.312 393.923 418.094 395.348 418.094C396.735 418.094 397.751 417.312 397.751 415.984C397.751 414.637 396.735 413.836 395.348 413.836ZM421.545 412.566V414.246C421.545 416.473 421.545 418.973 420.823 422.742L418.323 422.488C418.996 419.129 419.026 416.629 419.045 414.539H408.577V412.566H421.545ZM423.108 424.598V426.629H406.897V424.598H412.698V418.484H415.178V424.598H423.108ZM436.81 412.059C436.81 416.707 433.88 419.93 428.666 421.375L427.689 419.441C431.517 418.406 433.724 416.453 434.154 414.051H428.646V412.059H436.81ZM442.572 411.043V420.984H440.091V417.293H436.927V415.262H440.091V411.043H442.572ZM442.572 421.688V428.582H430.795V421.688H442.572ZM433.236 423.641V426.629H440.111V423.641H433.236ZM453.71 412.41C453.71 414.5 455.839 416.824 459.921 417.332L458.945 419.344C455.839 418.895 453.564 417.459 452.402 415.535C451.23 417.459 448.974 418.895 445.898 419.344L444.902 417.332C448.945 416.824 451.093 414.5 451.093 412.41V411.551H453.71V412.41ZM460.487 420.691V422.723H453.573V428.797H451.112V422.723H444.277V420.691H460.487Z" fill="black"/>
<path d="M200.573 545.008V546.98H197.037C197.057 549.08 198.307 551.229 201.12 552.156L199.889 554.07C197.916 553.445 196.569 552.156 195.807 550.555C195.006 552.332 193.59 553.768 191.491 554.441L190.221 552.469C193.141 551.531 194.469 549.197 194.498 546.98H190.924V545.008H200.573ZM205.299 555.379V561.785H202.819V557.371H193.092V555.379H205.299ZM205.299 544.012V554.598H202.819V550.32H200.065V548.289H202.819V544.012H205.299ZM221.867 544.012V561.785H219.367V544.012H221.867ZM213.957 549.578C213.957 552.156 215.422 555.066 218.371 556.277L217.023 558.191C215.002 557.361 213.557 555.662 212.746 553.621C211.955 555.789 210.5 557.605 208.43 558.465L207.102 556.551C210.031 555.281 211.477 552.293 211.477 549.578V548.895H207.687V546.902H211.457V544.402H213.937V546.902H217.648V548.895H213.957V549.578ZM233.499 544.754C236.214 544.734 238.187 546.277 238.187 548.523C238.187 550.75 236.214 552.312 233.499 552.293C230.784 552.312 228.812 550.75 228.831 548.523C228.812 546.277 230.784 544.734 233.499 544.754ZM233.499 546.746C232.171 546.746 231.234 547.391 231.234 548.523C231.234 549.637 232.171 550.281 233.499 550.262C234.866 550.281 235.823 549.637 235.823 548.523C235.823 547.391 234.866 546.746 233.499 546.746ZM242.679 544.031V561.785H240.218V544.031H242.679ZM227.737 553.387C230.882 553.387 235.355 553.309 239.144 552.742L239.3 554.578C237.835 554.871 236.331 555.057 234.847 555.164V561.258H232.366V555.32C230.804 555.389 229.329 555.398 228.05 555.418L227.737 553.387ZM259.247 544.012V561.785H256.747V544.012H259.247ZM251.337 549.578C251.337 552.156 252.802 555.066 255.751 556.277L254.403 558.191C252.382 557.361 250.936 555.662 250.126 553.621C249.335 555.789 247.88 557.605 245.809 558.465L244.481 556.551C247.411 555.281 248.856 552.293 248.856 549.578V548.895H245.067V546.902H248.837V544.402H251.317V546.902H255.028V548.895H251.337V549.578ZM280.059 544.012V552.957H277.578V551.59H273.516V549.695H277.578V548.133H273.711C272.607 550.809 270.068 552.518 266.133 553.367L265.293 551.336C269.365 550.525 271.25 548.846 271.582 546.707H266.289V544.695H274.336C274.336 545.232 274.297 545.75 274.219 546.238H277.578V544.012H280.059ZM280.059 553.602V558.465H270.762V559.637H280.449V561.609H268.262V556.629H277.559V555.555H268.242V553.602H280.059ZM296.744 544.012V554.559H294.263V550.359H291.49V548.348H294.263V544.012H296.744ZM290.67 554.949C294.459 554.969 296.783 556.219 296.802 558.387C296.783 560.535 294.459 561.805 290.67 561.805C286.88 561.805 284.556 560.535 284.556 558.387C284.556 556.219 286.88 554.969 290.67 554.949ZM290.67 556.863C288.306 556.863 287.037 557.352 287.037 558.387C287.037 559.402 288.306 559.91 290.67 559.91C293.033 559.91 294.322 559.402 294.322 558.387C294.322 557.352 293.033 556.863 290.67 556.863ZM292.017 545.086V547.078H288.482C288.541 549.148 289.791 551.238 292.564 552.156L291.334 554.109C289.371 553.475 288.023 552.186 287.252 550.574C286.461 552.391 285.045 553.855 282.935 554.578L281.646 552.605C284.566 551.629 285.875 549.305 285.943 547.078H282.369V545.086H292.017ZM303.493 554.598C303.493 550.926 304.626 547.879 306.501 545.242H309.255C307.907 547.195 306.501 551.102 306.501 554.598C306.501 558.113 307.907 562.02 309.255 563.973H306.501C304.626 561.336 303.493 558.27 303.493 554.598ZM325.862 554.656V556.688H318.967V561.805H316.506V556.688H309.651V554.656H325.862ZM324.377 546.062V548.016H319.045C319.329 549.578 321.33 551.336 325.002 551.746L324.104 553.699C321.096 553.357 318.918 552.127 317.756 550.496C316.604 552.146 314.407 553.357 311.37 553.699L310.471 551.746C314.143 551.336 316.164 549.588 316.467 548.016H311.116V546.062H316.506V544.031H318.967V546.062H324.377ZM332.879 548.191C332.879 550.184 334.188 552.234 337.078 553.113L335.887 555.047C333.895 554.48 332.488 553.26 331.688 551.707C330.896 553.387 329.48 554.705 327.43 555.34L326.219 553.387C329.109 552.527 330.398 550.359 330.398 548.191V548.055H326.824V546.102H330.398V544.129H332.918V546.102H336.473V548.055H332.879V548.191ZM341.316 544.031V557.215H338.836V551.219H335.887V549.207H338.836V544.031H341.316ZM341.746 559.48V561.473H329.52V556.082H332.02V559.48H341.746ZM348.724 554.598C348.724 558.27 347.591 561.336 345.716 563.973H342.962C344.31 562.02 345.716 558.113 345.716 554.598C345.716 551.102 344.31 547.195 342.962 545.242H345.716C347.591 547.879 348.724 550.926 348.724 554.598Z" fill="black"/>
<path d="M405.645 674.02V675.992H402.11C402.13 678.092 403.38 680.24 406.192 681.168L404.962 683.082C402.989 682.457 401.641 681.168 400.88 679.566C400.079 681.344 398.663 682.779 396.563 683.453L395.294 681.48C398.214 680.543 399.542 678.209 399.571 675.992H395.997V674.02H405.645ZM410.372 684.391V690.797H407.891V686.383H398.165V684.391H410.372ZM410.372 673.023V683.609H407.891V679.332H405.138V677.301H407.891V673.023H410.372ZM426.94 673.023V690.797H424.44V673.023H426.94ZM419.03 678.59C419.03 681.168 420.495 684.078 423.444 685.289L422.096 687.203C420.075 686.373 418.629 684.674 417.819 682.633C417.028 684.801 415.573 686.617 413.502 687.477L412.174 685.562C415.104 684.293 416.549 681.305 416.549 678.59V677.906H412.76V675.914H416.53V673.414H419.01V675.914H422.721V677.906H419.03V678.59ZM446.99 673.043V678.121H449.255V680.172H446.99V685.113H444.49V673.043H446.99ZM432.576 682.828C433.875 682.828 435.359 682.828 436.892 682.789V681.793C434.959 681.52 433.748 680.582 433.767 679.215C433.748 677.574 435.486 676.559 438.123 676.559C440.74 676.559 442.459 677.574 442.478 679.215C442.459 680.582 441.277 681.51 439.373 681.773V682.691C440.838 682.633 442.293 682.516 443.67 682.34L443.845 684.059C440.095 684.723 435.974 684.762 432.83 684.762L432.576 682.828ZM446.99 685.836V690.797H444.49V687.75H434.841V685.836H446.99ZM443.22 674.332V676.148H433.045V674.332H436.892V672.887H439.373V674.332H443.22ZM438.123 678.219C436.853 678.219 436.13 678.531 436.15 679.215C436.13 679.859 436.853 680.23 438.123 680.23C439.373 680.23 440.076 679.859 440.095 679.215C440.076 678.531 439.373 678.219 438.123 678.219ZM464.437 673.023V683.57H461.956V679.371H459.183V677.359H461.956V673.023H464.437ZM458.362 683.961C462.152 683.98 464.476 685.23 464.495 687.398C464.476 689.547 462.152 690.816 458.362 690.816C454.573 690.816 452.249 689.547 452.249 687.398C452.249 685.23 454.573 683.98 458.362 683.961ZM458.362 685.875C455.999 685.875 454.73 686.363 454.73 687.398C454.73 688.414 455.999 688.922 458.362 688.922C460.726 688.922 462.015 688.414 462.015 687.398C462.015 686.363 460.726 685.875 458.362 685.875ZM459.71 674.098V676.09H456.175C456.234 678.16 457.484 680.25 460.257 681.168L459.027 683.121C457.064 682.486 455.716 681.197 454.945 679.586C454.154 681.402 452.737 682.867 450.628 683.59L449.339 681.617C452.259 680.641 453.568 678.316 453.636 676.09H450.062V674.098H459.71Z" fill="black"/>
<path d="M67.9945 674.02V675.992H64.4594C64.4789 678.092 65.7289 680.24 68.5414 681.168L67.3109 683.082C65.3383 682.457 63.9906 681.168 63.2289 679.566C62.4281 681.344 61.0121 682.779 58.9125 683.453L57.643 681.48C60.5629 680.543 61.891 678.209 61.9203 675.992H58.3461V674.02H67.9945ZM72.7211 684.391V690.797H70.2406V686.383H60.5141V684.391H72.7211ZM72.7211 673.023V683.609H70.2406V679.332H67.4867V677.301H70.2406V673.023H72.7211ZM89.2891 673.023V690.797H86.7891V673.023H89.2891ZM81.3789 678.59C81.3789 681.168 82.8437 684.078 85.793 685.289L84.4453 687.203C82.4238 686.373 80.9785 684.674 80.168 682.633C79.377 684.801 77.9219 686.617 75.8516 687.477L74.5234 685.562C77.4531 684.293 78.8984 681.305 78.8984 678.59V677.906H75.1094V675.914H78.8789V673.414H81.3594V675.914H85.0703V677.906H81.3789V678.59ZM100.921 673.766C103.636 673.746 105.609 675.289 105.609 677.535C105.609 679.762 103.636 681.324 100.921 681.305C98.2062 681.324 96.2336 679.762 96.2531 677.535C96.2336 675.289 98.2062 673.746 100.921 673.766ZM100.921 675.758C99.593 675.758 98.6555 676.402 98.6555 677.535C98.6555 678.648 99.593 679.293 100.921 679.273C102.288 679.293 103.245 678.648 103.245 677.535C103.245 676.402 102.288 675.758 100.921 675.758ZM110.101 673.043V690.797H107.64V673.043H110.101ZM95.1594 682.398C98.3039 682.398 102.777 682.32 106.566 681.754L106.722 683.59C105.257 683.883 103.753 684.068 102.269 684.176V690.27H99.7883V684.332C98.2258 684.4 96.7512 684.41 95.4719 684.43L95.1594 682.398ZM126.669 673.023V690.797H124.169V673.023H126.669ZM118.759 678.59C118.759 681.168 120.223 684.078 123.173 685.289L121.825 687.203C119.804 686.373 118.358 684.674 117.548 682.633C116.757 684.801 115.302 686.617 113.231 687.477L111.903 685.562C114.833 684.293 116.278 681.305 116.278 678.59V677.906H112.489V675.914H116.259V673.414H118.739V675.914H122.45V677.906H118.759V678.59ZM147.383 673.023V690.836H144.863V673.023H147.383ZM137.734 674.273C140.41 674.273 142.402 676.734 142.402 680.602C142.402 684.508 140.41 686.949 137.734 686.949C135 686.949 133.008 684.508 133.027 680.602C133.008 676.734 135 674.273 137.734 674.273ZM137.734 676.52C136.348 676.52 135.43 677.965 135.43 680.602C135.43 683.258 136.348 684.684 137.734 684.684C139.082 684.684 140 683.258 140 680.602C140 677.965 139.082 676.52 137.734 676.52ZM165.435 681.422V683.375H149.185V681.422H156.099V679.898H151.158V673.805H163.482V675.738H153.638V677.945H163.58V679.898H158.541V681.422H165.435ZM157.271 684.273C161.119 684.273 163.443 685.445 163.463 687.555C163.443 689.625 161.119 690.816 157.271 690.816C153.384 690.816 151.041 689.625 151.041 687.555C151.041 685.445 153.384 684.273 157.271 684.273ZM157.271 686.168C154.81 686.168 153.56 686.637 153.58 687.555C153.56 688.492 154.81 688.922 157.271 688.922C159.673 688.922 160.943 688.492 160.963 687.555C160.943 686.637 159.673 686.168 157.271 686.168Z" fill="black"/>
<path d="M597.113 283.023V292.574H594.613V283.023H597.113ZM587.68 293.355V295.016H594.633V293.355H597.113V300.602H585.219V293.355H587.68ZM587.68 298.59H594.633V296.949H587.68V298.59ZM587.367 283.766C590.141 283.746 592.23 285.484 592.23 287.984C592.23 290.406 590.141 292.145 587.367 292.145C584.594 292.145 582.504 290.406 582.504 287.984C582.504 285.484 584.594 283.746 587.367 283.766ZM587.367 285.836C585.941 285.836 584.926 286.637 584.945 287.984C584.926 289.312 585.941 290.094 587.367 290.094C588.754 290.094 589.77 289.312 589.77 287.984C589.77 286.637 588.754 285.836 587.367 285.836ZM613.564 284.566V286.246C613.564 288.473 613.564 290.973 612.841 294.742L610.341 294.488C611.015 291.129 611.045 288.629 611.064 286.539H600.595V284.566H613.564ZM615.127 296.598V298.629H598.916V296.598H604.716V290.484H607.197V296.598H615.127ZM635.02 283.023V300.797H632.638V283.023H635.02ZM631.388 283.277V299.977H629.044V294.469H626.954C626.29 296.197 625.128 297.184 623.634 297.184C621.29 297.184 619.766 294.723 619.766 290.719C619.766 286.734 621.29 284.293 623.634 284.293C625.118 284.293 626.28 285.26 626.954 286.969H629.044V283.277H631.388ZM623.634 286.637C622.598 286.637 622.013 288.004 622.032 290.719C622.013 293.453 622.598 294.801 623.634 294.781C624.669 294.801 625.294 293.453 625.294 290.719C625.294 288.004 624.649 286.637 623.634 286.637ZM627.442 288.961C627.52 289.508 627.559 290.094 627.559 290.719C627.559 291.334 627.52 291.92 627.442 292.457H629.044V288.961H627.442ZM642.057 284.078C644.87 284.078 646.979 285.875 646.979 288.434C646.979 290.602 645.465 292.223 643.287 292.672V295.055C644.791 294.977 646.305 294.84 647.741 294.645L647.936 296.441C643.991 297.184 639.772 297.223 636.666 297.223L636.373 295.211C637.682 295.211 639.205 295.201 640.807 295.152V292.652C638.639 292.213 637.116 290.592 637.116 288.434C637.116 285.875 639.245 284.078 642.057 284.078ZM642.057 286.207C640.651 286.207 639.577 287.008 639.596 288.434C639.577 289.82 640.651 290.66 642.057 290.66C643.483 290.66 644.537 289.82 644.557 288.434C644.537 287.008 643.463 286.207 642.057 286.207ZM651.237 283.023V300.836H648.756V283.023H651.237ZM672.009 283.023V300.836H669.509V291.852H666.306V289.859H669.509V283.023H672.009ZM663.65 288.59C663.65 291.168 665.056 294.039 667.966 295.289L666.638 297.203C664.617 296.363 663.211 294.664 662.439 292.633C661.658 294.791 660.261 296.607 658.22 297.477L656.912 295.562C659.763 294.293 661.15 291.266 661.17 288.59V287.906H657.478V285.914H661.17V283.414H663.67V285.914H667.263V287.906H663.65V288.59ZM688.577 283.023V300.836H686.097V283.023H688.577ZM683.07 284.508V291.363H677.21V294.625C679.915 294.615 682.22 294.459 684.827 294.039L685.042 296.051C682.113 296.559 679.476 296.676 676.234 296.676H674.632V289.391H680.53V286.52H674.613V284.508H683.07Z" fill="black"/>
<path d="M514.41 51.0234V60.5742H511.91V51.0234H514.41ZM504.977 61.3555V63.0156H511.93V61.3555H514.41V68.6016H502.516V61.3555H504.977ZM504.977 66.5898H511.93V64.9492H504.977V66.5898ZM504.664 51.7656C507.438 51.7461 509.527 53.4844 509.527 55.9844C509.527 58.4062 507.438 60.1445 504.664 60.1445C501.891 60.1445 499.801 58.4062 499.801 55.9844C499.801 53.4844 501.891 51.7461 504.664 51.7656ZM504.664 53.8359C503.238 53.8359 502.223 54.6367 502.242 55.9844C502.223 57.3125 503.238 58.0938 504.664 58.0938C506.051 58.0938 507.066 57.3125 507.066 55.9844C507.066 54.6367 506.051 53.8359 504.664 53.8359ZM530.861 52.5664V54.2461C530.861 56.4727 530.861 58.9727 530.138 62.7422L527.638 62.4883C528.312 59.1289 528.341 56.6289 528.361 54.5391H517.892V52.5664H530.861ZM532.423 64.5977V66.6289H516.212V64.5977H522.013V58.4844H524.494V64.5977H532.423ZM553.118 60.8281V62.8203H546.204V68.7969H543.743V62.8203H536.907V60.8281H553.118ZM551.673 51.9609V53.9141H546.497C546.741 55.6523 548.704 57.4004 552.356 57.8398L551.458 59.793C548.333 59.373 546.096 58.0352 545.032 56.1992C543.938 58.0352 541.721 59.373 538.626 59.793L537.708 57.8398C541.302 57.4004 543.284 55.6523 543.567 53.9141H538.372V51.9609H551.673ZM569.842 59.8125V61.7852H563.143V64.8516H560.682V61.7852H553.573V59.8125H569.842ZM567.752 51.8047V58.3477H555.604V51.8047H567.752ZM558.045 53.7383V56.4141H565.311V53.7383H558.045ZM568.045 66.4922V68.4844H555.487V63.3086H557.967V66.4922H568.045Z" fill="black"/>
<path d="M426.359 335V335C426.359 312.909 444.268 295 466.359 295H494.359" stroke="#DADDE6" stroke-width="6" stroke-dasharray="8 8"/>
<rect x="383" y="312" width="84" height="84" rx="42" fill="#336DFF"/>
<mask id="path-22-inside-1_127_749" fill="white">
<rect x="407.992" y="333.943" width="34.0078" height="41.5454" rx="2"/>
</mask>
<rect x="407.992" y="333.943" width="34.0078" height="41.5454" rx="2" fill="white" stroke="white" stroke-width="6" mask="url(#path-22-inside-1_127_749)"/>
<path d="M414.602 345.154L417.016 347.253L421.214 343.369" stroke="#336DFF" stroke-width="3"/>
<path d="M414.602 355.03L417.016 357.13L421.214 353.246" stroke="#336DFF" stroke-width="3"/>
<path d="M414.602 365.013L417.016 367.112L421.214 363.229" stroke="#336DFF" stroke-width="3"/>
<path d="M426.258 343.266H435.075" stroke="#336DFF" stroke-width="3"/>
<path d="M426.258 353.143H435.075" stroke="#336DFF" stroke-width="3"/>
<path d="M426.258 363.123H435.075" stroke="#336DFF" stroke-width="3"/>
<rect x="227.18" y="444.988" width="84" height="84" rx="42" fill="#336DFF"/>
<path d="M258.567 485.553H252.102C251.494 485.553 251 486.04 251 486.641V509.574C251 510.175 251.494 510.662 252.102 510.662H258.567C259.176 510.662 259.669 510.175 259.669 509.574V486.641C259.669 486.04 259.176 485.553 258.567 485.553Z" fill="white"/>
<path d="M259.668 508.268C259.668 508.268 262.196 511.303 265.375 511.303H282.698C282.698 511.303 285.681 510.796 285.681 508.268C285.681 505.74 283.726 504.883 283.726 504.883C283.726 504.883 286.761 504.74 286.761 501.887C286.761 499.033 284.449 498.605 284.449 498.605C284.449 498.605 287.916 498.605 287.916 495.752C287.916 492.899 285.171 492.328 285.171 492.328C285.171 492.328 288.928 492.613 288.928 489.189C288.928 485.765 283.582 486.05 283.582 486.05L273.179 486.029V476.065C272.675 473.089 269.832 472.518 268.148 472.448C267.463 472.42 266.892 472.962 266.892 473.64V480.702L263.159 487.265H259.234" stroke="white" stroke-width="2" stroke-linecap="round" stroke-linejoin="round"/>
<path d="M279.25 492.328H285.174" stroke="white" stroke-width="2" stroke-linecap="round" stroke-linejoin="round"/>
<path d="M279.32 498.605H284.666" stroke="white" stroke-width="2" stroke-linecap="round" stroke-linejoin="round"/>
<path d="M279.32 504.883H283.944" stroke="white" stroke-width="2" stroke-linecap="round" stroke-linejoin="round"/>
<path d="M268.883 458.385C269.276 457.683 270.294 457.707 270.652 458.427L271.769 460.673C271.907 460.951 272.166 461.149 272.47 461.209L274.931 461.696C275.72 461.852 276.011 462.828 275.437 463.391L273.646 465.147C273.425 465.364 273.317 465.672 273.353 465.98L273.651 468.47C273.746 469.269 272.908 469.847 272.195 469.475L269.971 468.315C269.696 468.171 269.371 468.164 269.089 468.294L266.812 469.346C266.082 469.684 265.273 469.065 265.406 468.273L265.823 465.799C265.874 465.493 265.781 465.181 265.57 464.953L263.866 463.113C263.319 462.523 263.657 461.562 264.453 461.444L266.934 461.076C267.241 461.031 267.509 460.845 267.66 460.575L268.883 458.385Z" fill="white"/>
<path d="M253.579 466.631C253.971 465.929 254.989 465.953 255.347 466.673L256.464 468.919C256.602 469.197 256.861 469.395 257.165 469.455L259.626 469.942C260.415 470.098 260.706 471.074 260.132 471.637L258.341 473.393C258.12 473.61 258.012 473.918 258.049 474.226L258.346 476.716C258.441 477.515 257.603 478.094 256.89 477.722L254.667 476.561C254.392 476.418 254.066 476.41 253.784 476.54L251.507 477.592C250.778 477.93 249.968 477.312 250.102 476.519L250.518 474.045C250.57 473.739 250.476 473.427 250.266 473.199L248.561 471.359C248.015 470.769 248.353 469.808 249.148 469.69L251.629 469.322C251.936 469.277 252.204 469.091 252.355 468.821L253.579 466.631Z" fill="white"/>
<path d="M286.157 466.631C286.549 465.929 287.567 465.953 287.925 466.673L289.042 468.919C289.18 469.197 289.439 469.395 289.744 469.455L292.204 469.942C292.993 470.098 293.285 471.074 292.711 471.637L290.92 473.393C290.698 473.61 290.59 473.918 290.627 474.226L290.924 476.716C291.02 477.515 290.181 478.094 289.469 477.722L287.245 476.561C286.97 476.418 286.644 476.41 286.362 476.54L284.086 477.592C283.356 477.93 282.546 477.312 282.68 476.519L283.096 474.045C283.148 473.739 283.055 473.427 282.844 473.199L281.139 471.359C280.593 470.769 280.931 469.808 281.726 469.69L284.207 469.322C284.514 469.277 284.782 469.091 284.933 468.821L286.157 466.631Z" fill="white"/>
<rect x="388.18" y="574" width="84" height="84" rx="42" fill="#336DFF"/>
<path d="M430.177 594.936C420.475 594.936 412.609 602.746 412.609 612.38C412.609 622.538 425.13 633.135 429.031 636.19C429.708 636.72 430.646 636.72 431.323 636.19C435.224 633.135 447.745 622.538 447.745 612.38C447.745 602.746 439.879 594.936 430.177 594.936ZM430.177 618.57C426.482 618.57 423.488 615.598 423.488 611.929C423.488 608.26 426.482 605.287 430.177 605.287C433.872 605.287 436.865 608.26 436.865 611.929C436.865 615.598 433.872 618.57 430.177 618.57Z" fill="white"/>
<rect x="68.7188" y="574" width="84" height="84" rx="42" fill="#336DFF"/>
<path d="M97.0652 593.721C91.7781 593.721 87.4922 597.977 87.4922 603.227C87.4922 609.783 97.0652 616.675 97.0652 616.675C97.0652 616.675 106.638 609.783 106.638 603.227C106.638 597.977 102.352 593.721 97.0652 593.721ZM97.0652 606.6C95.0516 606.6 93.4205 604.98 93.4205 602.981C93.4205 600.981 95.0516 599.362 97.0652 599.362C99.0788 599.362 100.71 600.981 100.71 602.981C100.71 604.98 99.0788 606.6 97.0652 606.6Z" fill="white"/>
<path d="M124.378 615.324C119.091 615.324 114.805 619.58 114.805 624.83C114.805 631.387 124.378 638.279 124.378 638.279C124.378 638.279 133.951 631.387 133.951 624.83C133.951 619.58 129.665 615.324 124.378 615.324ZM124.378 628.203C122.364 628.203 120.733 626.584 120.733 624.584C120.733 622.585 122.364 620.965 124.378 620.965C126.391 620.965 128.022 622.585 128.022 624.584C128.022 626.584 126.391 628.203 124.378 628.203Z" fill="white"/>
<path d="M103.379 611.199C108.046 611.783 116.979 614.399 115.379 620.199C113.379 627.449 99.4202 617.165 92.6294 626.449C85.1323 636.699 105.126 638.699 124.376 636.449" stroke="white" stroke-width="2" stroke-dasharray="2 2"/>
<rect x="484" y="249" width="84" height="84" rx="42" fill="#6E62FD"/>
<rect x="506.328" y="269.145" width="29.923" height="36.9985" rx="1" fill="white" stroke="white" stroke-width="2"/>
<path d="M511.539 278.669L513.805 280.64L517.746 276.994" stroke="#6E62FD" stroke-width="3"/>
<path d="M511.539 287.939L513.805 289.909L517.746 286.264" stroke="#6E62FD" stroke-width="3"/>
<path d="M522.469 276.895H530.745" stroke="#6E62FD" stroke-width="3"/>
<path d="M522.469 286.166H530.745" stroke="#6E62FD" stroke-width="3"/>
<circle cx="534.857" cy="302.04" r="12.6458" fill="#6E62FD" stroke="white" stroke-width="3"/>
<path d="M525.383 310.936L543.831 292.488" stroke="white" stroke-width="3"/>
<path d="M568.109 516.757C568.109 574.881 615.228 622 673.353 622C731.477 622 778.596 574.881 778.596 516.757C778.596 482.854 762.565 452.695 737.67 433.447" stroke="#DADDE6" stroke-width="6" stroke-dasharray="8 8"/>
<path d="M798.113 413.023V422.574H795.613V413.023H798.113ZM788.68 423.355V425.016H795.633V423.355H798.113V430.602H786.219V423.355H788.68ZM788.68 428.59H795.633V426.949H788.68V428.59ZM788.367 413.766C791.141 413.746 793.23 415.484 793.23 417.984C793.23 420.406 791.141 422.145 788.367 422.145C785.594 422.145 783.504 420.406 783.504 417.984C783.504 415.484 785.594 413.746 788.367 413.766ZM788.367 415.836C786.941 415.836 785.926 416.637 785.945 417.984C785.926 419.312 786.941 420.094 788.367 420.094C789.754 420.094 790.77 419.312 790.77 417.984C790.77 416.637 789.754 415.836 788.367 415.836ZM814.564 414.566V416.246C814.564 418.473 814.564 420.973 813.841 424.742L811.341 424.488C812.015 421.129 812.045 418.629 812.064 416.539H801.595V414.566H814.564ZM816.127 426.598V428.629H799.916V426.598H805.716V420.484H808.197V426.598H816.127ZM834.829 413.043V418.121H837.095V420.172H834.829V425.113H832.329V413.043H834.829ZM820.415 422.828C821.714 422.828 823.198 422.828 824.731 422.789V421.793C822.798 421.52 821.587 420.582 821.606 419.215C821.587 417.574 823.325 416.559 825.962 416.559C828.579 416.559 830.298 417.574 830.317 419.215C830.298 420.582 829.116 421.51 827.212 421.773V422.691C828.677 422.633 830.132 422.516 831.509 422.34L831.684 424.059C827.934 424.723 823.813 424.762 820.669 424.762L820.415 422.828ZM834.829 425.836V430.797H832.329V427.75H822.68V425.836H834.829ZM831.059 414.332V416.148H820.884V414.332H824.731V412.887H827.212V414.332H831.059ZM825.962 418.219C824.692 418.219 823.97 418.531 823.989 419.215C823.97 419.859 824.692 420.23 825.962 420.23C827.212 420.23 827.915 419.859 827.934 419.215C827.915 418.531 827.212 418.219 825.962 418.219ZM852.276 413.023V423.57H849.795V419.371H847.022V417.359H849.795V413.023H852.276ZM846.202 423.961C849.991 423.98 852.315 425.23 852.334 427.398C852.315 429.547 849.991 430.816 846.202 430.816C842.412 430.816 840.088 429.547 840.088 427.398C840.088 425.23 842.412 423.98 846.202 423.961ZM846.202 425.875C843.838 425.875 842.569 426.363 842.569 427.398C842.569 428.414 843.838 428.922 846.202 428.922C848.565 428.922 849.854 428.414 849.854 427.398C849.854 426.363 848.565 425.875 846.202 425.875ZM847.549 414.098V416.09H844.014C844.073 418.16 845.323 420.25 848.096 421.168L846.866 423.121C844.903 422.486 843.555 421.197 842.784 419.586C841.993 421.402 840.577 422.867 838.467 423.59L837.178 421.617C840.098 420.641 841.407 418.316 841.475 416.09H837.901V414.098H847.549Z" fill="black"/>
<path d="M782.551 607.617V614.336H785.168V616.387H782.551V625.43H780.09V607.617H782.551ZM777.473 609.102V615.996H771.75V619.219C774.338 619.209 776.477 619.092 778.84 618.691L779.055 620.684C776.34 621.172 773.898 621.289 770.773 621.289H769.27V614.023H774.992V611.113H769.25V609.102H777.473ZM800.486 607.637V616.816H798.123V607.637H800.486ZM796.814 607.93V616.738H794.509V613.34H792.927V616.23H785.837V608.613H788.201V610.547H790.623V608.613H792.927V611.348H794.509V607.93H796.814ZM800.486 617.5V622.227H790.857V623.359H801.091V625.273H788.337V620.41H797.986V619.414H788.318V617.5H800.486ZM788.201 614.316H790.623V612.402H788.201V614.316ZM808.915 608.418V610.527H812.548V608.418H815.048V616.172H806.434V608.418H808.915ZM808.915 614.219H812.548V612.402H808.915V614.219ZM820.009 607.617V611.074H822.411V613.086H820.009V616.66H817.509V607.617H820.009ZM820.009 617.324V622.148H810.692V623.301H820.516V625.273H808.251V620.371H817.528V619.258H808.212V617.324H820.009ZM837.866 607.617V618.77H835.502V614.043H834.077V618.184H831.752V607.949H834.077V612.012H835.502V607.617H837.866ZM831.225 609.453V611.387H822.495V609.453H825.639V607.773H828.12V609.453H831.225ZM826.889 611.973C829.155 611.973 830.756 613.223 830.776 615.078C830.756 616.914 829.155 618.164 826.889 618.164C824.662 618.164 823.041 616.914 823.041 615.078C823.041 613.223 824.662 611.973 826.889 611.973ZM826.889 613.77C825.912 613.77 825.268 614.258 825.268 615.078C825.268 615.898 825.912 616.406 826.889 616.387C827.866 616.406 828.51 615.898 828.53 615.078C828.51 614.258 827.866 613.77 826.889 613.77ZM831.791 618.926C835.639 618.926 837.944 620.098 837.963 622.168C837.944 624.219 835.639 625.391 831.791 625.391C827.963 625.391 825.639 624.219 825.639 622.168C825.639 620.098 827.963 618.926 831.791 618.926ZM831.791 620.801C829.389 620.801 828.12 621.23 828.139 622.168C828.12 623.066 829.389 623.516 831.791 623.516C834.213 623.516 835.444 623.066 835.444 622.168C835.444 621.23 834.213 620.801 831.791 620.801ZM845.996 608.789L841.426 625.723H838.945L843.496 608.789H845.996ZM862.349 617.871V619.824H855.396V625.391H852.935V619.824H846.08V617.871H862.349ZM850.455 608.301V610.352H857.916V608.301H860.416V616.152H847.994V608.301H850.455ZM850.455 614.16H857.916V612.305H850.455V614.16ZM869.327 611.445C869.327 613.281 870.616 615.195 873.507 615.957L872.355 617.93C870.343 617.383 868.927 616.221 868.136 614.746C867.345 616.367 865.919 617.627 863.839 618.223L862.648 616.27C865.538 615.488 866.847 613.438 866.847 611.445H863.273V609.473H866.847V607.559H869.366V609.473H872.921V611.445H869.327ZM876.886 607.617V611.992H879.288V614.082H876.886V618.516H874.386V607.617H876.886ZM876.886 619.238V625.41H874.386V621.23H864.913V619.238H876.886Z" fill="black"/>
<path d="M443.439 514.105V516H441.994V519.574C442.697 519.535 443.4 519.477 444.064 519.398L444.162 521.195C440.686 521.742 436.682 521.781 433.654 521.781L433.381 519.828C433.996 519.828 434.641 519.828 435.314 519.809V516H433.85V514.105H443.439ZM447.58 513.012V516.508H449.982V518.559H447.58V522.133H445.08V513.012H447.58ZM447.58 522.836V527.582H438.264V528.695H448.088V530.668H435.822V525.824H445.1V524.77H435.783V522.836H447.58ZM437.717 519.789C438.332 519.77 438.967 519.75 439.592 519.711V516H437.717V519.789ZM456.961 514.789V521.527H453.054V524.555C454.783 524.535 456.423 524.457 458.269 524.105L458.484 526.137C456.16 526.566 454.168 526.605 451.921 526.625H450.671V519.555H454.558V516.762H450.652V514.789H456.961ZM465.535 513.012V530.785H463.171V513.012H465.535ZM461.843 513.344V529.926H459.519V521.098H457.703V519.086H459.519V513.344H461.843ZM481.341 522.191V524.164H468.763V514.32H481.204V516.332H471.302V518.207H480.794V520.16H471.302V522.191H481.341ZM483.118 526.684V528.715H466.849V526.684H483.118ZM497.797 514.008V515.98H494.262C494.282 518.08 495.532 520.229 498.344 521.156L497.114 523.07C495.141 522.445 493.793 521.156 493.032 519.555C492.231 521.332 490.815 522.768 488.715 523.441L487.446 521.469C490.366 520.531 491.694 518.197 491.723 515.98H488.149V514.008H497.797ZM502.524 524.379V530.785H500.043V526.371H490.317V524.379H502.524ZM502.524 513.012V523.598H500.043V519.32H497.289V517.289H500.043V513.012H502.524ZM519.736 513.012V530.785H517.354V521.879H515.85V529.965H513.486V524.867L512.08 526.742C510.43 525.873 509.365 524.398 508.74 522.562C508.145 524.672 507.09 526.381 505.4 527.387L503.857 525.473C506.553 523.949 507.471 520.805 507.471 517.406V516.84H504.463V514.848H512.607V516.84H509.893V517.406C509.893 520.502 510.811 523.451 513.486 524.828V513.266H515.85V519.848H517.354V513.012H519.736Z" fill="black"/>
<rect x="685" y="379" width="84" height="84" rx="42" fill="#6E62FD"/>
<path d="M741.973 404.17C742.77 404.17 743.452 404.836 743.452 405.703V441.218C743.452 442.085 742.77 442.751 741.973 442.751H712.026C711.229 442.751 710.547 442.085 710.547 441.218V405.703C710.547 404.836 711.229 404.17 712.026 404.17H717.708H735.847H741.973Z" fill="white" stroke="white" stroke-width="2"/>
<path d="M719.766 423.49L725.141 428.996L734.856 418.541" stroke="#6E62FD" stroke-width="3" stroke-linecap="round" stroke-linejoin="round"/>
<path d="M735.429 398.25H718.578V406.858H735.429V398.25Z" fill="#6E62FD" stroke="white" stroke-width="2" stroke-linecap="square" stroke-linejoin="round"/>
<rect x="670" y="574" width="84" height="84" rx="42" fill="#6E62FD"/>
<rect x="700.227" y="597.219" width="30.3839" height="30.3839" rx="2" fill="white"/>
<rect x="694.383" y="605.396" width="28.3839" height="28.3839" rx="1" stroke="white" stroke-width="2"/>
<path d="M709.172 612.41H721.672" stroke="#6E62FD" stroke-width="3" stroke-miterlimit="10"/>
<path d="M715.422 618.66V606.16" stroke="#6E62FD" stroke-width="3" stroke-miterlimit="10"/>
<rect x="527" y="451" width="84" height="84" rx="42" fill="#336DFF"/>
<rect x="552" y="467.25" width="27.25" height="42.75" rx="3" stroke="white" stroke-width="2"/>
<mask id="path-67-inside-2_127_749" fill="white">
<rect x="556.125" y="474.375" width="19.375" height="27.793" rx="1"/>
</mask>
<rect x="556.125" y="474.375" width="19.375" height="27.793" rx="1" stroke="white" stroke-width="4" mask="url(#path-67-inside-2_127_749)"/>
<path d="M566.158 506.405L562.809 502.421C562.809 502.421 561.274 500.607 559.321 502.142C557.367 503.677 559.806 507.512 559.806 507.512L565.879 516.73C565.879 516.73 568.949 522.375 575.787 522.515C582.625 522.654 585.695 518.607 586.393 515.677C587.091 512.746 588.137 504.024 586.742 502.071C585.346 500.117 582.613 499.876 582.613 499.876C582.613 499.876 581.439 497.047 577.392 497.605C577.392 497.605 575.857 494.788 572.438 495.986V487.058C572.438 487.058 572.647 483.816 569.647 483.816C566.647 483.816 566.786 487.699 566.786 487.699L566.158 506.405Z" fill="white" stroke="#336DFF" stroke-width="2" stroke-linecap="round" stroke-linejoin="round"/>
<path d="M572.445 495.988V503.164" stroke="#336DFF" stroke-width="2" stroke-linecap="round" stroke-linejoin="round"/>
<path d="M577.461 497.676V503.164" stroke="#336DFF" stroke-width="2" stroke-linecap="round" stroke-linejoin="round"/>
<path d="M582.625 499.91V504.282" stroke="#336DFF" stroke-width="2" stroke-linecap="round" stroke-linejoin="round"/>
<rect x="562.812" y="470.5" width="6" height="2" rx="1" fill="white"/>
<defs>
<linearGradient id="paint0_linear_127_749" x1="466.325" y1="221.006" x2="391.216" y2="220.322" gradientUnits="userSpaceOnUse">
<stop stop-color="#4769E9"/>
<stop offset="1" stop-color="#3BA6F7"/>
</linearGradient>
</defs>
</svg>
