<svg width="1310" height="712" viewBox="0 0 1310 712" fill="none" xmlns="http://www.w3.org/2000/svg">
<path d="M670.065 78.4258V143.801C670.065 187.984 634.248 223.801 590.065 223.801H488.604C452.161 223.801 422.618 253.344 422.618 289.787V289.787C422.618 326.23 452.161 355.773 488.604 355.773H910.295C946.738 355.773 976.281 385.316 976.281 421.759V421.759C976.281 458.202 946.738 487.745 910.295 487.745H317.205C277.483 487.745 245.281 519.946 245.281 559.668V559.668C245.281 599.391 277.483 631.592 317.205 631.592L808.281 631.592" stroke="#DADDE6" stroke-width="6"/>
<rect x="607.281" width="120" height="120" rx="60" fill="#CDCFD6"/>
<path d="M655.408 60.3945C655.408 67.3086 651.101 71.293 645.505 71.293C639.851 71.293 635.574 67.2793 635.574 60.3945C635.574 53.4805 639.851 49.4961 645.505 49.4961C651.101 49.4961 655.408 53.4805 655.408 60.3945ZM650.925 60.3945C650.925 55.8535 648.787 53.3926 645.505 53.3926C642.224 53.3926 640.056 55.8535 640.056 60.3945C640.056 64.9355 642.224 67.3965 645.505 67.3965C648.787 67.3965 650.925 64.9355 650.925 60.3945ZM657.672 49.7891H663.121L669.01 64.1738H669.244L675.133 49.7891H680.582V71H676.305V57.1133H676.129L670.592 70.9121H667.662L662.125 57.0547H661.949V71H657.672V49.7891ZM694.77 55.8535C694.594 54.1836 693.246 53.1875 691.108 53.1875C688.881 53.1875 687.651 54.2129 687.621 55.6191C687.592 57.1426 689.204 57.8457 691.02 58.2559L692.924 58.7246C696.557 59.5449 699.282 61.3906 699.282 64.9355C699.282 68.832 696.235 71.293 691.079 71.293C685.952 71.293 682.67 68.9199 682.553 64.3789H686.83C686.977 66.5176 688.676 67.6016 691.02 67.6016C693.334 67.6016 694.829 66.5176 694.829 64.9355C694.829 63.5 693.51 62.8262 691.196 62.2402L688.881 61.6836C685.307 60.8047 683.11 59.0176 683.11 55.9121C683.11 52.0449 686.508 49.4961 691.137 49.4961C695.825 49.4961 698.93 52.1035 698.989 55.8535H694.77Z" fill="white"/>
<rect x="607.281" y="138" width="120" height="119.008" rx="59.5041" fill="url(#paint0_linear_127_1205)"/>
<path d="M637.039 208.504L630.974 187.293H635.779L639.353 202.117H639.529L643.425 187.293H647.556L651.453 202.146H651.629L655.203 187.293H660.007L653.943 208.504H649.636L645.593 194.5H645.418L641.345 208.504H637.039ZM661.363 187.293H666.813L672.701 201.678H672.936L678.824 187.293H684.273V208.504H679.996V194.617H679.82L674.283 208.416H671.354L665.816 194.559H665.641V208.504H661.363V187.293ZM698.461 193.357C698.286 191.688 696.938 190.691 694.799 190.691C692.573 190.691 691.342 191.717 691.313 193.123C691.284 194.646 692.895 195.35 694.711 195.76L696.616 196.229C700.248 197.049 702.973 198.895 702.973 202.439C702.973 206.336 699.926 208.797 694.77 208.797C689.643 208.797 686.362 206.424 686.245 201.883H690.522C690.668 204.021 692.368 205.105 694.711 205.105C697.026 205.105 698.52 204.021 698.52 202.439C698.52 201.004 697.202 200.33 694.887 199.744L692.573 199.188C688.998 198.309 686.801 196.521 686.801 193.416C686.801 189.549 690.2 187 694.829 187C699.516 187 702.621 189.607 702.68 193.357H698.461Z" fill="white"/>
<path d="M764.535 427L760.492 412.859H763.695L766.078 422.742H766.195L768.793 412.859H771.547L774.145 422.762H774.262L776.645 412.859H779.848L775.805 427H772.934L770.238 417.664H770.121L767.406 427H764.535ZM779.033 424.031C779.033 421.668 780.947 420.887 782.978 420.77C783.74 420.721 785.166 420.652 785.615 420.633V419.773C785.595 418.895 784.99 418.367 783.916 418.367C782.939 418.367 782.314 418.816 782.158 419.539H779.404C779.58 417.703 781.181 416.258 783.994 416.258C786.298 416.258 788.486 417.293 788.486 419.852V427H785.752V425.535H785.673C785.146 426.512 784.15 427.195 782.568 427.195C780.537 427.195 779.033 426.141 779.033 424.031ZM781.806 423.953C781.806 424.773 782.47 425.203 783.388 425.203C784.697 425.203 785.634 424.324 785.615 423.211V422.43C785.175 422.449 783.945 422.518 783.447 422.566C782.451 422.664 781.806 423.133 781.806 423.953ZM799.546 416.395L795.816 427H792.573L788.862 416.395H791.909L794.136 424.012H794.253L796.48 416.395H799.546ZM804.805 427.215C801.563 427.215 799.571 425.105 799.571 421.746C799.571 418.465 801.583 416.258 804.688 416.258C807.481 416.258 809.669 418.016 809.669 421.629V422.449H802.423C802.423 424.051 803.38 425.047 804.864 425.047C805.841 425.047 806.544 424.617 806.837 423.973H809.591C809.18 425.926 807.423 427.215 804.805 427.215ZM802.423 420.633H806.934C806.934 419.344 806.036 418.426 804.747 418.426C803.419 418.426 802.471 419.412 802.423 420.633ZM817.316 427H814.152L819.055 412.859H822.824L827.707 427H824.562L823.508 423.738H818.391L817.316 427ZM819.133 421.453H822.766L820.988 416.043H820.891L819.133 421.453ZM831.541 412.859V427H828.65V412.859H831.541ZM836.077 412.859V427H833.187V412.859H836.077ZM842.489 427.215C839.286 427.215 837.294 425.008 837.294 421.727C837.294 418.445 839.286 416.258 842.489 416.258C845.692 416.258 847.704 418.445 847.704 421.727C847.704 425.008 845.692 427.215 842.489 427.215ZM842.509 424.969C843.993 424.969 844.755 423.582 844.755 421.727C844.755 419.852 843.993 418.465 842.509 418.465C841.005 418.465 840.223 419.852 840.223 421.727C840.223 423.582 841.005 424.969 842.509 424.969ZM853.686 427.215C850.444 427.215 848.491 424.969 848.491 421.727C848.491 418.484 850.463 416.258 853.686 416.258C856.42 416.258 858.276 417.859 858.393 420.281H855.678C855.502 419.227 854.819 418.504 853.725 418.504C852.338 418.504 851.42 419.676 851.42 421.688C851.42 423.738 852.319 424.91 853.725 424.91C854.741 424.91 855.502 424.285 855.678 423.152H858.393C858.256 425.555 856.498 427.215 853.686 427.215ZM861.289 427.176C860.371 427.176 859.629 426.434 859.648 425.535C859.629 424.637 860.371 423.914 861.289 423.914C862.148 423.914 862.91 424.637 862.91 425.535C862.91 426.434 862.148 427.176 861.289 427.176Z" fill="black"/>
<path d="M513.035 427L508.992 412.859H512.195L514.578 422.742H514.695L517.293 412.859H520.047L522.645 422.762H522.762L525.145 412.859H528.348L524.305 427H521.434L518.738 417.664H518.621L515.906 427H513.035ZM527.533 424.031C527.533 421.668 529.447 420.887 531.478 420.77C532.24 420.721 533.666 420.652 534.115 420.633V419.773C534.095 418.895 533.49 418.367 532.416 418.367C531.439 418.367 530.814 418.816 530.658 419.539H527.904C528.08 417.703 529.681 416.258 532.494 416.258C534.798 416.258 536.986 417.293 536.986 419.852V427H534.252V425.535H534.173C533.646 426.512 532.65 427.195 531.068 427.195C529.037 427.195 527.533 426.141 527.533 424.031ZM530.306 423.953C530.306 424.773 530.97 425.203 531.888 425.203C533.197 425.203 534.134 424.324 534.115 423.211V422.43C533.675 422.449 532.445 422.518 531.947 422.566C530.951 422.664 530.306 423.133 530.306 423.953ZM548.046 416.395L544.316 427H541.073L537.362 416.395H540.409L542.636 424.012H542.753L544.98 416.395H548.046ZM553.305 427.215C550.063 427.215 548.071 425.105 548.071 421.746C548.071 418.465 550.083 416.258 553.188 416.258C555.981 416.258 558.169 418.016 558.169 421.629V422.449H550.923C550.923 424.051 551.88 425.047 553.364 425.047C554.341 425.047 555.044 424.617 555.337 423.973H558.091C557.68 425.926 555.923 427.215 553.305 427.215ZM550.923 420.633H555.434C555.434 419.344 554.536 418.426 553.247 418.426C551.919 418.426 550.971 419.412 550.923 420.633ZM572.906 417.781C572.672 416.219 571.461 415.262 569.82 415.262C567.613 415.262 566.168 416.961 566.168 419.93C566.168 422.977 567.633 424.598 569.801 424.598C571.422 424.598 572.613 423.699 572.906 422.176L575.875 422.195C575.543 424.812 573.355 427.195 569.762 427.195C565.973 427.195 563.18 424.539 563.18 419.93C563.18 415.32 566.031 412.664 569.762 412.664C573.023 412.664 575.484 414.539 575.875 417.781H572.906ZM577.267 427V416.395H580.06V418.23H580.177C580.568 416.922 581.545 416.238 582.736 416.238C583.029 416.238 583.4 416.277 583.654 416.336V418.914C583.38 418.836 582.834 418.758 582.423 418.758C581.115 418.758 580.158 419.676 580.158 420.965V427H577.267ZM588.933 427.215C585.691 427.215 583.698 425.105 583.698 421.746C583.698 418.465 585.71 416.258 588.816 416.258C591.609 416.258 593.796 418.016 593.796 421.629V422.449H586.55C586.55 424.051 587.507 425.047 588.991 425.047C589.968 425.047 590.671 424.617 590.964 423.973H593.718C593.308 425.926 591.55 427.215 588.933 427.215ZM586.55 420.633H591.062C591.062 419.344 590.163 418.426 588.874 418.426C587.546 418.426 586.599 419.412 586.55 420.633ZM594.505 424.031C594.505 421.668 596.419 420.887 598.45 420.77C599.212 420.721 600.637 420.652 601.087 420.633V419.773C601.067 418.895 600.462 418.367 599.387 418.367C598.411 418.367 597.786 418.816 597.63 419.539H594.876C595.052 417.703 596.653 416.258 599.466 416.258C601.77 416.258 603.958 417.293 603.958 419.852V427H601.223V425.535H601.145C600.618 426.512 599.622 427.195 598.04 427.195C596.009 427.195 594.505 426.141 594.505 424.031ZM597.278 423.953C597.278 424.773 597.942 425.203 598.86 425.203C600.169 425.203 601.106 424.324 601.087 423.211V422.43C600.647 422.449 599.417 422.518 598.919 422.566C597.923 422.664 597.278 423.133 597.278 423.953ZM611.151 416.395V418.562H609.159V423.738C609.159 424.578 609.569 424.793 610.155 424.812C610.448 424.812 610.955 424.793 611.307 424.754V427.039C610.995 427.098 610.487 427.137 609.764 427.137C607.674 427.137 606.248 426.199 606.268 424.148V418.562H604.803V416.395H606.268V413.855H609.159V416.395H611.151ZM617.055 427.215C613.812 427.215 611.82 425.105 611.82 421.746C611.82 418.465 613.832 416.258 616.938 416.258C619.73 416.258 621.918 418.016 621.918 421.629V422.449H614.672C614.672 424.051 615.629 425.047 617.113 425.047C618.09 425.047 618.793 424.617 619.086 423.973H621.84C621.43 425.926 619.672 427.215 617.055 427.215ZM614.672 420.633H619.184C619.184 419.344 618.285 418.426 616.996 418.426C615.668 418.426 614.721 419.412 614.672 420.633Z" fill="black"/>
<path d="M449.191 198V183.859H454.738C457.961 183.859 459.797 185.832 459.797 188.625C459.797 191.457 457.922 193.391 454.66 193.391H452.121V198H449.191ZM452.121 191.027H454.191C455.93 191.027 456.77 190.051 456.77 188.625C456.77 187.219 455.93 186.262 454.191 186.262H452.121V191.027ZM460.212 195.031C460.212 192.668 462.127 191.887 464.158 191.77C464.92 191.721 466.345 191.652 466.795 191.633V190.773C466.775 189.895 466.17 189.367 465.095 189.367C464.119 189.367 463.494 189.816 463.337 190.539H460.584C460.759 188.703 462.361 187.258 465.173 187.258C467.478 187.258 469.666 188.293 469.666 190.852V198H466.931V196.535H466.853C466.326 197.512 465.33 198.195 463.748 198.195C461.716 198.195 460.212 197.141 460.212 195.031ZM462.986 194.953C462.986 195.773 463.65 196.203 464.568 196.203C465.877 196.203 466.814 195.324 466.795 194.211V193.43C466.355 193.449 465.125 193.518 464.627 193.566C463.63 193.664 462.986 194.133 462.986 194.953ZM476.038 198.215C472.796 198.215 470.843 195.969 470.843 192.727C470.843 189.484 472.816 187.258 476.038 187.258C478.773 187.258 480.628 188.859 480.745 191.281H478.03C477.855 190.227 477.171 189.504 476.077 189.504C474.691 189.504 473.773 190.676 473.773 192.688C473.773 194.738 474.671 195.91 476.077 195.91C477.093 195.91 477.855 195.285 478.03 194.152H480.745C480.609 196.555 478.851 198.215 476.038 198.215ZM481.942 198V183.859H484.833V191.457H484.989L488.427 187.395H491.747L487.802 191.984L491.962 198H488.563L485.653 193.684L484.833 194.602V198H481.942ZM498.608 183.195L494.037 200.129H491.557L496.108 183.195H498.608ZM508.125 183.859H511.074V193.039C511.074 196.145 508.73 198.195 505.215 198.195C501.699 198.195 499.375 196.145 499.375 193.039V183.859H502.305V192.805C502.305 194.426 503.457 195.617 505.215 195.617C506.992 195.617 508.125 194.426 508.125 192.805V183.859ZM515.689 191.867V198H512.798V187.395H515.552V189.25H515.67C516.158 188.02 517.291 187.258 518.853 187.258C521.06 187.258 522.525 188.762 522.505 191.242V198H519.634V191.75C519.634 190.441 518.912 189.66 517.72 189.66C516.509 189.66 515.689 190.461 515.689 191.867ZM524.152 201.984V187.395H527.003V189.172H527.12C527.511 188.312 528.37 187.258 530.148 187.258C532.491 187.258 534.445 189.074 534.445 192.707C534.445 196.242 532.57 198.176 530.148 198.176C528.409 198.176 527.53 197.18 527.12 196.301H527.042V201.984H524.152ZM526.984 192.688C526.984 194.602 527.804 195.871 529.23 195.871C530.714 195.871 531.495 194.562 531.495 192.688C531.495 190.832 530.714 189.562 529.23 189.562C527.784 189.562 526.984 190.773 526.984 192.688ZM535.212 195.031C535.212 192.668 537.126 191.887 539.157 191.77C539.919 191.721 541.345 191.652 541.794 191.633V190.773C541.774 189.895 541.169 189.367 540.095 189.367C539.118 189.367 538.493 189.816 538.337 190.539H535.583C535.759 188.703 537.36 187.258 540.173 187.258C542.477 187.258 544.665 188.293 544.665 190.852V198H541.93V196.535H541.852C541.325 197.512 540.329 198.195 538.747 198.195C536.716 198.195 535.212 197.141 535.212 195.031ZM537.985 194.953C537.985 195.773 538.649 196.203 539.567 196.203C540.876 196.203 541.813 195.324 541.794 194.211V193.43C541.354 193.449 540.124 193.518 539.626 193.566C538.63 193.664 537.985 194.133 537.985 194.953ZM551.037 198.215C547.795 198.215 545.842 195.969 545.842 192.727C545.842 189.484 547.815 187.258 551.037 187.258C553.772 187.258 555.627 188.859 555.745 191.281H553.03C552.854 190.227 552.17 189.504 551.077 189.504C549.69 189.504 548.772 190.676 548.772 192.688C548.772 194.738 549.67 195.91 551.077 195.91C552.092 195.91 552.854 195.285 553.03 194.152H555.745C555.608 196.555 553.85 198.215 551.037 198.215ZM556.941 198V183.859H559.832V191.457H559.988L563.426 187.395H566.746L562.801 191.984L566.961 198H563.562L560.652 193.684L559.832 194.602V198H556.941Z" fill="black"/>
<path d="M13.0141 148.379C12.8969 147.266 11.9984 146.602 10.5727 146.602C9.08828 146.602 8.26797 147.285 8.24843 148.223C8.2289 149.238 9.30312 149.707 10.5141 149.98L11.7836 150.293C14.2055 150.84 16.0219 152.07 16.0219 154.434C16.0219 157.031 13.9906 158.672 10.5531 158.672C7.13515 158.672 4.94765 157.09 4.86953 154.062H7.72109C7.81875 155.488 8.95156 156.211 10.5141 156.211C12.057 156.211 13.0531 155.488 13.0531 154.434C13.0531 153.477 12.1742 153.027 10.6312 152.637L9.08828 152.266C6.70547 151.68 5.24062 150.488 5.24062 148.418C5.24062 145.84 7.50625 144.141 10.5922 144.141C13.7172 144.141 15.7875 145.879 15.8266 148.379H13.0141ZM22.082 158.691C18.8398 158.691 16.8477 156.582 16.8477 153.223C16.8477 149.941 18.8594 147.734 21.9648 147.734C24.7578 147.734 26.9453 149.492 26.9453 153.105V153.926H19.6992C19.6992 155.527 20.6562 156.523 22.1406 156.523C23.1172 156.523 23.8203 156.094 24.1133 155.449H26.8672C26.457 157.402 24.6992 158.691 22.082 158.691ZM19.6992 152.109H24.2109C24.2109 150.82 23.3125 149.902 22.0234 149.902C20.6953 149.902 19.748 150.889 19.6992 152.109ZM33.7477 147.871V150.039H31.7555V155.215C31.7555 156.055 32.1656 156.27 32.7516 156.289C33.0445 156.289 33.5523 156.27 33.9039 156.23V158.516C33.5914 158.574 33.0836 158.613 32.3609 158.613C30.2711 158.613 28.8453 157.676 28.8648 155.625V150.039H27.4V147.871H28.8648V145.332H31.7555V147.871H33.7477ZM41.3953 158.477H38.2312L43.1336 144.336H46.9031L51.7859 158.477H48.6414L47.5867 155.215H42.4695L41.3953 158.477ZM43.2117 152.93H46.8445L45.0672 147.52H44.9695L43.2117 152.93ZM58.5492 151.016C58.432 150.273 57.768 149.785 56.8109 149.785C55.8734 149.785 55.1508 150.234 55.1703 150.879C55.1508 151.348 55.5414 151.719 56.5375 151.934L58.432 152.324C60.4828 152.754 61.4789 153.672 61.4984 155.195C61.4789 157.285 59.6039 158.691 56.7914 158.691C53.9203 158.691 52.2406 157.402 52.0062 155.332H54.9164C55.0531 156.172 55.7367 156.602 56.7914 156.602C57.8461 156.602 58.5492 156.172 58.5492 155.488C58.5492 154.941 58.1 154.609 57.1039 154.395L55.3461 154.043C53.3344 153.652 52.2797 152.598 52.2992 151.035C52.2797 149.004 54.0375 147.734 56.7719 147.734C59.4477 147.734 61.1078 149.004 61.2641 151.016H58.5492ZM68.7305 151.016C68.6133 150.273 67.9492 149.785 66.9922 149.785C66.0547 149.785 65.332 150.234 65.3516 150.879C65.332 151.348 65.7227 151.719 66.7187 151.934L68.6133 152.324C70.6641 152.754 71.6602 153.672 71.6797 155.195C71.6602 157.285 69.7852 158.691 66.9727 158.691C64.1016 158.691 62.4219 157.402 62.1875 155.332H65.0977C65.2344 156.172 65.918 156.602 66.9727 156.602C68.0273 156.602 68.7305 156.172 68.7305 155.488C68.7305 154.941 68.2812 154.609 67.2852 154.395L65.5273 154.043C63.5156 153.652 62.4609 152.598 62.4805 151.035C62.4609 149.004 64.2187 147.734 66.9531 147.734C69.6289 147.734 71.2891 149.004 71.4453 151.016H68.7305ZM77.6617 158.691C74.4195 158.691 72.4273 156.582 72.4273 153.223C72.4273 149.941 74.4391 147.734 77.5445 147.734C80.3375 147.734 82.525 149.492 82.525 153.105V153.926H75.2789C75.2789 155.527 76.2359 156.523 77.7203 156.523C78.6969 156.523 79.4 156.094 79.693 155.449H82.4469C82.0367 157.402 80.2789 158.691 77.6617 158.691ZM75.2789 152.109H79.7906C79.7906 150.82 78.8922 149.902 77.6031 149.902C76.275 149.902 75.3277 150.889 75.2789 152.109ZM83.7414 158.477V147.871H86.4953V149.727H86.6125C87.0617 148.496 88.1359 147.734 89.5617 147.734C91.0266 147.734 92.1008 148.496 92.4523 149.727H92.55C92.9992 148.516 94.1906 147.734 95.7531 147.734C97.7258 147.734 99.093 149.043 99.093 151.348V158.477H96.2023V151.914C96.2023 150.703 95.4992 150.117 94.5422 150.117C93.4484 150.117 92.8234 150.879 92.8234 151.992V158.477H90.0109V151.836C90.0109 150.781 89.3469 150.117 88.3703 150.117C87.3937 150.117 86.632 150.898 86.632 152.109V158.477H83.7414ZM100.778 158.477V144.336H103.669V149.648H103.747C104.157 148.789 104.997 147.734 106.774 147.734C109.118 147.734 111.091 149.551 111.091 153.184C111.091 156.719 109.196 158.652 106.774 158.652C105.036 158.652 104.157 157.656 103.747 156.777H103.63V158.477H100.778ZM103.61 153.164C103.61 155.078 104.43 156.348 105.856 156.348C107.341 156.348 108.122 155.039 108.122 153.164C108.122 151.309 107.341 150.039 105.856 150.039C104.411 150.039 103.61 151.25 103.61 153.164ZM115.237 144.336V158.477H112.346V144.336H115.237ZM118.582 162.461C118.016 162.461 117.488 162.441 117.117 162.402V160.156C117.488 160.176 117.918 160.195 118.289 160.195C118.855 160.195 119.324 160.137 119.676 159.219L119.852 158.77L116.043 147.871H119.07L121.297 155.684H121.414L123.66 147.871H126.727L122.586 159.648C121.98 161.348 120.828 162.461 118.582 162.461ZM18.8398 186.477H13.8594V172.336H18.8984C23.1562 172.336 25.7539 174.992 25.7539 179.387C25.7539 183.82 23.1562 186.477 18.8398 186.477ZM16.7891 183.957H18.7227C21.418 183.957 22.8242 182.551 22.8242 179.387C22.8242 176.242 21.418 174.855 18.7422 174.855H16.7891V183.957ZM27.2242 186.477V175.871H30.1148V186.477H27.2242ZM28.6695 174.484C27.7906 174.484 27.0875 173.82 27.0875 173.02C27.0875 172.199 27.7906 171.535 28.6695 171.535C29.5289 171.535 30.232 172.199 30.232 173.02C30.232 173.82 29.5289 174.484 28.6695 174.484ZM37.8156 179.016C37.6984 178.273 37.0344 177.785 36.0773 177.785C35.1398 177.785 34.4172 178.234 34.4367 178.879C34.4172 179.348 34.8078 179.719 35.8039 179.934L37.6984 180.324C39.7492 180.754 40.7453 181.672 40.7648 183.195C40.7453 185.285 38.8703 186.691 36.0578 186.691C33.1867 186.691 31.507 185.402 31.2727 183.332H34.1828C34.3195 184.172 35.0031 184.602 36.0578 184.602C37.1125 184.602 37.8156 184.172 37.8156 183.488C37.8156 182.941 37.3664 182.609 36.3703 182.395L34.6125 182.043C32.6008 181.652 31.5461 180.598 31.5656 179.035C31.5461 177.004 33.3039 175.734 36.0383 175.734C38.7141 175.734 40.3742 177.004 40.5305 179.016H37.8156ZM41.4344 183.508C41.4344 181.145 43.3484 180.363 45.3797 180.246C46.1414 180.197 47.5672 180.129 48.0164 180.109V179.25C47.9969 178.371 47.3914 177.844 46.3172 177.844C45.3406 177.844 44.7156 178.293 44.5594 179.016H41.8055C41.9813 177.18 43.5828 175.734 46.3953 175.734C48.7 175.734 50.8875 176.77 50.8875 179.328V186.477H48.1531V185.012H48.075C47.5477 185.988 46.5516 186.672 44.9695 186.672C42.9383 186.672 41.4344 185.617 41.4344 183.508ZM44.2078 183.43C44.2078 184.25 44.8719 184.68 45.7898 184.68C47.0984 184.68 48.0359 183.801 48.0164 182.688V181.906C47.577 181.926 46.3465 181.994 45.8484 182.043C44.8523 182.141 44.2078 182.609 44.2078 183.43ZM58.5492 179.016C58.432 178.273 57.768 177.785 56.8109 177.785C55.8734 177.785 55.1508 178.234 55.1703 178.879C55.1508 179.348 55.5414 179.719 56.5375 179.934L58.432 180.324C60.4828 180.754 61.4789 181.672 61.4984 183.195C61.4789 185.285 59.6039 186.691 56.7914 186.691C53.9203 186.691 52.2406 185.402 52.0062 183.332H54.9164C55.0531 184.172 55.7367 184.602 56.7914 184.602C57.8461 184.602 58.5492 184.172 58.5492 183.488C58.5492 182.941 58.1 182.609 57.1039 182.395L55.3461 182.043C53.3344 181.652 52.2797 180.598 52.2992 179.035C52.2797 177.004 54.0375 175.734 56.7719 175.734C59.4477 175.734 61.1078 177.004 61.2641 179.016H58.5492ZM68.7305 179.016C68.6133 178.273 67.9492 177.785 66.9922 177.785C66.0547 177.785 65.332 178.234 65.3516 178.879C65.332 179.348 65.7227 179.719 66.7188 179.934L68.6133 180.324C70.6641 180.754 71.6602 181.672 71.6797 183.195C71.6602 185.285 69.7852 186.691 66.9727 186.691C64.1016 186.691 62.4219 185.402 62.1875 183.332H65.0977C65.2344 184.172 65.918 184.602 66.9727 184.602C68.0273 184.602 68.7305 184.172 68.7305 183.488C68.7305 182.941 68.2812 182.609 67.2852 182.395L65.5273 182.043C63.5156 181.652 62.4609 180.598 62.4805 179.035C62.4609 177.004 64.2188 175.734 66.9531 175.734C69.6289 175.734 71.2891 177.004 71.4453 179.016H68.7305ZM77.6617 186.691C74.4195 186.691 72.4273 184.582 72.4273 181.223C72.4273 177.941 74.4391 175.734 77.5445 175.734C80.3375 175.734 82.525 177.492 82.525 181.105V181.926H75.2789C75.2789 183.527 76.2359 184.523 77.7203 184.523C78.6969 184.523 79.4 184.094 79.693 183.449H82.4469C82.0367 185.402 80.2789 186.691 77.6617 186.691ZM75.2789 180.109H79.7906C79.7906 178.82 78.8922 177.902 77.6031 177.902C76.275 177.902 75.3277 178.889 75.2789 180.109ZM83.7414 186.477V175.871H86.4953V177.727H86.6125C87.0617 176.496 88.1359 175.734 89.5617 175.734C91.0266 175.734 92.1008 176.496 92.4523 177.727H92.55C92.9992 176.516 94.1906 175.734 95.7531 175.734C97.7258 175.734 99.093 177.043 99.093 179.348V186.477H96.2023V179.914C96.2023 178.703 95.4992 178.117 94.5422 178.117C93.4484 178.117 92.8234 178.879 92.8234 179.992V186.477H90.0109V179.836C90.0109 178.781 89.3469 178.117 88.3703 178.117C87.3938 178.117 86.632 178.898 86.632 180.109V186.477H83.7414ZM100.778 186.477V172.336H103.669V177.648H103.747C104.157 176.789 104.997 175.734 106.774 175.734C109.118 175.734 111.091 177.551 111.091 181.184C111.091 184.719 109.196 186.652 106.774 186.652C105.036 186.652 104.157 185.656 103.747 184.777H103.63V186.477H100.778ZM103.61 181.164C103.61 183.078 104.43 184.348 105.856 184.348C107.341 184.348 108.122 183.039 108.122 181.164C108.122 179.309 107.341 178.039 105.856 178.039C104.411 178.039 103.61 179.25 103.61 181.164ZM115.237 172.336V186.477H112.346V172.336H115.237ZM118.582 190.461C118.016 190.461 117.488 190.441 117.117 190.402V188.156C117.488 188.176 117.918 188.195 118.289 188.195C118.855 188.195 119.324 188.137 119.676 187.219L119.852 186.77L116.043 175.871H119.07L121.297 183.684H121.414L123.66 175.871H126.727L122.586 187.648C121.98 189.348 120.828 190.461 118.582 190.461Z" fill="black"/>
<path d="M155.332 414V399.859H158.262V411.578H164.355V414H155.332ZM165.084 411.031C165.084 408.668 166.998 407.887 169.029 407.77C169.791 407.721 171.216 407.652 171.666 407.633V406.773C171.646 405.895 171.041 405.367 169.966 405.367C168.99 405.367 168.365 405.816 168.209 406.539H165.455C165.63 404.703 167.232 403.258 170.045 403.258C172.349 403.258 174.537 404.293 174.537 406.852V414H171.802V412.535H171.724C171.197 413.512 170.201 414.195 168.619 414.195C166.587 414.195 165.084 413.141 165.084 411.031ZM167.857 410.953C167.857 411.773 168.521 412.203 169.439 412.203C170.748 412.203 171.685 411.324 171.666 410.211V409.43C171.226 409.449 169.996 409.518 169.498 409.566C168.502 409.664 167.857 410.133 167.857 410.953ZM176.202 414V399.859H179.093V405.172H179.171C179.581 404.312 180.421 403.258 182.198 403.258C184.542 403.258 186.515 405.074 186.515 408.707C186.515 412.242 184.62 414.176 182.198 414.176C180.46 414.176 179.581 413.18 179.171 412.301H179.054V414H176.202ZM179.034 408.688C179.034 410.602 179.855 411.871 181.28 411.871C182.765 411.871 183.546 410.562 183.546 408.688C183.546 406.832 182.765 405.562 181.28 405.562C179.835 405.562 179.034 406.773 179.034 408.688ZM192.575 414.215C189.333 414.215 187.341 412.105 187.341 408.746C187.341 405.465 189.352 403.258 192.458 403.258C195.251 403.258 197.438 405.016 197.438 408.629V409.449H190.192C190.192 411.051 191.149 412.047 192.634 412.047C193.61 412.047 194.313 411.617 194.606 410.973H197.36C196.95 412.926 195.192 414.215 192.575 414.215ZM190.192 407.633H194.704C194.704 406.344 193.805 405.426 192.516 405.426C191.188 405.426 190.241 406.412 190.192 407.633ZM201.545 399.859V414H198.655V399.859H201.545ZM203.191 414V403.395H206.082V414H203.191ZM204.637 402.008C203.758 402.008 203.055 401.344 203.055 400.543C203.055 399.723 203.758 399.059 204.637 399.059C205.496 399.059 206.199 399.723 206.199 400.543C206.199 401.344 205.496 402.008 204.637 402.008ZM210.619 407.867V414H207.728V403.395H210.482V405.25H210.599C211.088 404.02 212.22 403.258 213.783 403.258C215.99 403.258 217.455 404.762 217.435 407.242V414H214.564V407.75C214.564 406.441 213.841 405.66 212.65 405.66C211.439 405.66 210.619 406.461 210.619 407.867ZM223.847 418.199C220.917 418.199 219.12 416.891 218.945 414.879H221.796C221.952 415.719 222.753 416.109 223.905 416.109C225.253 416.109 226.152 415.543 226.152 414.059V412.125H226.015C225.624 412.984 224.687 413.844 222.987 413.844C220.585 413.844 218.671 412.164 218.671 408.629C218.671 405.035 220.644 403.258 222.987 403.258C224.765 403.258 225.624 404.312 226.015 405.172H226.132V403.395H229.003V414.117C229.003 416.812 226.855 418.199 223.847 418.199ZM223.886 411.676C225.331 411.676 226.152 410.543 226.152 408.668C226.152 406.773 225.331 405.562 223.886 405.562C222.421 405.562 221.64 406.832 221.64 408.668C221.64 410.504 222.421 411.676 223.886 411.676ZM233.794 412.555L232.114 418.121H230.044L231.02 412.555H233.794ZM246.891 403.902C246.773 402.789 245.875 402.125 244.449 402.125C242.965 402.125 242.145 402.809 242.125 403.746C242.105 404.762 243.18 405.23 244.391 405.504L245.66 405.816C248.082 406.363 249.898 407.594 249.898 409.957C249.898 412.555 247.867 414.195 244.43 414.195C241.012 414.195 238.824 412.613 238.746 409.586H241.598C241.695 411.012 242.828 411.734 244.391 411.734C245.934 411.734 246.93 411.012 246.93 409.957C246.93 409 246.051 408.551 244.508 408.16L242.965 407.789C240.582 407.203 239.117 406.012 239.117 403.941C239.117 401.363 241.383 399.664 244.469 399.664C247.594 399.664 249.664 401.402 249.703 403.902H246.891ZM251.154 417.984V403.395H254.005V405.172H254.123C254.513 404.312 255.373 403.258 257.15 403.258C259.494 403.258 261.447 405.074 261.447 408.707C261.447 412.242 259.572 414.176 257.15 414.176C255.412 414.176 254.533 413.18 254.123 412.301H254.045V417.984H251.154ZM253.986 408.688C253.986 410.602 254.806 411.871 256.232 411.871C257.716 411.871 258.498 410.562 258.498 408.688C258.498 406.832 257.716 405.562 256.232 405.562C254.787 405.562 253.986 406.773 253.986 408.688ZM267.527 414.215C264.284 414.215 262.292 412.105 262.292 408.746C262.292 405.465 264.304 403.258 267.409 403.258C270.202 403.258 272.39 405.016 272.39 408.629V409.449H265.144C265.144 411.051 266.101 412.047 267.585 412.047C268.562 412.047 269.265 411.617 269.558 410.973H272.312C271.902 412.926 270.144 414.215 267.527 414.215ZM265.144 407.633H269.655C269.655 406.344 268.757 405.426 267.468 405.426C266.14 405.426 265.193 406.412 265.144 407.633ZM278.372 414.215C275.13 414.215 273.177 411.969 273.177 408.727C273.177 405.484 275.149 403.258 278.372 403.258C281.106 403.258 282.962 404.859 283.079 407.281H280.364C280.188 406.227 279.505 405.504 278.411 405.504C277.024 405.504 276.106 406.676 276.106 408.688C276.106 410.738 277.005 411.91 278.411 411.91C279.427 411.91 280.188 411.285 280.364 410.152H283.079C282.942 412.555 281.184 414.215 278.372 414.215ZM284.276 414V403.395H287.166V414H284.276ZM285.721 402.008C284.842 402.008 284.139 401.344 284.139 400.543C284.139 399.723 284.842 399.059 285.721 399.059C286.58 399.059 287.284 399.723 287.284 400.543C287.284 401.344 286.58 402.008 285.721 402.008ZM288.305 411.031C288.305 408.668 290.219 407.887 292.25 407.77C293.012 407.721 294.438 407.652 294.887 407.633V406.773C294.867 405.895 294.262 405.367 293.188 405.367C292.211 405.367 291.586 405.816 291.43 406.539H288.676C288.852 404.703 290.453 403.258 293.266 403.258C295.57 403.258 297.758 404.293 297.758 406.852V414H295.023V412.535H294.945C294.418 413.512 293.422 414.195 291.84 414.195C289.809 414.195 288.305 413.141 288.305 411.031ZM291.078 410.953C291.078 411.773 291.742 412.203 292.66 412.203C293.969 412.203 294.906 411.324 294.887 410.211V409.43C294.447 409.449 293.217 409.518 292.719 409.566C291.723 409.664 291.078 410.133 291.078 410.953ZM302.255 399.859V414H299.365V399.859H302.255ZM307.97 414V399.859H313.516C316.739 399.859 318.575 401.832 318.575 404.625C318.575 407.457 316.7 409.391 313.438 409.391H310.899V414H307.97ZM310.899 407.027H312.97C314.708 407.027 315.548 406.051 315.548 404.625C315.548 403.219 314.708 402.262 312.97 402.262H310.899V407.027ZM318.991 411.031C318.991 408.668 320.905 407.887 322.936 407.77C323.698 407.721 325.123 407.652 325.573 407.633V406.773C325.553 405.895 324.948 405.367 323.873 405.367C322.897 405.367 322.272 405.816 322.116 406.539H319.362C319.538 404.703 321.139 403.258 323.952 403.258C326.256 403.258 328.444 404.293 328.444 406.852V414H325.709V412.535H325.631C325.104 413.512 324.108 414.195 322.526 414.195C320.495 414.195 318.991 413.141 318.991 411.031ZM321.764 410.953C321.764 411.773 322.428 412.203 323.346 412.203C324.655 412.203 325.592 411.324 325.573 410.211V409.43C325.133 409.449 323.903 409.518 323.405 409.566C322.409 409.664 321.764 410.133 321.764 410.953ZM334.816 414.215C331.574 414.215 329.621 411.969 329.621 408.727C329.621 405.484 331.594 403.258 334.816 403.258C337.551 403.258 339.406 404.859 339.523 407.281H336.809C336.633 406.227 335.949 405.504 334.855 405.504C333.469 405.504 332.551 406.676 332.551 408.688C332.551 410.738 333.449 411.91 334.855 411.91C335.871 411.91 336.633 411.285 336.809 410.152H339.523C339.387 412.555 337.629 414.215 334.816 414.215ZM340.72 414V399.859H343.611V407.457H343.767L347.205 403.395H350.525L346.58 407.984L350.74 414H347.341L344.431 409.684L343.611 410.602V414H340.72Z" fill="black"/>
<path d="M532.971 556.918C532.971 561.527 530.1 564.184 526.369 564.184C522.6 564.184 519.748 561.508 519.748 556.918C519.748 552.309 522.6 549.652 526.369 549.652C530.1 549.652 532.971 552.309 532.971 556.918ZM529.982 556.918C529.982 553.891 528.557 552.25 526.369 552.25C524.182 552.25 522.736 553.891 522.736 556.918C522.736 559.945 524.182 561.586 526.369 561.586C528.557 561.586 529.982 559.945 529.982 556.918ZM534.421 563.988V553.383H537.214V555.219H537.332C537.722 553.91 538.699 553.227 539.89 553.227C540.183 553.227 540.554 553.266 540.808 553.324V555.902C540.535 555.824 539.988 555.746 539.578 555.746C538.269 555.746 537.312 556.664 537.312 557.953V563.988H534.421ZM545.189 564.164C542.767 564.164 540.872 562.23 540.872 558.695C540.872 555.062 542.845 553.246 545.189 553.246C546.966 553.246 547.806 554.301 548.196 555.16H548.294V549.848H551.185V563.988H548.333V562.289H548.196C547.786 563.168 546.907 564.164 545.189 564.164ZM546.087 561.859C547.532 561.859 548.353 560.59 548.353 558.676C548.353 556.762 547.532 555.551 546.087 555.551C544.622 555.551 543.841 556.82 543.841 558.676C543.841 560.551 544.622 561.859 546.087 561.859ZM557.714 564.203C554.471 564.203 552.479 562.094 552.479 558.734C552.479 555.453 554.491 553.246 557.596 553.246C560.389 553.246 562.577 555.004 562.577 558.617V559.438H555.331C555.331 561.039 556.288 562.035 557.772 562.035C558.749 562.035 559.452 561.605 559.745 560.961H562.499C562.089 562.914 560.331 564.203 557.714 564.203ZM555.331 557.621H559.843C559.843 556.332 558.944 555.414 557.655 555.414C556.327 555.414 555.38 556.4 555.331 557.621ZM563.793 563.988V553.383H566.586V555.219H566.704C567.094 553.91 568.071 553.227 569.262 553.227C569.555 553.227 569.926 553.266 570.18 553.324V555.902C569.907 555.824 569.36 555.746 568.95 555.746C567.641 555.746 566.684 556.664 566.684 557.953V563.988H563.793ZM580.035 563.988H575.054V549.848H580.093C584.351 549.848 586.949 552.504 586.949 556.898C586.949 561.332 584.351 563.988 580.035 563.988ZM577.984 561.469H579.918C582.613 561.469 584.019 560.062 584.019 556.898C584.019 553.754 582.613 552.367 579.937 552.367H577.984V561.469ZM588.419 563.988V553.383H591.31V563.988H588.419ZM589.864 551.996C588.986 551.996 588.282 551.332 588.282 550.531C588.282 549.711 588.986 549.047 589.864 549.047C590.724 549.047 591.427 549.711 591.427 550.531C591.427 551.332 590.724 551.996 589.864 551.996ZM599.011 556.527C598.893 555.785 598.229 555.297 597.272 555.297C596.335 555.297 595.612 555.746 595.632 556.391C595.612 556.859 596.003 557.23 596.999 557.445L598.893 557.836C600.944 558.266 601.94 559.184 601.96 560.707C601.94 562.797 600.065 564.203 597.253 564.203C594.382 564.203 592.702 562.914 592.468 560.844H595.378C595.514 561.684 596.198 562.113 597.253 562.113C598.307 562.113 599.011 561.684 599.011 561C599.011 560.453 598.561 560.121 597.565 559.906L595.807 559.555C593.796 559.164 592.741 558.109 592.761 556.547C592.741 554.516 594.499 553.246 597.233 553.246C599.909 553.246 601.569 554.516 601.725 556.527H599.011ZM608.723 553.383V555.551H606.731V560.727C606.731 561.566 607.141 561.781 607.727 561.801C608.02 561.801 608.528 561.781 608.879 561.742V564.027C608.567 564.086 608.059 564.125 607.336 564.125C605.246 564.125 603.821 563.188 603.84 561.137V555.551H602.375V553.383H603.84V550.844H606.731V553.383H608.723ZM611.639 564.164C610.721 564.164 609.979 563.422 609.998 562.523C609.979 561.625 610.721 560.902 611.639 560.902C612.498 560.902 613.26 561.625 613.26 562.523C613.26 563.422 612.498 564.164 611.639 564.164Z" fill="black"/>
<path d="M294.854 556.918C294.854 561.527 291.983 564.184 288.252 564.184C284.483 564.184 281.631 561.508 281.631 556.918C281.631 552.309 284.483 549.652 288.252 549.652C291.983 549.652 294.854 552.309 294.854 556.918ZM291.866 556.918C291.866 553.891 290.44 552.25 288.252 552.25C286.065 552.25 284.62 553.891 284.62 556.918C284.62 559.945 286.065 561.586 288.252 561.586C290.44 561.586 291.866 559.945 291.866 556.918ZM303.102 559.477V553.383H305.992V563.988H303.219V562.074H303.102C302.613 563.305 301.48 564.125 299.879 564.125C297.75 564.125 296.305 562.621 296.305 560.141V553.383H299.195V559.633C299.195 560.883 299.918 561.684 301.051 561.684C302.105 561.684 303.102 560.922 303.102 559.477ZM313.224 553.383V555.551H311.232V560.727C311.232 561.566 311.642 561.781 312.228 561.801C312.521 561.801 313.029 561.781 313.38 561.742V564.027C313.068 564.086 312.56 564.125 311.837 564.125C309.748 564.125 308.322 563.188 308.341 561.137V555.551H306.877V553.383H308.341V550.844H311.232V553.383H313.224ZM314.734 563.988V549.848H317.624V555.16H317.702C318.112 554.301 318.952 553.246 320.73 553.246C323.073 553.246 325.046 555.062 325.046 558.695C325.046 562.23 323.152 564.164 320.73 564.164C318.991 564.164 318.112 563.168 317.702 562.289H317.585V563.988H314.734ZM317.566 558.676C317.566 560.59 318.386 561.859 319.812 561.859C321.296 561.859 322.077 560.551 322.077 558.676C322.077 556.82 321.296 555.551 319.812 555.551C318.366 555.551 317.566 556.762 317.566 558.676ZM328.001 564.164C327.083 564.164 326.341 563.422 326.36 562.523C326.341 561.625 327.083 560.902 328.001 560.902C328.86 560.902 329.622 561.625 329.622 562.523C329.622 563.422 328.86 564.164 328.001 564.164ZM337.699 549.848V563.988H334.77V549.848H337.699ZM342.314 557.855V563.988H339.423V553.383H342.177V555.238H342.295C342.783 554.008 343.916 553.246 345.478 553.246C347.685 553.246 349.15 554.75 349.13 557.23V563.988H346.259V557.738C346.259 556.43 345.537 555.648 344.345 555.648C343.134 555.648 342.314 556.449 342.314 557.855ZM356.831 556.527C356.714 555.785 356.05 555.297 355.093 555.297C354.155 555.297 353.433 555.746 353.452 556.391C353.433 556.859 353.823 557.23 354.82 557.445L356.714 557.836C358.765 558.266 359.761 559.184 359.78 560.707C359.761 562.797 357.886 564.203 355.073 564.203C352.202 564.203 350.523 562.914 350.288 560.844H353.198C353.335 561.684 354.019 562.113 355.073 562.113C356.128 562.113 356.831 561.684 356.831 561C356.831 560.453 356.382 560.121 355.386 559.906L353.628 559.555C351.616 559.164 350.562 558.109 350.581 556.547C350.562 554.516 352.32 553.246 355.054 553.246C357.73 553.246 359.39 554.516 359.546 556.527H356.831ZM360.958 567.973V553.383H363.809V555.16H363.927C364.317 554.301 365.177 553.246 366.954 553.246C369.298 553.246 371.251 555.062 371.251 558.695C371.251 562.23 369.376 564.164 366.954 564.164C365.216 564.164 364.337 563.168 363.927 562.289H363.848V567.973H360.958ZM363.79 558.676C363.79 560.59 364.61 561.859 366.036 561.859C367.52 561.859 368.302 560.551 368.302 558.676C368.302 556.82 367.52 555.551 366.036 555.551C364.591 555.551 363.79 556.762 363.79 558.676ZM377.33 564.203C374.088 564.203 372.096 562.094 372.096 558.734C372.096 555.453 374.108 553.246 377.213 553.246C380.006 553.246 382.194 555.004 382.194 558.617V559.438H374.948C374.948 561.039 375.905 562.035 377.389 562.035C378.366 562.035 379.069 561.605 379.362 560.961H382.116C381.705 562.914 379.948 564.203 377.33 564.203ZM374.948 557.621H379.459C379.459 556.332 378.561 555.414 377.272 555.414C375.944 555.414 374.996 556.4 374.948 557.621ZM388.176 564.203C384.934 564.203 382.98 561.957 382.98 558.715C382.98 555.473 384.953 553.246 388.176 553.246C390.91 553.246 392.766 554.848 392.883 557.27H390.168C389.992 556.215 389.309 555.492 388.215 555.492C386.828 555.492 385.91 556.664 385.91 558.676C385.91 560.727 386.809 561.898 388.215 561.898C389.23 561.898 389.992 561.273 390.168 560.141H392.883C392.746 562.543 390.988 564.203 388.176 564.203ZM399.666 553.383V555.551H397.673V560.727C397.673 561.566 398.084 561.781 398.67 561.801C398.963 561.801 399.47 561.781 399.822 561.742V564.027C399.509 564.086 399.002 564.125 398.279 564.125C396.189 564.125 394.763 563.188 394.783 561.137V555.551H393.318V553.383H394.783V550.844H397.673V553.383H399.666Z" fill="black"/>
<path d="M517.752 697.93C517.752 702.539 514.881 705.195 511.151 705.195C507.381 705.195 504.53 702.52 504.53 697.93C504.53 693.32 507.381 690.664 511.151 690.664C514.881 690.664 517.752 693.32 517.752 697.93ZM514.764 697.93C514.764 694.902 513.338 693.262 511.151 693.262C508.963 693.262 507.518 694.902 507.518 697.93C507.518 700.957 508.963 702.598 511.151 702.598C513.338 702.598 514.764 700.957 514.764 697.93ZM526 700.488V694.395H528.891V705H526.117V703.086H526C525.512 704.316 524.379 705.137 522.777 705.137C520.648 705.137 519.203 703.633 519.203 701.152V694.395H522.094V700.645C522.094 701.895 522.816 702.695 523.949 702.695C525.004 702.695 526 701.934 526 700.488ZM536.123 694.395V696.562H534.13V701.738C534.13 702.578 534.541 702.793 535.127 702.812C535.42 702.812 535.927 702.793 536.279 702.754V705.039C535.966 705.098 535.459 705.137 534.736 705.137C532.646 705.137 531.22 704.199 531.24 702.148V696.562H529.775V694.395H531.24V691.855H534.13V694.395H536.123ZM537.632 705V690.859H540.523V696.172H540.601C541.011 695.312 541.851 694.258 543.628 694.258C545.972 694.258 547.945 696.074 547.945 699.707C547.945 703.242 546.05 705.176 543.628 705.176C541.89 705.176 541.011 704.18 540.601 703.301H540.484V705H537.632ZM540.464 699.688C540.464 701.602 541.284 702.871 542.71 702.871C544.195 702.871 544.976 701.562 544.976 699.688C544.976 697.832 544.195 696.562 542.71 696.562C541.265 696.562 540.464 697.773 540.464 699.688ZM550.899 705.176C549.981 705.176 549.239 704.434 549.259 703.535C549.239 702.637 549.981 701.914 550.899 701.914C551.759 701.914 552.52 702.637 552.52 703.535C552.52 704.434 551.759 705.176 550.899 705.176ZM567.121 695.781C566.887 694.219 565.676 693.262 564.035 693.262C561.828 693.262 560.383 694.961 560.383 697.93C560.383 700.977 561.848 702.598 564.016 702.598C565.637 702.598 566.828 701.699 567.121 700.176L570.09 700.195C569.758 702.812 567.57 705.195 563.977 705.195C560.188 705.195 557.395 702.539 557.395 697.93C557.395 693.32 560.246 690.664 563.977 690.664C567.238 690.664 569.699 692.539 570.09 695.781H567.121ZM576.248 705.215C573.045 705.215 571.052 703.008 571.052 699.727C571.052 696.445 573.045 694.258 576.248 694.258C579.451 694.258 581.463 696.445 581.463 699.727C581.463 703.008 579.451 705.215 576.248 705.215ZM576.267 702.969C577.752 702.969 578.513 701.582 578.513 699.727C578.513 697.852 577.752 696.465 576.267 696.465C574.763 696.465 573.982 697.852 573.982 699.727C573.982 701.582 574.763 702.969 576.267 702.969ZM585.57 698.867V705H582.679V694.395H585.433V696.25H585.55C586.038 695.02 587.171 694.258 588.734 694.258C590.941 694.258 592.405 695.762 592.386 698.242V705H589.515V698.75C589.515 697.441 588.792 696.66 587.601 696.66C586.39 696.66 585.57 697.461 585.57 698.867ZM599.677 694.395V696.562H597.567V705H594.677V696.562H593.173V694.395H594.677V693.594C594.677 691.367 596.024 690.195 598.153 690.195C598.817 690.195 599.364 690.254 599.872 690.371V692.559C599.462 692.52 599.149 692.5 598.993 692.5C598.055 692.5 597.567 692.871 597.567 693.75V694.395H599.677ZM600.776 705V694.395H603.666V705H600.776ZM602.221 693.008C601.342 693.008 600.639 692.344 600.639 691.543C600.639 690.723 601.342 690.059 602.221 690.059C603.08 690.059 603.784 690.723 603.784 691.543C603.784 692.344 603.08 693.008 602.221 693.008ZM605.312 705V694.395H608.105V696.23H608.223C608.613 694.922 609.59 694.238 610.781 694.238C611.074 694.238 611.445 694.277 611.699 694.336V696.914C611.426 696.836 610.879 696.758 610.469 696.758C609.16 696.758 608.203 697.676 608.203 698.965V705H605.312ZM612.505 705V694.395H615.259V696.25H615.377C615.826 695.02 616.9 694.258 618.326 694.258C619.791 694.258 620.865 695.02 621.216 696.25H621.314C621.763 695.039 622.955 694.258 624.517 694.258C626.49 694.258 627.857 695.566 627.857 697.871V705H624.966V698.438C624.966 697.227 624.263 696.641 623.306 696.641C622.213 696.641 621.588 697.402 621.588 698.516V705H618.775V698.359C618.775 697.305 618.111 696.641 617.134 696.641C616.158 696.641 615.396 697.422 615.396 698.633V705H612.505Z" fill="black"/>
<path d="M306.013 705V690.859H311.56C314.782 690.859 316.618 692.832 316.618 695.625C316.618 698.457 314.743 700.391 311.482 700.391H308.943V705H306.013ZM308.943 698.027H311.013C312.751 698.027 313.591 697.051 313.591 695.625C313.591 694.219 312.751 693.262 311.013 693.262H308.943V698.027ZM317.034 702.031C317.034 699.668 318.948 698.887 320.979 698.77C321.741 698.721 323.167 698.652 323.616 698.633V697.773C323.596 696.895 322.991 696.367 321.917 696.367C320.94 696.367 320.315 696.816 320.159 697.539H317.405C317.581 695.703 319.182 694.258 321.995 694.258C324.3 694.258 326.487 695.293 326.487 697.852V705H323.753V703.535H323.675C323.147 704.512 322.151 705.195 320.569 705.195C318.538 705.195 317.034 704.141 317.034 702.031ZM319.807 701.953C319.807 702.773 320.471 703.203 321.389 703.203C322.698 703.203 323.636 702.324 323.616 701.211V700.43C323.177 700.449 321.946 700.518 321.448 700.566C320.452 700.664 319.807 701.133 319.807 701.953ZM332.86 705.215C329.618 705.215 327.664 702.969 327.664 699.727C327.664 696.484 329.637 694.258 332.86 694.258C335.594 694.258 337.45 695.859 337.567 698.281H334.852C334.676 697.227 333.993 696.504 332.899 696.504C331.512 696.504 330.594 697.676 330.594 699.688C330.594 701.738 331.493 702.91 332.899 702.91C333.914 702.91 334.676 702.285 334.852 701.152H337.567C337.43 703.555 335.672 705.215 332.86 705.215ZM338.764 705V690.859H341.654V698.457H341.811L345.248 694.395H348.568L344.623 698.984L348.783 705H345.385L342.475 700.684L341.654 701.602V705H338.764ZM349.316 705V694.395H352.207V705H349.316ZM350.761 693.008C349.882 693.008 349.179 692.344 349.179 691.543C349.179 690.723 349.882 690.059 350.761 690.059C351.621 690.059 352.324 690.723 352.324 691.543C352.324 692.344 351.621 693.008 350.761 693.008ZM356.743 698.867V705H353.853V694.395H356.607V696.25H356.724C357.212 695.02 358.345 694.258 359.907 694.258C362.114 694.258 363.579 695.762 363.56 698.242V705H360.689V698.75C360.689 697.441 359.966 696.66 358.775 696.66C357.564 696.66 356.743 697.461 356.743 698.867ZM369.971 709.199C367.042 709.199 365.245 707.891 365.069 705.879H367.921C368.077 706.719 368.878 707.109 370.03 707.109C371.378 707.109 372.276 706.543 372.276 705.059V703.125H372.139C371.749 703.984 370.811 704.844 369.112 704.844C366.71 704.844 364.796 703.164 364.796 699.629C364.796 696.035 366.768 694.258 369.112 694.258C370.889 694.258 371.749 695.312 372.139 696.172H372.257V694.395H375.128V705.117C375.128 707.812 372.979 709.199 369.971 709.199ZM370.011 702.676C371.456 702.676 372.276 701.543 372.276 699.668C372.276 697.773 371.456 696.562 370.011 696.562C368.546 696.562 367.764 697.832 367.764 699.668C367.764 701.504 368.546 702.676 370.011 702.676Z" fill="black"/>
<path d="M756.477 57.9023C756.359 56.7891 755.461 56.125 754.035 56.125C752.551 56.125 751.73 56.8086 751.711 57.7461C751.691 58.7617 752.766 59.2305 753.977 59.5039L755.246 59.8164C757.668 60.3633 759.484 61.5938 759.484 63.957C759.484 66.5547 757.453 68.1953 754.016 68.1953C750.598 68.1953 748.41 66.6133 748.332 63.5859H751.184C751.281 65.0117 752.414 65.7344 753.977 65.7344C755.52 65.7344 756.516 65.0117 756.516 63.957C756.516 63 755.637 62.5508 754.094 62.1602L752.551 61.7891C750.168 61.2031 748.703 60.0117 748.703 57.9414C748.703 55.3633 750.969 53.6641 754.055 53.6641C757.18 53.6641 759.25 55.4023 759.289 57.9023H756.477ZM763.63 61.8672V68H760.74V53.8594H763.552V59.25H763.67C764.158 58.0195 765.232 57.2578 766.834 57.2578C769.041 57.2578 770.505 58.7422 770.505 61.2422V68H767.615V61.75C767.615 60.4414 766.912 59.6602 765.701 59.6602C764.49 59.6602 763.63 60.4609 763.63 61.8672ZM772.132 68V57.3945H775.023V68H772.132ZM773.577 56.0078C772.698 56.0078 771.995 55.3438 771.995 54.543C771.995 53.7227 772.698 53.0586 773.577 53.0586C774.437 53.0586 775.14 53.7227 775.14 54.543C775.14 55.3438 774.437 56.0078 773.577 56.0078ZM776.669 71.9844V57.3945H779.52V59.1719H779.638C780.028 58.3125 780.888 57.2578 782.665 57.2578C785.009 57.2578 786.962 59.0742 786.962 62.707C786.962 66.2422 785.087 68.1758 782.665 68.1758C780.927 68.1758 780.048 67.1797 779.638 66.3008H779.559V71.9844H776.669ZM779.501 62.6875C779.501 64.6016 780.321 65.8711 781.747 65.8711C783.231 65.8711 784.013 64.5625 784.013 62.6875C784.013 60.832 783.231 59.5625 781.747 59.5625C780.302 59.5625 779.501 60.7734 779.501 62.6875ZM792.305 68V53.8594H797.852C801.074 53.8594 802.91 55.6758 802.91 58.4688C802.91 60.4023 802.021 61.8086 800.41 62.4922L803.418 68H800.176L797.48 62.9805H795.234V68H792.305ZM795.234 60.5977H797.305C799.043 60.5977 799.883 59.875 799.883 58.4688C799.883 57.043 799.043 56.2617 797.305 56.2617H795.234V60.5977ZM808.912 68.2148C805.67 68.2148 803.677 66.1055 803.677 62.7461C803.677 59.4648 805.689 57.2578 808.795 57.2578C811.588 57.2578 813.775 59.0156 813.775 62.6289V63.4492H806.529C806.529 65.0508 807.486 66.0469 808.97 66.0469C809.947 66.0469 810.65 65.6172 810.943 64.9727H813.697C813.287 66.9258 811.529 68.2148 808.912 68.2148ZM806.529 61.6328H811.041C811.041 60.3438 810.142 59.4258 808.853 59.4258C807.525 59.4258 806.578 60.4121 806.529 61.6328ZM822.003 71.9844V66.3008H821.905C821.495 67.1797 820.616 68.1758 818.898 68.1758C816.476 68.1758 814.581 66.2422 814.581 62.707C814.581 59.0742 816.554 57.2578 818.898 57.2578C820.675 57.2578 821.515 58.3125 821.905 59.1719H822.042V57.3945H824.894V71.9844H822.003ZM819.796 65.8711C821.241 65.8711 822.062 64.6016 822.062 62.6875C822.062 60.7734 821.241 59.5625 819.796 59.5625C818.331 59.5625 817.55 60.832 817.55 62.6875C817.55 64.5625 818.331 65.8711 819.796 65.8711ZM828.259 68.1758C827.341 68.1758 826.598 67.4336 826.618 66.5352C826.598 65.6367 827.341 64.9141 828.259 64.9141C829.118 64.9141 829.88 65.6367 829.88 66.5352C829.88 67.4336 829.118 68.1758 828.259 68.1758Z" fill="black"/>
<rect x="769.781" y="312" width="84" height="84" rx="42" fill="#336DFF"/>
<path d="M790.633 343.499C790.633 343.499 794.956 348.573 800.97 348.385C806.985 348.198 810.932 344.438 813.563 341.995C816.195 339.552 825.968 336.356 832.923 345.002" stroke="white" stroke-width="3" stroke-miterlimit="10" stroke-linecap="round"/>
<path d="M790.633 354.639C790.633 354.639 794.956 359.714 800.97 359.526C806.985 359.338 810.932 355.579 813.563 353.136C816.195 350.692 825.968 347.497 832.923 356.143" stroke="white" stroke-width="3" stroke-miterlimit="10" stroke-linecap="round"/>
<path d="M790.633 366.608C790.633 366.608 794.956 371.683 800.97 371.495C806.985 371.307 810.932 367.548 813.563 365.104C816.195 362.661 825.968 359.466 832.923 368.112" stroke="white" stroke-width="3" stroke-miterlimit="10" stroke-linecap="round"/>
<circle cx="828.406" cy="367.402" r="11.375" fill="white"/>
<path d="M823.422 367.813L827.135 371.532L833.39 365.277" stroke="#336DFF" stroke-width="2" stroke-miterlimit="10"/>
<rect x="523.281" y="312" width="84" height="84" rx="42" fill="#336DFF"/>
<circle cx="565.281" cy="354" r="18.375" fill="white"/>
<path d="M555.781 354.25H575.281" stroke="#336DFF" stroke-width="3" stroke-miterlimit="10"/>
<path d="M565.531 364V344.5" stroke="#336DFF" stroke-width="3" stroke-miterlimit="10"/>
<rect x="524.281" y="444.988" width="84" height="84" rx="42" fill="#336DFF"/>
<path d="M571.095 467.191L551.534 480.635C550.98 481.016 550.84 481.773 551.221 482.327L564.664 501.888C565.045 502.442 565.803 502.582 566.357 502.201L585.917 488.758C586.471 488.377 586.611 487.619 586.231 487.065L572.787 467.505C572.406 466.951 571.649 466.811 571.095 467.191Z" stroke="white" stroke-width="2" stroke-miterlimit="10"/>
<path d="M563.557 472.342L559.019 475.461C558.564 475.774 558.449 476.396 558.762 476.851L562.266 481.95C562.579 482.405 563.201 482.521 563.657 482.208L568.194 479.089C568.649 478.777 568.765 478.154 568.452 477.699L564.947 472.6C564.635 472.145 564.012 472.03 563.557 472.342Z" fill="white" stroke="white" stroke-width="2" stroke-miterlimit="10"/>
<path d="M575.83 483.902L577.829 486.554L573.164 490.046L571.062 487.235" stroke="white" stroke-width="2" stroke-miterlimit="10"/>
<path d="M536.617 471.285H543.862L552.556 484.326" stroke="white" stroke-width="2" stroke-miterlimit="10"/>
<path d="M564.143 510.408C568.145 510.408 571.388 507.164 571.388 503.163C571.388 499.162 568.145 495.918 564.143 495.918C560.142 495.918 556.898 499.162 556.898 503.163C556.898 507.164 560.142 510.408 564.143 510.408Z" fill="#336DFF" stroke="white" stroke-width="2" stroke-miterlimit="10"/>
<rect x="298.172" y="444.988" width="84" height="84" rx="42" fill="#336DFF"/>
<mask id="path-33-inside-1_127_1205" fill="white">
<rect x="323.273" y="466.941" width="34.0078" height="41.5454" rx="2"/>
</mask>
<rect x="323.273" y="466.941" width="34.0078" height="41.5454" rx="2" fill="white" stroke="white" stroke-width="6" mask="url(#path-33-inside-1_127_1205)"/>
<path d="M329.883 478.152L332.297 480.251L336.495 476.367" stroke="#336DFF" stroke-width="3"/>
<path d="M329.883 488.03L332.297 490.13L336.495 486.246" stroke="#336DFF" stroke-width="3"/>
<path d="M329.883 498.011L332.297 500.11L336.495 496.227" stroke="#336DFF" stroke-width="3"/>
<path d="M341.539 476.262H350.356" stroke="#336DFF" stroke-width="3"/>
<path d="M341.539 486.141H350.356" stroke="#336DFF" stroke-width="3"/>
<path d="M341.539 496.121H350.356" stroke="#336DFF" stroke-width="3"/>
<path d="M756.935 704V689.859H759.864V701.578H765.958V704H756.935ZM771.96 704.215C768.757 704.215 766.764 702.008 766.764 698.727C766.764 695.445 768.757 693.258 771.96 693.258C775.163 693.258 777.175 695.445 777.175 698.727C777.175 702.008 775.163 704.215 771.96 704.215ZM771.979 701.969C773.464 701.969 774.225 700.582 774.225 698.727C774.225 696.852 773.464 695.465 771.979 695.465C770.475 695.465 769.694 696.852 769.694 698.727C769.694 700.582 770.475 701.969 771.979 701.969ZM777.883 701.031C777.883 698.668 779.797 697.887 781.829 697.77C782.59 697.721 784.016 697.652 784.465 697.633V696.773C784.446 695.895 783.84 695.367 782.766 695.367C781.789 695.367 781.164 695.816 781.008 696.539H778.254C778.43 694.703 780.032 693.258 782.844 693.258C785.149 693.258 787.336 694.293 787.336 696.852V704H784.602V702.535H784.524C783.996 703.512 783 704.195 781.418 704.195C779.387 704.195 777.883 703.141 777.883 701.031ZM780.657 700.953C780.657 701.773 781.321 702.203 782.239 702.203C783.547 702.203 784.485 701.324 784.465 700.211V699.43C784.026 699.449 782.795 699.518 782.297 699.566C781.301 699.664 780.657 700.133 780.657 700.953ZM792.85 704.176C790.428 704.176 788.533 702.242 788.533 698.707C788.533 695.074 790.506 693.258 792.85 693.258C794.627 693.258 795.467 694.312 795.857 695.172H795.955V689.859H798.846V704H795.994V702.301H795.857C795.447 703.18 794.568 704.176 792.85 704.176ZM793.748 701.871C795.193 701.871 796.014 700.602 796.014 698.688C796.014 696.773 795.193 695.562 793.748 695.562C792.283 695.562 791.502 696.832 791.502 698.688C791.502 700.562 792.283 701.871 793.748 701.871ZM805.009 698.609C805.009 694.938 806.142 691.891 808.017 689.254H810.771C809.423 691.207 808.017 695.113 808.017 698.609C808.017 702.125 809.423 706.031 810.771 707.984H808.017C806.142 705.348 805.009 702.281 805.009 698.609ZM814.194 704H811.03L815.932 689.859H819.702L824.585 704H821.44L820.386 700.738H815.268L814.194 704ZM816.011 698.453H819.643L817.866 693.043H817.768L816.011 698.453ZM826.289 704L823.399 693.395H826.329L827.989 700.562H828.086L829.825 693.395H832.696L834.454 700.523H834.551L836.192 693.395H839.121L836.211 704H833.164L831.329 697.262H831.192L829.356 704H826.289ZM839.479 701.031C839.479 698.668 841.393 697.887 843.424 697.77C844.186 697.721 845.611 697.652 846.061 697.633V696.773C846.041 695.895 845.436 695.367 844.361 695.367C843.385 695.367 842.76 695.816 842.604 696.539H839.85C840.025 694.703 841.627 693.258 844.439 693.258C846.744 693.258 848.932 694.293 848.932 696.852V704H846.197V702.535H846.119C845.592 703.512 844.596 704.195 843.014 704.195C840.982 704.195 839.479 703.141 839.479 701.031ZM842.252 700.953C842.252 701.773 842.916 702.203 843.834 702.203C845.143 702.203 846.08 701.324 846.061 700.211V699.43C845.621 699.449 844.391 699.518 843.893 699.566C842.896 699.664 842.252 700.133 842.252 700.953ZM850.539 704V693.395H853.429V704H850.539ZM851.984 692.008C851.105 692.008 850.402 691.344 850.402 690.543C850.402 689.723 851.105 689.059 851.984 689.059C852.843 689.059 853.546 689.723 853.546 690.543C853.546 691.344 852.843 692.008 851.984 692.008ZM860.661 693.395V695.562H858.669V700.738C858.669 701.578 859.079 701.793 859.665 701.812C859.958 701.812 860.466 701.793 860.818 701.754V704.039C860.505 704.098 859.997 704.137 859.275 704.137C857.185 704.137 855.759 703.199 855.779 701.148V695.562H854.314V693.395H855.779V690.855H858.669V693.395H860.661ZM866.975 698.609C866.975 702.281 865.843 705.348 863.968 707.984H861.214C862.561 706.031 863.968 702.125 863.968 698.609C863.968 695.113 862.561 691.207 861.214 689.254H863.968C865.843 691.891 866.975 694.938 866.975 698.609Z" fill="black"/>
<rect x="769.281" y="590" width="84" height="84" rx="42" fill="#336DFF"/>
<path d="M829.281 634.246H794.281C793.729 634.246 793.281 634.694 793.281 635.246V649.246C793.281 649.798 793.729 650.246 794.281 650.246H829.281C829.834 650.246 830.281 649.798 830.281 649.246V635.246C830.281 634.694 829.834 634.246 829.281 634.246Z" fill="white" stroke="white" stroke-width="2" stroke-miterlimit="10"/>
<path d="M804.758 632.879V652.617" stroke="#336DFF" stroke-width="2" stroke-miterlimit="10"/>
<path d="M818.281 632.879V652.617" stroke="#336DFF" stroke-width="2" stroke-miterlimit="10"/>
<path d="M793.281 634.25L811.781 624.41L830.281 634.25" stroke="white" stroke-width="2" stroke-miterlimit="10" stroke-linecap="round" stroke-linejoin="round"/>
<path d="M807.281 620.749C807.281 623.239 809.291 625.249 811.781 625.249C814.271 625.249 816.281 623.239 816.281 620.749C816.281 618.259 814.271 616.249 811.781 616.249V611.379" stroke="white" stroke-width="2" stroke-linecap="round" stroke-linejoin="round"/>
<rect x="523.922" y="590" width="84" height="84" rx="42" fill="#336DFF"/>
<path d="M577.557 614.254H548.23C547.4 614.254 546.727 614.927 546.727 615.758V645.084C546.727 645.915 547.4 646.588 548.23 646.588H577.557C578.387 646.588 579.061 645.915 579.061 645.084V615.758C579.061 614.927 578.387 614.254 577.557 614.254Z" stroke="white" stroke-width="2" stroke-miterlimit="10"/>
<path d="M566.501 614.242H558.227C557.95 614.242 557.727 614.466 557.727 614.742V623.858C557.727 624.134 557.95 624.358 558.227 624.358H566.501C566.777 624.358 567.001 624.134 567.001 623.858V614.742C567.001 614.466 566.777 614.242 566.501 614.242Z" fill="white" stroke="white" stroke-width="2" stroke-miterlimit="10"/>
<path d="M551.062 638.145H558.365" stroke="white" stroke-width="2"/>
<circle cx="576.185" cy="643.916" r="11.8417" fill="white"/>
<path d="M570.883 643.289L574.835 647.248L581.493 640.59" stroke="#336DFF" stroke-width="2" stroke-miterlimit="10"/>
<rect x="298.172" y="590" width="84" height="84" rx="42" fill="#336DFF"/>
<path d="M334.755 620.774C334.755 620.774 327.675 619.774 328.675 614.774C329.675 609.774 335.675 609.774 337.675 612.774C339.675 615.774 339.675 619.774 339.675 619.774" stroke="white" stroke-width="2" stroke-miterlimit="10"/>
<path d="M344.592 620.774C344.592 620.774 351.672 619.774 350.672 614.774C349.672 609.774 343.672 609.774 341.672 612.774C339.672 615.774 339.672 619.774 339.672 619.774" stroke="white" stroke-width="2" stroke-miterlimit="10"/>
<path d="M359.672 620.777H320.672V632.277H359.672V620.777Z" fill="white" stroke="#336DFF" stroke-width="2" stroke-miterlimit="10"/>
<path d="M357.172 632.277H323.172V651.277H357.172V632.277Z" fill="white" stroke="#336DFF" stroke-width="2" stroke-miterlimit="10"/>
<path d="M340.172 632.277V651.277" stroke="#336DFF" stroke-width="2" stroke-miterlimit="10"/>
<path d="M1026.18 414V399.859H1031.72C1034.95 399.859 1036.78 401.832 1036.78 404.625C1036.78 407.457 1034.91 409.391 1031.64 409.391H1029.11V414H1026.18ZM1029.11 407.027H1031.18C1032.91 407.027 1033.75 406.051 1033.75 404.625C1033.75 403.219 1032.91 402.262 1031.18 402.262H1029.11V407.027ZM1037.98 414V403.395H1040.87V414H1037.98ZM1039.42 402.008C1038.54 402.008 1037.84 401.344 1037.84 400.543C1037.84 399.723 1038.54 399.059 1039.42 399.059C1040.28 399.059 1040.99 399.723 1040.99 400.543C1040.99 401.344 1040.28 402.008 1039.42 402.008ZM1047.28 414.215C1044.04 414.215 1042.09 411.969 1042.09 408.727C1042.09 405.484 1044.06 403.258 1047.28 403.258C1050.01 403.258 1051.87 404.859 1051.99 407.281H1049.27C1049.1 406.227 1048.41 405.504 1047.32 405.504C1045.93 405.504 1045.01 406.676 1045.01 408.688C1045.01 410.738 1045.91 411.91 1047.32 411.91C1048.34 411.91 1049.1 411.285 1049.27 410.152H1051.99C1051.85 412.555 1050.09 414.215 1047.28 414.215ZM1053.18 414V399.859H1056.08V407.457H1056.23L1059.67 403.395H1062.99L1059.04 407.984L1063.2 414H1059.81L1056.9 409.684L1056.08 410.602V414H1053.18ZM1063.74 414V403.395H1066.63V414H1063.74ZM1065.18 402.008C1064.3 402.008 1063.6 401.344 1063.6 400.543C1063.6 399.723 1064.3 399.059 1065.18 399.059C1066.04 399.059 1066.74 399.723 1066.74 400.543C1066.74 401.344 1066.04 402.008 1065.18 402.008ZM1071.16 407.867V414H1068.27V403.395H1071.03V405.25H1071.14C1071.63 404.02 1072.77 403.258 1074.33 403.258C1076.54 403.258 1078 404.762 1077.98 407.242V414H1075.11V407.75C1075.11 406.441 1074.39 405.66 1073.2 405.66C1071.98 405.66 1071.16 406.461 1071.16 407.867ZM1084.39 418.199C1081.46 418.199 1079.67 416.891 1079.49 414.879H1082.34C1082.5 415.719 1083.3 416.109 1084.45 416.109C1085.8 416.109 1086.7 415.543 1086.7 414.059V412.125H1086.56C1086.17 412.984 1085.23 413.844 1083.53 413.844C1081.13 413.844 1079.22 412.164 1079.22 408.629C1079.22 405.035 1081.19 403.258 1083.53 403.258C1085.31 403.258 1086.17 404.312 1086.56 405.172H1086.68V403.395H1089.55V414.117C1089.55 416.812 1087.4 418.199 1084.39 418.199ZM1084.43 411.676C1085.88 411.676 1086.7 410.543 1086.7 408.668C1086.7 406.773 1085.88 405.562 1084.43 405.562C1082.97 405.562 1082.19 406.832 1082.19 408.668C1082.19 410.504 1082.97 411.676 1084.43 411.676ZM1029.11 427.859V442H1026.18V427.859H1029.11ZM1033.72 435.867V442H1030.83V431.395H1033.58V433.25H1033.7C1034.19 432.02 1035.32 431.258 1036.88 431.258C1039.09 431.258 1040.56 432.762 1040.54 435.242V442H1037.67V435.75C1037.67 434.441 1036.94 433.66 1035.75 433.66C1034.54 433.66 1033.72 434.461 1033.72 435.867ZM1048.24 434.539C1048.12 433.797 1047.46 433.309 1046.5 433.309C1045.56 433.309 1044.84 433.758 1044.86 434.402C1044.84 434.871 1045.23 435.242 1046.23 435.457L1048.12 435.848C1050.17 436.277 1051.17 437.195 1051.19 438.719C1051.17 440.809 1049.29 442.215 1046.48 442.215C1043.61 442.215 1041.93 440.926 1041.69 438.855H1044.6C1044.74 439.695 1045.42 440.125 1046.48 440.125C1047.53 440.125 1048.24 439.695 1048.24 439.012C1048.24 438.465 1047.79 438.133 1046.79 437.918L1045.03 437.566C1043.02 437.176 1041.97 436.121 1041.99 434.559C1041.97 432.527 1043.73 431.258 1046.46 431.258C1049.14 431.258 1050.8 432.527 1050.95 434.539H1048.24ZM1057.95 431.395V433.562H1055.96V438.738C1055.96 439.578 1056.37 439.793 1056.95 439.812C1057.25 439.812 1057.75 439.793 1058.11 439.754V442.039C1057.79 442.098 1057.29 442.137 1056.56 442.137C1054.47 442.137 1053.05 441.199 1053.07 439.148V433.562H1051.6V431.395H1053.07V428.855H1055.96V431.395H1057.95ZM1059.17 442V431.395H1061.96V433.23H1062.08C1062.47 431.922 1063.44 431.238 1064.64 431.238C1064.93 431.238 1065.3 431.277 1065.55 431.336V433.914C1065.28 433.836 1064.73 433.758 1064.32 433.758C1063.01 433.758 1062.06 434.676 1062.06 435.965V442H1059.17ZM1066.85 442.176C1065.93 442.176 1065.19 441.434 1065.21 440.535C1065.19 439.637 1065.93 438.914 1066.85 438.914C1067.71 438.914 1068.47 439.637 1068.47 440.535C1068.47 441.434 1067.71 442.176 1066.85 442.176Z" fill="black"/>
<path d="M742.454 565.5V551.359H748.001C751.223 551.359 753.059 553.332 753.059 556.125C753.059 558.957 751.184 560.891 747.923 560.891H745.384V565.5H742.454ZM745.384 558.527H747.454C749.192 558.527 750.032 557.551 750.032 556.125C750.032 554.719 749.192 553.762 747.454 553.762H745.384V558.527ZM754.256 565.5V554.895H757.049V556.73H757.166C757.557 555.422 758.534 554.738 759.725 554.738C760.018 554.738 760.389 554.777 760.643 554.836V557.414C760.37 557.336 759.823 557.258 759.412 557.258C758.104 557.258 757.147 558.176 757.147 559.465V565.5H754.256ZM765.883 565.715C762.68 565.715 760.687 563.508 760.687 560.227C760.687 556.945 762.68 554.758 765.883 554.758C769.086 554.758 771.098 556.945 771.098 560.227C771.098 563.508 769.086 565.715 765.883 565.715ZM765.902 563.469C767.387 563.469 768.148 562.082 768.148 560.227C768.148 558.352 767.387 556.965 765.902 556.965C764.398 556.965 763.617 558.352 763.617 560.227C763.617 562.082 764.398 563.469 765.902 563.469ZM776.22 565.676C773.798 565.676 771.904 563.742 771.904 560.207C771.904 556.574 773.877 554.758 776.22 554.758C777.998 554.758 778.837 555.812 779.228 556.672H779.326V551.359H782.216V565.5H779.365V563.801H779.228C778.818 564.68 777.939 565.676 776.22 565.676ZM777.119 563.371C778.564 563.371 779.384 562.102 779.384 560.188C779.384 558.273 778.564 557.062 777.119 557.062C775.654 557.062 774.873 558.332 774.873 560.188C774.873 562.062 775.654 563.371 777.119 563.371ZM790.737 560.988V554.895H793.628V565.5H790.855V563.586H790.737C790.249 564.816 789.116 565.637 787.515 565.637C785.386 565.637 783.941 564.133 783.941 561.652V554.895H786.831V561.145C786.831 562.395 787.554 563.195 788.687 563.195C789.741 563.195 790.737 562.434 790.737 560.988ZM800.04 565.715C796.798 565.715 794.845 563.469 794.845 560.227C794.845 556.984 796.817 554.758 800.04 554.758C802.774 554.758 804.63 556.359 804.747 558.781H802.032C801.856 557.727 801.173 557.004 800.079 557.004C798.692 557.004 797.774 558.176 797.774 560.188C797.774 562.238 798.673 563.41 800.079 563.41C801.095 563.41 801.856 562.785 802.032 561.652H804.747C804.61 564.055 802.852 565.715 800.04 565.715ZM811.53 554.895V557.062H809.537V562.238C809.537 563.078 809.948 563.293 810.534 563.312C810.827 563.312 811.334 563.293 811.686 563.254V565.539C811.373 565.598 810.866 565.637 810.143 565.637C808.053 565.637 806.627 564.699 806.647 562.648V557.062H805.182V554.895H806.647V552.355H809.537V554.895H811.53ZM816.814 565.5V551.359H822.361C825.584 551.359 827.42 553.332 827.42 556.125C827.42 558.957 825.545 560.891 822.283 560.891H819.744V565.5H816.814ZM819.744 558.527H821.814C823.552 558.527 824.392 557.551 824.392 556.125C824.392 554.719 823.552 553.762 821.814 553.762H819.744V558.527ZM828.616 565.5V554.895H831.507V565.5H828.616ZM830.062 553.508C829.183 553.508 828.48 552.844 828.48 552.043C828.48 551.223 829.183 550.559 830.062 550.559C830.921 550.559 831.624 551.223 831.624 552.043C831.624 552.844 830.921 553.508 830.062 553.508ZM837.919 565.715C834.677 565.715 832.723 563.469 832.723 560.227C832.723 556.984 834.696 554.758 837.919 554.758C840.653 554.758 842.509 556.359 842.626 558.781H839.911C839.735 557.727 839.052 557.004 837.958 557.004C836.571 557.004 835.653 558.176 835.653 560.188C835.653 562.238 836.552 563.41 837.958 563.41C838.973 563.41 839.735 562.785 839.911 561.652H842.626C842.489 564.055 840.731 565.715 837.919 565.715ZM843.823 565.5V551.359H846.713V558.957H846.87L850.307 554.895H853.627L849.682 559.484L853.842 565.5H850.444L847.534 561.184L846.713 562.102V565.5H843.823ZM854.375 565.5V554.895H857.266V565.5H854.375ZM855.82 553.508C854.941 553.508 854.238 552.844 854.238 552.043C854.238 551.223 854.941 550.559 855.82 550.559C856.68 550.559 857.383 551.223 857.383 552.043C857.383 552.844 856.68 553.508 855.82 553.508ZM861.802 559.367V565.5H858.912V554.895H861.666V556.75H861.783C862.271 555.52 863.404 554.758 864.966 554.758C867.173 554.758 868.638 556.262 868.619 558.742V565.5H865.748V559.25C865.748 557.941 865.025 557.16 863.834 557.16C862.623 557.16 861.802 557.961 861.802 559.367ZM875.03 569.699C872.101 569.699 870.304 568.391 870.128 566.379H872.98C873.136 567.219 873.937 567.609 875.089 567.609C876.437 567.609 877.335 567.043 877.335 565.559V563.625H877.198C876.808 564.484 875.87 565.344 874.171 565.344C871.769 565.344 869.855 563.664 869.855 560.129C869.855 556.535 871.827 554.758 874.171 554.758C875.948 554.758 876.808 555.812 877.198 556.672H877.316V554.895H880.187V565.617C880.187 568.312 878.038 569.699 875.03 569.699ZM875.07 563.176C876.515 563.176 877.335 562.043 877.335 560.168C877.335 558.273 876.515 557.062 875.07 557.062C873.605 557.062 872.823 558.332 872.823 560.168C872.823 562.004 873.605 563.176 875.07 563.176Z" fill="black"/>
<rect x="927.281" y="379" width="84" height="84" rx="42" fill="#336DFF"/>
<rect x="954.781" y="396.574" width="27.25" height="42.75" rx="3" stroke="white" stroke-width="2"/>
<mask id="path-63-inside-2_127_1205" fill="white">
<rect x="958.906" y="403.699" width="19.375" height="27.793" rx="1"/>
</mask>
<rect x="958.906" y="403.699" width="19.375" height="27.793" rx="1" stroke="white" stroke-width="4" mask="url(#path-63-inside-2_127_1205)"/>
<path d="M968.94 435.729L965.591 431.745C965.591 431.745 964.056 429.931 962.102 431.466C960.148 433.001 962.587 436.836 962.587 436.836L968.661 446.054C968.661 446.054 971.731 451.699 978.569 451.839C985.406 451.978 988.476 447.931 989.174 445.001C989.872 442.07 990.919 433.349 989.523 431.395C988.128 429.441 985.394 429.2 985.394 429.2C985.394 429.2 984.22 426.371 980.173 426.929C980.173 426.929 978.638 424.112 975.219 425.311V416.382C975.219 416.382 975.429 413.141 972.428 413.141C969.428 413.141 969.568 417.023 969.568 417.023L968.94 435.729Z" fill="white" stroke="#336DFF" stroke-width="2" stroke-linecap="round" stroke-linejoin="round"/>
<path d="M975.227 425.312V432.488" stroke="#336DFF" stroke-width="2" stroke-linecap="round" stroke-linejoin="round"/>
<path d="M980.242 427V432.488" stroke="#336DFF" stroke-width="2" stroke-linecap="round" stroke-linejoin="round"/>
<path d="M985.406 429.234V433.606" stroke="#336DFF" stroke-width="2" stroke-linecap="round" stroke-linejoin="round"/>
<rect x="965.594" y="399.824" width="6" height="2" rx="1" fill="white"/>
<rect x="769.281" y="451" width="84" height="84" rx="42" fill="#336DFF"/>
<path d="M822.531 482.25H792.031V512.75H822.531V482.25Z" stroke="white" stroke-width="2" stroke-linecap="round" stroke-linejoin="round"/>
<path d="M792.031 482.25L801.531 473.25H830.531L822.531 482.25" stroke="white" stroke-width="2" stroke-linecap="round" stroke-linejoin="round"/>
<path d="M822.531 512.75L830.531 503.25V473.25" stroke="white" stroke-width="2" stroke-linecap="round" stroke-linejoin="round"/>
<path d="M807.831 488.884L807.29 488.529L806.745 488.877L803.133 491.181V482.606L809.957 474.25H817.297L811.506 481.633L811.293 481.905V482.25V491.152L807.831 488.884Z" fill="white" stroke="white" stroke-width="2"/>
<g filter="url(#filter0_d_127_1205)">
<circle cx="308.273" cy="212.5" r="132.5" fill="white"/>
<circle cx="308.273" cy="212.5" r="130.5" stroke="#6E62FD" stroke-width="4"/>
</g>
<path d="M345.904 197.91H270.927C265.829 197.91 261.695 201.698 261.695 206.37C261.695 211.042 265.829 214.83 270.927 214.83H345.904C351.002 214.83 355.136 211.042 355.136 206.37C355.136 201.698 351.002 197.91 345.904 197.91Z" stroke="black" stroke-width="2" stroke-miterlimit="10"/>
<path d="M273.723 209.701C275.731 209.701 277.36 208.209 277.36 206.368C277.36 204.527 275.731 203.035 273.723 203.035C271.714 203.035 270.086 204.527 270.086 206.368C270.086 208.209 271.714 209.701 273.723 209.701Z" fill="black"/>
<path d="M291.067 209.701C293.075 209.701 294.703 208.209 294.703 206.368C294.703 204.527 293.075 203.035 291.067 203.035C289.058 203.035 287.43 204.527 287.43 206.368C287.43 208.209 289.058 209.701 291.067 209.701Z" fill="black"/>
<path d="M308.41 209.701C310.419 209.701 312.047 208.209 312.047 206.368C312.047 204.527 310.419 203.035 308.41 203.035C306.402 203.035 304.773 204.527 304.773 206.368C304.773 208.209 306.402 209.701 308.41 209.701Z" fill="black"/>
<path d="M325.762 209.701C327.771 209.701 329.399 208.209 329.399 206.368C329.399 204.527 327.771 203.035 325.762 203.035C323.753 203.035 322.125 204.527 322.125 206.368C322.125 208.209 323.753 209.701 325.762 209.701Z" fill="black"/>
<path d="M343.106 209.701C345.114 209.701 346.743 208.209 346.743 206.368C346.743 204.527 345.114 203.035 343.106 203.035C341.097 203.035 339.469 204.527 339.469 206.368C339.469 208.209 341.097 209.701 343.106 209.701Z" fill="black"/>
<path d="M324.921 171.246H292.469V193.293H324.921V171.246Z" fill="#336DFF"/>
<path d="M276.521 171.5H261.414V193.547H276.521V171.5Z" fill="#336DFF"/>
<path d="M355.131 171.5H340.023V193.547H355.131V171.5Z" fill="#336DFF"/>
<path d="M308.695 179.383V193.293" stroke="white" stroke-width="2" stroke-miterlimit="10"/>
<path d="M286.492 182.526V171.246L295.545 162.273H303.927" stroke="black" stroke-width="2" stroke-miterlimit="10"/>
<path d="M330.896 182.526V171.246L321.843 162.273H313.461" stroke="black" stroke-width="2" stroke-miterlimit="10"/>
<path d="M297.781 146.379H319.849" stroke="black" stroke-width="2" stroke-miterlimit="10"/>
<path d="M300.578 146.38V145.355C300.578 141.11 304.338 137.664 308.971 137.664C313.604 137.664 317.364 141.11 317.364 145.355V146.38" stroke="black" stroke-width="2" stroke-miterlimit="10"/>
<path d="M300.578 149.199V150.225C300.578 154.47 304.338 157.916 308.971 157.916C313.604 157.916 317.364 154.47 317.364 150.225V149.199" stroke="black" stroke-width="2" stroke-miterlimit="10"/>
<path d="M308.977 146.379V135.355" stroke="black" stroke-width="2" stroke-miterlimit="10"/>
<path d="M285.335 250.484L290.491 266.656H290.696L295.882 250.484H300.745L293.421 271.695H287.766L280.413 250.484H285.335ZM303.009 271.695H298.263L305.616 250.484H311.271L318.595 271.695H313.878L312.296 266.803H304.62L303.009 271.695ZM305.734 263.375H311.183L308.517 255.26H308.37L305.734 263.375ZM331.113 256.549C330.937 254.879 329.589 253.883 327.451 253.883C325.224 253.883 323.994 254.908 323.964 256.314C323.935 257.838 325.546 258.541 327.363 258.951L329.267 259.42C332.9 260.24 335.625 262.086 335.625 265.631C335.625 269.527 332.578 271.988 327.421 271.988C322.295 271.988 319.013 269.615 318.896 265.074H323.173C323.32 267.213 325.019 268.297 327.363 268.297C329.677 268.297 331.171 267.213 331.171 265.631C331.171 264.195 329.853 263.521 327.539 262.936L325.224 262.379C321.65 261.5 319.453 259.713 319.453 256.607C319.453 252.74 322.851 250.191 327.48 250.191C332.168 250.191 335.273 252.799 335.332 256.549H331.113Z" fill="black"/>
<g clip-path="url(#clip0_127_1205)">
<rect x="388.773" y="217.504" width="84" height="84" rx="42" fill="#6E62FD"/>
<rect x="389.141" y="218" width="84" height="84" rx="42" fill="#6E62FD"/>
<path d="M420.924 248.41L413.797 251.693L430.428 259.664L448.484 252.162L440.881 248.41" stroke="white" stroke-width="2" stroke-linecap="round" stroke-linejoin="round"/>
<path d="M448.484 252.164L452.807 259.081L434.941 267.873L430.427 259.667L426.388 267.404L409.758 258.495L413.797 251.695" stroke="white" stroke-width="2" stroke-linecap="round" stroke-linejoin="round"/>
<path d="M412.516 259.977V276.548L430.472 285.532L450.153 276.3V260.385" stroke="white" stroke-width="2" stroke-linecap="round" stroke-linejoin="round"/>
<path d="M430.43 259.668V284.533" stroke="white" stroke-width="2" stroke-linecap="round" stroke-linejoin="round"/>
<path d="M412.656 276.875V260.875L426.406 267.875L430.531 260.875L435.156 267.875L450.156 260.875V275.875L430.531 285.375L412.656 276.875Z" fill="white"/>
<path d="M439.437 242.801L431.226 250.904L423.016 242.801" stroke="white" stroke-width="2" stroke-linecap="round" stroke-linejoin="round"/>
<path d="M431.227 250.433V232.469" stroke="white" stroke-width="2" stroke-linecap="round" stroke-linejoin="round"/>
</g>
<rect x="143.141" y="121.504" width="84" height="84" rx="42" fill="#6E62FD"/>
<rect x="164.906" y="147.562" width="16.7521" height="16.7521" rx="2" fill="white"/>
<rect x="192.955" y="144.097" width="14.7521" height="14.7521" rx="1" transform="rotate(27.2435 192.955 144.097)" stroke="white" stroke-width="2"/>
<rect x="185.859" y="168.504" width="16.7521" height="16.7521" rx="2" fill="white"/>
<rect x="164.906" y="168.504" width="16.7521" height="16.7521" rx="2" fill="white"/>
<rect x="209.141" y="295" width="84" height="84" rx="42" fill="#6E62FD"/>
<rect x="239.367" y="318.219" width="30.3839" height="30.3839" rx="2" fill="white"/>
<rect x="233.523" y="326.395" width="28.3839" height="28.3839" rx="1" stroke="white" stroke-width="2"/>
<path d="M248.312 333.41H260.812" stroke="#6E62FD" stroke-width="3" stroke-miterlimit="10"/>
<path d="M254.562 339.66V327.16" stroke="#6E62FD" stroke-width="3" stroke-miterlimit="10"/>
<defs>
<filter id="filter0_d_127_1205" x="139.773" y="48" width="337" height="337" filterUnits="userSpaceOnUse" color-interpolation-filters="sRGB">
<feFlood flood-opacity="0" result="BackgroundImageFix"/>
<feColorMatrix in="SourceAlpha" type="matrix" values="0 0 0 0 0 0 0 0 0 0 0 0 0 0 0 0 0 0 127 0" result="hardAlpha"/>
<feOffset dy="4"/>
<feGaussianBlur stdDeviation="18"/>
<feComposite in2="hardAlpha" operator="out"/>
<feColorMatrix type="matrix" values="0 0 0 0 0.318368 0 0 0 0 0.352892 0 0 0 0 0.441667 0 0 0 0.12 0"/>
<feBlend mode="normal" in2="BackgroundImageFix" result="effect1_dropShadow_127_1205"/>
<feBlend mode="normal" in="SourceGraphic" in2="effect1_dropShadow_127_1205" result="shape"/>
</filter>
<linearGradient id="paint0_linear_127_1205" x1="708.606" y1="221.006" x2="633.498" y2="220.322" gradientUnits="userSpaceOnUse">
<stop stop-color="#4769E9"/>
<stop offset="1" stop-color="#3BA6F7"/>
</linearGradient>
<clipPath id="clip0_127_1205">
<rect x="388.773" y="217.504" width="84" height="84" rx="42" fill="white"/>
</clipPath>
</defs>
</svg>
