<svg width="1302" height="839" viewBox="0 0 1302 839" fill="none" xmlns="http://www.w3.org/2000/svg">
<circle cx="192.205" cy="487.006" r="84.002" stroke="#DADDE6" stroke-width="6"/>
<rect x="73.0312" y="411" width="84" height="84" rx="42" fill="#6E62FD"/>
<rect x="100.5" y="428.574" width="27.25" height="42.75" rx="3" stroke="white" stroke-width="2"/>
<mask id="path-4-inside-1_127_1572" fill="white">
<rect x="104.625" y="435.699" width="19.375" height="27.793" rx="1"/>
</mask>
<rect x="104.625" y="435.699" width="19.375" height="27.793" rx="1" stroke="white" stroke-width="4" mask="url(#path-4-inside-1_127_1572)"/>
<path d="M114.658 467.729L111.309 463.745C111.309 463.745 109.774 461.931 107.821 463.466C105.867 465.001 108.306 468.836 108.306 468.836L114.379 478.054C114.379 478.054 117.449 483.699 124.287 483.839C131.125 483.978 134.195 479.931 134.893 477.001C135.591 474.07 136.637 465.349 135.242 463.395C133.846 461.441 131.113 461.2 131.113 461.2C131.113 461.2 129.939 458.371 125.892 458.929C125.892 458.929 124.357 456.112 120.938 457.311V448.382C120.938 448.382 121.147 445.141 118.147 445.141C115.147 445.141 115.286 449.023 115.286 449.023L114.658 467.729Z" fill="white" stroke="#6E62FD" stroke-width="2" stroke-linecap="round" stroke-linejoin="round"/>
<path d="M120.945 457.312V464.488" stroke="#6E62FD" stroke-width="2" stroke-linecap="round" stroke-linejoin="round"/>
<path d="M125.961 459V464.488" stroke="#6E62FD" stroke-width="2" stroke-linecap="round" stroke-linejoin="round"/>
<path d="M131.125 461.234V465.606" stroke="#6E62FD" stroke-width="2" stroke-linecap="round" stroke-linejoin="round"/>
<rect x="111.312" y="431.824" width="6" height="2" rx="1" fill="white"/>
<path d="M1.40625 434.281V431.859H12.9883V434.281H8.65234V446H5.74219V434.281H1.40625ZM13.0328 446V435.395H15.8258V437.23H15.943C16.3336 435.922 17.3102 435.238 18.5016 435.238C18.7945 435.238 19.1656 435.277 19.4195 435.336V437.914C19.1461 437.836 18.5992 437.758 18.1891 437.758C16.8805 437.758 15.9234 438.676 15.9234 439.965V446H13.0328ZM19.425 443.031C19.425 440.668 21.3391 439.887 23.3703 439.77C24.132 439.721 25.5578 439.652 26.007 439.633V438.773C25.9875 437.895 25.382 437.367 24.3078 437.367C23.3312 437.367 22.7062 437.816 22.55 438.539H19.7961C19.9719 436.703 21.5734 435.258 24.3859 435.258C26.6906 435.258 28.8781 436.293 28.8781 438.852V446H26.1437V444.535H26.0656C25.5383 445.512 24.5422 446.195 22.9602 446.195C20.9289 446.195 19.425 445.141 19.425 443.031ZM22.1984 442.953C22.1984 443.773 22.8625 444.203 23.7805 444.203C25.0891 444.203 26.0266 443.324 26.007 442.211V441.43C25.5676 441.449 24.3371 441.518 23.8391 441.566C22.843 441.664 22.1984 442.133 22.1984 442.953ZM33.3758 439.867V446H30.4852V435.395H33.2391V437.25H33.3563C33.8445 436.02 34.9773 435.258 36.5398 435.258C38.7469 435.258 40.2117 436.762 40.1922 439.242V446H37.3211V439.75C37.3211 438.441 36.5984 437.66 35.407 437.66C34.1961 437.66 33.3758 438.461 33.3758 439.867ZM47.893 438.539C47.7758 437.797 47.1117 437.309 46.1547 437.309C45.2172 437.309 44.4945 437.758 44.5141 438.402C44.4945 438.871 44.8852 439.242 45.8812 439.457L47.7758 439.848C49.8266 440.277 50.8227 441.195 50.8422 442.719C50.8227 444.809 48.9477 446.215 46.1352 446.215C43.2641 446.215 41.5844 444.926 41.35 442.855H44.2602C44.3969 443.695 45.0805 444.125 46.1352 444.125C47.1898 444.125 47.893 443.695 47.893 443.012C47.893 442.465 47.4437 442.133 46.4477 441.918L44.6898 441.566C42.6781 441.176 41.6234 440.121 41.643 438.559C41.6234 436.527 43.3812 435.258 46.1156 435.258C48.7914 435.258 50.4516 436.527 50.6078 438.539H47.893ZM53.7188 446.176C52.8008 446.176 52.0586 445.434 52.0781 444.535C52.0586 443.637 52.8008 442.914 53.7188 442.914C54.5781 442.914 55.3398 443.637 55.3398 444.535C55.3398 445.434 54.5781 446.176 53.7188 446.176ZM19.0484 466.93C19.0484 471.539 16.1773 474.195 12.4469 474.195C8.67734 474.195 5.82578 471.52 5.82578 466.93C5.82578 462.32 8.67734 459.664 12.4469 459.664C16.1773 459.664 19.0484 462.32 19.0484 466.93ZM16.0602 466.93C16.0602 463.902 14.6344 462.262 12.4469 462.262C10.2594 462.262 8.81406 463.902 8.81406 466.93C8.81406 469.957 10.2594 471.598 12.4469 471.598C14.6344 471.598 16.0602 469.957 16.0602 466.93ZM20.4992 474V463.395H23.2922V465.23H23.4094C23.8 463.922 24.7766 463.238 25.968 463.238C26.2609 463.238 26.632 463.277 26.8859 463.336V465.914C26.6125 465.836 26.0656 465.758 25.6555 465.758C24.3469 465.758 23.3898 466.676 23.3898 467.965V474H20.4992ZM31.2664 474.176C28.8445 474.176 26.95 472.242 26.95 468.707C26.95 465.074 28.9227 463.258 31.2664 463.258C33.0438 463.258 33.8836 464.312 34.2742 465.172H34.3719V459.859H37.2625V474H34.4109V472.301H34.2742C33.8641 473.18 32.9852 474.176 31.2664 474.176ZM32.1648 471.871C33.6102 471.871 34.4305 470.602 34.4305 468.688C34.4305 466.773 33.6102 465.562 32.1648 465.562C30.7 465.562 29.9188 466.832 29.9188 468.688C29.9188 470.562 30.7 471.871 32.1648 471.871ZM43.7914 474.215C40.5492 474.215 38.557 472.105 38.557 468.746C38.557 465.465 40.5687 463.258 43.6742 463.258C46.4672 463.258 48.6547 465.016 48.6547 468.629V469.449H41.4086C41.4086 471.051 42.3656 472.047 43.85 472.047C44.8266 472.047 45.5297 471.617 45.8227 470.973H48.5766C48.1664 472.926 46.4086 474.215 43.7914 474.215ZM41.4086 467.633H45.9203C45.9203 466.344 45.0219 465.426 43.7328 465.426C42.4047 465.426 41.4574 466.412 41.4086 467.633ZM49.8711 474V463.395H52.6641V465.23H52.7812C53.1719 463.922 54.1484 463.238 55.3398 463.238C55.6328 463.238 56.0039 463.277 56.2578 463.336V465.914C55.9844 465.836 55.4375 465.758 55.0273 465.758C53.7188 465.758 52.7617 466.676 52.7617 467.965V474H49.8711Z" fill="black"/>
<circle cx="550.393" cy="683.514" r="84.002" stroke="#DADDE6" stroke-width="6"/>
<rect x="466.102" y="711.516" width="84" height="84" rx="42" fill="#6E62FD"/>
<path d="M522.144 738.148C522.866 738.148 523.487 738.752 523.487 739.542V773.106C523.487 773.896 522.866 774.5 522.144 774.5H493.843C493.122 774.5 492.5 773.896 492.5 773.106V739.542C492.5 738.752 493.122 738.148 493.843 738.148H499.212H516.355H522.144Z" fill="white" stroke="white" stroke-width="2"/>
<path d="M501.156 756.353L506.237 761.556L515.418 751.676" stroke="#6E62FD" stroke-width="3" stroke-linecap="round" stroke-linejoin="round"/>
<path d="M515.956 732.5H500.031V740.635H515.956V732.5Z" fill="#6E62FD" stroke="white" stroke-width="2" stroke-linecap="square" stroke-linejoin="round"/>
<path d="M446.328 816.871V831.012H443.398V816.871H446.328ZM450.943 824.879V831.012H448.052V820.406H450.806V822.262H450.923C451.411 821.031 452.544 820.27 454.107 820.27C456.314 820.27 457.779 821.773 457.759 824.254V831.012H454.888V824.762C454.888 823.453 454.165 822.672 452.974 822.672C451.763 822.672 450.943 823.473 450.943 824.879ZM458.897 828.043C458.897 825.68 460.811 824.898 462.843 824.781C463.604 824.732 465.03 824.664 465.479 824.645V823.785C465.46 822.906 464.854 822.379 463.78 822.379C462.804 822.379 462.179 822.828 462.022 823.551H459.268C459.444 821.715 461.046 820.27 463.858 820.27C466.163 820.27 468.35 821.305 468.35 823.863V831.012H465.616V829.547H465.538C465.011 830.523 464.014 831.207 462.432 831.207C460.401 831.207 458.897 830.152 458.897 828.043ZM461.671 827.965C461.671 828.785 462.335 829.215 463.253 829.215C464.561 829.215 465.499 828.336 465.479 827.223V826.441C465.04 826.461 463.809 826.529 463.311 826.578C462.315 826.676 461.671 827.145 461.671 827.965ZM474.723 831.227C471.481 831.227 469.528 828.98 469.528 825.738C469.528 822.496 471.5 820.27 474.723 820.27C477.457 820.27 479.313 821.871 479.43 824.293H476.715C476.539 823.238 475.856 822.516 474.762 822.516C473.375 822.516 472.457 823.688 472.457 825.699C472.457 827.75 473.356 828.922 474.762 828.922C475.778 828.922 476.539 828.297 476.715 827.164H479.43C479.293 829.566 477.536 831.227 474.723 831.227ZM486.213 820.406V822.574H484.221V827.75C484.221 828.59 484.631 828.805 485.217 828.824C485.51 828.824 486.018 828.805 486.369 828.766V831.051C486.057 831.109 485.549 831.148 484.826 831.148C482.736 831.148 481.311 830.211 481.33 828.16V822.574H479.865V820.406H481.33V817.867H484.221V820.406H486.213ZM487.429 831.012V820.406H490.32V831.012H487.429ZM488.875 819.02C487.996 819.02 487.293 818.355 487.293 817.555C487.293 816.734 487.996 816.07 488.875 816.07C489.734 816.07 490.437 816.734 490.437 817.555C490.437 818.355 489.734 819.02 488.875 819.02ZM501.81 820.406L498.079 831.012H494.837L491.126 820.406H494.173L496.4 828.023H496.517L498.743 820.406H501.81ZM507.069 831.227C503.827 831.227 501.835 829.117 501.835 825.758C501.835 822.477 503.846 820.27 506.952 820.27C509.745 820.27 511.932 822.027 511.932 825.641V826.461H504.686C504.686 828.062 505.643 829.059 507.128 829.059C508.104 829.059 508.807 828.629 509.1 827.984H511.854C511.444 829.938 509.686 831.227 507.069 831.227ZM504.686 824.645H509.198C509.198 823.355 508.3 822.438 507.011 822.438C505.682 822.438 504.735 823.424 504.686 824.645ZM526.67 821.793C526.436 820.23 525.225 819.273 523.584 819.273C521.377 819.273 519.932 820.973 519.932 823.941C519.932 826.988 521.396 828.609 523.564 828.609C525.186 828.609 526.377 827.711 526.67 826.188L529.639 826.207C529.307 828.824 527.119 831.207 523.525 831.207C519.736 831.207 516.943 828.551 516.943 823.941C516.943 819.332 519.795 816.676 523.525 816.676C526.787 816.676 529.248 818.551 529.639 821.793H526.67ZM533.921 824.879V831.012H531.031V816.871H533.843V822.262H533.961C534.449 821.031 535.523 820.27 537.125 820.27C539.332 820.27 540.796 821.754 540.796 824.254V831.012H537.906V824.762C537.906 823.453 537.203 822.672 535.992 822.672C534.781 822.672 533.921 823.473 533.921 824.879ZM547.228 831.227C543.986 831.227 541.993 829.117 541.993 825.758C541.993 822.477 544.005 820.27 547.111 820.27C549.904 820.27 552.091 822.027 552.091 825.641V826.461H544.845C544.845 828.062 545.802 829.059 547.286 829.059C548.263 829.059 548.966 828.629 549.259 827.984H552.013C551.603 829.938 549.845 831.227 547.228 831.227ZM544.845 824.645H549.357C549.357 823.355 548.458 822.438 547.169 822.438C545.841 822.438 544.894 823.424 544.845 824.645ZM558.073 831.227C554.831 831.227 552.878 828.98 552.878 825.738C552.878 822.496 554.85 820.27 558.073 820.27C560.807 820.27 562.663 821.871 562.78 824.293H560.065C559.889 823.238 559.206 822.516 558.112 822.516C556.725 822.516 555.807 823.688 555.807 825.699C555.807 827.75 556.706 828.922 558.112 828.922C559.128 828.922 559.889 828.297 560.065 827.164H562.78C562.643 829.566 560.886 831.227 558.073 831.227ZM563.977 831.012V816.871H566.868V824.469H567.024L570.461 820.406H573.782L569.836 824.996L573.996 831.012H570.598L567.688 826.695L566.868 827.613V831.012H563.977Z" fill="black"/>
<rect x="584.969" y="641.516" width="84" height="84" rx="42" fill="#6E62FD"/>
<g clip-path="url(#clip0_127_1572)">
<path d="M617.969 683.337C617.969 686.097 615.729 688.337 612.969 688.337C610.209 688.337 607.969 686.097 607.969 683.337C607.969 680.577 610.209 678.337 612.969 678.337V663.438L645.969 689.337V703.597" stroke="white" stroke-width="2" stroke-linecap="round" stroke-linejoin="round"/>
<path d="M636.969 690.336H623.969V703.336H636.969V690.336Z" fill="white" stroke="white" stroke-width="2" stroke-linecap="round" stroke-linejoin="round"/>
<path d="M617.969 694.336H608.969V703.336H617.969V694.336Z" fill="white" stroke="white" stroke-width="2" stroke-linecap="round" stroke-linejoin="round"/>
</g>
<path d="M694.336 666.418C694.219 665.305 693.32 664.641 691.895 664.641C690.41 664.641 689.59 665.324 689.57 666.262C689.551 667.277 690.625 667.746 691.836 668.02L693.105 668.332C695.527 668.879 697.344 670.109 697.344 672.473C697.344 675.07 695.312 676.711 691.875 676.711C688.457 676.711 686.27 675.129 686.191 672.102H689.043C689.141 673.527 690.273 674.25 691.836 674.25C693.379 674.25 694.375 673.527 694.375 672.473C694.375 671.516 693.496 671.066 691.953 670.676L690.41 670.305C688.027 669.719 686.562 668.527 686.562 666.457C686.562 663.879 688.828 662.18 691.914 662.18C695.039 662.18 697.109 663.918 697.148 666.418H694.336ZM703.365 676.73C700.123 676.73 698.17 674.484 698.17 671.242C698.17 668 700.142 665.773 703.365 665.773C706.099 665.773 707.955 667.375 708.072 669.797H705.357C705.181 668.742 704.498 668.02 703.404 668.02C702.017 668.02 701.099 669.191 701.099 671.203C701.099 673.254 701.998 674.426 703.404 674.426C704.42 674.426 705.181 673.801 705.357 672.668H708.072C707.935 675.07 706.177 676.73 703.365 676.73ZM712.159 670.383V676.516H709.269V662.375H712.081V667.766H712.198C712.687 666.535 713.761 665.773 715.362 665.773C717.57 665.773 719.034 667.258 719.034 669.758V676.516H716.144V670.266C716.144 668.957 715.441 668.176 714.23 668.176C713.019 668.176 712.159 668.977 712.159 670.383ZM725.466 676.73C722.223 676.73 720.231 674.621 720.231 671.262C720.231 667.98 722.243 665.773 725.348 665.773C728.141 665.773 730.329 667.531 730.329 671.145V671.965H723.083C723.083 673.566 724.04 674.562 725.524 674.562C726.501 674.562 727.204 674.133 727.497 673.488H730.251C729.841 675.441 728.083 676.73 725.466 676.73ZM723.083 670.148H727.595C727.595 668.859 726.696 667.941 725.407 667.941C724.079 667.941 723.132 668.928 723.083 670.148ZM735.452 676.691C733.03 676.691 731.135 674.758 731.135 671.223C731.135 667.59 733.108 665.773 735.452 665.773C737.229 665.773 738.069 666.828 738.459 667.688H738.557V662.375H741.448V676.516H738.596V674.816H738.459C738.049 675.695 737.17 676.691 735.452 676.691ZM736.35 674.387C737.795 674.387 738.616 673.117 738.616 671.203C738.616 669.289 737.795 668.078 736.35 668.078C734.885 668.078 734.104 669.348 734.104 671.203C734.104 673.078 734.885 674.387 736.35 674.387ZM744.871 676.691C743.953 676.691 743.211 675.949 743.23 675.051C743.211 674.152 743.953 673.43 744.871 673.43C745.73 673.43 746.492 674.152 746.492 675.051C746.492 675.949 745.73 676.691 744.871 676.691ZM689.59 690.375V704.516H686.66V690.375H689.59ZM694.205 698.383V704.516H691.314V693.91H694.068V695.766H694.185C694.673 694.535 695.806 693.773 697.369 693.773C699.576 693.773 701.041 695.277 701.021 697.758V704.516H698.15V698.266C698.15 696.957 697.427 696.176 696.236 696.176C695.025 696.176 694.205 696.977 694.205 698.383ZM702.159 701.547C702.159 699.184 704.073 698.402 706.105 698.285C706.866 698.236 708.292 698.168 708.741 698.148V697.289C708.722 696.41 708.116 695.883 707.042 695.883C706.066 695.883 705.441 696.332 705.284 697.055H702.53C702.706 695.219 704.308 693.773 707.12 693.773C709.425 693.773 711.612 694.809 711.612 697.367V704.516H708.878V703.051H708.8C708.273 704.027 707.277 704.711 705.695 704.711C703.663 704.711 702.159 703.656 702.159 701.547ZM704.933 701.469C704.933 702.289 705.597 702.719 706.515 702.719C707.823 702.719 708.761 701.84 708.741 700.727V699.945C708.302 699.965 707.071 700.033 706.573 700.082C705.577 700.18 704.933 700.648 704.933 701.469ZM717.985 704.73C714.743 704.73 712.79 702.484 712.79 699.242C712.79 696 714.763 693.773 717.985 693.773C720.72 693.773 722.575 695.375 722.692 697.797H719.977C719.802 696.742 719.118 696.02 718.024 696.02C716.638 696.02 715.72 697.191 715.72 699.203C715.72 701.254 716.618 702.426 718.024 702.426C719.04 702.426 719.802 701.801 719.977 700.668H722.692C722.555 703.07 720.798 704.73 717.985 704.73ZM729.475 693.91V696.078H727.483V701.254C727.483 702.094 727.893 702.309 728.479 702.328C728.772 702.328 729.28 702.309 729.631 702.27V704.555C729.319 704.613 728.811 704.652 728.088 704.652C725.998 704.652 724.573 703.715 724.592 701.664V696.078H723.127V693.91H724.592V691.371H727.483V693.91H729.475ZM730.691 704.516V693.91H733.582V704.516H730.691ZM732.137 692.523C731.258 692.523 730.555 691.859 730.555 691.059C730.555 690.238 731.258 689.574 732.137 689.574C732.996 689.574 733.699 690.238 733.699 691.059C733.699 691.859 732.996 692.523 732.137 692.523ZM745.072 693.91L741.341 704.516H738.099L734.388 693.91H737.435L739.662 701.527H739.779L742.005 693.91H745.072ZM750.331 704.73C747.089 704.73 745.097 702.621 745.097 699.262C745.097 695.98 747.109 693.773 750.214 693.773C753.007 693.773 755.195 695.531 755.195 699.145V699.965H747.948C747.948 701.566 748.905 702.562 750.39 702.562C751.366 702.562 752.07 702.133 752.362 701.488H755.116C754.706 703.441 752.948 704.73 750.331 704.73ZM747.948 698.148H752.46C752.46 696.859 751.562 695.941 750.273 695.941C748.945 695.941 747.997 696.928 747.948 698.148ZM763.409 690.375V704.516H760.479V690.375H763.409ZM768.023 698.383V704.516H765.133V693.91H767.887V695.766H768.004C768.492 694.535 769.625 693.773 771.188 693.773C773.395 693.773 774.859 695.277 774.84 697.758V704.516H771.969V698.266C771.969 696.957 771.246 696.176 770.055 696.176C768.844 696.176 768.023 696.977 768.023 698.383ZM785.939 693.91L782.209 704.516H778.966L775.255 693.91H778.302L780.529 701.527H780.646L782.873 693.91H785.939ZM787.78 704.691C786.863 704.691 786.12 703.949 786.14 703.051C786.12 702.152 786.863 701.43 787.78 701.43C788.64 701.43 789.402 702.152 789.402 703.051C789.402 703.949 788.64 704.691 787.78 704.691Z" fill="black"/>
<path d="M444.391 175.434H293.674C220.064 175.434 160.391 235.107 160.391 308.717V308.717C160.391 382.327 220.064 442 293.674 442H494.107C540.656 442 578.391 479.735 578.391 526.283V526.283C578.391 572.832 540.656 610.566 494.107 610.566H484.391" stroke="#DADDE6" stroke-width="6"/>
<rect x="422.102" y="555.012" width="120" height="119.008" rx="59.5041" fill="url(#paint0_linear_127_1572)"/>
<path d="M438.983 590.203V610H434.881V590.203H438.983ZM445.444 601.414V610H441.397V595.152H445.252V597.75H445.416C446.1 596.027 447.686 594.961 449.873 594.961C452.963 594.961 455.014 597.066 454.987 600.539V610H450.967V601.25C450.967 599.418 449.955 598.324 448.287 598.324C446.592 598.324 445.444 599.445 445.444 601.414ZM456.58 605.844C456.58 602.535 459.26 601.441 462.104 601.277C463.17 601.209 465.166 601.113 465.795 601.086V599.883C465.768 598.652 464.92 597.914 463.416 597.914C462.049 597.914 461.174 598.543 460.955 599.555H457.1C457.346 596.984 459.588 594.961 463.526 594.961C466.752 594.961 469.815 596.41 469.815 599.992V610H465.987V607.949H465.877C465.139 609.316 463.744 610.273 461.53 610.273C458.686 610.273 456.58 608.797 456.58 605.844ZM460.463 605.734C460.463 606.883 461.393 607.484 462.678 607.484C464.51 607.484 465.822 606.254 465.795 604.695V603.602C465.18 603.629 463.457 603.725 462.76 603.793C461.365 603.93 460.463 604.586 460.463 605.734ZM478.736 610.301C474.197 610.301 471.463 607.156 471.463 602.617C471.463 598.078 474.225 594.961 478.736 594.961C482.565 594.961 485.162 597.203 485.326 600.594H481.525C481.279 599.117 480.322 598.105 478.791 598.105C476.85 598.105 475.565 599.746 475.565 602.562C475.565 605.434 476.822 607.074 478.791 607.074C480.213 607.074 481.279 606.199 481.525 604.613H485.326C485.135 607.977 482.674 610.301 478.736 610.301ZM494.822 595.152V598.188H492.033V605.434C492.033 606.609 492.607 606.91 493.428 606.938C493.838 606.938 494.549 606.91 495.041 606.855V610.055C494.603 610.137 493.892 610.191 492.881 610.191C489.955 610.191 487.959 608.879 487.986 606.008V598.188H485.935V595.152H487.986V591.598H492.033V595.152H494.822ZM496.525 610V595.152H500.572V610H496.525ZM498.549 593.211C497.318 593.211 496.334 592.281 496.334 591.16C496.334 590.012 497.318 589.082 498.549 589.082C499.752 589.082 500.736 590.012 500.736 591.16C500.736 592.281 499.752 593.211 498.549 593.211ZM516.658 595.152L511.435 610H506.896L501.701 595.152H505.966L509.084 605.816H509.248L512.365 595.152H516.658ZM524.021 610.301C519.482 610.301 516.693 607.348 516.693 602.645C516.693 598.051 519.509 594.961 523.857 594.961C527.767 594.961 530.83 597.422 530.83 602.48V603.629H520.685C520.685 605.871 522.025 607.266 524.103 607.266C525.47 607.266 526.455 606.664 526.865 605.762H530.72C530.146 608.496 527.685 610.301 524.021 610.301ZM520.685 601.086H527.001C527.001 599.281 525.744 597.996 523.939 597.996C522.08 597.996 520.753 599.377 520.685 601.086ZM466.356 626.203V646H462.254V626.203H466.356ZM472.816 637.414V646H468.77V631.152H472.625V633.75H472.789C473.473 632.027 475.059 630.961 477.246 630.961C480.336 630.961 482.387 633.066 482.359 636.539V646H478.34V637.25C478.34 635.418 477.328 634.324 475.66 634.324C473.965 634.324 472.816 635.445 472.816 637.414ZM497.898 631.152L492.676 646H488.137L482.941 631.152H487.207L490.324 641.816H490.488L493.605 631.152H497.898ZM500.476 646.246C499.191 646.246 498.152 645.207 498.179 643.949C498.152 642.691 499.191 641.68 500.476 641.68C501.679 641.68 502.746 642.691 502.746 643.949C502.746 645.207 501.679 646.246 500.476 646.246Z" fill="white"/>
<rect x="189.203" y="372" width="120" height="119.008" rx="59.5041" fill="url(#paint1_linear_127_1572)"/>
<path d="M222.915 443V421.789H227.31V439.367H236.451V443H222.915ZM245.453 443.322C240.648 443.322 237.66 440.012 237.66 435.09C237.66 430.168 240.648 426.887 245.453 426.887C250.258 426.887 253.275 430.168 253.275 435.09C253.275 440.012 250.258 443.322 245.453 443.322ZM245.482 439.953C247.709 439.953 248.851 437.873 248.851 435.09C248.851 432.277 247.709 430.197 245.482 430.197C243.226 430.197 242.054 432.277 242.054 435.09C242.054 437.873 243.226 439.953 245.482 439.953ZM262.248 443.322C257.385 443.322 254.455 439.953 254.455 435.09C254.455 430.227 257.414 426.887 262.248 426.887C266.35 426.887 269.133 429.289 269.309 432.922H265.237C264.973 431.34 263.947 430.256 262.307 430.256C260.227 430.256 258.85 432.014 258.85 435.031C258.85 438.107 260.197 439.865 262.307 439.865C263.83 439.865 264.973 438.928 265.237 437.229H269.309C269.104 440.832 266.467 443.322 262.248 443.322ZM273.653 443.264C272.276 443.264 271.163 442.15 271.192 440.803C271.163 439.455 272.276 438.371 273.653 438.371C274.942 438.371 276.085 439.455 276.085 440.803C276.085 442.15 274.942 443.264 273.653 443.264Z" fill="white"/>
<circle cx="620.391" cy="175" r="154" stroke="#DADDE6" stroke-width="6"/>
<rect x="500.391" width="84" height="84" rx="42" fill="#5CD2BD"/>
<mask id="path-29-inside-2_127_1572" fill="white">
<rect x="525.992" y="21.9414" width="34.0078" height="41.5454" rx="2"/>
</mask>
<rect x="525.992" y="21.9414" width="34.0078" height="41.5454" rx="2" fill="white" stroke="white" stroke-width="6" mask="url(#path-29-inside-2_127_1572)"/>
<path d="M532.602 33.1515L535.016 35.2508L539.214 31.3672" stroke="#5CD2BD" stroke-width="3"/>
<path d="M532.602 43.0305L535.016 45.1297L539.214 41.2461" stroke="#5CD2BD" stroke-width="3"/>
<path d="M532.602 53.0109L535.016 55.1102L539.214 51.2266" stroke="#5CD2BD" stroke-width="3"/>
<path d="M544.258 31.2617H553.075" stroke="#5CD2BD" stroke-width="3"/>
<path d="M544.258 41.1406H553.075" stroke="#5CD2BD" stroke-width="3"/>
<path d="M544.258 51.1211H553.075" stroke="#5CD2BD" stroke-width="3"/>
<rect x="500.391" y="263.504" width="84" height="84" rx="42" fill="#5CD2BD"/>
<g clip-path="url(#clip1_127_1572)">
<path d="M559.016 298.504H525.766V322.129H559.016V298.504Z" fill="white" stroke="white" stroke-width="2" stroke-linecap="round" stroke-linejoin="round"/>
<path d="M542.391 288.879H529.379L525.766 298.504" stroke="white" stroke-width="2" stroke-linecap="round" stroke-linejoin="round"/>
<path d="M542.391 288.879H555.402L559.016 298.504" stroke="white" stroke-width="2" stroke-linecap="round" stroke-linejoin="round"/>
<path d="M547.641 311.629L542.391 316.879L537.141 311.629" stroke="#5CD2BD" stroke-width="3" stroke-linecap="round" stroke-linejoin="round"/>
<path d="M542.391 303.754V316.004" stroke="#5CD2BD" stroke-width="3" stroke-linecap="round" stroke-linejoin="round"/>
</g>
<rect x="652.969" width="84" height="84" rx="42" fill="#5CD2BD"/>
<g clip-path="url(#clip2_127_1572)">
<path d="M703.988 36.0126L695.291 21.1406L686.352 36.4232" stroke="white" stroke-width="3" stroke-linecap="round" stroke-linejoin="round"/>
<path d="M705.931 38.3168L706.22 32.8995C706.243 32.4205 705.7 32.1239 705.307 32.3977L699.798 36.1385C699.405 36.4122 699.486 37.0166 699.948 37.1649L705.169 38.8414C705.538 38.9555 705.908 38.7046 705.931 38.3282V38.3168Z" fill="white"/>
<path d="M700.422 60.3153L717.816 60.4408L708.992 45.0898" stroke="white" stroke-width="3" stroke-linecap="round" stroke-linejoin="round"/>
<path d="M697.381 60.5775L701.747 63.8849C702.128 64.1701 702.683 63.9077 702.683 63.4287V56.8253C702.683 56.3463 702.128 56.0726 701.747 56.3691L697.381 59.6765C697.081 59.9046 697.081 60.3608 697.381 60.5889V60.5775Z" fill="white"/>
<path d="M689.519 59.8935L672.125 60.0189L680.949 44.668" stroke="white" stroke-width="3" stroke-linecap="round" stroke-linejoin="round"/>
<path d="M683.665 41.1113L684.381 46.4944C684.439 46.9734 683.931 47.3041 683.515 47.0646L677.729 43.7572C677.313 43.5177 677.348 42.9133 677.798 42.7308L682.88 40.6551C683.238 40.5068 683.631 40.7349 683.677 41.1113H683.665Z" fill="white"/>
<path d="M695.627 39.1484L690.672 47.3485H697.521L691.827 54.1915" stroke="white" stroke-width="3" stroke-linecap="round" stroke-linejoin="round"/>
</g>
<rect x="652.969" y="263.504" width="84" height="84" rx="42" fill="#5CD2BD"/>
<g clip-path="url(#clip3_127_1572)">
<path d="M698.469 305.504H674.469V319.504H698.469V305.504Z" stroke="white" stroke-width="2" stroke-linecap="round" stroke-linejoin="round"/>
<path d="M703.469 300.504V318.824H715.469" stroke="white" stroke-width="2" stroke-linecap="round" stroke-linejoin="round"/>
<path d="M714.449 305.504H707.489C706.925 305.504 706.469 305.961 706.469 306.524V313.484C706.469 314.047 706.925 314.504 707.489 314.504H714.449C715.012 314.504 715.469 314.047 715.469 313.484V306.524C715.469 305.961 715.012 305.504 714.449 305.504Z" fill="white"/>
<path d="M679.016 305.504V285.504H682.356C688.496 285.504 693.466 290.484 693.466 296.614V305.504" stroke="white" stroke-width="2" stroke-linecap="round" stroke-linejoin="round"/>
<path d="M698.469 315.926H702.469" stroke="white" stroke-width="2" stroke-linecap="round" stroke-linejoin="round"/>
<path d="M685.969 325.504C689.006 325.504 691.469 323.041 691.469 320.004C691.469 316.966 689.006 314.504 685.969 314.504C682.931 314.504 680.469 316.966 680.469 320.004C680.469 323.041 682.931 325.504 685.969 325.504Z" fill="#5CD2BD" stroke="white" stroke-width="2" stroke-linecap="round" stroke-linejoin="round"/>
</g>
<rect x="728.969" y="133" width="84" height="84" rx="42" fill="#5CD2BD"/>
<path d="M751.148 198.974V166.199" stroke="white" stroke-width="2" stroke-miterlimit="10"/>
<path d="M790.828 198.974V166.199" stroke="white" stroke-width="2" stroke-miterlimit="10"/>
<path d="M747 169.235L771.421 151.027L795 169.235" stroke="white" stroke-width="2" stroke-miterlimit="10"/>
<path d="M777.78 173H764.219V184.407H777.78V173Z" fill="white" stroke="#5CD2BD" stroke-width="2" stroke-miterlimit="10"/>
<path d="M770.979 184.406H758.461V195.814H770.979V184.406Z" fill="white" stroke="#5CD2BD" stroke-width="2" stroke-miterlimit="10"/>
<path d="M783.495 184.406H770.977V195.814H783.495V184.406Z" fill="white" stroke="#5CD2BD" stroke-width="2" stroke-miterlimit="10"/>
<circle cx="770.966" cy="157.099" r="11.0986" fill="white"/>
<path d="M775.25 152.848L766.75 161.348" stroke="#5CD2BD" stroke-width="2" stroke-miterlimit="10" stroke-linecap="round"/>
<path d="M766.75 152.848L775.25 161.348" stroke="#5CD2BD" stroke-width="2" stroke-miterlimit="10" stroke-linecap="round"/>
<rect x="413.391" y="115.496" width="120" height="119.008" rx="59.5041" fill="url(#paint2_linear_127_1572)"/>
<path d="M456.593 164.789V186H452.199V164.789H456.593ZM463.515 176.801V186H459.179V170.092H463.31V172.875H463.486C464.219 171.029 465.918 169.887 468.262 169.887C471.572 169.887 473.769 172.143 473.74 175.863V186H469.433V176.625C469.433 174.662 468.349 173.49 466.562 173.49C464.746 173.49 463.515 174.691 463.515 176.801ZM490.389 170.092L484.793 186H479.93L474.363 170.092H478.934L482.274 181.518H482.449L485.789 170.092H490.389ZM493.151 186.264C491.774 186.264 490.661 185.15 490.69 183.803C490.661 182.455 491.774 181.371 493.151 181.371C494.44 181.371 495.583 182.455 495.583 183.803C495.583 185.15 494.44 186.264 493.151 186.264Z" fill="white"/>
<path d="M412.982 20.8594V35H410.052V20.8594H412.982ZM417.597 28.8672V35H414.706V24.3945H417.46V26.25H417.577C418.066 25.0195 419.198 24.2578 420.761 24.2578C422.968 24.2578 424.433 25.7617 424.413 28.2422V35H421.542V28.75C421.542 27.4414 420.82 26.6602 419.628 26.6602C418.417 26.6602 417.597 27.4609 417.597 28.8672ZM435.513 24.3945L431.782 35H428.54L424.829 24.3945H427.876L430.102 32.0117H430.22L432.446 24.3945H435.513ZM437.354 35.1758C436.436 35.1758 435.694 34.4336 435.713 33.5352C435.694 32.6367 436.436 31.9141 437.354 31.9141C438.213 31.9141 438.975 32.6367 438.975 33.5352C438.975 34.4336 438.213 35.1758 437.354 35.1758ZM444.123 35V20.8594H447.052V26.7188H453.185V20.8594H456.134V35H453.185V29.1406H447.052V35H444.123ZM457.859 35V24.3945H460.749V35H457.859ZM459.304 23.0078C458.425 23.0078 457.722 22.3438 457.722 21.543C457.722 20.7227 458.425 20.0586 459.304 20.0586C460.163 20.0586 460.866 20.7227 460.866 21.543C460.866 22.3438 460.163 23.0078 459.304 23.0078ZM468.45 27.5391C468.333 26.7969 467.669 26.3086 466.712 26.3086C465.774 26.3086 465.052 26.7578 465.071 27.4023C465.052 27.8711 465.442 28.2422 466.438 28.457L468.333 28.8477C470.384 29.2773 471.38 30.1953 471.399 31.7188C471.38 33.8086 469.505 35.2148 466.692 35.2148C463.821 35.2148 462.141 33.9258 461.907 31.8555H464.817C464.954 32.6953 465.638 33.125 466.692 33.125C467.747 33.125 468.45 32.6953 468.45 32.0117C468.45 31.4648 468.001 31.1328 467.005 30.918L465.247 30.5664C463.235 30.1758 462.18 29.1211 462.2 27.5586C462.18 25.5273 463.938 24.2578 466.673 24.2578C469.348 24.2578 471.009 25.5273 471.165 27.5391H468.45ZM478.163 24.3945V26.5625H476.17V31.7383C476.17 32.5781 476.58 32.793 477.166 32.8125C477.459 32.8125 477.967 32.793 478.319 32.7539V35.0391C478.006 35.0977 477.498 35.1367 476.776 35.1367C474.686 35.1367 473.26 34.1992 473.28 32.1484V26.5625H471.815V24.3945H473.28V21.8555H476.17V24.3945H478.163ZM481.078 35.1758C480.16 35.1758 479.418 34.4336 479.438 33.5352C479.418 32.6367 480.16 31.9141 481.078 31.9141C481.938 31.9141 482.699 32.6367 482.699 33.5352C482.699 34.4336 481.938 35.1758 481.078 35.1758ZM436.564 53.7812C436.33 52.2188 435.119 51.2617 433.478 51.2617C431.271 51.2617 429.826 52.9609 429.826 55.9297C429.826 58.9766 431.291 60.5977 433.459 60.5977C435.08 60.5977 436.271 59.6992 436.564 58.1758L439.533 58.1953C439.201 60.8125 437.013 63.1953 433.42 63.1953C429.63 63.1953 426.838 60.5391 426.838 55.9297C426.838 51.3203 429.689 48.6641 433.42 48.6641C436.681 48.6641 439.142 50.5391 439.533 53.7812H436.564ZM443.816 56.8672V63H440.925V48.8594H443.738V54.25H443.855C444.343 53.0195 445.417 52.2578 447.019 52.2578C449.226 52.2578 450.691 53.7422 450.691 56.2422V63H447.8V56.75C447.8 55.4414 447.097 54.6602 445.886 54.6602C444.675 54.6602 443.816 55.4609 443.816 56.8672ZM457.122 63.2148C453.88 63.2148 451.888 61.1055 451.888 57.7461C451.888 54.4648 453.899 52.2578 457.005 52.2578C459.798 52.2578 461.985 54.0156 461.985 57.6289V58.4492H454.739C454.739 60.0508 455.696 61.0469 457.18 61.0469C458.157 61.0469 458.86 60.6172 459.153 59.9727H461.907C461.497 61.9258 459.739 63.2148 457.122 63.2148ZM454.739 56.6328H459.251C459.251 55.3438 458.352 54.4258 457.063 54.4258C455.735 54.4258 454.788 55.4121 454.739 56.6328ZM467.967 63.2148C464.725 63.2148 462.772 60.9688 462.772 57.7266C462.772 54.4844 464.745 52.2578 467.967 52.2578C470.702 52.2578 472.557 53.8594 472.674 56.2812H469.959C469.784 55.2266 469.1 54.5039 468.006 54.5039C466.62 54.5039 465.702 55.6758 465.702 57.6875C465.702 59.7383 466.6 60.9102 468.006 60.9102C469.022 60.9102 469.784 60.2852 469.959 59.1523H472.674C472.538 61.5547 470.78 63.2148 467.967 63.2148ZM473.871 63V48.8594H476.762V56.457H476.918L480.355 52.3945H483.676L479.73 56.9844L483.891 63H480.492L477.582 58.6836L476.762 59.6016V63H473.871Z" fill="black"/>
<path d="M757.59 20.8594V35H754.66V20.8594H757.59ZM762.205 28.8672V35H759.314V24.3945H762.068V26.25H762.185C762.673 25.0195 763.806 24.2578 765.369 24.2578C767.576 24.2578 769.041 25.7617 769.021 28.2422V35H766.15V28.75C766.15 27.4414 765.427 26.6602 764.236 26.6602C763.025 26.6602 762.205 27.4609 762.205 28.8672ZM780.12 24.3945L776.39 35H773.148L769.437 24.3945H772.484L774.71 32.0117H774.827L777.054 24.3945H780.12ZM781.962 35.1758C781.044 35.1758 780.302 34.4336 780.321 33.5352C780.302 32.6367 781.044 31.9141 781.962 31.9141C782.821 31.9141 783.583 32.6367 783.583 33.5352C783.583 34.4336 782.821 35.1758 781.962 35.1758ZM791.094 35H787.93L792.832 20.8594H796.602L801.484 35H798.34L797.285 31.7383H792.168L791.094 35ZM792.91 29.4531H796.543L794.766 24.043H794.668L792.91 29.4531ZM807.349 24.3945V26.5625H805.357V31.7383C805.357 32.5781 805.767 32.793 806.353 32.8125C806.646 32.8125 807.154 32.793 807.505 32.7539V35.0391C807.193 35.0977 806.685 35.1367 805.963 35.1367C803.873 35.1367 802.447 34.1992 802.466 32.1484V26.5625H801.002V24.3945H802.466V21.8555H805.357V24.3945H807.349ZM814.152 24.3945V26.5625H812.159V31.7383C812.159 32.5781 812.57 32.793 813.155 32.8125C813.448 32.8125 813.956 32.793 814.308 32.7539V35.0391C813.995 35.0977 813.487 35.1367 812.765 35.1367C810.675 35.1367 809.249 34.1992 809.269 32.1484V26.5625H807.804V24.3945H809.269V21.8555H812.159V24.3945H814.152ZM815.368 35V24.3945H818.161V26.2305H818.278C818.669 24.9219 819.645 24.2383 820.837 24.2383C821.13 24.2383 821.501 24.2773 821.755 24.3359V26.9141C821.481 26.8359 820.934 26.7578 820.524 26.7578C819.216 26.7578 818.259 27.6758 818.259 28.9648V35H815.368ZM823.049 35.1758C822.131 35.1758 821.389 34.4336 821.409 33.5352C821.389 32.6367 822.131 31.9141 823.049 31.9141C823.909 31.9141 824.67 32.6367 824.67 33.5352C824.67 34.4336 823.909 35.1758 823.049 35.1758ZM764.113 53.7812C763.879 52.2188 762.668 51.2617 761.027 51.2617C758.82 51.2617 757.375 52.9609 757.375 55.9297C757.375 58.9766 758.84 60.5977 761.008 60.5977C762.629 60.5977 763.82 59.6992 764.113 58.1758L767.082 58.1953C766.75 60.8125 764.562 63.1953 760.969 63.1953C757.18 63.1953 754.387 60.5391 754.387 55.9297C754.387 51.3203 757.238 48.6641 760.969 48.6641C764.23 48.6641 766.691 50.5391 767.082 53.7812H764.113ZM773.24 63.2148C770.037 63.2148 768.045 61.0078 768.045 57.7266C768.045 54.4453 770.037 52.2578 773.24 52.2578C776.443 52.2578 778.455 54.4453 778.455 57.7266C778.455 61.0078 776.443 63.2148 773.24 63.2148ZM773.259 60.9688C774.744 60.9688 775.505 59.582 775.505 57.7266C775.505 55.8516 774.744 54.4648 773.259 54.4648C771.755 54.4648 770.974 55.8516 770.974 57.7266C770.974 59.582 771.755 60.9688 773.259 60.9688ZM782.562 56.8672V63H779.671V52.3945H782.425V54.25H782.542C783.03 53.0195 784.163 52.2578 785.726 52.2578C787.933 52.2578 789.398 53.7617 789.378 56.2422V63H786.507V56.75C786.507 55.4414 785.784 54.6602 784.593 54.6602C783.382 54.6602 782.562 55.4609 782.562 56.8672ZM800.477 52.3945L796.747 63H793.505L789.794 52.3945H792.841L795.067 60.0117H795.184L797.411 52.3945H800.477ZM802.319 63.1758C801.401 63.1758 800.659 62.4336 800.678 61.5352C800.659 60.6367 801.401 59.9141 802.319 59.9141C803.178 59.9141 803.94 60.6367 803.94 61.5352C803.94 62.4336 803.178 63.1758 802.319 63.1758Z" fill="black"/>
<path d="M833.59 168.859V183H830.66V168.859H833.59ZM838.205 176.867V183H835.314V172.395H838.068V174.25H838.185C838.673 173.02 839.806 172.258 841.369 172.258C843.576 172.258 845.041 173.762 845.021 176.242V183H842.15V176.75C842.15 175.441 841.427 174.66 840.236 174.66C839.025 174.66 838.205 175.461 838.205 176.867ZM856.12 172.395L852.39 183H849.148L845.437 172.395H848.484L850.71 180.012H850.827L853.054 172.395H856.12ZM857.962 183.176C857.044 183.176 856.302 182.434 856.321 181.535C856.302 180.637 857.044 179.914 857.962 179.914C858.821 179.914 859.583 180.637 859.583 181.535C859.583 182.434 858.821 183.176 857.962 183.176ZM864.73 183V168.859H867.66V174.719H873.793V168.859H876.742V183H873.793V177.141H867.66V183H864.73ZM883.232 183.215C880.029 183.215 878.037 181.008 878.037 177.727C878.037 174.445 880.029 172.258 883.232 172.258C886.435 172.258 888.447 174.445 888.447 177.727C888.447 181.008 886.435 183.215 883.232 183.215ZM883.252 180.969C884.736 180.969 885.498 179.582 885.498 177.727C885.498 175.852 884.736 174.465 883.252 174.465C881.748 174.465 880.966 175.852 880.966 177.727C880.966 179.582 881.748 180.969 883.252 180.969ZM892.554 168.859V183H889.663V168.859H892.554ZM898.106 183.176C895.684 183.176 893.79 181.242 893.79 177.707C893.79 174.074 895.763 172.258 898.106 172.258C899.884 172.258 900.723 173.312 901.114 174.172H901.212V168.859H904.102V183H901.251V181.301H901.114C900.704 182.18 899.825 183.176 898.106 183.176ZM899.005 180.871C900.45 180.871 901.27 179.602 901.27 177.688C901.27 175.773 900.45 174.562 899.005 174.562C897.54 174.562 896.759 175.832 896.759 177.688C896.759 179.562 897.54 180.871 899.005 180.871ZM911.94 168.195L907.37 185.129H904.889L909.44 168.195H911.94ZM912.707 183V168.859H918.254C921.477 168.859 923.312 170.676 923.312 173.469C923.312 175.402 922.424 176.809 920.812 177.492L923.82 183H920.578L917.883 177.98H915.637V183H912.707ZM915.637 175.598H917.707C919.445 175.598 920.285 174.875 920.285 173.469C920.285 172.043 919.445 171.262 917.707 171.262H915.637V175.598ZM929.314 183.215C926.072 183.215 924.08 181.105 924.08 177.746C924.08 174.465 926.091 172.258 929.197 172.258C931.99 172.258 934.177 174.016 934.177 177.629V178.449H926.931C926.931 180.051 927.888 181.047 929.373 181.047C930.349 181.047 931.052 180.617 931.345 179.973H934.099C933.689 181.926 931.931 183.215 929.314 183.215ZM926.931 176.633H931.443C931.443 175.344 930.545 174.426 929.255 174.426C927.927 174.426 926.98 175.412 926.931 176.633ZM938.284 168.859V183H935.394V168.859H938.284ZM944.735 183.215C941.493 183.215 939.501 181.105 939.501 177.746C939.501 174.465 941.512 172.258 944.618 172.258C947.411 172.258 949.598 174.016 949.598 177.629V178.449H942.352C942.352 180.051 943.309 181.047 944.794 181.047C945.77 181.047 946.473 180.617 946.766 179.973H949.52C949.11 181.926 947.352 183.215 944.735 183.215ZM942.352 176.633H946.864C946.864 175.344 945.966 174.426 944.677 174.426C943.348 174.426 942.401 175.412 942.352 176.633ZM950.307 180.031C950.307 177.668 952.221 176.887 954.252 176.77C955.014 176.721 956.44 176.652 956.889 176.633V175.773C956.87 174.895 956.264 174.367 955.19 174.367C954.213 174.367 953.588 174.816 953.432 175.539H950.678C950.854 173.703 952.455 172.258 955.268 172.258C957.573 172.258 959.76 173.293 959.76 175.852V183H957.026V181.535H956.948C956.42 182.512 955.424 183.195 953.842 183.195C951.811 183.195 950.307 182.141 950.307 180.031ZM953.08 179.953C953.08 180.773 953.745 181.203 954.662 181.203C955.971 181.203 956.909 180.324 956.889 179.211V178.43C956.45 178.449 955.219 178.518 954.721 178.566C953.725 178.664 953.08 179.133 953.08 179.953ZM967.422 175.539C967.305 174.797 966.641 174.309 965.684 174.309C964.746 174.309 964.023 174.758 964.043 175.402C964.023 175.871 964.414 176.242 965.41 176.457L967.305 176.848C969.355 177.277 970.352 178.195 970.371 179.719C970.352 181.809 968.477 183.215 965.664 183.215C962.793 183.215 961.113 181.926 960.879 179.855H963.789C963.926 180.695 964.609 181.125 965.664 181.125C966.719 181.125 967.422 180.695 967.422 180.012C967.422 179.465 966.973 179.133 965.977 178.918L964.219 178.566C962.207 178.176 961.152 177.121 961.172 175.559C961.152 173.527 962.91 172.258 965.645 172.258C968.32 172.258 969.98 173.527 970.137 175.539H967.422ZM976.353 183.215C973.111 183.215 971.119 181.105 971.119 177.746C971.119 174.465 973.13 172.258 976.236 172.258C979.029 172.258 981.216 174.016 981.216 177.629V178.449H973.97C973.97 180.051 974.927 181.047 976.412 181.047C977.388 181.047 978.091 180.617 978.384 179.973H981.138C980.728 181.926 978.97 183.215 976.353 183.215ZM973.97 176.633H978.482C978.482 175.344 977.584 174.426 976.295 174.426C974.966 174.426 974.019 175.412 973.97 176.633Z" fill="black"/>
<path d="M658.625 368.859V383H655.695V368.859H658.625ZM663.24 376.867V383H660.349V372.395H663.103V374.25H663.22C663.709 373.02 664.841 372.258 666.404 372.258C668.611 372.258 670.076 373.762 670.056 376.242V383H667.185V376.75C667.185 375.441 666.462 374.66 665.271 374.66C664.06 374.66 663.24 375.461 663.24 376.867ZM681.155 372.395L677.425 383H674.183L670.472 372.395H673.519L675.745 380.012H675.862L678.089 372.395H681.155ZM682.997 383.176C682.079 383.176 681.337 382.434 681.356 381.535C681.337 380.637 682.079 379.914 682.997 379.914C683.856 379.914 684.618 380.637 684.618 381.535C684.618 382.434 683.856 383.176 682.997 383.176ZM689.766 383V368.859H695.312C698.535 368.859 700.371 370.676 700.371 373.469C700.371 375.402 699.482 376.809 697.871 377.492L700.879 383H697.637L694.941 377.98H692.695V383H689.766ZM692.695 375.598H694.766C696.504 375.598 697.344 374.875 697.344 373.469C697.344 372.043 696.504 371.262 694.766 371.262H692.695V375.598ZM706.373 383.215C703.13 383.215 701.138 381.105 701.138 377.746C701.138 374.465 703.15 372.258 706.255 372.258C709.048 372.258 711.236 374.016 711.236 377.629V378.449H703.99C703.99 380.051 704.947 381.047 706.431 381.047C707.408 381.047 708.111 380.617 708.404 379.973H711.158C710.748 381.926 708.99 383.215 706.373 383.215ZM703.99 376.633H708.502C708.502 375.344 707.603 374.426 706.314 374.426C704.986 374.426 704.039 375.412 703.99 376.633ZM712.452 386.984V372.395H715.304V374.172H715.421C715.812 373.312 716.671 372.258 718.448 372.258C720.792 372.258 722.745 374.074 722.745 377.707C722.745 381.242 720.87 383.176 718.448 383.176C716.71 383.176 715.831 382.18 715.421 381.301H715.343V386.984H712.452ZM715.284 377.688C715.284 379.602 716.105 380.871 717.53 380.871C719.015 380.871 719.796 379.562 719.796 377.688C719.796 375.832 719.015 374.562 717.53 374.562C716.085 374.562 715.284 375.773 715.284 377.688ZM726.911 368.859V383H724.02V368.859H726.911ZM730.256 383.176C729.338 383.176 728.596 382.434 728.616 381.535C728.596 380.637 729.338 379.914 730.256 379.914C731.116 379.914 731.877 380.637 731.877 381.535C731.877 382.434 731.116 383.176 730.256 383.176ZM642.893 399.281V396.859H654.475V399.281H650.139V411H647.229V399.281H642.893ZM653.679 408.031C653.679 405.668 655.593 404.887 657.625 404.77C658.386 404.721 659.812 404.652 660.261 404.633V403.773C660.242 402.895 659.636 402.367 658.562 402.367C657.586 402.367 656.961 402.816 656.804 403.539H654.05C654.226 401.703 655.828 400.258 658.64 400.258C660.945 400.258 663.132 401.293 663.132 403.852V411H660.398V409.535H660.32C659.793 410.512 658.796 411.195 657.214 411.195C655.183 411.195 653.679 410.141 653.679 408.031ZM656.453 407.953C656.453 408.773 657.117 409.203 658.035 409.203C659.343 409.203 660.281 408.324 660.261 407.211V406.43C659.822 406.449 658.591 406.518 658.093 406.566C657.097 406.664 656.453 407.133 656.453 407.953ZM670.794 403.539C670.677 402.797 670.013 402.309 669.056 402.309C668.118 402.309 667.396 402.758 667.415 403.402C667.396 403.871 667.786 404.242 668.782 404.457L670.677 404.848C672.728 405.277 673.724 406.195 673.743 407.719C673.724 409.809 671.849 411.215 669.036 411.215C666.165 411.215 664.486 409.926 664.251 407.855H667.161C667.298 408.695 667.982 409.125 669.036 409.125C670.091 409.125 670.794 408.695 670.794 408.012C670.794 407.465 670.345 407.133 669.349 406.918L667.591 406.566C665.579 406.176 664.525 405.121 664.544 403.559C664.525 401.527 666.282 400.258 669.017 400.258C671.693 400.258 673.353 401.527 673.509 403.539H670.794ZM674.921 411V396.859H677.811V404.457H677.968L681.405 400.395H684.725L680.78 404.984L684.94 411H681.542L678.632 406.684L677.811 407.602V411H674.921ZM698.994 401.781C698.76 400.219 697.549 399.262 695.908 399.262C693.701 399.262 692.256 400.961 692.256 403.93C692.256 406.977 693.721 408.598 695.889 408.598C697.51 408.598 698.701 407.699 698.994 406.176L701.963 406.195C701.631 408.812 699.443 411.195 695.85 411.195C692.061 411.195 689.268 408.539 689.268 403.93C689.268 399.32 692.119 396.664 695.85 396.664C699.111 396.664 701.572 398.539 701.963 401.781H698.994ZM703.355 411V400.395H706.148V402.23H706.265C706.656 400.922 707.632 400.238 708.824 400.238C709.117 400.238 709.488 400.277 709.742 400.336V402.914C709.468 402.836 708.921 402.758 708.511 402.758C707.203 402.758 706.246 403.676 706.246 404.965V411H703.355ZM715.021 411.215C711.779 411.215 709.786 409.105 709.786 405.746C709.786 402.465 711.798 400.258 714.904 400.258C717.696 400.258 719.884 402.016 719.884 405.629V406.449H712.638C712.638 408.051 713.595 409.047 715.079 409.047C716.056 409.047 716.759 408.617 717.052 407.973H719.806C719.396 409.926 717.638 411.215 715.021 411.215ZM712.638 404.633H717.15C717.15 403.344 716.251 402.426 714.962 402.426C713.634 402.426 712.687 403.412 712.638 404.633ZM720.593 408.031C720.593 405.668 722.507 404.887 724.538 404.77C725.3 404.721 726.725 404.652 727.175 404.633V403.773C727.155 402.895 726.55 402.367 725.475 402.367C724.499 402.367 723.874 402.816 723.718 403.539H720.964C721.139 401.703 722.741 400.258 725.554 400.258C727.858 400.258 730.046 401.293 730.046 403.852V411H727.311V409.535H727.233C726.706 410.512 725.71 411.195 724.128 411.195C722.096 411.195 720.593 410.141 720.593 408.031ZM723.366 407.953C723.366 408.773 724.03 409.203 724.948 409.203C726.257 409.203 727.194 408.324 727.175 407.211V406.43C726.735 406.449 725.505 406.518 725.007 406.566C724.011 406.664 723.366 407.133 723.366 407.953ZM737.239 400.395V402.562H735.246V407.738C735.246 408.578 735.657 408.793 736.243 408.812C736.536 408.812 737.043 408.793 737.395 408.754V411.039C737.082 411.098 736.575 411.137 735.852 411.137C733.762 411.137 732.336 410.199 732.356 408.148V402.562H730.891V400.395H732.356V397.855H735.246V400.395H737.239ZM743.143 411.215C739.9 411.215 737.908 409.105 737.908 405.746C737.908 402.465 739.92 400.258 743.025 400.258C745.818 400.258 748.006 402.016 748.006 405.629V406.449H740.76C740.76 408.051 741.717 409.047 743.201 409.047C744.178 409.047 744.881 408.617 745.174 407.973H747.928C747.518 409.926 745.76 411.215 743.143 411.215ZM740.76 404.633H745.271C745.271 403.344 744.373 402.426 743.084 402.426C741.756 402.426 740.809 403.412 740.76 404.633Z" fill="black"/>
<path d="M485.578 368.859V383H482.648V368.859H485.578ZM490.193 376.867V383H487.302V372.395H490.056V374.25H490.173C490.661 373.02 491.794 372.258 493.357 372.258C495.564 372.258 497.029 373.762 497.009 376.242V383H494.138V376.75C494.138 375.441 493.415 374.66 492.224 374.66C491.013 374.66 490.193 375.461 490.193 376.867ZM508.108 372.395L504.378 383H501.136L497.425 372.395H500.471L502.698 380.012H502.815L505.042 372.395H508.108ZM509.95 383.176C509.032 383.176 508.289 382.434 508.309 381.535C508.289 380.637 509.032 379.914 509.95 379.914C510.809 379.914 511.571 380.637 511.571 381.535C511.571 382.434 510.809 383.176 509.95 383.176ZM516.718 383V368.859H522.265C525.488 368.859 527.324 370.676 527.324 373.469C527.324 375.402 526.435 376.809 524.824 377.492L527.832 383H524.589L521.894 377.98H519.648V383H516.718ZM519.648 375.598H521.718C523.457 375.598 524.296 374.875 524.296 373.469C524.296 372.043 523.457 371.262 521.718 371.262H519.648V375.598ZM533.325 383.215C530.083 383.215 528.091 381.105 528.091 377.746C528.091 374.465 530.103 372.258 533.208 372.258C536.001 372.258 538.189 374.016 538.189 377.629V378.449H530.943C530.943 380.051 531.9 381.047 533.384 381.047C534.361 381.047 535.064 380.617 535.357 379.973H538.111C537.7 381.926 535.943 383.215 533.325 383.215ZM530.943 376.633H535.454C535.454 375.344 534.556 374.426 533.267 374.426C531.939 374.426 530.991 375.412 530.943 376.633ZM539.405 386.984V372.395H542.257V374.172H542.374C542.764 373.312 543.624 372.258 545.401 372.258C547.745 372.258 549.698 374.074 549.698 377.707C549.698 381.242 547.823 383.176 545.401 383.176C543.663 383.176 542.784 382.18 542.374 381.301H542.296V386.984H539.405ZM542.237 377.688C542.237 379.602 543.057 380.871 544.483 380.871C545.968 380.871 546.749 379.562 546.749 377.688C546.749 375.832 545.968 374.562 544.483 374.562C543.038 374.562 542.237 375.773 542.237 377.688ZM553.864 368.859V383H550.973V368.859H553.864ZM560.314 383.215C557.072 383.215 555.08 381.105 555.08 377.746C555.08 374.465 557.092 372.258 560.197 372.258C562.99 372.258 565.178 374.016 565.178 377.629V378.449H557.932C557.932 380.051 558.889 381.047 560.373 381.047C561.35 381.047 562.053 380.617 562.346 379.973H565.1C564.689 381.926 562.932 383.215 560.314 383.215ZM557.932 376.633H562.443C562.443 375.344 561.545 374.426 560.256 374.426C558.928 374.426 557.98 375.412 557.932 376.633ZM569.285 376.867V383H566.394V372.395H569.148V374.25H569.265C569.754 373.02 570.886 372.258 572.449 372.258C574.656 372.258 576.121 373.762 576.101 376.242V383H573.23V376.75C573.23 375.441 572.507 374.66 571.316 374.66C570.105 374.66 569.285 375.461 569.285 376.867ZM577.747 383V372.395H580.638V383H577.747ZM579.193 371.008C578.314 371.008 577.611 370.344 577.611 369.543C577.611 368.723 578.314 368.059 579.193 368.059C580.052 368.059 580.755 368.723 580.755 369.543C580.755 370.344 580.052 371.008 579.193 371.008ZM588.339 375.539C588.221 374.797 587.557 374.309 586.6 374.309C585.663 374.309 584.94 374.758 584.96 375.402C584.94 375.871 585.331 376.242 586.327 376.457L588.221 376.848C590.272 377.277 591.268 378.195 591.288 379.719C591.268 381.809 589.393 383.215 586.581 383.215C583.71 383.215 582.03 381.926 581.796 379.855H584.706C584.843 380.695 585.526 381.125 586.581 381.125C587.636 381.125 588.339 380.695 588.339 380.012C588.339 379.465 587.889 379.133 586.893 378.918L585.136 378.566C583.124 378.176 582.069 377.121 582.089 375.559C582.069 373.527 583.827 372.258 586.561 372.258C589.237 372.258 590.897 373.527 591.054 375.539H588.339ZM595.356 376.867V383H592.465V368.859H595.278V374.25H595.395C595.883 373.02 596.957 372.258 598.559 372.258C600.766 372.258 602.231 373.742 602.231 376.242V383H599.34V376.75C599.34 375.441 598.637 374.66 597.426 374.66C596.215 374.66 595.356 375.461 595.356 376.867Z" fill="black"/>
<circle cx="984.391" cy="485.504" r="154" stroke="#DADDE6" stroke-width="6"/>
<rect x="864.391" y="310.504" width="84" height="84" rx="42" fill="#3CA6F8"/>
<circle cx="906" cy="352.996" r="18.375" fill="white"/>
<path d="M896.5 353.246H916" stroke="#3CA6F8" stroke-width="3" stroke-miterlimit="10"/>
<path d="M906.25 362.996V343.496" stroke="#3CA6F8" stroke-width="3" stroke-miterlimit="10"/>
<rect x="864.391" y="574.008" width="84" height="84" rx="42" fill="#3CA6F8"/>
<rect x="885.547" y="595.145" width="17.2207" height="17.2207" rx="1" fill="white" stroke="white" stroke-width="2"/>
<rect x="910.016" y="619.645" width="17.2207" height="17.2207" rx="1" fill="white" stroke="white" stroke-width="2"/>
<path d="M921.023 597.722L926.978 603.756L921.023 609.789" stroke="white" stroke-width="2" stroke-linecap="round" stroke-linejoin="round"/>
<path d="M926.98 603.758H909.016" stroke="white" stroke-width="2" stroke-linecap="round" stroke-linejoin="round"/>
<path d="M890.5 622.222L884.546 628.256L890.5 634.289" stroke="white" stroke-width="2" stroke-linecap="round" stroke-linejoin="round"/>
<path d="M884.543 628.258H902.508" stroke="white" stroke-width="2" stroke-linecap="round" stroke-linejoin="round"/>
<rect x="1016.97" y="310.504" width="84" height="84" rx="42" fill="#3CA6F8"/>
<g clip-path="url(#clip4_127_1572)">
<path d="M1075.06 346.234H1044.2V368.156H1075.06V346.234Z" fill="white" stroke="white" stroke-width="2" stroke-linecap="round" stroke-linejoin="round"/>
<path d="M1059.63 337.305H1047.56L1044.2 346.236" stroke="white" stroke-width="2" stroke-linecap="round" stroke-linejoin="round"/>
<path d="M1059.63 337.305H1071.71L1075.06 346.236" stroke="white" stroke-width="2" stroke-linecap="round" stroke-linejoin="round"/>
</g>
<circle cx="1070.86" cy="363.69" r="7.81506" fill="#3CA6F8" stroke="white" stroke-width="2"/>
<path d="M1082 374.879L1076.32 369.195" stroke="white" stroke-width="2"/>
<rect x="1016.97" y="574.008" width="84" height="84" rx="42" fill="#3CA6F8"/>
<rect x="1037.62" y="594.152" width="17.2207" height="17.2207" rx="1" stroke="white" stroke-width="2"/>
<rect x="1063.09" y="594.152" width="17.2207" height="17.2207" rx="1" stroke="white" stroke-width="2"/>
<rect x="1037.62" y="619.652" width="17.2207" height="17.2207" rx="1" stroke="white" stroke-width="2"/>
<rect x="1063.09" y="619.652" width="17.2207" height="17.2207" rx="1" stroke="white" stroke-width="2"/>
<circle cx="1059" cy="616.996" r="13" fill="white"/>
<path d="M1052.27 617.172H1066.07" stroke="#3CA6F8" stroke-width="3" stroke-miterlimit="10"/>
<path d="M1059.17 624.069V610.273" stroke="#3CA6F8" stroke-width="3" stroke-miterlimit="10"/>
<rect x="1092.97" y="443.504" width="84" height="84" rx="42" fill="#3CA6F8"/>
<g clip-path="url(#clip5_127_1572)">
<path d="M1116.53 463.145V501.367H1144.73V472.976L1134.57 463.145H1116.53Z" stroke="white" stroke-width="2" stroke-miterlimit="10"/>
<path d="M1134.58 463.145V473.367H1144.73" stroke="white" stroke-width="2" stroke-miterlimit="10"/>
<path d="M1122.4 481.363H1130.07" stroke="white" stroke-width="2" stroke-miterlimit="10"/>
<path d="M1122.4 489.363H1138.21" stroke="white" stroke-width="2" stroke-miterlimit="10"/>
</g>
<circle cx="1143.3" cy="497.762" r="13" fill="white"/>
<path d="M1136.58 497.938H1150.37" stroke="#3CA6F8" stroke-width="3" stroke-miterlimit="10"/>
<path d="M1143.48 504.835V491.039" stroke="#3CA6F8" stroke-width="3" stroke-miterlimit="10"/>
<rect x="777.391" y="426" width="120" height="119.008" rx="59.5041" fill="url(#paint3_linear_127_1572)"/>
<path d="M820.593 457.293V478.504H816.199V457.293H820.593ZM827.515 469.305V478.504H823.179V462.596H827.31V465.379H827.486C828.219 463.533 829.918 462.391 832.262 462.391C835.572 462.391 837.769 464.646 837.74 468.367V478.504H833.433V469.129C833.433 467.166 832.349 465.994 830.562 465.994C828.746 465.994 827.515 467.195 827.515 469.305ZM854.389 462.596L848.793 478.504H843.93L838.363 462.596H842.934L846.274 474.021H846.449L849.789 462.596H854.389ZM857.151 478.768C855.774 478.768 854.661 477.654 854.69 476.307C854.661 474.959 855.774 473.875 857.151 473.875C858.44 473.875 859.583 474.959 859.583 476.307C859.583 477.654 858.44 478.768 857.151 478.768ZM806.732 514.504H801.986L809.339 493.293H814.993L822.318 514.504H817.601L816.019 509.611H808.343L806.732 514.504ZM809.456 506.184H814.905L812.239 498.068H812.093L809.456 506.184ZM833.927 507.736V498.596H838.263V514.504H834.103V511.633H833.927C833.195 513.479 831.496 514.709 829.093 514.709C825.9 514.709 823.732 512.453 823.732 508.732V498.596H828.068V507.971C828.068 509.846 829.152 511.047 830.851 511.047C832.433 511.047 833.927 509.904 833.927 507.736ZM846.592 514.768C842.959 514.768 840.117 511.867 840.117 506.564C840.117 501.115 843.076 498.391 846.592 498.391C849.258 498.391 850.518 499.973 851.104 501.262H851.25V493.293H855.586V514.504H851.309V511.955H851.104C850.488 513.273 849.17 514.768 846.592 514.768ZM847.939 511.311C850.107 511.311 851.338 509.406 851.338 506.535C851.338 503.664 850.107 501.848 847.939 501.848C845.742 501.848 844.57 503.752 844.57 506.535C844.57 509.348 845.742 511.311 847.939 511.311ZM858.172 514.504V498.596H862.508V514.504H858.172ZM860.34 496.516C859.022 496.516 857.967 495.52 857.967 494.318C857.967 493.088 859.022 492.092 860.34 492.092C861.629 492.092 862.684 493.088 862.684 494.318C862.684 495.52 861.629 496.516 860.34 496.516ZM873.356 498.596V501.848H870.368V509.611C870.368 510.871 870.983 511.193 871.862 511.223C872.302 511.223 873.063 511.193 873.591 511.135V514.562C873.122 514.65 872.36 514.709 871.276 514.709C868.141 514.709 866.003 513.303 866.032 510.227V501.848H863.835V498.596H866.032V494.787H870.368V498.596H873.356Z" fill="white"/>
<path d="M767.455 331.363V345.504H764.526V331.363H767.455ZM772.07 339.371V345.504H769.18V334.898H771.934V336.754H772.051C772.539 335.523 773.672 334.762 775.234 334.762C777.441 334.762 778.906 336.266 778.887 338.746V345.504H776.016V339.254C776.016 337.945 775.293 337.164 774.102 337.164C772.891 337.164 772.07 337.965 772.07 339.371ZM789.986 334.898L786.255 345.504H783.013L779.302 334.898H782.349L784.576 342.516H784.693L786.92 334.898H789.986ZM791.827 345.68C790.909 345.68 790.167 344.938 790.187 344.039C790.167 343.141 790.909 342.418 791.827 342.418C792.687 342.418 793.448 343.141 793.448 344.039C793.448 344.938 792.687 345.68 791.827 345.68ZM801.526 331.363V345.504H798.596V331.363H801.526ZM806.141 339.371V345.504H803.25V334.898H806.004V336.754H806.121C806.609 335.523 807.742 334.762 809.305 334.762C811.512 334.762 812.977 336.266 812.957 338.746V345.504H810.086V339.254C810.086 337.945 809.363 337.164 808.172 337.164C806.961 337.164 806.141 337.965 806.141 339.371ZM824.056 334.898L820.326 345.504H817.084L813.373 334.898H816.42L818.646 342.516H818.763L820.99 334.898H824.056ZM829.316 345.719C826.073 345.719 824.081 343.609 824.081 340.25C824.081 336.969 826.093 334.762 829.198 334.762C831.991 334.762 834.179 336.52 834.179 340.133V340.953H826.933C826.933 342.555 827.89 343.551 829.374 343.551C830.351 343.551 831.054 343.121 831.347 342.477H834.101C833.691 344.43 831.933 345.719 829.316 345.719ZM826.933 339.137H831.445C831.445 337.848 830.546 336.93 829.257 336.93C827.929 336.93 826.982 337.916 826.933 339.137ZM841.45 338.043C841.333 337.301 840.669 336.812 839.712 336.812C838.774 336.812 838.052 337.262 838.071 337.906C838.052 338.375 838.442 338.746 839.438 338.961L841.333 339.352C843.384 339.781 844.38 340.699 844.399 342.223C844.38 344.312 842.505 345.719 839.692 345.719C836.821 345.719 835.141 344.43 834.907 342.359H837.817C837.954 343.199 838.637 343.629 839.692 343.629C840.747 343.629 841.45 343.199 841.45 342.516C841.45 341.969 841.001 341.637 840.005 341.422L838.247 341.07C836.235 340.68 835.18 339.625 835.2 338.062C835.18 336.031 836.938 334.762 839.673 334.762C842.348 334.762 844.009 336.031 844.165 338.043H841.45ZM851.162 334.898V337.066H849.17V342.242C849.17 343.082 849.58 343.297 850.166 343.316C850.459 343.316 850.967 343.297 851.319 343.258V345.543C851.006 345.602 850.498 345.641 849.776 345.641C847.686 345.641 846.26 344.703 846.28 342.652V337.066H844.815V334.898H846.28V332.359H849.17V334.898H851.162ZM854.078 345.68C853.16 345.68 852.418 344.938 852.438 344.039C852.418 343.141 853.16 342.418 854.078 342.418C854.938 342.418 855.699 343.141 855.699 344.039C855.699 344.938 854.938 345.68 854.078 345.68ZM807.195 364.285C806.961 362.723 805.75 361.766 804.109 361.766C801.902 361.766 800.457 363.465 800.457 366.434C800.457 369.48 801.922 371.102 804.09 371.102C805.711 371.102 806.902 370.203 807.195 368.68L810.164 368.699C809.832 371.316 807.645 373.699 804.051 373.699C800.262 373.699 797.469 371.043 797.469 366.434C797.469 361.824 800.32 359.168 804.051 359.168C807.312 359.168 809.773 361.043 810.164 364.285H807.195ZM811.556 373.504V362.898H814.349V364.734H814.466C814.857 363.426 815.834 362.742 817.025 362.742C817.318 362.742 817.689 362.781 817.943 362.84V365.418C817.67 365.34 817.123 365.262 816.713 365.262C815.404 365.262 814.447 366.18 814.447 367.469V373.504H811.556ZM823.222 373.719C819.98 373.719 817.987 371.609 817.987 368.25C817.987 364.969 819.999 362.762 823.105 362.762C825.898 362.762 828.085 364.52 828.085 368.133V368.953H820.839C820.839 370.555 821.796 371.551 823.28 371.551C824.257 371.551 824.96 371.121 825.253 370.477H828.007C827.597 372.43 825.839 373.719 823.222 373.719ZM820.839 367.137H825.351C825.351 365.848 824.452 364.93 823.163 364.93C821.835 364.93 820.888 365.916 820.839 367.137ZM828.794 370.535C828.794 368.172 830.708 367.391 832.739 367.273C833.501 367.225 834.927 367.156 835.376 367.137V366.277C835.356 365.398 834.751 364.871 833.677 364.871C832.7 364.871 832.075 365.32 831.919 366.043H829.165C829.341 364.207 830.942 362.762 833.755 362.762C836.059 362.762 838.247 363.797 838.247 366.355V373.504H835.512V372.039H835.434C834.907 373.016 833.911 373.699 832.329 373.699C830.298 373.699 828.794 372.645 828.794 370.535ZM831.567 370.457C831.567 371.277 832.231 371.707 833.149 371.707C834.458 371.707 835.395 370.828 835.376 369.715V368.934C834.936 368.953 833.706 369.021 833.208 369.07C832.212 369.168 831.567 369.637 831.567 370.457ZM845.44 362.898V365.066H843.448V370.242C843.448 371.082 843.858 371.297 844.444 371.316C844.737 371.316 845.245 371.297 845.596 371.258V373.543C845.284 373.602 844.776 373.641 844.053 373.641C841.963 373.641 840.537 372.703 840.557 370.652V365.066H839.092V362.898H840.557V360.359H843.448V362.898H845.44ZM851.344 373.719C848.102 373.719 846.109 371.609 846.109 368.25C846.109 364.969 848.121 362.762 851.227 362.762C854.02 362.762 856.207 364.52 856.207 368.133V368.953H848.961C848.961 370.555 849.918 371.551 851.402 371.551C852.379 371.551 853.082 371.121 853.375 370.477H856.129C855.719 372.43 853.961 373.719 851.344 373.719ZM848.961 367.137H853.473C853.473 365.848 852.574 364.93 851.285 364.93C849.957 364.93 849.01 365.916 848.961 367.137Z" fill="black"/>
<path d="M1121.59 345.363V359.504H1118.66V345.363H1121.59ZM1126.2 353.371V359.504H1123.31V348.898H1126.07V350.754H1126.19C1126.67 349.523 1127.81 348.762 1129.37 348.762C1131.58 348.762 1133.04 350.266 1133.02 352.746V359.504H1130.15V353.254C1130.15 351.945 1129.43 351.164 1128.24 351.164C1127.03 351.164 1126.2 351.965 1126.2 353.371ZM1144.12 348.898L1140.39 359.504H1137.15L1133.44 348.898H1136.48L1138.71 356.516H1138.83L1141.05 348.898H1144.12ZM1145.96 359.68C1145.04 359.68 1144.3 358.938 1144.32 358.039C1144.3 357.141 1145.04 356.418 1145.96 356.418C1146.82 356.418 1147.58 357.141 1147.58 358.039C1147.58 358.938 1146.82 359.68 1145.96 359.68ZM1155.66 345.363V359.504H1152.73V345.363H1155.66ZM1160.28 353.371V359.504H1157.38V348.898H1160.14V350.754H1160.26C1160.74 349.523 1161.88 348.762 1163.44 348.762C1165.65 348.762 1167.11 350.266 1167.09 352.746V359.504H1164.22V353.254C1164.22 351.945 1163.5 351.164 1162.31 351.164C1161.1 351.164 1160.28 351.965 1160.28 353.371ZM1178.19 348.898L1174.46 359.504H1171.22L1167.51 348.898H1170.55L1172.78 356.516H1172.9L1175.12 348.898H1178.19ZM1183.45 359.719C1180.21 359.719 1178.22 357.609 1178.22 354.25C1178.22 350.969 1180.23 348.762 1183.33 348.762C1186.13 348.762 1188.31 350.52 1188.31 354.133V354.953H1181.07C1181.07 356.555 1182.02 357.551 1183.51 357.551C1184.49 357.551 1185.19 357.121 1185.48 356.477H1188.24C1187.83 358.43 1186.07 359.719 1183.45 359.719ZM1181.07 353.137H1185.58C1185.58 351.848 1184.68 350.93 1183.39 350.93C1182.06 350.93 1181.12 351.916 1181.07 353.137ZM1195.58 352.043C1195.47 351.301 1194.8 350.812 1193.85 350.812C1192.91 350.812 1192.19 351.262 1192.21 351.906C1192.19 352.375 1192.58 352.746 1193.57 352.961L1195.47 353.352C1197.52 353.781 1198.51 354.699 1198.53 356.223C1198.51 358.312 1196.64 359.719 1193.83 359.719C1190.96 359.719 1189.28 358.43 1189.04 356.359H1191.95C1192.09 357.199 1192.77 357.629 1193.83 357.629C1194.88 357.629 1195.58 357.199 1195.58 356.516C1195.58 355.969 1195.14 355.637 1194.14 355.422L1192.38 355.07C1190.37 354.68 1189.31 353.625 1189.33 352.062C1189.31 350.031 1191.07 348.762 1193.81 348.762C1196.48 348.762 1198.14 350.031 1198.3 352.043H1195.58ZM1205.3 348.898V351.066H1203.3V356.242C1203.3 357.082 1203.71 357.297 1204.3 357.316C1204.59 357.316 1205.1 357.297 1205.45 357.258V359.543C1205.14 359.602 1204.63 359.641 1203.91 359.641C1201.82 359.641 1200.39 358.703 1200.41 356.652V351.066H1198.95V348.898H1200.41V346.359H1203.3V348.898H1205.3ZM1208.21 359.68C1207.29 359.68 1206.55 358.938 1206.57 358.039C1206.55 357.141 1207.29 356.418 1208.21 356.418C1209.07 356.418 1209.83 357.141 1209.83 358.039C1209.83 358.938 1209.07 359.68 1208.21 359.68Z" fill="black"/>
<path d="M1194.66 464.363H1198.29L1202.22 473.953H1202.38L1206.3 464.363H1209.93V478.504H1207.08V469.246H1206.96L1203.27 478.445H1201.32L1197.63 469.207H1197.51V478.504H1194.66V464.363ZM1216.46 478.719C1213.22 478.719 1211.23 476.609 1211.23 473.25C1211.23 469.969 1213.24 467.762 1216.35 467.762C1219.14 467.762 1221.33 469.52 1221.33 473.133V473.953H1214.08C1214.08 475.555 1215.04 476.551 1216.52 476.551C1217.5 476.551 1218.2 476.121 1218.49 475.477H1221.25C1220.84 477.43 1219.08 478.719 1216.46 478.719ZM1214.08 472.137H1218.59C1218.59 470.848 1217.69 469.93 1216.4 469.93C1215.08 469.93 1214.13 470.916 1214.08 472.137ZM1222.54 478.504V467.898H1225.34V469.734H1225.45C1225.84 468.426 1226.82 467.742 1228.01 467.742C1228.3 467.742 1228.67 467.781 1228.93 467.84V470.418C1228.66 470.34 1228.11 470.262 1227.7 470.262C1226.39 470.262 1225.43 471.18 1225.43 472.469V478.504H1222.54ZM1234.17 482.703C1231.24 482.703 1229.44 481.395 1229.27 479.383H1232.12C1232.27 480.223 1233.08 480.613 1234.23 480.613C1235.58 480.613 1236.47 480.047 1236.47 478.562V476.629H1236.34C1235.95 477.488 1235.01 478.348 1233.31 478.348C1230.91 478.348 1228.99 476.668 1228.99 473.133C1228.99 469.539 1230.97 467.762 1233.31 467.762C1235.09 467.762 1235.95 468.816 1236.34 469.676H1236.45V467.898H1239.33V478.621C1239.33 481.316 1237.18 482.703 1234.17 482.703ZM1234.21 476.18C1235.65 476.18 1236.47 475.047 1236.47 473.172C1236.47 471.277 1235.65 470.066 1234.21 470.066C1232.74 470.066 1231.96 471.336 1231.96 473.172C1231.96 475.008 1232.74 476.18 1234.21 476.18ZM1245.78 478.719C1242.53 478.719 1240.54 476.609 1240.54 473.25C1240.54 469.969 1242.55 467.762 1245.66 467.762C1248.45 467.762 1250.64 469.52 1250.64 473.133V473.953H1243.39C1243.39 475.555 1244.35 476.551 1245.83 476.551C1246.81 476.551 1247.51 476.121 1247.81 475.477H1250.56C1250.15 477.43 1248.39 478.719 1245.78 478.719ZM1243.39 472.137H1247.9C1247.9 470.848 1247.01 469.93 1245.72 469.93C1244.39 469.93 1243.44 470.916 1243.39 472.137ZM1255.38 466.785V464.363H1266.96V466.785H1262.62V478.504H1259.71V466.785H1255.38ZM1266.16 475.535C1266.16 473.172 1268.08 472.391 1270.11 472.273C1270.87 472.225 1272.3 472.156 1272.75 472.137V471.277C1272.73 470.398 1272.12 469.871 1271.05 469.871C1270.07 469.871 1269.44 470.32 1269.29 471.043H1266.53C1266.71 469.207 1268.31 467.762 1271.12 467.762C1273.43 467.762 1275.62 468.797 1275.62 471.355V478.504H1272.88V477.039H1272.8C1272.28 478.016 1271.28 478.699 1269.7 478.699C1267.67 478.699 1266.16 477.645 1266.16 475.535ZM1268.94 475.457C1268.94 476.277 1269.6 476.707 1270.52 476.707C1271.83 476.707 1272.76 475.828 1272.75 474.715V473.934C1272.31 473.953 1271.08 474.021 1270.58 474.07C1269.58 474.168 1268.94 474.637 1268.94 475.457ZM1283.28 471.043C1283.16 470.301 1282.5 469.812 1281.54 469.812C1280.6 469.812 1279.88 470.262 1279.9 470.906C1279.88 471.375 1280.27 471.746 1281.27 471.961L1283.16 472.352C1285.21 472.781 1286.21 473.699 1286.23 475.223C1286.21 477.312 1284.33 478.719 1281.52 478.719C1278.65 478.719 1276.97 477.43 1276.74 475.359H1279.65C1279.78 476.199 1280.47 476.629 1281.52 476.629C1282.57 476.629 1283.28 476.199 1283.28 475.516C1283.28 474.969 1282.83 474.637 1281.83 474.422L1280.07 474.07C1278.06 473.68 1277.01 472.625 1277.03 471.062C1277.01 469.031 1278.77 467.762 1281.5 467.762C1284.18 467.762 1285.84 469.031 1285.99 471.043H1283.28ZM1287.4 478.504V464.363H1290.3V471.961H1290.45L1293.89 467.898H1297.21L1293.26 472.488L1297.42 478.504H1294.03L1291.12 474.188L1290.3 475.105V478.504H1287.4ZM1204.11 497.285C1203.88 495.723 1202.67 494.766 1201.03 494.766C1198.82 494.766 1197.38 496.465 1197.38 499.434C1197.38 502.48 1198.84 504.102 1201.01 504.102C1202.63 504.102 1203.82 503.203 1204.11 501.68L1207.08 501.699C1206.75 504.316 1204.56 506.699 1200.97 506.699C1197.18 506.699 1194.39 504.043 1194.39 499.434C1194.39 494.824 1197.24 492.168 1200.97 492.168C1204.23 492.168 1206.69 494.043 1207.08 497.285H1204.11ZM1208.47 506.504V495.898H1211.27V497.734H1211.38C1211.77 496.426 1212.75 495.742 1213.94 495.742C1214.24 495.742 1214.61 495.781 1214.86 495.84V498.418C1214.59 498.34 1214.04 498.262 1213.63 498.262C1212.32 498.262 1211.36 499.18 1211.36 500.469V506.504H1208.47ZM1220.14 506.719C1216.9 506.719 1214.91 504.609 1214.91 501.25C1214.91 497.969 1216.92 495.762 1220.02 495.762C1222.82 495.762 1225 497.52 1225 501.133V501.953H1217.76C1217.76 503.555 1218.71 504.551 1220.2 504.551C1221.17 504.551 1221.88 504.121 1222.17 503.477H1224.92C1224.51 505.43 1222.76 506.719 1220.14 506.719ZM1217.76 500.137H1222.27C1222.27 498.848 1221.37 497.93 1220.08 497.93C1218.75 497.93 1217.81 498.916 1217.76 500.137ZM1225.71 503.535C1225.71 501.172 1227.63 500.391 1229.66 500.273C1230.42 500.225 1231.84 500.156 1232.29 500.137V499.277C1232.27 498.398 1231.67 497.871 1230.59 497.871C1229.62 497.871 1228.99 498.32 1228.84 499.043H1226.08C1226.26 497.207 1227.86 495.762 1230.67 495.762C1232.98 495.762 1235.16 496.797 1235.16 499.355V506.504H1232.43V505.039H1232.35C1231.83 506.016 1230.83 506.699 1229.25 506.699C1227.22 506.699 1225.71 505.645 1225.71 503.535ZM1228.49 503.457C1228.49 504.277 1229.15 504.707 1230.07 504.707C1231.38 504.707 1232.31 503.828 1232.29 502.715V501.934C1231.85 501.953 1230.62 502.021 1230.13 502.07C1229.13 502.168 1228.49 502.637 1228.49 503.457ZM1242.36 495.898V498.066H1240.37V503.242C1240.37 504.082 1240.78 504.297 1241.36 504.316C1241.65 504.316 1242.16 504.297 1242.51 504.258V506.543C1242.2 506.602 1241.69 506.641 1240.97 506.641C1238.88 506.641 1237.46 505.703 1237.47 503.652V498.066H1236.01V495.898H1237.47V493.359H1240.37V495.898H1242.36ZM1248.26 506.719C1245.02 506.719 1243.03 504.609 1243.03 501.25C1243.03 497.969 1245.04 495.762 1248.14 495.762C1250.94 495.762 1253.12 497.52 1253.12 501.133V501.953H1245.88C1245.88 503.555 1246.84 504.551 1248.32 504.551C1249.3 504.551 1250 504.121 1250.29 503.477H1253.05C1252.64 505.43 1250.88 506.719 1248.26 506.719ZM1245.88 500.137H1250.39C1250.39 498.848 1249.49 497.93 1248.2 497.93C1246.88 497.93 1245.93 498.916 1245.88 500.137Z" fill="black"/>
<path d="M1017.84 679.363V693.504H1014.91V679.363H1017.84ZM1022.45 687.371V693.504H1019.56V682.898H1022.32V684.754H1022.43C1022.92 683.523 1024.06 682.762 1025.62 682.762C1027.82 682.762 1029.29 684.266 1029.27 686.746V693.504H1026.4V687.254C1026.4 685.945 1025.68 685.164 1024.48 685.164C1023.27 685.164 1022.45 685.965 1022.45 687.371ZM1040.37 682.898L1036.64 693.504H1033.4L1029.69 682.898H1032.73L1034.96 690.516H1035.08L1037.3 682.898H1040.37ZM1042.21 693.68C1041.29 693.68 1040.55 692.938 1040.57 692.039C1040.55 691.141 1041.29 690.418 1042.21 690.418C1043.07 690.418 1043.83 691.141 1043.83 692.039C1043.83 692.938 1043.07 693.68 1042.21 693.68ZM1048.98 679.363H1052.61L1056.54 688.953H1056.69L1060.62 679.363H1064.25V693.504H1061.4V684.246H1061.28L1057.59 693.445H1055.64L1051.95 684.207H1051.83V693.504H1048.98V679.363ZM1070.78 693.719C1067.54 693.719 1065.55 691.609 1065.55 688.25C1065.55 684.969 1067.56 682.762 1070.66 682.762C1073.46 682.762 1075.64 684.52 1075.64 688.133V688.953H1068.4C1068.4 690.555 1069.36 691.551 1070.84 691.551C1071.82 691.551 1072.52 691.121 1072.81 690.477H1075.57C1075.16 692.43 1073.4 693.719 1070.78 693.719ZM1068.4 687.137H1072.91C1072.91 685.848 1072.01 684.93 1070.72 684.93C1069.39 684.93 1068.45 685.916 1068.4 687.137ZM1076.86 693.504V682.898H1079.65V684.734H1079.77C1080.16 683.426 1081.14 682.742 1082.33 682.742C1082.62 682.742 1082.99 682.781 1083.25 682.84V685.418C1082.97 685.34 1082.43 685.262 1082.02 685.262C1080.71 685.262 1079.75 686.18 1079.75 687.469V693.504H1076.86ZM1088.49 697.703C1085.56 697.703 1083.76 696.395 1083.59 694.383H1086.44C1086.59 695.223 1087.39 695.613 1088.55 695.613C1089.89 695.613 1090.79 695.047 1090.79 693.562V691.629H1090.66C1090.27 692.488 1089.33 693.348 1087.63 693.348C1085.23 693.348 1083.31 691.668 1083.31 688.133C1083.31 684.539 1085.28 682.762 1087.63 682.762C1089.41 682.762 1090.27 683.816 1090.66 684.676H1090.77V682.898H1093.64V693.621C1093.64 696.316 1091.5 697.703 1088.49 697.703ZM1088.53 691.18C1089.97 691.18 1090.79 690.047 1090.79 688.172C1090.79 686.277 1089.97 685.066 1088.53 685.066C1087.06 685.066 1086.28 686.336 1086.28 688.172C1086.28 690.008 1087.06 691.18 1088.53 691.18ZM1100.09 693.719C1096.85 693.719 1094.86 691.609 1094.86 688.25C1094.86 684.969 1096.87 682.762 1099.98 682.762C1102.77 682.762 1104.96 684.52 1104.96 688.133V688.953H1097.71C1097.71 690.555 1098.67 691.551 1100.15 691.551C1101.13 691.551 1101.83 691.121 1102.13 690.477H1104.88C1104.47 692.43 1102.71 693.719 1100.09 693.719ZM1097.71 687.137H1102.22C1102.22 685.848 1101.33 684.93 1100.04 684.93C1098.71 684.93 1097.76 685.916 1097.71 687.137Z" fill="black"/>
<path d="M861.318 679.363V693.504H858.389V679.363H861.318ZM865.933 687.371V693.504H863.043V682.898H865.796V684.754H865.914C866.402 683.523 867.535 682.762 869.097 682.762C871.304 682.762 872.769 684.266 872.75 686.746V693.504H869.879V687.254C869.879 685.945 869.156 685.164 867.964 685.164C866.754 685.164 865.933 685.965 865.933 687.371ZM883.849 682.898L880.118 693.504H876.876L873.165 682.898H876.212L878.439 690.516H878.556L880.782 682.898H883.849ZM885.69 693.68C884.772 693.68 884.03 692.938 884.05 692.039C884.03 691.141 884.772 690.418 885.69 690.418C886.55 690.418 887.311 691.141 887.311 692.039C887.311 692.938 886.55 693.68 885.69 693.68ZM894.822 693.504H891.658L896.561 679.363H900.33L905.213 693.504H902.068L901.014 690.242H895.896L894.822 693.504ZM896.639 687.957H900.271L898.494 682.547H898.396L896.639 687.957ZM909.574 693.68C907.152 693.68 905.257 691.746 905.257 688.211C905.257 684.578 907.23 682.762 909.574 682.762C911.351 682.762 912.191 683.816 912.582 684.676H912.679V679.363H915.57V693.504H912.718V691.805H912.582C912.171 692.684 911.293 693.68 909.574 693.68ZM910.472 691.375C911.918 691.375 912.738 690.105 912.738 688.191C912.738 686.277 911.918 685.066 910.472 685.066C909.007 685.066 908.226 686.336 908.226 688.191C908.226 690.066 909.007 691.375 910.472 691.375ZM917.294 682.898H920.185V694.031C920.185 696.473 918.681 697.488 916.2 697.488L915.614 697.469V695.203C915.771 695.203 915.868 695.223 916.005 695.223C916.943 695.223 917.294 694.793 917.294 693.992V682.898ZM918.72 681.512C917.841 681.512 917.138 680.848 917.138 680.047C917.138 679.227 917.841 678.562 918.72 678.562C919.579 678.562 920.282 679.227 920.282 680.047C920.282 680.848 919.579 681.512 918.72 681.512ZM928.628 688.992V682.898H931.518V693.504H928.745V691.59H928.628C928.139 692.82 927.007 693.641 925.405 693.641C923.276 693.641 921.831 692.137 921.831 689.656V682.898H924.721V689.148C924.721 690.398 925.444 691.199 926.577 691.199C927.632 691.199 928.628 690.438 928.628 688.992ZM939.219 686.043C939.102 685.301 938.438 684.812 937.481 684.812C936.543 684.812 935.821 685.262 935.84 685.906C935.821 686.375 936.211 686.746 937.207 686.961L939.102 687.352C941.153 687.781 942.149 688.699 942.168 690.223C942.149 692.312 940.274 693.719 937.461 693.719C934.59 693.719 932.911 692.43 932.676 690.359H935.586C935.723 691.199 936.407 691.629 937.461 691.629C938.516 691.629 939.219 691.199 939.219 690.516C939.219 689.969 938.77 689.637 937.774 689.422L936.016 689.07C934.004 688.68 932.95 687.625 932.969 686.062C932.95 684.031 934.707 682.762 937.442 682.762C940.118 682.762 941.778 684.031 941.934 686.043H939.219ZM948.932 682.898V685.066H946.939V690.242C946.939 691.082 947.35 691.297 947.936 691.316C948.229 691.316 948.736 691.297 949.088 691.258V693.543C948.775 693.602 948.268 693.641 947.545 693.641C945.455 693.641 944.029 692.703 944.049 690.652V685.066H942.584V682.898H944.049V680.359H946.939V682.898H948.932Z" fill="black"/>
<rect x="160.391" y="521.504" width="84" height="84" rx="42" fill="#6E62FD"/>
<path d="M206.888 549.996H184.796C184.356 549.996 184 550.341 184 550.766V575.809C184 576.235 184.356 576.579 184.796 576.579H206.888C207.328 576.579 207.684 576.235 207.684 575.809V550.766C207.684 550.341 207.328 549.996 206.888 549.996Z" fill="white"/>
<path d="M219.995 575.58H209.68V557.918H214.376L219.995 564.501V575.58Z" stroke="white" stroke-width="2"/>
<path d="M209.633 566.746H220.054" stroke="white" stroke-width="2" stroke-linecap="square" stroke-linejoin="round"/>
<path d="M192.529 581.464C194.793 581.464 196.628 579.688 196.628 577.498C196.628 575.307 194.793 573.531 192.529 573.531C190.265 573.531 188.43 575.307 188.43 577.498C188.43 579.688 190.265 581.464 192.529 581.464Z" fill="white" stroke="#6E62FD" stroke-width="2" stroke-linecap="square" stroke-linejoin="round"/>
<path d="M214.841 581.131C216.915 581.131 218.597 579.504 218.597 577.497C218.597 575.49 216.915 573.863 214.841 573.863C212.767 573.863 211.086 575.49 211.086 577.497C211.086 579.504 212.767 581.131 214.841 581.131Z" fill="white" stroke="#6E62FD" stroke-width="2" stroke-linecap="square" stroke-linejoin="round"/>
<path d="M207.992 549.418V576.581" stroke="#6E62FD" stroke-width="2" stroke-miterlimit="10"/>
<path d="M177 556.246H185" stroke="white" stroke-width="2"/>
<path d="M180 561.121H188" stroke="white" stroke-width="2"/>
<path d="M152.422 629.285V626.863H164.004V629.285H159.668V641.004H156.758V629.285H152.422ZM164.048 641.004V630.398H166.841V632.234H166.959C167.349 630.926 168.326 630.242 169.517 630.242C169.81 630.242 170.181 630.281 170.435 630.34V632.918C170.162 632.84 169.615 632.762 169.205 632.762C167.896 632.762 166.939 633.68 166.939 634.969V641.004H164.048ZM170.441 638.035C170.441 635.672 172.355 634.891 174.386 634.773C175.148 634.725 176.573 634.656 177.023 634.637V633.777C177.003 632.898 176.398 632.371 175.323 632.371C174.347 632.371 173.722 632.82 173.566 633.543H170.812C170.987 631.707 172.589 630.262 175.402 630.262C177.706 630.262 179.894 631.297 179.894 633.855V641.004H177.159V639.539H177.081C176.554 640.516 175.558 641.199 173.976 641.199C171.945 641.199 170.441 640.145 170.441 638.035ZM173.214 637.957C173.214 638.777 173.878 639.207 174.796 639.207C176.105 639.207 177.042 638.328 177.023 637.215V636.434C176.583 636.453 175.353 636.521 174.855 636.57C173.859 636.668 173.214 637.137 173.214 637.957ZM184.391 634.871V641.004H181.501V630.398H184.255V632.254H184.372C184.86 631.023 185.993 630.262 187.555 630.262C189.763 630.262 191.227 631.766 191.208 634.246V641.004H188.337V634.754C188.337 633.445 187.614 632.664 186.423 632.664C185.212 632.664 184.391 633.465 184.391 634.871ZM198.909 633.543C198.791 632.801 198.127 632.312 197.17 632.312C196.233 632.312 195.51 632.762 195.53 633.406C195.51 633.875 195.901 634.246 196.897 634.461L198.791 634.852C200.842 635.281 201.838 636.199 201.858 637.723C201.838 639.812 199.963 641.219 197.151 641.219C194.28 641.219 192.6 639.93 192.366 637.859H195.276C195.412 638.699 196.096 639.129 197.151 639.129C198.205 639.129 198.909 638.699 198.909 638.016C198.909 637.469 198.459 637.137 197.463 636.922L195.705 636.57C193.694 636.18 192.639 635.125 192.659 633.562C192.639 631.531 194.397 630.262 197.131 630.262C199.807 630.262 201.467 631.531 201.623 633.543H198.909ZM204.734 641.18C203.816 641.18 203.074 640.438 203.094 639.539C203.074 638.641 203.816 637.918 204.734 637.918C205.594 637.918 206.355 638.641 206.355 639.539C206.355 640.438 205.594 641.18 204.734 641.18ZM210.956 629.285V626.863H222.538V629.285H218.202V641.004H215.292V629.285H210.956ZM221.743 638.035C221.743 635.672 223.657 634.891 225.688 634.773C226.45 634.725 227.876 634.656 228.325 634.637V633.777C228.305 632.898 227.7 632.371 226.626 632.371C225.649 632.371 225.024 632.82 224.868 633.543H222.114C222.29 631.707 223.891 630.262 226.704 630.262C229.009 630.262 231.196 631.297 231.196 633.855V641.004H228.462V639.539H228.384C227.856 640.516 226.86 641.199 225.278 641.199C223.247 641.199 221.743 640.145 221.743 638.035ZM224.516 637.957C224.516 638.777 225.18 639.207 226.098 639.207C227.407 639.207 228.345 638.328 228.325 637.215V636.434C227.886 636.453 226.655 636.521 226.157 636.57C225.161 636.668 224.516 637.137 224.516 637.957ZM238.858 633.543C238.741 632.801 238.077 632.312 237.12 632.312C236.182 632.312 235.459 632.762 235.479 633.406C235.459 633.875 235.85 634.246 236.846 634.461L238.741 634.852C240.791 635.281 241.787 636.199 241.807 637.723C241.787 639.812 239.912 641.219 237.1 641.219C234.229 641.219 232.549 639.93 232.315 637.859H235.225C235.362 638.699 236.045 639.129 237.1 639.129C238.155 639.129 238.858 638.699 238.858 638.016C238.858 637.469 238.409 637.137 237.412 636.922L235.655 636.57C233.643 636.18 232.588 635.125 232.608 633.562C232.588 631.531 234.346 630.262 237.08 630.262C239.756 630.262 241.416 631.531 241.573 633.543H238.858ZM242.984 641.004V626.863H245.875V634.461H246.031L249.469 630.398H252.789L248.844 634.988L253.004 641.004H249.605L246.695 636.688L245.875 637.605V641.004H242.984Z" fill="black"/>
<defs>
<linearGradient id="paint0_linear_127_1572" x1="523.427" y1="638.017" x2="448.318" y2="637.333" gradientUnits="userSpaceOnUse">
<stop stop-color="#4769E9"/>
<stop offset="1" stop-color="#3BA6F7"/>
</linearGradient>
<linearGradient id="paint1_linear_127_1572" x1="290.528" y1="455.006" x2="215.42" y2="454.322" gradientUnits="userSpaceOnUse">
<stop stop-color="#4769E9"/>
<stop offset="1" stop-color="#3BA6F7"/>
</linearGradient>
<linearGradient id="paint2_linear_127_1572" x1="514.716" y1="198.502" x2="439.607" y2="197.818" gradientUnits="userSpaceOnUse">
<stop stop-color="#4769E9"/>
<stop offset="1" stop-color="#3BA6F7"/>
</linearGradient>
<linearGradient id="paint3_linear_127_1572" x1="878.716" y1="509.006" x2="803.607" y2="508.322" gradientUnits="userSpaceOnUse">
<stop stop-color="#4769E9"/>
<stop offset="1" stop-color="#3BA6F7"/>
</linearGradient>
<clipPath id="clip0_127_1572">
<rect width="40" height="42.16" fill="white" transform="translate(606.969 662.438)"/>
</clipPath>
<clipPath id="clip1_127_1572">
<rect width="35" height="35" fill="white" transform="translate(524.891 288.004)"/>
</clipPath>
<clipPath id="clip2_127_1572">
<rect width="48" height="44" fill="white" transform="translate(670.969 20)"/>
</clipPath>
<clipPath id="clip3_127_1572">
<rect width="43" height="42" fill="white" transform="translate(673.469 284.504)"/>
</clipPath>
<clipPath id="clip4_127_1572">
<rect width="32.4765" height="32.4765" fill="white" transform="translate(1043.39 336.492)"/>
</clipPath>
<clipPath id="clip5_127_1572">
<rect width="30" height="40" fill="white" transform="translate(1115.63 462.254)"/>
</clipPath>
</defs>
</svg>
