<svg width="233" height="40" viewBox="0 0 233 40" fill="none" xmlns="http://www.w3.org/2000/svg">
<g clip-path="url(#clip0_3416_21744)">
<path d="M63.6073 19.2038C63.0049 18.6122 62.1924 18.0653 61.2467 17.601C60.2591 17.178 59.0577 16.9681 57.6848 16.9269C56.6971 16.9269 55.7095 16.9269 54.7673 16.8856C53.7796 16.8856 52.792 16.8443 51.8498 16.8443C50.8201 16.8443 50.0461 16.6758 49.5312 16.3387C48.9288 16.0429 48.5436 15.7059 48.2879 15.2863C48.0287 14.9079 47.8606 14.5261 47.8151 14.1891C47.7275 13.852 47.7275 13.6835 47.7275 13.6835V11.6198C47.7275 10.9869 47.8151 10.4401 48.0707 10.017C48.2844 9.59395 48.5856 9.25688 48.9288 9.0058C49.23 8.796 49.5733 8.62746 49.9585 8.5002C50.3018 8.41766 50.645 8.37294 50.9882 8.37294H61.0611C61.2747 8.37294 61.4043 8.2904 61.4043 8.03588L64.5075 5.67641C64.5075 5.50788 64.3779 5.38062 64.1642 5.38062H50.9882C50.1301 5.38062 49.2721 5.50788 48.498 5.75896C47.682 6.05475 46.9535 6.43309 46.3511 6.93869C45.6646 7.48556 45.1497 8.11842 44.8065 8.87854C44.3757 9.67994 44.2041 10.6052 44.2041 11.6164V13.68C44.2041 14.1856 44.3337 14.8185 44.5894 15.4926C44.803 16.208 45.2338 16.8822 45.8327 17.515C46.4351 18.1892 47.2057 18.7807 48.1933 19.2004C49.139 19.6647 50.3823 19.8745 51.8428 19.8745L57.6813 19.9605C58.669 19.9605 59.443 20.129 60.0419 20.4248C60.5568 20.7619 60.9876 21.1402 61.2432 21.522C61.5024 21.945 61.6285 22.2821 61.7161 22.6192C61.7581 22.9562 61.8036 23.1248 61.8036 23.1248V26.4542C61.8036 27.1283 61.674 27.6339 61.4604 28.0122C61.2047 28.4319 60.9455 28.7724 60.6443 29.0234C60.3011 29.278 59.9158 29.4465 59.5726 29.529C59.1418 29.6563 58.7986 29.6976 58.5429 29.6976H47.2407C47.027 29.6976 46.9395 29.8248 46.9395 30.0346L44.6349 32.3528C44.6349 32.5626 44.7225 32.6899 44.9361 32.6899H58.5429C59.401 32.6899 60.2591 32.5626 61.1171 32.3116C61.9332 32.0158 62.6617 31.6374 63.3061 31.1318C63.905 30.6262 64.3779 29.9521 64.7666 29.1507C65.1099 28.3906 65.3235 27.4654 65.3235 26.4542V23.1248C65.3235 22.5332 65.1939 21.9038 64.9383 21.1849C64.637 20.5108 64.2098 19.8367 63.6073 19.2038Z" fill="#00384E"/>
<path d="M156.56 10.3919C156.732 9.96889 157.033 9.59055 157.418 9.25349C157.762 8.99897 158.147 8.78916 158.62 8.62063C159.051 8.49337 159.478 8.41082 159.909 8.41082H168.258C168.472 8.41082 168.602 8.32827 168.602 8.07375L171.54 5.66957C171.54 5.50104 171.411 5.37378 171.197 5.37378H159.909C157.636 5.37378 155.874 5.96537 154.627 7.05911C153.338 8.23885 152.697 9.88291 152.697 12.0326V32.3494C152.697 32.5592 152.781 32.6865 153.04 32.6865L155.916 29.8662C156.088 29.8662 156.217 29.7389 156.217 29.5291V20.3354H166.385C166.556 20.3354 166.686 20.2494 166.686 19.9983L168.752 17.6389C168.752 17.4291 168.623 17.3018 168.451 17.3018H156.217V12.0326C156.217 11.441 156.301 10.8941 156.56 10.3885V10.3919Z" fill="#00384E"/>
<path d="M175.852 5.2085L172.976 8.16987C172.717 8.16987 172.633 8.29713 172.633 8.50694V32.3561C172.633 32.5659 172.72 32.6932 172.976 32.6932L175.852 29.7043C176.023 29.7043 176.153 29.577 176.153 29.3672V5.54556C176.153 5.33576 176.023 5.2085 175.852 5.2085Z" fill="#00384E"/>
<path d="M232.657 11.5303L229.824 14.3954C229.568 14.3954 229.48 14.5226 229.48 14.7325V26.0276C229.48 26.492 229.393 26.9116 229.309 27.3346C229.137 27.7989 228.923 28.1773 228.664 28.5144C228.363 28.8514 227.978 29.1472 227.547 29.3157C227.032 29.5703 226.475 29.6528 225.789 29.6528H223.684C222.353 29.6528 221.411 29.3157 220.85 28.5556C220.252 27.8815 219.992 27.0388 219.992 26.0276V16.3043C219.992 16.3043 219.989 16.2871 219.989 16.2768C219.964 15.3412 219.19 14.5914 218.234 14.5914C217.278 14.5914 216.574 15.2828 216.49 16.1633C216.479 16.2045 216.472 16.2527 216.472 16.3043V26.0276C216.472 27.0388 216.171 27.8815 215.656 28.5556C215.054 29.3157 214.112 29.6528 212.781 29.6528H210.722C210.035 29.6528 209.433 29.5703 209.005 29.3157C208.49 29.1472 208.105 28.8514 207.846 28.5144C207.545 28.1773 207.331 27.7989 207.244 27.3346C207.072 26.915 207.03 26.492 207.03 26.0276V11.8639C207.03 11.6541 206.9 11.5269 206.687 11.5269H197.906C199.069 12.3592 200.043 13.3773 200.859 14.5605H203.514V26.0242C203.514 28.0053 204.116 29.6081 205.317 30.8291C206.477 32.0501 208.277 32.683 210.725 32.683H212.784C213.944 32.683 214.973 32.4732 215.916 32.1361C216.774 31.7578 217.548 31.2934 218.234 30.7466C218.879 31.2934 219.649 31.7578 220.595 32.1361C221.453 32.4732 222.483 32.683 223.684 32.683H225.789C228.191 32.683 229.995 32.0501 231.196 30.8291C232.398 29.6081 233 28.0053 233 26.0242V11.8605C233 11.6507 232.871 11.5234 232.657 11.5234V11.5303Z" fill="#00384E"/>
<path d="M99.6263 12.882C97.9802 11.9808 96.1309 11.5303 94.0785 11.5303C92.0261 11.5303 90.1769 11.9808 88.5307 12.882C86.8846 13.7831 85.5887 15.042 84.6431 16.6619C83.6974 18.2785 83.2246 20.1083 83.2246 22.1513C83.2246 24.1944 83.6974 26.0207 84.6431 27.6407C85.5887 29.2572 86.8846 30.523 88.5307 31.4378C90.1769 32.3527 92.0261 32.8102 94.0785 32.8102C96.1309 32.8102 97.9802 32.3527 99.6263 31.4378C101.272 30.523 102.561 29.2572 103.493 27.6407C104.425 26.0241 104.89 24.1944 104.89 22.1513C104.89 20.1083 104.425 18.2819 103.493 16.6619C102.561 15.0454 101.272 13.7866 99.6263 12.882ZM100.453 26.0895C99.8294 27.2452 98.9573 28.136 97.8471 28.762C96.7333 29.3879 95.476 29.7009 94.075 29.7009C92.6741 29.7009 91.4167 29.3879 90.3064 28.762C89.1927 28.136 88.3171 27.2452 87.6796 26.0895C87.0422 24.9338 86.7235 23.62 86.7235 22.1479C86.7235 20.6758 87.0422 19.3585 87.6796 18.2063C88.3171 17.0506 89.1927 16.1598 90.3064 15.5338C91.4202 14.9078 92.6741 14.5948 94.075 14.5948C95.476 14.5948 96.7333 14.9078 97.8471 15.5338C98.9608 16.1598 99.8294 17.0506 100.453 18.2063C101.08 19.3619 101.392 20.6758 101.392 22.1479C101.392 23.62 101.08 24.9373 100.453 26.0895Z" fill="#00384E"/>
<path d="M82.0022 14.5639C82.8182 13.3807 83.7919 12.3592 84.9547 11.5303H72.4476V4.87149C72.4476 4.66168 72.318 4.53442 72.1464 4.53442L69.271 7.31007C69.0153 7.31007 68.9277 7.43733 68.9277 7.64713V26.2408C68.9277 26.915 69.0573 27.5891 69.313 28.3045C69.5687 29.0646 69.9574 29.78 70.5563 30.4129C71.1132 31.0458 71.8452 31.5926 72.7874 32.057C73.6455 32.48 74.7627 32.6898 76.0936 32.6898H79.6556C79.8692 32.6898 79.9988 32.5626 79.9988 32.3527V29.9933C79.9988 29.7835 79.8692 29.6562 79.6556 29.6562H76.0936C75.148 29.6562 74.4615 29.4877 73.9922 29.1093C73.4773 28.7723 73.1341 28.3939 72.9205 27.9709C72.6613 27.5478 72.5352 27.1695 72.5352 26.7911C72.4476 26.4541 72.4476 26.2443 72.4476 26.2443V14.5673H82.0022V14.5639Z" fill="#00384E"/>
<path d="M195.154 12.882C193.508 11.9808 191.658 11.5303 189.606 11.5303C187.553 11.5303 185.704 11.9808 184.058 12.882C182.412 13.7831 181.116 15.042 180.17 16.6619C179.225 18.2785 178.752 20.1083 178.752 22.1513C178.752 24.1944 179.225 26.0207 180.17 27.6407C181.116 29.2572 182.412 30.523 184.058 31.4378C185.704 32.3527 187.553 32.8102 189.606 32.8102C191.658 32.8102 193.508 32.3527 195.154 31.4378C196.8 30.523 198.089 29.2572 199.02 27.6407C199.952 26.0241 200.418 24.1944 200.418 22.1513C200.418 20.1083 199.952 18.2819 199.02 16.6619C198.089 15.0454 196.8 13.7866 195.154 12.882ZM195.984 26.0895C195.36 27.2452 194.488 28.136 193.378 28.762C192.264 29.3879 191.007 29.7009 189.606 29.7009C188.205 29.7009 186.948 29.3879 185.837 28.762C184.724 28.136 183.848 27.2452 183.21 26.0895C182.573 24.9338 182.254 23.62 182.254 22.1479C182.254 20.6758 182.573 19.3585 183.21 18.2063C183.848 17.0506 184.724 16.1598 185.837 15.5338C186.951 14.9078 188.208 14.5948 189.606 14.5948C191.003 14.5948 192.264 14.9078 193.378 15.5338C194.492 16.1598 195.36 17.0506 195.984 18.2063C196.607 19.3619 196.922 20.6758 196.922 22.1479C196.922 23.62 196.611 24.9373 195.984 26.0895Z" fill="#00384E"/>
<path d="M148.45 12.2939H143.164L133.021 21.2537L145.164 32.4044H150.449L138.117 21.2537L148.45 12.2939Z" fill="#00384E"/>
<path d="M129.032 7.54053V32.4044L133.021 29.701V21.2536V4.53101L129.032 7.54053Z" fill="#00384E"/>
<path d="M121.239 28.3252C120.188 28.9134 119.025 29.2057 117.754 29.2057C116.483 29.2057 115.351 28.9134 114.294 28.3252C113.236 27.7371 112.399 26.8944 111.779 25.8006C111.159 24.7035 110.851 23.5272 110.851 22.2683C110.851 20.3216 111.53 18.6569 112.889 17.2811C114.248 15.9053 115.87 15.2174 117.758 15.2174C119.645 15.2174 121.267 15.9053 122.626 17.2811L125.26 15.2759C123.27 13.1366 120.77 12.0669 117.758 12.0669C114.745 12.0669 112.245 13.1434 110.255 15.2931C108.459 17.257 107.559 19.5718 107.559 22.2374C107.559 24.9029 108.508 27.2555 110.406 29.2607C112.304 31.2659 114.756 32.2703 117.754 32.2703C120.752 32.2703 123.19 31.2659 125.095 29.2607C125.732 28.59 126.261 27.8815 126.685 27.1386L123.736 25.8006C123.123 26.8978 122.29 27.7371 121.239 28.3252Z" fill="#00384E"/>
<path d="M6.37085 22.5882L13.183 26.4507C13.183 26.4507 24.6253 19.6303 24.6428 19.6234L25.662 19.0352L31.9208 15.4135L25.662 11.7126L12.8328 18.8805L6.41288 15.183V15.128L19.0145 7.8226L25.6655 11.5922L31.9243 7.8226L19.0075 0.5L0 11.4891V31.3794L6.34633 27.7061L6.37085 22.5848V22.5882Z" fill="#3777BC"/>
<path d="M25.6584 20.6483V24.5831L12.8292 31.9951L7.25689 28.8033L0.914062 32.4732L13.1829 39.5L31.9172 28.4662V17.03L25.6584 20.6483Z" fill="#3777BC"/>
</g>
<defs>
<clipPath id="clip0_3416_21744">
<rect width="233" height="39" fill="white" transform="translate(0 0.5)"/>
</clipPath>
</defs>
</svg>
