<svg width="60" height="60" viewBox="0 0 60 60" fill="none" xmlns="http://www.w3.org/2000/svg">
<path fill-rule="evenodd" clip-rule="evenodd" d="M24.8544 13.2704C20.3962 14.4321 16.6896 17.404 14.6019 21.3353H21.5411C21.9036 19.5355 22.3962 17.8977 22.9945 16.4874C23.5234 15.2406 24.1457 14.1459 24.8544 13.2704ZM32.7516 13.1531C33.3877 13.9128 33.9544 14.8456 34.4475 15.9019C35.1649 17.4388 35.7479 19.2827 36.1614 21.3353H43.4839C41.3218 17.2638 37.4229 14.2215 32.7516 13.1531ZM36.4657 23.0904H44.2824C44.5591 23.8136 44.7839 24.5618 44.9523 25.3305C45.055 25.7994 45.5256 26.0978 46.0035 25.997C46.4814 25.8963 46.7856 25.4346 46.6829 24.9657C44.9346 16.9837 37.702 11 29.0428 11C19.078 11 11 18.9252 11 28.7014C11 38.4776 19.078 46.4027 29.0428 46.4027C31.1909 46.4027 33.2532 46.0341 35.1663 45.3569C35.6261 45.1942 35.8644 44.6966 35.6985 44.2455C35.5326 43.7945 35.0255 43.5607 34.5657 43.7234C33.9755 43.9323 33.3693 44.1087 32.7494 44.2504C33.2889 43.6061 33.771 42.8478 34.1925 42.0228C34.3263 41.7611 34.4556 41.4897 34.5803 41.2094C34.7758 40.7699 34.5711 40.2581 34.1231 40.0663C33.6751 39.8745 33.1535 40.0753 32.958 40.5148C32.8451 40.7684 32.7291 41.0118 32.6101 41.2447C31.4055 43.6025 30.0431 44.6343 28.8513 44.6343C28.1759 44.6343 27.4521 44.3153 26.7079 43.5733C25.9606 42.8282 25.2469 41.7055 24.6287 40.248C24.0788 38.9517 23.6181 37.4232 23.2763 35.7243H32.397C32.8858 35.7243 33.2821 35.3356 33.2821 34.8561C33.2821 34.3765 32.8858 33.9878 32.397 33.9878H22.9776C22.7395 32.3356 22.6091 30.5577 22.6091 28.7013C22.6091 26.7228 22.7572 24.8334 23.026 23.0904H34.6765C34.8678 24.3308 34.9981 25.6462 35.0572 27.0162C35.0812 27.5701 35.0934 28.1322 35.0934 28.7013C35.0934 29.1809 35.4897 29.5696 35.9784 29.5696C36.4672 29.5696 36.8635 29.1809 36.8635 28.7013C36.8635 28.1078 36.8507 27.5211 36.8257 26.9427C36.7682 25.6118 36.6461 24.3216 36.4657 23.0904ZM34.3551 21.3353C33.9711 19.5372 33.453 17.942 32.8382 16.625C32.2347 15.3323 31.5561 14.3466 30.8556 13.6955C30.1596 13.0486 29.4853 12.7684 28.8513 12.7684C28.1759 12.7684 27.4521 13.0873 26.7079 13.8294C25.9606 14.5745 25.2469 15.6972 24.6287 17.1547C24.116 18.3631 23.681 19.7733 23.3474 21.3353H34.3551ZM21.2368 23.0904H13.8035C13.1354 24.836 12.7701 26.7268 12.7701 28.7014C12.7701 30.5542 13.0918 32.3332 13.6834 33.9878H21.1908C20.9617 32.3163 20.839 30.5396 20.839 28.7013C20.839 26.7436 20.9782 24.8557 21.2368 23.0904ZM21.474 35.7243H14.4251C16.4761 39.8255 20.2674 42.9371 24.8545 44.1324C24.1458 43.2569 23.5234 42.1621 22.9945 40.9152C22.3584 39.4159 21.8418 37.6594 21.474 35.7243ZM44.2508 27.5084L44.6226 27.6771L52.4867 31.2479L53 31.4809V32.0358V37.3919C53 42.6853 49.4246 47.7093 44.4689 48.9456L44.2508 49L44.0327 48.9456C39.0771 47.7093 35.5017 42.6853 35.5017 37.3919V32.0358V31.4809L36.015 31.2479L43.8791 27.6771L44.2508 27.5084ZM37.2718 32.5908V37.3919C37.2718 41.9243 40.2954 46.0967 44.2508 47.2048C48.2063 46.0967 51.2299 41.9243 51.2299 37.3919V32.5908L44.2508 29.4219L37.2718 32.5908ZM48.0636 34.8591L42.8524 39.8738L40.724 37.8257L39.4846 39.0655L42.2326 41.7099L42.8524 42.3063L43.4721 41.7099L49.3031 36.0988L48.0636 34.8591Z" fill="white"/>
</svg>
