<svg width="60" height="60" viewBox="0 0 60 60" fill="none" xmlns="http://www.w3.org/2000/svg">
<g opacity="0.6">
<path d="M35.527 11H9C7.89543 11 7 11.8954 7 13V30.2764C7 31.3809 7.89543 32.2764 9 32.2764H35.527C36.6315 32.2764 37.527 31.3809 37.527 30.2764V13C37.527 11.8954 36.6315 11 35.527 11Z" stroke="white" stroke-width="2" stroke-miterlimit="10"/>
<path d="M22.2656 38.7766V32.2734" stroke="white" stroke-width="2" stroke-miterlimit="10"/>
<path d="M14.6172 38.7812H29.8992" stroke="white" stroke-width="2" stroke-miterlimit="10" stroke-linecap="round"/>
</g>
<path d="M42.0531 34.3316C42.0531 34.3316 40.684 29.1975 35.3741 29.5398C30.0643 29.8821 28.0107 35.0162 29.3797 38.2724C29.3797 38.2724 26.2993 37.5878 24.4122 39.2992C22.5251 41.0106 22.3585 44.4333 23.8941 46.1446C25.4297 47.856 27.3169 48.0318 27.3169 48.0318H47.4462C47.4462 48.0318 51.8124 47.5137 52.1547 43.7487C52.497 39.9837 50.1011 38.2724 47.7052 38.0966C47.7052 38.0966 48.5655 35.7007 46.3361 34.1559C44.1067 32.611 42.0531 34.3316 42.0531 34.3316Z" fill="white"/>
</svg>
