<svg width="60" height="60" viewBox="0 0 60 60" fill="none" xmlns="http://www.w3.org/2000/svg">
<path d="M16.4388 9.04854H40.2525C40.5864 9.04854 40.8686 9.30255 40.9122 9.64231L42.0007 18.1329C42.0019 18.1666 42.0047 18.2007 42.0093 18.2349L42.1596 19.3719L42.1639 19.4058L42.3277 20.6436C42.4018 21.2042 42.9047 21.5969 43.4509 21.5209C43.9971 21.4448 44.3798 20.9287 44.3057 20.3682L44.138 19.0999L42.8912 9.37507C42.7169 8.01601 41.5882 7 40.2525 7H16.4388C15.1031 7 13.9744 8.01601 13.8001 9.37507L9.02317 46.6342C8.81343 48.2701 10.0541 49.7219 11.6619 49.7219H24.9328L24.933 49.7174H26.9213C27.4725 49.7174 27.9193 49.2588 27.9193 48.6931C27.9193 48.1274 27.4725 47.6688 26.9213 47.6688H20.9309C20.899 47.6688 20.8675 47.6704 20.8365 47.6734H11.6619C11.2599 47.6734 10.9498 47.3104 11.0022 46.9014L15.7791 9.64231C15.8227 9.30255 16.1049 9.04854 16.4388 9.04854Z" fill="white"/>
<path d="M28.3456 22.8395C27.0189 22.8395 25.6473 21.9143 24.5538 20.0439C23.4722 18.1939 22.7709 15.572 22.7709 12.6211H20.7748C20.7748 15.8794 21.5448 18.8788 22.8421 21.0979C24.1275 23.2965 26.0423 24.888 28.3456 24.888C30.6489 24.888 32.5637 23.2965 33.8491 21.0979C35.1464 18.8788 35.9164 15.8794 35.9164 12.6211H33.9204C33.9204 15.572 33.219 18.1939 32.1375 20.0439C31.044 21.9143 29.6723 22.8395 28.3456 22.8395Z" fill="white"/>
<path fill-rule="evenodd" clip-rule="evenodd" d="M45.0598 28.6134H47.4722C48.8908 28.6134 50.0601 29.7554 50.1304 31.2095L50.9967 49.1333C51.0721 50.693 49.8602 52 48.3385 52H33.3146C31.793 52 30.5811 50.693 30.6565 49.1333L31.5228 31.2095C31.593 29.7554 32.7623 28.6134 34.1809 28.6134H36.5933C36.6622 26.2748 38.5311 24.4006 40.8266 24.4006C43.122 24.4006 44.991 26.2748 45.0598 28.6134ZM43.062 28.6134C42.9945 27.4065 42.0195 26.4492 40.8266 26.4492C39.6337 26.4492 38.6587 27.4065 38.5912 28.6134H43.062ZM34.1809 30.662H47.4722C47.8268 30.662 48.1192 30.9474 48.1367 31.311L49.003 49.2348C49.0219 49.6247 48.7189 49.9515 48.3385 49.9515H33.3146C32.9342 49.9515 32.6312 49.6247 32.6501 49.2348L33.5164 31.311C33.534 30.9474 33.8263 30.662 34.1809 30.662Z" fill="white"/>
</svg>
