<svg width="60" height="60" viewBox="0 0 60 60" fill="none" xmlns="http://www.w3.org/2000/svg">
<path fill-rule="evenodd" clip-rule="evenodd" d="M7.9343 35.9384V18.1527H43.4204V24.3967C43.4204 24.9321 43.8534 25.3661 44.3876 25.3661C44.9217 25.3661 45.3547 24.9321 45.3547 24.3967V12.8549C45.3547 10.7259 43.633 9 41.5091 9H9.84565C7.72175 9 6 10.7259 6 12.8549V35.9384C6 38.0674 7.72175 39.7933 9.84565 39.7933H25.6774C26.2115 39.7933 26.6445 39.3592 26.6445 38.8238C26.6445 38.2884 26.2115 37.8543 25.6774 37.8543H9.84565C8.79004 37.8543 7.9343 36.9965 7.9343 35.9384ZM9.84565 10.939C8.79004 10.939 7.9343 11.7968 7.9343 12.8549V16.2137H43.4204V12.8549C43.4204 11.7968 42.5647 10.939 41.5091 10.939H9.84565Z" fill="white"/>
<path d="M30.2427 30.3818V22.4806C30.2427 21.9452 29.8097 21.5111 29.2756 21.5111C28.7414 21.5111 28.3084 21.9452 28.3084 22.4806V30.3818C28.3084 30.9173 28.7414 31.3513 29.2756 31.3513C29.8097 31.3513 30.2427 30.9173 30.2427 30.3818Z" fill="white"/>
<path d="M23.0464 25.366V33.5261C23.0464 34.0615 22.6134 34.4956 22.0792 34.4956C21.5451 34.4956 21.1121 34.0615 21.1121 33.5261V25.366C21.1121 24.8306 21.5451 24.3966 22.0792 24.3966C22.6134 24.3966 23.0464 24.8306 23.0464 25.366Z" fill="white"/>
<path d="M15.8503 28.2518V33.5264C15.8503 34.0618 15.4173 34.4959 14.8832 34.4959C14.3491 34.4959 13.916 34.0618 13.916 33.5264V28.2518C13.916 27.7163 14.3491 27.2823 14.8832 27.2823C15.4173 27.2823 15.8503 27.7163 15.8503 28.2518Z" fill="white"/>
<path d="M37.4388 24.5114V26.1982C37.4388 26.7336 37.0057 27.1677 36.4716 27.1677C35.9375 27.1677 35.5044 26.7336 35.5044 26.1982V24.5114C35.5044 23.9759 35.9375 23.5419 36.4716 23.5419C37.0057 23.5419 37.4388 23.9759 37.4388 24.5114Z" fill="white"/>
<path fill-rule="evenodd" clip-rule="evenodd" d="M38.2996 29.1979C33.9739 29.1979 30.4672 32.713 30.4672 37.0492C30.4672 41.3853 33.9739 44.9004 38.2996 44.9004C40.2659 44.9004 42.063 44.1741 43.4385 42.9744L45.5228 45.0639L45.1088 45.4788C44.7311 45.8574 44.7311 46.4713 45.1088 46.8499L49.9633 51.716C50.341 52.0947 50.9534 52.0947 51.3311 51.716L53.7167 49.3246C54.0944 48.946 54.0944 48.3322 53.7167 47.9536L48.8623 43.0874C48.4846 42.7088 47.8722 42.7088 47.4945 43.0874L46.8906 43.6928L44.7324 41.5294C45.6147 40.2588 46.132 38.7146 46.132 37.0492C46.132 32.713 42.6253 29.1979 38.2996 29.1979ZM32.4015 37.0492C32.4015 33.7839 35.0422 31.1369 38.2996 31.1369C41.557 31.1369 44.1977 33.7839 44.1977 37.0492C44.1977 40.3145 41.557 42.9615 38.2996 42.9615C35.0422 42.9615 32.4015 40.3145 32.4015 37.0492ZM50.6472 49.6595L47.1605 46.1644L48.1784 45.144L51.6651 48.6391L50.6472 49.6595Z" fill="white"/>
</svg>
