<svg width="60" height="60" viewBox="0 0 60 60" fill="none" xmlns="http://www.w3.org/2000/svg">
<path d="M14.4586 17.792C14.4586 18.6806 13.7326 19.401 12.837 19.401C11.9414 19.401 11.2153 18.6806 11.2153 17.792C11.2153 16.9033 11.9414 16.1829 12.837 16.1829C13.7326 16.1829 14.4586 16.9033 14.4586 17.792Z" fill="white"/>
<path fill-rule="evenodd" clip-rule="evenodd" d="M7 14.2507C7 13.0077 8.01557 12 9.26835 12H43.4332C44.686 12 45.7016 13.0077 45.7016 14.2507V21.3327C45.7016 22.5758 44.686 23.5834 43.4332 23.5834H9.26835C8.01558 23.5834 7 22.5758 7 21.3327V14.2507ZM9.26835 13.9292C9.08938 13.9292 8.9443 14.0731 8.9443 14.2507V21.3327C8.9443 21.5103 9.08938 21.6543 9.26835 21.6543H43.4332C43.6122 21.6543 43.7573 21.5103 43.7573 21.3327V14.2507C43.7573 14.0731 43.6122 13.9292 43.4332 13.9292H9.26835Z" fill="white"/>
<path d="M12.837 32.1089C13.7326 32.1089 14.4586 31.3886 14.4586 30.4999C14.4586 29.6113 13.7326 28.8909 12.837 28.8909C11.9414 28.8909 11.2153 29.6113 11.2153 30.4999C11.2153 31.3886 11.9414 32.1089 12.837 32.1089Z" fill="white"/>
<path d="M14.4586 43.2082C14.4586 44.0968 13.7326 44.8172 12.837 44.8172C11.9414 44.8172 11.2153 44.0968 11.2153 43.2082C11.2153 42.3195 11.9414 41.5991 12.837 41.5991C13.7326 41.5991 14.4586 42.3195 14.4586 43.2082Z" fill="white"/>
<path d="M9.26835 24.7083C8.01557 24.7083 7 25.7159 7 26.959V34.041C7 35.284 8.01557 36.2917 9.26835 36.2917H29.0335C29.5704 36.2917 30.0057 35.8598 30.0057 35.3271C30.0057 34.7944 29.5704 34.3625 29.0335 34.3625H9.26835C9.08938 34.3625 8.9443 34.2186 8.9443 34.041V26.959C8.9443 26.7814 9.08938 26.6375 9.26835 26.6375H43.4332C43.6122 26.6375 43.7573 26.7814 43.7573 26.959V29.7566C43.7573 30.2893 44.1925 30.7212 44.7294 30.7212C45.2663 30.7212 45.7016 30.2893 45.7016 29.7566V26.959C45.7016 25.7159 44.686 24.7083 43.4332 24.7083H9.26835Z" fill="white"/>
<path d="M9.26835 39.3458C9.08938 39.3458 8.9443 39.4897 8.9443 39.6673V46.7493C8.9443 46.9269 9.08938 47.0708 9.26835 47.0708H21.718C22.2549 47.0708 22.6902 47.5027 22.6902 48.0354C22.6902 48.5681 22.2549 49 21.718 49H9.26835C8.01557 49 7 47.9923 7 46.7493V39.6673C7 38.4242 8.01557 37.4166 9.26835 37.4166H21.718C22.2549 37.4166 22.6902 37.8484 22.6902 38.3812C22.6902 38.9139 22.2549 39.3458 21.718 39.3458H9.26835Z" fill="white"/>
<path fill-rule="evenodd" clip-rule="evenodd" d="M29.8351 39.3785C29.7725 39.3785 29.7101 39.3797 29.6481 39.3822C27.1761 39.4796 25.2022 41.4988 25.2022 43.9754C25.2022 46.5142 27.2764 48.5724 29.8351 48.5724L29.8882 48.5721H48.314L48.367 48.5724C50.9258 48.5724 53 46.5142 53 43.9754C53 41.4986 51.0259 39.4793 48.5537 39.3821C48.4918 39.3797 48.4296 39.3785 48.367 39.3785C47.7881 39.3785 47.234 39.4838 46.7231 39.6763C46.6173 39.0275 46.4293 38.4061 46.1701 37.8228C44.9733 35.1292 42.2586 33.2488 39.1012 33.2488C35.9438 33.2488 33.229 35.1292 32.0323 37.8229C31.7731 38.4062 31.5851 39.0276 31.4793 39.6764C30.9683 39.4839 30.4141 39.3785 29.8351 39.3785ZM29.8772 46.6429L29.8663 46.643L29.8351 46.6432C28.3502 46.6432 27.1465 45.4488 27.1465 43.9754C27.1465 42.5021 28.3502 41.3077 29.8351 41.3077C30.1747 41.3077 30.4952 41.3692 30.7891 41.4799L33.0176 42.3195L33.3986 39.9847C33.8433 37.2594 36.2292 35.178 39.1012 35.178C41.9732 35.178 44.3591 37.2593 44.8038 39.9847L45.1849 42.3192L47.4132 41.4799C47.7071 41.3692 48.0276 41.3077 48.367 41.3077C49.8519 41.3077 51.0557 42.5021 51.0557 43.9754C51.0557 45.4488 49.8519 46.6432 48.367 46.6432L48.3359 46.643L48.3249 46.6429H29.8772Z" fill="white"/>
</svg>
