<svg width="60" height="60" viewBox="0 0 60 60" fill="none" xmlns="http://www.w3.org/2000/svg">
<path d="M48.125 48.125H16.0083C14.9116 48.125 14.3632 48.125 13.9443 47.9116C13.5758 47.7238 13.2762 47.4242 13.0884 47.0557C12.875 46.6368 12.875 46.0884 12.875 44.9917V12.875M48.125 20.7083L37.4828 31.3505C37.095 31.7383 36.9012 31.9322 36.6776 32.0048C36.4809 32.0687 36.2691 32.0687 36.0724 32.0048C35.8488 31.9322 35.655 31.7383 35.2672 31.3505L31.6078 27.6911C31.22 27.3034 31.0262 27.1095 30.8026 27.0368C30.6059 26.9729 30.3941 26.9729 30.1974 27.0368C29.9738 27.1095 29.78 27.3034 29.3922 27.6911L20.7083 36.375M48.125 20.7083H40.2917M48.125 20.7083V28.5417" stroke="white" stroke-width="2" stroke-linecap="round" stroke-linejoin="round"/>
</svg>
