<svg width="60" height="60" viewBox="0 0 60 60" fill="none" xmlns="http://www.w3.org/2000/svg">
<path fill-rule="evenodd" clip-rule="evenodd" d="M38.5787 17.432C36.4179 17.432 34.6663 19.1657 34.6663 21.3043C34.6663 23.4429 36.4179 25.1766 38.5787 25.1766C40.7394 25.1766 42.491 23.4429 42.491 21.3043C42.491 19.1657 40.7394 17.432 38.5787 17.432ZM36.4234 21.3043C36.4234 20.1262 37.3884 19.1712 38.5787 19.1712C39.769 19.1712 40.7339 20.1262 40.7339 21.3043C40.7339 22.4824 39.769 23.4374 38.5787 23.4374C37.3884 23.4374 36.4234 22.4824 36.4234 21.3043Z" fill="white"/>
<path fill-rule="evenodd" clip-rule="evenodd" d="M36.696 10C36.2351 10 35.8525 10.3526 35.8197 10.8076L35.6541 13.1023C35.2296 13.2506 34.8201 13.4302 34.4285 13.6383L32.7597 12.1702C32.4121 11.8643 31.8838 11.8797 31.5548 12.2052L29.3853 14.3526C29.0563 14.6781 29.0408 15.201 29.3499 15.5451L30.8332 17.1968C30.623 17.5844 30.4416 17.9896 30.2918 18.4097L27.9733 18.5736C27.5136 18.6061 27.1573 18.9848 27.1573 19.441V23.1676C27.1573 23.6239 27.5136 24.0025 27.9733 24.035L30.2918 24.1989C30.4239 24.5695 30.5807 24.9285 30.7601 25.274L29.35 26.844C29.041 27.1881 29.0565 27.711 29.3854 28.0366L31.555 30.1839C31.8839 30.5095 32.4122 30.5248 32.7599 30.219L34.2745 28.8865C34.7123 29.1304 35.1736 29.3384 35.6541 29.5063L35.8197 31.801C35.8525 32.256 36.2351 32.6086 36.696 32.6086H40.4613C40.9222 32.6086 41.3048 32.256 41.3376 31.801L41.5032 29.5063C41.9339 29.3558 42.3492 29.1731 42.7459 28.9612L44.1758 30.2192C44.5235 30.525 45.0518 30.5097 45.3807 30.1841L47.5503 28.0368C47.8792 27.7112 47.8947 27.1883 47.5857 26.8442L46.3147 25.4291C46.5289 25.0363 46.7135 24.6253 46.8655 24.1989L49.184 24.035C49.6438 24.0025 50 23.6239 50 23.1677V19.441C50 18.9848 49.6438 18.6061 49.184 18.5736L46.8655 18.4097C46.696 17.9341 46.4858 17.4776 46.2394 17.0442L47.5858 15.5449C47.8949 15.2008 47.8794 14.6779 47.5504 14.3524L45.3809 12.205C45.0519 11.8795 44.5236 11.8641 44.1759 12.17L42.5894 13.5658C42.2404 13.3883 41.8776 13.2331 41.5032 13.1023L41.3376 10.8076C41.3048 10.3526 40.9222 10 40.4613 10H36.696ZM37.3642 13.8167L37.5141 11.7391H39.6433L39.7932 13.8167C39.8198 14.1848 40.0781 14.4962 40.4378 14.5935C41.0819 14.7679 41.6894 15.0309 42.2461 15.3686C42.5761 15.5689 42.9997 15.5317 43.289 15.2772L44.7242 14.0146L45.7222 15.0023L44.4926 16.3714C44.2266 16.6677 44.1966 17.1045 44.4197 17.4337C44.8367 18.0486 45.1567 18.7326 45.3589 19.4643C45.4573 19.8202 45.7719 20.0759 46.1438 20.1022L48.2429 20.2506V22.358L46.1438 22.5064C45.7719 22.5327 45.4573 22.7884 45.3589 23.1444C45.1689 23.8319 44.8749 24.4772 44.4941 25.0629C44.2808 25.391 44.3144 25.8195 44.5763 26.1111L45.722 27.3868L44.724 28.3746L43.4351 27.2406C43.1404 26.9814 42.7075 26.9482 42.376 27.1593C41.7843 27.536 41.1324 27.8271 40.4378 28.0151C40.0781 28.1124 39.8198 28.4238 39.7932 28.7919L39.6433 30.8695H37.5141L37.3642 28.7919C37.3376 28.4238 37.0792 28.1124 36.7196 28.0151C35.9803 27.815 35.2893 27.4982 34.6679 27.0855C34.3354 26.8646 33.894 26.8943 33.5947 27.1576L32.2117 28.3744L31.2137 27.3866L32.4892 25.9664C32.7463 25.68 32.7839 25.2608 32.5816 24.9342C32.2403 24.3832 31.9746 23.7819 31.7984 23.1443C31.7001 22.7884 31.3855 22.5327 31.0136 22.5064L28.9145 22.358V20.2506L31.0136 20.1022C31.3855 20.0759 31.7001 19.8202 31.7984 19.4643C31.9869 18.7823 32.2777 18.1419 32.6539 17.5601C32.866 17.2321 32.8319 16.8046 32.5706 16.5136L31.2135 15.0025L32.2115 14.0148L33.7382 15.3579C34.0322 15.6166 34.4642 15.6503 34.7955 15.4404C35.3834 15.068 36.0305 14.7801 36.7196 14.5935C37.0792 14.4962 37.3376 14.1848 37.3642 13.8167Z" fill="white"/>
<path d="M18.8847 13.4746C20.9934 11.6705 23.4114 10.7443 25.3184 10.3942L25.3169 10.3955C25.3705 10.3854 25.4258 10.3802 25.4824 10.3802C25.9676 10.3802 26.361 10.7695 26.361 11.2497C26.361 11.6977 26.0187 12.0665 25.5789 12.1141L25.5792 12.1152C23.9553 12.4232 21.8595 13.2284 20.0338 14.7903C17.929 16.591 16.1474 19.426 15.8798 23.7804C15.8496 24.272 15.7163 24.7741 15.4567 25.2287L11.7954 31.6395C11.7168 31.777 11.764 31.9515 11.9016 32.0318L15.8033 34.309L16.6446 42.1654C16.7867 43.4923 17.9175 44.4991 19.2656 44.4991H24.1262V49.1304C24.1262 49.6107 23.7329 50 23.2476 50C22.7624 50 22.3691 49.6107 22.3691 49.1304V46.2383H19.2656C17.0188 46.2383 15.1341 44.5601 14.8973 42.3487L14.1492 35.3626L11.009 33.5299C10.0464 32.968 9.71577 31.7466 10.2657 30.7837L13.9271 24.3729C14.041 24.1734 14.11 23.9331 14.1259 23.6748C14.4225 18.8485 16.4253 15.5788 18.8847 13.4746Z" fill="white"/>
<path d="M38.9119 47.0325C38.9119 43.487 39.2611 39.9457 40.0775 36.4959L40.0888 36.498C40.1253 36.0509 40.5034 35.6993 40.9645 35.6993C41.4497 35.6993 41.8431 36.0887 41.8431 36.5689C41.8431 36.6581 41.8295 36.7441 41.8043 36.825C41.0121 40.1459 40.669 43.5746 40.669 47.0325V49.1304C40.669 49.6107 40.2757 50 39.7905 50C39.3053 50 38.9119 49.6107 38.9119 49.1304V47.0325Z" fill="white"/>
</svg>
