<svg width="253" height="100" viewBox="0 0 253 100" fill="none" xmlns="http://www.w3.org/2000/svg">
<rect width="253" height="99.1827" rx="13.4485" fill="#A9E0FF"/>
<path opacity="0.5" d="M26.8797 25.1738C26.7911 24.3317 26.1114 23.8293 25.0328 23.8293C23.9099 23.8293 23.2894 24.3464 23.2746 25.0556C23.2598 25.8239 24.0725 26.1785 24.9885 26.3854L25.9489 26.6218C27.781 27.0355 29.1551 27.9663 29.1551 29.7541C29.1551 31.7192 27.6185 32.9602 25.0181 32.9602C22.4324 32.9602 20.7776 31.7635 20.7185 29.4734H22.8757C22.9496 30.5519 23.8065 31.0986 24.9885 31.0986C26.1557 31.0986 26.9093 30.5519 26.9093 29.7541C26.9093 29.0301 26.2444 28.6903 25.0772 28.3948L23.9099 28.1141C22.1074 27.6708 20.9993 26.7695 20.9993 25.2034C20.9993 23.2531 22.7132 21.9677 25.0476 21.9677C27.4116 21.9677 28.9778 23.2826 29.0073 25.1738H26.8797ZM34.3304 24.7897V26.4297H32.8234V30.3451C32.8234 30.9804 33.1337 31.1429 33.5769 31.1577C33.7985 31.1577 34.1827 31.1429 34.4486 31.1134V32.842C34.2122 32.8864 33.8281 32.9159 33.2814 32.9159C31.7005 32.9159 30.6219 32.2067 30.6367 30.6554V26.4297H29.5286V24.7897H30.6367V22.8689H32.8234V24.7897H34.3304ZM38.7671 32.975C36.344 32.975 34.8369 31.3055 34.8369 28.8233C34.8369 26.3411 36.344 24.6863 38.7671 24.6863C41.1902 24.6863 42.712 26.3411 42.712 28.8233C42.712 31.3055 41.1902 32.975 38.7671 32.975ZM38.7818 31.2759C39.9047 31.2759 40.481 30.2269 40.481 28.8233C40.481 27.4049 39.9047 26.3558 38.7818 26.3558C37.6442 26.3558 37.0532 27.4049 37.0532 28.8233C37.0532 30.2269 37.6442 31.2759 38.7818 31.2759ZM47.2373 32.975C44.7846 32.975 43.3071 31.2759 43.3071 28.8233C43.3071 26.3706 44.7994 24.6863 47.2373 24.6863C49.3057 24.6863 50.7094 25.8978 50.798 27.7299H48.7443C48.6113 26.9321 48.0942 26.3854 47.2668 26.3854C46.2178 26.3854 45.5234 27.2719 45.5234 28.7937C45.5234 30.3451 46.203 31.2316 47.2668 31.2316C48.0351 31.2316 48.6113 30.7588 48.7443 29.9018H50.798C50.6946 31.7192 49.3648 32.975 47.2373 32.975ZM51.7034 32.8125V22.1154H53.8901V27.8629H54.0083L56.6087 24.7897H59.1205L56.1359 28.2618L59.283 32.8125H56.7121L54.5107 29.5472L53.8901 30.2417V32.8125H51.7034ZM59.7304 32.8125V22.1154H66.778V23.9475H61.9466V26.5479H66.32V28.38H61.9466V32.8125H59.7304ZM69.9292 22.1154V32.8125H67.7425V22.1154H69.9292ZM74.7796 32.975C72.3565 32.975 70.8494 31.3055 70.8494 28.8233C70.8494 26.3411 72.3565 24.6863 74.7796 24.6863C77.2027 24.6863 78.7245 26.3411 78.7245 28.8233C78.7245 31.3055 77.2027 32.975 74.7796 32.975ZM74.7943 31.2759C75.9172 31.2759 76.4935 30.2269 76.4935 28.8233C76.4935 27.4049 75.9172 26.3558 74.7943 26.3558C73.6567 26.3558 73.0657 27.4049 73.0657 28.8233C73.0657 30.2269 73.6567 31.2759 74.7943 31.2759ZM81.0187 32.8125L78.832 24.7897H81.0483L82.3042 30.2121H82.378L83.693 24.7897H85.8649L87.1947 30.1826H87.2686L88.5097 24.7897H90.7259L88.5244 32.8125H86.2195L84.8307 27.7151H84.7273L83.3384 32.8125H81.0187ZM98.9047 23.7702C98.89 26.1785 99.9242 28.6164 102.081 29.6507L100.944 31.1577C99.5031 30.4485 98.5354 29.1188 97.9739 27.4935C97.3903 29.237 96.3487 30.6627 94.8268 31.4089L93.6596 29.8871C95.935 28.838 97.0135 26.2672 97.0135 23.7702V21.7608H98.9047V23.7702ZM104.564 20.7266V25.9126H106.543V27.5083H104.564V34.1718H102.672V20.7266H104.564ZM118.84 27.0946V28.6016H106.577V27.0946H109.34V25.4841C108.357 25.0483 107.803 24.3834 107.803 23.519C107.803 21.8938 109.709 20.9187 112.709 20.9187C115.678 20.9187 117.584 21.8938 117.599 23.519C117.592 24.3908 117.016 25.0704 116.018 25.4989V27.0946H118.84ZM112.694 29.3108C115.605 29.3108 117.363 30.1678 117.378 31.7192C117.363 33.3001 115.605 34.157 112.694 34.157C109.739 34.157 107.981 33.3001 107.981 31.7192C107.981 30.1678 109.739 29.3108 112.694 29.3108ZM112.694 30.7292C110.832 30.7292 109.887 31.0543 109.901 31.7192C109.887 32.4136 110.832 32.7534 112.694 32.7534C114.511 32.7534 115.472 32.4136 115.486 31.7192C115.472 31.0543 114.511 30.7292 112.694 30.7292ZM112.709 22.3666C110.803 22.3666 109.754 22.7655 109.768 23.519C109.754 24.2578 110.803 24.6272 112.709 24.6272C114.585 24.6272 115.649 24.2578 115.649 23.519C115.649 22.7655 114.585 22.3666 112.709 22.3666ZM111.246 27.0946H114.142V25.9717C113.699 26.0234 113.218 26.0456 112.709 26.0456C112.184 26.0456 111.697 26.0234 111.246 25.9569V27.0946ZM125.331 21.4062C128.167 21.421 130.384 22.9428 130.398 25.2773C130.384 27.6265 128.167 29.1631 125.331 29.1483C122.479 29.1631 120.278 27.6265 120.278 25.2773C120.278 22.9428 122.479 21.421 125.331 21.4062ZM125.331 22.9428C123.469 22.928 122.11 23.8293 122.11 25.2773C122.11 26.74 123.469 27.6117 125.331 27.6117C127.192 27.6117 128.522 26.74 128.537 25.2773C128.522 23.8293 127.192 22.928 125.331 22.9428ZM131.507 31.01V32.5318H119.199V31.01H131.507ZM144.129 31.1282V32.6795H131.821V31.1282H137.007V29.104H133.239V24.5828H140.849V23.1053H133.225V21.5983H142.71V26.0603H135.131V27.5674H143.02V29.104H138.883V31.1282H144.129ZM159.739 26.0603V27.5526H154.538V28.4096H158.247V31.8521H150.756V32.6648H158.602V34.0831H148.909V30.5224H156.385V29.828H148.894V28.4096H152.647V27.5526H147.476V26.0603H159.739ZM158.188 21.1107V25.3511H148.998V21.1107H158.188ZM150.845 22.5734V23.9032H156.311V22.5734H150.845ZM172.391 28.6164V30.0939H169.554V34.1718H167.648V30.0939H164.841V34.1718H162.964V30.0939H160.083V28.6164H172.391ZM170.972 21.1255V25.0409H163.452V26.1342H171.283V27.6413H161.546V23.6668H169.037V22.6621H161.502V21.1255H170.972ZM188.046 28.2027V29.7245H185.165V34.1718H183.244V29.7245H180.496V34.1718H178.56V29.7245H175.738V28.2027H188.046ZM181.855 21.1698C184.736 21.1698 186.76 22.3666 186.76 24.2135C186.76 26.0308 184.736 27.1685 181.855 27.1685C178.974 27.1685 176.964 26.0308 176.979 24.2135C176.964 22.3666 178.974 21.1698 181.855 21.1698ZM181.855 22.6769C180.052 22.6769 178.9 23.2235 178.915 24.2135C178.9 25.1591 180.052 25.691 181.855 25.691C183.672 25.691 184.81 25.1591 184.81 24.2135C184.81 23.2235 183.672 22.6769 181.855 22.6769ZM200.638 27.656V29.1335H188.345V27.656H193.546V26.8286H189.882V21.0516H199.205V22.4996H191.773V23.2531H198.895V24.6124H191.773V25.3807H199.323V26.8286H195.437V27.656H200.638ZM194.492 29.7541C197.461 29.7393 199.161 30.5372 199.175 31.9556C199.161 33.4035 197.461 34.1718 194.492 34.1718C191.478 34.1718 189.778 33.4035 189.778 31.9556C189.778 30.5372 191.478 29.7393 194.492 29.7541ZM194.492 31.1429C192.556 31.1429 191.655 31.3941 191.67 31.9556C191.655 32.5318 192.556 32.783 194.492 32.783C196.383 32.783 197.269 32.5318 197.284 31.9556C197.269 31.3941 196.383 31.1429 194.492 31.1429ZM212.255 20.7266V34.2013H210.349V20.7266H212.255ZM204.957 21.6722C206.981 21.6722 208.488 23.5338 208.488 26.4593C208.488 29.4143 206.981 31.2611 204.957 31.2611C202.888 31.2611 201.381 29.4143 201.396 26.4593C201.381 23.5338 202.888 21.6722 204.957 21.6722ZM204.957 23.3713C203.907 23.3713 203.213 24.4646 203.213 26.4593C203.213 28.4687 203.907 29.5472 204.957 29.5472C205.976 29.5472 206.67 28.4687 206.67 26.4593C206.67 24.4646 205.976 23.3713 204.957 23.3713ZM31.9623 42.7414V52.8918H30.0711V51.828H27.5003V50.5425H30.0711V42.7414H31.9623ZM32.2578 54.4284V55.9354H22.2404V51.9166H24.1168V50.1288C22.9126 50.1805 21.7676 50.1879 20.7481 50.1879L20.5265 48.6957C22.9939 48.6809 26.3183 48.6513 29.1551 48.2967L29.2585 49.6413C28.1947 49.8186 27.0939 49.9441 26.008 50.0254V52.5815H24.1168V54.4284H32.2578ZM24.8999 43.1994C26.8502 43.1846 28.2538 44.1745 28.2538 45.6077C28.2538 47.0409 26.8502 47.9717 24.8999 47.9717C22.9052 47.9717 21.5164 47.0409 21.5164 45.6077C21.5164 44.1745 22.8905 43.1846 24.8999 43.1994ZM24.8999 44.5734C23.9395 44.5734 23.2894 44.9428 23.3042 45.6077C23.2894 46.2578 23.9395 46.6124 24.8999 46.6124C25.8011 46.6124 26.4512 46.2578 26.466 45.6077C26.4512 44.9428 25.8011 44.5734 24.8999 44.5734ZM43.9489 42.7266V45.9032H45.6628V47.4693H43.9489V50.646H42.0577V42.7266H43.9489ZM43.9489 51.1188V54.1329H36.7388V54.8273H44.3922V56.0831H34.8476V52.9952H42.0577V52.3746H34.8328V51.1188H43.9489ZM33.045 49.198C34.0275 49.2054 35.1431 49.2054 36.3103 49.1685V48.5775C34.8402 48.4076 33.9315 47.7944 33.9463 46.834C33.9315 45.7407 35.2317 45.1053 37.2411 45.1053C39.2357 45.1053 40.5211 45.7407 40.5359 46.834C40.5211 47.7944 39.6346 48.4002 38.1867 48.5775V49.1094C39.2874 49.0576 40.3956 48.969 41.4372 48.8286L41.5702 49.9959C38.7038 50.4834 35.5863 50.4982 33.2371 50.4982L33.045 49.198ZM41.0974 43.5687V44.8246H33.3996V43.5687H36.3103V42.6084H38.1867V43.5687H41.0974ZM37.2411 46.2726C36.2807 46.2726 35.7341 46.4499 35.7488 46.834C35.7341 47.2329 36.2807 47.4398 37.2411 47.4546C38.1867 47.4398 38.7186 47.2329 38.7334 46.834C38.7186 46.4499 38.1867 46.2726 37.2411 46.2726ZM52.3009 44.7803V46.2726H45.7999V44.7803H48.1344V43.0959H49.996V44.7803H52.3009ZM49.08 46.8783C50.7939 46.8783 52.0202 48.2081 52.035 50.0697C52.0202 51.9462 50.7939 53.2759 49.08 53.2759C47.3661 53.2759 46.1102 51.9462 46.1102 50.0697C46.1102 48.2081 47.3661 46.8783 49.08 46.8783ZM49.08 48.4445C48.2969 48.4445 47.765 49.0503 47.765 50.0697C47.765 51.0892 48.2969 51.6802 49.08 51.6802C49.8335 51.6802 50.3654 51.0892 50.3802 50.0697C50.3654 49.0503 49.8335 48.4445 49.08 48.4445ZM57.4426 42.7266V56.1718H55.6548V49.7004H54.5615V55.5956H52.8033V42.9925H54.5615V48.1933H55.6548V42.7266H57.4426ZM69.7691 42.7266V50.4982H67.8927V48.9468H66.3708L66.622 49.0355L65.6912 50.4834C64.2063 50.0106 63.1868 49.0576 62.6032 47.8535C62.0048 49.1832 60.9337 50.2323 59.3527 50.7494L58.3776 49.2571C60.6086 48.5479 61.6133 46.8488 61.6133 45.1349V45.0315H58.9538V43.5096H66.164V45.0315H63.5488V45.1201C63.534 46.5459 64.2654 47.9643 65.898 48.74V47.4398H67.8927V46.5828H65.898V45.061H67.8927V42.7266H69.7691ZM63.5045 51.3108C63.4897 52.4116 63.9477 53.5419 65.0559 54.2954C66.1566 53.4975 66.6072 52.3155 66.622 51.3108V50.9267H68.4689V51.3108C68.4689 52.7145 69.2076 54.0442 71.0397 54.6057L70.0794 55.9945C68.8013 55.5512 67.9665 54.7239 67.5085 53.6601C67.0579 54.7091 66.2674 55.6251 65.0559 56.1127C63.8148 55.6547 63.0317 54.783 62.5884 53.7339C62.1083 54.7312 61.2809 55.5512 60.0619 55.9945L59.1459 54.6057C60.9189 54.0147 61.6576 52.6554 61.6724 51.3108V50.9267H63.5045V51.3108ZM74.7672 43.6722C76.5845 43.6722 77.9364 45.1718 78.2097 47.5875H80.5442V42.7266H82.4058V56.2013H80.5442V49.0946H78.2245C78.025 51.6802 76.6436 53.2611 74.7672 53.2611C72.7282 53.2611 71.2655 51.4143 71.2803 48.4593C71.2655 45.5338 72.7282 43.6722 74.7672 43.6722ZM74.7672 45.3713C73.7625 45.3713 73.068 46.4646 73.0828 48.4593C73.068 50.4687 73.7625 51.5472 74.7672 51.5472C75.7866 51.5472 76.4515 50.4687 76.4515 48.4593C76.4515 46.4646 75.7866 45.3713 74.7672 45.3713ZM95.9882 53.0543V54.6057H83.6806V53.0543H86.4287V49.7595C85.3871 49.1389 84.7592 48.1859 84.7592 46.9965C84.7592 44.8246 86.8868 43.3767 89.8122 43.3767C92.7229 43.3767 94.8653 44.8246 94.88 46.9965C94.8726 48.1564 94.2595 49.102 93.2548 49.7299V53.0543H95.9882ZM89.8122 44.8689C87.8915 44.8689 86.6208 45.6372 86.6208 46.9965C86.6208 48.3115 87.8915 49.1241 89.8122 49.1241C91.7182 49.1241 93.0036 48.3115 93.0184 46.9965C93.0036 45.6372 91.7182 44.8689 89.8122 44.8689ZM88.2904 53.0543H91.3488V50.4391C90.8686 50.5351 90.3515 50.5869 89.8122 50.5869C89.2729 50.5869 88.7632 50.5425 88.2904 50.4391V53.0543ZM98.046 54.9455C97.3516 54.9455 96.7901 54.384 96.8049 53.7044C96.7901 53.0247 97.3516 52.4781 98.046 52.4781C98.6961 52.4781 99.2723 53.0247 99.2723 53.7044C99.2723 54.384 98.6961 54.9455 98.046 54.9455Z" fill="black"/>
<path d="M23.8032 78.6774C21.8726 78.6774 20.7465 77.126 20.7465 74.4025C20.7465 71.702 21.8956 70.1276 23.8032 70.1276C25.7108 70.1276 26.86 71.702 26.86 74.4025C26.86 77.126 25.7223 78.6774 23.8032 78.6774ZM23.8032 77.5857C24.9294 77.5857 25.5959 76.4825 25.5959 74.4025C25.5959 72.334 24.9179 71.1964 23.8032 71.1964C22.6885 71.1964 22.0105 72.334 22.0105 74.4025C22.0105 76.4825 22.6771 77.5857 23.8032 77.5857ZM30.7129 78.6774C28.7823 78.6774 27.6562 77.126 27.6562 74.4025C27.6562 71.702 28.8053 70.1276 30.7129 70.1276C32.6205 70.1276 33.7697 71.702 33.7697 74.4025C33.7697 77.126 32.632 78.6774 30.7129 78.6774ZM30.7129 77.5857C31.8391 77.5857 32.5056 76.4825 32.5056 74.4025C32.5056 72.334 31.8276 71.1964 30.7129 71.1964C29.5982 71.1964 28.9202 72.334 28.9202 74.4025C28.9202 76.4825 29.5867 77.5857 30.7129 77.5857ZM42.7019 70.2311V71.2423C42.7019 72.5179 42.7019 73.9429 42.3112 76.0458L41.208 75.9309C41.6102 73.9429 41.6102 72.4834 41.6102 71.2423V71.1159H35.3588V70.2311H42.7019ZM43.7592 77.241V78.1488H34.3705V77.241H37.9444V73.6096H39.0246V77.241H43.7592ZM52.9672 69.2543V75.3104H51.9329V72.6673H50.6918V75.2529H49.6576V69.4381H50.6918V71.7594H51.9329V69.2543H52.9672ZM52.9672 75.7585V79.5393H51.887V76.6434H45.9343V75.7585H52.9672ZM48.6923 69.9897C48.6923 72.4949 47.3478 74.3106 44.7162 75.4023L44.1876 74.5864C46.2676 73.7705 47.3937 72.4892 47.5891 70.8746H44.6357V69.9897H48.6923ZM57.5786 71.8629C57.5671 73.69 58.6243 75.5517 60.1642 76.2986L59.4862 77.172C58.3657 76.5917 57.4981 75.4368 57.0499 74.0578C56.5845 75.5287 55.6824 76.7583 54.5103 77.3674L53.8323 76.4825C55.4181 75.7241 56.4868 73.7475 56.4868 71.8629V70.1047H57.5786V71.8629ZM62.0258 69.2428V73.3453H63.6806V74.2761H62.0258V79.5393H60.9341V69.2428H62.0258Z" fill="#6B6C75"/>
</svg>
