<svg width="301" height="140" viewBox="0 0 301 140" fill="none" xmlns="http://www.w3.org/2000/svg">
<rect width="301" height="140" rx="16" fill="white"/>
<path d="M31.9805 29.9121C31.875 28.9102 31.0664 28.3125 29.7832 28.3125C28.4473 28.3125 27.709 28.9277 27.6914 29.7715C27.6738 30.6855 28.6406 31.1074 29.7305 31.3535L30.873 31.6348C33.0527 32.127 34.6875 33.2344 34.6875 35.3613C34.6875 37.6992 32.8594 39.1758 29.7656 39.1758C26.6895 39.1758 24.7207 37.752 24.6504 35.0273H27.2168C27.3047 36.3105 28.3242 36.9609 29.7305 36.9609C31.1191 36.9609 32.0156 36.3105 32.0156 35.3613C32.0156 34.5 31.2246 34.0957 29.8359 33.7441L28.4473 33.4102C26.3027 32.8828 24.9844 31.8105 24.9844 29.9473C24.9844 27.627 27.0234 26.0977 29.8008 26.0977C32.6133 26.0977 34.4766 27.6621 34.5117 29.9121H31.9805ZM40.8448 29.4551V31.4062H39.0518V36.0645C39.0518 36.8203 39.4209 37.0137 39.9483 37.0312C40.212 37.0312 40.669 37.0137 40.9854 36.9785V39.0352C40.7041 39.0879 40.2471 39.123 39.5967 39.123C37.7159 39.123 36.4327 38.2793 36.4502 36.4336V31.4062H35.1319V29.4551H36.4502V27.1699H39.0518V29.4551H40.8448ZM46.1231 39.1934C43.2403 39.1934 41.4473 37.207 41.4473 34.2539C41.4473 31.3008 43.2403 29.332 46.1231 29.332C49.0059 29.332 50.8165 31.3008 50.8165 34.2539C50.8165 37.207 49.0059 39.1934 46.1231 39.1934ZM46.1407 37.1719C47.4766 37.1719 48.1622 35.9238 48.1622 34.2539C48.1622 32.5664 47.4766 31.3184 46.1407 31.3184C44.7872 31.3184 44.0841 32.5664 44.0841 34.2539C44.0841 35.9238 44.7872 37.1719 46.1407 37.1719ZM56.2003 39.1934C53.2823 39.1934 51.5245 37.1719 51.5245 34.2539C51.5245 31.3359 53.2999 29.332 56.2003 29.332C58.6612 29.332 60.3312 30.7734 60.4366 32.9531H57.9933C57.8351 32.0039 57.2198 31.3535 56.2355 31.3535C54.9874 31.3535 54.1612 32.4082 54.1612 34.2188C54.1612 36.0645 54.9698 37.1191 56.2355 37.1191C57.1495 37.1191 57.8351 36.5566 57.9933 35.5371H60.4366C60.3136 37.6992 58.7316 39.1934 56.2003 39.1934ZM61.5138 39V26.2734H64.1154V33.1113H64.256L67.3498 29.4551H70.338L66.7873 33.5859L70.5314 39H67.4728L64.8537 35.1152L64.1154 35.9414V39H61.5138ZM71.0637 39V26.2734H79.4484V28.4531H73.7004V31.5469H78.9035V33.7266H73.7004V39H71.0637ZM83.1975 26.2734V39H80.5959V26.2734H83.1975ZM88.968 39.1934C86.0852 39.1934 84.2923 37.207 84.2923 34.2539C84.2923 31.3008 86.0852 29.332 88.968 29.332C91.8509 29.332 93.6614 31.3008 93.6614 34.2539C93.6614 37.207 91.8509 39.1934 88.968 39.1934ZM88.9856 37.1719C90.3216 37.1719 91.0071 35.9238 91.0071 34.2539C91.0071 32.5664 90.3216 31.3184 88.9856 31.3184C87.6321 31.3184 86.929 32.5664 86.929 34.2539C86.929 35.9238 87.6321 37.1719 88.9856 37.1719ZM96.3909 39L93.7894 29.4551H96.4261L97.9202 35.9062H98.0081L99.5726 29.4551H102.157L103.739 35.8711H103.826L105.303 29.4551H107.94L105.321 39H102.578L100.926 32.9355H100.803L99.1507 39H96.3909ZM117.67 28.2422C117.653 31.1074 118.883 34.0078 121.45 35.2383L120.096 37.0312C118.382 36.1875 117.231 34.6055 116.563 32.6719C115.869 34.7461 114.629 36.4424 112.819 37.3301L111.43 35.5195C114.137 34.2715 115.42 31.2129 115.42 28.2422V25.8516H117.67V28.2422ZM124.403 24.6211V30.791H126.758V32.6895H124.403V40.6172H122.153V24.6211H124.403ZM141.388 32.1973V33.9902H126.798V32.1973H130.085V30.2812C128.916 29.7627 128.257 28.9717 128.257 27.9434C128.257 26.0098 130.525 24.8496 134.093 24.8496C137.626 24.8496 139.894 26.0098 139.912 27.9434C139.903 28.9805 139.217 29.7891 138.031 30.2988V32.1973H141.388ZM134.076 34.834C137.539 34.834 139.63 35.8535 139.648 37.6992C139.63 39.5801 137.539 40.5996 134.076 40.5996C130.56 40.5996 128.468 39.5801 128.468 37.6992C128.468 35.8535 130.56 34.834 134.076 34.834ZM134.076 36.5215C131.861 36.5215 130.736 36.9082 130.753 37.6992C130.736 38.5254 131.861 38.9297 134.076 38.9297C136.238 38.9297 137.38 38.5254 137.398 37.6992C137.38 36.9082 136.238 36.5215 134.076 36.5215ZM134.093 26.5723C131.826 26.5723 130.578 27.0469 130.595 27.9434C130.578 28.8223 131.826 29.2617 134.093 29.2617C136.326 29.2617 137.591 28.8223 137.591 27.9434C137.591 27.0469 136.326 26.5723 134.093 26.5723ZM132.353 32.1973H135.798V30.8613C135.271 30.9229 134.7 30.9492 134.093 30.9492C133.469 30.9492 132.889 30.9229 132.353 30.8438V32.1973ZM149.11 25.4297C152.485 25.4473 155.122 27.2578 155.139 30.0352C155.122 32.8301 152.485 34.6582 149.11 34.6406C145.717 34.6582 143.098 32.8301 143.098 30.0352C143.098 27.2578 145.717 25.4473 149.11 25.4297ZM149.11 27.2578C146.895 27.2402 145.278 28.3125 145.278 30.0352C145.278 31.7754 146.895 32.8125 149.11 32.8125C151.325 32.8125 152.907 31.7754 152.924 30.0352C152.907 28.3125 151.325 27.2402 149.11 27.2578ZM156.457 36.8555V38.666H141.815V36.8555H156.457ZM171.474 36.9961V38.8418H156.832V36.9961H163.001V34.5879H158.519V29.209H167.572V27.4512H158.501V25.6582H169.787V30.9668H160.769V32.7598H170.156V34.5879H165.234V36.9961H171.474ZM190.046 30.9668V32.7422H183.859V33.7617H188.271V37.8574H179.359V38.8242H188.693V40.5117H177.162V36.2754H186.056V35.4492H177.144V33.7617H181.609V32.7422H175.457V30.9668H190.046ZM188.201 25.0781V30.123H177.267V25.0781H188.201ZM179.464 26.8184V28.4004H185.968V26.8184H179.464ZM205.098 34.0078V35.7656H201.723V40.6172H199.456V35.7656H196.116V40.6172H193.883V35.7656H190.456V34.0078H205.098ZM203.411 25.0957V29.7539H194.464V31.0547H203.78V32.8477H192.196V28.1191H201.108V26.9238H192.143V25.0957H203.411ZM223.723 33.5156V35.3262H220.296V40.6172H218.01V35.3262H214.741V40.6172H212.438V35.3262H209.081V33.5156H223.723ZM216.358 25.1484C219.786 25.1484 222.194 26.5723 222.194 28.7695C222.194 30.9316 219.786 32.2852 216.358 32.2852C212.93 32.2852 210.54 30.9316 210.557 28.7695C210.54 26.5723 212.93 25.1484 216.358 25.1484ZM216.358 26.9414C214.214 26.9414 212.842 27.5918 212.86 28.7695C212.842 29.8945 214.214 30.5273 216.358 30.5273C218.52 30.5273 219.874 29.8945 219.874 28.7695C219.874 27.5918 218.52 26.9414 216.358 26.9414ZM238.705 32.8652V34.623H224.08V32.8652H230.267V31.8809H225.908V25.0078H237V26.7305H228.158V27.627H236.631V29.2441H228.158V30.1582H237.14V31.8809H232.517V32.8652H238.705ZM231.392 35.3613C234.926 35.3438 236.947 36.293 236.965 37.9805C236.947 39.7031 234.926 40.6172 231.392 40.6172C227.806 40.6172 225.785 39.7031 225.785 37.9805C225.785 36.293 227.806 35.3438 231.392 35.3613ZM231.392 37.0137C229.09 37.0137 228.017 37.3125 228.035 37.9805C228.017 38.666 229.09 38.9648 231.392 38.9648C233.642 38.9648 234.697 38.666 234.715 37.9805C234.697 37.3125 233.642 37.0137 231.392 37.0137ZM252.526 24.6211V40.6523H250.259V24.6211H252.526ZM243.843 25.7461C246.251 25.7461 248.044 27.9609 248.044 31.4414C248.044 34.957 246.251 37.1543 243.843 37.1543C241.382 37.1543 239.589 34.957 239.606 31.4414C239.589 27.9609 241.382 25.7461 243.843 25.7461ZM243.843 27.7676C242.595 27.7676 241.768 29.0684 241.768 31.4414C241.768 33.832 242.595 35.1152 243.843 35.1152C245.055 35.1152 245.882 33.832 245.882 31.4414C245.882 29.0684 245.055 27.7676 243.843 27.7676ZM38.0273 50.6387V62.7148H35.7773V61.4492H32.7188V59.9199H35.7773V50.6387H38.0273ZM38.3789 64.543V66.3359H26.4609V61.5547H28.6934V59.4277C27.2607 59.4893 25.8984 59.498 24.6855 59.498L24.4219 57.7227C27.3574 57.7051 31.3125 57.6699 34.6875 57.248L34.8105 58.8477C33.5449 59.0586 32.2354 59.208 30.9434 59.3047V62.3457H28.6934V64.543H38.3789ZM29.625 51.1836C31.9453 51.166 33.6152 52.3438 33.6152 54.0488C33.6152 55.7539 31.9453 56.8613 29.625 56.8613C27.252 56.8613 25.5996 55.7539 25.5996 54.0488C25.5996 52.3438 27.2344 51.166 29.625 51.1836ZM29.625 52.8184C28.4824 52.8184 27.709 53.2578 27.7266 54.0488C27.709 54.8223 28.4824 55.2441 29.625 55.2441C30.6973 55.2441 31.4707 54.8223 31.4883 54.0488C31.4707 53.2578 30.6973 52.8184 29.625 52.8184ZM52.2881 50.6211V54.4004H54.3272V56.2637H52.2881V60.043H50.0381V50.6211H52.2881ZM52.2881 60.6055V64.1914H43.71V65.0176H52.8155V66.5117H41.46V62.8379H50.0381V62.0996H41.4424V60.6055H52.2881ZM39.3155 58.3203C40.4844 58.3291 41.8116 58.3291 43.2002 58.2852V57.582C41.4512 57.3799 40.3702 56.6504 40.3877 55.5078C40.3702 54.207 41.917 53.4512 44.3077 53.4512C46.6807 53.4512 48.21 54.207 48.2276 55.5078C48.21 56.6504 47.1553 57.3711 45.4327 57.582V58.2148C46.7422 58.1533 48.0606 58.0479 49.2998 57.8809L49.458 59.2695C46.0479 59.8496 42.3389 59.8672 39.544 59.8672L39.3155 58.3203ZM48.8955 51.623V53.1172H39.7373V51.623H43.2002V50.4805H45.4327V51.623H48.8955ZM44.3077 54.8398C43.1651 54.8398 42.5147 55.0508 42.5323 55.5078C42.5147 55.9824 43.1651 56.2285 44.3077 56.2461C45.4327 56.2285 46.0655 55.9824 46.083 55.5078C46.0655 55.0508 45.4327 54.8398 44.3077 54.8398ZM62.2247 53.0645V54.8398H54.4903V53.0645H57.2677V51.0605H59.4825V53.0645H62.2247ZM58.3927 55.5605C60.4317 55.5605 61.8907 57.1426 61.9083 59.3574C61.8907 61.5898 60.4317 63.1719 58.3927 63.1719C56.3536 63.1719 54.8595 61.5898 54.8595 59.3574C54.8595 57.1426 56.3536 55.5605 58.3927 55.5605ZM58.3927 57.4238C57.461 57.4238 56.8282 58.1445 56.8282 59.3574C56.8282 60.5703 57.461 61.2734 58.3927 61.2734C59.2891 61.2734 59.922 60.5703 59.9395 59.3574C59.922 58.1445 59.2891 57.4238 58.3927 57.4238ZM68.3419 50.6211V66.6172H66.2149V58.918H64.9141V65.9316H62.8223V50.9375H64.9141V57.125H66.2149V50.6211H68.3419ZM83.007 50.6211V59.8672H80.7745V58.0215H78.964L79.2628 58.127L78.1554 59.8496C76.3888 59.2871 75.1759 58.1533 74.4816 56.7207C73.7696 58.3027 72.4952 59.5508 70.6144 60.166L69.4542 58.3906C72.1085 57.5469 73.3038 55.5254 73.3038 53.4863V53.3633H70.1398V51.5527H78.7179V53.3633H75.6066V53.4688C75.589 55.165 76.4591 56.8525 78.4015 57.7754V56.2285H80.7745V55.209H78.4015V53.3984H80.7745V50.6211H83.007ZM75.5538 60.834C75.5363 62.1436 76.0812 63.4883 77.3995 64.3848C78.7091 63.4355 79.2452 62.0293 79.2628 60.834V60.377H81.4601V60.834C81.4601 62.5039 82.339 64.0859 84.5187 64.7539L83.3761 66.4062C81.8556 65.8789 80.8624 64.8945 80.3175 63.6289C79.7814 64.877 78.8409 65.9668 77.3995 66.5469C75.923 66.002 74.9913 64.9648 74.464 63.7168C73.8927 64.9033 72.9083 65.8789 71.4581 66.4062L70.3683 64.7539C72.4777 64.0508 73.3566 62.4336 73.3741 60.834V60.377H75.5538V60.834ZM88.9533 51.7461C91.1154 51.7461 92.7238 53.5303 93.049 56.4043H95.8263V50.6211H98.0412V66.6523H95.8263V58.1973H93.0666C92.8293 61.2734 91.1857 63.1543 88.9533 63.1543C86.5275 63.1543 84.7873 60.957 84.8048 57.4414C84.7873 53.9609 86.5275 51.7461 88.9533 51.7461ZM88.9533 53.7676C87.758 53.7676 86.9318 55.0684 86.9494 57.4414C86.9318 59.832 87.758 61.1152 88.9533 61.1152C90.1662 61.1152 90.9572 59.832 90.9572 57.4414C90.9572 55.0684 90.1662 53.7676 88.9533 53.7676ZM114.2 62.9082V64.7539H99.5578V62.9082H102.827V58.9883C101.588 58.25 100.841 57.1162 100.841 55.7012C100.841 53.1172 103.372 51.3945 106.853 51.3945C110.316 51.3945 112.864 53.1172 112.882 55.7012C112.873 57.0811 112.144 58.2061 110.948 58.9531V62.9082H114.2ZM106.853 53.1699C104.568 53.1699 103.056 54.084 103.056 55.7012C103.056 57.2656 104.568 58.2324 106.853 58.2324C109.12 58.2324 110.65 57.2656 110.667 55.7012C110.65 54.084 109.12 53.1699 106.853 53.1699ZM105.042 62.9082H108.681V59.7969C108.11 59.9111 107.494 59.9727 106.853 59.9727C106.211 59.9727 105.605 59.9199 105.042 59.7969V62.9082ZM116.649 65.1582C115.823 65.1582 115.155 64.4902 115.172 63.6816C115.155 62.873 115.823 62.2227 116.649 62.2227C117.422 62.2227 118.108 62.873 118.108 63.6816C118.108 64.4902 117.422 65.1582 116.649 65.1582Z" fill="black"/>
<path d="M25.8594 119H24.2598L27.8145 109.102H29.5508L33.1191 119H31.5195L30.6172 116.389H26.7617L25.8594 119ZM27.1992 115.131H30.1797L28.7168 110.906H28.6484L27.1992 115.131ZM46.3065 109.088V110.291C46.3065 111.809 46.3065 113.504 45.8416 116.006L44.5291 115.869C45.0077 113.504 45.0077 111.768 45.0077 110.291V110.141H37.5702V109.088H46.3065ZM47.5643 117.428V118.508H36.3944V117.428H40.6463V113.107H41.9315V117.428H47.5643ZM58.5193 107.926V115.131H57.2888V111.986H55.8123V115.062H54.5818V108.145H55.8123V110.906H57.2888V107.926H58.5193ZM58.5193 115.664V120.162H57.2341V116.717H50.1521V115.664H58.5193ZM53.4334 108.801C53.4334 111.781 51.8337 113.941 48.7029 115.24L48.074 114.27C50.5486 113.299 51.8884 111.774 52.1209 109.854H48.6072V108.801H53.4334ZM64.0055 111.029C63.9919 113.203 65.2497 115.418 67.0817 116.307L66.2751 117.346C64.9421 116.655 63.9098 115.281 63.3766 113.641C62.8229 115.391 61.7497 116.854 60.3552 117.578L59.5485 116.525C61.4352 115.623 62.7067 113.271 62.7067 111.029V108.938H64.0055V111.029ZM69.2966 107.912V112.793H71.2653V113.9H69.2966V120.162H67.9977V107.912H69.2966Z" fill="#6B6C75"/>
</svg>
