<svg width="207" height="82" viewBox="0 0 207 82" fill="none" xmlns="http://www.w3.org/2000/svg">
<rect y="0.015625" width="207" height="81.1495" rx="11.0033" fill="#C3E7FB"/>
<path opacity="0.2" d="M25.2561 22.3935C25.2561 25.2524 23.4851 26.8904 21.1701 26.8904C18.837 26.8904 17.0721 25.2403 17.0721 22.3935C17.0721 19.5345 18.837 17.8965 21.1701 17.8965C23.4851 17.8965 25.2561 19.5345 25.2561 22.3935ZM18.9216 22.3935C18.9216 24.2611 19.8101 25.2766 21.1701 25.2826C22.518 25.2766 23.4125 24.2611 23.4065 22.3935C23.4125 20.5197 22.518 19.5103 21.1701 19.5043C19.8101 19.5103 18.9216 20.5197 18.9216 22.3935ZM30.3608 23.9771V20.2054H32.15V26.7695H30.4334V25.5848H30.3608C30.0647 26.3464 29.3575 26.8542 28.3662 26.8542C27.0546 26.8542 26.154 25.9233 26.154 24.3881V20.2054H27.9431V24.0738C27.9431 24.8535 28.3904 25.337 29.0915 25.3431C29.7443 25.337 30.3608 24.8716 30.3608 23.9771ZM33.1688 26.7695V20.2054H34.8975V21.3417H34.97C35.2057 20.5379 35.8162 20.1087 36.5536 20.1087C36.7349 20.1087 36.9646 20.1329 37.1218 20.1691V21.7648C36.9525 21.7104 36.608 21.6681 36.3602 21.6681C35.5502 21.6681 34.9519 22.2303 34.9579 23.0342V26.7695H33.1688ZM41.8914 18.0174V26.7695H40.1023V18.0174H41.8914ZM45.8599 26.9025C43.8774 26.8965 42.6383 25.5365 42.6443 23.5056C42.6383 21.4808 43.8774 20.1208 45.8599 20.1208C47.8485 20.1208 49.0815 21.4808 49.0875 23.5056C49.0815 25.5365 47.8485 26.8965 45.8599 26.9025ZM44.4576 23.5056C44.4576 24.654 44.9351 25.5063 45.872 25.5123C46.7847 25.5063 47.2682 24.654 47.2622 23.5056C47.2682 22.3511 46.7847 21.4868 45.872 21.4868C44.9351 21.4868 44.4576 22.3511 44.4576 23.5056ZM52.79 29.3686C50.9768 29.3686 49.8586 28.5526 49.7558 27.3135H51.5207C51.6175 27.8394 52.1131 28.0751 52.8263 28.0751C53.6544 28.0751 54.2105 27.7185 54.2165 26.8058V25.609H54.1319C53.8962 26.1409 53.3159 26.6789 52.2581 26.6728C50.7773 26.6789 49.5866 25.6332 49.5866 23.4452C49.5866 21.2269 50.8075 20.1208 52.2581 20.1208C53.3582 20.1208 53.8901 20.7736 54.1319 21.3055H54.2044V20.2054H55.9814V26.8421C55.9754 28.5163 54.6577 29.3686 52.79 29.3686ZM51.424 23.4693C51.418 24.6057 51.9076 25.3249 52.8142 25.331C53.7088 25.3249 54.2165 24.6359 54.2165 23.4693C54.2165 22.3028 53.7148 21.5473 52.8142 21.5473C51.9015 21.5473 51.418 22.3391 51.424 23.4693ZM57.0003 26.7695V20.2054H58.7894V26.7695H57.0003ZM56.9156 18.4405C56.9156 17.9328 57.3569 17.5278 57.8948 17.5217C58.4267 17.5278 58.868 17.9328 58.8619 18.4405C58.868 18.9361 58.4267 19.3471 57.8948 19.3471C57.3569 19.3471 56.9156 18.9361 56.9156 18.4405ZM63.5557 22.1517C63.4771 21.6923 63.0782 21.3961 62.4798 21.3901C61.8995 21.3961 61.4583 21.6681 61.4644 22.0671C61.4583 22.3632 61.688 22.5929 62.3106 22.7198L63.4831 22.9616C64.7585 23.2276 65.375 23.7957 65.3811 24.7386C65.375 26.0321 64.2145 26.8965 62.4677 26.9025C60.6967 26.8965 59.6571 26.1047 59.506 24.8233H61.3072C61.3918 25.337 61.8089 25.603 62.4677 25.609C63.1205 25.603 63.5557 25.3431 63.5557 24.92C63.5557 24.5815 63.2776 24.3699 62.6611 24.243L61.5731 24.0254C60.322 23.7776 59.6813 23.1369 59.6873 22.1638C59.6813 20.9066 60.7632 20.1208 62.4556 20.1208C64.1118 20.1208 65.1393 20.9066 65.236 22.1517H63.5557ZM69.5671 20.2054V21.5473H68.3341V24.7507C68.328 25.2766 68.5879 25.4035 68.9506 25.4156C69.1319 25.4156 69.4462 25.3975 69.6638 25.3793V26.7937C69.4704 26.8239 69.15 26.8602 68.7088 26.8542C67.4153 26.8602 66.5329 26.2799 66.545 25.0046V21.5473H65.6383V20.2054H66.545V18.6339H68.3341V20.2054H69.5671ZM70.32 26.7695V20.2054H72.1091V26.7695H70.32ZM70.2354 18.4405C70.2354 17.9328 70.6766 17.5278 71.2145 17.5217C71.7464 17.5278 72.1877 17.9328 72.1816 18.4405C72.1877 18.9361 71.7464 19.3471 71.2145 19.3471C70.6766 19.3471 70.2354 18.9361 70.2354 18.4405ZM76.0775 26.9025C74.0648 26.8965 72.8559 25.5063 72.862 23.5056C72.8559 21.4989 74.089 20.1208 76.0775 20.1208C77.77 20.1208 78.9184 21.106 78.9909 22.611H77.3106C77.2018 21.9643 76.7787 21.517 76.1017 21.511C75.2434 21.517 74.6753 22.2363 74.6753 23.4814C74.6753 24.7507 75.2313 25.476 76.1017 25.476C76.7303 25.476 77.1957 25.0832 77.3106 24.3881H78.9909C78.9123 25.875 77.8183 26.8965 76.0775 26.9025ZM83.4792 22.1517C83.4006 21.6923 83.0017 21.3961 82.4033 21.3901C81.823 21.3961 81.3818 21.6681 81.3878 22.0671C81.3818 22.3632 81.6115 22.5929 82.234 22.7198L83.4066 22.9616C84.682 23.2276 85.2985 23.7957 85.3045 24.7386C85.2985 26.0321 84.138 26.8965 82.3912 26.9025C80.6202 26.8965 79.5806 26.1047 79.4295 24.8233H81.2307C81.3153 25.337 81.7324 25.603 82.3912 25.609C83.044 25.603 83.4792 25.3431 83.4792 24.92C83.4792 24.5815 83.2011 24.3699 82.5846 24.243L81.4966 24.0254C80.2455 23.7776 79.6048 23.1369 79.6108 22.1638C79.6048 20.9066 80.6867 20.1208 82.3791 20.1208C84.0352 20.1208 85.0628 20.9066 85.1595 22.1517H83.4792ZM91.4644 26.9025C89.4517 26.8965 88.2428 25.5063 88.2488 23.5056C88.2428 21.4989 89.4758 20.1208 91.4644 20.1208C93.1568 20.1208 94.3052 21.106 94.3778 22.611H92.6975C92.5887 21.9643 92.1656 21.517 91.4886 21.511C90.6303 21.517 90.0621 22.2363 90.0621 23.4814C90.0621 24.7507 90.6182 25.476 91.4886 25.476C92.1172 25.476 92.5826 25.0832 92.6975 24.3881H94.3778C94.2992 25.875 93.2052 26.8965 91.4644 26.9025ZM98.0924 26.9025C96.0796 26.8965 94.8466 25.5969 94.8526 23.5177C94.8466 21.4929 96.0977 20.1208 98.0198 20.1208C99.7425 20.1208 101.102 21.2088 101.102 23.4452V23.9529H96.6175C96.6175 24.9442 97.2038 25.5546 98.1286 25.5607C98.7391 25.5546 99.1743 25.2887 99.3496 24.8958H101.054C100.8 26.1107 99.7122 26.8965 98.0924 26.9025ZM96.6175 22.8286H99.41C99.404 22.0308 98.8539 21.4566 98.0561 21.4626C97.2341 21.4566 96.6538 22.0731 96.6175 22.8286ZM103.644 22.9737V26.7695H101.855V20.2054H103.56V21.3538H103.632C103.928 20.5983 104.63 20.1208 105.603 20.1208C106.975 20.1208 107.869 21.0577 107.863 22.5869V26.7695H106.086V22.9012C106.08 22.0912 105.645 21.6077 104.902 21.6077C104.158 21.6077 103.644 22.1094 103.644 22.9737ZM112.34 20.2054V21.5473H111.106V24.7507C111.1 25.2766 111.36 25.4035 111.723 25.4156C111.904 25.4156 112.219 25.3975 112.436 25.3793V26.7937C112.243 26.8239 111.922 26.8602 111.481 26.8542C110.188 26.8602 109.305 26.2799 109.317 25.0046V21.5473H108.411V20.2054H109.317V18.6339H111.106V20.2054H112.34ZM115.994 26.9025C113.981 26.8965 112.748 25.5969 112.754 23.5177C112.748 21.4929 113.999 20.1208 115.921 20.1208C117.644 20.1208 119.004 21.2088 119.004 23.4452V23.9529H114.519C114.519 24.9442 115.105 25.5546 116.03 25.5607C116.64 25.5546 117.076 25.2887 117.251 24.8958H118.955C118.702 26.1107 117.614 26.8965 115.994 26.9025ZM114.519 22.8286H117.311C117.305 22.0308 116.755 21.4566 115.957 21.4626C115.135 21.4566 114.555 22.0731 114.519 22.8286ZM119.757 26.7695V20.2054H121.485V21.3417H121.558C121.794 20.5379 122.404 20.1087 123.141 20.1087C123.323 20.1087 123.552 20.1329 123.71 20.1691V21.7648C123.54 21.7104 123.196 21.6681 122.948 21.6681C122.138 21.6681 121.54 22.2303 121.546 23.0342V26.7695H119.757ZM129.64 26.9025C127.657 26.8965 126.418 25.5365 126.424 23.5056C126.418 21.4808 127.657 20.1208 129.64 20.1208C131.628 20.1208 132.861 21.4808 132.867 23.5056C132.861 25.5365 131.628 26.8965 129.64 26.9025ZM128.237 23.5056C128.237 24.654 128.715 25.5063 129.652 25.5123C130.565 25.5063 131.048 24.654 131.042 23.5056C131.048 22.3511 130.565 21.4868 129.652 21.4868C128.715 21.4868 128.237 22.3511 128.237 23.5056ZM133.62 29.2356V20.2054H135.385V21.3055H135.458C135.706 20.7736 136.225 20.1208 137.332 20.1208C138.782 20.1208 139.997 21.245 139.991 23.4935C139.997 25.6876 138.83 26.8783 137.332 26.8783C136.262 26.8783 135.712 26.2618 135.458 25.7178H135.409V29.2356H133.62ZM135.373 23.4814C135.367 24.6661 135.875 25.4458 136.763 25.4519C137.676 25.4458 138.172 24.6419 138.166 23.4814C138.172 22.3391 137.688 21.5473 136.763 21.5473C135.869 21.5473 135.367 22.3028 135.373 23.4814ZM143.754 26.9025C141.741 26.8965 140.508 25.5969 140.514 23.5177C140.508 21.4929 141.759 20.1208 143.681 20.1208C145.404 20.1208 146.764 21.2088 146.764 23.4452V23.9529H142.279C142.279 24.9442 142.865 25.5546 143.79 25.5607C144.401 25.5546 144.836 25.2887 145.011 24.8958H146.716C146.462 26.1107 145.374 26.8965 143.754 26.9025ZM142.279 22.8286H145.072C145.066 22.0308 144.516 21.4566 143.718 21.4626C142.896 21.4566 142.315 22.0731 142.279 22.8286ZM147.517 26.7695V20.2054H149.246V21.3417H149.318C149.554 20.5379 150.164 20.1087 150.902 20.1087C151.083 20.1087 151.313 20.1329 151.47 20.1691V21.7648C151.301 21.7104 150.956 21.6681 150.708 21.6681C149.898 21.6681 149.3 22.2303 149.306 23.0342V26.7695H147.517ZM151.473 24.9321C151.479 23.4693 152.652 22.9918 153.915 22.9133C154.387 22.883 155.269 22.8407 155.547 22.8286V22.2967C155.541 21.7467 155.166 21.4324 154.495 21.4264C153.885 21.4324 153.504 21.7044 153.407 22.1517H151.703C151.812 21.0154 152.803 20.1208 154.544 20.1208C155.976 20.1208 157.33 20.7615 157.324 22.3451V26.7695H155.632V25.8629H155.583C155.263 26.4673 154.634 26.8965 153.661 26.8904C152.404 26.8965 151.479 26.2316 151.473 24.9321ZM153.19 24.8837C153.19 25.3854 153.595 25.6513 154.169 25.6574C154.985 25.6513 155.553 25.1194 155.547 24.4243V23.9468C155.275 23.9589 154.507 24.0012 154.205 24.0254C153.583 24.0798 153.19 24.376 153.19 24.8837ZM161.776 20.2054V21.5473H160.543V24.7507C160.537 25.2766 160.797 25.4035 161.16 25.4156C161.341 25.4156 161.655 25.3975 161.873 25.3793V26.7937C161.679 26.8239 161.359 26.8602 160.918 26.8542C159.624 26.8602 158.742 26.2799 158.754 25.0046V21.5473H157.847V20.2054H158.754V18.6339H160.543V20.2054H161.776ZM162.529 26.7695V20.2054H164.318V26.7695H162.529ZM162.444 18.4405C162.444 17.9328 162.886 17.5278 163.424 17.5217C163.955 17.5278 164.397 17.9328 164.391 18.4405C164.397 18.9361 163.955 19.3471 163.424 19.3471C162.886 19.3471 162.444 18.9361 162.444 18.4405ZM168.287 26.9025C166.304 26.8965 165.065 25.5365 165.071 23.5056C165.065 21.4808 166.304 20.1208 168.287 20.1208C170.275 20.1208 171.508 21.4808 171.514 23.5056C171.508 25.5365 170.275 26.8965 168.287 26.9025ZM166.884 23.5056C166.884 24.654 167.362 25.5063 168.299 25.5123C169.211 25.5063 169.695 24.654 169.689 23.5056C169.695 22.3511 169.211 21.4868 168.299 21.4868C167.362 21.4868 166.884 22.3511 166.884 23.5056ZM174.056 22.9737V26.7695H172.267V20.2054H173.972V21.3538H174.044C174.34 20.5983 175.041 20.1208 176.015 20.1208C177.387 20.1208 178.281 21.0577 178.275 22.5869V26.7695H176.498V22.9012C176.492 22.0912 176.057 21.6077 175.313 21.6077C174.57 21.6077 174.056 22.1094 174.056 22.9737ZM183.041 22.1517C182.963 21.6923 182.564 21.3961 181.966 21.3901C181.385 21.3961 180.944 21.6681 180.95 22.0671C180.944 22.3632 181.174 22.5929 181.796 22.7198L182.969 22.9616C184.244 23.2276 184.861 23.7957 184.867 24.7386C184.861 26.0321 183.7 26.8965 181.953 26.9025C180.182 26.8965 179.143 26.1047 178.992 24.8233H180.793C180.878 25.337 181.295 25.603 181.953 25.609C182.606 25.603 183.041 25.3431 183.041 24.92C183.041 24.5815 182.763 24.3699 182.147 24.243L181.059 24.0254C179.808 23.7776 179.167 23.1369 179.173 22.1638C179.167 20.9066 180.249 20.1208 181.941 20.1208C183.598 20.1208 184.625 20.9066 184.722 22.1517H183.041ZM18.9942 40.9737V44.7695H17.205V36.0174H18.9458V39.3538H19.0183C19.3206 38.5862 19.9794 38.1208 20.9767 38.1208C22.3487 38.1208 23.2494 39.0456 23.2494 40.5869V44.7695H21.4602V40.9012C21.4602 40.0852 21.025 39.6077 20.2756 39.6077C19.52 39.6077 18.9942 40.1094 18.9942 40.9737ZM23.9418 42.9321C23.9478 41.4693 25.1204 40.9918 26.3837 40.9133C26.8551 40.883 27.7376 40.8407 28.0156 40.8286V40.2967C28.0096 39.7467 27.6349 39.4324 26.9639 39.4264C26.3535 39.4324 25.9727 39.7044 25.876 40.1517H24.1715C24.2803 39.0154 25.2715 38.1208 27.0123 38.1208C28.4448 38.1208 29.7987 38.7615 29.7927 40.3451V44.7695H28.1003V43.8629H28.0519C27.7316 44.4673 27.103 44.8965 26.1298 44.8904C24.8726 44.8965 23.9478 44.2316 23.9418 42.9321ZM25.6584 42.8837C25.6584 43.3854 26.0633 43.6513 26.6375 43.6574C27.4535 43.6513 28.0217 43.1194 28.0156 42.4243V41.9468C27.7437 41.9589 26.976 42.0012 26.6738 42.0254C26.0512 42.0798 25.6584 42.376 25.6584 42.8837ZM36.6382 38.2054L34.3293 44.7695H32.3226L30.0257 38.2054H31.9116L33.2897 42.92H33.3622L34.7403 38.2054H36.6382ZM39.8934 44.9025C37.8807 44.8965 36.6476 43.5969 36.6537 41.5177C36.6476 39.4929 37.8988 38.1208 39.8209 38.1208C41.5435 38.1208 42.9035 39.2088 42.9035 41.4452V41.9529H38.4186C38.4186 42.9442 39.0049 43.5546 39.9297 43.5607C40.5402 43.5546 40.9754 43.2887 41.1506 42.8958H42.8551C42.6013 44.1107 41.5133 44.8965 39.8934 44.9025ZM38.4186 40.8286H41.2111C41.205 40.0308 40.655 39.4566 39.8572 39.4626C39.0351 39.4566 38.4549 40.0731 38.4186 40.8286ZM46.1742 44.7695V36.0174H47.9633V39.3055H48.0117C48.2595 38.7736 48.7793 38.1208 49.8854 38.1208C51.336 38.1208 52.5509 39.245 52.557 41.4935C52.5509 43.6876 51.3844 44.8783 49.8854 44.8783C48.8156 44.8783 48.2716 44.2618 48.0117 43.7178H47.9391V44.7695H46.1742ZM47.927 41.4814C47.921 42.6661 48.4348 43.4458 49.3172 43.4519C50.2299 43.4458 50.7256 42.6419 50.7195 41.4814C50.7256 40.3391 50.242 39.5473 49.3172 39.5473C48.4287 39.5473 47.921 40.3028 47.927 41.4814ZM56.3078 44.9025C54.2951 44.8965 53.062 43.5969 53.0681 41.5177C53.062 39.4929 54.3132 38.1208 56.2353 38.1208C57.9579 38.1208 59.3179 39.2088 59.3179 41.4452V41.9529H54.833C54.833 42.9442 55.4193 43.5546 56.3441 43.5607C56.9546 43.5546 57.3898 43.2887 57.565 42.8958H59.2695C59.0157 44.1107 57.9277 44.8965 56.3078 44.9025ZM54.833 40.8286H57.6255C57.6194 40.0308 57.0694 39.4566 56.2716 39.4626C55.4495 39.4566 54.8693 40.0731 54.833 40.8286ZM63.0446 44.9025C61.0318 44.8965 59.7988 43.5969 59.8048 41.5177C59.7988 39.4929 61.05 38.1208 62.972 38.1208C64.6947 38.1208 66.0546 39.2088 66.0546 41.4452V41.9529H61.5698C61.5698 42.9442 62.1561 43.5546 63.0808 43.5607C63.6913 43.5546 64.1265 43.2887 64.3018 42.8958H66.0063C65.7524 44.1107 64.6644 44.8965 63.0446 44.9025ZM61.5698 40.8286H64.3622C64.3562 40.0308 63.8062 39.4566 63.0083 39.4626C62.1863 39.4566 61.606 40.0731 61.5698 40.8286ZM68.5966 40.9737V44.7695H66.8075V38.2054H68.512V39.3538H68.5845C68.8807 38.5983 69.5819 38.1208 70.555 38.1208C71.927 38.1208 72.8216 39.0577 72.8156 40.5869V44.7695H71.0385V40.9012C71.0325 40.0912 70.5973 39.6077 69.8538 39.6077C69.1104 39.6077 68.5966 40.1094 68.5966 40.9737ZM80.5228 41.9771V38.2054H82.3119V44.7695H80.5953V43.5848H80.5228C80.2266 44.3464 79.5194 44.8542 78.5282 44.8542C77.2165 44.8542 76.3159 43.9233 76.3159 42.3881V38.2054H78.105V42.0738C78.105 42.8535 78.5523 43.337 79.2535 43.3431C79.9063 43.337 80.5228 42.8716 80.5228 41.9771ZM83.3307 47.2356V38.2054H85.0957V39.3055H85.1682C85.416 38.7736 85.9358 38.1208 87.0419 38.1208C88.4926 38.1208 89.7075 39.245 89.7014 41.4935C89.7075 43.6876 88.5409 44.8783 87.0419 44.8783C85.9721 44.8783 85.422 44.2618 85.1682 43.7178H85.1198V47.2356H83.3307ZM85.0836 41.4814C85.0775 42.6661 85.5852 43.4458 86.4738 43.4519C87.3864 43.4458 87.8821 42.6419 87.876 41.4814C87.8821 40.3391 87.3985 39.5473 86.4738 39.5473C85.5792 39.5473 85.0775 40.3028 85.0836 41.4814ZM93.4402 47.3686C91.6269 47.3686 90.5087 46.5526 90.4059 45.3135H92.1709C92.2676 45.8394 92.7632 46.0751 93.4764 46.0751C94.3045 46.0751 94.8606 45.7185 94.8666 44.8058V43.609H94.782C94.5463 44.1409 93.966 44.6789 92.9083 44.6728C91.4274 44.6789 90.2367 43.6332 90.2367 41.4452C90.2367 39.2269 91.4576 38.1208 92.9083 38.1208C94.0083 38.1208 94.5402 38.7736 94.782 39.3055H94.8545V38.2054H96.6316V44.8421C96.6255 46.5163 95.3079 47.3686 93.4402 47.3686ZM92.0742 41.4693C92.0681 42.6057 92.5577 43.3249 93.4644 43.331C94.3589 43.3249 94.8666 42.6359 94.8666 41.4693C94.8666 40.3028 94.365 39.5473 93.4644 39.5473C92.5517 39.5473 92.0681 40.3391 92.0742 41.4693ZM97.6504 44.7695V38.2054H99.3791V39.3417H99.4516C99.6873 38.5379 100.298 38.1087 101.035 38.1087C101.217 38.1087 101.446 38.1329 101.603 38.1691V39.7648C101.434 39.7104 101.09 39.6681 100.842 39.6681C100.032 39.6681 99.4335 40.2303 99.4395 41.0342V44.7695H97.6504ZM101.607 42.9321C101.613 41.4693 102.785 40.9918 104.049 40.9133C104.52 40.883 105.403 40.8407 105.681 40.8286V40.2967C105.675 39.7467 105.3 39.4324 104.629 39.4264C104.018 39.4324 103.638 39.7044 103.541 40.1517H101.836C101.945 39.0154 102.937 38.1208 104.677 38.1208C106.11 38.1208 107.464 38.7615 107.458 40.3451V44.7695H105.765V43.8629H105.717C105.397 44.4673 104.768 44.8965 103.795 44.8904C102.538 44.8965 101.613 44.2316 101.607 42.9321ZM103.323 42.8837C103.323 43.3854 103.728 43.6513 104.303 43.6574C105.119 43.6513 105.687 43.1194 105.681 42.4243V41.9468C105.409 41.9589 104.641 42.0012 104.339 42.0254C103.716 42.0798 103.323 42.376 103.323 42.8837ZM110.87 44.8783C109.371 44.8783 108.198 43.6876 108.198 41.4935C108.198 39.245 109.419 38.1208 110.87 38.1208C111.97 38.1208 112.496 38.7736 112.732 39.3055H112.792V36.0174H114.581V44.7695H112.816V43.7178H112.732C112.484 44.2618 111.94 44.8783 110.87 44.8783ZM110.036 41.4814C110.03 42.6419 110.519 43.4458 111.426 43.4519C112.321 43.4458 112.828 42.6661 112.828 41.4814C112.828 40.3028 112.327 39.5473 111.426 39.5473C110.513 39.5473 110.03 40.3391 110.036 41.4814ZM118.622 44.9025C116.609 44.8965 115.376 43.5969 115.382 41.5177C115.376 39.4929 116.628 38.1208 118.55 38.1208C120.272 38.1208 121.632 39.2088 121.632 41.4452V41.9529H117.147C117.147 42.9442 117.734 43.5546 118.658 43.5607C119.269 43.5546 119.704 43.2887 119.879 42.8958H121.584C121.33 44.1107 120.242 44.8965 118.622 44.9025ZM117.147 40.8286H119.94C119.934 40.0308 119.384 39.4566 118.586 39.4626C117.764 39.4566 117.184 40.0731 117.147 40.8286ZM124.803 44.8783C123.304 44.8783 122.131 43.6876 122.131 41.4935C122.131 39.245 123.352 38.1208 124.803 38.1208C125.903 38.1208 126.429 38.7736 126.665 39.3055H126.725V36.0174H128.514V44.7695H126.749V43.7178H126.665C126.417 44.2618 125.873 44.8783 124.803 44.8783ZM123.969 41.4814C123.963 42.6419 124.452 43.4458 125.359 43.4519C126.254 43.4458 126.761 42.6661 126.761 41.4814C126.761 40.3028 126.26 39.5473 125.359 39.5473C124.446 39.5473 123.963 40.3391 123.969 41.4814ZM136.27 41.9771V38.2054H138.059V44.7695H136.342V43.5848H136.27C135.973 44.3464 135.266 44.8542 134.275 44.8542C132.963 44.8542 132.063 43.9233 132.063 42.3881V38.2054H133.852V42.0738C133.852 42.8535 134.299 43.337 135 43.3431C135.653 43.337 136.27 42.8716 136.27 41.9771ZM142.825 40.1517C142.746 39.6923 142.348 39.3961 141.749 39.3901C141.169 39.3961 140.728 39.6681 140.734 40.0671C140.728 40.3632 140.957 40.5929 141.58 40.7198L142.753 40.9616C144.028 41.2276 144.644 41.7957 144.65 42.7386C144.644 44.0321 143.484 44.8965 141.737 44.9025C139.966 44.8965 138.926 44.1047 138.775 42.8233H140.577C140.661 43.337 141.078 43.603 141.737 43.609C142.39 43.603 142.825 43.3431 142.825 42.92C142.825 42.5815 142.547 42.3699 141.931 42.243L140.843 42.0254C139.591 41.7776 138.951 41.1369 138.957 40.1638C138.951 38.9066 140.033 38.1208 141.725 38.1208C143.381 38.1208 144.409 38.9066 144.505 40.1517H142.825ZM145.379 44.7695V38.2054H147.168V44.7695H145.379ZM145.295 36.4405C145.295 35.9328 145.736 35.5278 146.274 35.5217C146.806 35.5278 147.247 35.9328 147.241 36.4405C147.247 36.9361 146.806 37.3471 146.274 37.3471C145.736 37.3471 145.295 36.9361 145.295 36.4405ZM149.976 40.9737V44.7695H148.187V38.2054H149.892V39.3538H149.964C150.26 38.5983 150.961 38.1208 151.935 38.1208C153.307 38.1208 154.201 39.0577 154.195 40.5869V44.7695H152.418V40.9012C152.412 40.0912 151.977 39.6077 151.233 39.6077C150.49 39.6077 149.976 40.1094 149.976 40.9737ZM158.164 47.3686C156.35 47.3686 155.232 46.5526 155.129 45.3135H156.894C156.991 45.8394 157.487 46.0751 158.2 46.0751C159.028 46.0751 159.584 45.7185 159.59 44.8058V43.609H159.505C159.27 44.1409 158.689 44.6789 157.632 44.6728C156.151 44.6789 154.96 43.6332 154.96 41.4452C154.96 39.2269 156.181 38.1208 157.632 38.1208C158.732 38.1208 159.264 38.7736 159.505 39.3055H159.578V38.2054H161.355V44.8421C161.349 46.5163 160.031 47.3686 158.164 47.3686ZM156.798 41.4693C156.792 42.6057 157.281 43.3249 158.188 43.331C159.082 43.3249 159.59 42.6359 159.59 41.4693C159.59 40.3028 159.088 39.5473 158.188 39.5473C157.275 39.5473 156.792 40.3391 156.798 41.4693ZM21.9921 56.5197C21.9196 55.8246 21.3696 55.4197 20.4811 55.4197C19.5623 55.4197 19.0486 55.8428 19.0425 56.423C19.0365 57.0577 19.6893 57.3417 20.4448 57.511L21.2306 57.7044C22.7295 58.0489 23.8477 58.8105 23.8538 60.2672C23.8477 61.8689 22.6026 62.8965 20.469 62.8904C18.3535 62.8965 17.0056 61.9173 16.9512 60.0375H18.7161C18.7766 60.92 19.4777 61.3673 20.4448 61.3673C21.3998 61.3673 22.0163 60.92 22.0163 60.2672C22.0163 59.6688 21.4723 59.3908 20.5173 59.155L19.5623 58.9254C18.0875 58.5627 17.1809 57.8253 17.1809 56.5439C17.1748 54.9542 18.5771 53.8965 20.4931 53.8965C22.4334 53.8965 23.7087 54.9724 23.7329 56.5197H21.9921ZM28.0882 56.2054V57.5473H26.8551V60.7507C26.8491 61.2766 27.109 61.4035 27.4717 61.4156C27.653 61.4156 27.9673 61.3975 28.1849 61.3793V62.7937C27.9915 62.8239 27.6711 62.8602 27.2299 62.8542C25.9364 62.8602 25.0539 62.2799 25.066 61.0046V57.5473H24.1594V56.2054H25.066V54.6339H26.8551V56.2054H28.0882ZM31.7181 62.9025C29.7356 62.8965 28.4965 61.5365 28.5026 59.5056C28.4965 57.4808 29.7356 56.1208 31.7181 56.1208C33.7067 56.1208 34.9398 57.4808 34.9458 59.5056C34.9398 61.5365 33.7067 62.8965 31.7181 62.9025ZM30.3159 59.5056C30.3159 60.654 30.7934 61.5063 31.7302 61.5123C32.6429 61.5063 33.1265 60.654 33.1204 59.5056C33.1265 58.3511 32.6429 57.4868 31.7302 57.4868C30.7934 57.4868 30.3159 58.3511 30.3159 59.5056ZM38.6483 62.9025C36.6356 62.8965 35.4267 61.5063 35.4327 59.5056C35.4267 57.4989 36.6597 56.1208 38.6483 56.1208C40.3407 56.1208 41.4891 57.106 41.5617 58.611H39.8813C39.7725 57.9643 39.3494 57.517 38.6725 57.511C37.8142 57.517 37.246 58.2363 37.246 59.4814C37.246 60.7507 37.8021 61.476 38.6725 61.476C39.3011 61.476 39.7665 61.0832 39.8813 60.3881H41.5617C41.4831 61.875 40.3891 62.8965 38.6483 62.9025ZM42.3025 62.7695V54.0174H44.0916V58.7198H44.1883L46.3159 56.2054H48.3709L45.923 59.0462L48.5039 62.7695H46.4005L44.5932 60.0979L44.0916 60.6661V62.7695H42.3025ZM52.3273 56.2054V57.5473H51.0217V62.7695H49.2326V57.5473H48.3018V56.2054H49.2326V55.7098C49.2326 54.3256 50.0667 53.6064 51.3844 53.6064C51.7894 53.6064 52.1339 53.6426 52.4482 53.7152V55.0691C52.1883 55.0449 52.0009 55.0389 51.9042 55.0328C51.33 55.0389 51.0217 55.2565 51.0217 55.8065V56.2054H52.3273ZM54.7968 54.0174V62.7695H53.0076V54.0174H54.7968ZM58.7652 62.9025C56.7827 62.8965 55.5436 61.5365 55.5496 59.5056C55.5436 57.4808 56.7827 56.1208 58.7652 56.1208C60.7538 56.1208 61.9868 57.4808 61.9929 59.5056C61.9868 61.5365 60.7538 62.8965 58.7652 62.9025ZM57.3629 59.5056C57.3629 60.654 57.8404 61.5063 58.7773 61.5123C59.69 61.5063 60.1735 60.654 60.1675 59.5056C60.1735 58.3511 59.69 57.4868 58.7773 57.4868C57.8404 57.4868 57.3629 58.3511 57.3629 59.5056ZM63.87 62.7695L62.0809 56.2054H63.8942L64.9217 60.6419H64.9821L66.058 56.2054H67.835L68.923 60.6178H68.9835L69.9989 56.2054H71.8122L70.011 62.7695H68.1252L66.9888 58.599H66.9042L65.7679 62.7695H63.87ZM72.5046 62.8783C71.9365 62.8783 71.4771 62.425 71.4892 61.8629C71.4771 61.3068 71.9365 60.8535 72.5046 60.8595C73.0426 60.8535 73.508 61.3068 73.508 61.8629C73.508 62.425 73.0426 62.8783 72.5046 62.8783Z" fill="black"/>
<path d="M19.475 63.7503C17.8954 63.7503 16.974 62.481 16.974 60.2526C16.974 58.0431 17.9142 56.755 19.475 56.755C21.0358 56.755 21.976 58.0431 21.976 60.2526C21.976 62.481 21.0452 63.7503 19.475 63.7503ZM19.475 62.8571C20.3964 62.8571 20.9418 61.9544 20.9418 60.2526C20.9418 58.5602 20.387 57.6294 19.475 57.6294C18.563 57.6294 18.0083 58.5602 18.0083 60.2526C18.0083 61.9544 18.5536 62.8571 19.475 62.8571ZM25.1284 63.7503C23.5488 63.7503 22.6274 62.481 22.6274 60.2526C22.6274 58.0431 23.5676 56.755 25.1284 56.755C26.6892 56.755 27.6294 58.0431 27.6294 60.2526C27.6294 62.481 26.6986 63.7503 25.1284 63.7503ZM25.1284 62.8571C26.0498 62.8571 26.5952 61.9544 26.5952 60.2526C26.5952 58.5602 26.0404 57.6294 25.1284 57.6294C24.2164 57.6294 23.6617 58.5602 23.6617 60.2526C23.6617 61.9544 24.207 62.8571 25.1284 62.8571ZM34.9376 56.8396V57.667C34.9376 58.7107 34.9376 59.8765 34.6179 61.5972L33.7153 61.5031C34.0444 59.8765 34.0444 58.6825 34.0444 57.667V57.5636H28.9295V56.8396H34.9376ZM35.8026 62.575V63.3178H28.121V62.575H31.0451V59.6039H31.9289V62.575H35.8026ZM43.3364 56.0404V60.9954H42.4902V58.8329H41.4748V60.9484H40.6286V56.1909H41.4748V58.0901H42.4902V56.0404H43.3364ZM43.3364 61.3621V64.4554H42.4526V62.0861H37.5823V61.3621H43.3364ZM39.8388 56.6422C39.8388 58.6919 38.7387 60.1774 36.5856 61.0706L36.1531 60.4031C37.8549 59.7355 38.7763 58.6872 38.9362 57.3661H36.5198V56.6422H39.8388ZM47.1094 58.1747C47.1 59.6697 47.965 61.1929 49.2249 61.804L48.6701 62.5186C47.7534 62.0438 47.0436 61.0988 46.6769 59.9706C46.2961 61.1741 45.558 62.1801 44.599 62.6784L44.0442 61.9544C45.3417 61.3339 46.2162 59.7167 46.2162 58.1747V56.7362H47.1094V58.1747ZM50.748 56.031V59.3876H52.102V60.1492H50.748V64.4554H49.8548V56.031H50.748Z" fill="#6B6C75"/>
</svg>
