<svg width="253" height="100" viewBox="0 0 253 100" fill="none" xmlns="http://www.w3.org/2000/svg">
<rect width="253" height="99.1827" rx="13.4485" fill="#A9E0FF"/>
<path opacity="0.5" d="M30.869 27.464C30.869 30.9582 28.7044 32.9602 25.875 32.9602C23.0234 32.9602 20.8663 30.9435 20.8663 27.464C20.8663 23.9697 23.0234 21.9677 25.875 21.9677C28.7044 21.9677 30.869 23.9697 30.869 27.464ZM23.1269 27.464C23.1269 29.7467 24.2128 30.9878 25.875 30.9952C27.5224 30.9878 28.6158 29.7467 28.6084 27.464C28.6158 25.1738 27.5224 23.9401 25.875 23.9327C24.2128 23.9401 23.1269 25.1738 23.1269 27.464ZM37.1081 29.3995V24.7897H39.2948V32.8125H37.1968V31.3646H37.1081C36.7461 32.2954 35.8818 32.9159 34.6703 32.9159C33.0672 32.9159 31.9664 31.7783 31.9664 29.9018V24.7897H34.1531V29.5177C34.1531 30.4707 34.6998 31.0617 35.5568 31.0691C36.3546 31.0617 37.1081 30.4928 37.1081 29.3995ZM40.5401 32.8125V24.7897H42.6529V26.1785H42.7415C43.0296 25.196 43.7758 24.6715 44.677 24.6715C44.8987 24.6715 45.1794 24.701 45.3715 24.7454V26.6957C45.1646 26.6292 44.7435 26.5775 44.4406 26.5775C43.4507 26.5775 42.7194 27.2645 42.7268 28.247V32.8125H40.5401ZM51.2011 22.1154V32.8125H49.0144V22.1154H51.2011ZM56.0514 32.975C53.6283 32.9676 52.1139 31.3055 52.1213 28.8233C52.1139 26.3485 53.6283 24.6863 56.0514 24.6863C58.4819 24.6863 59.9889 26.3485 59.9963 28.8233C59.9889 31.3055 58.4819 32.9676 56.0514 32.975ZM54.3375 28.8233C54.3375 30.2269 54.9211 31.2685 56.0662 31.2759C57.1817 31.2685 57.7727 30.2269 57.7653 28.8233C57.7727 27.4122 57.1817 26.3558 56.0662 26.3558C54.9211 26.3558 54.3375 27.4122 54.3375 28.8233ZM64.5216 35.9891C62.3054 35.9891 60.9387 34.9918 60.8131 33.4774H62.9702C63.0884 34.1201 63.6942 34.4082 64.5659 34.4082C65.578 34.4082 66.2577 33.9723 66.265 32.8568V31.3941H66.1616C65.8735 32.0442 65.1643 32.7017 63.8715 32.6943C62.0616 32.7017 60.6062 31.4237 60.6062 28.7494C60.6062 26.0382 62.0985 24.6863 63.8715 24.6863C65.216 24.6863 65.8661 25.4841 66.1616 26.1342H66.2503V24.7897H68.4222V32.9011C68.4148 34.9475 66.8043 35.9891 64.5216 35.9891ZM62.852 28.7789C62.8446 30.1678 63.443 31.0469 64.5512 31.0543C65.6445 31.0469 66.265 30.2047 66.265 28.7789C66.265 27.3531 65.6519 26.4297 64.5512 26.4297C63.4356 26.4297 62.8446 27.3975 62.852 28.7789ZM69.6674 32.8125V24.7897H71.8541V32.8125H69.6674ZM69.564 22.6325C69.564 22.012 70.1033 21.517 70.7608 21.5096C71.4109 21.517 71.9502 22.012 71.9428 22.6325C71.9502 23.2383 71.4109 23.7407 70.7608 23.7407C70.1033 23.7407 69.564 23.2383 69.564 22.6325ZM77.6796 27.1685C77.5836 26.607 77.096 26.245 76.3646 26.2376C75.6554 26.245 75.1161 26.5775 75.1235 27.065C75.1161 27.427 75.3969 27.7077 76.1578 27.8629L77.591 28.1584C79.1497 28.4834 79.9032 29.1779 79.9106 30.3303C79.9032 31.9112 78.4848 32.9676 76.3499 32.975C74.1853 32.9676 72.9147 31.9999 72.73 30.4337H74.9315C75.0349 31.0617 75.5446 31.3867 76.3499 31.3941C77.1477 31.3867 77.6796 31.0691 77.6796 30.5519C77.6796 30.1382 77.3398 29.8797 76.5863 29.7245L75.2565 29.4586C73.7273 29.1557 72.9442 28.3726 72.9516 27.1832C72.9442 25.6466 74.2666 24.6863 76.3351 24.6863C78.3592 24.6863 79.6151 25.6466 79.7333 27.1685H77.6796ZM85.0269 24.7897V26.4297H83.5198V30.3451C83.5125 30.9878 83.8301 31.1429 84.2734 31.1577C84.495 31.1577 84.8791 31.1355 85.1451 31.1134V32.842C84.9087 32.879 84.5172 32.9233 83.9779 32.9159C82.397 32.9233 81.3184 32.2141 81.3332 30.6554V26.4297H80.225V24.7897H81.3332V22.8689H83.5198V24.7897H85.0269ZM85.9471 32.8125V24.7897H88.1338V32.8125H85.9471ZM85.8437 22.6325C85.8437 22.012 86.3829 21.517 87.0404 21.5096C87.6905 21.517 88.2298 22.012 88.2224 22.6325C88.2298 23.2383 87.6905 23.7407 87.0404 23.7407C86.3829 23.7407 85.8437 23.2383 85.8437 22.6325ZM92.9841 32.975C90.5241 32.9676 89.0466 31.2685 89.054 28.8233C89.0466 26.3706 90.5536 24.6863 92.9841 24.6863C95.0526 24.6863 96.4562 25.8904 96.5449 27.7299H94.4912C94.3582 26.9394 93.8411 26.3928 93.0137 26.3854C91.9646 26.3928 91.2702 27.2719 91.2702 28.7937C91.2702 30.3451 91.9499 31.2316 93.0137 31.2316C93.782 31.2316 94.3508 30.7514 94.4912 29.9018H96.5449C96.4488 31.7192 95.1117 32.9676 92.9841 32.975ZM102.031 27.1685C101.934 26.607 101.447 26.245 100.716 26.2376C100.006 26.245 99.4671 26.5775 99.4744 27.065C99.4671 27.427 99.7478 27.7077 100.509 27.8629L101.942 28.1584C103.501 28.4834 104.254 29.1779 104.262 30.3303C104.254 31.9112 102.836 32.9676 100.701 32.975C98.5362 32.9676 97.2656 31.9999 97.0809 30.4337H99.2824C99.3858 31.0617 99.8955 31.3867 100.701 31.3941C101.499 31.3867 102.031 31.0691 102.031 30.5519C102.031 30.1382 101.691 29.8797 100.937 29.7245L99.6074 29.4586C98.0782 29.1557 97.2951 28.3726 97.3025 27.1832C97.2951 25.6466 98.6175 24.6863 100.686 24.6863C102.71 24.6863 103.966 25.6466 104.084 27.1685H102.031ZM111.79 32.975C109.33 32.9676 107.853 31.2685 107.86 28.8233C107.853 26.3706 109.36 24.6863 111.79 24.6863C113.859 24.6863 115.262 25.8904 115.351 27.7299H113.297C113.164 26.9394 112.647 26.3928 111.82 26.3854C110.771 26.3928 110.076 27.2719 110.076 28.7937C110.076 30.3451 110.756 31.2316 111.82 31.2316C112.588 31.2316 113.157 30.7514 113.297 29.9018H115.351C115.255 31.7192 113.918 32.9676 111.79 32.975ZM119.891 32.975C117.431 32.9676 115.924 31.3793 115.931 28.838C115.924 26.3632 117.453 24.6863 119.802 24.6863C121.908 24.6863 123.57 26.016 123.57 28.7494V29.3699H118.089C118.089 30.5815 118.805 31.3276 119.935 31.335C120.682 31.3276 121.213 31.0026 121.428 30.5224H123.511C123.201 32.0073 121.871 32.9676 119.891 32.975ZM118.089 27.9959H121.502C121.494 27.0207 120.822 26.3189 119.847 26.3263C118.842 26.3189 118.133 27.0724 118.089 27.9959ZM126.677 28.1732V32.8125H124.49V24.7897H126.574V26.1933H126.662C127.024 25.2699 127.881 24.6863 129.07 24.6863C130.747 24.6863 131.841 25.8313 131.833 27.7004V32.8125H129.661V28.0845C129.654 27.0946 129.122 26.5036 128.214 26.5036C127.305 26.5036 126.677 27.1167 126.677 28.1732ZM137.304 24.7897V26.4297H135.797V30.3451C135.79 30.9878 136.108 31.1429 136.551 31.1577C136.772 31.1577 137.157 31.1355 137.422 31.1134V32.842C137.186 32.879 136.795 32.9233 136.255 32.9159C134.674 32.9233 133.596 32.2141 133.611 30.6554V26.4297H132.502V24.7897H133.611V22.8689H135.797V24.7897H137.304ZM141.77 32.975C139.31 32.9676 137.803 31.3793 137.811 28.838C137.803 26.3632 139.333 24.6863 141.682 24.6863C143.787 24.6863 145.449 26.016 145.449 28.7494V29.3699H139.968C139.968 30.5815 140.684 31.3276 141.815 31.335C142.561 31.3276 143.093 31.0026 143.307 30.5224H145.39C145.08 32.0073 143.75 32.9676 141.77 32.975ZM139.968 27.9959H143.381C143.374 27.0207 142.701 26.3189 141.726 26.3263C140.721 26.3189 140.012 27.0724 139.968 27.9959ZM146.37 32.8125V24.7897H148.482V26.1785H148.571C148.859 25.196 149.605 24.6715 150.507 24.6715C150.728 24.6715 151.009 24.701 151.201 24.7454V26.6957C150.994 26.6292 150.573 26.5775 150.27 26.5775C149.28 26.5775 148.549 27.2645 148.556 28.247V32.8125H146.37ZM158.449 32.975C156.026 32.9676 154.512 31.3055 154.519 28.8233C154.512 26.3485 156.026 24.6863 158.449 24.6863C160.88 24.6863 162.387 26.3485 162.394 28.8233C162.387 31.3055 160.88 32.9676 158.449 32.975ZM156.735 28.8233C156.735 30.2269 157.319 31.2685 158.464 31.2759C159.579 31.2685 160.17 30.2269 160.163 28.8233C160.17 27.4122 159.579 26.3558 158.464 26.3558C157.319 26.3558 156.735 27.4122 156.735 28.8233ZM163.314 35.8266V24.7897H165.471V26.1342H165.56C165.863 25.4841 166.498 24.6863 167.85 24.6863C169.623 24.6863 171.108 26.0603 171.101 28.8085C171.108 31.4901 169.682 32.9455 167.85 32.9455C166.542 32.9455 165.87 32.192 165.56 31.5271H165.501V35.8266H163.314ZM165.457 28.7937C165.449 30.2417 166.07 31.1946 167.156 31.202C168.271 31.1946 168.877 30.2121 168.87 28.7937C168.877 27.3975 168.286 26.4297 167.156 26.4297C166.062 26.4297 165.449 27.3531 165.457 28.7937ZM175.7 32.975C173.24 32.9676 171.733 31.3793 171.74 28.838C171.733 26.3632 173.262 24.6863 175.611 24.6863C177.716 24.6863 179.379 26.016 179.379 28.7494V29.3699H173.897C173.897 30.5815 174.614 31.3276 175.744 31.335C176.49 31.3276 177.022 31.0026 177.236 30.5224H179.32C179.009 32.0073 177.68 32.9676 175.7 32.975ZM173.897 27.9959H177.31C177.303 27.0207 176.631 26.3189 175.655 26.3263C174.651 26.3189 173.941 27.0724 173.897 27.9959ZM180.299 32.8125V24.7897H182.412V26.1785H182.5C182.788 25.196 183.535 24.6715 184.436 24.6715C184.657 24.6715 184.938 24.701 185.13 24.7454V26.6957C184.923 26.6292 184.502 26.5775 184.199 26.5775C183.21 26.5775 182.478 27.2645 182.486 28.247V32.8125H180.299ZM185.134 30.5667C185.142 28.7789 186.575 28.1953 188.119 28.0993C188.695 28.0623 189.774 28.0106 190.114 27.9959V27.3458C190.106 26.6735 189.648 26.2894 188.828 26.282C188.082 26.2894 187.617 26.6218 187.498 27.1685H185.415C185.548 25.7796 186.76 24.6863 188.887 24.6863C190.638 24.6863 192.293 25.4693 192.285 27.4049V32.8125H190.217V31.7044H190.158C189.766 32.4431 188.998 32.9676 187.809 32.9602C186.272 32.9676 185.142 32.155 185.134 30.5667ZM187.232 30.5076C187.232 31.1208 187.727 31.4458 188.429 31.4532C189.427 31.4458 190.121 30.7957 190.114 29.9462V29.3625C189.781 29.3773 188.843 29.429 188.474 29.4586C187.713 29.5251 187.232 29.8871 187.232 30.5076ZM197.727 24.7897V26.4297H196.22V30.3451C196.212 30.9878 196.53 31.1429 196.973 31.1577C197.195 31.1577 197.579 31.1355 197.845 31.1134V32.842C197.609 32.879 197.217 32.9233 196.678 32.9159C195.097 32.9233 194.018 32.2141 194.033 30.6554V26.4297H192.925V24.7897H194.033V22.8689H196.22V24.7897H197.727ZM198.647 32.8125V24.7897H200.834V32.8125H198.647ZM198.544 22.6325C198.544 22.012 199.083 21.517 199.74 21.5096C200.39 21.517 200.93 22.012 200.922 22.6325C200.93 23.2383 200.39 23.7407 199.74 23.7407C199.083 23.7407 198.544 23.2383 198.544 22.6325ZM205.684 32.975C203.261 32.9676 201.746 31.3055 201.754 28.8233C201.746 26.3485 203.261 24.6863 205.684 24.6863C208.115 24.6863 209.622 26.3485 209.629 28.8233C209.622 31.3055 208.115 32.9676 205.684 32.975ZM203.97 28.8233C203.97 30.2269 204.554 31.2685 205.699 31.2759C206.814 31.2685 207.405 30.2269 207.398 28.8233C207.405 27.4122 206.814 26.3558 205.699 26.3558C204.554 26.3558 203.97 27.4122 203.97 28.8233ZM212.736 28.1732V32.8125H210.549V24.7897H212.632V26.1933H212.721C213.083 25.2699 213.94 24.6863 215.129 24.6863C216.806 24.6863 217.9 25.8313 217.892 27.7004V32.8125H215.72V28.0845C215.713 27.0946 215.181 26.5036 214.272 26.5036C213.364 26.5036 212.736 27.1167 212.736 28.1732ZM223.718 27.1685C223.622 26.607 223.134 26.245 222.403 26.2376C221.694 26.245 221.154 26.5775 221.162 27.065C221.154 27.427 221.435 27.7077 222.196 27.8629L223.629 28.1584C225.188 28.4834 225.941 29.1779 225.949 30.3303C225.941 31.9112 224.523 32.9676 222.388 32.975C220.223 32.9676 218.953 31.9999 218.768 30.4337H220.97C221.073 31.0617 221.583 31.3867 222.388 31.3941C223.186 31.3867 223.718 31.0691 223.718 30.5519C223.718 30.1382 223.378 29.8797 222.624 29.7245L221.295 29.4586C219.765 29.1557 218.982 28.3726 218.99 27.1832C218.982 25.6466 220.305 24.6863 222.373 24.6863C224.397 24.6863 225.653 25.6466 225.771 27.1685H223.718ZM23.2155 50.1732V54.8125H21.0288V44.1154H23.1564V48.1933H23.2451C23.6144 47.2551 24.4197 46.6863 25.6386 46.6863C27.3156 46.6863 28.4163 47.8166 28.4163 49.7004V54.8125H26.2296V50.0845C26.2296 49.0872 25.6977 48.5036 24.7817 48.5036C23.8582 48.5036 23.2155 49.1167 23.2155 50.1732ZM29.2626 52.5667C29.27 50.7789 30.7032 50.1953 32.2472 50.0993C32.8234 50.0623 33.902 50.0106 34.2418 49.9959V49.3458C34.2344 48.6735 33.7764 48.2894 32.9564 48.282C32.2102 48.2894 31.7448 48.6218 31.6266 49.1685H29.5433C29.6763 47.7796 30.8879 46.6863 33.0155 46.6863C34.7663 46.6863 36.4211 47.4693 36.4137 49.4049V54.8125H34.3452V53.7044H34.2861C33.8946 54.4431 33.1263 54.9676 31.9369 54.9602C30.4003 54.9676 29.27 54.155 29.2626 52.5667ZM31.3607 52.5076C31.3607 53.1208 31.8556 53.4458 32.5574 53.4532C33.5547 53.4458 34.2492 52.7957 34.2418 51.9462V51.3625C33.9093 51.3773 32.9711 51.429 32.6018 51.4586C31.8408 51.5251 31.3607 51.8871 31.3607 52.5076ZM44.7805 46.7897L41.9585 54.8125H39.5058L36.6986 46.7897H39.0035L40.6878 52.5519H40.7765L42.4608 46.7897H44.7805ZM48.7591 54.975C46.299 54.9676 44.792 53.3793 44.7994 50.838C44.792 48.3632 46.3212 46.6863 48.6704 46.6863C50.7759 46.6863 52.438 48.016 52.438 50.7494V51.3699H46.9565C46.9565 52.5815 47.6731 53.3276 48.8034 53.335C49.5495 53.3276 50.0814 53.0026 50.2957 52.5224H52.3789C52.0687 54.0073 50.7389 54.9676 48.7591 54.975ZM46.9565 49.9959H50.3695C50.3622 49.0207 49.6899 48.3189 48.7148 48.3263C47.7101 48.3189 47.0009 49.0724 46.9565 49.9959ZM56.4356 54.8125V44.1154H58.6223V48.1342H58.6814C58.9842 47.4841 59.6196 46.6863 60.9715 46.6863C62.7445 46.6863 64.2294 48.0603 64.2367 50.8085C64.2294 53.4901 62.8036 54.9455 60.9715 54.9455C59.6639 54.9455 58.999 54.192 58.6814 53.5271H58.5927V54.8125H56.4356ZM58.5779 50.7937C58.5705 52.2417 59.1985 53.1946 60.2771 53.202C61.3926 53.1946 61.9983 52.2121 61.9909 50.7937C61.9983 49.3975 61.4073 48.4297 60.2771 48.4297C59.1911 48.4297 58.5705 49.3531 58.5779 50.7937ZM68.8211 54.975C66.3611 54.9676 64.854 53.3793 64.8614 50.838C64.854 48.3632 66.3832 46.6863 68.7325 46.6863C70.8379 46.6863 72.5001 48.016 72.5001 50.7494V51.3699H67.0186C67.0186 52.5815 67.7352 53.3276 68.8654 53.335C69.6116 53.3276 70.1435 53.0026 70.3577 52.5224H72.441C72.1307 54.0073 70.801 54.9676 68.8211 54.975ZM67.0186 49.9959H70.4316C70.4242 49.0207 69.7519 48.3189 68.7768 48.3263C67.7721 48.3189 67.0629 49.0724 67.0186 49.9959ZM77.0549 54.975C74.5949 54.9676 73.0878 53.3793 73.0952 50.838C73.0878 48.3632 74.617 46.6863 76.9663 46.6863C79.0717 46.6863 80.7339 48.016 80.7339 50.7494V51.3699H75.2524C75.2524 52.5815 75.969 53.3276 77.0992 53.335C77.8454 53.3276 78.3773 53.0026 78.5915 52.5224H80.6748C80.3645 54.0073 79.0348 54.9676 77.0549 54.975ZM75.2524 49.9959H78.6654C78.658 49.0207 77.9857 48.3189 77.0106 48.3263C76.0059 48.3189 75.2967 49.0724 75.2524 49.9959ZM83.8408 50.1732V54.8125H81.6541V46.7897H83.7373V48.1933H83.826C84.188 47.2699 85.0449 46.6863 86.2343 46.6863C87.9113 46.6863 89.0046 47.8313 88.9972 49.7004V54.8125H86.8253V50.0845C86.8179 49.0946 86.286 48.5036 85.3774 48.5036C84.4687 48.5036 83.8408 49.1167 83.8408 50.1732ZM98.4172 51.3995V46.7897H100.604V54.8125H98.5058V53.3646H98.4172C98.0552 54.2954 97.1908 54.9159 95.9793 54.9159C94.3762 54.9159 93.2755 53.7783 93.2755 51.9018V46.7897H95.4622V51.5177C95.4622 52.4707 96.0088 53.0617 96.8658 53.0691C97.6636 53.0617 98.4172 52.4928 98.4172 51.3995ZM101.849 57.8266V46.7897H104.006V48.1342H104.095C104.398 47.4841 105.033 46.6863 106.385 46.6863C108.158 46.6863 109.643 48.0603 109.635 50.8085C109.643 53.4901 108.217 54.9455 106.385 54.9455C105.077 54.9455 104.405 54.192 104.095 53.5271H104.036V57.8266H101.849ZM103.991 50.7937C103.984 52.2417 104.605 53.1946 105.691 53.202C106.806 53.1946 107.412 52.2121 107.404 50.7937C107.412 49.3975 106.821 48.4297 105.691 48.4297C104.597 48.4297 103.984 49.3531 103.991 50.7937ZM114.205 57.9891C111.989 57.9891 110.622 56.9918 110.497 55.4774H112.654C112.772 56.1201 113.378 56.4082 114.249 56.4082C115.262 56.4082 115.941 55.9723 115.949 54.8568V53.3941H115.845C115.557 54.0442 114.848 54.7017 113.555 54.6943C111.745 54.7017 110.29 53.4237 110.29 50.7494C110.29 48.0382 111.782 46.6863 113.555 46.6863C114.9 46.6863 115.55 47.4841 115.845 48.1342H115.934V46.7897H118.106V54.9011C118.098 56.9475 116.488 57.9891 114.205 57.9891ZM112.536 50.7789C112.528 52.1678 113.127 53.0469 114.235 53.0543C115.328 53.0469 115.949 52.2047 115.949 50.7789C115.949 49.3531 115.335 48.4297 114.235 48.4297C113.119 48.4297 112.528 49.3975 112.536 50.7789ZM119.351 54.8125V46.7897H121.464V48.1785H121.552C121.841 47.196 122.587 46.6715 123.488 46.6715C123.71 46.6715 123.99 46.701 124.182 46.7454V48.6957C123.975 48.6292 123.554 48.5775 123.252 48.5775C122.262 48.5775 121.53 49.2645 121.538 50.247V54.8125H119.351ZM124.186 52.5667C124.194 50.7789 125.627 50.1953 127.171 50.0993C127.747 50.0623 128.826 50.0106 129.166 49.9959V49.3458C129.158 48.6735 128.7 48.2894 127.88 48.282C127.134 48.2894 126.669 48.6218 126.55 49.1685H124.467C124.6 47.7796 125.812 46.6863 127.939 46.6863C129.69 46.6863 131.345 47.4693 131.338 49.4049V54.8125H129.269V53.7044H129.21C128.818 54.4431 128.05 54.9676 126.861 54.9602C125.324 54.9676 124.194 54.155 124.186 52.5667ZM126.285 52.5076C126.285 53.1208 126.779 53.4458 127.481 53.4532C128.479 53.4458 129.173 52.7957 129.166 51.9462V51.3625C128.833 51.3773 127.895 51.429 127.526 51.4586C126.765 51.5251 126.285 51.8871 126.285 52.5076ZM135.508 54.9455C133.676 54.9455 132.243 53.4901 132.243 50.8085C132.243 48.0603 133.735 46.6863 135.508 46.6863C136.853 46.6863 137.495 47.4841 137.784 48.1342H137.857V44.1154H140.044V54.8125H137.887V53.5271H137.784C137.481 54.192 136.816 54.9455 135.508 54.9455ZM134.489 50.7937C134.481 52.2121 135.08 53.1946 136.188 53.202C137.281 53.1946 137.902 52.2417 137.902 50.7937C137.902 49.3531 137.289 48.4297 136.188 48.4297C135.072 48.4297 134.481 49.3975 134.489 50.7937ZM144.983 54.975C142.523 54.9676 141.016 53.3793 141.023 50.838C141.016 48.3632 142.545 46.6863 144.894 46.6863C147 46.6863 148.662 48.016 148.662 50.7494V51.3699H143.181C143.181 52.5815 143.897 53.3276 145.027 53.335C145.774 53.3276 146.305 53.0026 146.52 52.5224H148.603C148.293 54.0073 146.963 54.9676 144.983 54.975ZM143.181 49.9959H146.594C146.586 49.0207 145.914 48.3189 144.939 48.3263C143.934 48.3189 143.225 49.0724 143.181 49.9959ZM152.537 54.9455C150.705 54.9455 149.272 53.4901 149.272 50.8085C149.272 48.0603 150.764 46.6863 152.537 46.6863C153.882 46.6863 154.525 47.4841 154.813 48.1342H154.886V44.1154H157.073V54.8125H154.916V53.5271H154.813C154.51 54.192 153.845 54.9455 152.537 54.9455ZM151.518 50.7937C151.51 52.2121 152.109 53.1946 153.217 53.202C154.31 53.1946 154.931 52.2417 154.931 50.7937C154.931 49.3531 154.318 48.4297 153.217 48.4297C152.101 48.4297 151.51 49.3975 151.518 50.7937ZM166.552 51.3995V46.7897H168.739V54.8125H166.641V53.3646H166.552C166.19 54.2954 165.326 54.9159 164.114 54.9159C162.511 54.9159 161.411 53.7783 161.411 51.9018V46.7897H163.597V51.5177C163.597 52.4707 164.144 53.0617 165.001 53.0691C165.799 53.0617 166.552 52.4928 166.552 51.3995ZM174.564 49.1685C174.468 48.607 173.981 48.245 173.249 48.2376C172.54 48.245 172.001 48.5775 172.008 49.065C172.001 49.427 172.282 49.7077 173.043 49.8629L174.476 50.1584C176.034 50.4834 176.788 51.1779 176.795 52.3303C176.788 53.9112 175.37 54.9676 173.235 54.975C171.07 54.9676 169.799 53.9999 169.615 52.4337H171.816C171.92 53.0617 172.429 53.3867 173.235 53.3941C174.032 53.3867 174.564 53.0691 174.564 52.5519C174.564 52.1382 174.225 51.8797 173.471 51.7245L172.141 51.4586C170.612 51.1557 169.829 50.3726 169.836 49.1832C169.829 47.6466 171.151 46.6863 173.22 46.6863C175.244 46.6863 176.5 47.6466 176.618 49.1685H174.564ZM177.686 54.8125V46.7897H179.873V54.8125H177.686ZM177.583 44.6325C177.583 44.012 178.122 43.517 178.779 43.5096C179.429 43.517 179.969 44.012 179.961 44.6325C179.969 45.2383 179.429 45.7407 178.779 45.7407C178.122 45.7407 177.583 45.2383 177.583 44.6325ZM183.305 50.1732V54.8125H181.118V46.7897H183.201V48.1933H183.29C183.652 47.2699 184.509 46.6863 185.698 46.6863C187.375 46.6863 188.469 47.8313 188.461 49.7004V54.8125H186.289V50.0845C186.282 49.0946 185.75 48.5036 184.841 48.5036C183.933 48.5036 183.305 49.1167 183.305 50.1732ZM193.311 57.9891C191.095 57.9891 189.729 56.9918 189.603 55.4774H191.76C191.878 56.1201 192.484 56.4082 193.356 56.4082C194.368 56.4082 195.048 55.9723 195.055 54.8568V53.3941H194.951C194.663 54.0442 193.954 54.7017 192.661 54.6943C190.851 54.7017 189.396 53.4237 189.396 50.7494C189.396 48.0382 190.888 46.6863 192.661 46.6863C194.006 46.6863 194.656 47.4841 194.951 48.1342H195.04V46.7897H197.212V54.9011C197.205 56.9475 195.594 57.9891 193.311 57.9891ZM191.642 50.7789C191.635 52.1678 192.233 53.0469 193.341 53.0543C194.434 53.0469 195.055 52.2047 195.055 50.7789C195.055 49.3531 194.442 48.4297 193.341 48.4297C192.226 48.4297 191.635 49.3975 191.642 50.7789ZM26.8797 69.1738C26.7911 68.3243 26.1188 67.8293 25.0328 67.8293C23.9099 67.8293 23.282 68.3464 23.2746 69.0556C23.2672 69.8313 24.0651 70.1785 24.9885 70.3854L25.9489 70.6218C27.781 71.0429 29.1477 71.9737 29.1551 73.7541C29.1477 75.7118 27.6258 76.9676 25.0181 76.9602C22.4324 76.9676 20.785 75.7709 20.7185 73.4734H22.8757C22.9496 74.5519 23.8065 75.0986 24.9885 75.0986C26.1557 75.0986 26.9093 74.5519 26.9093 73.7541C26.9093 73.0227 26.2444 72.6829 25.0772 72.3948L23.9099 72.1141C22.1074 71.6708 20.9993 70.7695 20.9993 69.2034C20.9919 67.2605 22.7058 65.9677 25.0476 65.9677C27.419 65.9677 28.9778 67.2826 29.0073 69.1738H26.8797ZM34.3304 68.7897V70.4297H32.8234V74.3451C32.816 74.9878 33.1337 75.1429 33.5769 75.1577C33.7985 75.1577 34.1827 75.1355 34.4486 75.1134V76.842C34.2122 76.879 33.8207 76.9233 33.2814 76.9159C31.7005 76.9233 30.6219 76.2141 30.6367 74.6554V70.4297H29.5286V68.7897H30.6367V66.8689H32.8234V68.7897H34.3304ZM38.7671 76.975C36.344 76.9676 34.8295 75.3055 34.8369 72.8233C34.8295 70.3485 36.344 68.6863 38.7671 68.6863C41.1975 68.6863 42.7046 70.3485 42.712 72.8233C42.7046 75.3055 41.1975 76.9676 38.7671 76.975ZM37.0532 72.8233C37.0532 74.2269 37.6368 75.2685 38.7818 75.2759C39.8973 75.2685 40.4883 74.2269 40.481 72.8233C40.4883 71.4122 39.8973 70.3558 38.7818 70.3558C37.6368 70.3558 37.0532 71.4122 37.0532 72.8233ZM47.2373 76.975C44.7772 76.9676 43.2997 75.2685 43.3071 72.8233C43.2997 70.3706 44.8068 68.6863 47.2373 68.6863C49.3057 68.6863 50.7094 69.8904 50.798 71.7299H48.7443C48.6113 70.9394 48.0942 70.3928 47.2668 70.3854C46.2178 70.3928 45.5234 71.2719 45.5234 72.7937C45.5234 74.3451 46.203 75.2316 47.2668 75.2316C48.0351 75.2316 48.6039 74.7514 48.7443 73.9018H50.798C50.702 75.7192 49.3648 76.9676 47.2373 76.975ZM51.7034 76.8125V66.1154H53.8901V71.8629H54.0083L56.6087 68.7897H59.1205L56.1285 72.2618L59.283 76.8125H56.7121L54.5033 73.5472L53.8901 74.2417V76.8125H51.7034ZM63.956 68.7897V70.4297H62.3603V76.8125H60.1736V70.4297H59.036V68.7897H60.1736V68.1839C60.1736 66.4922 61.1931 65.6131 62.8036 65.6131C63.2985 65.6131 63.7196 65.6574 64.1038 65.746V67.4008C63.7861 67.3713 63.5571 67.3639 63.4389 67.3565C62.7371 67.3639 62.3603 67.6299 62.3603 68.3021V68.7897H63.956ZM66.9742 66.1154V76.8125H64.7876V66.1154H66.9742ZM71.8246 76.975C69.4015 76.9676 67.887 75.3055 67.8944 72.8233C67.887 70.3485 69.4015 68.6863 71.8246 68.6863C74.2551 68.6863 75.7621 70.3485 75.7695 72.8233C75.7621 75.3055 74.2551 76.9676 71.8246 76.975ZM70.1107 72.8233C70.1107 74.2269 70.6943 75.2685 71.8393 75.2759C72.9549 75.2685 73.5459 74.2269 73.5385 72.8233C73.5459 71.4122 72.9549 70.3558 71.8393 70.3558C70.6943 70.3558 70.1107 71.4122 70.1107 72.8233ZM78.0637 76.8125L75.8771 68.7897H78.0933L79.3492 74.2121H79.423L80.738 68.7897H82.9099L84.2397 74.1826H84.3136L85.5547 68.7897H87.7709L85.5694 76.8125H83.2645L81.8757 71.7151H81.7723L80.3834 76.8125H78.0637ZM88.6172 76.9455C87.9228 76.9455 87.3613 76.3914 87.3761 75.7044C87.3613 75.0247 87.9228 74.4707 88.6172 74.4781C89.2747 74.4707 89.8435 75.0247 89.8435 75.7044C89.8435 76.3914 89.2747 76.9455 88.6172 76.9455Z" fill="black"/>
<path d="M23.8032 78.6774C21.8726 78.6774 20.7465 77.126 20.7465 74.4025C20.7465 71.702 21.8956 70.1276 23.8032 70.1276C25.7108 70.1276 26.86 71.702 26.86 74.4025C26.86 77.126 25.7223 78.6774 23.8032 78.6774ZM23.8032 77.5857C24.9294 77.5857 25.5959 76.4825 25.5959 74.4025C25.5959 72.334 24.9179 71.1964 23.8032 71.1964C22.6885 71.1964 22.0105 72.334 22.0105 74.4025C22.0105 76.4825 22.6771 77.5857 23.8032 77.5857ZM30.7129 78.6774C28.7823 78.6774 27.6562 77.126 27.6562 74.4025C27.6562 71.702 28.8053 70.1276 30.7129 70.1276C32.6205 70.1276 33.7697 71.702 33.7697 74.4025C33.7697 77.126 32.632 78.6774 30.7129 78.6774ZM30.7129 77.5857C31.8391 77.5857 32.5056 76.4825 32.5056 74.4025C32.5056 72.334 31.8276 71.1964 30.7129 71.1964C29.5982 71.1964 28.9202 72.334 28.9202 74.4025C28.9202 76.4825 29.5867 77.5857 30.7129 77.5857ZM42.7019 70.2311V71.2423C42.7019 72.5179 42.7019 73.9429 42.3112 76.0458L41.208 75.9309C41.6102 73.9429 41.6102 72.4834 41.6102 71.2423V71.1159H35.3588V70.2311H42.7019ZM43.7592 77.241V78.1488H34.3705V77.241H37.9444V73.6096H39.0246V77.241H43.7592ZM52.9672 69.2543V75.3104H51.9329V72.6673H50.6918V75.2529H49.6576V69.4381H50.6918V71.7594H51.9329V69.2543H52.9672ZM52.9672 75.7585V79.5393H51.887V76.6434H45.9343V75.7585H52.9672ZM48.6923 69.9897C48.6923 72.4949 47.3478 74.3106 44.7162 75.4023L44.1876 74.5864C46.2676 73.7705 47.3937 72.4892 47.5891 70.8746H44.6357V69.9897H48.6923ZM57.5786 71.8629C57.5671 73.69 58.6243 75.5517 60.1642 76.2986L59.4862 77.172C58.3657 76.5917 57.4981 75.4368 57.0499 74.0578C56.5845 75.5287 55.6824 76.7583 54.5103 77.3674L53.8323 76.4825C55.4181 75.7241 56.4868 73.7475 56.4868 71.8629V70.1047H57.5786V71.8629ZM62.0258 69.2428V73.3453H63.6806V74.2761H62.0258V79.5393H60.9341V69.2428H62.0258Z" fill="#6B6C75"/>
</svg>
