<svg width="1258" height="712" viewBox="0 0 1258 712" fill="none" xmlns="http://www.w3.org/2000/svg">
<path d="M618.065 78.4258V143.801C618.065 187.984 582.248 223.801 538.065 223.801H436.604C400.161 223.801 370.618 253.344 370.618 289.787V289.787C370.618 326.23 400.161 355.773 436.604 355.773H858.295C894.738 355.773 924.281 385.316 924.281 421.759V421.759C924.281 458.202 894.738 487.745 858.295 487.745H265.205C225.483 487.745 193.281 519.946 193.281 559.668V559.668C193.281 599.391 225.483 631.592 265.205 631.592L756.281 631.592" stroke="#DADDE6" stroke-width="6"/>
<rect x="555.281" width="120" height="120" rx="60" fill="#CDCFD6"/>
<path d="M603.408 60.3945C603.408 67.3086 599.101 71.293 593.505 71.293C587.851 71.293 583.574 67.2793 583.574 60.3945C583.574 53.4805 587.851 49.4961 593.505 49.4961C599.101 49.4961 603.408 53.4805 603.408 60.3945ZM598.925 60.3945C598.925 55.8535 596.787 53.3926 593.505 53.3926C590.224 53.3926 588.056 55.8535 588.056 60.3945C588.056 64.9355 590.224 67.3965 593.505 67.3965C596.787 67.3965 598.925 64.9355 598.925 60.3945ZM605.672 49.7891H611.121L617.01 64.1738H617.244L623.133 49.7891H628.582V71H624.305V57.1133H624.129L618.592 70.9121H615.662L610.125 57.0547H609.949V71H605.672V49.7891ZM642.77 55.8535C642.594 54.1836 641.246 53.1875 639.108 53.1875C636.881 53.1875 635.651 54.2129 635.621 55.6191C635.592 57.1426 637.204 57.8457 639.02 58.2559L640.924 58.7246C644.557 59.5449 647.282 61.3906 647.282 64.9355C647.282 68.832 644.235 71.293 639.079 71.293C633.952 71.293 630.67 68.9199 630.553 64.3789H634.83C634.977 66.5176 636.676 67.6016 639.02 67.6016C641.334 67.6016 642.829 66.5176 642.829 64.9355C642.829 63.5 641.51 62.8262 639.196 62.2402L636.881 61.6836C633.307 60.8047 631.11 59.0176 631.11 55.9121C631.11 52.0449 634.508 49.4961 639.137 49.4961C643.825 49.4961 646.93 52.1035 646.989 55.8535H642.77Z" fill="white"/>
<rect x="555.281" y="138" width="120" height="119.008" rx="59.5041" fill="url(#paint0_linear_127_1205)"/>
<path d="M585.039 208.504L578.974 187.293H583.779L587.353 202.117H587.529L591.425 187.293H595.556L599.453 202.146H599.629L603.203 187.293H608.007L601.943 208.504H597.636L593.593 194.5H593.418L589.345 208.504H585.039ZM609.363 187.293H614.813L620.701 201.678H620.936L626.824 187.293H632.273V208.504H627.996V194.617H627.82L622.283 208.416H619.354L613.816 194.559H613.641V208.504H609.363V187.293ZM646.461 193.357C646.286 191.688 644.938 190.691 642.799 190.691C640.573 190.691 639.342 191.717 639.313 193.123C639.284 194.646 640.895 195.35 642.711 195.76L644.616 196.229C648.248 197.049 650.973 198.895 650.973 202.439C650.973 206.336 647.926 208.797 642.77 208.797C637.643 208.797 634.362 206.424 634.245 201.883H638.522C638.668 204.021 640.368 205.105 642.711 205.105C645.026 205.105 646.52 204.021 646.52 202.439C646.52 201.004 645.202 200.33 642.887 199.744L640.573 199.188C636.998 198.309 634.801 196.521 634.801 193.416C634.801 189.549 638.2 187 642.829 187C647.516 187 650.621 189.607 650.68 193.357H646.461Z" fill="white"/>
<path d="M720.72 427L716.677 412.859H719.88L722.263 422.742H722.38L724.978 412.859H727.732L730.329 422.762H730.446L732.829 412.859H736.032L731.989 427H729.118L726.423 417.664H726.306L723.591 427H720.72ZM735.218 424.031C735.218 421.668 737.132 420.887 739.163 420.77C739.925 420.721 741.35 420.652 741.8 420.633V419.773C741.78 418.895 741.175 418.367 740.1 418.367C739.124 418.367 738.499 418.816 738.343 419.539H735.589C735.764 417.703 737.366 416.258 740.179 416.258C742.483 416.258 744.671 417.293 744.671 419.852V427H741.936V425.535H741.858C741.331 426.512 740.335 427.195 738.753 427.195C736.721 427.195 735.218 426.141 735.218 424.031ZM737.991 423.953C737.991 424.773 738.655 425.203 739.573 425.203C740.882 425.203 741.819 424.324 741.8 423.211V422.43C741.36 422.449 740.13 422.518 739.632 422.566C738.636 422.664 737.991 423.133 737.991 423.953ZM755.731 416.395L752 427H748.758L745.047 416.395H748.094L750.321 424.012H750.438L752.664 416.395H755.731ZM760.99 427.215C757.748 427.215 755.756 425.105 755.756 421.746C755.756 418.465 757.768 416.258 760.873 416.258C763.666 416.258 765.854 418.016 765.854 421.629V422.449H758.607C758.607 424.051 759.564 425.047 761.049 425.047C762.025 425.047 762.729 424.617 763.021 423.973H765.775C765.365 425.926 763.607 427.215 760.99 427.215ZM758.607 420.633H763.119C763.119 419.344 762.221 418.426 760.932 418.426C759.604 418.426 758.656 419.412 758.607 420.633ZM784.575 410.984V414.852H786.978V416.844H784.575V420.613H782.075V410.984H784.575ZM784.575 421.336V425.828H775.259V426.844H785.083V428.68H772.818V424.129H782.095V423.133H772.779V421.336H784.575ZM781.021 412.352V414.246H770.474V412.352H774.517V410.906H776.997V412.352H781.021ZM775.747 414.676C778.404 414.676 780.122 415.809 780.122 417.586C780.122 419.402 778.404 420.496 775.747 420.496C773.091 420.496 771.333 419.402 771.333 417.586C771.333 415.809 773.091 414.676 775.747 414.676ZM775.747 416.434C774.517 416.434 773.755 416.844 773.775 417.586C773.755 418.348 774.517 418.719 775.747 418.719C776.978 418.719 777.759 418.348 777.759 417.586C777.759 416.844 776.978 416.434 775.747 416.434ZM801.3 411.023V415.242H803.663V417.273H801.3V421.316H798.761V411.023H801.3ZM795.44 421.629C799.093 421.629 801.436 422.957 801.436 425.184C801.436 427.469 799.093 428.797 795.44 428.797C791.71 428.797 789.346 427.469 789.346 425.184C789.346 422.957 791.71 421.629 795.44 421.629ZM795.44 423.602C793.096 423.602 791.788 424.148 791.807 425.184C791.788 426.258 793.096 426.824 795.44 426.824C797.686 426.824 799.014 426.258 799.014 425.184C799.014 424.148 797.686 423.602 795.44 423.602ZM795.772 412.215V414.207H790.264V418.348C793.555 418.328 795.362 418.23 797.354 417.801L797.569 419.793C795.382 420.281 793.292 420.34 789.268 420.359H787.784V412.215H795.772Z" fill="black"/>
<path d="M474.22 427L470.177 412.859H473.38L475.763 422.742H475.88L478.478 412.859H481.232L483.829 422.762H483.946L486.329 412.859H489.532L485.489 427H482.618L479.923 417.664H479.806L477.091 427H474.22ZM488.718 424.031C488.718 421.668 490.632 420.887 492.663 420.77C493.425 420.721 494.85 420.652 495.3 420.633V419.773C495.28 418.895 494.675 418.367 493.6 418.367C492.624 418.367 491.999 418.816 491.843 419.539H489.089C489.264 417.703 490.866 416.258 493.679 416.258C495.983 416.258 498.171 417.293 498.171 419.852V427H495.436V425.535H495.358C494.831 426.512 493.835 427.195 492.253 427.195C490.221 427.195 488.718 426.141 488.718 424.031ZM491.491 423.953C491.491 424.773 492.155 425.203 493.073 425.203C494.382 425.203 495.319 424.324 495.3 423.211V422.43C494.86 422.449 493.63 422.518 493.132 422.566C492.136 422.664 491.491 423.133 491.491 423.953ZM509.231 416.395L505.5 427H502.258L498.547 416.395H501.594L503.821 424.012H503.938L506.164 416.395H509.231ZM514.49 427.215C511.248 427.215 509.256 425.105 509.256 421.746C509.256 418.465 511.268 416.258 514.373 416.258C517.166 416.258 519.354 418.016 519.354 421.629V422.449H512.107C512.107 424.051 513.064 425.047 514.549 425.047C515.525 425.047 516.229 424.617 516.521 423.973H519.275C518.865 425.926 517.107 427.215 514.49 427.215ZM512.107 420.633H516.619C516.619 419.344 515.721 418.426 514.432 418.426C513.104 418.426 512.156 419.412 512.107 420.633ZM529.657 414.188C529.657 416.102 530.654 418.016 533.017 418.914L531.689 420.809C530.175 420.232 529.13 419.178 528.486 417.859C527.841 419.402 526.728 420.691 525.068 421.375L523.72 419.461C526.22 418.367 527.236 416.18 527.236 414.188V412.098H529.657V414.188ZM539.247 411.043V421.902H536.884V417.391H535.4V421.355H533.075V411.355H535.4V415.379H536.884V411.043H539.247ZM533.173 422.156C536.923 422.156 539.325 423.406 539.345 425.477C539.325 427.547 536.923 428.797 533.173 428.797C529.404 428.797 527.021 427.547 527.021 425.477C527.021 423.406 529.404 422.156 533.173 422.156ZM533.173 424.012C530.849 424.012 529.501 424.52 529.521 425.477C529.501 426.434 530.849 426.922 533.173 426.922C535.478 426.922 536.825 426.434 536.825 425.477C536.825 424.52 535.478 424.012 533.173 424.012ZM547.378 413.445C547.358 415.828 548.589 418.016 551.44 418.895L550.132 420.848C548.218 420.184 546.919 418.953 546.186 417.352C545.386 419.207 543.95 420.672 541.811 421.395L540.503 419.402C543.55 418.426 544.839 416.043 544.858 413.562V411.941H547.378V413.445ZM555.639 411.023V421.434H553.159V416.316H549.819V414.285H553.159V411.023H555.639ZM549.565 421.902C553.354 421.902 555.679 423.172 555.698 425.359C555.679 427.547 553.354 428.797 549.565 428.797C545.776 428.797 543.452 427.547 543.452 425.359C543.452 423.172 545.776 421.902 549.565 421.902ZM549.565 423.836C547.202 423.836 545.932 424.344 545.932 425.359C545.932 426.336 547.202 426.863 549.565 426.863C551.929 426.863 553.218 426.336 553.218 425.359C553.218 424.344 551.929 423.836 549.565 423.836Z" fill="black"/>
<path d="M418.879 159.578V161.551H412.004V162.684H416.906V167.234H407.004V168.309H417.375V170.184H404.562V165.477H414.445V164.559H404.543V162.684H409.504V161.551H402.668V159.578H418.879ZM416.828 153.035V158.641H404.68V153.035H416.828ZM407.121 154.969V156.727H414.348V154.969H407.121ZM435.603 162.957V164.91H431.853V170.301H429.334V164.91H425.623V170.301H423.142V164.91H419.334V162.957H435.603ZM433.728 153.055V158.23H423.787V159.676H434.138V161.668H421.267V156.414H431.17V155.086H421.209V153.055H433.728ZM452.288 162.41V164.422H448.48V170.301H445.941V164.422H442.308V170.301H439.749V164.422H436.019V162.41H452.288ZM444.105 153.113C447.913 153.113 450.589 154.695 450.589 157.137C450.589 159.539 447.913 161.043 444.105 161.043C440.296 161.043 437.64 159.539 437.659 157.137C437.64 154.695 440.296 153.113 444.105 153.113ZM444.105 155.105C441.722 155.105 440.198 155.828 440.218 157.137C440.198 158.387 441.722 159.09 444.105 159.09C446.507 159.09 448.011 158.387 448.011 157.137C448.011 155.828 446.507 155.105 444.105 155.105ZM468.934 161.688V163.641H452.684V161.688H459.559V160.594H454.716V152.957H467.04V154.871H457.216V155.867H466.63V157.664H457.216V158.68H467.196V160.594H462.059V161.688H468.934ZM460.809 164.461C464.735 164.441 466.981 165.496 467.001 167.371C466.981 169.285 464.735 170.301 460.809 170.301C456.825 170.301 454.579 169.285 454.579 167.371C454.579 165.496 456.825 164.441 460.809 164.461ZM460.809 166.297C458.251 166.297 457.059 166.629 457.079 167.371C457.059 168.133 458.251 168.465 460.809 168.465C463.309 168.465 464.481 168.133 464.501 167.371C464.481 166.629 463.309 166.297 460.809 166.297ZM483.432 152.527V159.344H485.952V161.395H483.432V170.262H480.932V152.527H483.432ZM478.686 154.344C478.666 159.656 476.596 164.266 470.62 167.195L469.213 165.281C473.422 163.172 475.678 160.34 476.147 156.375H470.229V154.344H478.686ZM494.102 163.602C497.988 163.602 500.43 164.832 500.449 166.961C500.43 169.051 497.988 170.301 494.102 170.301C490.254 170.301 487.773 169.051 487.773 166.961C487.773 164.832 490.254 163.602 494.102 163.602ZM494.102 165.457C491.66 165.457 490.254 165.965 490.254 166.961C490.254 167.918 491.66 168.406 494.102 168.406C496.543 168.406 497.969 167.918 497.969 166.961C497.969 165.965 496.543 165.457 494.102 165.457ZM500.352 153.328V154.773C500.352 156.18 500.352 157.703 499.844 159.539L497.402 159.305C497.793 157.693 497.842 156.492 497.871 155.281H487.949V153.328H500.352ZM502.266 160.457V162.469H486.133V160.457H492.188V157.352H494.648V160.457H502.266ZM509.263 155.32C509.263 157.469 510.513 159.539 513.326 160.418L511.998 162.352C510.113 161.727 508.795 160.516 508.033 158.953C507.261 160.75 505.884 162.156 503.853 162.84L502.505 160.887C505.474 159.891 506.744 157.527 506.763 155.086V153.465H509.263V155.32ZM516.88 152.527V156.688H519.283V158.758H516.88V163.074H514.38V152.527H516.88ZM511.06 163.426C514.732 163.426 517.056 164.695 517.056 166.863C517.056 169.051 514.732 170.301 511.06 170.301C507.31 170.301 504.966 169.051 504.966 166.863C504.966 164.695 507.31 163.426 511.06 163.426ZM511.06 165.379C508.716 165.379 507.447 165.887 507.466 166.863C507.447 167.879 508.716 168.348 511.06 168.348C513.365 168.348 514.595 167.879 514.595 166.863C514.595 165.887 513.365 165.379 511.06 165.379ZM535.675 160.848V162.82H528.8V164.344H533.741V170.105H521.339V164.344H526.32V162.82H519.464V160.848H535.675ZM534.23 153.016V155.008H531.905V157.723H534.113V159.715H521.007V157.723H523.195V155.008H520.89V153.016H534.23ZM523.8 166.277V168.113H531.3V166.277H523.8ZM525.695 157.723H529.405V155.008H525.695V157.723ZM418.938 194.238V196.328H402.668V194.238H409.504V191.035H404.016V189.082H406.398V184.004H403.938V182.012H417.57V184.004H415.07V189.082H417.492V191.035H411.984V194.238H418.938ZM408.898 189.082H412.609V184.004H408.898V189.082ZM429.451 181.719V183.711H425.916C425.935 185.781 427.175 187.783 430.017 188.613L428.826 190.566C426.863 189.971 425.505 188.779 424.724 187.246C423.933 189.043 422.488 190.469 420.349 191.172L419.08 189.199C422.029 188.271 423.357 185.967 423.396 183.711H419.763V181.719H429.451ZM433.455 180.527V184.648H435.857V186.68H433.455V191.074H430.955V180.527H433.455ZM427.634 191.426C431.326 191.406 433.63 192.676 433.63 194.844C433.63 197.012 431.326 198.301 427.634 198.301C423.865 198.301 421.541 197.012 421.541 194.844C421.541 192.676 423.865 191.406 427.634 191.426ZM427.634 193.359C425.291 193.359 424.021 193.848 424.041 194.844C424.021 195.859 425.291 196.367 427.634 196.367C429.939 196.367 431.17 195.859 431.17 194.844C431.17 193.848 429.939 193.359 427.634 193.359ZM442.757 181.699L438.187 198.633H435.706L440.257 181.699H442.757ZM451.434 183.242V185.215H442.841V183.242H445.927V181.016H448.388V183.242H451.434ZM447.177 186.016C449.442 186.016 451.063 187.773 451.083 190.234C451.063 192.715 449.442 194.473 447.177 194.473C444.911 194.473 443.251 192.715 443.251 190.234C443.251 187.773 444.911 186.016 447.177 186.016ZM447.177 188.086C446.141 188.086 445.438 188.887 445.438 190.234C445.438 191.582 446.141 192.363 447.177 192.363C448.173 192.363 448.876 191.582 448.895 190.234C448.876 188.887 448.173 188.086 447.177 188.086ZM458.231 180.527V198.301H455.868V189.746H454.423V197.539H452.098V180.879H454.423V187.754H455.868V180.527H458.231ZM474.916 180.527V198.301H472.553V180.527H474.916ZM471.284 180.82V197.48H468.94V188.633H466.596V186.621H468.94V180.82H471.284ZM465.17 185.293C465.17 188.242 466.088 191.23 468.686 192.715L467.221 194.551C465.639 193.613 464.594 192.021 463.998 190.117C463.383 192.188 462.309 193.945 460.678 194.941L459.174 193.105C461.791 191.504 462.768 188.301 462.768 185.293V184.336H459.858V182.344H467.866V184.336H465.17V185.293Z" fill="black"/>
<path d="M13.8898 146.973C13.8898 149.844 14.6906 152.812 17.1125 154.375L15.7648 156.309C14.2316 155.381 13.2551 153.857 12.6984 152.031C12.0539 154.043 10.9895 155.723 9.37813 156.699L7.85469 154.863C10.4914 153.223 11.468 150.098 11.468 147.09V144.023H13.8898V146.973ZM23.5969 142.5V160.273H21.2141V142.5H23.5969ZM19.8664 142.754V159.453H17.5422V150.527H15.2375V148.496H17.5422V142.754H19.8664ZM39.3641 151.68V153.652H26.7859V143.809H39.2273V145.82H29.325V147.695H38.8172V149.648H29.325V151.68H39.3641ZM41.1414 156.172V158.203H24.8719V156.172H41.1414ZM48.0414 145.293C48.0414 147.441 49.2914 149.512 52.1039 150.391L50.7758 152.324C48.891 151.699 47.5727 150.488 46.8109 148.926C46.0395 150.723 44.6625 152.129 42.6313 152.812L41.2836 150.859C44.2523 149.863 45.5219 147.5 45.5414 145.059V143.438H48.0414V145.293ZM55.6586 142.5V146.66H58.0609V148.73H55.6586V153.047H53.1586V142.5H55.6586ZM49.8383 153.398C53.5102 153.398 55.8344 154.668 55.8344 156.836C55.8344 159.023 53.5102 160.273 49.8383 160.273C46.0883 160.273 43.7445 159.023 43.7445 156.836C43.7445 154.668 46.0883 153.398 49.8383 153.398ZM49.8383 155.352C47.4945 155.352 46.225 155.859 46.2445 156.836C46.225 157.852 47.4945 158.32 49.8383 158.32C52.143 158.32 53.3734 157.852 53.3734 156.836C53.3734 155.859 52.143 155.352 49.8383 155.352ZM74.4531 150.82V152.793H67.5781V154.316H72.5195V160.078H60.1172V154.316H65.0977V152.793H58.2422V150.82H74.4531ZM73.0078 142.988V144.98H70.6836V147.695H72.8906V149.688H59.7852V147.695H61.9727V144.98H59.668V142.988H73.0078ZM62.5781 156.25V158.086H70.0781V156.25H62.5781ZM64.4727 147.695H68.1836V144.98H64.4727V147.695ZM17.6344 184.191V186.203H1.36485V184.191H8.23985V180.227H10.7398V184.191H17.6344ZM16.2086 171.848V173.859H10.7984C11.0035 176.203 13.2105 178.381 17.0289 178.938L16.0523 180.91C12.9371 180.363 10.6324 178.84 9.48985 176.73C8.35703 178.879 6.07188 180.441 3.00547 181.008L2.02891 179.035C5.72031 178.439 7.93711 176.213 8.14219 173.859H2.7125V171.848H16.2086ZM32.1516 170.5V174.777H34.5539V176.848H32.1516V180.91H29.6516V170.5H32.1516ZM22.9914 181.594V182.941H29.6516V181.594H32.1516V188.078H20.5109V181.594H22.9914ZM22.9914 186.125H29.6516V184.855H22.9914V186.125ZM28.5969 172.062V174.016H18.05V172.062H22.093V170.383H24.5734V172.062H28.5969ZM23.3234 174.523C25.9016 174.523 27.6984 175.773 27.6984 177.668C27.6984 179.562 25.9016 180.812 23.3234 180.812C20.7063 180.812 18.9094 179.562 18.9094 177.668C18.9094 175.773 20.7063 174.523 23.3234 174.523ZM23.3234 176.359C22.132 176.34 21.3313 176.828 21.3508 177.668C21.3313 178.527 22.132 178.996 23.3234 178.996C24.5148 178.996 25.3352 178.527 25.3352 177.668C25.3352 176.828 24.5148 176.34 23.3234 176.359ZM41.4539 171.672L36.8836 188.605H34.4031L38.9539 171.672H41.4539ZM50.1313 173.215V175.188H41.5375V173.215H44.6234V170.988H47.0844V173.215H50.1313ZM45.8734 175.988C48.1391 175.988 49.7602 177.746 49.7797 180.207C49.7602 182.688 48.1391 184.445 45.8734 184.445C43.6078 184.445 41.9477 182.688 41.9477 180.207C41.9477 177.746 43.6078 175.988 45.8734 175.988ZM45.8734 178.059C44.8383 178.059 44.1352 178.859 44.1352 180.207C44.1352 181.555 44.8383 182.336 45.8734 182.336C46.8695 182.336 47.5727 181.555 47.5922 180.207C47.5727 178.859 46.8695 178.059 45.8734 178.059ZM56.9281 170.5V188.273H54.5648V179.719H53.1195V187.512H50.7953V170.852H53.1195V177.727H54.5648V170.5H56.9281ZM63.7891 175.91C63.7891 178.605 64.7656 181.301 67.2852 182.668L65.918 184.484C64.3164 183.664 63.252 182.219 62.6367 180.48C62.0117 182.375 60.9473 183.977 59.3359 184.914L57.9102 183.039C60.4688 181.555 61.4258 178.664 61.4453 175.91V175.5H58.5742V173.508H61.4453V171.105H63.7695V173.508H66.582V175.5H63.7891V175.91ZM73.6133 170.5V188.273H71.25V170.5H73.6133ZM69.9805 170.793V187.453H67.6367V179.27H65.5469V177.238H67.6367V170.793H69.9805Z" fill="black"/>
<path d="M150.691 398.023V404.742H153.309V406.793H150.691V415.836H148.23V398.023H150.691ZM145.613 399.508V406.402H139.891V409.625C142.479 409.615 144.617 409.498 146.98 409.098L147.195 411.09C144.48 411.578 142.039 411.695 138.914 411.695H137.41V404.43H143.133V401.52H137.391V399.508H145.613ZM168.627 398.043V407.223H166.263V398.043H168.627ZM164.955 398.336V407.145H162.65V403.746H161.068V406.637H153.978V399.02H156.341V400.953H158.763V399.02H161.068V401.754H162.65V398.336H164.955ZM168.627 407.906V412.633H158.998V413.766H169.232V415.68H156.478V410.816H166.127V409.82H156.459V407.906H168.627ZM156.341 404.723H158.763V402.809H156.341V404.723ZM184.921 398.043V408.844H182.421V398.043H184.921ZM179.198 399.078V404.469H173.417V406.07C176.386 406.051 178.476 405.953 180.878 405.582L181.191 407.574C178.456 408.023 176.073 408.102 172.538 408.102H170.976V402.613H176.718V401.09H170.956V399.078H179.198ZM178.886 409.137C182.695 409.137 185.019 410.328 185.038 412.457C185.019 414.566 182.695 415.797 178.886 415.797C175.097 415.797 172.773 414.566 172.773 412.457C172.773 410.328 175.097 409.137 178.886 409.137ZM178.886 411.07C176.503 411.07 175.253 411.52 175.253 412.457C175.253 413.395 176.503 413.863 178.886 413.863C181.269 413.863 182.519 413.395 182.538 412.457C182.519 411.52 181.269 411.07 178.886 411.07ZM190.473 412.555L188.794 418.121H186.723L187.7 412.555H190.473ZM211.441 407.262V409.215H195.191V407.262H211.441ZM209.449 410.387V415.797H206.93V412.359H197.027V410.387H209.449ZM209.703 404.254V406.148H197.223V398.414H209.547V400.348H199.723V401.344H209.137V403.18H199.723V404.254H209.703ZM226.896 398.023V407.164H224.416V405.387H221.134V406.656H212.677V398.785H215.177V400.855H218.673V398.785H221.134V400.289H224.416V398.023H226.896ZM226.896 407.828V412.574H217.58V413.648H227.423V415.602H215.08V410.758H224.416V409.742H215.06V407.828H226.896ZM215.177 404.703H218.673V402.75H215.177V404.703ZM221.134 403.512H224.416V402.145H221.134V403.512ZM244.87 411.734V413.824H228.601V411.734H235.437V408.531H229.948V406.578H232.331V401.5H229.87V399.508H243.503V401.5H241.003V406.578H243.425V408.531H237.917V411.734H244.87ZM234.831 406.578H238.542V401.5H234.831V406.578ZM255.384 399.215V401.207H251.848C251.868 403.277 253.108 405.279 255.95 406.109L254.759 408.062C252.796 407.467 251.438 406.275 250.657 404.742C249.866 406.539 248.421 407.965 246.282 408.668L245.012 406.695C247.962 405.768 249.29 403.463 249.329 401.207H245.696V399.215H255.384ZM259.387 398.023V402.145H261.79V404.176H259.387V408.57H256.887V398.023H259.387ZM253.567 408.922C257.259 408.902 259.563 410.172 259.563 412.34C259.563 414.508 257.259 415.797 253.567 415.797C249.798 415.797 247.473 414.508 247.473 412.34C247.473 410.172 249.798 408.902 253.567 408.922ZM253.567 410.855C251.223 410.855 249.954 411.344 249.973 412.34C249.954 413.355 251.223 413.863 253.567 413.863C255.872 413.863 257.102 413.355 257.102 412.34C257.102 411.344 255.872 410.855 253.567 410.855Z" fill="black"/>
<path d="M487.861 557.816V559.809H480.947V565.785H478.486V559.809H471.65V557.816H487.861ZM486.416 548.949V550.902H481.24C481.484 552.641 483.447 554.389 487.1 554.828L486.201 556.781C483.076 556.361 480.84 555.023 479.775 553.188C478.682 555.023 476.465 556.361 473.369 556.781L472.451 554.828C476.045 554.389 478.027 552.641 478.311 550.902H473.115V548.949H486.416ZM504.586 556.801V558.773H497.886V561.84H495.425V558.773H488.316V556.801H504.586ZM502.496 548.793V555.336H490.347V548.793H502.496ZM492.789 550.727V553.402H500.054V550.727H492.789ZM502.789 563.48V565.473H490.23V560.297H492.711V563.48H502.789ZM520.001 548.012V557.152H517.521V555.375H514.239V556.645H505.782V548.773H508.282V550.844H511.779V548.773H514.239V550.277H517.521V548.012H520.001ZM520.001 557.816V562.562H510.685V563.637H520.529V565.59H508.185V560.746H517.521V559.73H508.165V557.816H520.001ZM508.282 554.691H511.779V552.738H508.282V554.691ZM514.239 553.5H517.521V552.133H514.239V553.5ZM541.965 557.133V559.086H535.266V561.957H532.805V559.086H525.696V557.133H541.965ZM540.168 563.48V565.473H527.61V560.551H530.071V563.48H540.168ZM530.246 548.578V550.434H537.375V548.578H539.856V555.883H527.786V548.578H530.246ZM530.246 553.91H537.375V552.289H530.246V553.91ZM545.252 549.594V553.598H547.674V549.594H549.979V561.566H542.908V549.594H545.252ZM545.252 559.574H547.674V555.551H545.252V559.574ZM557.811 548.012V565.785H555.428V556.82H553.826V564.965H551.463V548.266H553.826V554.789H555.428V548.012H557.811Z" fill="black"/>
<path d="M271.56 555.59V557.406H264.724V558.52H269.627V562.855H259.724V563.832H270.095V565.668H257.283V561.176H267.166V560.297H257.263V558.52H262.244V557.406H255.427V555.59H271.56ZM264.705 547.992V549.398H270.037V551.234H265.017C265.505 552.27 267.322 553.119 270.916 553.266L270.193 555.102C266.892 554.945 264.607 554.105 263.474 552.758C262.351 554.105 260.056 554.945 256.736 555.102L256.052 553.266C259.617 553.119 261.423 552.27 261.931 551.234H256.951V549.398H262.244V547.992H264.705ZM286.722 549.555V551.234C286.722 553.461 286.722 555.961 285.999 559.73L283.499 559.477C284.173 556.117 284.202 553.617 284.222 551.527H273.753V549.555H286.722ZM288.284 561.586V563.617H272.073V561.586H277.874V555.473H280.355V561.586H288.284ZM297.977 549.047C297.977 553.695 295.048 556.918 289.833 558.363L288.856 556.43C292.684 555.395 294.891 553.441 295.321 551.039H289.813V549.047H297.977ZM303.739 548.031V557.973H301.259V554.281H298.095V552.25H301.259V548.031H303.739ZM303.739 558.676V565.57H291.962V558.676H303.739ZM294.403 560.629V563.617H301.278V560.629H294.403ZM314.877 549.398C314.877 551.488 317.006 553.812 321.088 554.32L320.112 556.332C317.006 555.883 314.731 554.447 313.569 552.523C312.397 554.447 310.141 555.883 307.065 556.332L306.069 554.32C310.112 553.812 312.26 551.488 312.26 549.398V548.539H314.877V549.398ZM321.655 557.68V559.711H314.741V565.785H312.28V559.711H305.444V557.68H321.655Z" fill="black"/>
<path d="M497.31 696.602V698.418H490.474V699.531H495.377V703.867H485.474V704.844H495.845V706.68H483.033V702.188H492.916V701.309H483.013V699.531H487.994V698.418H481.177V696.602H497.31ZM490.455 689.004V690.41H495.787V692.246H490.767C491.255 693.281 493.072 694.131 496.666 694.277L495.943 696.113C492.642 695.957 490.357 695.117 489.224 693.77C488.101 695.117 485.806 695.957 482.486 696.113L481.802 694.277C485.367 694.131 487.173 693.281 487.681 692.246H482.701V690.41H487.994V689.004H490.455ZM512.472 690.566V692.246C512.472 694.473 512.472 696.973 511.749 700.742L509.249 700.488C509.923 697.129 509.952 694.629 509.972 692.539H499.503V690.566H512.472ZM514.034 702.598V704.629H497.823V702.598H503.624V696.484H506.105V702.598H514.034ZM528.727 689.043V694.121H530.993V696.172H528.727V701.113H526.227V689.043H528.727ZM514.313 698.828C515.612 698.828 517.096 698.828 518.63 698.789V697.793C516.696 697.52 515.485 696.582 515.505 695.215C515.485 693.574 517.223 692.559 519.86 692.559C522.477 692.559 524.196 693.574 524.216 695.215C524.196 696.582 523.014 697.51 521.11 697.773V698.691C522.575 698.633 524.03 698.516 525.407 698.34L525.583 700.059C521.833 700.723 517.712 700.762 514.567 700.762L514.313 698.828ZM528.727 701.836V706.797H526.227V703.75H516.579V701.836H528.727ZM524.958 690.332V692.148H514.782V690.332H518.63V688.887H521.11V690.332H524.958ZM519.86 694.219C518.591 694.219 517.868 694.531 517.888 695.215C517.868 695.859 518.591 696.23 519.86 696.23C521.11 696.23 521.813 695.859 521.833 695.215C521.813 694.531 521.11 694.219 519.86 694.219ZM546.174 689.023V699.57H543.694V695.371H540.92V693.359H543.694V689.023H546.174ZM540.1 699.961C543.889 699.98 546.213 701.23 546.233 703.398C546.213 705.547 543.889 706.816 540.1 706.816C536.311 706.816 533.987 705.547 533.987 703.398C533.987 701.23 536.311 699.98 540.1 699.961ZM540.1 701.875C537.737 701.875 536.467 702.363 536.467 703.398C536.467 704.414 537.737 704.922 540.1 704.922C542.463 704.922 543.752 704.414 543.752 703.398C543.752 702.363 542.463 701.875 540.1 701.875ZM541.448 690.098V692.09H537.913C537.971 694.16 539.221 696.25 541.995 697.168L540.764 699.121C538.801 698.486 537.454 697.197 536.682 695.586C535.891 697.402 534.475 698.867 532.366 699.59L531.077 697.617C533.996 696.641 535.305 694.316 535.373 692.09H531.799V690.098H541.448Z" fill="black"/>
<path d="M288.343 702.734V704.824H272.073V702.734H278.909V699.531H273.421V697.578H275.804V692.5H273.343V690.508H286.976V692.5H284.476V697.578H286.898V699.531H281.39V702.734H288.343ZM278.304 697.578H282.015V692.5H278.304V697.578ZM298.856 690.215V692.207H295.321C295.341 694.277 296.581 696.279 299.423 697.109L298.231 699.062C296.268 698.467 294.911 697.275 294.13 695.742C293.339 697.539 291.893 698.965 289.755 699.668L288.485 697.695C291.434 696.768 292.762 694.463 292.802 692.207H289.169V690.215H298.856ZM302.86 689.023V693.145H305.262V695.176H302.86V699.57H300.36V689.023H302.86ZM297.04 699.922C300.731 699.902 303.036 701.172 303.036 703.34C303.036 705.508 300.731 706.797 297.04 706.797C293.27 706.797 290.946 705.508 290.946 703.34C290.946 701.172 293.27 699.902 297.04 699.922ZM297.04 701.855C294.696 701.855 293.427 702.344 293.446 703.34C293.427 704.355 294.696 704.863 297.04 704.863C299.345 704.863 300.575 704.355 300.575 703.34C300.575 702.344 299.345 701.855 297.04 701.855Z" fill="black"/>
<path d="M712.309 59.6016V61.418H705.473V62.5312H710.375V66.8672H700.473V67.8438H710.844V69.6797H698.031V65.1875H707.914V64.3086H698.012V62.5312H702.992V61.418H696.176V59.6016H712.309ZM705.453 52.0039V53.4102H710.785V55.2461H705.766C706.254 56.2812 708.07 57.1309 711.664 57.2773L710.941 59.1133C707.641 58.957 705.355 58.1172 704.223 56.7695C703.1 58.1172 700.805 58.957 697.484 59.1133L696.801 57.2773C700.365 57.1309 702.172 56.2812 702.68 55.2461H697.699V53.4102H702.992V52.0039H705.453ZM727.47 53.5664V55.2461C727.47 57.4727 727.47 59.9727 726.748 63.7422L724.248 63.4883C724.921 60.1289 724.951 57.6289 724.97 55.5391H714.502V53.5664H727.47ZM729.033 65.5977V67.6289H712.822V65.5977H718.623V59.4844H721.103V65.5977H729.033ZM745.777 65.6758V67.7266H729.507V65.6758H733.14V61.3203C731.763 60.5 730.933 59.2402 730.933 57.668C730.933 54.7969 733.745 52.8828 737.612 52.8828C741.46 52.8828 744.292 54.7969 744.312 57.668C744.302 59.2012 743.491 60.4512 742.163 61.2812V65.6758H745.777ZM737.612 54.8555C735.073 54.8555 733.394 55.8711 733.394 57.668C733.394 59.4062 735.073 60.4805 737.612 60.4805C740.132 60.4805 741.831 59.4062 741.851 57.668C741.831 55.8711 740.132 54.8555 737.612 54.8555ZM735.601 65.6758H739.644V62.2188C739.009 62.3457 738.325 62.4141 737.612 62.4141C736.9 62.4141 736.226 62.3555 735.601 62.2188V65.6758ZM756.329 53.8789V55.832H752.735C752.755 57.6582 754.102 59.5137 756.954 60.2461L755.802 62.1602C753.78 61.6523 752.354 60.5293 751.544 59.0742C750.772 60.7344 749.346 62.0332 747.247 62.6289L746.075 60.6953C748.927 59.8848 750.235 57.8535 750.255 55.832H746.68V53.8789H750.255V51.9453H752.774V53.8789H756.329ZM761.173 52.0234V62.7656H758.692V58.7812H755.802V56.7891H758.692V52.0234H761.173ZM755.098 63.0586C758.888 63.0781 761.212 64.2695 761.231 66.3984C761.212 68.5469 758.888 69.7969 755.098 69.7969C751.329 69.7969 748.985 68.5469 748.985 66.3984C748.985 64.2695 751.329 63.0781 755.098 63.0586ZM755.098 64.9727C752.735 64.9727 751.466 65.4414 751.466 66.3984C751.466 67.375 752.735 67.9023 755.098 67.9023C757.501 67.9023 758.751 67.375 758.751 66.3984C758.751 65.4414 757.501 64.9727 755.098 64.9727Z" fill="black"/>
<rect x="717.781" y="312" width="84" height="84" rx="42" fill="#336DFF"/>
<path d="M738.633 343.499C738.633 343.499 742.956 348.573 748.97 348.385C754.985 348.198 758.932 344.438 761.563 341.995C764.195 339.552 773.968 336.356 780.923 345.002" stroke="white" stroke-width="3" stroke-miterlimit="10" stroke-linecap="round"/>
<path d="M738.633 354.639C738.633 354.639 742.956 359.714 748.97 359.526C754.985 359.338 758.932 355.579 761.563 353.136C764.195 350.692 773.968 347.497 780.923 356.143" stroke="white" stroke-width="3" stroke-miterlimit="10" stroke-linecap="round"/>
<path d="M738.633 366.608C738.633 366.608 742.956 371.683 748.97 371.495C754.985 371.307 758.932 367.548 761.563 365.104C764.195 362.661 773.968 359.466 780.923 368.112" stroke="white" stroke-width="3" stroke-miterlimit="10" stroke-linecap="round"/>
<circle cx="776.406" cy="367.402" r="11.375" fill="white"/>
<path d="M771.422 367.813L775.135 371.532L781.39 365.277" stroke="#336DFF" stroke-width="2" stroke-miterlimit="10"/>
<rect x="471.281" y="312" width="84" height="84" rx="42" fill="#336DFF"/>
<circle cx="513.281" cy="354" r="18.375" fill="white"/>
<path d="M503.781 354.25H523.281" stroke="#336DFF" stroke-width="3" stroke-miterlimit="10"/>
<path d="M513.531 364V344.5" stroke="#336DFF" stroke-width="3" stroke-miterlimit="10"/>
<rect x="472.281" y="444.988" width="84" height="84" rx="42" fill="#336DFF"/>
<path d="M519.095 467.191L499.534 480.635C498.98 481.016 498.84 481.773 499.221 482.327L512.664 501.888C513.045 502.442 513.803 502.582 514.357 502.201L533.917 488.758C534.471 488.377 534.611 487.619 534.231 487.065L520.787 467.505C520.406 466.951 519.649 466.811 519.095 467.191Z" stroke="white" stroke-width="2" stroke-miterlimit="10"/>
<path d="M511.557 472.342L507.019 475.461C506.564 475.774 506.449 476.396 506.762 476.851L510.266 481.95C510.579 482.405 511.201 482.521 511.657 482.208L516.194 479.089C516.649 478.777 516.765 478.154 516.452 477.699L512.947 472.6C512.635 472.145 512.012 472.03 511.557 472.342Z" fill="white" stroke="white" stroke-width="2" stroke-miterlimit="10"/>
<path d="M523.83 483.902L525.829 486.554L521.164 490.046L519.062 487.235" stroke="white" stroke-width="2" stroke-miterlimit="10"/>
<path d="M484.617 471.285H491.862L500.556 484.326" stroke="white" stroke-width="2" stroke-miterlimit="10"/>
<path d="M512.143 510.408C516.145 510.408 519.388 507.164 519.388 503.163C519.388 499.162 516.145 495.918 512.143 495.918C508.142 495.918 504.898 499.162 504.898 503.163C504.898 507.164 508.142 510.408 512.143 510.408Z" fill="#336DFF" stroke="white" stroke-width="2" stroke-miterlimit="10"/>
<rect x="246.172" y="444.988" width="84" height="84" rx="42" fill="#336DFF"/>
<mask id="path-33-inside-1_127_1205" fill="white">
<rect x="271.273" y="466.941" width="34.0078" height="41.5454" rx="2"/>
</mask>
<rect x="271.273" y="466.941" width="34.0078" height="41.5454" rx="2" fill="white" stroke="white" stroke-width="6" mask="url(#path-33-inside-1_127_1205)"/>
<path d="M277.883 478.152L280.297 480.251L284.495 476.367" stroke="#336DFF" stroke-width="3"/>
<path d="M277.883 488.03L280.297 490.13L284.495 486.246" stroke="#336DFF" stroke-width="3"/>
<path d="M277.883 498.011L280.297 500.11L284.495 496.227" stroke="#336DFF" stroke-width="3"/>
<path d="M289.539 476.262H298.356" stroke="#336DFF" stroke-width="3"/>
<path d="M289.539 486.141H298.356" stroke="#336DFF" stroke-width="3"/>
<path d="M289.539 496.121H298.356" stroke="#336DFF" stroke-width="3"/>
<path d="M712.873 689.02V690.992H709.338C709.358 693.092 710.608 695.24 713.42 696.168L712.19 698.082C710.217 697.457 708.87 696.168 708.108 694.566C707.307 696.344 705.891 697.779 703.791 698.453L702.522 696.48C705.442 695.543 706.77 693.209 706.799 690.992H703.225V689.02H712.873ZM717.6 699.391V705.797H715.12V701.383H705.393V699.391H717.6ZM717.6 688.023V698.609H715.12V694.332H712.366V692.301H715.12V688.023H717.6ZM734.812 688.023V705.797H732.43V696.891H730.926V704.977H728.562V699.879L727.156 701.754C725.506 700.885 724.441 699.41 723.816 697.574C723.221 699.684 722.166 701.393 720.477 702.398L718.934 700.484C721.629 698.961 722.547 695.816 722.547 692.418V691.852H719.539V689.859H727.684V691.852H724.969V692.418C724.969 695.514 725.887 698.463 728.562 699.84V688.277H730.926V694.859H732.43V688.023H734.812ZM737.025 698.609C737.025 694.938 738.158 691.891 740.033 689.254H742.787C741.439 691.207 740.033 695.113 740.033 698.609C740.033 702.125 741.439 706.031 742.787 707.984H740.033C738.158 705.348 737.025 702.281 737.025 698.609ZM749.667 690.816C749.667 692.965 750.917 695.035 753.73 695.914L752.402 697.848C750.517 697.223 749.198 696.012 748.437 694.449C747.665 696.246 746.288 697.652 744.257 698.336L742.909 696.383C745.878 695.387 747.148 693.023 747.167 690.582V688.961H749.667V690.816ZM757.284 688.023V692.184H759.687V694.254H757.284V698.57H754.784V688.023H757.284ZM751.464 698.922C755.136 698.922 757.46 700.191 757.46 702.359C757.46 704.547 755.136 705.797 751.464 705.797C747.714 705.797 745.37 704.547 745.37 702.359C745.37 700.191 747.714 698.922 751.464 698.922ZM751.464 700.875C749.12 700.875 747.851 701.383 747.87 702.359C747.851 703.375 749.12 703.844 751.464 703.844C753.769 703.844 754.999 703.375 754.999 702.359C754.999 701.383 753.769 700.875 751.464 700.875ZM766.294 693.59C766.294 696.109 767.602 698.98 770.434 700.309L769.048 702.184C767.153 701.334 765.835 699.654 765.083 697.672C764.321 699.811 762.915 701.617 760.903 702.496L759.536 700.562C762.427 699.293 763.813 696.266 763.833 693.59V692.906H760.161V690.914H763.813V688.414H766.313V690.914H769.927V692.906H766.294V693.59ZM773.891 688.023V694.918H776.509V697.008H773.891V705.797H771.391V688.023H773.891ZM791.924 688.023V705.797H789.561V696.871H787.842V704.938H785.557V688.316H787.842V694.879H789.561V688.023H791.924ZM783.682 690.074V692.086H779.561V699.664C781.28 699.654 782.803 699.566 784.522 699.254L784.698 701.285C782.53 701.695 780.635 701.754 778.291 701.773H777.061V690.074H783.682ZM808.18 688.023V705.797H805.66V688.023H808.18ZM802.848 689.879C802.848 695.27 800.953 699.742 794.605 702.75L793.297 700.758C797.887 698.59 799.908 695.777 800.309 691.832H794.254V689.879H802.848ZM815.627 698.609C815.627 702.281 814.494 705.348 812.619 707.984H809.865C811.213 706.031 812.619 702.125 812.619 698.609C812.619 695.113 811.213 691.207 809.865 689.254H812.619C814.494 691.891 815.627 694.938 815.627 698.609Z" fill="black"/>
<rect x="717.281" y="590" width="84" height="84" rx="42" fill="#336DFF"/>
<path d="M777.281 634.246H742.281C741.729 634.246 741.281 634.694 741.281 635.246V649.246C741.281 649.798 741.729 650.246 742.281 650.246H777.281C777.834 650.246 778.281 649.798 778.281 649.246V635.246C778.281 634.694 777.834 634.246 777.281 634.246Z" fill="white" stroke="white" stroke-width="2" stroke-miterlimit="10"/>
<path d="M752.758 632.879V652.617" stroke="#336DFF" stroke-width="2" stroke-miterlimit="10"/>
<path d="M766.281 632.879V652.617" stroke="#336DFF" stroke-width="2" stroke-miterlimit="10"/>
<path d="M741.281 634.25L759.781 624.41L778.281 634.25" stroke="white" stroke-width="2" stroke-miterlimit="10" stroke-linecap="round" stroke-linejoin="round"/>
<path d="M755.281 620.749C755.281 623.239 757.291 625.249 759.781 625.249C762.271 625.249 764.281 623.239 764.281 620.749C764.281 618.259 762.271 616.249 759.781 616.249V611.379" stroke="white" stroke-width="2" stroke-linecap="round" stroke-linejoin="round"/>
<rect x="471.922" y="590" width="84" height="84" rx="42" fill="#336DFF"/>
<path d="M525.557 614.254H496.23C495.4 614.254 494.727 614.927 494.727 615.758V645.084C494.727 645.915 495.4 646.588 496.23 646.588H525.557C526.387 646.588 527.061 645.915 527.061 645.084V615.758C527.061 614.927 526.387 614.254 525.557 614.254Z" stroke="white" stroke-width="2" stroke-miterlimit="10"/>
<path d="M514.501 614.242H506.227C505.95 614.242 505.727 614.466 505.727 614.742V623.858C505.727 624.134 505.95 624.358 506.227 624.358H514.501C514.777 624.358 515.001 624.134 515.001 623.858V614.742C515.001 614.466 514.777 614.242 514.501 614.242Z" fill="white" stroke="white" stroke-width="2" stroke-miterlimit="10"/>
<path d="M499.062 638.145H506.365" stroke="white" stroke-width="2"/>
<circle cx="524.185" cy="643.916" r="11.8417" fill="white"/>
<path d="M518.883 643.289L522.835 647.248L529.493 640.59" stroke="#336DFF" stroke-width="2" stroke-miterlimit="10"/>
<rect x="246.172" y="590" width="84" height="84" rx="42" fill="#336DFF"/>
<path d="M282.755 620.774C282.755 620.774 275.675 619.774 276.675 614.774C277.675 609.774 283.675 609.774 285.675 612.774C287.675 615.774 287.675 619.774 287.675 619.774" stroke="white" stroke-width="2" stroke-miterlimit="10"/>
<path d="M292.592 620.774C292.592 620.774 299.672 619.774 298.672 614.774C297.672 609.774 291.672 609.774 289.672 612.774C287.672 615.774 287.672 619.774 287.672 619.774" stroke="white" stroke-width="2" stroke-miterlimit="10"/>
<path d="M307.672 620.777H268.672V632.277H307.672V620.777Z" fill="white" stroke="#336DFF" stroke-width="2" stroke-miterlimit="10"/>
<path d="M305.172 632.277H271.172V651.277H305.172V632.277Z" fill="white" stroke="#336DFF" stroke-width="2" stroke-miterlimit="10"/>
<path d="M288.172 632.277V651.277" stroke="#336DFF" stroke-width="2" stroke-miterlimit="10"/>
<path d="M988.453 398.023V415.797H985.934V398.023H988.453ZM984.02 399.664V401.656H982.438V409.371C983.219 409.322 983.99 409.244 984.742 409.156L984.859 411.012C981.07 411.637 976.969 411.695 973.707 411.715L973.473 409.684C974.117 409.684 974.801 409.674 975.523 409.664V401.656H973.961V399.664H984.02ZM977.945 409.605C978.629 409.596 979.322 409.566 980.016 409.527V401.656H977.945V409.605ZM999.806 399.078C999.787 404 997.423 407.262 991.427 408.98L990.529 407.008C993.078 406.324 994.738 405.367 995.783 404.195L990.841 404.566L990.49 402.633L996.837 402.418C996.984 401.979 997.082 401.52 997.15 401.051H991.388V399.078H999.806ZM1005.08 398.043V408.512H1002.58V398.043H1005.08ZM999.045 408.785C1002.77 408.785 1005.14 410.074 1005.14 412.301C1005.14 414.527 1002.77 415.777 999.045 415.777C995.255 415.777 992.892 414.527 992.892 412.301C992.892 410.074 995.255 408.785 999.045 408.785ZM999.045 410.738C996.642 410.738 995.412 411.266 995.412 412.301C995.412 413.316 996.642 413.883 999.045 413.883C1001.39 413.883 1002.66 413.316 1002.66 412.301C1002.66 411.266 1001.39 410.738 999.045 410.738ZM1013.78 402.867C1013.78 405.738 1015.24 408.805 1018.23 410.055L1016.88 412.008C1014.78 411.119 1013.34 409.352 1012.55 407.184C1011.74 409.537 1010.26 411.49 1008.17 412.457L1006.75 410.484C1009.69 409.176 1011.22 405.875 1011.22 402.867V401.773H1007.45V399.742H1017.49V401.773H1013.78V402.867ZM1021.76 398.023V415.797H1019.25V398.023H1021.76ZM1030.48 402.047C1030.48 405.309 1031.97 408.59 1034.97 409.859L1033.51 411.852C1031.48 410.934 1030.07 409.166 1029.27 406.969C1028.46 409.361 1027 411.295 1024.84 412.281L1023.33 410.211C1026.44 408.902 1027.94 405.504 1027.96 402.047V399.391H1030.48V402.047ZM1038.45 398.023V415.836H1035.93V398.023H1038.45ZM974.547 436.609C974.547 432.938 975.68 429.891 977.555 427.254H980.309C978.961 429.207 977.555 433.113 977.555 436.609C977.555 440.125 978.961 444.031 980.309 445.984H977.555C975.68 443.348 974.547 440.281 974.547 436.609ZM996.916 434.93V436.922H980.705V434.93H987.56V433.211H990.021V434.93H996.916ZM990.021 426.082V427.605H995.353V429.578H990.236C990.568 430.809 992.394 431.951 996.193 432.176L995.451 434.07C992.17 433.836 989.904 432.879 988.791 431.453C987.668 432.879 985.402 433.836 982.15 434.07L981.388 432.176C985.187 431.951 986.994 430.809 987.345 429.578H982.267V427.605H987.56V426.082H990.021ZM988.791 437.762C992.677 437.762 994.963 438.816 994.982 440.77C994.963 442.742 992.677 443.797 988.791 443.797C984.884 443.797 982.56 442.742 982.56 440.77C982.56 438.816 984.884 437.762 988.791 437.762ZM988.791 439.598C986.31 439.598 985.08 439.969 985.099 440.77C985.08 441.59 986.31 441.961 988.791 441.961C991.213 441.961 992.463 441.59 992.482 440.77C992.463 439.969 991.213 439.598 988.791 439.598ZM1013.89 428.406V430.477H1011.49V432.176H1013.89V434.227H1011.49V436.766H1008.99V426.043H1011.49V428.406H1013.89ZM1006.18 427.098V432.391H1000.51V433.953C1003.45 433.934 1005.45 433.816 1007.7 433.426L1007.98 435.418C1005.42 435.887 1003.13 435.984 999.538 435.984H998.034V430.516H1003.76V429.051H998.015V427.098H1006.18ZM1005.63 437.039C1009.32 437.039 1011.67 438.328 1011.67 440.457C1011.67 442.566 1009.32 443.777 1005.63 443.777C1001.86 443.777 999.538 442.566 999.538 440.457C999.538 438.328 1001.86 437.039 1005.63 437.039ZM1005.63 438.973C1003.27 438.973 1001.98 439.461 1002 440.457C1001.98 441.414 1003.27 441.922 1005.63 441.922C1007.98 441.922 1009.21 441.414 1009.21 440.457C1009.21 439.461 1007.98 438.973 1005.63 438.973ZM1017.83 440.555L1016.15 446.121H1014.08L1015.05 440.555H1017.83ZM1035.43 435.828V437.82H1028.51V443.797H1026.05V437.82H1019.22V435.828H1035.43ZM1033.98 426.961V428.914H1028.81C1029.05 430.652 1031.01 432.4 1034.67 432.84L1033.77 434.793C1030.64 434.373 1028.41 433.035 1027.34 431.199C1026.25 433.035 1024.03 434.373 1020.94 434.793L1020.02 432.84C1023.61 432.4 1025.59 430.652 1025.88 428.914H1020.68V426.961H1033.98ZM1052.15 434.812V436.785H1045.45V439.852H1042.99V436.785H1035.88V434.812H1052.15ZM1050.06 426.805V433.348H1037.91V426.805H1050.06ZM1040.36 428.738V431.414H1047.62V428.738H1040.36ZM1050.36 441.492V443.484H1037.8V438.309H1040.28V441.492H1050.36ZM1067.57 426.023V435.164H1065.09V433.387H1061.81V434.656H1053.35V426.785H1055.85V428.855H1059.35V426.785H1061.81V428.289H1065.09V426.023H1067.57ZM1067.57 435.828V440.574H1058.25V441.648H1068.1V443.602H1055.75V438.758H1065.09V437.742H1055.73V435.828H1067.57ZM1055.85 432.703H1059.35V430.75H1055.85V432.703ZM1061.81 431.512H1065.09V430.145H1061.81V431.512ZM1074.98 436.609C1074.98 440.281 1073.84 443.348 1071.97 445.984H1069.21C1070.56 444.031 1071.97 440.125 1071.97 436.609C1071.97 433.113 1070.56 429.207 1069.21 427.254H1071.97C1073.84 429.891 1074.98 432.938 1074.98 436.609Z" fill="black"/>
<path d="M730.118 552.316C730.118 554.465 731.368 556.535 734.18 557.414L732.852 559.348C730.968 558.723 729.649 557.512 728.888 555.949C728.116 557.746 726.739 559.152 724.708 559.836L723.36 557.883C726.329 556.887 727.598 554.523 727.618 552.082V550.461H730.118V552.316ZM737.735 549.523V553.684H740.138V555.754H737.735V560.07H735.235V549.523H737.735ZM731.915 560.422C735.587 560.422 737.911 561.691 737.911 563.859C737.911 566.047 735.587 567.297 731.915 567.297C728.165 567.297 725.821 566.047 725.821 563.859C725.821 561.691 728.165 560.422 731.915 560.422ZM731.915 562.375C729.571 562.375 728.302 562.883 728.321 563.859C728.302 564.875 729.571 565.344 731.915 565.344C734.22 565.344 735.45 564.875 735.45 563.859C735.45 562.883 734.22 562.375 731.915 562.375ZM756.53 557.844V559.816H749.655V561.34H754.596V567.102H742.194V561.34H747.174V559.816H740.319V557.844H756.53ZM755.084 550.012V552.004H752.76V554.719H754.967V556.711H741.862V554.719H744.049V552.004H741.745V550.012H755.084ZM744.655 563.273V565.109H752.155V563.273H744.655ZM746.549 554.719H750.26V552.004H746.549V554.719ZM775.955 549.523V567.297H773.435V549.523H775.955ZM771.521 551.164V553.156H769.939V560.871C770.72 560.822 771.492 560.744 772.244 560.656L772.361 562.512C768.572 563.137 764.47 563.195 761.209 563.215L760.974 561.184C761.619 561.184 762.302 561.174 763.025 561.164V553.156H761.463V551.164H771.521ZM765.447 561.105C766.13 561.096 766.824 561.066 767.517 561.027V553.156H765.447V561.105ZM787.308 550.578C787.288 555.5 784.925 558.762 778.929 560.48L778.03 558.508C780.579 557.824 782.239 556.867 783.284 555.695L778.343 556.066L777.991 554.133L784.339 553.918C784.486 553.479 784.583 553.02 784.652 552.551H778.89V550.578H787.308ZM792.581 549.543V560.012H790.081V549.543H792.581ZM786.546 560.285C790.277 560.285 792.64 561.574 792.64 563.801C792.64 566.027 790.277 567.277 786.546 567.277C782.757 567.277 780.394 566.027 780.394 563.801C780.394 561.574 782.757 560.285 786.546 560.285ZM786.546 562.238C784.144 562.238 782.913 562.766 782.913 563.801C782.913 564.816 784.144 565.383 786.546 565.383C788.89 565.383 790.159 564.816 790.159 563.801C790.159 562.766 788.89 562.238 786.546 562.238Z" fill="black"/>
<rect x="875.281" y="379" width="84" height="84" rx="42" fill="#336DFF"/>
<rect x="902.781" y="396.574" width="27.25" height="42.75" rx="3" stroke="white" stroke-width="2"/>
<mask id="path-63-inside-2_127_1205" fill="white">
<rect x="906.906" y="403.699" width="19.375" height="27.793" rx="1"/>
</mask>
<rect x="906.906" y="403.699" width="19.375" height="27.793" rx="1" stroke="white" stroke-width="4" mask="url(#path-63-inside-2_127_1205)"/>
<path d="M916.94 435.729L913.591 431.745C913.591 431.745 912.056 429.931 910.102 431.466C908.148 433.001 910.587 436.836 910.587 436.836L916.661 446.054C916.661 446.054 919.731 451.699 926.569 451.839C933.406 451.978 936.476 447.931 937.174 445.001C937.872 442.07 938.919 433.349 937.523 431.395C936.128 429.441 933.394 429.2 933.394 429.2C933.394 429.2 932.22 426.371 928.173 426.929C928.173 426.929 926.638 424.112 923.219 425.311V416.382C923.219 416.382 923.429 413.141 920.428 413.141C917.428 413.141 917.568 417.023 917.568 417.023L916.94 435.729Z" fill="white" stroke="#336DFF" stroke-width="2" stroke-linecap="round" stroke-linejoin="round"/>
<path d="M923.227 425.312V432.488" stroke="#336DFF" stroke-width="2" stroke-linecap="round" stroke-linejoin="round"/>
<path d="M928.242 427V432.488" stroke="#336DFF" stroke-width="2" stroke-linecap="round" stroke-linejoin="round"/>
<path d="M933.406 429.234V433.606" stroke="#336DFF" stroke-width="2" stroke-linecap="round" stroke-linejoin="round"/>
<rect x="913.594" y="399.824" width="6" height="2" rx="1" fill="white"/>
<rect x="717.281" y="451" width="84" height="84" rx="42" fill="#336DFF"/>
<path d="M770.531 482.25H740.031V512.75H770.531V482.25Z" stroke="white" stroke-width="2" stroke-linecap="round" stroke-linejoin="round"/>
<path d="M740.031 482.25L749.531 473.25H778.531L770.531 482.25" stroke="white" stroke-width="2" stroke-linecap="round" stroke-linejoin="round"/>
<path d="M770.531 512.75L778.531 503.25V473.25" stroke="white" stroke-width="2" stroke-linecap="round" stroke-linejoin="round"/>
<path d="M755.831 488.884L755.29 488.529L754.745 488.877L751.133 491.181V482.606L757.957 474.25H765.297L759.506 481.633L759.293 481.905V482.25V491.152L755.831 488.884Z" fill="white" stroke="white" stroke-width="2"/>
<g filter="url(#filter0_d_127_1205)">
<circle cx="256.273" cy="212.5" r="132.5" fill="white"/>
<circle cx="256.273" cy="212.5" r="130.5" stroke="#6E62FD" stroke-width="4"/>
</g>
<path d="M293.904 197.91H218.927C213.829 197.91 209.695 201.698 209.695 206.37C209.695 211.042 213.829 214.83 218.927 214.83H293.904C299.002 214.83 303.136 211.042 303.136 206.37C303.136 201.698 299.002 197.91 293.904 197.91Z" stroke="black" stroke-width="2" stroke-miterlimit="10"/>
<path d="M221.723 209.701C223.731 209.701 225.36 208.209 225.36 206.368C225.36 204.527 223.731 203.035 221.723 203.035C219.714 203.035 218.086 204.527 218.086 206.368C218.086 208.209 219.714 209.701 221.723 209.701Z" fill="black"/>
<path d="M239.067 209.701C241.075 209.701 242.703 208.209 242.703 206.368C242.703 204.527 241.075 203.035 239.067 203.035C237.058 203.035 235.43 204.527 235.43 206.368C235.43 208.209 237.058 209.701 239.067 209.701Z" fill="black"/>
<path d="M256.41 209.701C258.419 209.701 260.047 208.209 260.047 206.368C260.047 204.527 258.419 203.035 256.41 203.035C254.402 203.035 252.773 204.527 252.773 206.368C252.773 208.209 254.402 209.701 256.41 209.701Z" fill="black"/>
<path d="M273.762 209.701C275.771 209.701 277.399 208.209 277.399 206.368C277.399 204.527 275.771 203.035 273.762 203.035C271.753 203.035 270.125 204.527 270.125 206.368C270.125 208.209 271.753 209.701 273.762 209.701Z" fill="black"/>
<path d="M291.106 209.701C293.114 209.701 294.743 208.209 294.743 206.368C294.743 204.527 293.114 203.035 291.106 203.035C289.097 203.035 287.469 204.527 287.469 206.368C287.469 208.209 289.097 209.701 291.106 209.701Z" fill="black"/>
<path d="M272.921 171.246H240.469V193.293H272.921V171.246Z" fill="#336DFF"/>
<path d="M224.521 171.5H209.414V193.547H224.521V171.5Z" fill="#336DFF"/>
<path d="M303.131 171.5H288.023V193.547H303.131V171.5Z" fill="#336DFF"/>
<path d="M256.695 179.383V193.293" stroke="white" stroke-width="2" stroke-miterlimit="10"/>
<path d="M234.492 182.526V171.246L243.545 162.273H251.927" stroke="black" stroke-width="2" stroke-miterlimit="10"/>
<path d="M278.896 182.526V171.246L269.843 162.273H261.461" stroke="black" stroke-width="2" stroke-miterlimit="10"/>
<path d="M245.781 146.379H267.849" stroke="black" stroke-width="2" stroke-miterlimit="10"/>
<path d="M248.578 146.38V145.355C248.578 141.11 252.338 137.664 256.971 137.664C261.604 137.664 265.364 141.11 265.364 145.355V146.38" stroke="black" stroke-width="2" stroke-miterlimit="10"/>
<path d="M248.578 149.199V150.225C248.578 154.47 252.338 157.916 256.971 157.916C261.604 157.916 265.364 154.47 265.364 150.225V149.199" stroke="black" stroke-width="2" stroke-miterlimit="10"/>
<path d="M256.977 146.379V135.355" stroke="black" stroke-width="2" stroke-miterlimit="10"/>
<path d="M233.335 250.484L238.491 266.656H238.696L243.882 250.484H248.745L241.421 271.695H235.766L228.413 250.484H233.335ZM251.009 271.695H246.263L253.616 250.484H259.271L266.595 271.695H261.878L260.296 266.803H252.62L251.009 271.695ZM253.734 263.375H259.183L256.517 255.26H256.37L253.734 263.375ZM279.113 256.549C278.937 254.879 277.589 253.883 275.451 253.883C273.224 253.883 271.994 254.908 271.964 256.314C271.935 257.838 273.546 258.541 275.363 258.951L277.267 259.42C280.9 260.24 283.625 262.086 283.625 265.631C283.625 269.527 280.578 271.988 275.421 271.988C270.295 271.988 267.013 269.615 266.896 265.074H271.173C271.32 267.213 273.019 268.297 275.363 268.297C277.677 268.297 279.171 267.213 279.171 265.631C279.171 264.195 277.853 263.521 275.539 262.936L273.224 262.379C269.65 261.5 267.453 259.713 267.453 256.607C267.453 252.74 270.851 250.191 275.48 250.191C280.168 250.191 283.273 252.799 283.332 256.549H279.113Z" fill="black"/>
<g clip-path="url(#clip0_127_1205)">
<rect x="336.773" y="217.504" width="84" height="84" rx="42" fill="#6E62FD"/>
<rect x="337.141" y="218" width="84" height="84" rx="42" fill="#6E62FD"/>
<path d="M368.924 248.41L361.797 251.693L378.428 259.664L396.484 252.162L388.881 248.41" stroke="white" stroke-width="2" stroke-linecap="round" stroke-linejoin="round"/>
<path d="M396.484 252.164L400.807 259.081L382.941 267.873L378.427 259.667L374.388 267.404L357.758 258.495L361.797 251.695" stroke="white" stroke-width="2" stroke-linecap="round" stroke-linejoin="round"/>
<path d="M360.516 259.977V276.548L378.472 285.532L398.153 276.3V260.385" stroke="white" stroke-width="2" stroke-linecap="round" stroke-linejoin="round"/>
<path d="M378.43 259.668V284.533" stroke="white" stroke-width="2" stroke-linecap="round" stroke-linejoin="round"/>
<path d="M360.656 276.875V260.875L374.406 267.875L378.531 260.875L383.156 267.875L398.156 260.875V275.875L378.531 285.375L360.656 276.875Z" fill="white"/>
<path d="M387.437 242.801L379.226 250.904L371.016 242.801" stroke="white" stroke-width="2" stroke-linecap="round" stroke-linejoin="round"/>
<path d="M379.227 250.433V232.469" stroke="white" stroke-width="2" stroke-linecap="round" stroke-linejoin="round"/>
</g>
<rect x="91.1406" y="121.504" width="84" height="84" rx="42" fill="#6E62FD"/>
<rect x="112.906" y="147.562" width="16.7521" height="16.7521" rx="2" fill="white"/>
<rect x="140.955" y="144.097" width="14.7521" height="14.7521" rx="1" transform="rotate(27.2435 140.955 144.097)" stroke="white" stroke-width="2"/>
<rect x="133.859" y="168.504" width="16.7521" height="16.7521" rx="2" fill="white"/>
<rect x="112.906" y="168.504" width="16.7521" height="16.7521" rx="2" fill="white"/>
<rect x="157.141" y="295" width="84" height="84" rx="42" fill="#6E62FD"/>
<rect x="187.367" y="318.219" width="30.3839" height="30.3839" rx="2" fill="white"/>
<rect x="181.523" y="326.395" width="28.3839" height="28.3839" rx="1" stroke="white" stroke-width="2"/>
<path d="M196.312 333.41H208.812" stroke="#6E62FD" stroke-width="3" stroke-miterlimit="10"/>
<path d="M202.562 339.66V327.16" stroke="#6E62FD" stroke-width="3" stroke-miterlimit="10"/>
<defs>
<filter id="filter0_d_127_1205" x="87.7734" y="48" width="337" height="337" filterUnits="userSpaceOnUse" color-interpolation-filters="sRGB">
<feFlood flood-opacity="0" result="BackgroundImageFix"/>
<feColorMatrix in="SourceAlpha" type="matrix" values="0 0 0 0 0 0 0 0 0 0 0 0 0 0 0 0 0 0 127 0" result="hardAlpha"/>
<feOffset dy="4"/>
<feGaussianBlur stdDeviation="18"/>
<feComposite in2="hardAlpha" operator="out"/>
<feColorMatrix type="matrix" values="0 0 0 0 0.318368 0 0 0 0 0.352892 0 0 0 0 0.441667 0 0 0 0.12 0"/>
<feBlend mode="normal" in2="BackgroundImageFix" result="effect1_dropShadow_127_1205"/>
<feBlend mode="normal" in="SourceGraphic" in2="effect1_dropShadow_127_1205" result="shape"/>
</filter>
<linearGradient id="paint0_linear_127_1205" x1="656.606" y1="221.006" x2="581.498" y2="220.322" gradientUnits="userSpaceOnUse">
<stop stop-color="#4769E9"/>
<stop offset="1" stop-color="#3BA6F7"/>
</linearGradient>
<clipPath id="clip0_127_1205">
<rect x="336.773" y="217.504" width="84" height="84" rx="42" fill="white"/>
</clipPath>
</defs>
</svg>
