<svg width="301" height="140" viewBox="0 0 301 140" fill="none" xmlns="http://www.w3.org/2000/svg">
<rect width="301" height="140" rx="16" fill="white"/>
<path d="M36.7266 32.6367C36.7266 36.7852 34.1426 39.1758 30.7852 39.1758C27.3926 39.1758 24.8262 36.7676 24.8262 32.6367C24.8262 28.4883 27.3926 26.0977 30.7852 26.0977C34.1426 26.0977 36.7266 28.4883 36.7266 32.6367ZM34.0371 32.6367C34.0371 29.9121 32.7539 28.4355 30.7852 28.4355C28.8164 28.4355 27.5156 29.9121 27.5156 32.6367C27.5156 35.3613 28.8164 36.8379 30.7852 36.8379C32.7539 36.8379 34.0371 35.3613 34.0371 32.6367ZM44.1495 34.9395V29.4551H46.751V39H44.2549V37.2773H44.1495C43.71 38.3848 42.6905 39.123 41.2491 39.123C39.333 39.123 38.0323 37.7695 38.0323 35.5371V29.4551H40.6338V35.0801C40.6338 36.2051 41.2842 36.9258 42.3038 36.9258C43.253 36.9258 44.1495 36.2402 44.1495 34.9395ZM48.2325 39V29.4551H50.7462V31.1074H50.8516C51.2032 29.9297 52.0821 29.3145 53.1544 29.3145C53.418 29.3145 53.752 29.3496 53.9805 29.4023V31.7227C53.7345 31.6523 53.2423 31.582 52.8731 31.582C51.6954 31.582 50.8341 32.4082 50.8341 33.5684V39H48.2325ZM60.9162 26.2734V39H58.3146V26.2734H60.9162ZM66.6867 39.1934C63.8039 39.1934 62.0109 37.207 62.0109 34.2539C62.0109 31.3008 63.8039 29.332 66.6867 29.332C69.5695 29.332 71.3801 31.3008 71.3801 34.2539C71.3801 37.207 69.5695 39.1934 66.6867 39.1934ZM66.7043 37.1719C68.0402 37.1719 68.7258 35.9238 68.7258 34.2539C68.7258 32.5664 68.0402 31.3184 66.7043 31.3184C65.3508 31.3184 64.6477 32.5664 64.6477 34.2539C64.6477 35.9238 65.3508 37.1719 66.7043 37.1719ZM76.7639 42.7793C74.1272 42.7793 72.51 41.6016 72.3518 39.791H74.9182C75.0588 40.5469 75.7795 40.8984 76.8166 40.8984C78.0295 40.8984 78.8381 40.3887 78.8381 39.0527V37.3125H78.7151C78.3635 38.0859 77.5198 38.8594 75.9905 38.8594C73.8284 38.8594 72.1057 37.3477 72.1057 34.166C72.1057 30.9316 73.8811 29.332 75.9905 29.332C77.5901 29.332 78.3635 30.2812 78.7151 31.0547H78.8205V29.4551H81.4045V39.1055C81.4045 41.5312 79.4709 42.7793 76.7639 42.7793ZM76.7991 36.9082C78.0998 36.9082 78.8381 35.8887 78.8381 34.2012C78.8381 32.4961 78.0998 31.4062 76.7991 31.4062C75.4807 31.4062 74.7776 32.5488 74.7776 34.2012C74.7776 35.8535 75.4807 36.9082 76.7991 36.9082ZM82.886 39V29.4551H85.4876V39H82.886ZM84.1868 28.207C83.3958 28.207 82.763 27.6094 82.763 26.8887C82.763 26.1504 83.3958 25.5527 84.1868 25.5527C84.9602 25.5527 85.593 26.1504 85.593 26.8887C85.593 27.6094 84.9602 28.207 84.1868 28.207ZM92.4183 32.2852C92.3128 31.6172 91.7152 31.1777 90.8538 31.1777C90.0101 31.1777 89.3597 31.582 89.3773 32.1621C89.3597 32.584 89.7113 32.918 90.6077 33.1113L92.3128 33.4629C94.1585 33.8496 95.055 34.6758 95.0726 36.0469C95.055 37.9277 93.3675 39.1934 90.8363 39.1934C88.2523 39.1934 86.7405 38.0332 86.5296 36.1699H89.1488C89.2718 36.9258 89.887 37.3125 90.8363 37.3125C91.7855 37.3125 92.4183 36.9258 92.4183 36.3105C92.4183 35.8184 92.014 35.5195 91.1175 35.3262L89.5355 35.0098C87.7249 34.6582 86.7757 33.709 86.7933 32.3027C86.7757 30.4746 88.3577 29.332 90.8187 29.332C93.2269 29.332 94.721 30.4746 94.8616 32.2852H92.4183ZM101.16 29.4551V31.4062H99.3666V36.0645C99.3666 36.8203 99.7357 37.0137 100.263 37.0312C100.527 37.0312 100.984 37.0137 101.3 36.9785V39.0352C101.019 39.0879 100.562 39.123 99.9115 39.123C98.0306 39.123 96.7474 38.2793 96.765 36.4336V31.4062H95.4466V29.4551H96.765V27.1699H99.3666V29.4551H101.16ZM102.254 39V29.4551H104.856V39H102.254ZM103.555 28.207C102.764 28.207 102.131 27.6094 102.131 26.8887C102.131 26.1504 102.764 25.5527 103.555 25.5527C104.329 25.5527 104.961 26.1504 104.961 26.8887C104.961 27.6094 104.329 28.207 103.555 28.207ZM110.626 39.1934C107.708 39.1934 105.951 37.1719 105.951 34.2539C105.951 31.3359 107.726 29.332 110.626 29.332C113.087 29.332 114.757 30.7734 114.863 32.9531H112.419C112.261 32.0039 111.646 31.3535 110.662 31.3535C109.414 31.3535 108.587 32.4082 108.587 34.2188C108.587 36.0645 109.396 37.1191 110.662 37.1191C111.576 37.1191 112.261 36.5566 112.419 35.5371H114.863C114.74 37.6992 113.158 39.1934 110.626 39.1934ZM121.389 32.2852C121.284 31.6172 120.686 31.1777 119.825 31.1777C118.981 31.1777 118.331 31.582 118.348 32.1621C118.331 32.584 118.682 32.918 119.579 33.1113L121.284 33.4629C123.129 33.8496 124.026 34.6758 124.043 36.0469C124.026 37.9277 122.338 39.1934 119.807 39.1934C117.223 39.1934 115.711 38.0332 115.5 36.1699H118.12C118.243 36.9258 118.858 37.3125 119.807 37.3125C120.756 37.3125 121.389 36.9258 121.389 36.3105C121.389 35.8184 120.985 35.5195 120.088 35.3262L118.506 35.0098C116.696 34.6582 115.747 33.709 115.764 32.3027C115.747 30.4746 117.329 29.332 119.79 29.332C122.198 29.332 123.692 30.4746 123.832 32.2852H121.389ZM133.001 39.1934C130.083 39.1934 128.325 37.1719 128.325 34.2539C128.325 31.3359 130.1 29.332 133.001 29.332C135.461 29.332 137.131 30.7734 137.237 32.9531H134.794C134.635 32.0039 134.02 31.3535 133.036 31.3535C131.788 31.3535 130.961 32.4082 130.961 34.2188C130.961 36.0645 131.77 37.1191 133.036 37.1191C133.95 37.1191 134.635 36.5566 134.794 35.5371H137.237C137.114 37.6992 135.532 39.1934 133.001 39.1934ZM142.638 39.1934C139.72 39.1934 137.927 37.2949 137.927 34.2715C137.927 31.3184 139.738 29.332 142.533 29.332C145.046 29.332 147.015 30.9141 147.015 34.166V34.9043H140.494C140.494 36.3457 141.355 37.2422 142.691 37.2422C143.57 37.2422 144.203 36.8555 144.466 36.2754H146.945C146.576 38.0332 144.994 39.1934 142.638 39.1934ZM140.494 33.2695H144.554C144.554 32.1094 143.746 31.2832 142.586 31.2832C141.39 31.2832 140.538 32.1709 140.494 33.2695ZM150.712 33.4805V39H148.11V29.4551H150.589V31.125H150.694C151.133 30.0176 152.153 29.332 153.559 29.332C155.546 29.332 156.864 30.6855 156.846 32.918V39H154.262V33.375C154.262 32.1973 153.612 31.4941 152.54 31.4941C151.45 31.4941 150.712 32.2148 150.712 33.4805ZM163.355 29.4551V31.4062H161.562V36.0645C161.562 36.8203 161.931 37.0137 162.459 37.0312C162.722 37.0312 163.179 37.0137 163.496 36.9785V39.0352C163.215 39.0879 162.757 39.123 162.107 39.123C160.226 39.123 158.943 38.2793 158.961 36.4336V31.4062H157.642V29.4551H158.961V27.1699H161.562V29.4551H163.355ZM168.669 39.1934C165.751 39.1934 163.958 37.2949 163.958 34.2715C163.958 31.3184 165.768 29.332 168.563 29.332C171.077 29.332 173.046 30.9141 173.046 34.166V34.9043H166.524C166.524 36.3457 167.385 37.2422 168.721 37.2422C169.6 37.2422 170.233 36.8555 170.497 36.2754H172.975C172.606 38.0332 171.024 39.1934 168.669 39.1934ZM166.524 33.2695H170.585C170.585 32.1094 169.776 31.2832 168.616 31.2832C167.421 31.2832 166.568 32.1709 166.524 33.2695ZM174.14 39V29.4551H176.654V31.1074H176.76C177.111 29.9297 177.99 29.3145 179.062 29.3145C179.326 29.3145 179.66 29.3496 179.888 29.4023V31.7227C179.642 31.6523 179.15 31.582 178.781 31.582C177.603 31.582 176.742 32.4082 176.742 33.5684V39H174.14ZM188.512 39.1934C185.629 39.1934 183.836 37.207 183.836 34.2539C183.836 31.3008 185.629 29.332 188.512 29.332C191.394 29.332 193.205 31.3008 193.205 34.2539C193.205 37.207 191.394 39.1934 188.512 39.1934ZM188.529 37.1719C189.865 37.1719 190.551 35.9238 190.551 34.2539C190.551 32.5664 189.865 31.3184 188.529 31.3184C187.176 31.3184 186.473 32.5664 186.473 34.2539C186.473 35.9238 187.176 37.1719 188.529 37.1719ZM194.3 42.5859V29.4551H196.866V31.0547H196.972C197.323 30.2812 198.097 29.332 199.696 29.332C201.806 29.332 203.563 30.9668 203.563 34.2363C203.563 37.418 201.876 39.1582 199.696 39.1582C198.132 39.1582 197.341 38.2617 196.972 37.4707H196.901V42.5859H194.3ZM196.849 34.2188C196.849 35.9414 197.587 37.084 198.87 37.084C200.206 37.084 200.909 35.9062 200.909 34.2188C200.909 32.5488 200.206 31.4062 198.87 31.4062C197.569 31.4062 196.849 32.4961 196.849 34.2188ZM209.035 39.1934C206.117 39.1934 204.324 37.2949 204.324 34.2715C204.324 31.3184 206.135 29.332 208.93 29.332C211.443 29.332 213.412 30.9141 213.412 34.166V34.9043H206.891C206.891 36.3457 207.752 37.2422 209.088 37.2422C209.967 37.2422 210.6 36.8555 210.863 36.2754H213.342C212.973 38.0332 211.391 39.1934 209.035 39.1934ZM206.891 33.2695H210.951C210.951 32.1094 210.143 31.2832 208.982 31.2832C207.787 31.2832 206.934 32.1709 206.891 33.2695ZM214.507 39V29.4551H217.02V31.1074H217.126C217.477 29.9297 218.356 29.3145 219.429 29.3145C219.692 29.3145 220.026 29.3496 220.255 29.4023V31.7227C220.009 31.6523 219.517 31.582 219.147 31.582C217.97 31.582 217.108 32.4082 217.108 33.5684V39H214.507ZM220.26 36.3281C220.26 34.2012 221.982 33.498 223.811 33.3926C224.496 33.3486 225.779 33.2871 226.184 33.2695V32.4961C226.166 31.7051 225.621 31.2305 224.654 31.2305C223.775 31.2305 223.213 31.6348 223.072 32.2852H220.594C220.752 30.6328 222.193 29.332 224.725 29.332C226.799 29.332 228.768 30.2637 228.768 32.5664V39H226.307V37.6816H226.236C225.762 38.5605 224.865 39.1758 223.441 39.1758C221.613 39.1758 220.26 38.2266 220.26 36.3281ZM222.756 36.2578C222.756 36.9961 223.354 37.3828 224.18 37.3828C225.357 37.3828 226.201 36.5918 226.184 35.5898V34.8867C225.788 34.9043 224.681 34.9658 224.232 35.0098C223.336 35.0977 222.756 35.5195 222.756 36.2578ZM235.241 29.4551V31.4062H233.448V36.0645C233.448 36.8203 233.817 37.0137 234.345 37.0312C234.608 37.0312 235.065 37.0137 235.382 36.9785V39.0352C235.101 39.0879 234.644 39.123 233.993 39.123C232.112 39.123 230.829 38.2793 230.847 36.4336V31.4062H229.528V29.4551H230.847V27.1699H233.448V29.4551H235.241ZM236.336 39V29.4551H238.938V39H236.336ZM237.637 28.207C236.846 28.207 236.213 27.6094 236.213 26.8887C236.213 26.1504 236.846 25.5527 237.637 25.5527C238.41 25.5527 239.043 26.1504 239.043 26.8887C239.043 27.6094 238.41 28.207 237.637 28.207ZM244.708 39.1934C241.825 39.1934 240.032 37.207 240.032 34.2539C240.032 31.3008 241.825 29.332 244.708 29.332C247.591 29.332 249.401 31.3008 249.401 34.2539C249.401 37.207 247.591 39.1934 244.708 39.1934ZM244.726 37.1719C246.062 37.1719 246.747 35.9238 246.747 34.2539C246.747 32.5664 246.062 31.3184 244.726 31.3184C243.372 31.3184 242.669 32.5664 242.669 34.2539C242.669 35.9238 243.372 37.1719 244.726 37.1719ZM253.098 33.4805V39H250.496V29.4551H252.975V31.125H253.08C253.52 30.0176 254.539 29.332 255.945 29.332C257.932 29.332 259.25 30.6855 259.233 32.918V39H256.649V33.375C256.649 32.1973 255.998 31.4941 254.926 31.4941C253.836 31.4941 253.098 32.2148 253.098 33.4805ZM266.163 32.2852C266.058 31.6172 265.46 31.1777 264.599 31.1777C263.755 31.1777 263.105 31.582 263.122 32.1621C263.105 32.584 263.456 32.918 264.353 33.1113L266.058 33.4629C267.904 33.8496 268.8 34.6758 268.818 36.0469C268.8 37.9277 267.113 39.1934 264.581 39.1934C261.997 39.1934 260.486 38.0332 260.275 36.1699H262.894C263.017 36.9258 263.632 37.3125 264.581 37.3125C265.53 37.3125 266.163 36.9258 266.163 36.3105C266.163 35.8184 265.759 35.5195 264.863 35.3262L263.28 35.0098C261.47 34.6582 260.521 33.709 260.538 32.3027C260.521 30.4746 262.103 29.332 264.564 29.332C266.972 29.332 268.466 30.4746 268.607 32.2852H266.163ZM27.6211 59.4805V65H25.0195V52.2734H27.5508V57.125H27.6562C28.0957 56.0176 29.0625 55.332 30.5039 55.332C32.4902 55.332 33.8086 56.668 33.8086 58.918V65H31.207V59.375C31.207 58.1973 30.5742 57.4941 29.4844 57.4941C28.3945 57.4941 27.6211 58.2148 27.6211 59.4805ZM34.8155 62.3281C34.8155 60.2012 36.5381 59.498 38.3663 59.3926C39.0518 59.3486 40.335 59.2871 40.7393 59.2695V58.4961C40.7217 57.7051 40.1768 57.2305 39.21 57.2305C38.3311 57.2305 37.7686 57.6348 37.628 58.2852H35.1495C35.3077 56.6328 36.7491 55.332 39.2803 55.332C41.3545 55.332 43.3233 56.2637 43.3233 58.5664V65H40.8623V63.6816H40.792C40.3174 64.5605 39.4209 65.1758 37.9971 65.1758C36.169 65.1758 34.8155 64.2266 34.8155 62.3281ZM37.3116 62.2578C37.3116 62.9961 37.9092 63.3828 38.7354 63.3828C39.9131 63.3828 40.7569 62.5918 40.7393 61.5898V60.8867C40.3438 60.9043 39.2364 60.9658 38.7881 61.0098C37.8916 61.0977 37.3116 61.5195 37.3116 62.2578ZM53.2774 55.4551L49.92 65H47.002L43.6622 55.4551H46.4044L48.4083 62.3105H48.5138L50.5177 55.4551H53.2774ZM58.0109 65.1934C55.0929 65.1934 53.2999 63.2949 53.2999 60.2715C53.2999 57.3184 55.1105 55.332 57.9054 55.332C60.4191 55.332 62.3878 56.9141 62.3878 60.166V60.9043H55.8663C55.8663 62.3457 56.7277 63.2422 58.0636 63.2422C58.9425 63.2422 59.5753 62.8555 59.839 62.2754H62.3175C61.9484 64.0332 60.3663 65.1934 58.0109 65.1934ZM55.8663 59.2695H59.9269C59.9269 58.1094 59.1183 57.2832 57.9581 57.2832C56.7628 57.2832 55.9103 58.1709 55.8663 59.2695ZM67.1437 65V52.2734H69.7453V57.0547H69.8156C70.1848 56.2812 70.9406 55.332 72.5402 55.332C74.6496 55.332 76.425 56.9668 76.425 60.2363C76.425 63.418 74.7199 65.1582 72.5402 65.1582C70.9758 65.1582 70.1848 64.2617 69.8156 63.4707H69.7102V65H67.1437ZM69.6926 60.2188C69.6926 61.9414 70.4309 63.084 71.7141 63.084C73.05 63.084 73.7531 61.9062 73.7531 60.2188C73.7531 58.5488 73.05 57.4062 71.7141 57.4062C70.4133 57.4062 69.6926 58.4961 69.6926 60.2188ZM81.8791 65.1934C78.9612 65.1934 77.1682 63.2949 77.1682 60.2715C77.1682 57.3184 78.9787 55.332 81.7737 55.332C84.2873 55.332 86.2561 56.9141 86.2561 60.166V60.9043H79.7346C79.7346 62.3457 80.5959 63.2422 81.9319 63.2422C82.8108 63.2422 83.4436 62.8555 83.7073 62.2754H86.1858C85.8166 64.0332 84.2346 65.1934 81.8791 65.1934ZM79.7346 59.2695H83.7952C83.7952 58.1094 82.9866 57.2832 81.8264 57.2832C80.6311 57.2832 79.7786 58.1709 79.7346 59.2695ZM91.6751 65.1934C88.7571 65.1934 86.9641 63.2949 86.9641 60.2715C86.9641 57.3184 88.7747 55.332 91.5696 55.332C94.0833 55.332 96.052 56.9141 96.052 60.166V60.9043H89.5305C89.5305 62.3457 90.3919 63.2422 91.7278 63.2422C92.6067 63.2422 93.2395 62.8555 93.5032 62.2754H95.9817C95.6126 64.0332 94.0305 65.1934 91.6751 65.1934ZM89.5305 59.2695H93.5911C93.5911 58.1094 92.7825 57.2832 91.6223 57.2832C90.427 57.2832 89.5745 58.1709 89.5305 59.2695ZM99.7484 59.4805V65H97.1468V55.4551H99.6253V57.125H99.7308C100.17 56.0176 101.19 55.332 102.596 55.332C104.582 55.332 105.901 56.6855 105.883 58.918V65H103.299V59.375C103.299 58.1973 102.649 57.4941 101.576 57.4941C100.487 57.4941 99.7484 58.2148 99.7484 59.4805ZM117.09 60.9395V55.4551H119.692V65H117.196V63.2773H117.09C116.651 64.3848 115.631 65.123 114.19 65.123C112.274 65.123 110.973 63.7695 110.973 61.5371V55.4551H113.575V61.0801C113.575 62.2051 114.225 62.9258 115.245 62.9258C116.194 62.9258 117.09 62.2402 117.09 60.9395ZM121.173 68.5859V55.4551H123.74V57.0547H123.845C124.197 56.2812 124.97 55.332 126.57 55.332C128.679 55.332 130.437 56.9668 130.437 60.2363C130.437 63.418 128.749 65.1582 126.57 65.1582C125.005 65.1582 124.214 64.2617 123.845 63.4707H123.775V68.5859H121.173ZM123.722 60.2188C123.722 61.9414 124.46 63.084 125.744 63.084C127.08 63.084 127.783 61.9062 127.783 60.2188C127.783 58.5488 127.08 57.4062 125.744 57.4062C124.443 57.4062 123.722 58.4961 123.722 60.2188ZM135.874 68.7793C133.237 68.7793 131.62 67.6016 131.461 65.791H134.028C134.168 66.5469 134.889 66.8984 135.926 66.8984C137.139 66.8984 137.948 66.3887 137.948 65.0527V63.3125H137.825C137.473 64.0859 136.629 64.8594 135.1 64.8594C132.938 64.8594 131.215 63.3477 131.215 60.166C131.215 56.9316 132.991 55.332 135.1 55.332C136.7 55.332 137.473 56.2812 137.825 57.0547H137.93V55.4551H140.514V65.1055C140.514 67.5312 138.581 68.7793 135.874 68.7793ZM135.909 62.9082C137.209 62.9082 137.948 61.8887 137.948 60.2012C137.948 58.4961 137.209 57.4062 135.909 57.4062C134.59 57.4062 133.887 58.5488 133.887 60.2012C133.887 61.8535 134.59 62.9082 135.909 62.9082ZM141.996 65V55.4551H144.509V57.1074H144.615C144.966 55.9297 145.845 55.3145 146.918 55.3145C147.181 55.3145 147.515 55.3496 147.744 55.4023V57.7227C147.498 57.6523 147.005 57.582 146.636 57.582C145.459 57.582 144.597 58.4082 144.597 59.5684V65H141.996ZM147.749 62.3281C147.749 60.2012 149.471 59.498 151.299 59.3926C151.985 59.3486 153.268 59.2871 153.672 59.2695V58.4961C153.655 57.7051 153.11 57.2305 152.143 57.2305C151.264 57.2305 150.702 57.6348 150.561 58.2852H148.083C148.241 56.6328 149.682 55.332 152.213 55.332C154.288 55.332 156.256 56.2637 156.256 58.5664V65H153.795V63.6816H153.725C153.251 64.5605 152.354 65.1758 150.93 65.1758C149.102 65.1758 147.749 64.2266 147.749 62.3281ZM150.245 62.2578C150.245 62.9961 150.842 63.3828 151.669 63.3828C152.846 63.3828 153.69 62.5918 153.672 61.5898V60.8867C153.277 60.9043 152.169 60.9658 151.721 61.0098C150.825 61.0977 150.245 61.5195 150.245 62.2578ZM161.218 65.1582C159.039 65.1582 157.334 63.418 157.334 60.2363C157.334 56.9668 159.109 55.332 161.218 55.332C162.818 55.332 163.574 56.2812 163.925 57.0547H164.013V52.2734H166.615V65H164.048V63.4707H163.925C163.556 64.2617 162.765 65.1582 161.218 65.1582ZM162.027 63.084C163.328 63.084 164.066 61.9414 164.066 60.2188C164.066 58.4961 163.328 57.4062 162.027 57.4062C160.709 57.4062 160.005 58.5488 160.005 60.2188C160.005 61.9062 160.709 63.084 162.027 63.084ZM172.491 65.1934C169.573 65.1934 167.78 63.2949 167.78 60.2715C167.78 57.3184 169.59 55.332 172.385 55.332C174.899 55.332 176.868 56.9141 176.868 60.166V60.9043H170.346C170.346 62.3457 171.208 63.2422 172.544 63.2422C173.423 63.2422 174.055 62.8555 174.319 62.2754H176.798C176.428 64.0332 174.846 65.1934 172.491 65.1934ZM170.346 59.2695H174.407C174.407 58.1094 173.598 57.2832 172.438 57.2832C171.243 57.2832 170.39 58.1709 170.346 59.2695ZM181.478 65.1582C179.299 65.1582 177.593 63.418 177.593 60.2363C177.593 56.9668 179.369 55.332 181.478 55.332C183.078 55.332 183.834 56.2812 184.185 57.0547H184.273V52.2734H186.875V65H184.308V63.4707H184.185C183.816 64.2617 183.025 65.1582 181.478 65.1582ZM182.287 63.084C183.588 63.084 184.326 61.9414 184.326 60.2188C184.326 58.4961 183.588 57.4062 182.287 57.4062C180.968 57.4062 180.265 58.5488 180.265 60.2188C180.265 61.9062 180.968 63.084 182.287 63.084ZM198.152 60.9395V55.4551H200.754V65H198.258V63.2773H198.152C197.713 64.3848 196.693 65.123 195.252 65.123C193.336 65.123 192.035 63.7695 192.035 61.5371V55.4551H194.636V61.0801C194.636 62.2051 195.287 62.9258 196.306 62.9258C197.256 62.9258 198.152 62.2402 198.152 60.9395ZM207.684 58.2852C207.579 57.6172 206.981 57.1777 206.12 57.1777C205.276 57.1777 204.626 57.582 204.643 58.1621C204.626 58.584 204.977 58.918 205.874 59.1113L207.579 59.4629C209.425 59.8496 210.321 60.6758 210.339 62.0469C210.321 63.9277 208.634 65.1934 206.102 65.1934C203.518 65.1934 202.007 64.0332 201.796 62.1699H204.415C204.538 62.9258 205.153 63.3125 206.102 63.3125C207.052 63.3125 207.684 62.9258 207.684 62.3105C207.684 61.8184 207.28 61.5195 206.384 61.3262L204.802 61.0098C202.991 60.6582 202.042 59.709 202.059 58.3027C202.042 56.4746 203.624 55.332 206.085 55.332C208.493 55.332 209.987 56.4746 210.128 58.2852H207.684ZM211.398 65V55.4551H214V65H211.398ZM212.699 54.207C211.908 54.207 211.275 53.6094 211.275 52.8887C211.275 52.1504 211.908 51.5527 212.699 51.5527C213.473 51.5527 214.105 52.1504 214.105 52.8887C214.105 53.6094 213.473 54.207 212.699 54.207ZM218.083 59.4805V65H215.481V55.4551H217.96V57.125H218.065C218.505 56.0176 219.524 55.332 220.931 55.332C222.917 55.332 224.235 56.6855 224.218 58.918V65H221.634V59.375C221.634 58.1973 220.983 57.4941 219.911 57.4941C218.821 57.4941 218.083 58.2148 218.083 59.4805ZM229.988 68.7793C227.351 68.7793 225.734 67.6016 225.576 65.791H228.143C228.283 66.5469 229.004 66.8984 230.041 66.8984C231.254 66.8984 232.062 66.3887 232.062 65.0527V63.3125H231.939C231.588 64.0859 230.744 64.8594 229.215 64.8594C227.053 64.8594 225.33 63.3477 225.33 60.166C225.33 56.9316 227.105 55.332 229.215 55.332C230.814 55.332 231.588 56.2812 231.939 57.0547H232.045V55.4551H234.629V65.1055C234.629 67.5312 232.695 68.7793 229.988 68.7793ZM230.023 62.9082C231.324 62.9082 232.062 61.8887 232.062 60.2012C232.062 58.4961 231.324 57.4062 230.023 57.4062C228.705 57.4062 228.002 58.5488 228.002 60.2012C228.002 61.8535 228.705 62.9082 230.023 62.9082ZM31.9805 81.9121C31.875 80.9102 31.0664 80.3125 29.7832 80.3125C28.4473 80.3125 27.709 80.9277 27.6914 81.7715C27.6738 82.6855 28.6406 83.1074 29.7305 83.3535L30.873 83.6348C33.0527 84.127 34.6875 85.2344 34.6875 87.3613C34.6875 89.6992 32.8594 91.1758 29.7656 91.1758C26.6895 91.1758 24.7207 89.752 24.6504 87.0273H27.2168C27.3047 88.3105 28.3242 88.9609 29.7305 88.9609C31.1191 88.9609 32.0156 88.3105 32.0156 87.3613C32.0156 86.5 31.2246 86.0957 29.8359 85.7441L28.4473 85.4102C26.3027 84.8828 24.9844 83.8105 24.9844 81.9473C24.9844 79.627 27.0234 78.0977 29.8008 78.0977C32.6133 78.0977 34.4766 79.6621 34.5117 81.9121H31.9805ZM40.8448 81.4551V83.4062H39.0518V88.0645C39.0518 88.8203 39.4209 89.0137 39.9483 89.0312C40.212 89.0312 40.669 89.0137 40.9854 88.9785V91.0352C40.7041 91.0879 40.2471 91.123 39.5967 91.123C37.7159 91.123 36.4327 90.2793 36.4502 88.4336V83.4062H35.1319V81.4551H36.4502V79.1699H39.0518V81.4551H40.8448ZM46.1231 91.1934C43.2403 91.1934 41.4473 89.207 41.4473 86.2539C41.4473 83.3008 43.2403 81.332 46.1231 81.332C49.0059 81.332 50.8165 83.3008 50.8165 86.2539C50.8165 89.207 49.0059 91.1934 46.1231 91.1934ZM46.1407 89.1719C47.4766 89.1719 48.1622 87.9238 48.1622 86.2539C48.1622 84.5664 47.4766 83.3184 46.1407 83.3184C44.7872 83.3184 44.0841 84.5664 44.0841 86.2539C44.0841 87.9238 44.7872 89.1719 46.1407 89.1719ZM56.2003 91.1934C53.2823 91.1934 51.5245 89.1719 51.5245 86.2539C51.5245 83.3359 53.2999 81.332 56.2003 81.332C58.6612 81.332 60.3312 82.7734 60.4366 84.9531H57.9933C57.8351 84.0039 57.2198 83.3535 56.2355 83.3535C54.9874 83.3535 54.1612 84.4082 54.1612 86.2188C54.1612 88.0645 54.9698 89.1191 56.2355 89.1191C57.1495 89.1191 57.8351 88.5566 57.9933 87.5371H60.4366C60.3136 89.6992 58.7316 91.1934 56.2003 91.1934ZM61.5138 91V78.2734H64.1154V85.1113H64.256L67.3498 81.4551H70.338L66.7873 85.5859L70.5314 91H67.4728L64.8537 87.1152L64.1154 87.9414V91H61.5138ZM71.0637 91V78.2734H79.4484V80.4531H73.7004V83.5469H78.9035V85.7266H73.7004V91H71.0637ZM83.1975 78.2734V91H80.5959V78.2734H83.1975ZM88.968 91.1934C86.0852 91.1934 84.2923 89.207 84.2923 86.2539C84.2923 83.3008 86.0852 81.332 88.968 81.332C91.8509 81.332 93.6614 83.3008 93.6614 86.2539C93.6614 89.207 91.8509 91.1934 88.968 91.1934ZM88.9856 89.1719C90.3216 89.1719 91.0071 87.9238 91.0071 86.2539C91.0071 84.5664 90.3216 83.3184 88.9856 83.3184C87.6321 83.3184 86.929 84.5664 86.929 86.2539C86.929 87.9238 87.6321 89.1719 88.9856 89.1719ZM96.3909 91L93.7894 81.4551H96.4261L97.9202 87.9062H98.0081L99.5726 81.4551H102.157L103.739 87.8711H103.826L105.303 81.4551H107.94L105.321 91H102.578L100.926 84.9355H100.803L99.1507 91H96.3909ZM108.947 91.1582C108.12 91.1582 107.452 90.4902 107.47 89.6816C107.452 88.873 108.12 88.2227 108.947 88.2227C109.72 88.2227 110.406 88.873 110.406 89.6816C110.406 90.4902 109.72 91.1582 108.947 91.1582Z" fill="black"/>
<path d="M25.8594 119H24.2598L27.8145 109.102H29.5508L33.1191 119H31.5195L30.6172 116.389H26.7617L25.8594 119ZM27.1992 115.131H30.1797L28.7168 110.906H28.6484L27.1992 115.131ZM39.9764 119.15C37.8162 119.15 36.5037 117.551 36.5037 115.322C36.5037 113.053 37.8573 111.48 39.9491 111.48C41.6444 111.48 42.8748 112.479 43.0252 113.982H41.6034C41.453 113.285 40.8924 112.697 39.9764 112.697C38.7733 112.697 37.9666 113.695 37.9666 115.281C37.9666 116.908 38.7596 117.906 39.9764 117.906C40.7967 117.906 41.4256 117.455 41.6034 116.648H43.0252C42.8612 118.084 41.7264 119.15 39.9764 119.15ZM48.7029 115.91V111.576H50.1521V119H48.7302V117.715H48.6482C48.3064 118.508 47.5408 119.096 46.4334 119.096C44.9978 119.096 43.9861 118.139 43.9861 116.293V111.576H45.449V116.115C45.449 117.127 46.0642 117.77 46.9529 117.77C47.7595 117.77 48.7029 117.182 48.7029 115.91ZM55.6794 113.6C55.5427 113.012 55.0778 112.629 54.2712 112.629C53.4372 112.629 52.8356 113.066 52.8493 113.627C52.8356 114.064 53.1911 114.379 54.0114 114.57L55.1872 114.844C56.5544 115.145 57.2106 115.801 57.2243 116.854C57.2106 118.193 56.0895 119.15 54.1891 119.15C52.4118 119.15 51.3454 118.357 51.1677 116.977H52.6579C52.7809 117.646 53.3005 117.975 54.1755 117.975C55.1188 117.975 55.7204 117.592 55.7341 116.963C55.7204 116.484 55.3649 116.17 54.5856 115.992L53.4235 115.746C52.0837 115.445 51.3864 114.734 51.3864 113.709C51.3864 112.383 52.5348 111.48 54.2575 111.48C55.9118 111.48 56.9372 112.328 57.0876 113.6H55.6794ZM61.6988 111.576V112.738H60.1813V116.812C60.1813 117.646 60.6051 117.797 61.0699 117.811C61.275 117.811 61.6031 117.783 61.8082 117.77V119.041C61.6031 119.068 61.2887 119.096 60.8922 119.096C59.7438 119.096 58.7184 118.467 58.732 117.113V112.738H57.6383V111.576H58.732V109.799H60.1813V111.576H61.6988ZM65.7632 119.15C63.6577 119.15 62.2905 117.619 62.2905 115.322C62.2905 113.012 63.6577 111.48 65.7632 111.48C67.855 111.48 69.2222 113.012 69.2222 115.322C69.2222 117.619 67.855 119.15 65.7632 119.15ZM65.7632 117.934C67.103 117.934 67.7456 116.744 67.7456 115.322C67.7456 113.9 67.103 112.684 65.7632 112.684C64.396 112.684 63.7534 113.9 63.7534 115.322C63.7534 116.744 64.396 117.934 65.7632 117.934ZM70.2377 119V111.576H71.6459V112.793H71.728C72.0424 111.959 72.767 111.48 73.7514 111.48C74.7358 111.48 75.433 111.973 75.7475 112.793H75.8295C76.185 111.986 76.978 111.48 78.058 111.48C79.3979 111.48 80.3549 112.328 80.3549 114.023V119H78.892V114.16C78.892 113.162 78.2631 112.738 77.4975 112.738C76.5541 112.738 76.0209 113.381 76.0209 114.27V119H74.5717V114.078C74.5717 113.271 74.0112 112.738 73.2182 112.738C72.3979 112.738 71.7006 113.422 71.7006 114.42V119H70.2377ZM84.8978 119.15C82.7103 119.15 81.3705 117.646 81.3705 115.336C81.3705 113.053 82.7377 111.48 84.8021 111.48C86.4974 111.48 88.097 112.533 88.097 115.213V115.732H82.8197C82.8607 117.141 83.6879 117.947 84.9115 117.947C85.7455 117.947 86.2787 117.592 86.5248 117.141H88.0013C87.6732 118.344 86.5248 119.15 84.8978 119.15ZM82.8334 114.639H86.6615C86.6615 113.504 85.9369 112.684 84.8158 112.684C83.6468 112.684 82.888 113.586 82.8334 114.639ZM89.1263 119V111.576H90.5345V112.752H90.6165C90.8899 111.959 91.6282 111.467 92.5032 111.467C92.6809 111.467 92.968 111.48 93.1184 111.494V112.889C92.9954 112.861 92.6536 112.807 92.3528 112.807C91.3411 112.807 90.5891 113.504 90.5891 114.475V119H89.1263Z" fill="#6B6C75"/>
</svg>
